<svg id="レイヤー_1" data-name="レイヤー 1" xmlns="http://www.w3.org/2000/svg" viewBox="0 0 534 28"><defs><style>.cls-1{fill:#006837;}.cls-2{fill:#0071bc;}.cls-3{fill:#c1272d;}.cls-4{fill:#f7931e;}.cls-5{fill:#fcee21;}</style></defs><path class="cls-1" d="M26.43,14c0,7.45-5.4,13-12.74,13S1,21.45,1,14,6.35,1,13.69,1,26.43,6.55,26.43,14ZM22,14c0-4.86-3.28-8.93-8.35-8.93S5.34,9.14,5.34,14s3.27,8.93,8.35,8.93S22,18.86,22,14Z"/><path class="cls-2" d="M48.07,26.6H43.75V16.66L35.15,1.4H39.9l6.15,11.27L52.21,1.4h4.46l-8.6,15.26Z"/><path class="cls-3" d="M74.17,1.4h4.39l9.79,25.2H84l-2.31-6H71l-2.31,6H64.38ZM72.58,16.66h7.56L76.36,6.84Z"/><path class="cls-4" d="M102.75,12.7l9-11.3h5.4l-9.86,12.38L118.37,26.6h-5.72l-9.9-11.38V26.6H98.43V1.4h4.32Z"/><path class="cls-5" d="M152.29,14c0,7.45-5.4,13-12.75,13S126.8,21.45,126.8,14s5.4-13,12.74-13S152.29,6.55,152.29,14Zm-4.4,0c0-4.86-3.27-8.93-8.35-8.93s-8.35,4.07-8.35,8.93,3.28,8.93,8.35,8.93S147.89,18.86,147.89,14Z"/><path class="cls-1" d="M185.05,1.4l12.6,17.35V1.4H202V26.6h-3.88L185.48,9.28V26.6h-4.32V1.4Z"/><path class="cls-2" d="M238.54,14c0,7.45-5.4,13-12.74,13s-12.74-5.58-12.74-13,5.4-13,12.74-13S238.54,6.55,238.54,14Zm-4.39,0c0-4.86-3.28-8.93-8.35-8.93s-8.35,4.07-8.35,8.93,3.27,8.93,8.35,8.93S234.15,18.86,234.15,14Z"/><path class="cls-3" d="M276.52,1.4h4.32V18.68c0,5.29-3.27,8.35-8.6,8.35a8.82,8.82,0,0,1-7.38-4.21L268,20.16s1.58,2.77,4.21,2.77c3.31,0,4.28-2.16,4.28-4.11Z"/><path class="cls-4" d="M293.88,1.4h4.31V26.6h-4.31Z"/><path class="cls-5" d="M315.55,12.7l9-11.3h5.4l-9.86,12.38L331.17,26.6h-5.73l-9.89-11.38V26.6h-4.32V1.4h4.32Z"/><path class="cls-1" d="M348.38,1.4h4.39l9.79,25.2H358.2l-2.3-6H345.25l-2.31,6h-4.35Zm-1.59,15.26h7.56l-3.78-9.82Z"/><path class="cls-2" d="M376.53,1.4l12.6,17.35V1.4h4.32V26.6h-3.89L377,9.28V26.6h-4.32V1.4Z"/><path d="M423.76,1.4h4.32V22.5h10.73v4.1H423.76Z"/><path d="M456.3,1.4h4.4l9.79,25.2h-4.36l-2.3-6H453.17l-2.3,6h-4.36Zm-1.58,15.26h7.56L458.5,6.84Z"/><path d="M480.57,1.4h8.17c4.1,0,8,1.91,8,7.2a5.15,5.15,0,0,1-2.63,4.64,5.89,5.89,0,0,1,3.92,5.91c0,4.42-3.67,7.45-8.42,7.45h-9.07Zm8,10.3c2.41,0,3.78-.9,3.78-3.1s-1.66-3.1-3.78-3.1h-3.71v6.2Zm5.07,7.45c0-2.38-1.8-3.35-4.17-3.35h-4.61v6.7h4.61C491.87,22.5,493.67,21.52,493.67,19.15Z"/><path d="M533.05,14c0,7.45-5.39,13-12.74,13s-12.74-5.58-12.74-13S513,1,520.31,1,533.05,6.55,533.05,14Zm-4.39,0c0-4.86-3.27-8.93-8.35-8.93S512,9.14,512,14s3.28,8.93,8.35,8.93S528.66,18.86,528.66,14Z"/></svg>