<svg id="レイヤー_1" data-name="レイヤー 1" xmlns="http://www.w3.org/2000/svg" viewBox="0 0 226 24"><path d="M8,12.52H9.66a12.16,12.16,0,0,0,2.06-.12v2.52a12.54,12.54,0,0,0-1.9-.1H8.62a8.41,8.41,0,0,0,3.17,2.74,8.12,8.12,0,0,0-1.39,1.89A9.56,9.56,0,0,1,8,16.86,13.87,13.87,0,0,1,8,18.44V20.8a14.8,14.8,0,0,0,.12,2.11H5.53a19.4,19.4,0,0,0,.12-2.07v-2c0-.52,0-1.15,0-1.53a11.34,11.34,0,0,1-3.08,3.86A7.33,7.33,0,0,0,1,19.19a11.3,11.3,0,0,0,4-4.37H3.58a11.83,11.83,0,0,0-2.08.12V12.4a12.35,12.35,0,0,0,2.08.12h2V10.79h-2a11.24,11.24,0,0,0-2.08.12V8.36a13.13,13.13,0,0,0,2,.12h.43a11.93,11.93,0,0,0-.86-2.61L5,5.17H3.54a8.39,8.39,0,0,0-1.61.12V2.75a11.58,11.58,0,0,0,2,.12H5.6V2.6A11.58,11.58,0,0,0,5.48.85H8.22A8.25,8.25,0,0,0,8.1,2.6v.27H9.66a12.62,12.62,0,0,0,2.06-.12V5.27a10.07,10.07,0,0,0-1.63-.1H5.14a14,14,0,0,1,.92,2.64l-1.88.67h3.2A13.66,13.66,0,0,0,8.5,5.2l2.21.64A20.72,20.72,0,0,1,9.58,8.48h.36a13,13,0,0,0,1.88-.09v2.49a17,17,0,0,0-2.07-.09H8Zm5.86,2.59a14.06,14.06,0,0,0-1.47.07,20.62,20.62,0,0,0,.1-2.5V4a19.68,19.68,0,0,0-.12-2.36,18.64,18.64,0,0,0,2.35.1H19.9a17.09,17.09,0,0,0,2.33-.1,26,26,0,0,0-.09,2.62v8.45a24.53,24.53,0,0,0,.09,2.54A20.23,20.23,0,0,0,20,15.11H19.9v4.63c0,.34.15.43.58.43,1,0,1-.07,1-3.21a9.5,9.5,0,0,0,2.19,1,10.77,10.77,0,0,1-.48,3.64c-.36.77-1.13,1-3,1-2.14,0-2.64-.32-2.64-1.64V15.11h-.94c-.36,4.05-1.89,6.26-5.59,8a6.56,6.56,0,0,0-1.63-2.06,7.16,7.16,0,0,0,3.81-2.76,5.71,5.71,0,0,0,1-3.19Zm1-9.51h4.83V4H14.86Zm0,3.7h4.83V7.64H14.86Zm0,3.7h4.83V11.34H14.86Z"/><path d="M39.94,9.23c0-.77,0-1.27-.07-1.83h1.25A21,21,0,0,0,45.2,4.33H35.62a22.77,22.77,0,0,0-2.9.15V1.64a22.65,22.65,0,0,0,2.88.15H46.47a10.24,10.24,0,0,0,2.09-.12l1.56,1.75L47.86,5.56a31.81,31.81,0,0,1-5.11,3.69v1h5.88a26.4,26.4,0,0,0,3.27-.14V13a31.28,31.28,0,0,0-3.27-.14H42.75v7c0,2.11-.81,2.64-4,2.64-.48,0-1,0-2.68-.1a9.87,9.87,0,0,0-.75-2.88,20.77,20.77,0,0,0,3.48.29c1,0,1.15-.1,1.15-.62V12.9H33.49a32.68,32.68,0,0,0-3.27.14v-2.9a28.49,28.49,0,0,0,3.34.14h6.38Z"/><path d="M69.22,15.4c-1.36,3.09-2.9,4.51-4.87,4.51-2.73,0-4.7-2.79-4.7-6.65a10.27,10.27,0,0,1,2.64-7,10.76,10.76,0,0,1,8.25-3.36c5.76,0,9.51,3.5,9.51,8.9a9.25,9.25,0,0,1-5.83,9,15.9,15.9,0,0,1-3.77,1A7.71,7.71,0,0,0,69,19a12.78,12.78,0,0,0,4.78-1.32,6.71,6.71,0,0,0,3.34-6,6,6,0,0,0-3-5.33,5.27,5.27,0,0,0-2.42-.72A35,35,0,0,1,69.22,15.4ZM65.7,6.8a8,8,0,0,0-3.27,6.48c0,2,.84,3.53,1.9,3.53.79,0,1.61-1,2.47-3.07a31.8,31.8,0,0,0,2-8.11A6.08,6.08,0,0,0,65.7,6.8Z"/><path d="M88.57,4.52a22.79,22.79,0,0,0-.1-2.42,20.45,20.45,0,0,0,2.11.07h2.91c1.08,0,1.51,0,2.09-.07a16.2,16.2,0,0,0-.08,2.38V18.2c0,1.28,0,1.8.08,2.4H93.13V19.4H90.94v2H88.42a20.94,20.94,0,0,0,.15-2.86Zm2.4,5h2.16v-5H91Zm0,7.61h2.16v-5.4H91ZM99.22,5.72a21,21,0,0,0-2.56.12V3.3a16.92,16.92,0,0,0,2.49.14h2.11V2.79A10.15,10.15,0,0,0,101.12,1h2.76a12.93,12.93,0,0,0-.12,1.79v.65h2.62a17.1,17.1,0,0,0,2.49-.14V5.84a18.31,18.31,0,0,0-2.47-.12h-2.64V8h3.31a17.36,17.36,0,0,0,2.62-.14V10.4a16.49,16.49,0,0,0-2.35-.12h-.41v2h.31a14.28,14.28,0,0,0,2.38-.12v2.62a13.18,13.18,0,0,0-2.38-.14h-.31V20.1c0,1.39-.24,2-1,2.3a6.6,6.6,0,0,1-2.64.39l-1.87,0a6.23,6.23,0,0,0-.58-2.52,20.57,20.57,0,0,0,2.69.2c.74,0,.89-.12.89-.65V14.68H98.72a20.75,20.75,0,0,0-2.57.14V12.2a17.35,17.35,0,0,0,2.62.12h5.69v-2H98.77c-1,0-1.9.05-2.64.12V7.86A18,18,0,0,0,98.79,8h2.47V5.72Zm.94,14.52a18.34,18.34,0,0,0-3.07-3.93l2-1.35a18.61,18.61,0,0,1,3.14,3.68Z"/><path d="M119.91,19.93a19.89,19.89,0,0,0,.15,2.95h-2.81a22.51,22.51,0,0,0,.14-3V4.24a24.18,24.18,0,0,0-.1-2.69,22.8,22.8,0,0,0,2.48.09H124a20.88,20.88,0,0,0,2.44-.09c0,.76-.07,1.29-.07,2.23V7.45c0,1.11,0,1.66.07,2.19-.62-.05-1.36-.08-2.2-.08h-4.35Zm0-15.14H124V3.59h-4.13Zm0,2.93H124V6.49h-4.13ZM132.22,18c0,.91,0,1.46.08,2.08.52.05,1.39.12,1.82.12.67,0,.89-.16.89-.64v-10h-4.73c-.84,0-1.61,0-2.21.08.05-.7.07-1.16.07-2.19V3.78c0-.82,0-1.49-.07-2.23a21.4,21.4,0,0,0,2.45.09h4.61a22.25,22.25,0,0,0,2.47-.09c-.07.86-.1,1.46-.1,2.66V19.93c0,1.44-.28,2.07-1.15,2.43a7.47,7.47,0,0,1-2.71.28c-.34,0-.43,0-1.66-.07a9,9,0,0,0-.62-2.47l-1.34,0h-5.09v1.34h-2.55a16,16,0,0,0,.17-2.4V13.16c0-.84,0-1.51-.07-2.16a17.83,17.83,0,0,0,2.23.1h5.35a17.71,17.71,0,0,0,2.24-.1c-.05.63-.08,1.23-.08,2.16Zm-7.29-3.48h4.89V13.12h-4.89Zm0,3.5h4.89V16.5h-4.89Zm5.59-13.27H135V3.59h-4.49Zm0,2.93H135V6.49h-4.49Z"/><path d="M147.58,4.07a12.91,12.91,0,0,0-2.06.12V1.59a15.24,15.24,0,0,0,2.33.15h4.2a12.56,12.56,0,0,0,2.3-.15V4.16a18,18,0,0,0-2.06-.09h-1.23a19.72,19.72,0,0,1-1.51,5.18h2.91a11.09,11.09,0,0,0,1.44-.07,11.49,11.49,0,0,0-.08,1.75v8.26a17,17,0,0,0,.08,1.87h-2.38V20h-2.06v2.4h-2.6a17.08,17.08,0,0,0,.15-2.45V15.52c0-.94,0-1,0-2.33a9.05,9.05,0,0,1-1.51,2.23,8.88,8.88,0,0,0-.93-3,12.85,12.85,0,0,0,3-5.13,14,14,0,0,0,.81-3.24Zm1.88,13.77h2.08V11.56h-2.08ZM157.06,4a12,12,0,0,0-2,.12V1.5a17.2,17.2,0,0,0,2.64.14h6.93a20.2,20.2,0,0,0,2.57-.14V4.12A14.31,14.31,0,0,0,164.89,4V9.68h.19a14.49,14.49,0,0,0,2.4-.12v2.69a16.29,16.29,0,0,0-2.4-.12h-.19V20a24.18,24.18,0,0,0,.17,3H162.2a27.41,27.41,0,0,0,.14-2.95V12.13h-2.78a23.51,23.51,0,0,1-.58,4.8A13.72,13.72,0,0,1,156,23.15a6.26,6.26,0,0,0-2.25-1.71,11.86,11.86,0,0,0,2.78-5.52,19.57,19.57,0,0,0,.46-3.79,16.83,16.83,0,0,0-2.36.12V9.56a14.7,14.7,0,0,0,2.4.12Zm5.28,5.68V4h-2.73V9.68Z"/><path d="M187.9,12.64a23,23,0,0,0,2.52-.1c0,.62-.07,1-.09,2.16l-.07,4.73c0,.62.19.77,1.05.77,1.78,0,2-.08,2.21-.56a16.62,16.62,0,0,0,.31-3.74,9.81,9.81,0,0,0,2.52.82c-.38,5.68-.52,5.85-5,5.85-2.93,0-3.65-.45-3.65-2.21V20.2l.07-5.19h-3.55a9.33,9.33,0,0,1-2.76,4.8,16,16,0,0,1-5.76,3.27,8.4,8.4,0,0,0-1.59-2.38c2.93-1,4.35-1.63,5.52-2.66a6.46,6.46,0,0,0,1.95-3h-3.31a20.08,20.08,0,0,0-2.69.12V12.49a18,18,0,0,0,2.64.15h3.84a12.42,12.42,0,0,0,.09-1.47,9.09,9.09,0,0,0-.09-1.37h2.85a9.11,9.11,0,0,0-.21,1.95c0,.36,0,.53-.07.89ZM183.54,2.51A7,7,0,0,0,183.39,1h2.93a6.9,6.9,0,0,0-.12,1.56v.55h6.74a21.51,21.51,0,0,0,2.64-.12,12.53,12.53,0,0,0-.09,1.78v1.7a13.34,13.34,0,0,0,.09,1.78H194c-.19,1.34-.48,1.89-1.17,2.2a12,12,0,0,1-3.94.34c-2.49,0-3.19-.38-3.19-1.78V5.39h-2a7.46,7.46,0,0,1-1.27,3.09c-1.11,1.54-2.43,2.24-5.93,3.15a12,12,0,0,0-1.44-2.21c2.88-.53,3.89-.89,4.77-1.66a3.66,3.66,0,0,0,1.25-2.37h-4V8.17h-2.62a12.75,12.75,0,0,0,.12-1.8V4.72a13,13,0,0,0-.09-1.78,21.32,21.32,0,0,0,2.64.12h6.36ZM193,5.39h-4.8V7.93c0,.53.19.6,1.51.6s1.66-.12,1.82-.43a4.32,4.32,0,0,0,.17-1.37,6.83,6.83,0,0,0,1.3.39Z"/><path d="M213.08,12.42c0,1.06,0,1.32,0,1.92l-2.35-.05h-4c-.19,4-.72,6.07-2.13,8.55a7.5,7.5,0,0,0-2.14-1.9c1.49-2.54,1.9-5,1.9-11.47a28.39,28.39,0,0,0-.13-3.34c.8,0,1.4.07,2.55.07h3.89c1.1,0,1.68,0,2.42-.07-.05.51-.07,1.23-.07,2.16Zm-9.7-10.66a17.61,17.61,0,0,0,2.6.12h5.18a16,16,0,0,0,2.62-.12V4.45a16.89,16.89,0,0,0-2.5-.12h-5.45a17.8,17.8,0,0,0-2.45.12ZM210.61,12V8.46h-3.75v1.73c0,.91,0,1.13,0,1.82Zm6.57-1.37a22.61,22.61,0,0,1-1.05,6.56A13.31,13.31,0,0,1,214,21.08a16.6,16.6,0,0,1-1.54,1.8,7.84,7.84,0,0,0-2-2,11,11,0,0,0,3.41-5.3c.53-1.83.77-4.51.77-8.88,0-2.26,0-3-.1-3.79a22.58,22.58,0,0,0,8.95-2l1.37,2.45a8.69,8.69,0,0,0-1.1.31,36.6,36.6,0,0,1-6.55,1.46v3h5.45A12.16,12.16,0,0,0,225,8v2.78a14.14,14.14,0,0,0-2.11-.12h-.36v9.51a13.82,13.82,0,0,0,.15,2.59h-2.84a18.4,18.4,0,0,0,.15-2.62V10.64Z"/></svg>