<svg id="レイヤー_1" data-name="レイヤー 1" xmlns="http://www.w3.org/2000/svg" viewBox="0 0 80 12"><defs><style>.cls-1{fill:#fff;}</style></defs><path class="cls-1" d="M2.61.87,5.94,6,9.28.87h1.63V11.13H9.15V4.24L5.94,9.12,2.74,4.24v6.89H1V.87Z"/><path class="cls-1" d="M25.79,6A5.19,5.19,0,1,1,15.42,6,5.19,5.19,0,1,1,25.79,6ZM24,6a3.41,3.41,0,1,0-6.8,0A3.41,3.41,0,1,0,24,6Z"/><path class="cls-1" d="M30.3.87h3.37a3.14,3.14,0,0,1,3.4,3.2,3,3,0,0,1-2.28,3.07l2.56,4H35.3L32.87,7.26h-.81v3.87H30.3Zm5,3.2c0-1-.7-1.53-1.83-1.53H32.06V5.59h1.39C34.58,5.59,35.28,5.08,35.28,4.07Z"/><path class="cls-1" d="M43.53,5h4.1V6.7h-4.1V9.46h4.54v1.67h-6.3V.87H48V2.54H43.53Z"/><polygon class="cls-1" points="72.23 2.29 72.23 4.54 58.18 4.54 58.18 7.92 72.23 7.92 73.69 7.92 79.02 7.92 72.23 2.29"/></svg>