<svg id="レイヤー_1" data-name="レイヤー 1" xmlns="http://www.w3.org/2000/svg" viewBox="0 0 394 114"><defs><style>.cls-1{fill:none;}.cls-2{fill:#e4df40;}.cls-3{fill:#4e5757;}.cls-4{fill:#000333;}</style></defs><path class="cls-1" d="M136.16,46H131a1.5,1.5,0,0,0-1.5,1.5V69.75a1.5,1.5,0,0,0,1.5,1.5h5.17a1.5,1.5,0,0,0,1.5-1.5V47.52A1.5,1.5,0,0,0,136.16,46Zm-.1,10.87a1.5,1.5,0,0,1-1.5,1.49h-2.21a1.5,1.5,0,0,1-1.5-1.49v0a1.51,1.51,0,0,1,1.5-1.5h2.21a1.51,1.51,0,0,1,1.5,1.5Z"/><path class="cls-1" d="M359.88,51.81h-9a1.5,1.5,0,0,0-1.5,1.5v7a1.5,1.5,0,0,0,1.5,1.5h9a1.5,1.5,0,0,0,1.5-1.5v-7A1.5,1.5,0,0,0,359.88,51.81Z"/><path class="cls-1" d="M37,77V44.39a1.5,1.5,0,0,0-1.5-1.5H25.2a1.5,1.5,0,0,0-1.5,1.5V77a1.5,1.5,0,0,0,1.5,1.5H35.54A1.5,1.5,0,0,0,37,77ZM35.32,62.21a1.5,1.5,0,0,1-1.5,1.49H27a1.5,1.5,0,0,1-1.5-1.49v0a1.5,1.5,0,0,1,1.5-1.5h6.83a1.5,1.5,0,0,1,1.5,1.5Zm0-9.94a1.5,1.5,0,0,1-1.5,1.5H27a1.5,1.5,0,0,1-1.5-1.5v0a1.51,1.51,0,0,1,1.5-1.5h6.83a1.51,1.51,0,0,1,1.5,1.5Z"/><path class="cls-1" d="M275.57,42.18h-4.15a1.51,1.51,0,0,0-1.51,1.5V54.1a1.51,1.51,0,0,0,1.51,1.5h4.15a1.5,1.5,0,0,0,1.5-1.5V43.68A1.5,1.5,0,0,0,275.57,42.18Z"/><path class="cls-2" d="M389.8,41.75,381,47.38l-5.56,3.56-.16.1c-.7.44-.59.8.24.8h16.74a1.53,1.53,0,0,1,.57.12L390.18,41.4A1.42,1.42,0,0,1,389.8,41.75Z"/><path class="cls-2" d="M27,102.63l-.8-.37-2.9-1.32-.69-.32-.11-.05c-.11,0-.34.22-.39.33l-.09.18a.22.22,0,0,0,.11.29l.21.1c0,.13-.09.29-.15.45l-.16.47c-.13.32-.27.67-.44,1l-.22.44a7.51,7.51,0,0,1-.6.94l-.33.37c-.35.35-.52.54-.7.52s-.93-1.62-2.88-2a2.73,2.73,0,0,0-3.3,1.73,5.88,5.88,0,0,0-.49,2l9.68,4.43a3.06,3.06,0,0,0,1-1.81c0-.19,0-.36.05-.49a57.4,57.4,0,0,1,2.8-6.18l.27.12a.22.22,0,0,0,.29-.11l.08-.18c0-.11.1-.46,0-.51Z"/><path class="cls-2" d="M64,99.76l-.65-.36-2.8-1.53-.78-.43-.11-.06c-.1-.06-.35.19-.41.3l-.1.18a.21.21,0,0,0,.09.29l.2.11c-.05.13-.12.28-.18.45l-.2.45c-.15.31-.32.65-.51,1l-.26.41a6.62,6.62,0,0,1-.66.89l-.36.35c-.37.33-.55.5-.73.48a5.17,5.17,0,0,0-2.74-2.18,2.72,2.72,0,0,0-3.4,1.49,5.87,5.87,0,0,0-.65,2l9.34,5.12A3,3,0,0,0,60.23,107c.06-.19.05-.36.09-.49a55.92,55.92,0,0,1,3.25-6l.25.14a.22.22,0,0,0,.3-.08l.1-.18c0-.11.13-.45,0-.51Z"/><path class="cls-2" d="M44.33,102.59c-.15-.13-.31-.18-.42-.27a57.36,57.36,0,0,1-4.29-5.25l.23-.19a.21.21,0,0,0,0-.3l-.13-.16c-.08-.1-.36-.29-.46-.22l-.21.17-.56.46-2.47,2-.72.58-.1.09c-.09.07,0,.39.12.49l.13.15a.22.22,0,0,0,.31,0L36,100l.35.34.34.36a10.45,10.45,0,0,1,.72.84l.29.4a5.83,5.83,0,0,1,.57,1l.2.46c.15.46.24.7.15.85s-1.86.12-3,1.72a2.73,2.73,0,0,0,.08,3.72A6,6,0,0,0,37.22,111l8.28-6.71A3,3,0,0,0,44.33,102.59Z"/><path class="cls-2" d="M211.24,35.94a2.12,2.12,0,0,0-2.57,1.53L204,56.15l-.76,3-5.35,21.32a7.85,7.85,0,1,0,4.1,1l5.62-22.35.76-3,4.43-17.65A2.11,2.11,0,0,0,211.24,35.94Z"/><path class="cls-2" d="M255.89,87.32a.76.76,0,0,1-1.06.24.77.77,0,0,1-.24-1.06l4.25-6.75a.08.08,0,0,0,0,0A9.07,9.07,0,0,0,257,78.09l-4.91,7.85a.78.78,0,0,1-.65.36.87.87,0,0,1-.41-.11.76.76,0,0,1-.24-1.06l4.84-7.74a8.84,8.84,0,0,0-3.26-.63A8.81,8.81,0,1,0,259.85,81Z"/><path class="cls-2" d="M378.75,32.9a1.72,1.72,0,0,0,2-1.94,1.77,1.77,0,0,0-2-2,1.91,1.91,0,0,0-2.15,2C376.6,32.28,377.43,32.9,378.75,32.9Z"/><path class="cls-2" d="M385.52,28.19a4,4,0,0,0,3.41-1.5,2.82,2.82,0,0,0,1,.28,3.75,3.75,0,0,0,2.52-1,3.46,3.46,0,0,0,.53-2.51,3.18,3.18,0,0,0-1.48-3c0-.14-.09-.17-.09-.31a3.77,3.77,0,0,0-.66-2.65c-.63-.63-1.71-.38-2.66-.38a2.83,2.83,0,0,0-2.23.8,2.88,2.88,0,0,0-.89,2.23c0,.05-.19.45-.18.5a4.06,4.06,0,0,0-2.44,1.07,3.79,3.79,0,0,0-.83,2.55,3.66,3.66,0,0,0,1.31,2.67A3.7,3.7,0,0,0,385.52,28.19Z"/><polygon class="cls-2" points="312.4 79.4 311.33 82 301.92 104.9 304.97 106.16 314.91 81.98 316.14 79 317.72 75.16 314.66 73.9 312.4 79.4"/><polygon class="cls-2" points="301.71 109.76 303.08 108.25 301.79 107.72 301.71 109.76"/><rect class="cls-3" x="25.49" y="50.74" width="9.83" height="3.02" rx="1.5"/><path class="cls-3" d="M38.56,39.78H22.18a1.51,1.51,0,0,0-1.5,1.51V80.05a1.5,1.5,0,0,0,1.5,1.5h4.16c-.07,3.27-.48,12.64-3,19.39l2.9,1.32c2.84-7.36,3.25-17.27,3.3-20.71h1.66c.14,3.24.89,12.21,4.89,17.27l2.47-2c-3-3.84-4-11.31-4.18-15.28h4.21a1.5,1.5,0,0,0,1.5-1.5V41.29A1.51,1.51,0,0,0,38.56,39.78ZM37,77a1.5,1.5,0,0,1-1.5,1.5H25.2A1.5,1.5,0,0,1,23.7,77V44.39a1.5,1.5,0,0,1,1.5-1.5H35.54a1.5,1.5,0,0,1,1.5,1.5Z"/><path class="cls-3" d="M33.82,60.69H27a1.5,1.5,0,0,0-1.5,1.5v0A1.5,1.5,0,0,0,27,63.7h6.83a1.5,1.5,0,0,0,1.5-1.49v0A1.5,1.5,0,0,0,33.82,60.69Z"/><path class="cls-3" d="M16.25,45.19H12a1.51,1.51,0,0,1-1.5-1.5V37.14A1.5,1.5,0,0,0,9,35.64H9a1.5,1.5,0,0,0-1.5,1.5v6.55A1.5,1.5,0,0,1,6,45.19H1.75a1.51,1.51,0,0,0-1.5,1.5v0a1.5,1.5,0,0,0,1.5,1.49h14.5a1.49,1.49,0,0,0,1.5-1.49v0A1.5,1.5,0,0,0,16.25,45.19Z"/><rect class="cls-3" x="2.99" y="50.47" width="3.02" height="8.57" rx="1.5"/><path class="cls-3" d="M16.25,61H1.75a1.5,1.5,0,0,0-1.5,1.5v0A1.5,1.5,0,0,0,1.75,64H6a1.5,1.5,0,0,1,1.5,1.5V75.7A1.5,1.5,0,0,1,6,77.2H1.75a1.5,1.5,0,0,0-1.5,1.5v0a1.51,1.51,0,0,0,1.5,1.5h3.8a1.08,1.08,0,0,1,1.09,1.44L1.14,101A1.5,1.5,0,1,0,4,101.8L7,91.21c.23-.79.41-.77.41.05v12.9a1.5,1.5,0,0,0,1.5,1.5H9a1.5,1.5,0,0,0,1.5-1.5V91c0-.82.19-.85.41-.06l3,10.51a1.54,1.54,0,0,0,1.86,1.06l.07,0a1.45,1.45,0,0,0,1-1.82l-5.48-19a1.07,1.07,0,0,1,1.08-1.44h3.79a1.5,1.5,0,0,0,1.5-1.5v0a1.5,1.5,0,0,0-1.5-1.5H12a1.51,1.51,0,0,1-1.5-1.5V65.52A1.51,1.51,0,0,1,12,64h4.28a1.5,1.5,0,0,0,1.5-1.5v0A1.5,1.5,0,0,0,16.25,61Z"/><rect class="cls-3" x="12.15" y="50.47" width="3.02" height="8.57" rx="1.5"/><path class="cls-3" d="M83.18,70.86H71.31a1.5,1.5,0,0,1-1.5-1.5V56.87a3.91,3.91,0,0,1,1.11-2.51l8.93-8.17c.61-.55.43-1-.39-1H60.69a1.5,1.5,0,0,0-1.49,1.5v0a1.49,1.49,0,0,0,1.49,1.49h11c.83,0,1,.46.39,1L67.9,53a3.87,3.87,0,0,0-1.11,2.51V69.36a1.5,1.5,0,0,1-1.5,1.5H53.18a1.5,1.5,0,0,0-1.5,1.5v0a1.51,1.51,0,0,0,1.5,1.5H66.06a4.3,4.3,0,0,0,.75-.06,51.67,51.67,0,0,1-6.25,24.05l2.8,1.53A54.34,54.34,0,0,0,70,73.85a4.8,4.8,0,0,0,.55,0H83.18a1.5,1.5,0,0,0,1.5-1.5v0A1.5,1.5,0,0,0,83.18,70.86Z"/><path class="cls-3" d="M285,39.16H262.76a1.5,1.5,0,0,0-1.5,1.5v0a1.5,1.5,0,0,0,1.5,1.5h2.63a1.5,1.5,0,0,1,1.5,1.5V54.1a1.5,1.5,0,0,1-1.5,1.5h-2.63a1.5,1.5,0,0,0-1.5,1.5v0a1.5,1.5,0,0,0,1.5,1.5h2.63a1.5,1.5,0,0,1,1.5,1.5v44a1.51,1.51,0,0,0,1.5,1.5h0a1.5,1.5,0,0,0,1.49-1.5v-44a1.51,1.51,0,0,1,1.51-1.5h4.15a1.5,1.5,0,0,1,1.5,1.5v44a1.51,1.51,0,0,0,1.5,1.5h0a1.51,1.51,0,0,0,1.5-1.5v-44a1.5,1.5,0,0,1,1.5-1.5H285a1.5,1.5,0,0,0,1.49-1.5v0A1.5,1.5,0,0,0,285,55.6h-3.42a1.5,1.5,0,0,1-1.5-1.5V43.68a1.5,1.5,0,0,1,1.5-1.5H285a1.5,1.5,0,0,0,1.49-1.5v0A1.5,1.5,0,0,0,285,39.16ZM277.07,54.1a1.5,1.5,0,0,1-1.5,1.5h-4.15a1.51,1.51,0,0,1-1.51-1.5V43.68a1.51,1.51,0,0,1,1.51-1.5h4.15a1.5,1.5,0,0,1,1.5,1.5Z"/><path class="cls-3" d="M250.81,44.61H258a1.51,1.51,0,0,0,1.5-1.5v0a1.5,1.5,0,0,0-1.5-1.5H240.22a1.5,1.5,0,0,0-1.5,1.5v0a1.5,1.5,0,0,0,1.5,1.5h4.52a1.1,1.1,0,0,1,1.12,1.45L235.08,87.22a1.53,1.53,0,0,0,1.06,1.85A1.48,1.48,0,0,0,238,88l11-42A2.06,2.06,0,0,1,250.81,44.61Z"/><path class="cls-3" d="M330.87,42.76H317.36a1.5,1.5,0,0,1-1.5-1.49V37.14a1.5,1.5,0,0,0-1.49-1.5h0a1.5,1.5,0,0,0-1.5,1.5v4.13a1.5,1.5,0,0,1-1.5,1.49H298.45a1.51,1.51,0,0,0-1.5,1.5v7.3a1.5,1.5,0,0,0,1.5,1.5h0a1.5,1.5,0,0,0,1.49-1.5V47.28a1.51,1.51,0,0,1,1.5-1.5h26.39a1.51,1.51,0,0,1,1.5,1.5V50.7a1.5,1.5,0,0,0,1.49,1.5h0a1.5,1.5,0,0,0,1.5-1.5V44.26A1.5,1.5,0,0,0,330.87,42.76Z"/><path class="cls-3" d="M329.62,102.64H325a1.5,1.5,0,0,1-1.5-1.5V80.5A1.5,1.5,0,0,0,322,79h-5.82l-1.23,3a2.06,2.06,0,0,0,.44,0h3.58a1.5,1.5,0,0,1,1.5,1.5v20.64a1.51,1.51,0,0,0,1.51,1.5h7.68a1.5,1.5,0,0,0,1.5-1.5v0A1.5,1.5,0,0,0,329.62,102.64Z"/><path class="cls-3" d="M303,79a1.5,1.5,0,0,0-1.5,1.5v0A1.51,1.51,0,0,0,303,82h7.87l.47,0,1.07-2.6a2,2,0,0,0-1.31-.4Z"/><path class="cls-3" d="M392.82,52a1.53,1.53,0,0,0-.57-.12H375.51c-.83,0-.94-.36-.24-.8l.16-.1L381,47.38l8.81-5.63a1.42,1.42,0,0,0,.38-.35,1.52,1.52,0,0,0,.09-1.72h0a1.49,1.49,0,0,0-2.06-.47L381,43.78V36.93h.16a.53.53,0,1,0,0-1h-7.51a.53.53,0,1,0,0,1h.16V48.35l-5.28,3.35a3,3,0,0,0-1.27,2.3V86.78a1.5,1.5,0,0,0,1.5,1.5h0a1.5,1.5,0,0,0,1.5-1.5V56.36a1.51,1.51,0,0,1,1.5-1.5h6.5a1.5,1.5,0,0,1,1.5,1.5v47.72a1.5,1.5,0,0,0,1.5,1.5h0a1.5,1.5,0,0,0,1.5-1.5V56.36a1.51,1.51,0,0,1,1.5-1.5h8a1.5,1.5,0,0,0,1.5-1.49v0A1.5,1.5,0,0,0,392.82,52Z"/><rect class="cls-3" x="346.27" y="39.16" width="17.81" height="3.03" rx="1.5"/><path class="cls-3" d="M362.89,48.79h-15a1.5,1.5,0,0,0-1.5,1.5V61.72c0,.82-.06,2.17-.14,3l-3.7,39.45a1.52,1.52,0,0,0,1.35,1.65h0a1.49,1.49,0,0,0,1.63-1.35l3.64-38.18a1.68,1.68,0,0,1,1.64-1.49h12.09a1.51,1.51,0,0,0,1.51-1.5v-13A1.51,1.51,0,0,0,362.89,48.79Zm-1.51,11.49a1.5,1.5,0,0,1-1.5,1.5h-9a1.5,1.5,0,0,1-1.5-1.5v-7a1.5,1.5,0,0,1,1.5-1.5h9a1.5,1.5,0,0,1,1.5,1.5Z"/><rect class="cls-3" x="130.85" y="55.36" width="5.21" height="3.02" rx="1.5"/><path class="cls-3" d="M139.18,43H128a1.5,1.5,0,0,0-1.5,1.5V72.77a1.5,1.5,0,0,0,1.5,1.5h11.22a1.5,1.5,0,0,0,1.5-1.5V44.5A1.5,1.5,0,0,0,139.18,43Zm-1.52,26.75a1.5,1.5,0,0,1-1.5,1.5H131a1.5,1.5,0,0,1-1.5-1.5V47.52A1.5,1.5,0,0,1,131,46h5.17a1.5,1.5,0,0,1,1.5,1.5Z"/><path class="cls-3" d="M169.43,55.83H159.6a1.5,1.5,0,0,1-1.5-1.5V47.6a1.5,1.5,0,0,1,1.5-1.5H164a1.5,1.5,0,0,0,1.5-1.5v0a1.5,1.5,0,0,0-1.5-1.49H159.6a1.5,1.5,0,0,1-1.5-1.5V37.14a1.51,1.51,0,0,0-1.51-1.5h0a1.5,1.5,0,0,0-1.5,1.5v4.44a1.5,1.5,0,0,1-1.5,1.5h-4.43a1.5,1.5,0,0,0-1.5,1.49v0a1.5,1.5,0,0,0,1.5,1.5h4.43a1.5,1.5,0,0,1,1.5,1.5v6.73a1.5,1.5,0,0,1-1.5,1.5H143.42a1.5,1.5,0,0,0-1.49,1.51v0a1.49,1.49,0,0,0,1.49,1.49h15.4a1.51,1.51,0,0,1,1.5,1.51v4.38a1.51,1.51,0,0,1-1.5,1.51h-15.4a1.49,1.49,0,0,0-1.49,1.49v0a1.5,1.5,0,0,0,1.49,1.5h15.4a1.51,1.51,0,0,1,1.5,1.5v30.38a1.51,1.51,0,0,1-1.5,1.5h-4.67a1.5,1.5,0,0,0-1.5,1.5v0a1.5,1.5,0,0,0,1.5,1.5h7.69a1.51,1.51,0,0,0,1.5-1.5V70.76a1.5,1.5,0,0,1,1.5-1.5h4.59a1.5,1.5,0,0,0,1.5-1.5v0a1.5,1.5,0,0,0-1.5-1.49h-4.59a1.51,1.51,0,0,1-1.5-1.51V60.36a1.51,1.51,0,0,1,1.5-1.51h4.59a1.5,1.5,0,0,0,1.5-1.49v0A1.51,1.51,0,0,0,169.43,55.83Z"/><path class="cls-3" d="M178.68,57.65v46.51a1.51,1.51,0,0,0,1.5,1.5h0a1.51,1.51,0,0,0,1.5-1.5V60.66a1.5,1.5,0,0,1,1.5-1.49h20l.76-3h-23.8A1.5,1.5,0,0,0,178.68,57.65Z"/><path class="cls-3" d="M220.66,56.15H208.35l-.76,3h10a1.5,1.5,0,0,1,1.5,1.49v40.48a1.5,1.5,0,0,1-1.5,1.5H213a1.5,1.5,0,0,0-1.5,1.5v0a1.5,1.5,0,0,0,1.5,1.5h7.68a1.51,1.51,0,0,0,1.51-1.5V57.65A1.51,1.51,0,0,0,220.66,56.15Z"/><path class="cls-3" d="M155,87.61a2.41,2.41,0,0,0-2.49-4l-6.23-6.22a1.05,1.05,0,0,0-1.49,1.49L151,85.13a2.41,2.41,0,0,0,4,2.48Z"/><path class="cls-3" d="M252.33,74.25a11.29,11.29,0,0,0,0,22.57h0a11.29,11.29,0,0,0,0-22.57Zm6.21,17.48a8.77,8.77,0,1,1-6.21-15,8.84,8.84,0,0,1,3.26.63l-4.84,7.74a.76.76,0,0,0,.24,1.06.87.87,0,0,0,.41.11.78.78,0,0,0,.65-.36L257,78.09a9.07,9.07,0,0,1,1.92,1.62.08.08,0,0,1,0,0l-4.25,6.75a.77.77,0,0,0,.65,1.18.78.78,0,0,0,.65-.36l4-6.29a8.72,8.72,0,0,1-1.31,10.7Z"/><path class="cls-3" d="M252.78,98h-.89a1.88,1.88,0,0,0-1.67,2l-.44,11.2a1.63,1.63,0,0,0,.49,1.15,2.05,2.05,0,0,0,1.47.59h1.18a1.87,1.87,0,0,0,2-1.77l-.44-11.14A1.89,1.89,0,0,0,252.78,98Z"/><path class="cls-3" d="M90.44,76.3a17.68,17.68,0,0,0,0,25,1.58,1.58,0,0,0,2.24,0l19.08-19.08a1.58,1.58,0,0,0,0-2.24,1.56,1.56,0,0,0-2.24,0L91.62,97.87a14.49,14.49,0,1,1,11.32,5.44,1.59,1.59,0,1,0,0,3.17A17.68,17.68,0,1,0,90.44,76.3Z"/><path class="cls-3" d="M308.37,69.84a1.59,1.59,0,0,0,3.18,0V51.9a1.59,1.59,0,0,0-3.18,0V66.13a9.49,9.49,0,0,0-3.31-.56h-4.47a1.59,1.59,0,0,0,0,3.17h4.47C307.15,68.74,308.3,69.59,308.37,69.84Z"/><path class="cls-3" d="M301.4,54.74H307a.54.54,0,0,0,0-1.07H301.4a.54.54,0,0,0,0,1.07Z"/><path class="cls-3" d="M301.4,57.69H307a.53.53,0,0,0,.53-.53.53.53,0,0,0-.53-.53H301.4a.53.53,0,0,0-.53.53A.53.53,0,0,0,301.4,57.69Z"/><path class="cls-3" d="M301.4,60.64H307a.52.52,0,0,0,.53-.52.54.54,0,0,0-.53-.54H301.4a.54.54,0,0,0-.53.54A.52.52,0,0,0,301.4,60.64Z"/><path class="cls-3" d="M301.4,63.6H307a.53.53,0,0,0,.53-.53.53.53,0,0,0-.53-.53H301.4a.53.53,0,0,0-.53.53A.53.53,0,0,0,301.4,63.6Z"/><path class="cls-3" d="M318.43,50.32a1.58,1.58,0,0,0-1.58,1.58V69.84A1.58,1.58,0,0,0,320,70a1,1,0,0,0,0-.17c.1-.31,1.25-1.11,3.32-1.11h4.46a1.59,1.59,0,1,0,0-3.17h-4.46a9.46,9.46,0,0,0-3.32.56V51.9A1.59,1.59,0,0,0,318.43,50.32Z"/><path class="cls-3" d="M321.37,54.74H327a.54.54,0,0,0,0-1.07h-5.62a.54.54,0,0,0,0,1.07Z"/><path class="cls-3" d="M321.37,57.69H327a.52.52,0,0,0,.53-.53.53.53,0,0,0-.53-.53h-5.62a.53.53,0,0,0-.53.53A.53.53,0,0,0,321.37,57.69Z"/><path class="cls-3" d="M321.37,60.64H327a.52.52,0,0,0,.53-.52.53.53,0,0,0-.53-.54h-5.62a.54.54,0,0,0-.53.54A.52.52,0,0,0,321.37,60.64Z"/><path class="cls-3" d="M321.37,63.6H327a.53.53,0,0,0,.53-.53.52.52,0,0,0-.53-.53h-5.62a.53.53,0,0,0-.53.53A.53.53,0,0,0,321.37,63.6Z"/><path class="cls-3" d="M315.09,72.86l-.43,1,3.06,1.26.43-1a.73.73,0,0,0-.4-1l-1.72-.7A.71.71,0,0,0,315.09,72.86Z"/><polygon class="cls-3" points="301.79 107.72 303.08 108.25 304.97 106.16 301.92 104.9 301.79 107.72"/><path class="cls-4" d="M51.23,18.48c.05-1,.07-2.42.07-4.22a15.08,15.08,0,0,1-2.92,3.15,5.48,5.48,0,0,0-.94-1.52,12.47,12.47,0,0,0,3.35-3.7h-.41c-.62,0-1.66,0-2.24.05V10.48c.56,0,1.51,0,2.24,0h.92V9.08H50.14c-.62,0-1.67,0-2.25.05V7.37c.53,0,1.43,0,2.12,0-.34-1.1-.38-1.18-.77-2.19l1.18-.52c-.62,0-1.52,0-2,0V3c.56,0,1.54,0,2.25,0h.65V2.19c0-.53,0-.94,0-1.2l1.82.13c.23,0,.34.08.34.19s-.1.22-.36.37V3h.75c.73,0,1.69,0,2.25,0V4.73c-.49,0-1.35,0-2,0l1.16.41c.19.06.3.17.3.3s-.09.19-.5.26c-.17.47-.43,1.14-.7,1.74.73,0,1.67,0,2.23,0V9.13c-.58,0-1.63-.05-2.24-.05H53.06v1.44H54c.72,0,1.67,0,2.23,0v1.76c-.56,0-1.61-.05-2.23-.05h-.95v.52a13.41,13.41,0,0,1,3.11,1.89L55,16.06a16.36,16.36,0,0,0-2-1.59c0,1.74,0,3.13.07,4ZM50.79,4.7A12,12,0,0,1,51.73,7l-1,.45h2a18.67,18.67,0,0,0,.8-2.71Zm8.9,8.85c.19.08.28.17.28.28s-.08.19-.39.28c-.94,2.46-2.08,3.51-4.85,4.37a5.76,5.76,0,0,0-.79-1.63,5.71,5.71,0,0,0,2.72-1.33,4.62,4.62,0,0,0,1.42-2.47Zm-1-1.12V13H57c0-.71.06-1.84.06-3V5c0-1.12,0-2.38-.06-3,.36,0,.66,0,1.11,0H63c.45,0,.75,0,1.11,0,0,.6,0,.6-.06,3V9.62c0,1.5,0,2.58.06,3.3H62.35v-.49h-.43v3.63c0,.47.07.56.59.56.92,0,1.17-.09,1.3-.47A5.1,5.1,0,0,0,64,14.64a7.58,7.58,0,0,0,1.59.52c-.1,1.74-.25,2.29-.75,2.66a3.69,3.69,0,0,1-2.17.43c-1.88,0-2.48-.3-2.48-1.27V12.43ZM62.35,5V3.69H58.71V5ZM58.71,7.84h3.64V6.57H58.71Zm0,3h3.64V9.42H58.71Z"/><path class="cls-4" d="M81.07,3.87a31.31,31.31,0,0,1-4.78,3.65c0,.58,0,1.18,0,1.76h4c1.18,0,2.77,0,3.72-.07V11.1c-1,0-2.58-.08-3.72-.08h-4V12.8c0,.45,0,1.82,0,2.44s0,.8,0,.91c0,1-.18,1.47-.71,1.8s-1.08.43-2.66.43h-.54a8,8,0,0,0-.49-2,12.75,12.75,0,0,0,1.74.11c.64,0,.73-.11.73-.75V11h-4c-1,0-2.72,0-3.73.08V9.21c1,0,2.66.07,3.73.07h4c0-1.63-.07-3.07-.13-3.48l1.41.09A26.21,26.21,0,0,0,78.24,4H71.45c-.77,0-1.9,0-2.61.06V2.24c.71,0,1.84,0,2.61,0H80l.32-.34,1.31,1.28a.42.42,0,0,1,.15.32c0,.13-.15.26-.34.28Z"/><path class="cls-4" d="M97,5.41a19.88,19.88,0,0,1-4.79,1c-.38.82-.38.82-.58,1.19a1.64,1.64,0,0,0-.17.3,3.39,3.39,0,0,1,1.68-.43A2.31,2.31,0,0,1,95.6,9.77c3.29-1.82,3.33-1.85,4.64-2.7l1.18,1.31a.61.61,0,0,1,.15.32c0,.13-.09.21-.26.21a2.12,2.12,0,0,1-.34,0c-1.12.62-1.12.62-3.31,1.76-.68.36-1.78.94-2,1.09V15H93.73V12.79l-.3.16c-1.07.6-1.61,1.26-1.61,2,0,.86.56,1.07,2.82,1.07a25.08,25.08,0,0,0,5.17-.49,15,15,0,0,0-.19,2,33.31,33.31,0,0,1-4.79.32c-2.4,0-3.31-.17-4.06-.73a2.36,2.36,0,0,1-1-2,3.51,3.51,0,0,1,1.71-3A11.05,11.05,0,0,1,93.29,11c.23-.11.38-.2.44-.22v-.15a2.12,2.12,0,0,0-.19-1.07,1,1,0,0,0-.86-.43,3.57,3.57,0,0,0-2.47,1.43,16.42,16.42,0,0,0-1.48,2.07l-1.58-1.14c.28-.41.28-.41,1.28-1.8a23,23,0,0,0,1.74-3.12c-.38,0-.66,0-1,0-.73,0-1.14,0-2-.08l0-1.78c.93.08,1.42.1,2,.1l1.83,0A24.27,24.27,0,0,0,92.08,1.5L94,2a.23.23,0,0,1,.18.21c0,.11-.11.2-.35.3-.17.41-.17.41-.45,1.16-.17.43-.17.43-.28.75a1.15,1.15,0,0,0-.09.26,20.07,20.07,0,0,0,3.48-.84Z"/><path class="cls-4" d="M113.63,2c.2.06.32.15.32.28s-.08.21-.32.34c-.45,2.11-.68,3.22-.88,4.28-.49,2.74-.49,2.74-.66,3.56l-.18,1h.35l.94,0,1.14,0L114,13.38a20.47,20.47,0,0,1-2.29-.11c0,.3,0,.47,0,.75a3.94,3.94,0,0,0,.22,1.48c.24.58,1,.92,2,.92a2.36,2.36,0,0,0,2.62-2.59c0-1.53-.62-2.79-2.38-4.85a6.9,6.9,0,0,0,1.52-1.16A11.27,11.27,0,0,1,118,11.34a6.68,6.68,0,0,1,.5,2.59c0,2.82-1.68,4.34-4.83,4.34-2.79,0-4-1.27-4-4.12,0-.26,0-.64.07-1.12-2-.34-3-1.11-3-2.45a3,3,0,0,1,1-2l1.36,1c-.35.4-.46.6-.46.85s.52.65,1.34.78c.14-.69.44-2.36.53-3a6.32,6.32,0,0,1-3.46-2.06l1.19-1.31A5.91,5.91,0,0,0,111,6.29a28.53,28.53,0,0,0,.6-4.66Z"/><path class="cls-4" d="M124.79,10.09a31.54,31.54,0,0,0,3-1.2c2.83-1.2,4-1.53,5.66-1.53,2.84,0,4.49,1.47,4.49,4a4.78,4.78,0,0,1-2.88,4.48,17.09,17.09,0,0,1-5.26,1.57,6.59,6.59,0,0,0-.75-1.86,17.46,17.46,0,0,0,4-.84c2.09-.71,3.07-1.76,3.07-3.29S135.16,9,133.44,9c-1.52,0-3,.49-5.79,2l-2,1Z"/><path class="cls-4" d="M149.67,3.44a20.46,20.46,0,0,0,.41,4.85c1-.45,1.67-.71,1.89-.82a14.43,14.43,0,0,0,1.86-.92L155,8.07c.11.15.15.18.15.24s-.13.19-.62.19c-.69.28-1.25.5-1.61.63-3.76,1.45-4.1,1.6-5.13,2.38a2.57,2.57,0,0,0-1.1,2c0,1.22.92,1.69,3.37,1.69a21.27,21.27,0,0,0,5.34-.6,19.16,19.16,0,0,0-.08,2.21,33.14,33.14,0,0,1-4.74.3,13.58,13.58,0,0,1-3.31-.32,3,3,0,0,1-2.56-3.14c0-1.8,1.23-3.39,3.57-4.59-.43-1.35-.47-1.67-.65-5.28,0-.53-.06-.9-.13-1.8l2.07.09c.17,0,.3.12.3.23s-.07.22-.24.35Z"/><path class="cls-4" d="M169.8,2c.2.06.31.15.31.28s-.07.21-.31.34c-.45,2.11-.68,3.22-.88,4.28-.49,2.74-.49,2.74-.66,3.56-.11.6-.11.6-.19,1h.36l.94,0,1.14,0-.4,1.91a20.41,20.41,0,0,1-2.28-.11c0,.3,0,.47,0,.75A3.92,3.92,0,0,0,168,15.5a2,2,0,0,0,2,.92,2.36,2.36,0,0,0,2.62-2.59c0-1.53-.61-2.79-2.37-4.85a6.63,6.63,0,0,0,1.51-1.16,11.35,11.35,0,0,1,2.44,3.52,6.86,6.86,0,0,1,.5,2.59c0,2.82-1.68,4.34-4.83,4.34-2.79,0-4-1.27-4-4.12,0-.26,0-.64.07-1.12-2-.34-3-1.11-3-2.45a3,3,0,0,1,1-2l1.36,1c-.35.4-.47.6-.47.85s.53.65,1.35.78c.13-.69.43-2.36.53-3a6.39,6.39,0,0,1-3.47-2.06l1.2-1.31a5.91,5.91,0,0,0,2.7,1.44,29.69,29.69,0,0,0,.6-4.66Z"/><path class="cls-4" d="M181,10.09c.87-.3.87-.3,3-1.2,2.83-1.2,4-1.53,5.65-1.53,2.85,0,4.5,1.47,4.5,4a4.77,4.77,0,0,1-2.89,4.48A16.91,16.91,0,0,1,186,17.43a6.25,6.25,0,0,0-.74-1.86,17.23,17.23,0,0,0,4-.84c2.1-.71,3.07-1.76,3.07-3.29S191.33,9,189.6,9c-1.51,0-2.95.49-5.78,2l-2,1Z"/><path class="cls-4" d="M205.84,3.44a20.46,20.46,0,0,0,.41,4.85c1-.45,1.67-.71,1.89-.82A13.51,13.51,0,0,0,210,6.55l1.22,1.52c.11.15.15.18.15.24s-.13.19-.62.19c-.69.28-1.25.5-1.61.63-3.76,1.45-4.1,1.6-5.13,2.38a2.57,2.57,0,0,0-1.1,2c0,1.22.92,1.69,3.37,1.69a21.13,21.13,0,0,0,5.33-.6c0,.77-.07.84-.07,2.21a33.14,33.14,0,0,1-4.74.3,13.52,13.52,0,0,1-3.31-.32,3,3,0,0,1-2.57-3.14c0-1.8,1.24-3.39,3.58-4.59-.43-1.35-.47-1.67-.66-5.28,0-.53-.05-.9-.13-1.8l2.08.09c.17,0,.3.12.3.23s-.07.22-.24.35Z"/><path class="cls-4" d="M226.86,6.14a16.36,16.36,0,0,1-3.48,1c0,1.37,0,2.36,0,3a12.33,12.33,0,0,1,4.27-.88,4.68,4.68,0,0,1,2.94,1,3.12,3.12,0,0,1,1.12,2.58c0,2.32-1.74,3.84-4.42,3.84a6.32,6.32,0,0,1-2.19-.4,12.94,12.94,0,0,0,.23-1.87,5.2,5.2,0,0,0,2,.43c1.45,0,2.38-.75,2.38-1.89a1.72,1.72,0,0,0-.88-1.57,3.26,3.26,0,0,0-1.51-.41,10.69,10.69,0,0,0-3.94,1c0,1.85,0,2.57-.07,3.09-.08,1.68-.64,2.45-1.76,2.45a4.35,4.35,0,0,1-2-.73c-1.34-.77-2.09-1.59-2.09-2.32,0-.94,1.23-2,4-3.52,0-.92,0-.92,0-1.4,0,0,0-.77,0-2.19-.71,0-1.76,0-3.11.07l0-1.87c.64,0,.92,0,1.24,0,.52,0,1.27,0,1.87-.08,0-.39,0-.39,0-1.76a16.78,16.78,0,0,0-.09-1.68l1.93.09c.22,0,.37.11.37.26s-.09.26-.32.43V5.31a11.52,11.52,0,0,0,2.79-.84Zm-5.26,6.59-.39.22c-1.16.68-1.84,1.2-1.84,1.48s.32.51.94.9a2.08,2.08,0,0,0,.88.36c.37,0,.41-.17.41-2.18Zm10.73-3.05a3.33,3.33,0,0,0-3.22-2c-.19,0-.36,0-.66,0l0-1.8.86,0a5,5,0,0,1,4.49,2.45Z"/><path class="cls-4" d="M244.69,2c.2.06.31.15.31.28s-.07.21-.31.34c-.45,2.11-.68,3.22-.88,4.28-.49,2.74-.49,2.74-.66,3.56-.11.6-.11.6-.19,1h.36l.94,0,1.14,0-.4,1.91a20.41,20.41,0,0,1-2.28-.11c0,.3,0,.47,0,.75a3.92,3.92,0,0,0,.23,1.48,2,2,0,0,0,2,.92,2.37,2.37,0,0,0,2.63-2.59c0-1.53-.62-2.79-2.38-4.85a6.63,6.63,0,0,0,1.51-1.16,11.17,11.17,0,0,1,2.44,3.52,6.86,6.86,0,0,1,.5,2.59c0,2.82-1.68,4.34-4.83,4.34-2.79,0-4-1.27-4-4.12,0-.26,0-.64.07-1.12-2-.34-3-1.11-3-2.45a3,3,0,0,1,1-2l1.36,1c-.35.4-.47.6-.47.85s.53.65,1.35.78c.13-.69.43-2.36.53-3a6.39,6.39,0,0,1-3.47-2.06l1.2-1.31A5.91,5.91,0,0,0,242,6.29a29.69,29.69,0,0,0,.6-4.66Z"/><path class="cls-4" d="M259.93,2.75c.2,0,.35.11.35.26s-.07.21-.32.38c-.07,1.53-.28,9-.28,10,0,1.56.57,2.12,2.14,2.12a6.45,6.45,0,0,0,3.29-1,10.33,10.33,0,0,0,3.47-3.26,5.68,5.68,0,0,0,1.21,1.79,12.32,12.32,0,0,1-3.63,3.22,9.21,9.21,0,0,1-4.57,1.26,4,4,0,0,1-3.26-1.27,4.63,4.63,0,0,1-.69-2.81c0-.51,0-.94.11-3.34.06-1.64.1-3.5.1-5.37,0-.84,0-1.51-.06-2.17Z"/><path class="cls-4" d="M274.64,11.9a50.78,50.78,0,0,0,6.67-7.5c-2.15.45-4,.9-4.68,1.12l-.55-1.93a34.48,34.48,0,0,0,6.59-1.2l.21-.16,1.31,1.14c.11.11.19.2.19.28s-.09.17-.47.26c-.66.79-.66.79-2.4,2.92-1,1.29-1,1.29-1.57,1.89a6.89,6.89,0,0,1,3.33-.88c2.74,0,4.59,1.63,4.59,4s-1.4,4-4.44,5.09a17.32,17.32,0,0,1-4.25.92,5.44,5.44,0,0,0-.84-1.86c3-.33,4.27-.67,5.66-1.4a3.27,3.27,0,0,0,1.91-2.88c0-1.37-1.13-2.31-2.78-2.31-2.36,0-4.83,1.37-7,3.9Z"/><path class="cls-4" d="M303.1,3a.41.41,0,0,1,.21.3c0,.15-.13.22-.49.28-.84,1-3.54,3.82-4.92,5.13-.6.56-.72.69-.72.82s.1.27.34.51a63.5,63.5,0,0,1,5.86,7l-1.91,1.34c-.47-.78-1.14-1.83-1.76-2.67a59.77,59.77,0,0,0-4-4.83c-.6-.62-.77-.9-.77-1.24s.36-.9,1.33-1.83a48.7,48.7,0,0,0,4.08-4.53,10.23,10.23,0,0,0,.92-1.43Z"/><path class="cls-4" d="M321.24,1.16c.25,0,.4.11.4.26s-.08.24-.34.45c0,.67,0,1.22,0,1.55V4.71c3.39-.14,4.55-.22,6-.41v2H325c-.81,0-.81,0-3.69.11V9.77c.08.9.1,1.2.1,1.55,0,3.79-2.08,5.92-6.82,7a6,6,0,0,0-.9-1.82,15.07,15.07,0,0,0,3.2-.93,3.59,3.59,0,0,0,2.19-1.95,1.63,1.63,0,0,1-1.14.32,2.72,2.72,0,0,1-2.81-3c0-1.87,1.11-3.18,2.68-3.18a2.69,2.69,0,0,1,1.55.41c0-.33,0-.52,0-.65s0-.77,0-1c-3.54.09-7.11.26-8.48.41l-.13-2.08c1.07.06,1.54.07,2.27.07,1.87,0,3.72,0,6.34-.11V3.54a12.45,12.45,0,0,0-.14-2.46Zm-3.14,8.1a1.38,1.38,0,0,0-1.31,1.54,1.37,1.37,0,0,0,1.35,1.52c.73,0,1.23-.62,1.23-1.54A1.35,1.35,0,0,0,318.1,9.26Z"/><path class="cls-4" d="M332.55,3.2a50.83,50.83,0,0,0,6.57-1l.27-.17,1.36,1.2c.15.13.19.18.19.26s-.09.17-.26.22l-.17.06c-1.59,2-2.4,2.9-4.23,4.85A6.34,6.34,0,0,1,339,8c2.81,0,4.76,1.7,4.76,4.21A4.79,4.79,0,0,1,342,16a6.91,6.91,0,0,1-4.7,1.46c-2.66,0-4.14-.9-4.14-2.53a2.35,2.35,0,0,1,2.53-2.26A3.58,3.58,0,0,1,338.54,14a5.68,5.68,0,0,1,.73,1.48,2.92,2.92,0,0,0,1.5-.88,3.48,3.48,0,0,0,.86-2.3c0-1.67-1.14-2.61-3.2-2.61a7.52,7.52,0,0,0-4.62,1.86A19.44,19.44,0,0,0,332.16,13l-1.31-1.68c2.1-1.54,4-3.43,7.24-7.29l-2.6.62-1.05.26-1.33.34Zm3.17,10.93c-.55,0-.9.28-.9.7,0,.61.76,1,1.93,1a2.94,2.94,0,0,0,.63-.06C337,14.6,336.54,14.13,335.72,14.13Z"/></svg>