<?xml version="1.0" encoding="UTF-8"?>
<svg id="_レイヤー_2" data-name="レイヤー 2" xmlns="http://www.w3.org/2000/svg" viewBox="0 0 421.72 415.4">
  <defs>
    <style>
      .cls-1 {
        fill: #d31421;
      }

      .cls-2 {
        fill: #842d2c;
      }

      .cls-3 {
        fill: #fff;
      }

      .cls-4 {
        fill: #392f2c;
      }

      .cls-5 {
        fill: #221714;
      }

      .cls-6 {
        fill: #eaaec9;
      }

      .cls-7 {
        fill: #f3e627;
      }
    </style>
  </defs>
  <g id="_レイヤー_7" data-name="レイヤー 7">
    <g>
      <g>
        <g>
          <g>
            <g>
              <circle class="cls-7" cx="232.7" cy="57.95" r="25.93"/>
              <path class="cls-4" d="M258.59,59.41c-.13,0-.26-.58-.37-1.65-.03-.27-.05-.57-.09-.89-.04-.33-.12-.68-.18-1.07-.13-.77-.25-1.65-.54-2.62-.43-1.95-1.31-4.26-2.68-6.71-1.38-2.44-3.37-4.99-6.08-7.2-2.71-2.18-6.13-4.08-10.12-4.96-3.96-.85-8.45-.92-12.78.5-1.1.29-2.14.79-3.21,1.23-1.02.55-2.09,1.05-3.05,1.76-1.01.62-1.91,1.42-2.85,2.18-.85.86-1.75,1.69-2.5,2.67-1.53,1.91-2.9,4.05-3.78,6.43-.91,2.37-1.47,4.9-1.66,7.5-.11,2.61.16,5.19.8,7.64.61,2.47,1.73,4.74,3.04,6.82.63,1.06,1.43,1.98,2.18,2.93.85.86,1.65,1.76,2.58,2.49.87.81,1.88,1.42,2.83,2.09,1.01.57,1.99,1.17,3.05,1.59,4.14,1.9,8.61,2.33,12.64,1.93,4.06-.42,7.67-1.92,10.61-3.79,2.95-1.88,5.21-4.2,6.85-6.47,1.63-2.28,2.76-4.47,3.41-6.36.4-.93.61-1.79.83-2.54.11-.37.22-.72.3-1.04.07-.32.13-.61.19-.88.24-1.05.43-1.61.56-1.6s.2.58.2,1.69c0,.28,0,.59,0,.93-.02.34-.08.71-.13,1.11-.11.81-.22,1.74-.52,2.76-.47,2.07-1.46,4.52-3.06,7.11-1.61,2.58-3.94,5.27-7.11,7.51-3.16,2.22-7.15,4.06-11.71,4.69-4.53.6-9.63.24-14.43-1.83-1.22-.46-2.36-1.12-3.54-1.76-1.11-.74-2.27-1.44-3.29-2.35-1.09-.83-2.03-1.84-3.01-2.83-.89-1.08-1.81-2.14-2.56-3.35-1.54-2.38-2.84-5.01-3.57-7.86-.76-2.84-1.08-5.83-.95-8.85.21-3.01.86-5.95,1.94-8.69,1.04-2.76,2.63-5.22,4.43-7.41.88-1.12,1.92-2.08,2.92-3.04,1.09-.87,2.14-1.77,3.31-2.47,1.12-.79,2.35-1.35,3.54-1.96,1.24-.5,2.45-1.03,3.71-1.35,5-1.52,10.11-1.31,14.54-.2,4.47,1.13,8.23,3.42,11.11,5.98,2.9,2.58,4.91,5.51,6.22,8.26,1.3,2.76,2.01,5.3,2.25,7.41.19,1.05.19,1.99.21,2.8,0,.41.02.78,0,1.12-.04.34-.07.65-.1.93-.13,1.1-.26,1.66-.39,1.66Z"/>
            </g>
            <g>
              <circle class="cls-7" cx="339.85" cy="73.53" r="25.93"/>
              <path class="cls-4" d="M365.74,74.98c-.13,0-.26-.58-.37-1.65-.03-.27-.05-.57-.09-.89-.04-.33-.12-.68-.18-1.07-.13-.77-.25-1.65-.54-2.62-.43-1.95-1.31-4.26-2.68-6.71-1.38-2.44-3.37-4.99-6.08-7.2-2.71-2.18-6.13-4.08-10.12-4.96-3.96-.85-8.45-.92-12.78.5-1.1.29-2.14.79-3.21,1.23-1.02.55-2.09,1.05-3.05,1.76-1.01.62-1.91,1.42-2.85,2.18-.85.86-1.75,1.69-2.5,2.67-1.53,1.91-2.9,4.05-3.78,6.43-.91,2.37-1.47,4.9-1.66,7.5-.11,2.61.16,5.19.8,7.64.61,2.47,1.73,4.74,3.04,6.82.63,1.06,1.43,1.98,2.18,2.93.85.86,1.65,1.76,2.58,2.49.87.81,1.88,1.42,2.83,2.09,1.01.57,1.99,1.17,3.05,1.59,4.14,1.9,8.61,2.33,12.64,1.93,4.06-.42,7.67-1.92,10.61-3.79,2.95-1.88,5.21-4.2,6.85-6.47,1.63-2.28,2.76-4.47,3.41-6.36.4-.93.61-1.79.83-2.54.11-.37.22-.72.3-1.04.07-.32.13-.61.19-.88.24-1.05.43-1.61.56-1.6.13,0,.2.58.21,1.69,0,.28,0,.59,0,.93-.02.34-.08.71-.13,1.11-.11.81-.22,1.74-.52,2.76-.47,2.07-1.46,4.52-3.06,7.11-1.61,2.58-3.94,5.27-7.11,7.51-3.16,2.22-7.15,4.06-11.71,4.69-4.53.6-9.63.24-14.43-1.83-1.22-.46-2.36-1.12-3.54-1.76-1.11-.74-2.27-1.44-3.29-2.35-1.09-.83-2.03-1.84-3.01-2.83-.88-1.08-1.81-2.14-2.56-3.35-1.54-2.38-2.84-5.01-3.57-7.86-.76-2.84-1.08-5.83-.95-8.85.21-3.01.86-5.95,1.94-8.69,1.04-2.76,2.63-5.22,4.43-7.41.88-1.12,1.92-2.08,2.92-3.04,1.09-.87,2.14-1.77,3.31-2.47,1.12-.79,2.35-1.35,3.54-1.96,1.24-.5,2.45-1.03,3.71-1.35,5-1.52,10.1-1.31,14.54-.2,4.47,1.13,8.23,3.42,11.11,5.98,2.9,2.58,4.91,5.51,6.22,8.26,1.3,2.76,2.01,5.3,2.25,7.41.19,1.05.19,1.99.21,2.8,0,.41.02.78,0,1.12-.04.34-.07.65-.1.93-.13,1.1-.26,1.66-.39,1.66Z"/>
            </g>
            <g>
              <circle class="cls-7" cx="378.3" cy="182.85" r="25.93"/>
              <path class="cls-4" d="M404.2,184.3c-.13,0-.26-.58-.37-1.65-.03-.27-.05-.57-.09-.89-.04-.33-.12-.68-.18-1.07-.13-.77-.25-1.65-.54-2.62-.43-1.95-1.31-4.26-2.68-6.71-1.38-2.44-3.37-4.99-6.08-7.2-2.71-2.18-6.13-4.08-10.12-4.96-3.96-.85-8.45-.92-12.78.5-1.1.29-2.14.79-3.21,1.23-1.02.55-2.09,1.05-3.05,1.76-1.01.62-1.91,1.42-2.85,2.18-.85.86-1.75,1.69-2.5,2.67-1.53,1.91-2.9,4.05-3.78,6.43-.91,2.37-1.47,4.9-1.66,7.5-.11,2.61.16,5.19.8,7.64.61,2.47,1.73,4.74,3.04,6.82.63,1.06,1.43,1.98,2.18,2.93.85.86,1.65,1.76,2.58,2.49.87.81,1.88,1.42,2.83,2.09,1.01.57,1.99,1.17,3.05,1.59,4.14,1.9,8.61,2.33,12.64,1.93,4.06-.42,7.67-1.92,10.61-3.79,2.95-1.88,5.21-4.2,6.85-6.47,1.63-2.28,2.76-4.47,3.41-6.36.4-.93.61-1.79.83-2.54.11-.37.22-.72.3-1.04.07-.32.13-.61.19-.88.24-1.05.43-1.61.56-1.6.13,0,.2.58.21,1.69,0,.28,0,.59,0,.93-.02.34-.08.71-.13,1.11-.11.81-.22,1.74-.52,2.76-.47,2.07-1.46,4.52-3.06,7.11-1.61,2.58-3.94,5.27-7.11,7.51-3.16,2.22-7.15,4.06-11.71,4.69-4.53.6-9.63.24-14.43-1.83-1.22-.46-2.36-1.12-3.54-1.76-1.11-.74-2.27-1.44-3.29-2.35-1.09-.83-2.03-1.84-3.01-2.83-.88-1.08-1.81-2.14-2.56-3.35-1.54-2.38-2.84-5.01-3.57-7.86-.76-2.84-1.08-5.83-.95-8.85.21-3.01.86-5.95,1.94-8.69,1.04-2.76,2.63-5.22,4.43-7.41.88-1.12,1.92-2.08,2.92-3.04,1.09-.87,2.14-1.77,3.31-2.47,1.12-.79,2.35-1.35,3.54-1.96,1.24-.5,2.45-1.03,3.71-1.35,5-1.52,10.1-1.31,14.54-.2,4.47,1.13,8.23,3.42,11.11,5.98,2.9,2.58,4.91,5.51,6.22,8.26,1.3,2.76,2.01,5.3,2.25,7.41.19,1.05.19,1.99.21,2.8,0,.41.02.78,0,1.12-.04.34-.07.65-.1.93-.13,1.1-.26,1.66-.39,1.66Z"/>
            </g>
            <g>
              <circle class="cls-7" cx="158.73" cy="135.81" r="25.93"/>
              <path class="cls-4" d="M184.62,137.27c-.13,0-.26-.58-.37-1.65-.03-.27-.05-.57-.09-.89-.04-.33-.12-.68-.18-1.07-.13-.77-.25-1.65-.54-2.62-.43-1.95-1.31-4.26-2.68-6.71-1.38-2.44-3.37-4.99-6.08-7.2-2.71-2.18-6.13-4.08-10.12-4.96-3.96-.85-8.45-.92-12.78.5-1.1.29-2.14.79-3.21,1.23-1.02.55-2.09,1.05-3.05,1.76-1.01.62-1.91,1.42-2.85,2.18-.85.86-1.75,1.69-2.5,2.67-1.53,1.91-2.9,4.05-3.78,6.43-.91,2.37-1.47,4.9-1.66,7.5-.11,2.61.16,5.19.8,7.64.61,2.47,1.73,4.74,3.04,6.82.63,1.06,1.43,1.98,2.18,2.93.85.86,1.65,1.76,2.58,2.49.87.81,1.88,1.42,2.83,2.09,1.01.57,1.99,1.17,3.05,1.59,4.14,1.9,8.61,2.33,12.64,1.93,4.06-.42,7.67-1.92,10.61-3.79,2.95-1.88,5.21-4.2,6.85-6.47,1.63-2.28,2.76-4.47,3.41-6.36.4-.93.61-1.79.83-2.54.11-.37.22-.72.3-1.04.07-.32.13-.61.19-.88.24-1.05.43-1.61.56-1.6.13,0,.2.58.2,1.69,0,.28,0,.59,0,.93-.02.34-.08.71-.13,1.11-.11.81-.22,1.74-.52,2.76-.47,2.07-1.46,4.52-3.06,7.11-1.61,2.58-3.94,5.27-7.11,7.51-3.16,2.22-7.14,4.06-11.71,4.69-4.53.6-9.63.24-14.43-1.83-1.22-.46-2.36-1.12-3.54-1.76-1.11-.74-2.27-1.44-3.29-2.35-1.09-.83-2.03-1.84-3.01-2.83-.89-1.08-1.81-2.14-2.56-3.35-1.54-2.38-2.84-5.01-3.57-7.86-.76-2.84-1.08-5.83-.95-8.85.21-3.01.86-5.95,1.94-8.69,1.04-2.76,2.63-5.22,4.43-7.41.88-1.12,1.92-2.08,2.92-3.04,1.09-.87,2.14-1.77,3.31-2.47,1.12-.79,2.35-1.35,3.54-1.96,1.24-.5,2.45-1.03,3.71-1.35,5-1.52,10.11-1.31,14.54-.2,4.47,1.13,8.23,3.42,11.11,5.98,2.9,2.58,4.91,5.51,6.22,8.26,1.3,2.76,2.01,5.3,2.25,7.41.19,1.05.19,1.99.21,2.8,0,.41.02.78,0,1.12-.04.34-.07.65-.1.93-.13,1.1-.26,1.66-.39,1.66Z"/>
            </g>
            <g>
              <circle class="cls-7" cx="77.02" cy="257.59" r="25.93"/>
              <path class="cls-4" d="M102.91,259.05c-.13,0-.26-.58-.37-1.65-.03-.27-.05-.57-.09-.89-.04-.33-.12-.68-.18-1.07-.13-.77-.25-1.65-.54-2.62-.43-1.95-1.31-4.26-2.68-6.71-1.38-2.44-3.37-4.99-6.08-7.2-2.71-2.18-6.13-4.08-10.12-4.96-3.96-.85-8.45-.92-12.78.5-1.1.29-2.14.79-3.21,1.23-1.02.55-2.09,1.05-3.05,1.76-1.01.62-1.91,1.42-2.85,2.18-.85.86-1.75,1.69-2.5,2.67-1.53,1.91-2.9,4.05-3.78,6.43-.91,2.37-1.47,4.9-1.66,7.5-.11,2.61.16,5.19.8,7.64.61,2.47,1.73,4.74,3.04,6.82.63,1.06,1.43,1.98,2.18,2.93.85.86,1.65,1.76,2.58,2.49.87.81,1.88,1.42,2.83,2.09,1.01.57,1.99,1.17,3.05,1.59,4.14,1.9,8.61,2.33,12.64,1.93,4.06-.42,7.67-1.92,10.61-3.79,2.95-1.88,5.21-4.2,6.85-6.47,1.63-2.28,2.76-4.47,3.41-6.36.4-.93.61-1.79.83-2.54.11-.37.22-.72.3-1.04.07-.32.13-.61.19-.88.24-1.05.43-1.61.56-1.6.13,0,.2.58.21,1.69,0,.28,0,.59,0,.93-.02.34-.08.71-.13,1.11-.11.81-.22,1.74-.52,2.76-.47,2.07-1.46,4.52-3.06,7.11-1.61,2.58-3.94,5.27-7.11,7.51-3.16,2.22-7.15,4.06-11.71,4.69-4.53.6-9.63.24-14.43-1.83-1.22-.46-2.36-1.12-3.54-1.76-1.11-.74-2.27-1.44-3.29-2.35-1.09-.83-2.03-1.84-3.01-2.83-.89-1.08-1.81-2.14-2.56-3.35-1.54-2.38-2.84-5.01-3.57-7.86-.76-2.84-1.08-5.83-.95-8.85.21-3.01.86-5.95,1.94-8.69,1.04-2.76,2.63-5.22,4.43-7.41.88-1.12,1.92-2.08,2.92-3.04,1.09-.87,2.14-1.77,3.31-2.47,1.12-.79,2.35-1.35,3.54-1.96,1.24-.5,2.45-1.03,3.71-1.35,5-1.52,10.1-1.31,14.54-.2,4.47,1.13,8.23,3.42,11.11,5.98,2.9,2.58,4.91,5.51,6.22,8.26,1.3,2.76,2.01,5.3,2.25,7.41.19,1.05.19,1.99.21,2.8,0,.41.02.78,0,1.12-.04.34-.07.65-.1.93-.13,1.1-.26,1.66-.39,1.66Z"/>
            </g>
            <g>
              <circle class="cls-7" cx="340.06" cy="349.44" r="25.93"/>
              <path class="cls-4" d="M365.95,350.9c-.13,0-.26-.58-.37-1.65-.03-.27-.05-.57-.09-.89-.04-.33-.12-.68-.18-1.07-.13-.77-.25-1.65-.54-2.62-.43-1.95-1.31-4.26-2.68-6.71-1.38-2.44-3.37-4.99-6.08-7.2-2.71-2.18-6.13-4.08-10.12-4.96-3.96-.85-8.45-.92-12.78.5-1.1.29-2.14.79-3.21,1.23-1.02.55-2.09,1.05-3.05,1.76-1.01.62-1.91,1.42-2.85,2.18-.85.86-1.75,1.69-2.5,2.67-1.53,1.91-2.9,4.05-3.78,6.43-.91,2.37-1.47,4.9-1.66,7.5-.11,2.61.16,5.19.8,7.64.61,2.47,1.73,4.74,3.04,6.82.63,1.06,1.43,1.98,2.18,2.93.85.86,1.65,1.76,2.58,2.49.87.81,1.88,1.42,2.83,2.09,1.01.57,1.99,1.17,3.05,1.59,4.14,1.9,8.61,2.33,12.64,1.93,4.06-.42,7.67-1.92,10.61-3.79,2.95-1.88,5.21-4.2,6.85-6.47,1.63-2.28,2.76-4.47,3.41-6.36.4-.93.61-1.79.83-2.54.11-.37.22-.72.3-1.04.07-.32.13-.61.19-.88.24-1.05.43-1.61.56-1.6.13,0,.2.58.2,1.69,0,.28,0,.59,0,.93-.02.34-.08.71-.13,1.11-.11.81-.22,1.74-.52,2.76-.47,2.07-1.46,4.52-3.06,7.11-1.61,2.58-3.94,5.27-7.11,7.51-3.16,2.22-7.15,4.06-11.71,4.69-4.53.6-9.63.24-14.43-1.83-1.22-.46-2.36-1.12-3.54-1.76-1.11-.74-2.27-1.44-3.29-2.35-1.09-.83-2.03-1.84-3.01-2.83-.89-1.08-1.81-2.14-2.56-3.35-1.54-2.38-2.84-5.01-3.57-7.86-.76-2.84-1.08-5.83-.95-8.85.21-3.01.86-5.95,1.94-8.69,1.04-2.76,2.63-5.22,4.43-7.41.88-1.12,1.92-2.08,2.92-3.04,1.09-.87,2.14-1.77,3.31-2.47,1.12-.79,2.35-1.35,3.54-1.96,1.24-.5,2.45-1.03,3.71-1.35,5-1.52,10.1-1.31,14.54-.2,4.47,1.13,8.23,3.42,11.11,5.98,2.9,2.58,4.91,5.51,6.22,8.26,1.3,2.76,2.01,5.3,2.25,7.41.19,1.05.19,1.99.21,2.8,0,.41.02.78,0,1.12-.04.34-.07.65-.1.93-.13,1.1-.26,1.66-.39,1.66Z"/>
            </g>
            <g>
              <circle class="cls-7" cx="224.41" cy="386.63" r="25.93"/>
              <path class="cls-4" d="M250.3,388.09c-.13,0-.26-.58-.37-1.65-.03-.27-.05-.57-.09-.89-.04-.33-.12-.68-.18-1.07-.13-.77-.25-1.65-.54-2.62-.43-1.95-1.31-4.26-2.68-6.71-1.38-2.44-3.37-4.99-6.08-7.2-2.71-2.18-6.13-4.08-10.12-4.96-3.96-.85-8.45-.92-12.78.5-1.1.29-2.14.79-3.21,1.23-1.02.55-2.09,1.05-3.05,1.76-1.01.62-1.91,1.42-2.85,2.18-.85.86-1.75,1.69-2.5,2.67-1.53,1.91-2.9,4.05-3.78,6.43-.91,2.37-1.47,4.9-1.66,7.5-.11,2.61.16,5.19.8,7.64.61,2.47,1.73,4.74,3.04,6.82.63,1.06,1.43,1.98,2.18,2.93.85.86,1.65,1.76,2.58,2.49.87.81,1.88,1.42,2.83,2.09,1.01.57,1.99,1.17,3.05,1.59,4.14,1.9,8.61,2.33,12.64,1.93,4.06-.42,7.67-1.92,10.61-3.79,2.95-1.88,5.21-4.2,6.85-6.47,1.63-2.28,2.76-4.47,3.41-6.36.4-.93.61-1.79.83-2.54.11-.37.22-.72.3-1.04.07-.32.13-.61.19-.88.24-1.05.43-1.61.56-1.6.13,0,.2.58.2,1.69,0,.28,0,.59,0,.93-.02.34-.08.71-.13,1.11-.11.81-.22,1.74-.52,2.76-.47,2.07-1.46,4.52-3.06,7.11-1.61,2.58-3.94,5.27-7.11,7.51-3.16,2.22-7.15,4.06-11.71,4.69-4.53.6-9.63.24-14.43-1.83-1.22-.46-2.36-1.12-3.54-1.76-1.11-.74-2.27-1.44-3.29-2.35-1.09-.83-2.03-1.84-3.01-2.83-.88-1.08-1.81-2.14-2.56-3.35-1.54-2.38-2.84-5.01-3.57-7.86-.76-2.84-1.08-5.83-.95-8.85.21-3.01.86-5.95,1.94-8.69,1.04-2.76,2.63-5.22,4.43-7.41.88-1.12,1.92-2.08,2.92-3.04,1.09-.87,2.14-1.77,3.31-2.47,1.12-.79,2.35-1.35,3.54-1.96,1.24-.5,2.45-1.03,3.71-1.35,5-1.52,10.1-1.31,14.54-.2,4.47,1.13,8.23,3.42,11.11,5.98,2.9,2.58,4.91,5.51,6.22,8.26,1.3,2.76,2.01,5.3,2.25,7.41.19,1.05.19,1.99.21,2.8,0,.41.02.78,0,1.12-.04.34-.07.65-.1.93-.13,1.1-.26,1.66-.39,1.66Z"/>
            </g>
            <g>
              <circle class="cls-7" cx="116.41" cy="350.69" r="25.93"/>
              <path class="cls-4" d="M142.3,352.15c-.13,0-.26-.58-.37-1.65-.03-.27-.05-.57-.09-.89-.04-.33-.12-.68-.18-1.07-.13-.77-.25-1.65-.54-2.62-.43-1.95-1.31-4.26-2.68-6.71-1.38-2.44-3.37-4.99-6.08-7.2-2.71-2.18-6.13-4.08-10.12-4.96-3.96-.85-8.45-.92-12.78.5-1.1.29-2.14.79-3.21,1.23-1.02.55-2.09,1.05-3.05,1.76-1.01.62-1.91,1.42-2.85,2.18-.85.86-1.75,1.69-2.5,2.67-1.53,1.91-2.9,4.05-3.78,6.43-.91,2.37-1.47,4.9-1.66,7.5-.11,2.61.16,5.19.8,7.64.61,2.47,1.73,4.74,3.04,6.82.63,1.06,1.43,1.98,2.18,2.93.85.86,1.65,1.76,2.58,2.49.87.81,1.88,1.42,2.83,2.09,1.01.57,1.99,1.17,3.05,1.59,4.14,1.9,8.61,2.33,12.64,1.93,4.06-.42,7.67-1.92,10.61-3.79,2.95-1.88,5.21-4.2,6.85-6.47,1.63-2.28,2.76-4.47,3.41-6.36.4-.93.61-1.79.83-2.54.11-.37.22-.72.3-1.04.07-.32.13-.61.19-.88.24-1.05.43-1.61.56-1.6.13,0,.2.58.2,1.69,0,.28,0,.59,0,.93-.02.34-.08.71-.13,1.11-.11.81-.22,1.74-.52,2.76-.47,2.07-1.47,4.52-3.06,7.11-1.61,2.58-3.94,5.27-7.11,7.51-3.16,2.22-7.15,4.06-11.71,4.69-4.53.6-9.63.24-14.43-1.83-1.22-.46-2.36-1.12-3.54-1.76-1.11-.74-2.27-1.44-3.29-2.35-1.09-.83-2.03-1.84-3.01-2.83-.88-1.08-1.81-2.14-2.56-3.35-1.54-2.38-2.84-5.01-3.57-7.86-.76-2.84-1.08-5.83-.95-8.85.21-3.01.86-5.95,1.94-8.69,1.04-2.76,2.63-5.22,4.43-7.41.88-1.12,1.92-2.08,2.92-3.04,1.09-.87,2.14-1.77,3.31-2.47,1.12-.79,2.35-1.35,3.54-1.96,1.24-.5,2.45-1.03,3.71-1.35,5-1.52,10.1-1.31,14.54-.2,4.47,1.13,8.23,3.42,11.11,5.98,2.9,2.58,4.91,5.51,6.22,8.26,1.3,2.76,2.01,5.3,2.25,7.41.19,1.05.19,1.99.21,2.8,0,.41.02.78,0,1.12-.04.34-.07.65-.1.93-.13,1.1-.26,1.66-.39,1.66Z"/>
            </g>
            <g>
              <path class="cls-1" d="M343.31,59.51c-4.72,30.28-33.8,53.49-64.96,51.85-31.16-1.64-52.6-27.52-47.88-57.8C235.18,23.28,264.27.07,295.43,1.71c31.16,1.64,52.6,27.52,47.88,57.8Z"/>
              <path class="cls-4" d="M343.31,59.51c-.15-.02-.06-1.26.04-3.58.11-2.32.13-5.76-.42-10.11-.6-4.33-1.84-9.6-4.55-15.17-2.68-5.55-6.91-11.36-12.95-16.22-3-2.43-6.45-4.62-10.29-6.36-3.83-1.75-8.03-3.12-12.51-3.9-8.94-1.67-18.92-.93-28.65,2.18-9.67,3.25-19.12,9.01-26.65,17.21-1,.97-1.84,2.08-2.72,3.17-.87,1.1-1.81,2.15-2.54,3.36-.77,1.18-1.59,2.34-2.34,3.54-.68,1.25-1.35,2.5-2.04,3.76-2.53,5.13-4.37,10.68-5.35,16.46-1.83,11.58.42,23.44,6.23,32.8,2.83,4.72,6.53,8.77,10.64,12.11,2.08,1.65,4.26,3.11,6.51,4.41,2.27,1.27,4.61,2.33,6.98,3.25,2.39.87,4.8,1.58,7.22,2.12,2.43.49,4.85.9,7.27,1.06,1.2.14,2.41.1,3.6.12,1.19,0,2.38.05,3.55.01,1.17-.1,2.33-.2,3.49-.3.58-.05,1.15-.1,1.72-.15.57-.08,1.13-.2,1.69-.3,9-1.49,17-4.84,23.58-9,6.59-4.16,11.76-9.13,15.64-13.96,1.04-1.16,1.87-2.41,2.69-3.6.82-1.19,1.67-2.3,2.28-3.49.66-1.16,1.3-2.27,1.9-3.32.56-1.08,1-2.15,1.47-3.15.23-.5.45-.99.67-1.46.23-.47.43-.93.57-1.4.32-.92.63-1.78.91-2.58.28-.8.57-1.53.78-2.22.18-.69.34-1.32.49-1.89.6-2.25.97-3.43,1.1-3.41.13.02,0,1.24-.35,3.58-.09.58-.2,1.24-.31,1.96-.16.71-.39,1.47-.61,2.31-.23.83-.49,1.73-.76,2.69-.12.49-.29.97-.5,1.46-.2.49-.4,1-.6,1.53-.43,1.04-.83,2.17-1.35,3.3-.57,1.11-1.18,2.28-1.81,3.5-.58,1.25-1.41,2.42-2.21,3.68-.81,1.26-1.62,2.58-2.65,3.81-3.85,5.13-9.07,10.42-15.85,14.91-6.75,4.48-15.07,8.15-24.52,9.86-.59.11-1.18.24-1.77.34-.6.06-1.21.12-1.81.18-1.21.12-2.44.24-3.67.37-1.24.06-2.49.02-3.75.04-1.26,0-2.53.04-3.81-.09-2.56-.14-5.14-.54-7.73-1.04-2.59-.54-5.17-1.27-7.73-2.18-2.54-.95-5.07-2.07-7.51-3.41-2.43-1.37-4.79-2.92-7.04-4.69-4.45-3.57-8.47-7.92-11.56-13.01-6.33-10.09-8.78-22.94-6.81-35.34,1.05-6.19,3.02-12.12,5.73-17.58.73-1.34,1.46-2.67,2.18-4,.8-1.28,1.67-2.51,2.5-3.76.79-1.28,1.78-2.4,2.71-3.56.94-1.15,1.84-2.33,2.9-3.35,8.02-8.65,18.04-14.67,28.3-18.01,10.32-3.2,20.87-3.84,30.31-1.94,4.73.89,9.16,2.41,13.18,4.34,4.03,1.92,7.64,4.3,10.75,6.94,6.27,5.27,10.55,11.51,13.16,17.4,2.64,5.91,3.7,11.43,4.09,15.92.33,4.51.06,8.01-.29,10.34-.35,2.34-.69,3.53-.8,3.51Z"/>
            </g>
            <g>
              <circle class="cls-1" cx="196.13" cy="91.28" r="46.56"/>
              <path class="cls-4" d="M242.62,93.9c-.13,0-.25-1.04-.37-2.97-.02-.48-.05-1.02-.08-1.62-.05-.59-.17-1.24-.26-1.93-.09-.7-.2-1.45-.3-2.25-.07-.81-.35-1.63-.53-2.52-.7-3.57-2.21-7.81-4.64-12.32-2.45-4.5-6.03-9.24-10.98-13.35-.62-.51-1.25-1.02-1.89-1.54-.67-.48-1.37-.92-2.06-1.4-.71-.45-1.37-.98-2.14-1.37-.75-.41-1.52-.82-2.29-1.23-.39-.21-.77-.41-1.16-.62-.41-.17-.82-.34-1.23-.51-.82-.34-1.65-.69-2.49-1.04-.85-.33-1.74-.55-2.62-.84-.89-.25-1.76-.61-2.69-.75-1.85-.35-3.7-.83-5.65-.93-.97-.08-1.94-.23-2.92-.26-.98,0-1.98,0-2.98,0-.5,0-1-.02-1.5.02-.5.05-1,.1-1.51.16-1.01.12-2.03.18-3.04.34-2,.44-4.07.73-6.06,1.45l-1.51.47c-.25.08-.51.15-.76.24l-.73.31c-.98.41-1.97.83-2.96,1.24-.97.46-1.91,1.01-2.87,1.52-.47.27-.98.49-1.43.8l-1.37.92c-1.88,1.15-3.55,2.63-5.3,4.04-.8.79-1.6,1.58-2.4,2.38l-.61.6-.55.65-1.1,1.31-1.1,1.32-.98,1.42-.98,1.43-.49.72-.42.76c-.56,1.02-1.12,2.04-1.69,3.06-.46,1.07-.93,2.15-1.39,3.24-1.7,4.4-2.75,9.11-3.09,13.94-.21,4.85.31,9.64,1.5,14.2.34,1.13.68,2.25,1.02,3.37.45,1.08.89,2.16,1.33,3.23l.33.8.41.77.81,1.53.81,1.52.95,1.43.94,1.43.47.71.53.66c.71.88,1.42,1.76,2.12,2.63,1.58,1.6,3.07,3.25,4.81,4.61l1.26,1.07c.42.36.89.63,1.33.95.9.61,1.77,1.26,2.68,1.83.94.53,1.87,1.05,2.8,1.57l.7.39c.24.12.48.21.73.32l1.45.63c1.89.93,3.92,1.46,5.86,2.12.99.27,2,.45,2.98.67.49.11.99.22,1.48.32.49.1,1,.12,1.49.19.99.11,1.98.23,2.96.34.98.08,1.96.04,2.93.07,1.94.12,3.84-.15,5.72-.29.94-.03,1.85-.3,2.76-.44.9-.18,1.82-.31,2.69-.54.87-.25,1.73-.51,2.59-.76.43-.12.85-.25,1.28-.37.41-.16.82-.32,1.22-.49.81-.33,1.62-.65,2.41-.97.8-.3,1.52-.76,2.28-1.12.74-.39,1.49-.75,2.21-1.16.69-.45,1.37-.89,2.05-1.32,5.38-3.53,9.47-7.83,12.41-12.03,2.92-4.22,4.89-8.26,5.99-11.73.28-.87.65-1.66.81-2.45.2-.78.38-1.52.55-2.2.17-.68.35-1.31.48-1.89.1-.59.18-1.12.26-1.6.33-1.91.57-2.92.7-2.91.13,0,.15,1.03.06,3-.03.49-.05,1.04-.08,1.65-.06.6-.19,1.26-.3,1.97-.12.71-.25,1.48-.39,2.3-.11.83-.43,1.66-.67,2.57-.91,3.65-2.76,7.95-5.64,12.48-2.9,4.51-7.06,9.19-12.66,13.07-.7.48-1.42.96-2.14,1.45-.75.45-1.53.85-2.31,1.29-.79.41-1.55.91-2.4,1.25-.84.36-1.69.72-2.54,1.09-.43.18-.86.36-1.3.54-.45.14-.9.28-1.35.43-.91.28-1.82.57-2.75.86-.93.26-1.9.42-2.87.63-.97.17-1.94.46-2.94.52-2,.19-4.03.5-6.12.42-1.04-.01-2.09.04-3.14-.03-1.05-.1-2.11-.21-3.18-.32-.53-.06-1.07-.09-1.6-.18-.53-.11-1.06-.22-1.6-.32-1.06-.23-2.15-.41-3.22-.69-2.1-.68-4.29-1.23-6.34-2.21l-1.57-.67c-.26-.11-.53-.22-.79-.34l-.76-.41c-1.01-.55-2.02-1.11-3.04-1.67-.99-.61-1.94-1.3-2.92-1.95-.48-.34-.99-.64-1.44-1.02l-1.37-1.14c-1.89-1.45-3.53-3.22-5.24-4.95-.77-.94-1.54-1.89-2.32-2.84l-.58-.71-.52-.76-1.03-1.54-1.03-1.55-.89-1.64-.89-1.66-.44-.83-.37-.87c-.48-1.16-.97-2.33-1.46-3.5-.37-1.21-.74-2.43-1.12-3.66-1.31-4.95-1.87-10.16-1.65-15.41.36-5.24,1.51-10.36,3.37-15.13.51-1.17,1.02-2.34,1.52-3.51.62-1.11,1.23-2.22,1.84-3.32l.46-.82.53-.78,1.07-1.55,1.07-1.53,1.2-1.42,1.2-1.41.6-.7.66-.64c.88-.86,1.75-1.71,2.62-2.56,1.89-1.52,3.72-3.1,5.76-4.33l1.49-.98c.49-.33,1.04-.57,1.55-.85,1.05-.54,2.06-1.12,3.12-1.61,1.08-.44,2.15-.88,3.21-1.31l.8-.32c.27-.09.55-.17.82-.25.55-.16,1.09-.33,1.64-.49,2.15-.74,4.38-1.04,6.55-1.48,1.09-.16,2.19-.21,3.27-.32.54-.05,1.08-.1,1.62-.14.54-.04,1.08,0,1.61,0,1.07.01,2.14.03,3.19.04,1.05.05,2.09.22,3.13.32,2.08.15,4.06.69,6.03,1.1.99.17,1.92.57,2.86.85.93.32,1.88.58,2.78.95.89.39,1.76.78,2.63,1.17.43.19.87.38,1.3.58.41.23.82.46,1.23.69.81.46,1.61.91,2.41,1.36.8.43,1.5,1.02,2.24,1.51.73.52,1.46,1.01,2.15,1.54.66.57,1.31,1.13,1.96,1.69,5.13,4.49,8.74,9.6,11.11,14.41,2.36,4.83,3.7,9.3,4.2,13.03.13.93.35,1.79.37,2.63.05.83.09,1.61.13,2.33.03.72.09,1.38.08,1.99-.04.61-.07,1.16-.1,1.65-.14,1.96-.27,2.98-.4,2.97Z"/>
            </g>
            <g>
              <circle class="cls-1" cx="365.54" cy="123.74" r="50.38"/>
              <path class="cls-4" d="M315.24,120.91c-.13,0-.14-1.12-.04-3.24.03-.53.06-1.13.1-1.78.07-.65.21-1.36.34-2.13.13-.77.28-1.6.43-2.48.06-.45.18-.9.32-1.35.13-.46.27-.93.41-1.42,1-3.94,2.99-8.58,6.12-13.47,3.14-4.87,7.64-9.91,13.69-14.1.76-.52,1.53-1.04,2.31-1.57.81-.48,1.65-.92,2.5-1.39.86-.44,1.68-.98,2.59-1.35.91-.39,1.82-.78,2.75-1.17.46-.19.93-.39,1.4-.59.48-.15.97-.31,1.46-.46.98-.31,1.97-.62,2.97-.93,1.01-.28,2.05-.45,3.09-.68,1.05-.19,2.09-.5,3.17-.56,2.16-.21,4.35-.54,6.6-.45,1.12.01,2.26-.04,3.39.03,1.13.11,2.28.23,3.43.34.57.07,1.16.1,1.73.2.57.12,1.15.23,1.72.35,1.15.25,2.32.44,3.47.74,2.27.73,4.62,1.33,6.84,2.38.56.24,1.13.48,1.7.72.28.12.57.24.85.37l.81.44c1.09.6,2.18,1.19,3.28,1.8,1.07.65,2.09,1.4,3.15,2.1.52.37,1.07.69,1.56,1.1l1.48,1.23c2.04,1.57,3.8,3.48,5.65,5.34.83,1.01,1.66,2.03,2.5,3.06l.63.77.56.82,1.11,1.66,1.11,1.67.96,1.77.96,1.79.48.9.4.94c.52,1.25,1.04,2.51,1.57,3.78.4,1.31.8,2.62,1.21,3.94,1.42,5.33,2.02,10.96,1.77,16.62-.39,5.66-1.62,11.17-3.63,16.32-.55,1.27-1.1,2.53-1.64,3.78-.66,1.2-1.33,2.39-1.99,3.58l-.5.89-.58.84-1.15,1.67-1.15,1.65-1.29,1.54-1.29,1.53-.65.76-.71.7c-.95.92-1.89,1.84-2.82,2.76-2.04,1.64-4.01,3.34-6.21,4.67l-1.6,1.05c-.53.35-1.12.61-1.67.92-1.13.58-2.23,1.21-3.36,1.74-1.16.48-2.32.95-3.46,1.42l-.86.35c-.29.1-.59.18-.88.27-.59.18-1.18.35-1.77.53-2.32.8-4.73,1.13-7.07,1.6-1.18.17-2.36.23-3.53.35-.59.05-1.17.1-1.75.15-.58.04-1.16,0-1.74,0-1.16-.01-2.31-.03-3.45-.04-1.14-.06-2.26-.23-3.37-.35-2.24-.16-4.39-.74-6.51-1.19-1.07-.18-2.07-.61-3.09-.92-1.01-.35-2.03-.63-3-1.02-.96-.42-1.91-.84-2.84-1.26-.47-.21-.94-.41-1.4-.62-.44-.25-.88-.49-1.32-.74-.87-.5-1.74-.99-2.6-1.47-.87-.47-1.62-1.1-2.42-1.63-.78-.56-1.58-1.09-2.32-1.66-.71-.61-1.42-1.22-2.12-1.82-5.54-4.84-9.44-10.36-12.02-15.54-2.55-5.21-4.02-10.04-4.57-14.07-.08-.5-.17-.99-.24-1.46-.09-.47-.15-.93-.17-1.38-.05-.9-.1-1.74-.15-2.52-.04-.78-.1-1.49-.1-2.15.04-.66.07-1.25.1-1.78.14-2.12.27-3.22.4-3.22.13,0,.25,1.12.37,3.21.02.52.05,1.11.08,1.75.06.64.18,1.34.27,2.1.1.76.21,1.57.32,2.44.04.44.13.88.25,1.33.1.45.21.92.32,1.4.75,3.87,2.38,8.46,5,13.36,2.65,4.88,6.52,10.02,11.88,14.48.67.55,1.35,1.11,2.04,1.68.72.52,1.48,1,2.24,1.52.77.49,1.49,1.07,2.32,1.49.82.44,1.64.89,2.48,1.34.42.22.84.45,1.26.67.44.18.89.37,1.33.56.89.37,1.79.75,2.7,1.13.92.35,1.88.6,2.84.91.96.27,1.9.66,2.92.81,2,.38,4.01.9,6.12,1.02,1.05.09,2.1.25,3.17.28,1.07,0,2.15,0,3.23,0,.54-.01,1.09.02,1.63-.02.54-.06,1.09-.11,1.63-.17,1.09-.13,2.2-.19,3.3-.36,2.17-.48,4.42-.79,6.57-1.57.55-.17,1.09-.34,1.64-.51.27-.09.55-.16.82-.26l.8-.34c1.06-.45,2.14-.9,3.21-1.35,1.05-.5,2.07-1.1,3.12-1.65.51-.29,1.06-.53,1.55-.87l1.48-.99c2.04-1.25,3.86-2.85,5.75-4.38.87-.86,1.74-1.72,2.61-2.58l.66-.65.6-.71,1.19-1.43,1.2-1.43,1.06-1.54,1.06-1.55.53-.78.46-.83c.61-1.1,1.22-2.21,1.83-3.32.5-1.17,1-2.34,1.51-3.51,1.85-4.77,2.98-9.88,3.35-15.13.22-5.26-.33-10.47-1.63-15.41-.37-1.22-.74-2.45-1.11-3.66-.48-1.17-.97-2.34-1.45-3.51l-.36-.87-.44-.83-.88-1.66-.88-1.65-1.03-1.55-1.02-1.55-.51-.77-.58-.72c-.77-.96-1.54-1.91-2.3-2.86-1.71-1.73-3.33-3.53-5.22-5l-1.36-1.16c-.45-.39-.97-.69-1.44-1.04-.98-.66-1.92-1.37-2.91-1.99-1.02-.57-2.03-1.14-3.04-1.7l-.75-.42c-.26-.13-.53-.23-.79-.35l-1.57-.69c-2.06-1.01-4.25-1.58-6.36-2.3-1.07-.29-2.17-.48-3.24-.73-.54-.12-1.07-.23-1.6-.35-.54-.11-1.08-.13-1.62-.2-1.08-.12-2.15-.25-3.21-.37-1.06-.08-2.13-.04-3.18-.07-2.11-.12-4.17.17-6.2.32-1.02.04-2,.32-2.99.48-.98.2-1.97.34-2.92.58-.94.28-1.88.55-2.81.82-.46.14-.93.27-1.39.4-.44.18-.89.35-1.33.53-.88.35-1.75.7-2.61,1.05-.87.33-1.65.83-2.47,1.22-.8.43-1.62.82-2.39,1.26-.75.48-1.49.96-2.22,1.44-5.83,3.83-10.26,8.5-13.43,13.06-3.15,4.57-5.29,8.96-6.47,12.72-.16.47-.32.92-.48,1.36-.17.44-.31.87-.39,1.3-.21.85-.41,1.65-.59,2.39-.18.74-.38,1.42-.51,2.05-.1.64-.19,1.21-.28,1.73-.35,2.06-.59,3.16-.72,3.15Z"/>
            </g>
            <g>
              <path class="cls-1" d="M188.31,125.96s-96.55,17.65-115.98,55.04c-19.42,37.39,19.33,78.05,19.33,78.05l96.64-133.09Z"/>
              <path class="cls-4" d="M188.31,125.96c.11.08-.57,1.23-1.97,3.36-1.39,2.13-3.5,5.23-6.24,9.2-5.49,7.94-13.53,19.36-23.52,33.43-10,14.06-21.96,30.77-35.29,49.29-6.67,9.25-13.68,18.96-20.94,29.03-1.82,2.51-3.65,5.05-5.5,7.61l-1.12,1.55c-.46.65-.93,1.25-1.39,1.86l-.35.46c-.06.07-.11.18-.18.21l-.2-.21-.79-.84c-.53-.56-1.06-1.13-1.56-1.71l-.71-.8-.4-.46-.78-.93-1.54-1.9c-4.03-5.12-7.73-10.62-10.91-16.53-3.19-5.89-5.79-12.05-7.54-18.4-.85-3.18-1.56-6.38-1.91-9.62-.25-1.61-.28-3.24-.41-4.85,0-.81,0-1.62-.01-2.43v-1.21s.07-1.21.07-1.21c.05-.8.1-1.6.15-2.4.11-.79.21-1.59.32-2.38l.16-1.18c.07-.39.16-.78.24-1.17.16-.78.33-1.55.49-2.33.18-.77.43-1.52.65-2.28.24-.75.41-1.52.71-2.24.58-1.45,1.05-2.95,1.76-4.32.33-.7.66-1.4.99-2.09.34-.69.78-1.34,1.16-2.01.4-.66.78-1.34,1.2-1.98.46-.61.91-1.23,1.36-1.84.46-.6.88-1.24,1.38-1.8l1.49-1.68c.51-.55.97-1.13,1.51-1.64l1.59-1.53c8.56-8.05,18.25-13.47,27.4-17.99,9.22-4.44,18.1-7.88,26.3-10.68,16.41-5.59,30.04-8.86,39.49-10.89,4.73-1.01,8.42-1.68,10.94-2.07,2.52-.39,3.85-.51,3.88-.38.02.13-1.26.49-3.72,1.13-2.47.63-6.09,1.56-10.75,2.76-9.31,2.46-22.78,6.12-38.94,11.99-8.07,2.93-16.79,6.49-25.8,10.97-4.48,2.29-9.04,4.77-13.52,7.66-4.45,2.91-8.86,6.18-12.85,10.03-4,3.85-7.49,8.3-9.82,13.54-.66,1.28-1.08,2.67-1.61,4.02-.28.67-.43,1.39-.65,2.08-.19.7-.42,1.4-.59,2.11-.15.72-.3,1.44-.44,2.16-.07.36-.16.72-.22,1.08l-.14,1.1c-.1.73-.19,1.47-.29,2.21-.04.74-.09,1.49-.13,2.23l-.07,1.12v1.13s.03,2.26.03,2.26c.13,1.51.16,3.03.4,4.54.34,3.04,1.02,6.06,1.83,9.07,1.67,6.02,4.16,11.92,7.24,17.6,3.06,5.69,6.65,11.03,10.53,15.99l1.48,1.83,1.21,1.44s.02.03.03.03h0s0-.01,0-.01l.27-.36c1.86-2.55,3.7-5.08,5.53-7.59,7.33-10.02,14.39-19.69,21.12-28.9,13.48-18.41,25.67-34.95,35.95-48.81s18.65-25.04,24.5-32.71c2.93-3.84,5.23-6.8,6.82-8.78,1.59-1.98,2.48-2.99,2.59-2.91Z"/>
            </g>
            <g>
              <path class="cls-1" d="M351.03,166.18s81.95,59.38,67.21,116.27c-14.75,56.89-70.4,54.4-102.76,48.09-32.35-6.31,35.55-164.35,35.55-164.35Z"/>
              <path class="cls-4" d="M351.03,166.18c.12.05-.37,1.53-1.4,4.3-1.05,2.77-2.59,6.85-4.57,12.1-3.97,10.5-9.73,25.69-16.21,44.67-3.23,9.49-6.65,19.93-9.94,31.24-3.26,11.3-6.52,23.48-8.7,36.45-1.05,6.47-1.87,13.2-1.58,19.91.16,3.33.69,6.7,2,9.52.66,1.4,1.6,2.55,2.75,3.32.26.23.6.35.91.5.16.07.3.17.48.22l.52.14.51.15.65.12,1.32.24c7.04,1.29,14.27,2.2,21.62,2.59,3.68.17,7.38.21,11.1.09,3.72-.16,7.45-.46,11.17-.99,3.71-.57,7.37-1.3,10.92-2.3,3.54-1.05,7.01-2.24,10.29-3.78,3.26-1.57,6.44-3.26,9.32-5.36l1.1-.76,1.04-.83c.69-.55,1.39-1.09,2.07-1.65,1.28-1.21,2.65-2.31,3.81-3.63,4.86-5.03,8.72-10.84,11.52-17.02,1.41-3.08,2.61-6.23,3.6-9.4.23-.8.47-1.6.7-2.39.22-.8.5-1.58.64-2.38.32-1.59.7-3.17.97-4.75,1.02-6.36.73-12.73-.29-18.77-1.03-6.05-2.83-11.8-5-17.18-2.22-5.37-4.86-10.36-7.6-15.04-2.77-4.66-5.74-8.96-8.67-12.99-11.97-15.98-23.79-27.22-32.01-34.78-4.14-3.77-7.45-6.6-9.69-8.53-2.24-1.92-3.43-2.93-3.35-3.04.08-.11,1.42.7,3.82,2.43,2.41,1.73,5.88,4.39,10.19,8.01,8.57,7.27,20.77,18.27,33.19,34.28,3.05,4.04,6.13,8.36,9.03,13.09,2.86,4.74,5.64,9.82,8,15.34,2.31,5.53,4.25,11.49,5.39,17.83,1.13,6.33,1.49,13.07.46,19.86-.27,1.69-.66,3.37-1,5.07-.15.86-.42,1.67-.65,2.5-.24.83-.48,1.66-.72,2.49-1.02,3.32-2.25,6.61-3.72,9.86-2.91,6.5-6.97,12.71-12.14,18.09-1.24,1.4-2.7,2.59-4.06,3.88-.72.6-1.47,1.18-2.2,1.77l-1.11.88-1.17.81c-3.06,2.25-6.44,4.06-9.89,5.73-3.48,1.64-7.13,2.91-10.84,4.01-3.73,1.05-7.55,1.82-11.42,2.41-3.87.54-7.74.86-11.58,1.02-3.84.12-7.66.07-11.43-.11-7.55-.41-14.94-1.36-22.11-2.7l-1.34-.25-.68-.13-.78-.22-.78-.23c-.26-.08-.5-.22-.75-.33-.49-.24-1-.45-1.43-.8-1.83-1.23-3.16-2.99-4-4.79-1.67-3.64-2.15-7.37-2.32-10.96-.27-7.2.63-14.06,1.75-20.67,2.32-13.21,5.72-25.43,9.14-36.77,3.44-11.33,7.02-21.76,10.42-31.23,6.83-18.92,12.98-33.99,17.38-44.33,2.2-5.17,3.98-9.16,5.24-11.84,1.25-2.68,1.99-4.06,2.11-4.01Z"/>
            </g>
            <g>
              <ellipse class="cls-1" cx="99.3" cy="294.91" rx="56.48" ry="49.72" transform="translate(-5.32 1.84) rotate(-1.04)"/>
              <path class="cls-4" d="M42.82,295.93c-.11,0-.3-1.17-.3-3.41,0-2.24.21-5.59,1.29-9.75.52-2.08,1.31-4.35,2.33-6.76,1.06-2.4,2.41-4.92,4.12-7.47,3.4-5.09,8.29-10.27,14.72-14.58,6.41-4.32,14.35-7.76,23.33-9.36,4.48-.82,9.2-1.19,14.05-1,4.85.18,9.84.87,14.79,2.26,9.88,2.71,19.74,8.08,27.42,16.36,3.85,4.11,7.07,8.97,9.38,14.34,2.32,5.37,3.58,11.29,3.72,17.3.07,6.01-.97,11.97-3.09,17.42-2.11,5.45-5.16,10.43-8.86,14.67-7.38,8.55-17.04,14.28-26.81,17.35-4.9,1.56-9.86,2.44-14.7,2.79-4.84.37-9.57.16-14.08-.49-9.03-1.27-17.09-4.43-23.65-8.51-6.58-4.08-11.66-9.08-15.24-14.04-1.8-2.48-3.24-4.95-4.39-7.31-1.11-2.38-1.97-4.61-2.57-6.68-1.23-4.12-1.57-7.46-1.65-9.7-.08-2.25.07-3.42.18-3.42.15,0,.27,1.17.59,3.35.32,2.18.88,5.4,2.29,9.31.69,1.96,1.62,4.08,2.78,6.31,1.19,2.22,2.67,4.53,4.47,6.85,3.59,4.64,8.57,9.27,14.93,13.02,6.34,3.75,14.07,6.61,22.68,7.69,4.29.55,8.8.69,13.39.28,4.59-.39,9.28-1.27,13.89-2.79,9.21-2.98,18.23-8.44,25.05-16.43,3.42-3.97,6.22-8.58,8.15-13.6,1.94-5.02,2.89-10.48,2.82-16-.14-5.52-1.28-10.94-3.4-15.89-2.11-4.95-5.07-9.46-8.64-13.3-7.11-7.74-16.32-12.87-25.63-15.52-4.66-1.35-9.38-2.07-13.98-2.29-4.61-.24-9.1.06-13.37.77-8.56,1.39-16.18,4.52-22.39,8.5-6.23,3.97-11.03,8.78-14.45,13.55-1.71,2.38-3.11,4.75-4.22,7.01-1.08,2.28-1.94,4.42-2.55,6.41-1.27,3.96-1.71,7.2-1.95,9.39-.24,2.19-.31,3.37-.47,3.37Z"/>
            </g>
            <g>
              <ellipse class="cls-1" cx="282.75" cy="364.03" rx="63.49" ry="47.51" transform="translate(-100.13 107.39) rotate(-18.33)"/>
              <path class="cls-4" d="M343.02,344.06c-.06.02-.23-.25-.5-.78-.27-.53-.6-1.35-1.16-2.37-1.04-2.06-2.74-5.04-5.61-8.32-2.85-3.28-6.97-6.77-12.41-9.68-5.43-2.91-12.2-5.17-19.92-6.17-7.71-1.01-16.34-.77-25.3,1.09-8.95,1.85-18.24,5.36-26.96,10.76-8.66,5.42-16.82,12.88-22.41,22.42-2.77,4.76-4.86,10.03-5.72,15.59-.89,5.54-.55,11.35,1.25,16.8,1.81,5.45,5,10.31,9.02,14.22,4.01,3.94,8.84,6.93,13.9,9.09,10.18,4.32,21.18,5.43,31.36,4.61,10.22-.88,19.77-3.61,28.05-7.47,8.3-3.86,15.37-8.82,20.94-14.23,5.59-5.41,9.67-11.27,12.29-16.84,2.63-5.58,3.85-10.84,4.18-15.17.34-4.34-.07-7.75-.47-10.02-.16-1.15-.39-2-.49-2.59-.11-.59-.13-.9-.07-.92s.21.25.44.81c.22.56.58,1.39.86,2.54.65,2.26,1.32,5.74,1.2,10.27-.1,4.51-1.16,10.06-3.72,15.97-2.55,5.91-6.65,12.13-12.34,17.88-5.68,5.75-12.93,11.05-21.49,15.18-8.55,4.14-18.42,7.1-29.1,8.11-10.64.95-22.21-.1-33.13-4.67-5.42-2.29-10.66-5.49-15.08-9.81-4.43-4.28-7.99-9.69-10-15.74-2.01-6.06-2.38-12.52-1.38-18.6.97-6.1,3.26-11.8,6.24-16.87,6.03-10.18,14.68-17.94,23.79-23.52,9.17-5.56,18.86-9.08,28.19-10.87,9.33-1.8,18.31-1.88,26.3-.65,8,1.22,15,3.76,20.57,6.98,5.58,3.21,9.74,7.03,12.52,10.59,2.8,3.56,4.34,6.75,5.17,8.95.45,1.09.67,1.97.82,2.55.15.59.19.89.13.91Z"/>
            </g>
            <g>
              <ellipse class="cls-1" cx="163.43" cy="366.21" rx="43.27" ry="57.21" transform="translate(-232.79 428.11) rotate(-74.83)"/>
              <path class="cls-4" d="M218.64,381.18c-.06-.02-.06-.3,0-.84.05-.54.21-1.32.3-2.37.23-2.07.44-5.16-.08-9.06-.49-3.89-1.84-8.58-4.45-13.5-2.61-4.91-6.55-10.02-11.83-14.64-5.27-4.63-11.88-8.77-19.55-11.84-7.66-3.08-16.4-5.06-25.65-5.3-9.22-.2-19.06,1.41-27.97,5.88-4.42,2.24-8.6,5.19-11.98,8.96-3.4,3.74-6,8.28-7.36,13.27-1.35,4.99-1.4,10.22-.35,15.17,1.02,4.96,3.13,9.62,5.82,13.79,5.43,8.36,13.11,14.72,21.17,19.2,8.11,4.46,16.66,7.18,24.82,8.39,8.17,1.22,15.97.98,22.85-.35,6.9-1.32,12.87-3.74,17.61-6.66,4.74-2.92,8.27-6.29,10.66-9.4,2.42-3.11,3.8-5.88,4.65-7.78.45-.95.71-1.7.94-2.2.22-.5.36-.74.43-.73.06.02.04.3-.05.84-.11.54-.25,1.34-.6,2.36-.63,2.04-1.84,5.01-4.17,8.39-2.31,3.38-5.85,7.08-10.71,10.31-4.85,3.24-11.04,5.95-18.21,7.5-7.16,1.56-15.3,1.97-23.84.84-8.54-1.13-17.49-3.83-26.06-8.44-8.52-4.63-16.71-11.27-22.62-20.25-2.92-4.48-5.25-9.55-6.39-15.04-1.17-5.47-1.13-11.35.38-16.95,1.52-5.59,4.45-10.69,8.23-14.82,3.76-4.16,8.33-7.36,13.12-9.75,9.63-4.76,20.06-6.36,29.75-6.05,9.72.36,18.82,2.55,26.75,5.88,7.95,3.33,14.76,7.8,20.15,12.76,5.41,4.96,9.38,10.43,11.93,15.67,2.56,5.25,3.75,10.23,4.03,14.31.31,4.09-.15,7.27-.64,9.35-.21,1.05-.5,1.82-.68,2.33-.19.51-.31.77-.38.75Z"/>
            </g>
            <g>
              <path class="cls-7" d="M361.67,156.5h-.02c-.65-51.04-39.04-101.12-90.77-104.03-35.95-2.02-70.11,23.15-88.74,51.08h0s-.01.02-.03.05c-4.03,6.06-7.43,12.59-10.05,19.52-13.3,25.33-36.61,67.97-50.33,82.75-20,21.55-42.58,28.05-46.17,70.6-3.6,42.55,42.58,80.15,82.18,90.15,39.6,10,110.73,17.23,154.16-6.23,43.43-23.46,56.25-110.28,49.78-203.88Z"/>
              <path class="cls-4" d="M361.67,156.5c.07,0,.18.84.35,2.49.16,1.65.4,4.11.64,7.34.46,6.46,1.04,16,1.28,28.31.23,12.31.16,27.39-1.06,44.85-.64,8.73-1.56,18.05-3.01,27.89-1.45,9.83-3.43,20.18-6.29,30.86-1.52,5.32-3.11,10.76-5.19,16.18-2.03,5.43-4.36,10.91-7.24,16.26-2.86,5.36-6.18,10.64-10.21,15.57-4.02,4.92-8.77,9.49-14.34,13.14-1.43.85-2.85,1.75-4.3,2.56-1.48.74-2.94,1.54-4.46,2.25-3.03,1.41-6.13,2.72-9.31,3.88-6.36,2.32-13,4.14-19.81,5.55-13.63,2.81-27.92,4.04-42.54,4.15-14.63.1-29.6-.91-44.76-2.93-7.58-1.03-15.21-2.29-22.86-3.87-3.83-.79-7.65-1.67-11.48-2.63-3.87-.99-7.68-2.22-11.45-3.59-3.76-1.42-7.46-3.01-11.11-4.76-3.62-1.8-7.22-3.69-10.7-5.81-3.48-2.12-6.92-4.35-10.22-6.8-1.68-1.18-3.27-2.49-4.91-3.75-1.58-1.33-3.2-2.62-4.73-4.02-3.11-2.74-6.07-5.68-8.88-8.79-2.83-3.08-5.45-6.39-7.88-9.84-2.46-3.44-4.62-7.11-6.53-10.93-.99-1.9-1.8-3.88-2.64-5.85-.73-2.02-1.5-4.03-2.07-6.12-1.47-5.08-2.32-10.35-2.44-15.63l-.04-1.98.09-1.97.1-1.97c.04-.65.14-1.29.21-1.93l.45-3.85.23-1.92c.09-.64.23-1.27.35-1.91.52-2.53.87-5.09,1.65-7.57l1.03-3.73c.41-1.22.89-2.43,1.33-3.64.8-2.46,2.07-4.73,3.14-7.07.61-1.13,1.3-2.22,1.95-3.34.33-.55.64-1.11,1-1.65l1.12-1.57c.76-1.03,1.44-2.12,2.27-3.09l2.44-2.93c.83-.96,1.73-1.85,2.59-2.77.85-.93,1.76-1.8,2.67-2.66,3.6-3.49,7.38-6.67,11.04-9.86,1.85-1.58,3.64-3.2,5.44-4.8.89-.81,1.75-1.64,2.62-2.46.87-.81,1.74-1.64,2.55-2.5l2.48-2.54c.79-.87,1.54-1.76,2.31-2.64.77-.87,1.47-1.84,2.2-2.75l1.09-1.39,1.04-1.43c5.56-7.62,10.57-15.58,15.36-23.52,4.78-7.95,9.34-15.9,13.74-23.79,4.4-7.89,8.64-15.73,12.75-23.48.51-.97,1.03-1.94,1.54-2.9l.19-.36c.11-.21,0,0,.09-.18l.3-.78.62-1.54c.84-2.05,1.76-4.06,2.73-6.03,1.94-3.94,4.14-7.71,6.54-11.3l-.1.18.03-.06.63-1.25,1.34.39h0s-1.87.69-1.87.69c5.41-8.02,11.63-15.22,18.35-21.58,6.72-6.36,13.97-11.88,21.56-16.41,7.59-4.53,15.55-8.07,23.63-10.42,8.09-2.34,16.33-3.38,24.28-3.14,7.95.16,15.59,1.54,22.66,3.78,7.08,2.23,13.62,5.27,19.51,8.81,11.8,7.12,20.96,16.15,27.9,25.19,6.95,9.08,11.78,18.19,15.13,26.44,3.33,8.27,5.26,15.67,6.38,21.77,1.11,6.11,1.42,10.91,1.58,14.19.07,3.29.02,5.07-.06,5.25h-.01s.02,0,.02,0c0,0,0,0-.03,0h-.01c-.31-.34-.1-7.18-2.55-19.24-1.26-6.01-3.33-13.28-6.76-21.38-3.44-8.08-8.34-16.98-15.27-25.8-6.93-8.79-16-17.53-27.56-24.35-5.77-3.4-12.15-6.3-19.03-8.4-6.88-2.11-14.3-3.39-21.97-3.49-7.65-.17-15.58.87-23.39,3.19-7.81,2.32-15.5,5.8-22.86,10.25-14.7,8.92-28.21,21.6-38.7,37.21l-.69,1.02-1.18-.34h0s1.97-.86,1.97-.86l-.02.05-.04.09-.06.09c-2.3,3.48-4.41,7.13-6.27,10.95-.93,1.91-1.81,3.85-2.61,5.83l-.59,1.49-.29.75c-.01.07-.23.53-.25.56l-.19.36c-.51.97-1.02,1.94-1.53,2.91-4.09,7.78-8.32,15.65-12.71,23.58-4.39,7.93-8.94,15.93-13.74,23.94-4.81,8-9.83,16.03-15.49,23.83l-1.06,1.47-1.12,1.44c-.76.95-1.47,1.93-2.28,2.86-.81.93-1.61,1.87-2.43,2.79l-2.56,2.63c-.84.89-1.73,1.74-2.62,2.57-.89.84-1.77,1.7-2.68,2.52-1.82,1.63-3.64,3.28-5.5,4.86-3.69,3.22-7.42,6.36-10.88,9.74-.88.84-1.76,1.67-2.57,2.57-.82.88-1.68,1.74-2.47,2.65l-2.31,2.78c-.79.92-1.42,1.95-2.14,2.91l-1.05,1.47c-.33.5-.62,1.03-.93,1.55-.6,1.04-1.25,2.07-1.83,3.13-1,2.2-2.2,4.33-2.95,6.66-.42,1.15-.87,2.28-1.26,3.44l-.98,3.55c-.74,2.34-1.07,4.81-1.57,7.24-.11.61-.25,1.21-.34,1.83l-.22,1.86-.44,3.72c-.07.62-.16,1.24-.2,1.86l-.09,1.84-.09,1.84.04,1.85c.11,4.93.9,9.86,2.29,14.65.53,1.97,1.26,3.87,1.95,5.78.8,1.87,1.57,3.75,2.51,5.56,1.82,3.63,3.88,7.14,6.24,10.44,2.34,3.31,4.85,6.5,7.58,9.47,2.71,3,5.57,5.85,8.59,8.51,12.03,10.67,25.89,18.99,40.45,24.48,3.65,1.34,7.34,2.53,11.06,3.49,3.77.95,7.54,1.83,11.32,2.61,7.55,1.58,15.1,2.84,22.59,3.88,15,2.04,29.81,3.07,44.25,3.03,14.43-.06,28.52-1.22,41.89-3.92,6.68-1.35,13.17-3.1,19.37-5.33,3.1-1.11,6.12-2.36,9.05-3.72,1.47-.67,2.88-1.44,4.32-2.15,1.39-.77,2.72-1.6,4.08-2.39,5.27-3.42,9.83-7.73,13.71-12.44,3.89-4.72,7.15-9.82,9.97-15.02,2.85-5.19,5.16-10.55,7.2-15.87,2.08-5.31,3.69-10.67,5.24-15.9,2.92-10.53,4.96-20.77,6.5-30.51,1.53-9.75,2.55-19.01,3.28-27.69,1.42-17.37,1.71-32.4,1.7-44.68-.02-12.28-.35-21.82-.57-28.28-.11-3.23-.2-5.7-.26-7.36-.04-1.66-.03-2.51.04-2.52Z"/>
            </g>
            <g>
              <path class="cls-1" d="M238.34,413.54c-15.3-2.27-15.74-17.41-9.62-28.72,2.34-8.43-.69-17.63,1.53-26.09,7.26-24.41,44.68-24.2,59.83-7.76,9.53,14.44.52,35.65-14.83,41.93-19.12,5.04-10.54,26.77-36.91,20.65Z"/>
              <path class="cls-4" d="M238.34,413.54c.03-.13.85-.09,2.36.1,1.51.11,3.76.42,6.57.21,2.78-.18,6.23-1.02,8.85-3.89,1.33-1.39,2.46-3.2,3.65-5.2,1.19-2,2.45-4.22,4.2-6.36,1.74-2.12,4.04-4.1,6.8-5.42.67-.37,1.4-.62,2.12-.92.36-.14.73-.24,1.1-.37l.56-.18.14-.04.06-.02c-.06.02-.03,0-.03,0l.16-.07c1.28-.55,2.52-1.24,3.73-2.02,4.84-3.15,9-8.16,11.43-14.21,1.23-3.02,1.97-6.31,2.11-9.68.14-3.36-.42-6.8-1.76-9.98-.33-.8-.73-1.56-1.15-2.32l-.64-1.05-.78-.78c-.6-.65-1.33-1.19-1.99-1.8-.73-.53-1.42-1.13-2.2-1.6-1.5-1.05-3.15-1.9-4.82-2.72-1.71-.75-3.45-1.48-5.28-2-7.27-2.21-14.98-2.52-21.93-.95-6.94,1.54-13.11,5.26-16.67,10.6-.92,1.31-1.62,2.73-2.26,4.16-.28.72-.52,1.45-.78,2.17-.16.74-.36,1.45-.46,2.22-.51,3.01-.44,6.11-.36,9.15.09,3.04.21,6.06-.02,9.01-.04.73-.16,1.47-.24,2.19-.14.72-.23,1.44-.41,2.14-.09.35-.18.7-.27,1.05-.03.11-.05.24-.11.38l-.19.38-.22.43c-.28.57-.6,1.12-.85,1.69-2.06,4.54-2.89,9.13-2.46,13.01.15,1.96.8,3.65,1.47,5.16.82,1.42,1.73,2.66,2.79,3.54,1,.95,2.11,1.52,3.04,2.08,1,.4,1.83.85,2.55,1.05,1.44.43,2.21.73,2.19.86-.02.13-.83.09-2.38-.11-.78-.09-1.7-.44-2.81-.76-1.05-.49-2.32-1-3.52-1.97-1.26-.89-2.4-2.21-3.44-3.8-.88-1.66-1.72-3.58-2-5.76-.69-4.33.04-9.37,2.1-14.37.24-.63.57-1.24.86-1.87l.22-.47c.04-.08.03-.05.05-.18.07-.31.14-.62.21-.93.14-.62.21-1.28.31-1.92.05-.66.15-1.32.16-2.01.14-2.72-.04-5.62-.2-8.69-.14-3.07-.31-6.35.21-9.79.1-.85.31-1.73.51-2.61.28-.84.56-1.7.87-2.54.69-1.65,1.49-3.3,2.52-4.83,2.04-3.07,4.77-5.82,8.03-7.85,3.24-2.05,6.88-3.57,10.71-4.43,3.83-.88,7.82-1.28,11.84-1.09,4.02.17,8.09.8,12.04,2.03,1.99.58,3.9,1.36,5.78,2.2,1.84.91,3.66,1.85,5.34,3.03.87.54,1.64,1.21,2.46,1.81.76.68,1.56,1.3,2.26,2.05l.53.54.27.27c.08.11.29.24.4.46l.84,1.38c.49.9.95,1.8,1.33,2.74,1.55,3.74,2.15,7.75,1.95,11.58-.2,3.83-1.09,7.51-2.5,10.85-2.8,6.69-7.48,12.13-12.98,15.55-1.38.84-2.8,1.58-4.25,2.17-.09.03-.17.08-.35.14l-.35.1-.49.14c-.33.1-.66.18-.98.29-.62.25-1.27.44-1.85.74-2.41,1.08-4.39,2.68-6.01,4.52-3.25,3.69-5.13,8.23-8.39,11.32-1.57,1.56-3.47,2.61-5.28,3.16-1.81.55-3.52.74-5.03.7-3.02-.02-5.26-.58-6.76-.94-1.49-.44-2.25-.73-2.22-.85Z"/>
            </g>
            <g>
              <path class="cls-2" d="M238.34,413.54c-15.3-2.27-15.74-17.41-9.62-28.72,2.34-8.43-1.12-6.28.73-14.83,3.9-17.95,29.78-15.57,49.53-3.11,14.63,9.23,11.61,19.73-3.73,26.01-19.12,5.04-10.54,26.77-36.91,20.65Z"/>
              <path class="cls-4" d="M238.34,413.54c.03-.13.71-.12,1.98.02,1.26.11,3.12.33,5.48.29.29,0,.6-.01.91-.02.31-.03.62-.06.94-.09.65-.03,1.3-.18,1.99-.29,1.36-.3,2.77-.79,4.1-1.63,1.33-.84,2.55-2.01,3.63-3.52,1.1-1.49,2.09-3.24,3.21-5.12,1.12-1.88,2.39-3.89,4.09-5.76,1.68-1.89,3.88-3.52,6.36-4.7.62-.31,1.27-.53,1.91-.8.59-.19,1.18-.38,1.78-.58,1.16-.51,2.33-1.04,3.46-1.67,2.26-1.23,4.47-2.74,6.14-4.66,1.69-1.9,2.68-4.24,2.27-6.59-.37-2.37-2.02-4.67-4.14-6.6-2.13-1.95-4.72-3.56-7.46-5.11-2.73-1.52-5.6-2.91-8.6-4.06-5.97-2.31-12.16-3.75-18.08-3.76-2.94.04-5.82.41-8.36,1.38-1.27.47-2.47,1.07-3.52,1.83-1.06.74-2,1.62-2.75,2.62-.41.47-.7,1.04-1.05,1.56-.26.57-.6,1.1-.79,1.7l-.33.87-.25.91c-.18.59-.29,1.24-.43,1.87-.22,1.25-.36,2.46-.3,3.57.04.56.12,1.09.25,1.73.12.63.28,1.36.31,2.12.1,1.51-.14,2.89-.43,4.15-.13.66-.32,1.22-.48,1.87-.04.11-.05.25-.12.37l-.17.34-.2.38-.39.76c-1,2.02-1.79,4.06-2.27,6.06-1.07,4-.99,7.82-.06,10.87.9,3.1,2.88,5.21,4.71,6.56.99.58,1.83,1.2,2.69,1.49.83.37,1.53.7,2.14.85,1.2.38,1.83.65,1.81.78-.02.13-.69.12-1.99-.03-.66-.03-1.44-.26-2.36-.54-.95-.21-1.94-.76-3.09-1.31-2.16-1.29-4.67-3.6-5.91-7.11-1.28-3.46-1.54-7.76-.55-12.18.44-2.23,1.22-4.48,2.24-6.73l.4-.84.2-.42c.06-.12.01-.03.03-.07,0-.01,0-.03.01-.06.11-.52.29-1.12.38-1.67.23-1.13.37-2.26.26-3.29-.03-.52-.16-1.05-.3-1.68-.15-.62-.3-1.39-.36-2.13-.13-1.52.02-2.98.24-4.4.47-2.78,1.37-5.9,3.35-8.45.94-1.3,2.13-2.45,3.46-3.41,1.31-.98,2.79-1.74,4.31-2.33,3.06-1.2,6.35-1.64,9.62-1.71,6.57-.04,13.16,1.5,19.49,3.94,3.17,1.22,6.2,2.69,9.07,4.31,2.85,1.62,5.68,3.38,8.14,5.67,1.23,1.14,2.36,2.42,3.29,3.87.93,1.46,1.64,3.13,1.91,4.92.3,1.79.02,3.65-.59,5.27-.61,1.64-1.59,3.02-2.65,4.2-2.15,2.36-4.69,3.98-7.2,5.29-1.26.66-2.53,1.21-3.8,1.72-.09.05-.28.1-.43.14l-.22.06-.44.13c-.29.09-.59.16-.87.26-.55.22-1.13.4-1.66.65-2.14.96-4.01,2.25-5.53,3.84-1.54,1.57-2.78,3.37-3.95,5.17-1.17,1.79-2.29,3.59-3.58,5.19-1.28,1.61-2.82,2.96-4.46,3.86-1.64.91-3.34,1.36-4.87,1.59-.77.07-1.51.17-2.21.15-.35,0-.69,0-1.02,0-.33-.02-.65-.05-.96-.07-2.49-.2-4.34-.66-5.58-1.02-1.23-.38-1.86-.65-1.83-.77Z"/>
            </g>
            <g>
              <path class="cls-1" d="M59.5,268.28c-4.65,1.12-9.68-1.39-12.45-5.29s-3.59-8.92-3.29-13.69c.31-4.94,1.68-10.1-.2-14.68-1.72-4.21-5.88-6.96-10.18-8.44-5.4-1.86-11.32-2.08-16.88-.82-6.28,1.43-12.6,5.38-14.2,11.61-1.39,5.41,1.07,10.96,2.82,16.26,2.13,6.44,3.27,13.2,3.36,19.98.07,5.05-.42,10.21.92,15.08,1.69,6.17,6.43,11.43,12.39,13.75,5.96,2.33,13.01,1.66,18.43-1.73,3.27-2.05,6.03-5.04,9.7-6.25,1.56-.51,3.22-.68,4.72-1.32,4.01-1.73,5.92-6.6,5.49-10.95-.42-4.35-2.68-8.28-5-11.98"/>
              <path class="cls-4" d="M55.13,269.84c.11-.07.65.53,1.53,1.77.86,1.25,2.14,3.13,3.25,5.89.53,1.39,1.01,2.99,1.17,4.86.14,1.86-.07,3.94-.91,6.01-.82,2.04-2.35,4.18-4.77,5.38-1.21.62-2.48.87-3.63,1.17-1.16.28-2.15.64-3.19,1.21-2.06,1.13-4,2.91-6.36,4.64-2.39,1.76-5.32,3.13-8.48,3.8-3.17.68-6.6.7-9.99-.12-3.39-.81-6.68-2.53-9.41-4.98-2.73-2.45-4.96-5.62-6.27-9.28-1.31-3.69-1.5-7.6-1.5-11.33.03-3.76.1-7.36-.31-11.05-.37-3.68-1.06-7.39-2.08-11.05-.97-3.64-2.53-7.18-3.5-11.12-.46-1.97-.79-4.04-.66-6.17.09-2.12.7-4.26,1.71-6.12,2.04-3.76,5.43-6.24,8.86-7.85,1.73-.81,3.52-1.41,5.34-1.83,1.79-.41,3.59-.65,5.38-.77,3.57-.23,7.09.16,10.37,1.03,3.26.88,6.39,2.29,8.94,4.39,2.57,2.05,4.48,5.07,5.01,8.15.58,3.07.22,5.91-.09,8.46-.34,2.57-.66,4.9-.62,7.11.02,2.21.33,4.28.89,6.12.55,1.84,1.37,3.46,2.33,4.78.96,1.32,2.1,2.33,3.22,3.1,2.26,1.52,4.41,2.02,5.86,2.12,1.46.11,2.25-.03,2.28.13.03.1-.71.5-2.28.64-1.55.15-3.99-.13-6.64-1.62-1.3-.76-2.67-1.8-3.86-3.24-1.19-1.43-2.21-3.2-2.92-5.23-.72-2.03-1.16-4.3-1.29-6.71-.15-2.42.12-4.96.37-7.48.23-2.52.44-5.13-.11-7.57-.51-2.44-1.95-4.61-4.12-6.29-2.15-1.69-4.86-2.87-7.8-3.61-2.94-.73-6.09-1.02-9.29-.77-3.2.25-6.45.95-9.39,2.38-2.93,1.41-5.65,3.52-7.12,6.33-1.54,2.77-1.53,6.16-.66,9.62.85,3.47,2.42,7.07,3.48,10.99,1.09,3.88,1.81,7.8,2.18,11.71.19,1.95.3,3.9.32,5.83.02,1.93-.03,3.8-.05,5.62-.04,3.62.15,7.08,1.2,10.12,1.05,3.05,2.9,5.77,5.19,7.87,2.29,2.12,5.02,3.6,7.86,4.34,2.85.74,5.81.8,8.55.27,2.76-.52,5.24-1.61,7.41-3.1,2.2-1.51,4.3-3.35,6.8-4.62,1.23-.63,2.64-1.08,3.86-1.32,1.22-.26,2.31-.46,3.18-.87,1.79-.79,3.09-2.36,3.85-4.03.78-1.68,1.08-3.46,1.05-5.08-.03-1.63-.36-3.14-.75-4.46-.82-2.65-1.86-4.63-2.51-5.98-.66-1.35-.99-2.09-.87-2.16Z"/>
            </g>
            <path class="cls-4" d="M94.84,271.89c.13.49-1.63,1.5-4.7,2.48-3.07.98-7.46,1.86-12.38,2.12-4.92.24-9.38-.19-12.53-.86-3.16-.66-5.01-1.49-4.93-1.99.2-1.08,7.89-.45,17.26-.96,9.38-.44,16.97-1.84,17.27-.79Z"/>
            <g>
              <polygon class="cls-3" points="47.04 262.99 49.92 294.09 66.03 295.27 66.17 253.74 47.04 262.99"/>
              <path class="cls-4" d="M47.04,262.99c-.13-.27,1.61-1.44,4.83-3.28,1.61-.92,3.58-2.01,5.88-3.24,1.15-.61,2.37-1.26,3.67-1.95.32-.17.65-.34.99-.52.49-.25.98-.5,1.47-.75,1.24-.62,2.51-1.26,3.81-1.92.07,5.39.15,11.47.23,18.04.05,5.7.07,11.82.04,18.2-.02,3.3-.03,6.54-.05,9.72-3.54-.28-6.99-.55-10.33-.82-3.19-.27-6.27-.53-9.24-.78-.13-1.64-.26-3.26-.39-4.83-.08-1.11-.16-2.19-.23-3.24-.14-2.11-.27-4.12-.4-6.02-.23-3.79-.41-7.11-.51-9.86-.21-5.5-.15-8.71.22-8.74.38-.03,1.02,3.11,1.82,8.55.4,2.72.84,6.02,1.31,9.79.4,3.34.84,7.09,1.32,11.14h.1s.04-.01.04-.01c.03,0-.03,0,.06,0h.24c.64.05,1.28.09,1.93.13,1.3.08,2.63.16,3.97.24,1.35.09,2.71.17,4.1.26.69.05,1.39.09,2.1.14.13,0,.08,0,.09,0h0s0,0,0,0h0s0-.02,0-.02c0-.59,0-1.18,0-1.77,0-1.28,0-2.58,0-3.89.02-6.38.08-12.5.17-18.2.05-2.85.11-5.59.15-8.2.03-1.31.06-2.58.09-3.82v-.46c.01-.1.02-.12.02-.12v-.04s.03-.17.03-.17c.02-.14.03-.27.05-.41-.16.05-.31.1-.46.15l-.13.05-.45.2c-.34.15-.68.3-1.02.45-1.34.59-2.61,1.14-3.8,1.67-2.39,1.03-4.47,1.91-6.19,2.6-3.44,1.38-5.44,2.02-5.57,1.75Z"/>
            </g>
            <g>
              <path class="cls-2" d="M21.77,302.06c.04-.22.08-.44.11-.66.64-4.7.33-9.53-.92-14.1-1.73-6.35-5.21-12.17-6.4-18.64-.74-4.06-.55-8.22-.41-12.35.15-4.12.24-8.3-.69-12.32-.93-4.02-2.99-7.93-6.39-10.27-.78-.54-1.64-.96-2.54-1.29-1.03,1.35-1.81,2.86-2.24,4.54-1.39,5.41,1.07,10.96,2.82,16.26,2.13,6.44,3.27,13.2,3.36,19.98.07,5.05-.42,10.21.92,15.08,1.69,6.17,6.42,11.42,12.38,13.75Z"/>
              <path class="cls-4" d="M21.77,302.06c-.04.11-.59.05-1.57-.28-.98-.32-2.38-.97-4.02-2.09-1.61-1.14-3.47-2.78-5.11-5.12-1.64-2.31-3.05-5.42-3.61-8.97-.61-3.55-.5-7.41-.56-11.36-.07-3.93-.48-8.11-1.37-12.43-.44-2.16-1-4.34-1.69-6.54-.67-2.18-1.55-4.42-2.33-6.84-.77-2.4-1.47-5.02-1.52-7.88-.03-1.42.14-2.89.53-4.33.2-.72.46-1.43.77-2.11.16-.34.33-.67.51-1l.15-.27.26-.41c.17-.28.36-.54.54-.8l1.1-1.48,1.75.66c.29.11.58.25.87.38.28.14.61.31.73.38.67.37,1.28.82,1.84,1.27,1.13.93,2.12,1.99,2.93,3.14,1.63,2.3,2.65,4.85,3.25,7.41,1.17,5.14.79,10.03.61,14.45-.22,4.44-.26,8.52.62,12.17.84,3.69,2.27,7.07,3.45,10.25,1.19,3.18,2.15,6.2,2.59,8.93.46,2.72.53,5.1.44,7.03-.21,3.86-.93,5.88-1.16,5.84-.28-.04-.06-2.13-.31-5.82-.14-1.84-.41-4.09-1.04-6.61-.6-2.53-1.67-5.29-3-8.36-1.31-3.08-2.94-6.47-4.01-10.5-1.12-4.07-1.18-8.57-1.06-13.04.1-4.47.33-9.08-.74-13.46-.53-2.16-1.41-4.28-2.71-6.07-.64-.9-1.4-1.7-2.24-2.39-.43-.34-.86-.66-1.31-.9-.17-.09-.13-.07-.13-.07h0s0,0,0,0h0s-.09.16-.09.16c-.14.24-.26.49-.38.74-.23.5-.42,1.01-.57,1.53-.28,1.05-.42,2.14-.4,3.26.02,2.24.58,4.53,1.29,6.8.7,2.27,1.56,4.55,2.25,6.9.69,2.33,1.24,4.65,1.65,6.93.84,4.56,1.15,8.98,1.08,13.09-.08,4.08-.32,7.74.07,10.98.35,3.23,1.4,5.97,2.73,8.19,1.32,2.22,2.87,3.88,4.24,5.12,2.79,2.44,4.8,3.23,4.67,3.53Z"/>
            </g>
            <g>
              <path class="cls-3" d="M279.24,289.86c-116.84,25.24-153.71-39.12-153.71-39.12l7.16-10.16s34.93,60.97,145.62,37.06l.92,12.22Z"/>
              <path class="cls-4" d="M279.24,289.86c-.13,0-.34-1.17-.64-3.43-.13-1.13-.3-2.53-.5-4.18-.09-.8-.18-1.66-.28-2.59-.04-.3-.07-.61-.11-.94l-.03-.23s-.16.03-.23.04c-.16.04-.33.08-.5.12-.4.09-.82.19-1.25.29-.56.12-1.13.25-1.72.38-1.18.26-2.41.53-3.7.81-.65.14-1.3.28-1.98.43-.68.12-1.37.24-2.07.37-1.41.25-2.88.5-4.4.77-6.08,1.06-13.07,1.9-20.84,2.5-7.78.46-16.34.65-25.52-.01-9.17-.66-18.96-2.2-28.96-5.08-9.99-2.85-20.21-7.09-29.83-13.21-4.81-3.05-9.46-6.55-13.82-10.54-2.15-2.02-4.26-4.13-6.24-6.39-.98-1.14-1.95-2.3-2.87-3.51l-.69-.92-.34-.46-.08-.11h0s0,0,0,0l-.99,1.41c-.88,1.24-1.75,2.48-2.62,3.71l-1.22,1.72h0s.2.31.2.31l.31.44.62.88c.44.58.85,1.17,1.31,1.73.89,1.14,1.82,2.25,2.78,3.33,3.83,4.32,8.07,8.19,12.53,11.62,4.45,3.43,9.12,6.43,13.86,9.06,4.77,2.58,9.62,4.77,14.45,6.66,9.71,3.69,19.37,6.02,28.52,7.45,1.15.18,2.28.36,3.41.53,1.13.15,2.25.25,3.37.38,2.23.23,4.4.54,6.56.63,2.15.13,4.26.29,6.32.4,2.07.04,4.09.09,6.07.13,1.98.08,3.91,0,5.79-.03,1.88-.05,3.72-.06,5.5-.13,3.56-.24,6.92-.38,10.06-.65,3.13-.31,6.05-.6,8.74-.86,2.68-.36,5.12-.69,7.32-.98,1.1-.15,2.14-.28,3.12-.41.97-.16,1.88-.31,2.72-.45,1.69-.26,3.12-.48,4.28-.66,2.32-.33,3.56-.44,3.58-.31.03.13-1.15.49-3.43,1.07-1.15.28-2.56.62-4.23,1.02-.84.19-1.74.4-2.7.62-.97.2-2.01.38-3.1.58-2.2.4-4.64.84-7.32,1.32-2.7.36-5.63.76-8.77,1.18-3.15.38-6.55.62-10.14.95-1.8.12-3.65.17-5.56.27-1.9.08-3.86.2-5.86.17-2,0-4.06,0-6.16,0-2.1-.07-4.24-.19-6.43-.28-2.19-.06-4.41-.33-6.68-.53-1.13-.11-2.28-.2-3.43-.34-1.15-.16-2.31-.33-3.48-.49-9.36-1.33-19.28-3.59-29.3-7.29-4.99-1.9-10-4.12-14.95-6.75-4.92-2.68-9.76-5.75-14.4-9.29-4.64-3.53-9.07-7.54-13.09-12.06-1-1.13-1.99-2.3-2.93-3.5-.48-.59-.93-1.22-1.4-1.84l-.67-.95-.33-.48-.42-.63c-.41-.63-.77-1.26-1.16-1.9.37-.62.8-1.23,1.24-1.84l1.39-1.97c.87-1.23,1.74-2.47,2.62-3.71,1.43-2.03,2.86-4.06,4.29-6.08l1.21,2.02c.4.68.81,1.34,1.23,1.95l.56.8.31.43.64.86c.87,1.14,1.78,2.24,2.71,3.32,1.88,2.15,3.89,4.17,5.94,6.12,4.16,3.83,8.63,7.22,13.25,10.19,9.25,5.94,19.11,10.13,28.81,13,9.7,2.9,19.25,4.52,28.24,5.3,9,.79,17.43.76,25.11.47,7.68-.42,14.62-1.06,20.68-1.92,1.52-.21,2.98-.42,4.39-.61.7-.1,1.4-.19,2.07-.29.67-.12,1.33-.23,1.98-.35,2.72-.47,5.21-.91,7.45-1.3.36-.06.72-.13,1.07-.19l.26-.05.13-.02s.1-.04.09.03l.03.54c.04.69.07,1.37.11,2.02.04.99.08,1.91.12,2.77.05,1.66.1,3.07.14,4.21.05,2.28.01,3.47-.12,3.48Z"/>
            </g>
            <path class="cls-4" d="M278.31,277.64c.1.08-.96,1.52-3.02,4.12-1.04,1.3-2.31,2.89-3.81,4.75-1.64,2-3.52,4.3-5.61,6.86-3.74-2.92-8.11-6.33-13-10.14-2.37,4.15-4.94,8.62-7.66,13.39-4.29-3.73-8.85-7.69-13.64-11.85-3.81,4.08-7.77,8.33-11.86,12.72-2.72-4.35-5.51-8.83-8.36-13.4-4.63,3.6-9.36,7.28-14.18,11.02-.5-1.12-1-2.24-1.51-3.36-1.71-3.83-3.4-7.61-5.07-11.32-4.95,3.1-9.79,6.14-14.5,9.1-2.31-5.87-4.55-11.57-6.71-17.04-6.59,1.52-12.86,2.97-18.76,4.33-1.13-6.56-2.18-12.66-3.13-18.22-5.27,1.31-10.03,2.5-14.22,3.55-.09-1.93-.17-3.77-.25-5.49-.06-1.46-.11-2.83-.16-4.1-.08-2.55-.15-4.73-.21-6.5-.09-3.54-.08-5.45.05-5.46s.37,1.89.69,5.42c.15,1.77.34,3.94.55,6.48.18,2.3.39,4.93.62,7.86.25-.07.51-.15.77-.23.54-.15,1.09-.3,1.65-.46,1.12-.31,2.27-.63,3.46-.96,2.67-.73,5.49-1.5,8.45-2.31,1.04,5.46,2.17,11.45,3.39,17.89,5.82-1.41,12.01-2.91,18.5-4.49,2.08,5.18,4.25,10.56,6.48,16.12,4.69-2.97,9.5-6.01,14.42-9.13,2.06,4.58,4.14,9.23,6.26,13.95l.2.44h0c4.71-3.65,9.33-7.23,13.85-10.73,2.76,4.48,5.47,8.86,8.1,13.12,3.9-4.12,7.68-8.11,11.32-11.94,4.66,4.15,9.1,8.1,13.27,11.82,2.73-4.59,5.3-8.9,7.68-12.89,2.74,2.24,5.33,4.36,7.76,6.35,1.09.9,2.14,1.76,3.15,2.6.96.79,2.21,1.82,2.4,2,1.86-2.11,3.54-4,4.99-5.65,1.59-1.78,2.95-3.3,4.06-4.54,2.23-2.45,3.47-3.73,3.57-3.65Z"/>
            <g>
              <polygon class="cls-3" points="132.69 240.58 104 251.07 111.83 264.68 138.75 247.84 132.69 240.58"/>
              <path class="cls-4" d="M132.69,240.58c.17-.14.9.4,2.1,1.52.6.56,1.31,1.26,2.12,2.1.41.43.86.89,1.33,1.38.72.8,1.48,1.65,2.29,2.55-1.9,1.29-4.03,2.73-6.36,4.31-1.94,1.29-4.04,2.69-6.28,4.19-2.26,1.47-4.66,3.03-7.17,4.66-1.26.81-2.55,1.63-3.86,2.47-1.86,1.17-3.76,2.37-5.69,3.58-.74-1.29-1.49-2.59-2.24-3.89-2.64-4.65-5.18-9.13-7.57-13.34,1.73-.62,3.44-1.22,5.11-1.81,1.01-.35,2-.69,2.97-1.02,1.94-.65,3.79-1.27,5.54-1.86,3.51-1.16,6.62-2.15,9.22-2.93,5.2-1.56,8.35-2.3,8.5-1.9.15.4-2.73,1.87-7.72,4.03-2.49,1.08-5.51,2.33-8.94,3.71-1.72.68-3.54,1.4-5.44,2.15-.95.37-1.93.75-2.92,1.13l-.75.29-.18.07h-.01s-.02.02-.02.02l-.06.05.06.06h.01s0,.02,0,.02c0,0,0,0,0,0l.05.09.41.69c.54.92,1.09,1.86,1.65,2.81,1.1,1.91,2.23,3.86,3.39,5.84l.27.47h0s0,0,0,0c2.16-1.32,4.26-2.61,6.27-3.84,2.56-1.54,5.02-3.02,7.33-4.41,2.33-1.36,4.51-2.64,6.52-3.82,1.01-.58,1.98-1.13,2.89-1.65.23-.13.46-.26.68-.38l.26-.12c.18-.08.36-.16.53-.24-.14-.24-.28-.47-.41-.69-.38-.53-.73-1.02-1.07-1.49-.68-.95-1.24-1.78-1.68-2.47-.89-1.37-1.29-2.19-1.12-2.33Z"/>
            </g>
          </g>
          <ellipse class="cls-6" cx="310.22" cy="106.48" rx="9.89" ry="15.39" transform="translate(170.01 402.99) rotate(-83.63)"/>
          <path class="cls-6" d="M197.76,88.61c3.53-3.99,11.1-4.65,16.91-1.46,5.81,3.18,7.65,9,4.12,12.99-3.53,3.99-11.1,4.65-16.91,1.46s-7.65-9-4.12-12.99Z"/>
          <ellipse class="cls-1" cx="253.3" cy="103.4" rx="5.13" ry="8.54" transform="translate(105.77 333.82) rotate(-79.58)"/>
          <path class="cls-4" d="M231.26,72.33c-.25-.08-.39-.39-.41-.94-.01-.27,0-.61.12-.96.11-.35.21-.79.46-1.19.23-.41.49-.88.88-1.28.35-.45.8-.84,1.31-1.23,1.02-.74,2.31-1.39,3.79-1.64,1.48-.25,2.98-.1,4.24.38,1.27.49,2.23,1.33,2.81,2.13.56.82.82,1.57.82,2.12.03.55-.09.87-.33.97-.52.23-1.27-.54-2.38-1.16-.57-.3-1.2-.57-1.96-.7-.76-.12-1.62-.13-2.55.02-1.87.33-3.44,1.24-4.51,2.06-1.07.82-1.75,1.59-2.29,1.42Z"/>
          <path class="cls-4" d="M141.84,91.43c.42.27.23,1.57-.46,3.61-.65,2.05-1.59,4.96-2.26,8.51-.67,3.55-.8,7.79.37,12.19.15.55.3,1.1.45,1.66.18.55.42,1.1.63,1.66.36,1.13,1.01,2.21,1.52,3.35,1.25,2.19,2.66,4.42,4.45,6.52,1.77,2.11,3.63,4.09,5.61,5.87,1.94,1.81,3.95,3.44,5.91,4.96,3.94,3.01,7.72,5.52,10.94,7.58,6.47,4.1,10.65,6.53,10.3,7.49-.33.94-5.31.19-12.7-2.9-3.69-1.55-7.97-3.72-12.46-6.67-2.23-1.49-4.53-3.15-6.76-5.1-2.26-1.9-4.44-4.12-6.5-6.58-2.07-2.45-3.76-5.17-5.18-7.91-.61-1.43-1.31-2.79-1.72-4.25-.22-.72-.47-1.42-.66-2.13-.15-.72-.29-1.44-.44-2.15-1.07-5.7-.24-11.01,1.23-14.94,1.48-3.96,3.29-6.78,4.76-8.53,1.51-1.73,2.53-2.52,2.96-2.24Z"/>
          <g>
            <path class="cls-3" d="M166.44,78.7c25.47-22.89-36.1-50.03-38.89,4.5.61,9.16-6.43,11.87-3.25,15.44,5.16,7.03,14.42,9.4,22.93,11.29,6.66,1.98,7.46-2.32,8.26-7.73,2.02-5.43,7.48-18.85,10.94-23.49"/>
            <path class="cls-4" d="M166.44,78.7c.15.11-.33.98-1.12,2.65-.79,1.67-1.9,4.15-3.22,7.36-1.31,3.21-2.86,7.13-4.5,11.66-.2.57-.41,1.14-.62,1.73l-.14.4c-.02.07,0,.02-.03.23-.04.32-.09.64-.13.97-.19,1.31-.4,2.69-.94,4.18-.28.74-.65,1.52-1.29,2.24-.6.72-1.51,1.33-2.46,1.58-1.92.56-3.64.18-5.21-.23l.11.03c-3.89-.82-8.08-1.72-12.33-3.38-2.12-.83-4.26-1.86-6.28-3.23-2.02-1.36-3.93-3.08-5.47-5.16l.11.14c-.17-.22-.34-.44-.5-.67-.08-.12-.16-.22-.24-.35l-.19-.44c-.28-.56-.37-1.26-.37-1.89.06-1.32.53-2.15.9-2.95.79-1.5,1.54-2.7,2.08-3.99.55-1.28.89-2.6,1.02-3.97.09-.68.06-1.39.04-2.09v-.24c0-.1,0-.21,0-.25l.02-.31.04-.61.09-1.23c.51-5.98,1.79-11.88,4.44-17.1,1.34-2.59,2.98-5.01,4.99-7.05.99-1.03,2.09-1.93,3.22-2.77,1.15-.8,2.35-1.51,3.59-2.09,4.99-2.34,10.41-2.63,15.08-1.66,4.7.97,8.76,3.16,11.71,6.02,2.96,2.84,4.68,6.52,4.79,9.86.13,3.35-1.07,6.06-2.29,7.9-1.24,1.87-2.5,3.04-3.38,3.78-.9.72-1.43,1.02-1.51.92-.09-.1.26-.59.96-1.46.67-.89,1.7-2.17,2.65-3.99.94-1.8,1.74-4.23,1.45-6.99-.27-2.75-1.83-5.7-4.5-8.05-2.65-2.35-6.32-4.17-10.47-4.89-4.13-.73-8.79-.34-12.97,1.72-4.2,2.02-7.69,5.78-9.98,10.42-2.31,4.65-3.5,10.1-3.97,15.74-.05.71-.1,1.42-.14,2.13.02.89.05,1.77-.06,2.66-.17,1.77-.63,3.52-1.32,5.1-.67,1.58-1.58,3-2.22,4.21-.29.57-.53,1.14-.5,1.36,0,.21.08.38.34.74l.11.14c2.5,3.45,6.22,5.74,10.07,7.32,3.87,1.59,7.88,2.57,11.71,3.49l.08.02h.03c1.27.41,2.57.62,3.42.36.45-.1.77-.31,1.08-.64.32-.31.57-.78.79-1.3.44-1.06.7-2.31.93-3.54.06-.31.11-.62.17-.93.03-.1.05-.48.16-.69l.19-.48c.24-.58.47-1.16.71-1.73,1.88-4.51,3.67-8.36,5.26-11.49,1.59-3.13,2.98-5.52,4.07-7.07,1.09-1.56,1.85-2.26,1.97-2.16Z"/>
          </g>
        </g>
        <g>
          <path class="cls-3" d="M158.6,94.38s25.22-.53,25.54-12.66c.33-12.13-19.51-7.47-26.61-7.69"/>
          <path class="cls-4" d="M157.53,74.03c.01-.27.87-.47,2.4-.8,1.54-.31,3.77-.73,6.6-1.09,2.83-.32,6.26-.69,10.25-.12,1.97.32,4.2.89,6.23,2.5.99.81,1.84,1.94,2.34,3.2.5,1.25.71,2.58.68,3.84-.04,1.29-.25,2.63-.79,3.81-.52,1.18-1.22,2.25-2.06,3.1-1.64,1.74-3.56,2.81-5.37,3.65-3.66,1.61-7.09,2.22-9.95,2.6-5.73.66-9.28.17-9.29-.33-.02-.54,3.44-1.02,8.8-2.32,2.66-.68,5.83-1.56,8.92-3.11,1.52-.79,3.02-1.76,4.13-3.01,1.12-1.25,1.76-2.72,1.78-4.42.01-1.79-.51-3.18-1.62-4.15-1.14-.97-2.78-1.56-4.44-1.9-3.36-.67-6.7-.63-9.46-.65-2.78,0-5.09.02-6.69-.12-1.61-.13-2.5-.43-2.48-.68Z"/>
        </g>
        <path class="cls-4" d="M383.74,117.87c.47-.18,1.3.8,2.42,2.81,1.07,2.02,2.25,5.16,2.87,9.34.62,4.15.32,9.51-1.93,14.87-.29.66-.58,1.33-.88,2.01-.33.66-.72,1.29-1.09,1.95-.7,1.35-1.67,2.52-2.57,3.8-1.97,2.38-4.19,4.69-6.72,6.65-2.52,1.97-5.12,3.69-7.73,5.07-2.59,1.44-5.19,2.58-7.68,3.57-5,1.94-9.64,3.16-13.58,3.91-7.88,1.47-12.9,1.17-13.03.17-.14-1.01,4.46-2.51,11.65-5.17,3.58-1.34,7.8-3,12.29-5.12,2.23-1.08,4.54-2.25,6.82-3.61,2.31-1.32,4.54-2.87,6.71-4.56,2.19-1.68,4.03-3.57,5.71-5.45.74-1,1.59-1.92,2.19-2.95.32-.5.66-.99.96-1.49.27-.52.53-1.03.79-1.53,2.07-4.06,2.83-8.23,2.91-11.84.08-3.61-.23-6.65-.43-8.79-.24-2.14-.16-3.45.31-3.63Z"/>
        <g>
          <path class="cls-3" d="M362.35,100.26c-20.1-27.72,45.78-41.35,37.08,12.55-2.52,8.83,3.8,12.96-.06,15.77-6.52,5.79-16.07,6.17-24.79,6.23-6.93.54-6.8-3.83-6.46-9.29-.83-5.73-3.36-20-5.77-25.26"/>
          <path class="cls-4" d="M362.35,100.26c.14-.07.74.77,1.47,2.52.74,1.75,1.6,4.38,2.5,7.76.89,3.39,1.84,7.54,2.73,12.34.11.6.22,1.21.33,1.84l.09.51c.07.24,0,.61.02.71-.01.31-.02.63-.03.94-.03,1.25-.04,2.53.17,3.66.11.56.26,1.07.5,1.44.23.39.5.66.92.85.78.43,2.09.49,3.42.37h.03s.08,0,.08,0c3.94-.09,8.07-.21,12.19-.96,4.1-.74,8.21-2.2,11.38-5.05l.14-.11c.33-.3.45-.46.49-.66.07-.21-.04-.82-.21-1.44-.37-1.31-.96-2.89-1.28-4.58-.34-1.69-.43-3.5-.23-5.26.08-.89.29-1.75.5-2.61.1-.7.2-1.41.31-2.11.71-5.61.69-11.19-.59-16.22-1.27-5.02-3.88-9.42-7.57-12.27-3.65-2.89-8.13-4.25-12.32-4.4-4.21-.17-8.17.84-11.26,2.58-3.1,1.74-5.24,4.3-6.09,6.93-.87,2.64-.59,5.18-.05,7.14.54,1.98,1.28,3.45,1.75,4.46.51.99.75,1.55.64,1.63-.1.07-.55-.33-1.29-1.22-.7-.91-1.69-2.32-2.51-4.41-.81-2.05-1.41-4.95-.58-8.2.8-3.25,3.26-6.48,6.75-8.64,3.48-2.17,7.92-3.47,12.72-3.43,4.77.03,10.01,1.45,14.4,4.78,1.09.83,2.11,1.78,3.07,2.8.93,1.05,1.81,2.16,2.57,3.38,1.54,2.41,2.64,5.12,3.4,7.93,1.49,5.66,1.51,11.7.76,17.65l-.17,1.22-.09.61-.04.3s-.02.15-.05.25l-.05.24c-.16.69-.33,1.37-.39,2.06-.16,1.37-.11,2.73.16,4.1.26,1.38.74,2.71,1.2,4.34.19.85.48,1.77.26,3.07-.13.62-.37,1.28-.76,1.77l-.28.39c-.1.11-.2.2-.3.3-.21.19-.42.37-.63.55l.14-.11c-1.94,1.71-4.17,2.99-6.43,3.9-2.27.91-4.57,1.47-6.82,1.84-4.5.72-8.78.74-12.76.72h.11c-1.62.07-3.39.08-5.15-.88-.87-.44-1.63-1.23-2.07-2.06-.48-.83-.67-1.68-.79-2.46-.22-1.57-.13-2.96-.05-4.28.03-.33.05-.65.07-.97.01-.22.02-.16.02-.23l-.05-.42c-.08-.62-.16-1.22-.24-1.82-.66-4.78-1.35-8.94-1.96-12.35-.62-3.41-1.18-6.07-1.6-7.87-.42-1.8-.7-2.75-.54-2.83Z"/>
        </g>
        <g>
          <path class="cls-3" d="M369.77,124.16s-24.54-5.81-22.32-17.73c2.22-11.93,20.64-3.21,27.63-1.95"/>
          <path class="cls-4" d="M375.08,104.48c-.04.25-.97.36-2.57.15-1.6-.2-3.84-.69-6.57-1.28-2.71-.56-5.96-1.31-9.39-1.35-1.69-.02-3.43.22-4.74.93-1.29.71-2.09,1.96-2.46,3.71-.34,1.66-.02,3.24.81,4.69.82,1.45,2.1,2.72,3.41,3.81,2.69,2.17,5.61,3.7,8.07,4.91,4.97,2.39,8.26,3.58,8.12,4.11-.11.49-3.69.23-9.15-1.62-2.71-.96-5.94-2.29-9.18-4.62-1.59-1.2-3.24-2.65-4.48-4.69-.64-1-1.09-2.2-1.36-3.46-.28-1.27-.2-2.62.03-3.89.24-1.23.72-2.49,1.47-3.61.75-1.12,1.82-2.05,2.96-2.63,2.32-1.15,4.62-1.25,6.61-1.14,4.03.28,7.3,1.36,10,2.27,2.69.94,4.79,1.82,6.23,2.45,1.43.64,2.22,1.02,2.18,1.28Z"/>
        </g>
      </g>
      <ellipse class="cls-5" cx="236.44" cy="87.02" rx="10.67" ry="5.86" transform="translate(49.98 256.45) rotate(-62.47)"/>
      <path class="cls-4" d="M289.73,76.09c-.54.01-.96-.92-1.76-2.02-.79-1.1-2.06-2.43-3.78-3.27-.86-.41-1.7-.63-2.48-.72-.77-.08-1.47.01-2.1.15-1.24.31-2.16.85-2.58.5-.2-.16-.21-.49-.03-1,.16-.52.62-1.15,1.38-1.78.78-.6,1.92-1.13,3.26-1.25,1.33-.1,2.8.16,4.14.81,1.34.64,2.39,1.61,3.17,2.6.38.51.7,1.01.91,1.53.26.49.38,1.01.49,1.46.13.45.11.9.12,1.26.02.37-.06.69-.14.95-.16.52-.37.77-.63.78Z"/>
      <ellipse class="cls-5" cx="280.92" cy="89.04" rx="5.86" ry="10.67" transform="translate(-12.11 57.75) rotate(-11.49)"/>
      <g>
        <path class="cls-1" d="M276.11,112.94c.44,10.81-9.91,20.01-20.73,20.45-10.81.44-17.99-8.05-18.43-18.86"/>
        <path class="cls-4" d="M236.95,114.53c.27-.01.53.84.93,2.31.41,1.47,1.06,3.56,2.3,5.87,1.21,2.3,3.17,4.77,5.97,6.54,1.38.91,3.02,1.53,4.76,1.92,1.74.39,3.64.51,5.57.28,3.86-.4,7.42-1.92,10.21-3.88,2.84-1.93,4.89-4.33,6.23-6.55,1.34-2.23,2.02-4.28,2.38-5.74.34-1.46.53-2.33.81-2.34.23-.01.53.85.61,2.49.06,1.63-.28,4.06-1.5,6.79-1.22,2.71-3.37,5.68-6.52,8.07-1.55,1.23-3.36,2.28-5.35,3.13-1.98.88-4.19,1.42-6.48,1.68-4.6.56-9.25-.67-12.57-3.03-3.35-2.36-5.4-5.51-6.45-8.26-1.08-2.77-1.37-5.15-1.36-6.76.02-1.62.24-2.5.48-2.51Z"/>
      </g>
      <g>
        <path class="cls-7" d="M233.45,111.86c2.49,4.09,10.19,7.25,19.97,6.85,11.52-.47,19.29-2.63,24.38-8.66"/>
        <path class="cls-4" d="M277.8,110.06c.18.15-.06.85-.81,1.9-.74,1.06-2.07,2.43-4.01,3.73-1.94,1.31-4.52,2.43-7.45,3.24-2.93.8-6.21,1.25-9.63,1.49-3.37.25-6.82.16-9.8-.39-3-.55-5.65-1.46-7.7-2.61-2.06-1.13-3.51-2.45-4.27-3.56-.76-1.12-.87-1.89-.67-2,.24-.14.75.33,1.69,1,.95.67,2.4,1.49,4.34,2.21,1.93.73,4.36,1.3,7.1,1.62,1.38.14,2.82.26,4.34.25.75.02,1.52-.03,2.3-.04.8-.04,1.61-.09,2.43-.14,3.28-.22,6.36-.55,9.09-1.11,2.72-.56,5.08-1.32,6.96-2.21,3.76-1.76,5.66-3.76,6.1-3.38Z"/>
      </g>
    </g>
  </g>
</svg>