<?xml version="1.0" encoding="UTF-8"?>
<svg id="_レイヤー_2" data-name="レイヤー 2" xmlns="http://www.w3.org/2000/svg" xmlns:xlink="http://www.w3.org/1999/xlink" viewBox="0 0 185.92 143.76">
  <defs>
    <style>
      .cls-1 {
        fill: #fcf492;
      }

      .cls-2 {
        fill: #3a302e;
      }

      .cls-3 {
        clip-path: url(#clippath-1);
      }

      .cls-4 {
        fill: #231815;
      }

      .cls-5 {
        fill: #fff;
      }

      .cls-6 {
        fill: #6b0017;
      }

      .cls-7 {
        clip-path: url(#clippath);
      }
    </style>
    <clipPath id="clippath">
      <path class="cls-5" d="M38.7,72.75c-1.15,10.91,8.39,20.86,21.31,22.23,12.92,1.37,24.34-6.37,25.49-17.28l-46.8-4.95Z"/>
    </clipPath>
    <clipPath id="clippath-1">
      <path class="cls-5" d="M147.36,72.75c1.15,10.91-8.39,20.86-21.31,22.23-12.92,1.37-24.34-6.37-25.49-17.28l46.8-4.95Z"/>
    </clipPath>
  </defs>
  <g id="_レイヤー_7" data-name="レイヤー 7">
    <g>
      <g>
        <g>
          <g>
            <path class="cls-1" d="M161.84,17.8c-5.69-3.84-6.92,3.54-6.92,3.54,6,9.35,9.75,16.01,9.75,19.68,0,7.07-19.77,9.69-19.77,9.69l4.68,19.22s36.29-14.13,35.01-25.61c-.66-5.88-11.91-17.02-22.75-26.52Z"/>
            <path class="cls-2" d="M161.84,17.8c.14-.16,1.92,1.11,4.96,3.62,3.02,2.54,7.36,6.26,12.17,11.52,1.2,1.32,2.41,2.75,3.58,4.35,1.16,1.61,2.35,3.32,3.06,5.6.34,1.16.42,2.54.12,3.78-.32,1.22-.83,2.38-1.51,3.37-1.33,2.03-3.03,3.72-4.86,5.28-3.69,3.1-7.92,5.71-12.41,8.18-4.5,2.45-9.27,4.72-14.26,6.83l-1.9.78-1.35.53-.67.26-.17.07c-.06.02-.12.07-.12-.02l-.09-.35c-.23-.93-.46-1.87-.69-2.8l-.37-1.55c-.45-1.87-.9-3.71-1.33-5.54-1-4.2-1.99-8.3-2.94-12.28.99-.13,1.98-.26,2.93-.41.53-.09,1.06-.18,1.59-.27.95-.17,1.88-.36,2.8-.57,1.84-.41,3.62-.89,5.31-1.46,1.69-.57,3.29-1.23,4.68-2.05,1.38-.8,2.55-1.85,2.9-2.92.09-.27.12-.52.14-.82l-.02-.49-.07-.52c-.12-.7-.32-1.41-.56-2.11-.48-1.4-1.1-2.75-1.72-4.04-1.27-2.58-2.59-4.92-3.81-7.03-.62-1.05-1.2-2.06-1.75-3-.28-.47-.55-.93-.81-1.37-.15-.28-.42-.63-.52-.95.07-.35.17-.73.26-1.03.32-.98.75-1.86,1.32-2.58.56-.72,1.33-1.25,2.1-1.44.77-.23,1.46-.08,1.99.07.53.17.93.41,1.24.59.58.44.85.69.8.77-.05.07-.41-.04-1.03-.3-.62-.18-1.64-.58-2.69-.17-1.05.37-1.91,1.72-2.31,3.46-.04.16-.05.26-.07.39.06.12.13.18.24.34.29.43.59.87.9,1.32.61.92,1.26,1.89,1.94,2.92,1.34,2.07,2.79,4.37,4.21,6.99.7,1.32,1.4,2.71,1.99,4.25.3.77.56,1.59.74,2.48l.12.69.05.73c0,.52-.05,1.1-.22,1.62-.32,1.06-.96,1.94-1.65,2.66-.7.72-1.48,1.31-2.29,1.8-1.62,1.01-3.37,1.76-5.17,2.4-1.8.65-3.66,1.18-5.57,1.64-.96.23-1.92.44-2.91.64-.44.08-.88.17-1.32.25l-.06.02c.73,2.94,1.48,5.96,2.26,9.06.45,1.82.9,3.67,1.36,5.53l.31,1.26h0s0,0,0,0h0s0,0,0,0l.13-.06.67-.28c4.9-2.07,9.6-4.29,14.01-6.64,4.39-2.37,8.54-4.86,12.02-7.69,1.73-1.42,3.29-2.94,4.41-4.58.59-.81.96-1.67,1.21-2.5.22-.84.18-1.61-.02-2.45-.47-1.7-1.5-3.39-2.54-4.91-1.04-1.54-2.17-2.96-3.28-4.29-4.48-5.31-8.57-9.27-11.32-12.07-2.77-2.78-4.29-4.36-4.14-4.52Z"/>
          </g>
          <path class="cls-2" d="M184.59,44.31c-.09.09-.4-.01-.87-.28-.47-.26-1.09-.7-1.92-1.11-1.61-.89-3.98-1.81-6.76-2.16-2.77-.37-5.36-.13-7.22.06-1.87.22-3.04.43-3.13.19-.1-.24.96-.91,2.86-1.49,1.89-.54,4.66-1.03,7.73-.63,3.07.38,5.7,1.65,7.25,2.92.81.6,1.34,1.22,1.68,1.67.34.45.48.73.39.82Z"/>
          <path class="cls-2" d="M174.63,29.84c-.26.56-3.43-1.06-7.36-1.19-1.96-.07-3.65.47-4.81,1.04-1.17.56-1.83,1.1-2.04.95-.21-.14.13-1.08,1.31-2.06,1.14-.98,3.23-1.89,5.56-1.81,2.32.05,4.27.81,5.54,1.5,1.26.73,1.92,1.35,1.8,1.57Z"/>
          <path class="cls-2" d="M171.82,58.92c-.13,0-.28-.27-.43-.73-.18-.46-.24-1.16-.56-1.94-.46-1.6-1.46-3.67-3.3-5.29-.42-.44-.96-.74-1.41-1.11-.51-.29-.97-.62-1.48-.84-.96-.52-1.91-.84-2.7-1.14-1.61-.55-2.66-.8-2.65-1.07,0-.26,1.14-.47,2.96-.23.9.15,1.98.37,3.11.86.58.2,1.14.55,1.74.86.55.4,1.17.74,1.68,1.27,1.12.94,1.88,2.14,2.45,3.25.51,1.15.81,2.23.89,3.16.17.91.04,1.66,0,2.17-.07.51-.17.78-.3.78Z"/>
          <g>
            <path class="cls-1" d="M41.16,50.71s-19.77-2.62-19.77-9.69c0-7.07,23.12-39.83,23.12-39.83C44.52,1.19,2.76,32.83,1.48,44.31c-1.28,11.48,35.01,25.61,35.01,25.61l4.68-19.22Z"/>
            <path class="cls-2" d="M41.16,50.71c.21.05-.24,2.76-1.23,7.63-.5,2.43-1.13,5.4-1.88,8.84-.1.45-.2.91-.3,1.38-.16.71-.33,1.43-.5,2.16l-.07.28-.03.14-.02.07s-.04-.01-.06-.02l-.53-.2c-.35-.14-.71-.27-1.07-.41-.59-.23-1.18-.46-1.78-.7-1.87-.74-3.82-1.57-5.86-2.47-4.07-1.82-8.48-3.95-13.04-6.62-2.28-1.34-4.6-2.81-6.86-4.55-2.24-1.77-4.55-3.69-6.32-6.43C.74,48.43,0,46.77,0,44.85c.03-1.94.79-3.54,1.54-4.99,1.62-2.85,3.63-5.36,5.77-7.81,4.3-4.86,9.14-9.43,14.22-13.96,7.44-6.6,14.88-12.61,22.09-18.09l2.13,2.06c-5.78,8.19-11.01,15.97-15.42,23.06-2.2,3.55-4.2,6.95-5.82,10.18-.8,1.61-1.53,3.21-1.91,4.69-.21.76-.24,1.32-.05,1.91.18.58.55,1.14,1.01,1.63.93,1,2.14,1.74,3.31,2.36,1.18.62,2.36,1.11,3.47,1.53,2.23.84,4.21,1.4,5.83,1.85,3.24.87,5.04,1.25,5.01,1.43-.02.17-1.87.12-5.23-.45-1.68-.29-3.73-.72-6.09-1.44-1.18-.37-2.43-.81-3.74-1.41-1.29-.62-2.67-1.34-3.92-2.56-.61-.61-1.2-1.36-1.54-2.32-.07-.24-.15-.49-.2-.74-.03-.26-.06-.52-.08-.78.02-.51.07-1.02.18-1.47.41-1.83,1.13-3.49,1.9-5.2,1.58-3.4,3.52-6.89,5.66-10.53,4.3-7.28,9.42-15.16,15.17-23.47l2.13,2.06c-7.07,5.48-14.46,11.52-21.82,18.04-5.02,4.48-9.82,8.97-14,13.65-2.07,2.34-4.01,4.74-5.45,7.22-.67,1.24-1.2,2.5-1.22,3.58-.03,1.1.43,2.28,1.11,3.39,1.38,2.23,3.49,4.1,5.57,5.78,2.11,1.68,4.33,3.15,6.51,4.5,4.38,2.69,8.67,4.91,12.64,6.83,1.98.96,3.89,1.84,5.7,2.64l.68.3.27.13.26.12.14.06s.03-.07.05-.1c.05-.18.11-.36.16-.53.11-.42.22-.83.33-1.23.91-3.4,1.72-6.33,2.4-8.72,1.35-4.77,2.2-7.39,2.41-7.34Z"/>
          </g>
          <g>
            <path class="cls-5" d="M157.31,86.54c0,32.47-28.78,55.65-64.28,55.65S28.75,119.02,28.75,86.54"/>
            <path class="cls-2" d="M28.75,86.54c.27,0,.32,2.66,1.14,7.33.82,4.64,2.63,11.37,7.06,18.53,4.36,7.15,11.6,14.47,21.36,19.76,9.72,5.32,21.88,8.49,34.72,8.46,12.84.02,25-3.15,34.72-8.46,9.76-5.29,17.01-12.61,21.36-19.76,4.43-7.15,6.24-13.88,7.06-18.53.81-4.67.87-7.34,1.14-7.33.16,0,.53,2.67.07,7.5-.46,4.8-1.99,11.87-6.37,19.49-4.3,7.61-11.74,15.48-21.87,21.15-10.09,5.7-22.77,9.09-36.12,9.07-13.34.03-26.03-3.36-36.12-9.07-10.13-5.67-17.57-13.53-21.87-21.15-4.38-7.62-5.91-14.7-6.37-19.49-.46-4.84-.09-7.51.07-7.5Z"/>
          </g>
          <g>
            <path class="cls-5" d="M28.75,86.54c0-32.47,28.78-61.95,64.28-61.95,35.5,0,64.28,29.48,64.28,61.95"/>
            <path class="cls-2" d="M157.31,86.54c-.27,0-.32-2.77-1.17-7.65-.83-4.86-2.72-11.86-7.01-19.54-2.14-3.83-4.89-7.81-8.35-11.62-1.7-1.94-3.63-3.77-5.68-5.6-2.08-1.79-4.31-3.52-6.71-5.13-4.81-3.2-10.28-5.94-16.26-7.85-3-.93-6.1-1.7-9.3-2.21-3.2-.49-6.48-.75-9.81-.78-3.33.03-6.61.29-9.81.78-3.2.51-6.31,1.28-9.3,2.21-5.98,1.91-11.45,4.65-16.26,7.85-2.4,1.62-4.63,3.34-6.71,5.13-2.04,1.83-3.98,3.66-5.68,5.6-3.46,3.82-6.21,7.8-8.35,11.62-4.29,7.68-6.18,14.68-7.01,19.54-.84,4.88-.9,7.65-1.17,7.65-.16,0-.53-2.78-.04-7.82.48-5.01,2.07-12.32,6.27-20.42,2.09-4.03,4.83-8.24,8.35-12.29,1.73-2.05,3.7-4.01,5.8-5.94,2.13-1.9,4.43-3.74,6.91-5.46,4.98-3.41,10.68-6.34,16.94-8.38,3.14-1,6.39-1.82,9.75-2.37,3.36-.52,6.81-.81,10.3-.83,3.49.03,6.94.31,10.3.83,3.36.54,6.62,1.37,9.75,2.37,6.26,2.05,11.96,4.97,16.94,8.38,2.48,1.72,4.78,3.56,6.91,5.46,2.1,1.94,4.07,3.89,5.8,5.94,3.52,4.05,6.26,8.25,8.35,12.29,4.19,8.1,5.79,15.41,6.27,20.42.49,5.04.12,7.83-.04,7.82Z"/>
          </g>
          <g>
            <path class="cls-5" d="M136.05,102.5c0,16.84-19.39,30.48-43.31,30.48-23.92,0-43.31-13.65-43.31-30.48"/>
            <path class="cls-2" d="M49.43,102.5c.27,0,.37,1.65,1.13,4.42.79,2.75,2.46,6.62,5.88,10.4,3.39,3.78,8.45,7.39,14.73,9.92,6.27,2.55,13.72,4.03,21.57,4.04,7.85-.01,15.3-1.49,21.57-4.04,6.28-2.54,11.34-6.14,14.73-9.92,3.42-3.78,5.09-7.66,5.88-10.4.76-2.77.85-4.42,1.13-4.42.19,0,.56,1.66.16,4.69-.42,3-1.88,7.38-5.35,11.68-3.42,4.3-8.73,8.39-15.35,11.25-6.61,2.88-14.49,4.54-22.78,4.55-8.28-.01-16.17-1.67-22.78-4.55-6.62-2.86-11.93-6.95-15.35-11.25-3.47-4.3-4.92-8.68-5.35-11.68-.39-3.04-.03-4.7.16-4.69Z"/>
          </g>
          <g>
            <path class="cls-4" d="M38.7,72.75c-2.45,12.79,6.49,23.6,19.25,25.21,12.76,1.6,25.1-7.47,27.55-20.26"/>
            <path class="cls-2" d="M85.51,77.69c.19.03.22,1.09-.14,2.97-.39,1.86-1.31,4.53-3.2,7.44-1.89,2.88-4.8,6-8.87,8.25-.99.61-2.09,1.05-3.2,1.56-1.15.39-2.31.85-3.56,1.09-1.22.34-2.52.46-3.82.62-.66.02-1.32.04-1.98.06-.67.04-1.33-.07-2.01-.1-5.37-.42-10.27-2.63-13.82-5.65-3.54-3.07-5.74-6.86-6.63-10.24-.93-3.38-.85-6.24-.53-8.12.34-1.88.76-2.86.95-2.82.23.04.23,1.09.27,2.89.06,1.8.33,4.41,1.42,7.36,1.05,2.95,3.18,6.13,6.37,8.7,3.21,2.53,7.51,4.38,12.25,4.76.59.02,1.17.13,1.76.09.58-.01,1.16-.03,1.74-.04,1.14-.14,2.28-.22,3.36-.5,1.1-.19,2.14-.58,3.17-.89.99-.43,1.99-.78,2.89-1.3,3.7-1.88,6.49-4.53,8.44-7.01,1.95-2.5,3.12-4.85,3.84-6.52.69-1.67,1.07-2.65,1.31-2.6Z"/>
          </g>
          <g>
            <path class="cls-4" d="M146.85,72.75c2.45,12.79-6.49,23.6-19.25,25.21-12.76,1.6-25.1-7.47-27.55-20.26"/>
            <path class="cls-2" d="M100.05,77.69c.23-.05.62.93,1.31,2.6.72,1.67,1.88,4.01,3.84,6.52,1.95,2.48,4.74,5.13,8.44,7.01.9.52,1.9.87,2.89,1.3,1.03.31,2.06.71,3.17.89,1.08.28,2.22.36,3.36.5.58.01,1.15.03,1.74.04.58.03,1.17-.07,1.76-.09,4.74-.37,9.05-2.23,12.25-4.76,3.19-2.57,5.31-5.76,6.37-8.7,1.09-2.94,1.36-5.55,1.42-7.36.04-1.81.03-2.85.27-2.89.19-.04.61.93.95,2.82.32,1.88.4,4.74-.53,8.12-.89,3.38-3.09,7.17-6.63,10.24-3.55,3.03-8.45,5.23-13.82,5.65-.67.03-1.34.14-2.01.1-.67-.02-1.33-.04-1.98-.06-1.3-.16-2.59-.28-3.82-.62-1.25-.24-2.41-.7-3.56-1.09-1.11-.5-2.21-.94-3.2-1.56-4.06-2.25-6.98-5.37-8.87-8.25-1.89-2.91-2.81-5.58-3.2-7.44-.36-1.88-.34-2.93-.14-2.97Z"/>
          </g>
          <g>
            <path class="cls-5" d="M38.7,72.75c-1.15,10.91,8.39,20.86,21.31,22.23,12.92,1.37,24.34-6.37,25.49-17.28l-46.8-4.95Z"/>
            <g class="cls-7">
              <g>
                <circle class="cls-5" cx="62.06" cy="78" r="8.47"/>
                <path class="cls-2" d="M70.53,78c-.24,0-.38-.75-.86-1.92-.47-1.15-1.39-2.76-3.16-3.93-.88-.57-1.94-1.04-3.13-1.19-1.18-.15-2.5-.06-3.72.44-2.47.93-4.54,3.56-4.51,6.6-.03,3.04,2.05,5.67,4.51,6.6,1.22.51,2.53.59,3.72.44,1.19-.15,2.25-.62,3.13-1.19,1.77-1.17,2.69-2.78,3.16-3.93.47-1.17.62-1.92.86-1.92.19,0,.48.76.33,2.22-.15,1.42-.91,3.61-3,5.4-1.04.87-2.39,1.64-3.99,1.98-1.59.34-3.41.34-5.18-.28-.89-.29-1.75-.73-2.54-1.31-.8-.56-1.53-1.27-2.14-2.09-1.25-1.62-1.96-3.74-1.98-5.91.01-2.17.73-4.29,1.98-5.91.61-.82,1.34-1.53,2.14-2.09.79-.57,1.65-1.02,2.54-1.31,1.77-.62,3.59-.62,5.18-.28,1.6.35,2.96,1.11,3.99,1.98,2.09,1.79,2.85,3.98,3,5.4.15,1.45-.14,2.22-.33,2.22Z"/>
              </g>
              <g>
                <circle class="cls-5" cx="62.06" cy="78" r="4.24"/>
                <path class="cls-2" d="M66.29,78c-.23,0-.41-.37-.72-.89-.31-.51-.82-1.17-1.62-1.6-.78-.44-1.88-.58-2.84-.14-.96.42-1.73,1.45-1.72,2.62,0,1.17.76,2.2,1.72,2.62.97.44,2.06.3,2.84-.14.8-.43,1.31-1.09,1.62-1.6.32-.51.5-.89.72-.89.2,0,.45.38.46,1.18,0,.78-.33,2.02-1.46,3.06-1.09,1.05-3.1,1.76-5.17,1.09-1.02-.32-2-.98-2.71-1.92-.72-.93-1.15-2.16-1.15-3.41,0-1.25.43-2.48,1.15-3.41.71-.94,1.69-1.6,2.71-1.92,2.07-.67,4.08.04,5.17,1.09,1.13,1.05,1.46,2.29,1.46,3.06,0,.8-.26,1.19-.46,1.18Z"/>
              </g>
            </g>
          </g>
          <g>
            <path class="cls-4" d="M144.9,50.71c-11.7-15.5-30.57-26.12-51.87-26.12-21.3,0-40.17,10.62-51.87,26.12,20.67.81,39.05,5.8,51.87,13.33,12.82-7.53,31.19-12.52,51.87-13.33Z"/>
            <path class="cls-2" d="M144.9,50.71c.02.34-5.4.58-14.69,2.1-4.64.77-10.24,1.94-16.49,3.8-3.12.95-6.4,2.08-9.78,3.47-.84.36-1.68.73-2.54,1.1-.84.4-1.7.8-2.56,1.21-.85.44-1.7.88-2.57,1.33-1.07.61-2.15,1.22-3.24,1.84-.69-.38-1.39-.77-2.09-1.15-.48-.26-.95-.53-1.44-.77-.99-.48-1.96-1.01-2.99-1.45-1.02-.47-2.05-.94-3.11-1.36-1.05-.45-2.13-.86-3.23-1.26-4.37-1.62-9.03-2.99-13.89-4.08-4.87-1.09-9.94-1.92-15.17-2.47-1.31-.13-2.62-.28-3.94-.37-.66-.05-1.33-.1-1.99-.15-1.13-.06-2.27-.12-3.4-.18-1.21-.06-2.42-.12-3.64-.19-.03,0-.1,0-.09-.02l.07-.09.15-.18.29-.37.59-.74,1.18-1.48,1.19-1.48.59-.74c.11-.15.17-.21.23-.27l.18-.2,1.41-1.58c2.73-2.97,5.65-5.7,8.79-8.08,3.14-2.37,6.4-4.47,9.77-6.24,6.76-3.49,13.85-5.76,20.77-6.73,6.92-1.05,13.63-.83,19.74.18,6.12,1.01,11.65,2.82,16.42,5.01,4.78,2.2,8.81,4.77,12.11,7.29,3.3,2.54,5.94,4.96,7.9,7.13,1.02,1.04,1.84,2.05,2.54,2.92.35.43.68.84.97,1.21.27.39.52.74.74,1.05.88,1.26,1.29,1.95,1.2,2.01-.22.17-2.18-2.37-6.33-6.33-2.05-2-4.76-4.23-8.07-6.57-3.31-2.32-7.3-4.69-11.98-6.68-4.67-1.99-10.03-3.62-15.93-4.47-5.88-.86-12.31-.97-18.91.11-6.6,1-13.34,3.22-19.78,6.59-3.21,1.7-6.31,3.73-9.3,5.99-2.98,2.28-5.76,4.89-8.37,7.72l-1.35,1.5-.27.31-.05.06-.1.12c-.06.08-.15.17-.18.24l.44.02c.9.07,1.79.14,2.68.2,1.35.09,2.7.24,4.03.39,5.34.59,10.53,1.47,15.5,2.62,4.98,1.16,9.74,2.62,14.23,4.34,1.12.42,2.23.87,3.31,1.34,1.09.45,2.15.95,3.2,1.45,1.06.48,2.06,1.04,3.07,1.55.51.25.99.55,1.48.82l.69.39.1.06.1-.05.58-.32c.45-.24.89-.5,1.34-.73.91-.45,1.8-.89,2.69-1.33.9-.4,1.79-.8,2.67-1.2.89-.36,1.77-.72,2.64-1.07,3.49-1.35,6.88-2.42,10.09-3.3,6.43-1.72,12.15-2.69,16.87-3.25,4.72-.57,8.46-.7,11-.77,2.54,0,3.9.06,3.9.2Z"/>
          </g>
          <g>
            <path class="cls-4" d="M37.51,67.95s31.83-.95,44.94,4.44"/>
            <path class="cls-2" d="M82.45,72.39c-.19.43-2.61-.21-6.61-.8-3.99-.6-9.57-1.15-15.77-1.59-12.4-.86-22.55-1.18-22.57-2.06-.03-.84,10.17-1.93,22.79-1.06,6.3.44,12,1.36,16.03,2.55,4.04,1.18,6.3,2.6,6.13,2.96Z"/>
          </g>
          <g>
            <path class="cls-4" d="M82.45,72.39s-10.65-11.48-17.94-12.42-27,7.98-27,7.98"/>
            <path class="cls-2" d="M37.51,67.95c-.18-.39,2.24-1.93,6.42-3.88,2.09-.97,4.62-2.04,7.5-3.07,2.9-1,6.11-2.04,9.79-2.52.94-.08,1.86-.18,2.87-.08.49,0,.97.1,1.45.21.48.1.94.21,1.36.38,1.75.58,3.19,1.44,4.54,2.28,2.64,1.73,4.72,3.57,6.39,5.19,3.31,3.26,4.94,5.65,4.63,5.94-.32.3-2.49-1.52-6.07-4.26-1.79-1.36-3.95-2.95-6.45-4.41-1.25-.69-2.59-1.41-3.98-1.82-1.39-.45-2.72-.51-4.36-.31-3.24.42-6.42,1.33-9.26,2.16-2.86.85-5.42,1.69-7.59,2.38-4.33,1.4-7.05,2.21-7.23,1.82Z"/>
          </g>
          <g>
            <path class="cls-4" d="M148.56,67.95s-31.83-.95-44.94,4.44"/>
            <path class="cls-2" d="M103.61,72.39c-.17-.35,2.09-1.78,6.13-2.96,4.02-1.19,9.72-2.11,16.03-2.55,12.62-.87,22.82.22,22.79,1.06-.02.89-10.17,1.21-22.57,2.06-6.2.43-11.78.98-15.77,1.59-3.99.58-6.41,1.23-6.61.8Z"/>
          </g>
          <g>
            <path class="cls-4" d="M103.61,72.39s10.65-11.48,17.94-12.42c7.29-.94,27,7.98,27,7.98"/>
            <path class="cls-2" d="M148.56,67.95c-.18.4-2.9-.42-7.23-1.82-2.16-.7-4.73-1.53-7.59-2.38-2.85-.83-6.02-1.74-9.26-2.16-1.65-.2-2.98-.14-4.36.31-1.39.41-2.73,1.13-3.98,1.82-2.5,1.45-4.65,3.05-6.45,4.41-3.58,2.74-5.75,4.56-6.07,4.26-.31-.29,1.31-2.67,4.63-5.94,1.67-1.62,3.75-3.46,6.39-5.19,1.34-.84,2.78-1.7,4.54-2.28.42-.17.88-.28,1.36-.38.47-.11.95-.21,1.45-.21,1.01-.09,1.93,0,2.87.08,3.68.48,6.89,1.52,9.79,2.52,2.89,1.03,5.42,2.09,7.5,3.07,4.17,1.95,6.59,3.49,6.42,3.88Z"/>
          </g>
          <g>
            <path class="cls-5" d="M147.36,72.75c1.15,10.91-8.39,20.86-21.31,22.23-12.92,1.37-24.34-6.37-25.49-17.28l46.8-4.95Z"/>
            <g class="cls-3">
              <g>
                <circle class="cls-5" cx="124.01" cy="78" r="8.47"/>
                <path class="cls-2" d="M115.54,78c-.19,0-.48-.76-.33-2.22.15-1.42.91-3.61,3-5.4,1.04-.87,2.39-1.64,3.99-1.98,1.59-.34,3.41-.34,5.18.28.89.29,1.75.73,2.54,1.31.8.56,1.53,1.27,2.14,2.09,1.25,1.62,1.96,3.74,1.98,5.91-.01,2.17-.73,4.29-1.98,5.91-.61.82-1.34,1.53-2.14,2.09-.79.57-1.66,1.02-2.54,1.31-1.77.62-3.59.62-5.18.28-1.6-.35-2.96-1.11-3.99-1.98-2.09-1.79-2.85-3.98-3-5.4-.15-1.45.14-2.22.33-2.22.24,0,.38.75.86,1.92.47,1.15,1.39,2.76,3.16,3.93.88.57,1.94,1.04,3.13,1.19,1.19.15,2.5.06,3.72-.44,2.47-.93,4.54-3.56,4.51-6.6.03-3.04-2.05-5.67-4.51-6.6-1.22-.51-2.53-.59-3.72-.44-1.19.15-2.25.62-3.13,1.19-1.77,1.17-2.69,2.78-3.16,3.93-.47,1.17-.62,1.92-.86,1.92Z"/>
              </g>
              <g>
                <circle class="cls-5" cx="124.01" cy="78" r="4.24"/>
                <path class="cls-2" d="M119.77,78c-.2,0-.45-.38-.46-1.18,0-.78.33-2.02,1.46-3.06,1.09-1.05,3.1-1.76,5.17-1.09,1.02.32,2,.98,2.71,1.92.72.93,1.15,2.16,1.15,3.41,0,1.25-.43,2.48-1.15,3.41-.71.94-1.69,1.6-2.71,1.92-2.07.67-4.08-.04-5.17-1.09-1.13-1.05-1.46-2.29-1.46-3.06,0-.8.26-1.19.46-1.18.23,0,.41.37.72.89.31.51.82,1.17,1.62,1.6.78.44,1.88.58,2.84.14.96-.42,1.73-1.45,1.72-2.62,0-1.17-.76-2.2-1.72-2.62-.97-.44-2.06-.3-2.84.14-.8.43-1.31,1.09-1.62,1.6-.32.51-.5.89-.72.89Z"/>
              </g>
            </g>
          </g>
          <path class="cls-2" d="M135.84,104.38c.1.09-.96,1.51-2.95,3.98-1.01,1.24-2.24,2.74-3.66,4.48-1.54,1.84-3.28,3.93-5.21,6.23-2.97-1.14-6.24-2.39-9.77-3.75-3.26,3.37-6.8,7.04-10.54,10.92-3.19-2.29-6.51-4.67-9.91-7.12h0s-.13.1-.13.1l-.69.54c-2.57,2.01-5.09,3.97-7.55,5.9-3.54-3.55-6.93-6.95-10.1-10.14-3.03,2.3-5.88,4.47-8.52,6.48-2.74-2.7-5.25-5.17-7.47-7.35-2.05-2.06-3.83-3.85-5.31-5.33-2.91-2.97-4.51-4.7-4.4-4.81.11-.11,1.91,1.4,5,4.18,1.54,1.41,3.41,3.11,5.56,5.07,2,1.85,4.25,3.94,6.72,6.23,2.65-2.1,5.52-4.36,8.56-6.76,3.18,3.13,6.57,6.47,10.11,9.96,2.04-1.6,4.12-3.24,6.25-4.9.64-.5,1.29-1.01,1.93-1.51,3.35,2.43,6.62,4.8,9.75,7.07,3.67-3.71,7.15-7.21,10.34-10.44,3.53,1.45,6.81,2.8,9.78,4.02,1.77-1.96,3.37-3.74,4.78-5.31,1.52-1.65,2.83-3.08,3.91-4.26,2.17-2.32,3.42-3.57,3.52-3.49Z"/>
          <path class="cls-2" d="M1.48,44.31c-.09-.09.05-.38.39-.82.34-.45.87-1.08,1.68-1.67,1.55-1.27,4.18-2.54,7.25-2.92,3.07-.41,5.84.09,7.73.63,1.9.58,2.96,1.25,2.86,1.49-.09.24-1.26.04-3.13-.19-1.87-.19-4.45-.44-7.22-.06-2.78.35-5.14,1.27-6.76,2.16-.84.41-1.46.84-1.92,1.11-.47.26-.78.37-.87.28Z"/>
          <path class="cls-2" d="M11.43,29.84c-.12-.22.54-.83,1.8-1.57,1.27-.69,3.21-1.45,5.54-1.5,2.33-.09,4.42.82,5.56,1.81,1.18.98,1.52,1.92,1.31,2.06-.21.15-.87-.39-2.04-.95-1.16-.57-2.85-1.1-4.81-1.04-3.93.13-7.1,1.75-7.36,1.19Z"/>
          <path class="cls-2" d="M24.21,17.8c-.14-.2.2-.73.97-1.34.77-.6,2.05-1.24,3.63-1.39,1.58-.13,3.02.34,3.85.94.85.58,1.15,1.2.98,1.38-.33.37-2.21-.69-4.67-.45-2.44.23-4.44,1.35-4.76.86Z"/>
          <path class="cls-2" d="M14.24,58.92c-.13,0-.23-.28-.3-.78-.05-.51-.18-1.26,0-2.17.08-.93.38-2.01.89-3.16.57-1.11,1.33-2.31,2.45-3.25.51-.52,1.13-.87,1.68-1.27.6-.31,1.16-.66,1.74-.86,1.13-.49,2.22-.71,3.11-.86,1.82-.24,2.95-.03,2.96.23,0,.26-1.04.52-2.65,1.07-.79.3-1.74.63-2.7,1.14-.5.22-.96.55-1.47.84-.45.36-.99.66-1.41,1.11-1.84,1.63-2.84,3.69-3.3,5.29-.32.78-.39,1.47-.56,1.94-.15.47-.3.74-.43.73Z"/>
          <path class="cls-2" d="M38.7,72.75c.05-.43,6.51-.14,16.91.67,5.2.41,11.39.95,18.26,1.59,3.63.35,7.45.73,11.4,1.11l1.39.14.35.04.17.02h.09s0,.06,0,.08l-.11.65c-.14.86-.28,1.73-.43,2.6-.07.52-.14.63-.21.92l-.22.76-.22.76c-.09.25-.2.49-.3.73-.74,1.99-1.94,3.8-3.31,5.44-2.8,3.29-6.48,5.5-10.22,6.82-3.77,1.32-7.65,1.66-11.26,1.39-7.26-.54-13.39-3.8-17.16-7.74-1.91-1.96-3.26-4.08-4.16-6.05-.4-1.01-.79-1.94-.98-2.85-.27-.89-.35-1.73-.45-2.48-.13-1.51-.08-2.68.08-3.45.14-.78.26-1.17.37-1.16s.19.43.26,1.18c.04.75.19,1.86.49,3.24.18.68.34,1.45.67,2.24.26.81.69,1.63,1.12,2.52.97,1.73,2.31,3.55,4.14,5.24,3.61,3.38,9.24,6.11,15.81,6.45,3.26.17,6.73-.2,10.05-1.41,3.3-1.2,6.49-3.16,8.86-5.96,1.16-1.4,2.18-2.92,2.8-4.57.08-.2.18-.4.26-.61l.18-.63.32-1.1c.02-.13.07-.33.04-.28-3.51-.4-6.9-.79-10.13-1.16-6.85-.8-13.02-1.57-18.19-2.26-10.35-1.38-16.73-2.45-16.68-2.88Z"/>
          <path class="cls-2" d="M147.36,72.75c.05.43-6.33,1.5-16.68,2.88-5.17.69-11.34,1.46-18.19,2.26-3.23.37-6.62.76-10.13,1.16-.03-.05.02.15.04.28l.32,1.1.18.63c.07.21.17.4.26.61.62,1.66,1.64,3.17,2.8,4.57,2.37,2.8,5.56,4.76,8.86,5.96,3.32,1.21,6.79,1.58,10.05,1.41,6.57-.34,12.2-3.06,15.81-6.45,1.83-1.68,3.17-3.51,4.14-5.24.44-.89.87-1.71,1.12-2.52.34-.79.49-1.55.67-2.24.29-1.37.45-2.48.49-3.24.07-.76.15-1.17.26-1.18s.23.38.37,1.16c.17.77.21,1.95.08,3.45-.1.75-.18,1.6-.45,2.48-.19.91-.58,1.84-.98,2.85-.9,1.97-2.25,4.08-4.16,6.05-3.77,3.94-9.9,7.2-17.16,7.74-3.61.27-7.5-.07-11.26-1.39-3.75-1.32-7.42-3.53-10.22-6.82-1.37-1.65-2.57-3.46-3.31-5.44-.1-.24-.21-.48-.3-.73l-.22-.76-.22-.76c-.07-.29-.14-.4-.21-.92-.14-.87-.29-1.74-.43-2.6l-.11-.65s-.02-.06,0-.07h.09s.18-.03.18-.03l.35-.04,1.39-.14c3.95-.39,7.76-.76,11.4-1.11,6.87-.65,13.06-1.19,18.26-1.59,10.41-.82,16.87-1.1,16.91-.67Z"/>
        </g>
        <ellipse class="cls-4" cx="92.99" cy="90.81" rx="4.31" ry="2.76"/>
      </g>
      <g>
        <path class="cls-6" d="M161.84,17.8c-5.69-3.84-6.92,3.54-6.92,3.54,0,0,5.87,3.14,6.92-3.54Z"/>
        <path class="cls-2" d="M161.84,17.8c.21.03.36.33.43.87.05.27.05.61-.02,1-.03.2-.06.41-.11.63-.08.22-.17.46-.28.7-.09.25-.27.49-.45.75-.17.27-.41.5-.68.73-.53.47-1.26.8-2.01.96-.76.16-1.54.13-2.3.01l-.28-.05c-.12-.02-.27-.05-.42-.11-.29-.1-.6-.18-.89-.29-.58-.24-1.1-.51-1.66-.79l.05-.27c.1-.62.23-1.23.4-1.84.1-.29.2-.57.29-.85.08-.21.16-.36.24-.53.34-.67.73-1.32,1.29-1.86.24-.28.6-.51.9-.73.36-.18.69-.37,1.05-.45.73-.2,1.42-.16,1.97-.03.27.08.52.17.75.25.22.1.4.23.57.34.17.11.33.22.46.32.12.12.23.23.32.34.36.43.48.74.36.92-.12.18-.47.22-.95.15-.12-.02-.25-.04-.39-.07-.14-.01-.29-.02-.44-.03-.15-.01-.31-.04-.47-.05-.16.02-.31.03-.47.03-.63.1-1.09.29-1.54.95-.24.29-.44.73-.64,1.19l-.13.34v.06s0,0,0,0h0s0,0,0,0h0s0,.01.04.03l.18.05c.46.11.89.17,1.26.15.72-.03,1.24-.32,1.73-.79.11-.12.22-.24.34-.36.09-.14.18-.27.27-.39.19-.24.35-.47.48-.68.28-.39.54-.62.75-.59Z"/>
      </g>
      <g>
        <path class="cls-5" d="M135.84,102.5c0,5.36-19.3,9.71-43.1,9.71-23.81,0-43.1-4.35-43.1-9.71"/>
        <path class="cls-2" d="M49.63,102.5c.05,0,.12.08.19.22.05.14.16.33.3.57.29.46.87,1.04,1.8,1.6,1.87,1.12,5,2.16,8.98,3.02,7.96,1.71,19.31,2.74,31.84,2.74,12.53,0,23.88-1.04,31.84-2.74,3.97-.85,7.11-1.89,8.98-3.02.93-.56,1.51-1.14,1.8-1.6.14-.23.25-.42.3-.57.07-.14.13-.22.19-.22.05,0,.1.08.13.25.05.18.04.43-.03.77-.15.67-.72,1.56-1.67,2.35-1.9,1.6-5.11,3.01-9.15,4.18-8.11,2.32-19.65,3.72-32.38,3.73-12.73,0-24.27-1.4-32.38-3.73-4.04-1.17-7.25-2.58-9.15-4.18-.95-.8-1.52-1.68-1.67-2.35-.08-.34-.08-.6-.03-.77.03-.17.08-.25.13-.25Z"/>
      </g>
    </g>
  </g>
</svg>