<?xml version="1.0" encoding="UTF-8"?>
<svg id="_レイヤー_2" data-name="レイヤー 2" xmlns="http://www.w3.org/2000/svg" viewBox="0 0 174.1 115.01">
  <defs>
    <style>
      .cls-1 {
        fill: #3a302e;
      }

      .cls-2 {
        fill: #9e9e9f;
      }

      .cls-3 {
        fill: #f2abca;
      }

      .cls-4 {
        fill: #231815;
      }

      .cls-5 {
        fill: #fff;
      }
    </style>
  </defs>
  <g id="_レイヤー_7" data-name="レイヤー 7">
    <g>
      <g>
        <path class="cls-5" d="M143.5,40.71C171.93,17.19,128.2,1.86,87.02,1.45,45.82,1.86,2.13,17.2,30.54,40.71"/>
        <path class="cls-1" d="M30.54,40.71c-.06.08-.61-.28-1.6-1.03-.49-.38-1.12-.83-1.76-1.47-.65-.64-1.47-1.31-2.21-2.25-.38-.46-.81-.92-1.21-1.46-.37-.56-.76-1.14-1.17-1.75-.36-.64-.68-1.35-1.04-2.08-.15-.37-.26-.78-.39-1.18-.1-.41-.3-.81-.33-1.26-.35-1.75-.24-3.72.35-5.67.66-1.94,1.84-3.74,3.3-5.38,1.49-1.61,3.29-3.02,5.23-4.33,1.98-1.24,4.1-2.45,6.39-3.45,4.55-2.09,9.62-3.73,15.03-5.07C61.97,1.65,74.16.17,87.02,0c12.86.17,25.05,1.65,35.88,4.34,5.41,1.34,10.48,2.99,15.03,5.07,2.29,1,4.41,2.21,6.39,3.45,1.95,1.31,3.74,2.72,5.24,4.33,1.46,1.64,2.65,3.44,3.3,5.38.59,1.96.69,3.92.35,5.67-.04.45-.23.84-.33,1.26-.13.4-.23.81-.39,1.18-.36.72-.67,1.44-1.04,2.08-.41.61-.8,1.19-1.17,1.75-.4.54-.83,1-1.21,1.46-.74.94-1.56,1.61-2.21,2.25-.64.64-1.27,1.09-1.76,1.47-.99.75-1.53,1.1-1.6,1.03-.06-.08.36-.58,1.21-1.46.42-.45.98-.95,1.54-1.64.56-.69,1.31-1.4,1.94-2.35.33-.47.71-.93,1.05-1.46.32-.54.65-1.11.99-1.7.3-.61.55-1.27.84-1.94.12-.34.19-.71.29-1.07.07-.37.24-.73.24-1.11.23-1.53.06-3.17-.49-4.79-.62-1.61-1.7-3.15-3.05-4.58-1.39-1.41-3.09-2.67-4.95-3.85-1.9-1.12-3.94-2.22-6.17-3.14-4.41-1.91-9.38-3.43-14.69-4.68-10.61-2.49-22.66-3.87-35.25-4.04-12.59.17-24.64,1.54-35.25,4.04-5.31,1.24-10.27,2.76-14.69,4.68-2.23.92-4.26,2.02-6.17,3.14-1.86,1.18-3.56,2.44-4.95,3.85-1.35,1.43-2.43,2.96-3.05,4.58-.55,1.63-.72,3.27-.49,4.79,0,.39.17.75.24,1.11.1.36.17.73.29,1.07.3.67.54,1.33.84,1.94.34.59.68,1.16.99,1.7.34.53.72,1,1.05,1.46.64.95,1.38,1.67,1.94,2.35.56.69,1.12,1.2,1.54,1.64.85.88,1.27,1.38,1.21,1.46Z"/>
      </g>
      <g>
        <path class="cls-5" d="M30.54,40.71c-9.17,2.11-7.22,9.24,1.83,10.22v.05c-4.96.9-8.36,4.26-4.4,7.29C3.55,66.41,11.84,88.53,1.53,100.47c0,0,10.96,9.29,27.32,7.99,12.51-1,24.79-12.75,29.88-18.22,1.5.35,3.48.5,5.76.42-8.3,6.88-5.7,11.19,4.26,7.06-5.5,9.27-1.6,12.45,6.39,5.22-2.07,10.58,2.67,12.27,7.77,2.77,1.41,10.48,6.85,10.45,8.25,0,5.1,9.5,9.84,7.8,7.77-2.77,7.99,7.23,11.89,4.04,6.39-5.22,9.96,4.12,12.55-.19,4.26-7.07,2.28.08,4.26-.07,5.76-.42,15.74,19.51,41.01,23.78,57.2,10.23-10.36-12.03-1.97-33.99-26.45-42.19,3.96-3.03.56-6.39-4.38-7.29v-.05c9.04-.97,10.99-8.11,1.82-10.22"/>
        <path class="cls-1" d="M143.5,40.71s.7.02,1.98.4c.32.12.67.25,1.06.39.37.2.79.4,1.21.68.81.57,1.78,1.46,2.05,2.9.11.35.03.72.02,1.1-.05.37-.2.74-.34,1.11-.37.69-.88,1.35-1.55,1.86-.33.26-.66.53-1.05.72-.19.11-.38.21-.57.32-.21.12-.29.13-.44.2-.56.26-1.06.39-1.58.51l-.39.07-.2.03s-.2.02-.08.06c.3.06.6.12.9.21.29.08.58.18.85.3.14.06.27.11.41.2l.21.11c.06.03.22.15.33.22.48.31.94.72,1.34,1.21.38.5.75,1.11.8,1.85.08.71-.1,1.49-.48,2.06-.17.31-.36.48-.58.68l-.05.05s.05.02.07.03l.16.06.32.11c.21.07.43.15.64.22.78.34,1.61.66,2.42,1.06,1.62.78,3.23,1.73,4.79,2.87,3.09,2.32,5.83,5.58,7.62,9.5,1.84,3.91,2.85,8.3,3.85,12.76,1.02,4.44,2.06,9.11,4.6,13.09.38.53.49.79,1.34,1.82l.52.65.26.32c.06.1.27.23.07.3l-1.34,1.01c-.61.46-1.23.92-1.85,1.39l-.79.59-.86.51c-2.26,1.4-4.72,2.59-7.33,3.45-5.22,1.75-11.02,2.26-16.78,1.49-5.77-.76-11.51-2.79-16.77-5.89-1.31-.78-2.56-1.68-3.85-2.52-1.23-.93-2.42-1.92-3.64-2.89-1.13-1.07-2.26-2.15-3.4-3.24-.85-.97-1.71-1.94-2.58-2.91h-.04s-.7.12-.7.12l-.76.09-.2.02h-.13s.09.08.09.08l.12.12.38.43c.14.16.28.33.41.49.54.68,1.05,1.4,1.45,2.3.2.44.37.95.45,1.53.08.57.03,1.31-.32,1.98-.35.68-.96,1.15-1.52,1.4-.57.27-1.09.35-1.6.41-1,.09-1.9,0-2.77-.16-.44-.07-.86-.18-1.28-.28l-.16-.04-.05-.02.03.05.04.1c.12.31.31.76.44,1.15.28.82.52,1.68.59,2.66.04.49.02,1.02-.1,1.6-.12.57-.42,1.25-1,1.76-.57.52-1.31.75-1.92.79-.63.06-1.15-.04-1.65-.16-.97-.25-1.79-.65-2.56-1.09-.39-.22-.75-.45-1.11-.69l-.11-.08h-.02s0,.01,0,.01v.09c.02.35.05.83.03,1.25-.02.87-.08,1.76-.35,2.72-.13.47-.32.98-.65,1.48-.31.5-.83,1.04-1.56,1.32-.73.29-1.5.24-2.08.07-.61-.16-1.07-.43-1.49-.71-.83-.57-1.46-1.22-2.04-1.89-.29-.33-.55-.68-.81-1.03l-.04-.05h0s0,0,0,0v.05c-.14.4-.26.8-.43,1.21-.32.82-.71,1.64-1.31,2.45-.32.4-.67.8-1.2,1.14-.5.34-1.19.61-1.94.6-.75,0-1.41-.31-1.89-.65-.5-.35-.86-.74-1.16-1.14-.6-.8-.97-1.62-1.29-2.43-.16-.41-.28-.81-.41-1.21h0v-.02h0s-.04.05-.04.05c-.26.35-.52.69-.81,1.03-.58.67-1.21,1.32-2.04,1.89-.42.28-.89.55-1.49.71-.58.17-1.35.22-2.08-.07-.73-.28-1.25-.83-1.56-1.32-.32-.51-.52-1.01-.65-1.48-.26-.96-.33-1.85-.35-2.72-.01-.42.01-.9.02-1.25v-.09s.01-.02.01-.02h-.02s-.11.09-.11.09c-.36.24-.72.48-1.11.69-.77.44-1.58.84-2.56,1.09-.49.12-1.02.21-1.65.16-.61-.04-1.35-.27-1.92-.79-.57-.51-.88-1.2-1-1.76-.13-.58-.14-1.12-.1-1.6.08-.98.31-1.84.59-2.66.13-.39.32-.85.44-1.15l.04-.1.03-.05-.05.02-.16.04c-.42.1-.84.2-1.28.28-.87.15-1.77.25-2.78.16-.51-.06-1.03-.14-1.6-.41-.56-.25-1.17-.72-1.52-1.4-.35-.67-.41-1.41-.32-1.98.08-.58.24-1.09.45-1.53.4-.89.92-1.62,1.45-2.3.13-.17.27-.34.41-.49l.38-.43.12-.12.09-.07h-.13s-.21-.03-.21-.03l-.76-.09-.73-.11h-.04s-1.1,1.12-1.1,1.12c-.55.56-1.11,1.11-1.67,1.65-1.12,1.09-2.27,2.13-3.43,3.15-2.34,2.02-4.77,3.9-7.31,5.57-5.06,3.3-10.65,5.95-16.63,6.48-2.91.17-5.79.15-8.6-.24-2.8-.4-5.52-1.04-8.11-1.93-2.59-.89-5.05-2.02-7.34-3.35-.57-.34-1.14-.67-1.69-1.03-.28-.18-.55-.36-.82-.55l-.42-.29c-.22-.15-.44-.33-.66-.5-.45-.34-.87-.68-1.29-1.03-.04-.05-.14-.08-.13-.13l.12-.16.25-.32.5-.64c.81-1.02.96-1.31,1.33-1.83,2.54-3.98,3.58-8.66,4.61-13.1,1.01-4.46,2.02-8.85,3.86-12.76,1.8-3.93,4.53-7.2,7.62-9.52,1.56-1.14,3.17-2.1,4.79-2.88.8-.4,1.63-.71,2.42-1.06.22-.07.43-.15.64-.22l.32-.11.16-.06s.07-.02.07-.03l-.05-.05c-.22-.2-.41-.37-.58-.67-.38-.57-.56-1.35-.48-2.06.06-.74.42-1.35.8-1.85.4-.49.86-.9,1.34-1.21.11-.07.27-.19.33-.22l.21-.11c.14-.08.28-.14.41-.2.27-.12.56-.22.85-.3.29-.09.59-.15.9-.21.12-.04-.04-.06-.08-.06l-.19-.03-.39-.07c-.52-.12-1.02-.25-1.58-.51-.15-.07-.24-.08-.44-.2-.19-.11-.38-.22-.57-.32-.39-.19-.72-.46-1.05-.72-.66-.51-1.17-1.17-1.55-1.86-.14-.37-.29-.74-.34-1.11-.01-.38-.1-.75.02-1.1.27-1.44,1.25-2.33,2.05-2.9.43-.27.85-.47,1.21-.68.39-.14.75-.27,1.06-.39,1.29-.38,1.97-.45,1.98-.4.02.08-.64.28-1.84.77-.29.14-.62.29-.99.46-.33.22-.71.44-1.09.71-.71.57-1.49,1.41-1.63,2.54-.08.27.01.56.03.85.05.29.19.57.31.86.33.54.77,1.08,1.37,1.51.3.22.59.44.95.6.17.09.35.18.52.27.15.09.5.18.75.27.55.18,1.11.38,1.72.53.3.08.61.16.92.24l.47.13.21.09.41.18.2.09s.2.07.08.14c-.29.11-.58.21-.82.45-.08.06-.08.09-.24.16l-.43.21-.44.22c-.17.07-.39.14-.59.21-.41.14-.84.28-1.12.47l-.49.26c-.18.09-.22.15-.33.22-.77.55-1.47,1.32-1.51,2.13-.02.4.06.81.33,1.2.17.33.61.68.95,1.01.36.35.73.63,1.1.96l-.07.1s-.13.05-.19.08l-.42.16-.84.32c-.57.21-1.15.43-1.73.65-.76.35-1.54.67-2.3,1.06-1.53.77-3.03,1.7-4.47,2.8-2.84,2.23-5.29,5.26-6.93,8.97-1.68,3.7-2.6,7.94-3.55,12.43-.98,4.45-1.95,9.36-4.74,13.86-.33.5-.85,1.28-.82,1.21-.03.06-.12.12-.1.17l.17.12.46.31c.25.17.51.34.77.5.52.34,1.06.64,1.6.96,2.17,1.23,4.51,2.28,6.96,3.1,2.45.82,5.02,1.4,7.65,1.75,2.64.35,5.35.34,8.07.16,5.33-.5,10.57-2.97,15.39-6.17,2.42-1.61,4.75-3.43,7-5.4,1.12-.99,2.23-2.01,3.31-3.06.54-.53,1.08-1.06,1.61-1.61l.79-.82,1.32-1.4c.45.1.91.21,1.37.29.29.05.45.07.69.1l.66.07c.27.02.78.06,1.24.08,1.88.06,4.13-.07,6.12-.11l-1.85,1.59c-.64.55-1.29,1.1-1.89,1.64-.66.56-1.12,1.05-1.62,1.56-.07.07-.11.12-.14.14l-.09.1-.18.2c-.12.13-.23.27-.34.41-.44.55-.83,1.14-1.08,1.69-.27.55-.26,1.06-.2,1.08.02.03.06.08.22.16.15.08.42.13.71.16.59.05,1.29,0,2-.14.35-.06.71-.15,1.07-.24l1.04-.31c.35-.09.75-.25,1.15-.4.79-.29,1.61-.62,2.43-.95l2.39-.95-1.23,2.16-1.25,2.22c-.44.75-.72,1.4-1.04,2.08-.18.42-.29.7-.4,1.05-.23.67-.4,1.35-.44,1.94-.06.6.11,1.06.16,1.04-.02.03.38.15.97-.02.57-.15,1.21-.44,1.83-.8.31-.18.62-.38.93-.58l.89-.66c.3-.21.63-.49.95-.77.65-.55,1.32-1.13,1.98-1.72l1.94-1.71-.44,2.48-.44,2.54c-.16.87-.21,1.58-.28,2.33-.02.44-.04.75-.03,1.12.01.71.08,1.4.24,1.97.14.59.46.95.49.91-.01.03.41.01.91-.35.49-.33.99-.83,1.45-1.37.23-.27.45-.57.68-.86.42-.64.87-1.25,1.3-2.04l1.3-2.31,1.26-2.27.38,2.51.4,2.57c.12.87.34,1.61.51,2.36.11.34.21.69.34,1.01.25.64.55,1.25.89,1.71.34.48.73.67.8.64.06.02.44-.13.79-.61.35-.46.65-1.07.9-1.71.13-.32.24-.67.35-1.02l.27-1.11c.1-.37.17-.8.24-1.23l.41-2.59.38-2.53,1.26,2.27,1.3,2.3c.42.79.88,1.39,1.3,2.04.22.29.44.59.68.86.46.54.96,1.04,1.45,1.37.5.37.92.38.91.35.03.04.35-.32.49-.91.16-.57.23-1.27.24-1.97,0-.37,0-.68-.03-1.12-.08-.75-.12-1.46-.28-2.33l-.44-2.54-.45-2.48,1.94,1.71c.67.59,1.34,1.18,1.98,1.72.33.28.66.57.95.77l.89.66c.31.2.61.41.93.58.62.36,1.26.65,1.83.8.59.17.98.05.97.02.05.02.23-.44.16-1.04-.04-.6-.21-1.28-.44-1.94-.12-.35-.23-.63-.4-1.05-.32-.68-.6-1.33-1.04-2.08l-1.25-2.22-1.24-2.16,2.39.95c.82.33,1.64.65,2.43.95.4.16.8.31,1.15.4l1.04.31c.36.09.72.18,1.07.24.7.13,1.41.19,2,.14.28-.03.56-.08.71-.16.16-.08.2-.13.22-.16.06-.02.07-.52-.2-1.08-.24-.55-.63-1.14-1.08-1.69-.11-.14-.22-.28-.34-.41l-.18-.2-.09-.1s-.06-.07-.13-.14c-.5-.51-.96-1-1.62-1.56-.6-.54-1.25-1.09-1.89-1.64l-1.85-1.59c1.99.04,4.24.17,6.12.11.46-.02.97-.05,1.24-.08l.66-.07.33-.05.39-.06c.46-.09.92-.19,1.37-.29,1.19,1.35,2.36,2.7,3.54,4.04,1.08,1.04,2.15,2.07,3.22,3.09,1.16.92,2.28,1.87,3.44,2.76,1.22.8,2.4,1.66,3.63,2.4,4.96,2.96,10.35,4.9,15.76,5.66,5.41.76,10.82.32,15.69-1.26,2.44-.77,4.74-1.86,6.86-3.15l.81-.46.74-.55c.4-.3.81-.59,1.21-.88l.18-.12c0-.05-.08-.12-.11-.17.03.07-.5-.74-.83-1.23-2.78-4.49-3.75-9.39-4.73-13.85-.95-4.48-1.87-8.73-3.55-12.42-1.64-3.71-4.09-6.73-6.94-8.96-1.44-1.1-2.94-2.02-4.47-2.8-.76-.4-1.54-.71-2.3-1.06-.58-.22-1.15-.43-1.72-.65l-.84-.32-.42-.16c-.06-.03-.15-.05-.2-.08l-.07-.1c.37-.33.74-.61,1.1-.96.33-.34.78-.68.95-1.01.27-.39.35-.8.33-1.2-.05-.81-.74-1.58-1.51-2.13-.12-.08-.15-.13-.33-.22l-.49-.26c-.29-.19-.72-.32-1.12-.47-.2-.07-.42-.14-.59-.21l-.41-.22-.4-.22c-.14-.08-.17-.11-.27-.16-.33-.23-.58-.34-.84-.44-.1-.07.04-.12.08-.14l.18-.1.36-.19c.06-.03.11-.06.19-.09l.49-.12c.32-.08.64-.16.95-.24.64-.14,1.19-.35,1.74-.53.25-.09.6-.18.75-.27.18-.09.35-.18.52-.27.36-.16.65-.39.95-.6.6-.42,1.04-.96,1.37-1.51.12-.29.25-.57.31-.86.01-.29.11-.58.03-.85-.15-1.12-.92-1.96-1.63-2.54-.38-.28-.76-.49-1.09-.71-.36-.17-.69-.32-.99-.46-1.2-.49-1.87-.69-1.84-.77Z"/>
      </g>
      <g>
        <path class="cls-4" d="M109.52,35.25c-.88,0-1.71-.18-2.5-.45-2.21,2.17-3.75,7.12-3.75,12.89,0,1.69.14,3.31.38,4.81,3.59.85,7.65,2.53,10.66,4.2.91-2.44,1.46-5.59,1.46-9.02,0-5.77-1.54-10.72-3.75-12.89-.79.27-1.62.45-2.5.45Z"/>
        <path class="cls-1" d="M109.52,35.25c0-.11.22-.2.62-.34.43-.15.81-.27,2.03-.78.5.38,1.19,1.1,1.53,1.59.42.56.82,1.21,1.18,1.94.73,1.46,1.31,3.25,1.69,5.28.39,2.02.57,4.28.48,6.7-.05,1.21-.17,2.46-.39,3.73-.11.64-.25,1.28-.42,1.93l-.1.39-.14.45-.29.89c-.21.58-.41,1.17-.62,1.76-.51-.28-1.02-.55-1.54-.83l-.78-.42-.7-.36c-.51-.25-1.03-.5-1.56-.74-1.31-.59-2.62-1.11-3.91-1.57-.65-.23-1.29-.44-1.93-.63l-.48-.14-.96-.26-.48-.13-.24-.06-.12-.03-.02-.12-.15-.98-.12-.9-.05-.52c-.03-.34-.05-.69-.08-1.02-.04-.68-.05-1.34-.05-2,.02-1.3.11-2.55.27-3.74.33-2.36.91-4.46,1.68-6.17.39-.85.82-1.61,1.27-2.26.26-.34.43-.57.75-.91.32-.35.64-.65.93-.87,1.22.51,1.6.63,2.03.78.4.14.62.23.62.34,0,.1-.23.22-.68.27-.42.07-1.28,0-1.6-.04-.11.11-.22.3-.29.44-.1.16-.29.51-.44.79-.3.61-.59,1.33-.84,2.12-.51,1.6-.87,3.56-1.03,5.75-.08,1.1-.09,2.25-.06,3.45.02.6.06,1.21.12,1.83.03.31.07.62.1.93l.06.47c.02.11.01.07.01.08h0s.01.03.03.03c.01,0,0,0,.03,0l.52.14c.69.19,1.38.4,2.08.63,1.39.47,2.78,1.01,4.17,1.64.56.25,1.11.52,1.66.79.09.05.09.05.09.04h0s0,0,0,0h0s0,0,0,0h0s0,0,0,0c0-.01,0,.04.02-.07.16-.57.29-1.14.41-1.71.23-1.14.38-2.27.47-3.38.17-2.21.12-4.31-.1-6.19-.21-1.88-.59-3.55-1.07-4.92-.45-1.35-1.15-2.56-1.42-2.89-.32.03-1.18.11-1.6.04-.45-.06-.68-.17-.68-.27Z"/>
      </g>
      <g>
        <path class="cls-4" d="M64.52,35.25c.88,0,1.71-.18,2.5-.45,2.21,2.17,3.75,7.12,3.75,12.89,0,1.69-.14,3.31-.38,4.81-3.59.85-7.65,2.53-10.66,4.21-.91-2.44-1.46-5.58-1.46-9.02,0-5.77,1.54-10.72,3.75-12.89.79.27,1.62.45,2.5.45Z"/>
        <path class="cls-1" d="M64.52,35.25c0,.1-.23.22-.68.27-.42.07-1.28,0-1.6-.04-.26.33-.97,1.53-1.41,2.89-.48,1.37-.86,3.04-1.07,4.92-.22,1.88-.27,3.98-.09,6.19.09,1.1.24,2.24.47,3.38.12.57.25,1.14.41,1.71.03.1.02.05.02.07h0s0,0,0,0h0s0,0,0,0h0s0,0,0,0c0,0,0,0,.09-.04.54-.27,1.1-.54,1.66-.79,1.39-.62,2.78-1.17,4.17-1.64.69-.23,1.39-.44,2.08-.63l.52-.14s.02,0,.03,0c.02,0,.03,0,.03-.02h0s0,.02.01-.09l.06-.47c.03-.31.07-.62.1-.93.06-.62.1-1.23.12-1.83.03-1.2.02-2.36-.06-3.45-.16-2.19-.52-4.15-1.03-5.75-.25-.8-.54-1.51-.84-2.12-.15-.28-.34-.63-.44-.79-.08-.15-.18-.33-.29-.44-.32.03-1.18.11-1.6.04-.45-.06-.68-.17-.68-.27,0-.11.22-.2.62-.34.43-.15.81-.27,2.03-.78.29.21.6.52.93.87.32.34.49.58.75.91.46.64.89,1.4,1.27,2.26.77,1.71,1.35,3.81,1.69,6.17.16,1.18.25,2.43.27,3.74,0,.65,0,1.32-.05,2-.02.34-.05.68-.08,1.02l-.05.52-.12.9-.15.98-.02.12-.12.03-.24.06-.48.13-.96.26-.48.14c-.64.19-1.28.4-1.93.63-1.29.46-2.6.98-3.91,1.57-.53.24-1.05.48-1.56.74l-.7.36-.78.42c-.52.28-1.03.56-1.54.83-.21-.59-.41-1.18-.62-1.76l-.29-.89-.14-.45-.1-.39c-.17-.65-.3-1.29-.42-1.93-.22-1.28-.34-2.52-.39-3.73-.09-2.42.09-4.67.48-6.7.38-2.02.97-3.81,1.69-5.28.35-.73.76-1.38,1.18-1.94.34-.49,1.03-1.21,1.53-1.59,1.22.51,1.6.63,2.03.78.4.14.62.23.62.34Z"/>
      </g>
      <g>
        <path class="cls-5" d="M166.01,100.46s-15.7,2.94-24.16.37c-10.41-3.16-17.47-12.45-18.21-21.55s10.59-13.01,14.12-12.27c3.53.74,6.69,5.57,6.69,5.57l-.93-7.25,6.13,2.04-3.53-5.02"/>
        <path class="cls-1" d="M146.13,62.37c.1-.07.52.31,1.21,1.1.8.93,2.16,2.68,4.07,5.22-1.26-.37-2.63-.79-4.13-1.23-.42-.13-.85-.26-1.28-.39-.21-.06-.42-.13-.63-.19l-.17-.05h-.05c-.09-.02-.31-.07-.49-.11.06.27.12.56.18.86.2,1.38.41,2.81.62,4.29-.14.18-.29.35-.45.52l-.24.25-.12.12s-.09.1-.11.06c-.25-.09-.5-.14-1.37.06-.35-.45-.71-.96-1.05-1.31l-.52-.59-.53-.52-.27-.26c-.08-.08-.2-.19-.23-.21l-.29-.23c-.19-.16-.39-.29-.59-.44-.79-.56-1.67-.98-2.47-1.05-.84-.07-1.94.12-2.98.39-1.05.31-2.1.72-3.11,1.24-2,1.05-3.89,2.55-4.99,4.51l-.39.75c-.13.25-.18.53-.28.79-.23.52-.25,1.09-.36,1.64-.05.57-.03,1.14,0,1.74.1.62.12,1.25.27,1.87.62,3.29,2.07,6.35,3.9,8.96,1.88,2.59,4.13,4.79,6.6,6.41,2.45,1.63,5.09,2.8,7.59,3.44,2.54.62,5.09.78,7.39.85,4.63.12,8.42-.17,11.03-.33,2.62-.18,4.08-.26,4.11-.06.04.19-1.37.66-3.97,1.18-2.6.51-6.4,1.12-11.18,1.26-2.39.05-5.04.02-7.91-.56-2.88-.62-5.76-1.8-8.53-3.55-2.77-1.73-5.32-4.13-7.44-6.99-2.08-2.89-3.73-6.3-4.45-10.08-.17-.71-.21-1.44-.31-2.16-.03-.75-.05-1.53.02-2.29.13-.76.2-1.53.5-2.24.13-.36.23-.73.4-1.07l.52-1c.76-1.28,1.72-2.41,2.8-3.29,1.06-.93,2.24-1.63,3.42-2.25,1.2-.59,2.43-1.04,3.68-1.38,1.27-.29,2.52-.53,3.97-.38,1.49.19,2.67.88,3.64,1.6.24.19.49.37.7.57l.33.29c.08.07.06.05.07.07l.02.03c.07.08.12.14.19.23.11.14.23.31.35.52.04-.03.01-.24.02-.39v-.3s-.01-.17-.01-.17v-.09s0-.05,0-.05l-.02-.15c-.15-1.33-.29-2.62-.42-3.86,1.01.36,1.98.7,2.93,1.04.2.07.4.14.6.22.13.05.11.05.18.08.1.04.19.09.28.13.55.24,1.06.45,1.53.65-.49-.94-.88-1.68-1.15-2.2-.51-.92-.73-1.44-.63-1.51Z"/>
      </g>
      <g>
        <path class="cls-5" d="M8.03,100.47s15.7,2.94,24.16.37c10.41-3.16,17.47-12.45,18.21-21.56.74-9.11-10.59-13.01-14.12-12.26-3.53.74-6.69,5.58-6.69,5.58l.93-7.25-6.13,2.04,3.53-5.02"/>
        <path class="cls-1" d="M27.91,62.37c.1.07-.12.59-.63,1.51-.27.52-.66,1.26-1.15,2.2.46-.2.97-.42,1.53-.65.09-.04.19-.09.28-.13.06-.03.04-.03.18-.08.2-.07.4-.14.6-.22.94-.34,1.92-.68,2.93-1.04-.14,1.24-.28,2.53-.42,3.86l-.02.15v.05s0,.09,0,.09v.17s-.01.3-.01.3c0,.15-.02.36.02.39.13-.2.24-.37.35-.52.07-.09.12-.15.19-.23l.02-.03s0,0,.07-.07l.33-.29c.22-.2.46-.38.7-.57.97-.72,2.15-1.41,3.64-1.6,1.45-.15,2.7.09,3.97.38,1.25.33,2.48.78,3.68,1.38,1.18.61,2.36,1.31,3.42,2.25,1.08.89,2.04,2.01,2.8,3.29l.52,1c.17.34.27.71.4,1.07.29.71.36,1.48.5,2.24.07.76.05,1.55.02,2.29-.1.71-.14,1.45-.31,2.16-.71,3.78-2.36,7.19-4.45,10.08-2.13,2.86-4.67,5.26-7.44,6.99-2.77,1.75-5.65,2.93-8.53,3.55-2.87.58-5.52.61-7.91.56-4.79-.15-8.58-.76-11.19-1.26-2.6-.52-4-.98-3.97-1.18.04-.2,1.5-.11,4.11.06,2.61.16,6.4.45,11.03.33,2.3-.07,4.85-.23,7.39-.85,2.51-.64,5.15-1.8,7.59-3.44,2.47-1.62,4.72-3.83,6.6-6.42,1.84-2.61,3.28-5.67,3.9-8.96.15-.62.17-1.25.27-1.87.02-.6.04-1.17,0-1.74-.11-.55-.13-1.13-.36-1.64-.1-.26-.15-.54-.28-.79l-.39-.75c-1.11-1.95-3-3.45-4.99-4.51-1.01-.52-2.06-.93-3.11-1.24-1.04-.28-2.14-.46-2.98-.39-.8.06-1.68.48-2.47,1.05-.2.15-.4.28-.59.44l-.29.23s-.14.13-.23.21l-.27.26-.53.52-.52.59c-.34.35-.7.87-1.05,1.31-.87-.2-1.12-.15-1.37-.06-.02.03-.07-.02-.11-.06l-.12-.12-.24-.25c-.16-.17-.31-.34-.45-.52.21-1.47.42-2.9.62-4.29.06-.3.12-.58.18-.86-.18.04-.41.09-.49.1h-.05s-.17.06-.17.06c-.21.06-.42.13-.63.19-.44.13-.86.26-1.28.39-1.49.45-2.87.86-4.13,1.23,1.91-2.54,3.27-4.29,4.07-5.22.69-.79,1.11-1.17,1.21-1.1Z"/>
      </g>
      <g>
        <path class="cls-5" d="M64.4,82.01c-5.48,1.84-9.09,4.29-8.7,6.22.45,2.24,6.2,3.03,13.42,2.02"/>
        <path class="cls-1" d="M69.12,90.24c.06.38-1.31.98-3.66,1.39-1.18.19-2.59.34-4.21.3-.8,0-1.67-.1-2.57-.25-.91-.19-1.87-.42-2.92-1.1-.26-.16-.52-.42-.76-.66-.24-.31-.47-.61-.6-1.04-.3-.8-.14-1.73.15-2.28.58-1.17,1.35-1.72,2.04-2.25,1.41-.99,2.75-1.52,3.89-1.91,2.29-.75,3.78-.8,3.9-.44.14.39-1.13,1.14-3.05,2.3-.95.58-2.09,1.28-3.11,2.15-.48.42-.97.95-1.09,1.3-.08.19-.02.18-.02.18-.02,0,.04.03.05.07.07.05.12.12.23.19.44.29,1.16.54,1.86.71.73.16,1.46.29,2.18.37,1.43.17,2.77.24,3.9.32,2.26.12,3.72.24,3.78.65Z"/>
      </g>
      <g>
        <path class="cls-5" d="M64.4,82.01c-4.22-1.42-6.99-3.3-6.7-4.78.35-1.73,4.77-2.33,10.33-1.56"/>
        <path class="cls-1" d="M68.03,75.67c-.04.31-1.17.41-2.91.5-.87.06-1.9.11-3,.24-.55.06-1.11.16-1.67.28-.54.13-1.1.32-1.44.55-.16.11-.23.2-.21.2,0,0-.05,0,.02.14.09.27.47.68.84,1,.78.67,1.66,1.21,2.39,1.66,1.48.89,2.45,1.46,2.35,1.77-.09.28-1.24.24-3-.33-.88-.3-1.91-.71-3-1.47-.53-.41-1.12-.83-1.57-1.73-.23-.42-.34-1.14-.12-1.75.1-.33.28-.56.46-.8.18-.19.39-.38.59-.51.8-.52,1.55-.7,2.24-.84.7-.12,1.36-.19,1.98-.2,1.24-.03,2.33.08,3.24.23,1.81.32,2.86.78,2.82,1.07Z"/>
      </g>
      <ellipse class="cls-2" cx="109.52" cy="47.69" rx="2.65" ry="5.95"/>
      <g>
        <path class="cls-5" d="M117.32,64.41s3.34-1.86.93-4.83c-2.42-2.97-14.12-8.18-19.7-7.62"/>
        <path class="cls-1" d="M98.56,51.96c-.02-.2.34-.4,1.08-.6.36-.07.81-.12,1.33-.16.51,0,1.11,0,1.75.06,2.58.23,6.01,1.14,9.53,2.78,1.76.82,3.38,1.73,4.79,2.78,1.36,1.01,2.75,2.35,3.02,4.07.14.85-.08,1.67-.42,2.2-.34.54-.74.87-1.07,1.08-.68.42-1.15.43-1.24.26-.1-.18.14-.51.45-1.06.31-.55.62-1.31.29-2.01-.14-.36-.47-.78-.89-1.16l-.33-.29c-.14-.1-.27-.19-.41-.29-.26-.2-.59-.39-.91-.6-1.3-.79-2.85-1.58-4.5-2.35-3.31-1.54-6.43-2.69-8.7-3.39-2.27-.75-3.71-.88-3.78-1.31Z"/>
      </g>
      <ellipse class="cls-3" cx="137.61" cy="25.96" rx="11.18" ry="6.01"/>
      <g>
        <polyline class="cls-5" points="98.3 17.77 101.66 10.85 105.01 17.77"/>
        <path class="cls-4" d="M98.97,18.09c.6-1.26,1.19-2.49,1.74-3.65.27-.58.54-1.15.79-1.71l.09-.21v-.02s.02-.05.02-.05l.04-.13.06.07.04.05s0-.01.09.15c.25.46.48.9.71,1.31.45.82.85,1.54,1.2,2.12.69,1.16,1.14,1.8,1.26,1.74.12-.06-.1-.81-.59-2.07-.24-.63-.56-1.39-.92-2.25-.19-.43-.39-.89-.59-1.37-.4-.86-.82-1.76-1.25-2.7-.69,1.38-1.44,2.87-2.23,4.44-.57,1.16-1.17,2.37-1.79,3.63l1.34.65Z"/>
      </g>
      <g>
        <path class="cls-5" d="M104.66,26.24s7.32-5.82.37-9.95c-5.87-3.49-8.29,3.01-18.02,3.01"/>
        <path class="cls-1" d="M87.02,19.3c0-.44,1.75-.68,4.29-1.52,1.27-.44,2.7-1.06,4.32-1.9.82-.41,1.68-.88,2.71-1.31,1.01-.41,2.24-.82,3.63-.74,1.37.08,2.6.56,3.6,1.14.51.29.95.66,1.41.99.42.41.85.8,1.19,1.27.72.94,1.07,2.15,1.06,3.23-.06,1.08-.4,1.97-.8,2.68-.82,1.4-1.78,2.18-2.46,2.66-.7.47-1.18.6-1.3.44-.13-.16.09-.57.49-1.23.39-.66,1.02-1.58,1.41-2.74.19-.57.3-1.19.25-1.77-.1-.57-.3-1.12-.76-1.64-.22-.26-.53-.5-.82-.76-.36-.21-.69-.47-1.07-.67-.77-.41-1.54-.67-2.33-.72-1.56-.08-3.34.86-5.1,1.58-1.76.75-3.49,1.26-4.97,1.47-2.98.39-4.77-.12-4.76-.47Z"/>
      </g>
      <g>
        <path class="cls-5" d="M114.04,38.07s3-1.72,5.58-.6"/>
        <path class="cls-4" d="M114.41,38.71c1.25-.66,2.61-1.02,3.54-1.08.95-.1,1.58.05,1.68-.16.09-.16-.46-.7-1.62-.89-1.16-.2-2.75,0-4.33.84l.74,1.29Z"/>
      </g>
      <g>
        <path class="cls-5" d="M115.73,44.26s3.41-.57,5.45,1.37"/>
        <path class="cls-4" d="M115.86,44.99c1.41-.19,2.8-.05,3.7.2.93.24,1.47.59,1.63.43.14-.12-.19-.82-1.21-1.4-1.02-.59-2.58-.94-4.36-.7l.25,1.46Z"/>
      </g>
      <ellipse class="cls-4" cx="87.02" cy="28" rx="4.6" ry="2.94"/>
      <ellipse class="cls-3" cx="36.42" cy="25.97" rx="11.18" ry="6.01"/>
      <g>
        <polyline class="cls-5" points="75.74 17.77 72.38 10.85 69.02 17.77"/>
        <path class="cls-4" d="M76.4,17.45c-.62-1.26-1.22-2.47-1.79-3.63-.79-1.57-1.54-3.06-2.24-4.44-.44.94-.85,1.84-1.25,2.7-.21.48-.41.94-.59,1.37-.37.86-.68,1.62-.92,2.25-.49,1.26-.71,2.01-.59,2.07.12.06.58-.58,1.26-1.74.34-.58.75-1.3,1.2-2.12.22-.41.46-.85.71-1.31.08-.16.07-.11.09-.15l.04-.05.06-.07.04.13v.05s.02.02.02.02l.1.21c.26.55.52,1.12.79,1.7.56,1.16,1.14,2.39,1.74,3.65l1.34-.65Z"/>
      </g>
      <g>
        <path class="cls-5" d="M69.38,26.24s-7.32-5.82-.38-9.95c5.87-3.49,8.29,3,18.02,3"/>
        <path class="cls-1" d="M87.02,19.3c.01.35-1.78.86-4.76.47-1.47-.21-3.21-.73-4.97-1.47-1.76-.72-3.54-1.66-5.1-1.58-.79.05-1.56.31-2.33.72-.38.2-.71.46-1.07.67-.28.26-.6.5-.82.76-.46.52-.66,1.07-.76,1.64-.04.58.06,1.2.25,1.77.4,1.15,1.03,2.08,1.41,2.74.4.66.62,1.07.49,1.23-.12.16-.6.03-1.3-.44-.68-.48-1.65-1.26-2.46-2.66-.39-.71-.74-1.6-.8-2.68-.01-1.08.34-2.29,1.06-3.23.34-.47.77-.87,1.19-1.27.46-.33.9-.69,1.41-.99,1-.59,2.23-1.07,3.6-1.14,1.39-.08,2.62.33,3.63.74,1.03.42,1.9.89,2.71,1.31,1.62.84,3.05,1.46,4.32,1.9,2.54.84,4.29,1.08,4.29,1.52Z"/>
      </g>
      <ellipse class="cls-2" cx="64.52" cy="47.69" rx="2.65" ry="5.95"/>
      <g>
        <path class="cls-5" d="M56.72,64.42s-3.34-1.86-.93-4.83c2.42-2.97,14.12-8.18,19.7-7.62"/>
        <path class="cls-1" d="M75.48,51.97c-.06.43-1.51.55-3.78,1.31-2.27.7-5.38,1.85-8.7,3.39-1.65.77-3.2,1.56-4.5,2.35-.31.2-.65.39-.91.6-.14.1-.28.2-.41.29l-.33.29c-.42.38-.75.8-.89,1.16-.33.69-.02,1.46.29,2.01.31.55.55.88.45,1.06-.09.17-.56.16-1.24-.26-.33-.22-.73-.54-1.07-1.08-.34-.53-.56-1.35-.42-2.2.27-1.71,1.66-3.05,3.02-4.07,1.4-1.04,3.02-1.96,4.79-2.78,3.52-1.64,6.95-2.55,9.53-2.78.64-.06,1.24-.06,1.75-.06.53.04.97.09,1.33.16.74.2,1.1.4,1.08.6Z"/>
      </g>
      <g>
        <path class="cls-5" d="M59.99,38.07s-3-1.71-5.58-.6"/>
        <path class="cls-4" d="M60.36,37.42c-1.58-.84-3.17-1.04-4.33-.84-1.16.19-1.71.73-1.62.89.09.21.72.06,1.68.16.93.07,2.29.42,3.54,1.08l.74-1.29Z"/>
      </g>
      <g>
        <path class="cls-5" d="M58.3,44.26s-3.41-.57-5.45,1.37"/>
        <path class="cls-4" d="M58.43,43.53c-1.77-.24-3.34.12-4.36.7-1.02.58-1.35,1.28-1.21,1.4.16.16.7-.19,1.63-.43.9-.26,2.29-.39,3.7-.21l.25-1.46Z"/>
      </g>
    </g>
  </g>
</svg>