<?xml version="1.0" encoding="UTF-8"?>
<svg id="_レイヤー_2" data-name="レイヤー 2" xmlns="http://www.w3.org/2000/svg" viewBox="0 0 175.46 176.87">
  <defs>
    <style>
      .cls-1 {
        fill: none;
      }

      .cls-2 {
        fill: #d31421;
      }

      .cls-3 {
        fill: #3a302e;
      }

      .cls-4 {
        fill: #ee8ab5;
      }

      .cls-5 {
        fill: #f2abca;
      }

      .cls-6 {
        fill: #231815;
      }

      .cls-7 {
        fill: #e064a0;
      }

      .cls-8 {
        fill: #fff;
      }

      .cls-9 {
        fill: #f4b7d2;
      }
    </style>
  </defs>
  <g id="_ロゴ_" data-name="ロゴ３">
    <g>
      <g>
        <g>
          <path class="cls-4" d="M52.51,130.4c-.77-2.3-2.27-4.14-4.14-5.39,1.2-2.42,1.49-5.3.55-8.06-1.6-4.73-4.16-20.63-8.92-20.16-2.65-3.53-9.44,7.91-13.85,9.4-5.51,1.86-8.47,7.83-6.61,13.34.42,1.26,1.07,2.37,1.87,3.34-2.1,2.7-2.85,6.36-1.68,9.84.07.22.17.43.25.64-3.65,2.63-5.34,7.42-3.82,11.91.3.9.73,1.73,1.23,2.48-1.89,3.28-2.43,7.32-1.12,11.2,2.41,7.16,10.17,11,17.33,8.59,3.31-1.12,5.9-3.38,7.5-6.2.84-.07,1.69-.23,2.53-.51,4.07-1.37,6.74-4.99,7.12-9.01,2.72-2.74,3.84-6.88,2.52-10.78-.32-.94-.76-1.8-1.29-2.58,1.2-2.42,1.48-5.29.55-8.05Z"/>
          <path class="cls-3" d="M52.51,130.4c.08-.03.49.63.79,2.05.14.71.22,1.62.14,2.69-.05.53-.13,1.11-.28,1.71-.07.3-.17.61-.27.92-.08.2-.15.41-.23.63l.22.3c.07.1.23.36.33.54.23.4.44.84.62,1.3.35.92.63,1.95.73,3.06.22,2.21-.26,4.75-1.68,7.03-.19.27-.36.57-.58.83l-.32.41-.26.3s-.08.08-.07.14l-.03.33c-.06.35-.12.71-.2,1.06-.34,1.41-.95,2.81-1.86,4.06-.91,1.26-2.1,2.39-3.53,3.21-.71.43-1.48.75-2.29,1.03-.41.13-.82.24-1.25.32l-.68.12-.05.1-.29.45c-.24.35-.49.7-.76,1.03-.54.67-1.14,1.3-1.8,1.88-1.32,1.16-2.9,2.11-4.62,2.74-3.44,1.27-7.56,1.26-11.19-.37-3.63-1.57-6.73-4.76-8.11-8.76-.7-1.98-.99-4.15-.79-6.3.1-1.08.31-2.15.64-3.19.16-.52.36-1.03.58-1.54l.32-.68h0s0,0,0,0l-.16-.28-.19-.36c-.24-.48-.45-.99-.62-1.5-.34-1.02-.53-2.1-.59-3.19-.12-2.18.41-4.41,1.48-6.34.36-.68.81-1.3,1.28-1.89.24-.29.51-.56.77-.84.25-.23.68-.62.55-.51h0s0,0,0,0c0,0,0,.02,0,0l-.04-.13-.08-.27c-.19-.73-.32-1.47-.38-2.21-.11-1.49.07-2.99.5-4.4.22-.7.5-1.38.84-2.03.17-.3.38-.68.53-.9h.01s0-.02,0-.02l-.21-.32c-.27-.42-.51-.86-.72-1.3-.43-.9-.71-1.85-.9-2.8-.36-1.92-.28-3.91.3-5.73.57-1.82,1.53-3.49,2.84-4.81,1.3-1.33,2.89-2.33,4.59-2.92,1.17-.38,2.3-1.37,3.4-2.37,1.09-1.02,2.14-2.12,3.2-3.19,1.07-1.07,2.13-2.14,3.38-3.11.64-.47,1.31-.95,2.25-1.25.49-.13,1.08-.22,1.72-.05.3.1.61.24.79.4l.16.11c.06.04.03.02.04.04l.03.04s.04,0,.06,0c.02,0,0,0,.06,0l.24.05c.33.06.61.18.89.32.53.28.96.64,1.3,1.01.69.75,1.15,1.53,1.56,2.3.8,1.55,1.34,3.09,1.82,4.58.94,2.98,1.57,5.79,2.17,8.36.3,1.28.57,2.51.87,3.65.08.28.16.56.24.83.09.3.17.6.24.9.13.6.22,1.19.24,1.77.06,1.16-.06,2.25-.3,3.23-.12.49-.27.96-.44,1.39-.1.26-.13.31-.2.44-.06.12-.12.24-.18.35.39.28,1.36,1.2,1.85,1.87.54.71.91,1.37,1.15,1.93.48,1.11.54,1.75.46,1.77-.1.04-.35-.54-.96-1.5-.31-.48-.73-1.05-1.29-1.65-.63-.63-1.09-1.1-2.59-2.05.11-.26.22-.52.34-.79.1-.26.25-.62.29-.77.13-.4.23-.82.31-1.26.16-.88.21-1.84.1-2.84-.05-.5-.15-1.01-.29-1.52-.07-.26-.15-.51-.24-.77-.1-.29-.19-.58-.29-.87-.37-1.18-.7-2.4-1.05-3.67-.69-2.54-1.42-5.3-2.41-8.14-.5-1.41-1.06-2.86-1.79-4.19-.37-.66-.78-1.29-1.25-1.77-.23-.24-.47-.41-.69-.53-.11-.04-.21-.09-.31-.1l-.07-.02s-.18,0-.27,0h-.58s-.32-.36-.32-.36l-.14-.15-.05-.05c-.08-.09-.11-.06-.13-.09-.04,0-.17,0-.36.05-.41.14-.95.48-1.45.89-1.03.82-2.03,1.87-3.06,2.94-1.03,1.08-2.07,2.21-3.23,3.32-.58.56-1.19,1.11-1.88,1.64-.34.26-.71.52-1.12.76-.2.12-.42.23-.65.34l-.65.26c-2.63.94-4.84,3.19-5.66,6.02-.44,1.4-.47,2.92-.19,4.38.15.73.37,1.45.7,2.13.16.34.34.67.55.99l.16.24.39.52.84,1.04c-.37.52-.77,1.03-1.12,1.56-.21.31-.3.5-.45.76-.25.5-.46,1.02-.63,1.55-.32,1.07-.45,2.21-.37,3.34.04.56.15,1.12.29,1.68l.17.55.36.93.18.46c0,.07.12.17.03.22l-.2.15-.79.62c-.67.51-.7.6-.94.81-.19.21-.4.41-.58.64-.36.45-.71.91-.97,1.43-.81,1.47-1.22,3.15-1.13,4.8.04.82.18,1.64.44,2.42.12.39.28.76.46,1.13l.14.27.19.34c.24.4.52.8.77,1.2l-.71,1.31-.32.66c-.18.41-.34.82-.47,1.24-.27.84-.45,1.71-.53,2.58-.17,1.74.05,3.5.61,5.12,1.1,3.26,3.58,5.88,6.55,7.21,2.97,1.37,6.34,1.43,9.22.44,1.44-.5,2.76-1.26,3.89-2.2.56-.47,1.08-.99,1.54-1.54.23-.28.45-.56.66-.85l.15-.22c.05-.07.09-.13.2-.31l.55-.9c.36-.03.72-.05,1.06-.09l.33-.04.26-.04c.34-.06.67-.14,1-.23.65-.21,1.29-.45,1.86-.78,1.18-.63,2.17-1.52,2.94-2.52.78-1.01,1.32-2.14,1.64-3.3.08-.29.14-.58.2-.87l.09-.63c.04-.12,0-.28.1-.37l.27-.29.38-.41.28-.33c.19-.21.34-.46.51-.68,1.27-1.87,1.78-4.01,1.68-5.92-.04-.96-.23-1.86-.49-2.69-.14-.41-.3-.8-.47-1.17-.1-.2-.16-.32-.31-.58-.16-.26-.31-.51-.47-.75.1-.21.21-.42.31-.63.08-.17.16-.35.24-.52.12-.27.22-.54.31-.81.18-.53.3-1.04.39-1.53.16-.97.19-1.81.15-2.49-.08-1.37-.28-2.09-.16-2.13Z"/>
        </g>
        <g>
          <path class="cls-4" d="M127.23,105.21c-.77-2.3-.7-4.67.03-6.8-2.42-1.19-4.39-3.32-5.32-6.08-1.6-4.73-9.18-18.93-5.1-21.45-.03-4.42,12.3.58,16.71-.91,5.51-1.86,11.48,1.1,13.34,6.61.42,1.26.59,2.54.53,3.79,3.3.87,6.12,3.33,7.29,6.81.07.22.13.44.19.66,4.5-.12,8.74,2.68,10.25,7.16.3.9.47,1.81.52,2.72,3.49,1.47,6.37,4.36,7.67,8.23,2.41,7.16-1.43,14.92-8.59,17.33-3.31,1.12-6.74.88-9.72-.39-.71.46-1.48.84-2.32,1.13-4.07,1.37-8.39.11-11.12-2.86-3.83-.53-7.22-3.15-8.54-7.06-.32-.94-.48-1.89-.53-2.83-2.42-1.2-4.38-3.31-5.31-6.07Z"/>
          <path class="cls-3" d="M127.23,105.21c.12-.04.39.66,1.16,1.79.39.56.91,1.22,1.63,1.89.36.33.77.66,1.24.98.23.16.48.31.74.46.17.09.33.18.5.27.21.1.42.21.63.31.03.29.06.58.08.88.04.3.07.43.11.65.08.4.19.81.33,1.22.29.82.69,1.65,1.24,2.44,1.08,1.58,2.78,2.97,4.92,3.69.27.07.54.17.82.23l.42.09.55.09.39.06c.14,0,.2.16.31.24l.45.45c.22.19.44.39.69.57.95.73,2.07,1.3,3.3,1.63,1.22.33,2.55.44,3.87.23.66-.09,1.32-.28,1.96-.51.32-.12.63-.26.94-.42l.23-.12.29-.17c.3-.18.6-.38.9-.57l.98.38c.2.08.27.09.35.12l.25.09c.34.11.69.2,1.04.28.7.16,1.43.26,2.16.29,1.47.07,2.98-.12,4.43-.6,2.9-.95,5.54-3.04,7.08-5.93,1.55-2.86,1.95-6.45.85-9.71-.54-1.63-1.43-3.16-2.62-4.44-.59-.64-1.26-1.22-1.99-1.73-.36-.25-.74-.49-1.13-.7l-.66-.34-1.36-.61c-.04-.47-.06-.95-.11-1.42l-.05-.38-.05-.3c-.08-.4-.18-.79-.32-1.18-.27-.78-.65-1.51-1.12-2.19-.93-1.37-2.27-2.46-3.8-3.14-.52-.25-1.08-.41-1.64-.55-.28-.07-.57-.1-.85-.16-.32-.01-.41-.07-1.24-.07h-1s-.25-.02-.25-.02c-.09.01-.07-.13-.11-.19l-.14-.48-.28-.96-.2-.53c-.22-.52-.48-1.03-.78-1.51-.61-.95-1.4-1.77-2.31-2.43-.46-.32-.94-.61-1.44-.85-.28-.12-.46-.21-.82-.33-.6-.21-1.23-.37-1.84-.56l.04-1.33v-.65s-.03-.28-.03-.28c-.03-.38-.08-.75-.16-1.12-.14-.74-.41-1.44-.73-2.12-.66-1.33-1.61-2.52-2.8-3.36-2.36-1.76-5.48-2.21-8.15-1.37l-.68.18c-.24.05-.49.09-.72.12-.47.05-.91.08-1.35.07-.87,0-1.69-.07-2.49-.16-1.59-.19-3.11-.46-4.58-.69-1.46-.23-2.9-.45-4.21-.49-.65-.02-1.28.03-1.69.17-.19.07-.29.15-.32.18,0,.04-.04.03-.05.15v.07s-.03.2-.03.2l-.04.48-.46.36c-.07.05-.18.13-.21.16l-.05.06c-.08.06-.13.17-.19.27-.1.22-.2.51-.23.84-.08.66-.03,1.42.07,2.16.22,1.5.65,2.99,1.11,4.42.93,2.86,2.02,5.49,3.01,7.93.49,1.22.97,2.39,1.39,3.56.1.29.2.58.3.87.09.26.17.51.27.76.2.49.43.96.69,1.39.52.86,1.14,1.6,1.8,2.2.33.3.67.58,1.01.82.13.1.46.3.7.44.26.15.51.29.75.43-.61,1.66-.7,2.32-.82,3.2-.08.82-.07,1.53-.03,2.1.1,1.14.25,1.74.14,1.78-.08.03-.42-.51-.71-1.69-.14-.59-.25-1.34-.25-2.23-.02-.83.2-2.15.34-2.61-.12-.05-.24-.11-.36-.17-.14-.07-.19-.09-.42-.24-.4-.24-.8-.52-1.2-.84-.79-.64-1.55-1.43-2.19-2.39-.33-.48-.62-1-.88-1.56-.13-.28-.25-.57-.36-.86-.1-.26-.21-.53-.31-.8-.45-1.08-.97-2.23-1.51-3.43-1.08-2.4-2.28-5.03-3.34-7.97-.52-1.48-1.02-3.02-1.33-4.74-.14-.86-.25-1.77-.15-2.78.05-.5.17-1.05.42-1.59.14-.28.29-.55.52-.79l.16-.19s.02-.02.04-.04c.01-.01.03-.02.04-.04v-.05s0,.02.01-.06l.06-.19c.04-.23.21-.53.38-.8.41-.53.93-.81,1.4-1,.93-.32,1.75-.35,2.55-.36,1.58.01,3.07.22,4.57.43,1.5.21,2.99.45,4.48.6,1.48.13,2.98.24,4.14-.17,1.71-.55,3.58-.72,5.42-.45,1.84.26,3.62,1.01,5.18,2.11,1.57,1.09,2.83,2.63,3.71,4.38.43.88.78,1.8.98,2.78.1.48.18.98.22,1.47l.03.38h0s.02.01.02.01c.25.08.65.26.97.4.66.32,1.3.69,1.9,1.11,1.2.86,2.25,1.95,3.06,3.2.41.63.75,1.3,1.04,1.99l.1.26.05.13s0,0,0,0h0s0,0,0,0c-.17-.02.41.04.75.07.37.06.75.12,1.12.2.74.18,1.47.4,2.16.72,2.02.89,3.79,2.34,5.02,4.15.62.9,1.12,1.88,1.46,2.9.18.51.32,1.04.42,1.57l.07.4.05.32h0s0,0,0,0l.67.35c.48.27.94.56,1.39.87.89.63,1.71,1.35,2.44,2.15,1.46,1.6,2.55,3.49,3.19,5.5,1.32,4.02.78,8.43-1.15,11.88-1.91,3.49-5.17,5.99-8.68,7.07-1.76.54-3.58.74-5.34.62-.88-.06-1.74-.2-2.57-.41-.42-.1-.83-.23-1.23-.36l-.5-.18-.1-.05-.61.32c-.39.19-.78.36-1.19.5-.81.27-1.62.48-2.45.57-1.64.21-3.27.04-4.76-.41-1.49-.45-2.82-1.19-3.94-2.11-.28-.23-.54-.47-.8-.72l-.23-.24c-.03-.05-.08-.06-.14-.07l-.39-.08-.5-.13c-.33-.08-.65-.21-.96-.31-2.51-.96-4.43-2.69-5.59-4.58-.59-.94-.99-1.92-1.27-2.87-.13-.48-.23-.95-.29-1.41-.03-.21-.06-.51-.07-.63,0-.12,0-.25,0-.37-.19-.12-.38-.24-.57-.36-.27-.19-.53-.37-.78-.57-.48-.39-.9-.79-1.26-1.19-.71-.8-1.19-1.57-1.51-2.22-.63-1.31-.7-2.08-.61-2.11Z"/>
        </g>
        <g>
          <path class="cls-8" d="M70.04,59.01c-43.39,14.63-52.8,13.54-46.83,31.24.94,2.79,13.27,13.18,16.56,23.41,5.59,17.37,15.34,21.78,51.89,9.45,36.55-12.32,41.64-21.73,35.57-38.94-3.58-10.14-.06-25.87-1-28.66-5.97-17.7-12.79-11.13-56.19,3.5Z"/>
          <path class="cls-3" d="M70.04,59.01c-.03-.1.96-.54,2.87-1.29,1.93-.74,4.75-1.81,8.39-3.2,3.65-1.37,8.12-3.05,13.3-4.99,2.6-.96,5.39-1.98,8.38-2.97,3.01-.97,6.2-2.01,9.78-2.54,1.79-.25,3.72-.36,5.72.11,1.99.48,3.91,1.77,5.15,3.44,1.28,1.65,2.16,3.5,2.92,5.39.2.47.37.95.54,1.43l.26.72c.08.31.16.69.2,1.01.09,1.16.03,2.19-.03,3.23-.26,4.14-.67,8.31-.64,12.6-.01,2.15.13,4.3.4,6.45.08.53.16,1.07.24,1.61.11.53.23,1.05.35,1.58.28,1.06.58,2.02.98,3.17.74,2.24,1.41,4.57,1.72,7.04.31,2.46.32,5.08-.38,7.63-.63,2.57-2.02,4.92-3.67,6.94-1.7,2-3.7,3.7-5.81,5.19-4.24,2.99-8.93,5.26-13.73,7.34-4.82,2.05-9.78,3.87-14.84,5.58-5.06,1.7-10.12,3.26-15.19,4.55-5.08,1.25-10.18,2.28-15.37,2.47-2.59.09-5.2-.05-7.77-.61-2.55-.61-5.07-1.64-7.13-3.3-2.1-1.61-3.68-3.7-4.92-5.84-1.24-2.16-2.13-4.41-2.89-6.64-.38-1.16-.73-2.11-1.14-3.12l-.68-1.47-.78-1.43c-1.08-1.88-2.28-3.68-3.59-5.38-2.58-3.43-5.43-6.51-8.14-9.64-.68-.8-1.34-1.58-1.98-2.55-.16-.28-.32-.63-.45-.92l-.23-.73c-.15-.49-.31-.97-.44-1.46-.54-1.96-.96-3.97-.94-6.05-.02-2.07.72-4.26,2.01-5.85,1.3-1.59,2.91-2.67,4.48-3.55,3.18-1.75,6.34-2.85,9.32-3.9,2.99-1.02,5.82-1.9,8.47-2.71,5.3-1.59,9.87-2.96,13.6-4.08,3.73-1.1,6.63-1.95,8.61-2.53,1.98-.56,3.03-.81,3.06-.71.03.1-.96.53-2.88,1.27-1.92.74-4.76,1.77-8.45,3.05-3.7,1.25-8.21,2.78-13.45,4.55-2.62.89-5.42,1.83-8.35,2.9-2.91,1.1-6.02,2.26-8.92,3.94-1.44.84-2.81,1.84-3.81,3.1-.97,1.27-1.49,2.81-1.46,4.54,0,1.72.4,3.55.94,5.39.12.46.28.92.43,1.38l.23.7.23.42c.48.71,1.13,1.48,1.79,2.23,2.69,3.03,5.64,6.15,8.35,9.67,1.37,1.74,2.65,3.63,3.83,5.63.28.51.57,1.02.85,1.53.25.53.51,1.07.77,1.61.46,1.08.9,2.29,1.25,3.31,1.47,4.21,3.47,8.47,6.98,11.16,1.72,1.37,3.82,2.22,6.05,2.75,2.25.48,4.63.61,7.05.51,4.85-.19,9.8-1.2,14.77-2.43,4.96-1.27,9.96-2.81,14.97-4.5,5.01-1.69,9.92-3.49,14.64-5.49,4.7-2.02,9.25-4.23,13.22-7.01,1.98-1.39,3.8-2.93,5.3-4.68,1.45-1.77,2.61-3.72,3.15-5.85,1.17-4.26.18-8.87-1.2-13.11-.35-1.02-.73-2.25-1.01-3.39-.12-.58-.24-1.16-.36-1.74-.08-.58-.17-1.16-.25-1.73-.27-2.3-.39-4.58-.36-6.8.02-4.44.49-8.71.79-12.75.07-1,.12-2,.07-2.86l-.08-.47-.24-.69c-.16-.46-.31-.92-.49-1.36-.68-1.79-1.48-3.48-2.52-4.86-1.02-1.4-2.37-2.31-3.91-2.73-1.56-.4-3.26-.36-4.91-.16-3.33.43-6.51,1.38-9.48,2.27-2.98.92-5.78,1.86-8.4,2.74-5.25,1.76-9.77,3.28-13.46,4.52-3.71,1.21-6.6,2.11-8.57,2.69-1.97.57-3.03.83-3.06.73Z"/>
        </g>
        <circle class="cls-5" cx="50.81" cy="113.68" r="8.18"/>
        <circle class="cls-5" cx="118.46" cy="90.87" r="8.18"/>
        <g>
          <path class="cls-9" d="M137.12,45.85c-1.7-5.05-6.98-7.88-12.07-6.64,4.82-8.7-3.06-20.41-12.91-19.24-2.46-9.86-14.16-14.88-23.02-9.93-2.57-3.16-6.9-4.58-10.99-3.28-3.14-4.14-9.64-5.15-13.94-1.92-7.3-7.32-20.92-2.72-22.29,7.52-5.38.03-9.94,4.78-9.93,9.97-4.05,1.44-6.63,5.19-6.77,9.26-10.04,1.43-16.31,12.51-12.3,21.84-8.55,5.03-7.72,19.11,1.38,23.12-8.87,3.45-7.52,17.42,1.7,19.24-4.19,12.44,15.42,18.77,19.35,6.33,4.61-.33,8.49-4.14,9.12-8.49,7.17,1.33,14.58-4.44,15.23-11.49,11.53,6.36,27.3,1.04,32.62-11,4.79,5.22,14.18,5.32,19.08-.07,3.14,3.08,8.54,3.76,12.4,1.23,10.67,7.52,22.43-9.4,11.56-16.76,2.14-2.63,2.93-6.25,1.77-9.7Z"/>
          <g>
            <path class="cls-1" d="M137.12,45.85c-1.7-5.05-6.98-7.88-12.07-6.64,4.82-8.7-3.06-20.41-12.91-19.24-2.46-9.86-14.16-14.88-23.02-9.93-2.57-3.16-6.9-4.58-10.99-3.28-3.14-4.14-9.64-5.15-13.94-1.92-7.3-7.32-20.92-2.72-22.29,7.52-5.38.03-9.94,4.78-9.93,9.97-4.05,1.44-6.63,5.19-6.77,9.26-10.04,1.43-16.31,12.51-12.3,21.84-8.55,5.03-7.72,19.11,1.38,23.12-8.87,3.45-7.52,17.42,1.7,19.24-4.19,12.44,15.42,18.77,19.35,6.33,4.61-.33,8.49-4.14,9.12-8.49,7.17,1.33,14.58-4.44,15.23-11.49,11.53,6.36,27.3,1.04,32.62-11,4.79,5.22,14.18,5.32,19.08-.07,3.14,3.08,8.54,3.76,12.4,1.23,10.67,7.52,22.43-9.4,11.56-16.76,2.14-2.63,2.93-6.25,1.77-9.7Z"/>
            <path class="cls-3" d="M137.12,45.85s.14.19.31.61c.14.42.34,1.07.44,1.95.1.88.08,2-.2,3.29-.15.64-.37,1.32-.69,2.02-.15.34-.36.72-.54,1.03-.14.24-.3.47-.46.69.21.18.5.35.72.53.34.33.74.61,1.06,1.01.71.72,1.28,1.63,1.75,2.65.94,2.05,1.04,4.66.23,7.16-.81,2.49-2.5,4.94-5.07,6.6-1.28.82-2.81,1.39-4.45,1.56-1.64.17-3.38-.1-4.95-.81-.38-.2-.79-.35-1.15-.59l-.25-.15-.1-.06s-.07.04-.11.07c-.09.05-.12.08-.25.15l-.61.29c-.41.18-.84.34-1.28.47-1.75.52-3.66.61-5.53.21-.94-.19-1.86-.51-2.73-.95-.45-.21-.86-.48-1.28-.75l-.35-.25-.17-.14s-.06,0-.09.03l-.09.1-.19.19s-.14.12-.23.19l-.3.23-.6.47c-.42.28-.86.54-1.29.8-.46.22-.92.45-1.39.65-3.81,1.52-8.39,1.46-12.38-.57-.48-.29-.98-.55-1.43-.88l-.57-.43s-.09-.07-.13-.11l-.13-.12s-.1.18-.15.26l-.3.6s-.01.03-.05.09l-.11.17-.23.35-.46.7c-.31.47-.61.95-.99,1.37l-1.09,1.31c-.38.42-.81.8-1.21,1.21-.79.84-1.75,1.48-2.64,2.22-.49.31-.98.63-1.47.95-.48.33-1,.61-1.53.87-2.06,1.14-4.35,1.9-6.69,2.44-2.36.55-4.83.65-7.31.51-.62-.07-1.24-.14-1.86-.21-.62-.08-1.23-.26-1.85-.38l-.93-.21-.9-.31-.91-.31-.45-.16-.11-.04-.04-.02-.07-.03-.56-.26c-.13-.08-.08,0-.1.03,0,.03,0,.07-.01.1,0,.01,0,0,0,0l-.06.23-.13.49c-.08.33-.24.64-.35.96-.22.65-.58,1.23-.89,1.84-1.4,2.33-3.4,4.31-5.83,5.63-.59.36-1.25.6-1.88.89-.67.21-1.32.47-2.02.59-.68.18-1.39.24-2.1.31-.35.03-.71,0-1.07.01h-.54c-.09,0-.07,0-.11-.01-.04,0-.1-.01-.13-.01v.06s0-.03-.02.05l-.08.27c-.05.18-.12.35-.19.52-.12.35-.27.69-.44,1.02-.65,1.33-1.55,2.52-2.66,3.51-1.1.99-2.39,1.79-3.8,2.32-.36.11-.72.24-1.09.33l-.56.12-.29.06s-.06,0-.06.02l-.02.06c-.06.18-.13.35-.22.52-.61,1.37-1.52,2.67-2.7,3.7-1.18,1.03-2.61,1.77-4.1,2.17-3.01.8-6.21.37-8.96-.99-2.75-1.33-5.15-3.83-6-7-.43-1.57-.46-3.23-.16-4.79l.06-.31h0s-.12-.04-.12-.04l-.25-.07s-.27-.13-.43-.2l-.55-.27c-3-1.46-4.94-4.46-5.7-7.55-.66-3.12-.31-6.59,1.58-9.39.41-.73,1.04-1.31,1.6-1.93.3-.29.66-.52.99-.78.05-.02.01,0,.02-.01l-.6-.45c-2.46-1.93-4.05-4.74-4.77-7.65-.72-2.92-.67-6.02.3-8.86.51-1.41,1.15-2.79,2.1-3.98.23-.3.45-.6.7-.89l.82-.79c.28-.25.53-.54.85-.74l.38-.27h.02s0-.02,0-.02h0s-.14-.41-.14-.41c-.26-.69-.35-1.42-.53-2.12-.13-.72-.16-1.45-.24-2.17,0-.72,0-1.45.05-2.17.52-5.77,3.94-11.03,8.85-13.82.61-.34,1.26-.62,1.89-.92.66-.23,1.33-.46,1.99-.67l.82-.17s.03,0,.04,0v-.05c.05-.36.12-.71.21-1.07.65-2.82,2.39-5.33,4.75-6.93.29-.21.6-.38.91-.56.15-.09.32-.16.47-.24l.38-.18s.04.02.04-.04v-.08s0-.04,0-.04l.03-.17c.17-1.42.64-2.78,1.31-3.99,1.36-2.43,3.54-4.34,6.1-5.32,1.14-.5,3.21-.73,2.73-.68,0-.02.01-.05.02-.09.07-.29.13-.64.23-.95.24-.62.47-1.24.72-1.84,1.14-2.38,2.98-4.35,5.12-5.71,4.26-2.74,9.78-3.29,14.26-1.22.58.21,1.09.56,1.61.88.26.16.52.32.77.49l.64.55c.08.08.12.15.2.07l.07-.04.4-.21c.27-.14.53-.29.82-.39,2.26-.97,4.76-1.09,7.04-.57,1.14.27,2.24.7,3.25,1.29l.74.47.69.53c.24.17.43.39.65.59l.31.3.09.1s.1.17.15.13l.07-.02h.04s0-.01,0-.01c0,0-.06.01-.01,0l.1-.02c.56-.12,1.12-.2,1.68-.24,1.13-.07,2.26.03,3.34.29,1.08.26,2.11.68,3.06,1.23.47.28.92.59,1.35.92l.62.53.29.28.13.13s.01.01.02.02l.12.14s.1-.04.16-.05l.38-.18c.23-.1.46-.23.7-.3.48-.16.97-.32,1.45-.48.48-.15.99-.22,1.47-.32,3.96-.73,7.94.09,11.18,1.84,1.6.91,3.1,1.97,4.29,3.29l.46.48.41.52c.27.35.55.69.79,1.04.43.75.95,1.45,1.25,2.25.17.39.36.77.51,1.16.09.3.18.6.27.9l.06.22c.06.03.15,0,.22,0,.29,0,.59-.02.88-.03,1.64.12,3.24.43,4.64,1.11,2.85,1.26,5.03,3.39,6.43,5.73,1.42,2.34,2.14,4.89,2.17,7.28,0,.3,0,.6,0,.89-.02.29-.07.58-.1.87-.07.57-.14,1.14-.32,1.66-.07.25-.14.49-.22.73-.03.14-.1.29-.17.43l-.21.43-.1.21-.05.11s-.06.09,0,.06c.36-.07.72-.12,1.09-.13.09,0,.19,0,.27,0h.42c.29,0,.58.06.86.08,1.12.15,2.13.44,3.02.84,1.77.82,3.02,1.94,3.83,2.96.82,1.03,1.21,1.96,1.46,2.57.2.64.28.96.23.98-.14.06-.47-1.3-2.12-3.18-.84-.91-2.06-1.89-3.73-2.56-.83-.33-1.78-.56-2.8-.65-.26,0-.51-.05-.78-.04h-.42c-.2.01-.38.02-.59.05-.41.06-.83.13-1.25.19-.42.09-.84.17-1.27.26-.04-.01.02-.11.04-.18l.1-.23.21-.47c.14-.32.28-.64.42-.96.15-.32.3-.65.4-1.02.07-.26.13-.52.2-.78.16-.48.2-.99.25-1.51.02-.26.07-.52.07-.78-.01-.27-.02-.53-.03-.8-.09-2.16-.79-4.45-2.13-6.54-1.32-2.09-3.33-3.95-5.84-5-1.24-.58-2.63-.8-4.03-.89-.47.02-.95.04-1.43.07l-.47.02h-.23s-.12.02-.12.02c-.05.01-.08,0-.08-.05l-.29-.89c-.15-.45-.29-.9-.44-1.36-.14-.34-.32-.68-.47-1.02-.28-.7-.75-1.31-1.14-1.97-.23-.31-.48-.6-.72-.91l-.37-.46-.42-.41c-1.07-1.16-2.42-2.07-3.85-2.86-2.9-1.51-6.42-2.17-9.85-1.49-.42.1-.86.16-1.28.3-.42.14-.83.29-1.25.43-.21.06-.4.18-.61.27l-.91.44-.57.27-.29.14-.14.07c-.05.04-.07-.06-.11-.08l-.85-.94c-.07-.08-.14-.16-.23-.24l-.13-.13-.23-.23-.5-.42c-.35-.26-.71-.51-1.09-.72-.76-.43-1.59-.76-2.46-.95-.87-.2-1.76-.27-2.66-.2-.45.04-.89.1-1.34.2l-.08.02-.19.05-.33.09-.67.18c-.1.01-.24.11-.32.05l-.21-.25-.43-.5-.42-.49-.25-.23c-.17-.15-.32-.32-.51-.45l-.54-.41-.58-.36c-.8-.45-1.68-.79-2.59-.99-1.83-.39-3.82-.27-5.55.49-.22.07-.43.21-.65.32l-.32.17-.61.41-.63.42c-.1.07-.21.15-.32.21l-.29-.25-1.15-.98-.61-.53c-.2-.14-.42-.26-.63-.39-.42-.26-.83-.54-1.31-.7-3.62-1.66-8.27-1.19-11.8,1.12-1.77,1.15-3.24,2.76-4.14,4.67l-.57,1.48c-.08.26-.11.5-.18.79l-.36,1.67-.04.21c-.03.05,0,.18-.09.16l-.43.03-.86.05c-.72.03-.79.08-1.09.13-.27.03-.51.1-.76.18-.25.06-.5.14-.74.25-1.94.75-3.65,2.25-4.67,4.12-.51.94-.85,1.96-.97,3.01l-.02.1v.2s-.03.42-.03.42l-.04.85v.21s0,.07-.02.1l-.11.04-.42.17-.84.34-.15.06-.04.02-.09.05-.18.09c-.12.06-.25.11-.36.19-.23.14-.47.26-.68.43-1.78,1.21-3.1,3.13-3.58,5.27-.07.27-.11.54-.15.81-.07.58-.11,1.23-.17,1.85.05.21-.17.18-.31.22l-.46.1-.91.19-1.06.22-1.65.56c-.52.26-1.06.49-1.57.77-4.07,2.32-6.97,6.8-7.38,11.6-.04.6-.03,1.2-.04,1.8.08.6.1,1.2.21,1.79.16.58.22,1.19.44,1.75l.53,1.48c.1.31.26.64.3.93l-.82.57-1.24.87c-.26.15-.44.38-.66.58l-.64.61c-.19.23-.36.47-.54.7-.75.92-1.24,2.03-1.66,3.15-.78,2.29-.81,4.85-.23,7.23.59,2.38,1.87,4.61,3.78,6.09l.38.29.31.24c.16.14.33.22.5.31l2,1.08,1,.54.5.27s.11.04.1.07l-.12.06-.25.13-2,1.02-1.01.51c-.18.09-.36.17-.53.27l-.41.31c-.24.19-.5.35-.72.55-.39.46-.87.85-1.15,1.4-1.39,2.02-1.68,4.71-1.18,7.14.61,2.4,2.04,4.61,4.19,5.64l.39.2c.17.07.17.13.54.22l1.77.52.44.13.22.06.11.03c.05,0,.05.04.03.08l-.28,1.01-.28,1.01-.07.25c-.02.07-.02.03-.04.18v.06s-.05.22-.05.22c-.23,1.19-.2,2.39.1,3.51.6,2.25,2.33,4.14,4.5,5.21,2.16,1.08,4.71,1.41,6.95.81,2.25-.58,4.07-2.16,5-4.3.07-.13.12-.26.17-.4l.33-.87.17-.46.09-.23c.02-.09.14-.04.21-.07l.95-.11.47-.06.22-.05.41-.09c.27-.07.54-.16.81-.24,1.06-.39,2.05-1,2.9-1.76.85-.75,1.55-1.68,2.05-2.68.13-.25.24-.5.34-.77.05-.13.11-.26.14-.39l.17-.62c.12-.64.26-1.22.4-1.83.01-.03.01-.08.03-.11h.11s.22.04.22.04l.44.06.89.11.85.1h.43c.28,0,.57.02.85,0,.57-.06,1.13-.1,1.69-.24.56-.09,1.1-.31,1.64-.47.52-.24,1.06-.42,1.55-.72,2.02-1.07,3.69-2.72,4.85-4.62.25-.49.55-.97.73-1.49.09-.26.23-.5.29-.77l.11-.39.06-.21c.04-.15.1-.3.11-.45l.3-1.71c.15-.46.03-1.49.65-.92.91.44,1.82.87,2.72,1.31l.34.16.16.08.1.03.4.14.8.28.8.28.82.19c.55.11,1.09.28,1.65.36.56.07,1.11.14,1.67.2,2.22.14,4.46.08,6.6-.41,2.13-.47,4.22-1.13,6.09-2.16.48-.23.95-.48,1.39-.77l1.34-.84c.81-.67,1.7-1.23,2.41-1.99.37-.36.76-.7,1.11-1.08l.99-1.17c.35-.37.62-.8.9-1.22l.42-.63.21-.31.11-.16c.04-.05.09-.17.14-.26.38-.74.76-1.47,1.14-2.21l.28-.55.14-.27.07-.14s.08.05.12.07l1.01.94c.34.31.66.63,1.02.95l.66.51c.37.28.79.5,1.18.75,3.31,1.74,7.32,1.87,10.59.61.41-.16.79-.36,1.19-.54.37-.22.74-.44,1.1-.66l.51-.39.25-.19c.09-.07.15-.09.3-.26l.8-.78.4-.39.2-.19c.03-.06.07-.03.1.01l.11.09.86.75c.15.12.29.26.45.37l.29.22c.34.23.67.46,1.04.63.71.38,1.48.66,2.26.82,1.56.36,3.17.31,4.63-.1.37-.1.72-.23,1.06-.37l.51-.23.81-.46c.14-.07.28-.18.41-.22l.41.26.78.5c.31.22.65.34.97.52,2.65,1.29,5.65.9,7.89-.48,2.26-1.38,3.84-3.53,4.61-5.73.78-2.2.76-4.49,0-6.31-.38-.91-.86-1.74-1.47-2.41-.27-.37-.63-.64-.93-.95-.47-.4-.95-.73-1.35-1.08.35-.43.68-.86.97-1.28.23-.36.4-.64.57-.97.32-.63.56-1.25.74-1.84.33-1.19.42-2.24.4-3.09-.06-1.7-.38-2.56-.28-2.59Z"/>
          </g>
        </g>
        <g>
          <path class="cls-9" d="M108.73,66.92c1.8,5.33,7.58,8.2,12.91,6.4,2.67-.9,4.72-2.79,5.88-5.13"/>
          <path class="cls-3" d="M127.52,68.19c.33.14.18,1.67-1.35,3.56-.77.92-1.9,1.88-3.38,2.57-1.47.67-3.28,1.08-5.18.96-1.9-.13-3.64-.78-5-1.65-1.37-.88-2.37-1.98-3-3-1.3-2.06-1.2-3.63-.87-3.71.43-.15,1.05,1.07,2.49,2.43,1.38,1.38,3.73,2.83,6.59,3.03,1.42.09,2.77-.15,3.96-.54,1.18-.41,2.18-.99,2.97-1.57,1.59-1.17,2.4-2.27,2.78-2.08Z"/>
        </g>
        <g>
          <path class="cls-9" d="M115.1,62.8c-.39,5.18-3.8,9.87-9.04,11.64-6.98,2.35-14.54-1.4-16.89-8.37"/>
          <path class="cls-3" d="M89.17,66.07c.43-.16,1.23,1.77,3.44,3.91,1.1,1.06,2.6,2.1,4.44,2.81,1.82.74,4.01,1.05,6.24.79,1.11-.17,2.18-.43,3.17-.83.98-.4,1.88-.91,2.68-1.48,1.61-1.14,2.78-2.55,3.59-3.84,1.63-2.62,1.91-4.69,2.37-4.64.19.01.37.54.36,1.52,0,.98-.2,2.41-.9,4.06-.69,1.64-1.91,3.49-3.77,5.02-.93.77-2.01,1.45-3.21,1.99-1.21.53-2.53.88-3.92,1.09-2.78.33-5.51-.16-7.67-1.22-2.18-1.02-3.84-2.49-4.91-3.91-2.15-2.92-2.22-5.22-1.9-5.28Z"/>
        </g>
        <g>
          <path class="cls-9" d="M44.06,88.73c1.8,5.33-1.07,11.12-6.4,12.91-2.67.9-5.45.63-7.78-.53"/>
          <path class="cls-3" d="M29.87,101.12c.19-.39,1.5,0,3.47-.03.98-.02,2.13-.16,3.32-.55,1.18-.41,2.4-1.04,3.48-1.97,2.16-1.89,3.14-4.47,3.41-6.4.32-1.95.08-3.3.51-3.44.31-.13,1.33,1.05,1.55,3.48.11,1.19,0,2.68-.57,4.21-.56,1.52-1.55,3.09-2.98,4.35-1.44,1.25-3.13,2.01-4.7,2.37-1.59.35-3.08.27-4.25,0-2.37-.57-3.42-1.7-3.24-2.02Z"/>
        </g>
        <g>
          <path class="cls-9" d="M36.49,89.31c3.45,3.89,9.01,5.55,14.24,3.79,6.98-2.35,10.72-9.91,8.37-16.89"/>
          <path class="cls-3" d="M59.1,76.21c.3-.14,1.63,1.73,1.69,5.35,0,1.78-.43,3.95-1.54,6.09-1.08,2.15-2.95,4.19-5.37,5.61-1.23.67-2.5,1.2-3.78,1.51-1.28.3-2.56.41-3.76.36-2.41-.09-4.5-.82-6.04-1.71-1.55-.89-2.59-1.91-3.18-2.68-.6-.78-.77-1.31-.63-1.43.34-.32,1.82,1.16,4.7,2.26,1.43.54,3.21.95,5.18.88.98-.03,2-.17,3.03-.44,1.03-.29,2.04-.73,3.02-1.26,1.93-1.15,3.48-2.71,4.48-4.41,1.03-1.68,1.59-3.42,1.83-4.93.46-3.04-.07-5.06.36-5.2Z"/>
        </g>
        <g>
          <path class="cls-9" d="M51.93,75.74c6.07,7.73,16.57,11.19,26.41,7.87,9.84-3.32,16.1-12.43,16.25-22.26"/>
          <path class="cls-3" d="M94.59,61.36c.18,0,.39.83.4,2.36.02,1.53-.25,3.77-1.13,6.4-.87,2.63-2.49,5.61-5,8.36-1.28,1.34-2.74,2.65-4.44,3.76-1.7,1.1-3.59,2.04-5.62,2.75-2.04.67-4.12,1.07-6.14,1.22-2.02.15-3.98-.01-5.81-.31-3.66-.67-6.75-2.06-9.04-3.63-2.3-1.56-3.86-3.18-4.77-4.41-.91-1.23-1.26-2.01-1.11-2.13.38-.33,2.46,2.33,6.95,4.78,2.23,1.23,5.1,2.28,8.38,2.74,1.65.19,3.39.28,5.18.11,1.79-.18,3.62-.55,5.43-1.14,1.8-.63,3.48-1.44,5.01-2.38,1.53-.95,2.86-2.08,4.05-3.23,2.34-2.36,3.99-4.93,5.01-7.26,2.09-4.67,2.14-8.04,2.64-8.01Z"/>
        </g>
        <g>
          <path class="cls-7" d="M24.79,41.65c4.81,6.99,3.04,16.56-3.96,21.36-6.99,4.81-11.37-10.83-11.37-10.83,0,0-13.03-9.68-6.04-14.49,6.99-4.81,16.56-3.04,21.36,3.96Z"/>
          <path class="cls-3" d="M24.79,41.65c-.08.06-.34-.12-.76-.5-.39-.4-1.01-.94-1.81-1.6-1.61-1.27-4.23-2.88-7.82-3.33-1.77-.22-3.76-.13-5.76.43-.25.07-.5.14-.75.22-.25.1-.49.19-.74.29-.51.17-.98.45-1.47.69-.5.24-.94.59-1.43.88-.42.31-.79.62-1.03.98-.53.7-.59,1.54-.33,2.55.29,1.01.91,2.08,1.66,3.1.77,1.02,1.67,2.01,2.65,2.96.49.47,1,.94,1.53,1.4l.8.67.41.33.79.61.28.96.16.5.34.99c.24.65.49,1.3.76,1.92.54,1.25,1.14,2.45,1.82,3.53.68,1.07,1.46,2.03,2.3,2.66.86.61,1.66.85,2.5.6.43-.09.85-.32,1.28-.61.44-.35.93-.64,1.33-1.02.4-.37.83-.71,1.17-1.13l.54-.59c.16-.21.32-.42.47-.63,1.24-1.67,2.04-3.49,2.46-5.22.86-3.51.29-6.53-.31-8.49-.33-.98-.61-1.75-.85-2.26-.21-.52-.28-.83-.2-.89.08-.06.32.14.7.58.4.43.87,1.15,1.39,2.14.98,1.97,1.98,5.27,1.28,9.34-.35,2.01-1.14,4.18-2.51,6.19-.17.25-.34.51-.52.76-.2.24-.4.48-.6.72-.39.5-.87.93-1.33,1.38-.46.46-1.01.83-1.53,1.26-.58.41-1.26.82-2.07,1.04-.79.24-1.71.3-2.56.1-.85-.19-1.62-.57-2.29-1.03-1.31-.95-2.25-2.14-3.07-3.38-.81-1.25-1.48-2.56-2.08-3.92-.3-.68-.57-1.37-.83-2.08l-.37-1.07-.21-.64-.52-.42-.86-.73c-.56-.49-1.11-1-1.64-1.52-1.06-1.04-2.05-2.14-2.92-3.34-.86-1.21-1.64-2.52-2.05-4.08-.19-.78-.28-1.64-.14-2.5.12-.87.5-1.7,1.01-2.35.49-.67,1.12-1.16,1.71-1.56.58-.33,1.13-.71,1.72-.98.59-.27,1.16-.56,1.77-.75.3-.1.59-.2.89-.3.3-.08.6-.15.9-.22,2.37-.55,4.68-.52,6.68-.12,4.05.8,6.78,2.91,8.26,4.54.73.84,1.24,1.54,1.5,2.07.27.52.37.81.29.86Z"/>
        </g>
        <path class="cls-3" d="M24.79,41.65c-.02.88-2.97,1.26-5.94,2.83-3.03,1.49-5.06,3.56-5.74,3.16-.34-.2-.24-1.12.48-2.27.7-1.16,2.07-2.54,3.94-3.48,1.86-.97,3.79-1.24,5.13-1.12,1.35.1,2.13.5,2.13.88Z"/>
        <g>
          <path class="cls-7" d="M24.79,41.65c4.81,6.99,14.37,8.76,21.36,3.96,6.99-4.81-6.04-14.49-6.04-14.49,0,0-4.38-15.63-11.37-10.83-6.99,4.81-8.76,14.37-3.96,21.36Z"/>
          <path class="cls-3" d="M24.79,41.65c-.08.06-.32-.14-.7-.58-.4-.43-.87-1.15-1.39-2.14-.98-1.97-1.98-5.27-1.28-9.34.35-2.01,1.14-4.18,2.51-6.19.17-.25.34-.51.52-.76.2-.24.4-.48.6-.72.39-.5.87-.93,1.33-1.39.46-.46,1.01-.83,1.53-1.26.58-.41,1.26-.82,2.07-1.04.79-.24,1.71-.3,2.56-.1.85.19,1.62.57,2.29,1.03,1.31.95,2.25,2.14,3.07,3.38.81,1.25,1.48,2.56,2.08,3.93.29.68.57,1.37.83,2.08l.37,1.07.21.64.52.42.86.73c.56.49,1.11,1,1.64,1.52,1.06,1.04,2.05,2.14,2.92,3.34.86,1.21,1.64,2.52,2.05,4.08.19.78.28,1.64.14,2.5-.12.87-.5,1.7-1.01,2.35-.49.67-1.12,1.16-1.71,1.56-.58.33-1.13.71-1.72.98-.59.27-1.16.56-1.77.75-.3.1-.59.2-.89.3-.3.08-.6.15-.9.22-2.37.55-4.68.52-6.68.12-4.05-.8-6.78-2.91-8.26-4.54-.73-.84-1.24-1.54-1.5-2.07-.27-.52-.37-.81-.29-.86.08-.06.34.12.76.5.39.4,1.01.94,1.81,1.6,1.61,1.27,4.23,2.88,7.82,3.33,1.77.22,3.76.13,5.76-.43.25-.07.5-.14.75-.22.25-.1.49-.19.74-.29.51-.17.98-.45,1.47-.69.5-.24.94-.59,1.43-.88.42-.31.79-.62,1.03-.98.53-.7.59-1.54.33-2.55-.29-1.01-.91-2.08-1.66-3.1-.77-1.02-1.67-2.01-2.65-2.96-.49-.47-1-.94-1.53-1.4l-.8-.67-.41-.33-.79-.61-.28-.96-.16-.5-.34-.99c-.24-.65-.49-1.3-.76-1.92-.54-1.25-1.14-2.45-1.82-3.53-.68-1.07-1.46-2.03-2.3-2.66-.86-.61-1.66-.85-2.5-.6-.43.09-.85.32-1.28.61-.44.35-.93.64-1.33,1.02-.4.37-.83.71-1.17,1.13l-.54.59c-.16.21-.32.42-.47.63-1.24,1.67-2.04,3.49-2.46,5.22-.86,3.51-.29,6.53.31,8.49.33.98.61,1.75.85,2.26.21.52.28.83.2.89Z"/>
        </g>
        <path class="cls-3" d="M24.79,41.65c-.36-.13-.45-1.01-.06-2.3.37-1.29,1.31-2.99,2.88-4.39,1.55-1.41,3.33-2.19,4.66-2.43,1.33-.26,2.23-.03,2.29.36.13.79-2.53,1.93-5,4.23-2.53,2.21-3.94,4.83-4.77,4.53Z"/>
        <g>
          <circle class="cls-7" cx="24.79" cy="41.65" r="5.46"/>
          <path class="cls-3" d="M29.29,38.55c-.18.12-.58-.19-1.27-.58-.68-.38-1.74-.82-3.02-.75-1.25.05-2.72.71-3.56,2.03-.86,1.28-.96,3.22.05,4.66.99,1.46,2.83,2.05,4.33,1.71,1.53-.32,2.68-1.44,3.17-2.6.52-1.17.49-2.31.38-3.08-.11-.79-.26-1.27-.08-1.39.15-.11.63.16,1.15,1,.5.82.96,2.31.51,4.12-.41,1.78-1.95,3.83-4.45,4.55-1.22.36-2.64.37-3.97-.08-1.34-.43-2.58-1.35-3.44-2.58-.84-1.24-1.26-2.73-1.18-4.13.05-1.41.57-2.73,1.35-3.74,1.57-2.08,4.03-2.78,5.84-2.52,1.85.23,3.08,1.2,3.66,1.96.6.78.67,1.33.52,1.43Z"/>
        </g>
        <g>
          <path class="cls-7" d="M118.38,45.07c.93,8.43-5.14,16.03-13.58,16.96s-4.91-14.91-4.91-14.91c0,0-6.91-14.69,1.52-15.63,8.43-.93,16.03,5.14,16.96,13.58Z"/>
          <path class="cls-3" d="M118.38,45.07c-.1.01-.25-.27-.43-.8-.16-.54-.45-1.3-.84-2.26-.82-1.88-2.37-4.54-5.32-6.63-1.46-1.03-3.25-1.89-5.28-2.34-.25-.05-.51-.11-.77-.16-.26-.03-.53-.06-.79-.09-.53-.09-1.08-.07-1.62-.09-.55-.03-1.11.07-1.67.1-.51.07-.98.17-1.37.38-.8.36-1.25,1.07-1.5,2.09-.22,1.03-.18,2.26,0,3.52.19,1.26.52,2.56.93,3.86.21.65.44,1.3.69,1.95l.39.97.2.48.41.91-.2.98-.09.51-.16,1.03c-.1.69-.18,1.37-.24,2.05-.12,1.36-.15,2.7-.07,3.97.09,1.26.32,2.48.77,3.43.47.94,1.07,1.53,1.92,1.71.42.12.9.11,1.42.07.56-.1,1.12-.12,1.65-.27.53-.14,1.07-.24,1.57-.44.25-.09.5-.18.75-.26.24-.11.48-.22.71-.33,1.88-.88,3.44-2.11,4.64-3.44,2.42-2.68,3.34-5.62,3.74-7.63.17-1.02.28-1.83.32-2.39.06-.56.14-.86.24-.88.1-.01.22.27.34.84.15.57.22,1.42.22,2.54-.06,2.2-.74,5.58-3.28,8.83-1.26,1.61-2.98,3.14-5.14,4.28-.27.14-.54.29-.82.42-.29.12-.58.23-.87.35-.58.26-1.2.41-1.83.59-.62.19-1.28.26-1.94.39-.71.09-1.5.13-2.31-.06-.81-.16-1.65-.54-2.3-1.12-.66-.57-1.16-1.27-1.53-1.99-.7-1.45-.98-2.95-1.11-4.43-.12-1.48-.09-2.96.02-4.44.06-.74.14-1.48.25-2.22l.17-1.12.12-.66-.26-.62-.41-1.05c-.26-.7-.51-1.41-.73-2.11-.44-1.42-.79-2.86-1-4.33-.19-1.47-.25-2.99.12-4.56.2-.78.53-1.58,1.06-2.27.51-.71,1.25-1.26,2-1.6.75-.36,1.54-.49,2.24-.56.67-.02,1.33-.1,1.98-.05.65.04,1.29.05,1.91.18.31.05.62.1.92.15.3.07.6.15.89.23,2.35.64,4.37,1.75,5.95,3.05,3.19,2.62,4.6,5.77,5.14,7.9.25,1.09.37,1.94.34,2.53,0,.58-.05.89-.15.9Z"/>
        </g>
        <path class="cls-3" d="M118.38,45.07c-.43.77-3.21-.29-6.57-.31-3.38-.12-6.14.75-6.55.07-.21-.34.32-1.1,1.5-1.77,1.17-.69,3.02-1.26,5.12-1.21,2.1.03,3.93.7,5.05,1.44,1.14.72,1.64,1.45,1.46,1.78Z"/>
        <g>
          <path class="cls-7" d="M118.38,45.07c.93,8.43,8.53,14.51,16.96,13.58,8.43-.93,1.52-15.63,1.52-15.63,0,0,3.53-15.85-4.91-14.91-8.43.93-14.51,8.53-13.58,16.96Z"/>
          <path class="cls-3" d="M118.38,45.07c-.1.01-.22-.27-.34-.84-.15-.57-.22-1.42-.22-2.54.06-2.2.74-5.58,3.28-8.83,1.26-1.61,2.98-3.14,5.14-4.28.27-.14.54-.29.82-.42.29-.12.58-.23.87-.35.58-.26,1.2-.41,1.83-.59.62-.19,1.28-.26,1.94-.39.71-.09,1.5-.13,2.31.06.81.16,1.65.54,2.3,1.12.66.57,1.16,1.27,1.53,1.99.7,1.45.98,2.95,1.11,4.43.12,1.48.09,2.96-.02,4.44-.06.74-.14,1.48-.25,2.22l-.17,1.12-.12.66.26.62.41,1.05c.26.7.51,1.41.73,2.11.44,1.42.79,2.86,1,4.33.19,1.47.25,2.99-.12,4.56-.2.78-.53,1.58-1.06,2.27-.51.71-1.25,1.26-2,1.6-.75.36-1.54.49-2.24.56-.67.02-1.33.1-1.98.05-.65-.04-1.29-.05-1.91-.18-.31-.05-.62-.1-.92-.15-.3-.07-.6-.15-.89-.23-2.35-.64-4.37-1.75-5.95-3.05-3.19-2.62-4.6-5.77-5.14-7.9-.25-1.09-.37-1.94-.34-2.53,0-.58.05-.89.15-.9s.25.27.43.8c.16.54.45,1.3.84,2.26.82,1.88,2.37,4.54,5.32,6.63,1.46,1.03,3.25,1.89,5.28,2.34.25.05.51.11.77.16.26.03.53.06.79.09.53.09,1.08.07,1.62.09.55.03,1.11-.07,1.67-.1.51-.07.98-.17,1.37-.38.8-.36,1.25-1.07,1.5-2.09.22-1.03.18-2.26,0-3.52-.19-1.26-.52-2.56-.93-3.86-.21-.65-.44-1.3-.69-1.95l-.39-.97-.2-.48-.41-.91.2-.98.09-.51.16-1.03c.1-.69.18-1.37.24-2.05.12-1.36.15-2.7.07-3.97-.09-1.26-.32-2.48-.77-3.43-.47-.94-1.07-1.53-1.92-1.71-.42-.12-.9-.11-1.42-.07-.56.1-1.12.12-1.65.27-.53.14-1.07.24-1.57.44-.25.09-.5.18-.75.26-.24.11-.48.22-.71.33-1.88.88-3.44,2.11-4.64,3.44-2.42,2.68-3.34,5.62-3.74,7.63-.17,1.02-.28,1.83-.32,2.39-.06.56-.14.86-.24.88Z"/>
        </g>
        <path class="cls-3" d="M118.38,45.07c-.25-.28.08-1.1,1.03-2.06.93-.96,2.57-2.02,4.61-2.51,2.04-.51,3.97-.36,5.26.06,1.3.4,1.98,1.03,1.85,1.4-.25.76-3.14.51-6.41,1.36-3.27.75-5.75,2.39-6.35,1.74Z"/>
        <g>
          <circle class="cls-7" cx="118.38" cy="45.07" r="5.46"/>
          <path class="cls-3" d="M123.8,44.47c-.21.03-.42-.44-.85-1.11-.42-.66-1.15-1.54-2.3-2.09-1.13-.55-2.73-.66-4.09.11-1.36.72-2.37,2.38-2.16,4.13.18,1.75,1.52,3.15,3.01,3.56,1.5.45,3.04,0,4.02-.79,1.01-.78,1.52-1.8,1.79-2.54.27-.75.37-1.24.58-1.27.18-.02.48.44.54,1.42.05.95-.24,2.49-1.49,3.88-1.2,1.38-3.53,2.46-6.07,1.91-1.25-.26-2.5-.92-3.46-1.95-.98-1.01-1.64-2.41-1.81-3.9-.16-1.49.18-3,.91-4.2.71-1.21,1.79-2.13,2.95-2.66,2.36-1.09,4.87-.55,6.34.54,1.53,1.08,2.15,2.51,2.31,3.45.16.97-.03,1.49-.21,1.5Z"/>
        </g>
        <g>
          <path class="cls-8" d="M91.76,104.7c2.72,8.08,2.4,15.49-.73,16.54s-7.87-4.64-10.59-12.72"/>
          <path class="cls-3" d="M80.44,108.52c.41-.14,1.28,1.65,2.9,4.31.8,1.32,1.81,2.88,3.09,4.37.64.73,1.35,1.47,2.14,2.02.78.58,1.6.77,2.01.65.4-.15.94-.79,1.21-1.73.29-.91.41-1.93.48-2.9.11-1.96-.03-3.8-.19-5.35-.32-3.09-.72-5.05-.31-5.19.35-.12,1.44,1.62,2.33,4.8.44,1.59.82,3.54.85,5.8,0,1.13-.06,2.34-.43,3.65-.11.33-.22.66-.35.99-.18.34-.32.68-.56,1.01-.44.67-1.17,1.32-2.1,1.67-.95.29-1.93.21-2.69-.06-.39-.12-.71-.31-1.06-.46-.3-.19-.59-.38-.88-.58-1.08-.82-1.86-1.74-2.55-2.64-1.35-1.82-2.22-3.6-2.84-5.13-1.23-3.07-1.4-5.12-1.05-5.23Z"/>
        </g>
        <g>
          <path class="cls-8" d="M98.54,115.41c-.1,5.17-2.24,9.36-5.9,10.6-3.66,1.24-7.91-.81-11.12-4.86"/>
          <path class="cls-3" d="M81.52,121.15c.33-.27,1.44.71,3.29,1.89.93.58,2.06,1.19,3.34,1.57,1.28.37,2.69.46,4.02.02,1.33-.45,2.39-1.38,3.19-2.45.79-1.08,1.32-2.25,1.71-3.27.75-2.06,1.04-3.51,1.47-3.5.37,0,.84,1.49.53,3.99-.17,1.24-.57,2.74-1.47,4.26-.89,1.5-2.42,3.03-4.5,3.73-2.08.7-4.23.41-5.84-.25-1.63-.67-2.86-1.62-3.75-2.5-1.76-1.81-2.29-3.27-2-3.49Z"/>
        </g>
        <g>
          <path class="cls-8" d="M94.65,100.9s2.72,2.23-.46,4.96c-3.18,2.73-8.1.74-8.1.74,0,0-2.72,4.56-6.9,4.31-4.18-.25-3.37-3.67-3.37-3.67"/>
          <path class="cls-3" d="M75.83,107.25c.2.04.29.46.53,1.04.26.6.71,1.17,1.64,1.35.45.09,1.09.15,1.67.06.59-.08,1.2-.26,1.81-.58.61-.33,1.22-.79,1.79-1.35.62-.68.88-.78,2.21-2.95,2.37.92,2.64.85,3.55,1.01.8.1,1.56.1,2.25,0,.68-.11,1.28-.34,1.8-.63.52-.28.99-.72,1.29-1.06.63-.71.65-1.44.49-2.07-.16-.61-.35-1-.21-1.15.12-.15.61-.05,1.2.59.28.32.58.81.7,1.5.12.68-.03,1.51-.42,2.23-.4.73-.91,1.37-1.65,1.94-.72.58-1.64,1.04-2.63,1.29-.99.25-2.05.31-3.09.22-.52-.05-1.05-.12-1.58-.24-.13-.03-.26-.06-.4-.09-.07-.02-.15-.04-.11-.03h0s0,0,0,0h0s-.02.03-.07.09c-.08.11-.17.21-.26.31-.35.41-.73.79-1.11,1.14-.78.71-1.66,1.29-2.6,1.7-.94.4-1.94.59-2.87.57-.94,0-1.73-.22-2.49-.55-.75-.34-1.37-.91-1.69-1.52-.32-.61-.38-1.18-.35-1.61.08-.86.41-1.24.6-1.19Z"/>
        </g>
        <g>
          <ellipse class="cls-8" cx="84.57" cy="102.09" rx="3.1" ry="1.75" transform="translate(-28.19 32.38) rotate(-18.63)"/>
          <path class="cls-3" d="M87.51,101.1c-.2.06-.42-.06-.71-.06-.27-.01-.68.01-1.21.14-.52.13-1.17.38-1.74.77-.14.1-.28.2-.4.31-.06.05-.12.11-.17.16-.06.06-.1.12-.08.1,0,.02.02.02.02.02,0,0-.01,0,0,.03-.02,0,.05.02.13.03.07.01.15.02.23.03.16.01.33.01.5,0,.69-.04,1.36-.23,1.85-.44.5-.22.84-.44,1.05-.62.23-.17.34-.4.53-.48.16-.08.52.12.57.73.06.6-.28,1.37-.9,2-.63.64-1.52,1.18-2.66,1.45-.29.07-.59.11-.92.13-.16,0-.33.01-.5,0-.16,0-.35-.02-.61-.08-.98-.19-1.9-.82-2.23-1.79-.32-.97.02-2.03.69-2.77.17-.21.31-.33.44-.44.13-.11.27-.21.4-.31.27-.18.54-.33.81-.45,1.08-.48,2.11-.58,3-.45.88.13,1.61.53,1.93,1.05.33.51.16.89-.01.93Z"/>
        </g>
        <g>
          <ellipse class="cls-6" cx="58.37" cy="104.55" rx="8.62" ry="11.55" transform="translate(-30.35 24.13) rotate(-18.63)"/>
          <path class="cls-3" d="M66.54,101.8c-.21.07-.63-.73-1.49-2.03-.88-1.26-2.28-3.1-4.58-4.36-1.13-.63-2.5-1.02-3.89-.93-.69.08-1.39.23-2.04.57-.64.34-1.24.8-1.75,1.39-1.01,1.21-1.67,2.88-1.86,4.71-.21,1.83.04,3.79.66,5.69.65,1.88,1.65,3.6,2.92,4.93,1.26,1.34,2.8,2.27,4.33,2.62.77.16,1.52.17,2.24.05.72-.12,1.37-.42,1.96-.78,1.17-.77,2.01-1.91,2.53-3.1,1.07-2.39,1.07-4.71,1-6.24-.1-1.56-.25-2.45-.04-2.52.17-.06.7.71,1.16,2.33.41,1.6.81,4.15-.21,7.19-.5,1.49-1.46,3.1-3.06,4.32-.81.57-1.76,1.07-2.81,1.31-1.05.24-2.18.27-3.29.08-2.21-.42-4.25-1.62-5.86-3.27-1.63-1.64-2.85-3.72-3.63-5.99-.75-2.28-1.03-4.67-.73-6.96.29-2.28,1.18-4.48,2.69-6.15.77-.82,1.69-1.48,2.67-1.93.98-.45,2.04-.63,3.03-.66,2.01,0,3.74.7,5.05,1.58,2.65,1.8,3.88,4.07,4.52,5.59.61,1.57.66,2.51.49,2.56Z"/>
        </g>
        <ellipse class="cls-8" cx="62.53" cy="103.86" rx="3.64" ry="4.95" transform="translate(-29.91 25.42) rotate(-18.63)"/>
        <path class="cls-6" d="M59.88,115.91c.03,1.09-.16,2.16-.41,2.85-.23.71-.52,1.13-.38,1.31.11.15.72-.03,1.3-.79.58-.77,1.02-1.99.97-3.45l-1.49.09Z"/>
        <path class="cls-6" d="M54.57,114.02c-.48.98-1.15,1.84-1.68,2.33-.53.52-.99.76-.94.98.02.18.65.31,1.52-.1.87-.41,1.83-1.29,2.47-2.6l-1.36-.61Z"/>
        <path class="cls-6" d="M51.38,110.27c-.84.69-1.82,1.19-2.51,1.41-.7.25-1.22.28-1.27.5-.05.18.46.56,1.42.55.96,0,2.2-.4,3.33-1.33l-.98-1.12Z"/>
        <g>
          <ellipse class="cls-6" cx="106.91" cy="88.18" rx="8.62" ry="11.55" transform="translate(-22.57 38.78) rotate(-18.63)"/>
          <path class="cls-3" d="M98.74,90.94c-.17.06-.7-.71-1.16-2.33-.41-1.6-.81-4.15.21-7.19.5-1.49,1.46-3.1,3.06-4.32.81-.57,1.76-1.07,2.81-1.31,1.05-.24,2.18-.27,3.29-.08,2.21.42,4.25,1.62,5.86,3.27,1.63,1.64,2.85,3.72,3.63,5.99.75,2.28,1.03,4.67.73,6.96-.29,2.28-1.18,4.48-2.69,6.15-.77.82-1.69,1.48-2.67,1.93-.98.45-2.04.63-3.03.66-2.01,0-3.74-.7-5.05-1.58-2.65-1.8-3.88-4.07-4.52-5.59-.61-1.57-.66-2.51-.49-2.56.21-.07.63.73,1.49,2.03.88,1.26,2.28,3.1,4.58,4.36,1.13.63,2.5,1.02,3.89.93.69-.08,1.39-.23,2.04-.57.64-.34,1.24-.8,1.75-1.39,1.01-1.21,1.67-2.88,1.86-4.71.21-1.83-.04-3.79-.66-5.69-.66-1.88-1.65-3.6-2.92-4.93-1.26-1.34-2.8-2.27-4.33-2.62-.77-.16-1.52-.17-2.24-.05-.72.12-1.37.42-1.96.78-1.17.77-2.01,1.91-2.53,3.1-1.07,2.39-1.07,4.71-1,6.24.1,1.56.25,2.45.04,2.52Z"/>
        </g>
        <path class="cls-6" d="M111.34,98.96c.85,1.19,1.94,1.9,2.87,2.16.93.26,1.52.03,1.52-.16,0-.22-.48-.38-1.09-.81-.61-.4-1.41-1.13-2.05-2.02l-1.24.83Z"/>
        <path class="cls-6" d="M114.96,94.72c1.31.66,2.6.78,3.54.58.94-.2,1.36-.68,1.27-.84-.1-.2-.6-.12-1.34-.21-.72-.07-1.78-.35-2.75-.84l-.72,1.31Z"/>
        <path class="cls-6" d="M115.84,89.99c1.46.05,2.69-.38,3.46-.96.77-.58.95-1.19.8-1.3-.17-.14-.6.15-1.31.37-.68.24-1.76.43-2.85.4l-.1,1.49Z"/>
        <path class="cls-8" d="M53.42,99.85c.59.68,1.76.82,2.7,1.2.86.35,1.29.72,1.32.72h0s0,0,0,0c.01-.02.13-.57.61-1.37.51-.86,1.36-1.99,1.42-2.56,0,0,0-.02,0-.03.04-.73-.27-1.38-.78-1.75,0,0,0,0,0,0-.03-.02-.05-.04-.08-.06-.02-.01-.04-.02-.06-.03-.04-.02-.08-.04-.11-.06-.02,0-.04-.02-.06-.03-.02,0-.04-.02-.06-.03-.02,0-.03-.01-.05-.02,0,0-.02,0-.03-.01-.03,0-.05-.02-.08-.03-.02,0-.04-.01-.06-.02-.1-.02-.2-.04-.3-.05-.89-.05-1.68.63-1.87,1.56-.72-.63-1.75-.7-2.43-.11-.75.65-.79,1.84-.07,2.67Z"/>
        <g>
          <path class="cls-2" d="M80.44,108.52c2.72,8.08,7.47,13.78,10.59,12.72,3.13-1.05,3.45-8.46.73-16.54"/>
          <path class="cls-3" d="M91.76,104.7c.35-.12,1.44,1.62,2.33,4.8.44,1.59.82,3.54.85,5.8,0,1.13-.06,2.34-.43,3.65-.11.33-.22.66-.35.99-.18.34-.32.68-.56,1.01-.44.67-1.17,1.32-2.1,1.67-.95.29-1.93.21-2.69-.06-.39-.12-.71-.31-1.06-.46-.3-.19-.59-.38-.88-.58-1.08-.82-1.86-1.74-2.55-2.64-1.35-1.82-2.22-3.6-2.84-5.13-1.23-3.07-1.4-5.12-1.05-5.23.41-.14,1.28,1.65,2.9,4.31.8,1.32,1.81,2.88,3.09,4.37.64.73,1.35,1.47,2.14,2.02.78.58,1.6.77,2.01.65.4-.15.94-.79,1.21-1.73.29-.91.41-1.93.48-2.9.11-1.96-.03-3.8-.19-5.35-.32-3.09-.72-5.05-.31-5.19Z"/>
        </g>
        <g>
          <path class="cls-8" d="M75.83,107.25s-.81,3.43,3.37,3.67c4.18.25,6.9-4.31,6.9-4.31,0,0,4.92,1.98,8.1-.74,3.18-2.73.46-4.96.46-4.96"/>
          <path class="cls-3" d="M94.65,100.9c.12-.15.61-.05,1.2.59.28.32.58.81.7,1.5.12.68-.03,1.51-.42,2.23-.4.73-.91,1.37-1.65,1.94-.72.58-1.64,1.04-2.63,1.29-.99.25-2.05.31-3.09.22-.52-.05-1.05-.12-1.58-.24-.13-.03-.26-.06-.4-.09-.07-.02-.15-.04-.11-.03h0s0,0,0,0h0s-.02.03-.07.09c-.08.11-.17.21-.26.31-.35.41-.73.79-1.11,1.14-.78.71-1.66,1.29-2.6,1.7-.94.4-1.94.59-2.87.57-.94,0-1.73-.22-2.49-.55-.75-.34-1.37-.91-1.69-1.52-.32-.61-.38-1.18-.35-1.61.08-.86.41-1.24.6-1.19.2.04.29.46.53,1.04.26.6.71,1.17,1.64,1.35.45.09,1.09.15,1.67.06.59-.08,1.2-.26,1.81-.58.61-.33,1.22-.79,1.79-1.35.62-.68.88-.78,2.21-2.95,2.37.92,2.64.85,3.55,1.01.8.1,1.56.1,2.25,0,.68-.11,1.28-.34,1.8-.63.52-.28.99-.72,1.29-1.06.63-.71.65-1.44.49-2.07-.16-.61-.35-1-.21-1.15Z"/>
        </g>
        <ellipse class="cls-6" cx="84.57" cy="102.09" rx="3.1" ry="1.75" transform="translate(-28.19 32.38) rotate(-18.63)"/>
        <ellipse class="cls-8" cx="111.07" cy="87.49" rx="3.64" ry="4.95" transform="translate(-22.13 40.08) rotate(-18.63)"/>
        <path class="cls-8" d="M101.96,83.48c.59.68,1.76.82,2.7,1.2.86.35,1.29.72,1.32.72h0s0,0,0,0c.01-.02.13-.57.61-1.37.51-.86,1.36-1.99,1.42-2.56,0,0,0-.02,0-.03.04-.73-.27-1.38-.78-1.75,0,0,0,0,0,0-.03-.02-.05-.04-.08-.06-.02-.01-.04-.02-.06-.03-.04-.02-.08-.04-.11-.06-.02,0-.04-.02-.06-.03-.02,0-.04-.02-.06-.03-.02,0-.03-.01-.05-.02,0,0-.02,0-.03-.01-.03,0-.05-.02-.08-.03-.02,0-.04-.01-.06-.02-.1-.02-.2-.04-.3-.05-.89-.05-1.68.63-1.87,1.56-.72-.63-1.75-.7-2.43-.11-.75.65-.79,1.84-.07,2.67Z"/>
      </g>
      <g>
        <circle class="cls-9" cx="93.79" cy="135.33" r="13.19"/>
        <path class="cls-3" d="M106.97,135.33c-.24,0-.32-1.17-.96-3.08-.63-1.88-2.02-4.57-4.87-6.58-1.41-.98-3.16-1.8-5.14-2.1-1.97-.29-4.18-.19-6.25.64-1.05.38-2.05.94-2.97,1.65-.93.69-1.78,1.54-2.47,2.53-1.44,1.94-2.23,4.4-2.26,6.95.03,2.55.82,5.01,2.26,6.95.69.98,1.54,1.84,2.47,2.53.92.71,1.92,1.27,2.97,1.65,2.07.83,4.28.93,6.25.64,1.98-.3,3.73-1.12,5.14-2.1,2.85-2.01,4.24-4.7,4.87-6.58.64-1.91.72-3.09.96-3.08.16,0,.48,1.18.14,3.36-.15,1.09-.57,2.39-1.3,3.79-.74,1.4-1.85,2.87-3.42,4.15-1.56,1.26-3.58,2.36-5.95,2.84-2.35.46-5.02.44-7.61-.49-1.3-.43-2.55-1.09-3.71-1.94-1.17-.83-2.23-1.87-3.11-3.07-1.81-2.38-2.85-5.47-2.87-8.64.02-3.17,1.06-6.26,2.87-8.64.88-1.21,1.94-2.24,3.11-3.07,1.16-.84,2.41-1.51,3.71-1.94,2.58-.93,5.26-.96,7.61-.49,2.37.48,4.38,1.57,5.95,2.84,1.57,1.28,2.68,2.75,3.42,4.15.73,1.4,1.15,2.71,1.3,3.79.34,2.18.02,3.37-.14,3.36Z"/>
      </g>
      <g>
        <circle class="cls-9" cx="93.79" cy="162.43" r="13.19"/>
        <path class="cls-3" d="M106.97,162.43c-.24,0-.32-1.17-.96-3.08-.63-1.88-2.02-4.57-4.87-6.58-1.41-.98-3.16-1.8-5.14-2.1-1.97-.29-4.18-.19-6.25.64-1.05.38-2.05.94-2.97,1.65-.93.69-1.78,1.54-2.47,2.53-1.44,1.94-2.23,4.4-2.26,6.95.03,2.55.82,5.01,2.26,6.95.69.98,1.54,1.84,2.47,2.53.92.71,1.92,1.27,2.97,1.65,2.07.83,4.28.93,6.25.64,1.98-.3,3.73-1.12,5.14-2.1,2.85-2.01,4.24-4.7,4.87-6.58.64-1.91.72-3.09.96-3.08.16,0,.48,1.18.14,3.36-.15,1.09-.57,2.39-1.3,3.79-.74,1.4-1.85,2.87-3.42,4.15-1.56,1.26-3.58,2.36-5.95,2.84-2.35.46-5.02.44-7.61-.49-1.3-.43-2.55-1.09-3.71-1.94-1.17-.83-2.23-1.87-3.11-3.07-1.81-2.38-2.85-5.47-2.87-8.64.02-3.17,1.06-6.26,2.87-8.64.88-1.21,1.94-2.24,3.11-3.07,1.16-.84,2.41-1.51,3.71-1.94,2.58-.93,5.26-.96,7.61-.49,2.37.48,4.38,1.57,5.95,2.84,1.57,1.28,2.68,2.75,3.42,4.15.73,1.4,1.15,2.71,1.3,3.79.34,2.18.02,3.37-.14,3.36Z"/>
      </g>
    </g>
  </g>
</svg>