<?xml version="1.0" encoding="UTF-8"?>
<svg id="_レイヤー_2" data-name="レイヤー 2" xmlns="http://www.w3.org/2000/svg" viewBox="0 0 158.14 191">
  <defs>
    <style>
      .cls-1 {
        fill: #d31421;
      }

      .cls-2 {
        fill: #f8eea8;
      }

      .cls-3 {
        fill: #af8148;
      }

      .cls-4 {
        fill: #3a302e;
      }

      .cls-5 {
        fill: #f2abca;
      }

      .cls-6 {
        fill: #231815;
      }

      .cls-7 {
        fill: #fe0;
      }

      .cls-8 {
        fill: #fff;
      }

      .cls-9 {
        fill: #ac7e4b;
      }
    </style>
  </defs>
  <g id="_ロゴ_" data-name="ロゴ３">
    <g>
      <g>
        <g>
          <path class="cls-3" d="M113.39,85.97l-7.69-26.28-19.66-4.88-14.93-3.71-19.66-4.88-19.09,19.63-22.63,22.31-.27,20.8s3,10,10.33,14.36c10.77,6.4,12.44,6.47,18.82,9.41,6.38,2.94,6.48,4.14,18.37,7.26,11.97,2.8,12.62,1.78,19.63,2.17,7.01.39,8.53,1.1,21.04.48,8.52-.42,15.85-7.86,15.85-7.86l9.49-18.52-9.57-30.3Z"/>
          <path class="cls-4" d="M113.4,85.97c.17-.05,1.22,2.71,3.01,7.85.88,2.58,1.96,5.75,3.23,9.45,1.27,3.83,2.73,8.2,4.35,13.08-1.74,3.5-3.62,7.27-5.63,11.3-.97,1.95-1.98,3.96-3.01,6.02-.28.55-.56,1.11-.84,1.67-.08.22-.37.41-.47.53l-.34.32-.69.62c-.92.81-1.91,1.58-2.94,2.3-2.06,1.46-4.34,2.74-6.89,3.66-1.27.47-2.61.8-4,1.02-1.44.18-2.73.22-4.08.29-2.68.12-5.43.21-8.26.14-2.84-.05-5.7-.35-8.53-.53-1.43-.09-2.84-.17-4.28-.18-1.43-.02-2.9.01-4.44-.02-3.1-.07-6.19-.59-9.23-1.2-3.04-.6-6.12-1.4-9.17-2.33-1.53-.47-3.07-.98-4.61-1.6-1.54-.61-3.06-1.37-4.48-2.12-2.82-1.52-5.69-2.79-8.75-4.07-3.06-1.26-6.16-2.78-9.12-4.43-1.48-.83-2.96-1.67-4.43-2.54-.72-.4-1.51-.93-2.29-1.45-.73-.57-1.46-1.15-2.11-1.8-2.65-2.58-4.61-5.69-6.12-8.98-.45-.99-.86-1.98-1.22-3.02l-.18-.55c-.12-.23-.03-.54-.05-.74v-.77s.03-1.54.03-1.54c.03-2.05.06-4.1.08-6.13.06-4.29.12-8.53.18-12.72,7.76-7.61,15.28-14.99,22.48-22.06,7.12-7.25,13.94-14.19,20.38-20.75,11.17,2.86,21.52,5.5,30.85,7.89,9.26,2.41,17.51,4.56,24.55,6.39,1.2,4.35,2.27,8.25,3.2,11.66.87,3.26,1.61,6.05,2.21,8.32,1.17,4.54,1.73,7,1.57,7.04-.16.05-1.01-2.33-2.47-6.78-.71-2.23-1.59-4.98-2.62-8.2-.96-3.09-2.07-6.62-3.3-10.58-6.8-1.6-14.76-3.48-23.71-5.59-8.89-2.14-18.76-4.51-29.41-7.07-6.04,6.26-12.43,12.88-19.11,19.8-6.89,6.82-14.07,13.93-21.48,21.27-.05,3.77-.09,7.57-.14,11.42-.03,2.03-.05,4.08-.08,6.13l-.02,1.54v.77s-.01.03-.01.03c0,0,0-.01,0,.02l.06.17c.32.91.69,1.83,1.1,2.73,1.38,3.01,3.17,5.82,5.44,8.01.55.57,1.17,1.04,1.77,1.52.64.42,1.25.85,2.02,1.28,1.45.86,2.9,1.69,4.35,2.5,2.91,1.63,5.79,3.05,8.82,4.31,3.02,1.27,6.11,2.66,8.96,4.22,1.42.76,2.78,1.44,4.2,2.02,1.41.58,2.88,1.08,4.35,1.54,2.97.92,5.91,1.71,8.87,2.32,2.97.62,5.86,1.13,8.71,1.22,1.43.05,2.92.03,4.41.06,1.49.03,2.98.12,4.42.23,2.92.22,5.68.54,8.4.62,2.73.09,5.43.04,8.08-.04,1.32-.05,2.68-.08,3.83-.21,1.19-.17,2.37-.44,3.51-.84,2.28-.78,4.41-1.93,6.35-3.26.97-.66,1.9-1.36,2.77-2.1l.64-.56.31-.28c.09-.09.09-.07.12-.12.25-.48.5-.96.75-1.44,1.07-2.05,2.12-4.03,3.13-5.96,1.97-3.73,3.82-7.23,5.53-10.48-1.39-4.65-2.63-8.82-3.72-12.47-1.09-3.76-2.03-6.97-2.79-9.59-1.49-5.24-2.22-8.1-2.05-8.16Z"/>
        </g>
        <ellipse class="cls-5" cx="25.33" cy="116.33" rx="5.26" ry="9.79" transform="translate(-93.67 112.88) rotate(-76.06)"/>
        <ellipse class="cls-5" cx="95.99" cy="133.87" rx="5.26" ry="9.79" transform="translate(-57.06 194.77) rotate(-76.06)"/>
        <g>
          <path class="cls-3" d="M9.29,45.57s-7.59-13.73-3.86-21.95C9.16,15.41,21.69.41,33.92,1.59c12.23,1.18,17.96,19.69,17.96,19.69l-14.32,35.88-28.27-11.59Z"/>
          <path class="cls-4" d="M9.29,45.57c.1-.24,2.96.67,7.95,2.49,2.5.91,5.53,2.04,9.02,3.37,3.14,1.21,6.69,2.57,10.59,4.07l.08-.26.02-.06.1-.28.23-.6c.31-.81.62-1.62.94-2.45.64-1.66,1.3-3.36,1.97-5.11,1.36-3.49,2.78-7.15,4.26-10.96,1.49-3.8,3.04-7.74,4.64-11.79.36-.91.73-1.84,1.09-2.76l-.26-.72c-.19-.5-.39-1-.59-1.5-.83-1.99-1.8-3.96-2.93-5.84-1.35-2.24-2.89-4.32-4.68-6.02-1.78-1.7-3.82-3.01-5.99-3.64-.55-.14-1.09-.27-1.65-.33-.55-.09-1.13-.04-1.69-.07-.56-.05-1.13.04-1.69.12-.56.07-1.12.12-1.67.3-2.22.48-4.29,1.52-6.23,2.64-.48.3-.95.59-1.43.89-.45.33-.9.66-1.35.98-.92.62-1.71,1.39-2.56,2.06-1.6,1.47-3.12,2.94-4.46,4.5-2.71,3.07-4.92,6.25-6.46,9.31-1.37,2.91-1.29,6.14-.89,8.84.4,2.73,1.07,5.05,1.67,6.93,1.23,3.76,2.17,5.77,1.96,5.88-.18.1-1.5-1.73-3.13-5.44-.8-1.86-1.68-4.2-2.27-7.07-.18-.71-.24-1.48-.36-2.25-.07-.79-.14-1.61-.12-2.46,0-1.7.34-3.57,1.09-5.38,1.54-3.4,3.73-6.77,6.49-10.09,1.36-1.68,2.92-3.27,4.59-4.87.89-.74,1.72-1.57,2.7-2.27.48-.36.96-.72,1.44-1.09.51-.33,1.03-.67,1.55-1,2.11-1.28,4.41-2.48,7.04-3.09.63-.21,1.31-.29,1.99-.38.68-.1,1.36-.21,2.06-.16.7.03,1.4-.03,2.11.08.71.07,1.41.24,2.12.41,2.79.78,5.28,2.4,7.34,4.35,2.07,1.96,3.77,4.26,5.23,6.68,1.22,2.04,2.26,4.14,3.14,6.27.22.54.43,1.07.63,1.61l.31.86c.12.52.51,1.05.15,1.56-.45,1.12-.9,2.24-1.35,3.35-1.64,4.04-3.23,7.96-4.76,11.74-3.28,7.98-6.32,15.36-9.01,21.9-1.47-.62-2.91-1.23-4.31-1.83-1.02-.44-2.01-.87-2.98-1.29-1.93-.84-3.76-1.64-5.47-2.38-3.42-1.5-6.38-2.82-8.8-3.93-4.83-2.21-7.51-3.57-7.41-3.81Z"/>
        </g>
        <g>
          <circle class="cls-2" cx="29.1" cy="26.45" r="12.48"/>
          <path class="cls-4" d="M41.22,29.46c-.25-.06-.09-1.16-.27-3.05-.18-1.86-.86-4.61-3.01-7.06-1.07-1.2-2.47-2.33-4.2-3.04-1.72-.69-3.74-1.09-5.79-.8-1.03.11-2.06.4-3.04.83-.99.42-1.94,1-2.79,1.73-1.72,1.43-2.99,3.47-3.59,5.76-.54,2.3-.38,4.7.48,6.76.4,1.04.97,2,1.65,2.83.67.84,1.45,1.58,2.3,2.16,1.68,1.22,3.64,1.81,5.49,2,1.86.18,3.62-.16,5.13-.72,3.05-1.16,4.94-3.27,5.96-4.83,1.04-1.58,1.41-2.64,1.66-2.57.18.04.23,1.21-.56,3.16-.78,1.9-2.64,4.63-6.16,6.32-1.74.82-3.87,1.39-6.19,1.29-2.29-.1-4.78-.74-6.98-2.2-1.11-.7-2.13-1.61-3.02-2.66-.9-1.04-1.65-2.26-2.2-3.58-1.14-2.64-1.4-5.76-.68-8.73.76-2.96,2.44-5.6,4.69-7.4,1.1-.92,2.33-1.64,3.62-2.14,1.27-.52,2.6-.84,3.91-.94,2.62-.27,5.12.34,7.2,1.32,2.09,1,3.71,2.49,4.86,4.04,2.32,3.15,2.69,6.43,2.49,8.47-.21,2.09-.81,3.11-.98,3.05Z"/>
        </g>
        <g>
          <path class="cls-3" d="M143.26,78.83s13.13-8.59,13.68-17.59c.54-9-3.51-28.12-14.87-32.81-11.36-4.68-25.09,9-25.09,9l-4.12,38.41,30.4,2.98Z"/>
          <path class="cls-4" d="M143.26,78.83c-.03.26-3.02.21-8.33-.1-2.65-.15-5.89-.37-9.61-.64-1.86-.14-3.85-.29-5.95-.45-1.05-.08-2.13-.17-3.23-.26-1.52-.13-3.08-.26-4.67-.4.68-7.04,1.45-14.99,2.28-23.57.41-4.06.84-8.27,1.29-12.61.12-1.19.25-2.38.38-3.59-.08-.61.51-.9.86-1.3l.67-.61c.43-.39.87-.76,1.31-1.13,1.78-1.47,3.67-2.85,5.71-4.07,2.43-1.46,5-2.7,7.75-3.46,2.73-.76,5.69-1.02,8.52-.41.7.17,1.4.36,2.06.63.68.24,1.27.61,1.9.92.64.29,1.19.7,1.74,1.11.55.4,1.12.78,1.58,1.27,2.03,1.77,3.5,3.91,4.78,6.03.3.54.6,1.08.9,1.61.26.55.51,1.1.76,1.64.54,1.07.89,2.19,1.33,3.27.73,2.19,1.37,4.33,1.78,6.45.89,4.22,1.24,8.23,1.02,11.95-.18,1.96-.76,3.77-1.55,5.27-.39.76-.83,1.45-1.26,2.12-.47.63-.89,1.28-1.38,1.82-1.87,2.26-3.74,3.91-5.32,5.19-3.17,2.52-5.2,3.52-5.31,3.35-.13-.2,1.64-1.53,4.48-4.28,1.41-1.38,3.1-3.12,4.72-5.35,1.61-2.2,3.2-5.01,3.35-8.23.07-3.42-.39-7.27-1.35-11.25-.45-2-1.11-4.02-1.83-6.06-.44-.99-.78-2.04-1.3-3.02-.24-.5-.49-1-.73-1.5-.28-.48-.56-.97-.85-1.45-1.18-1.9-2.53-3.79-4.27-5.25-.4-.42-.87-.72-1.34-1.04-.46-.33-.92-.68-1.44-.89-.51-.23-1-.55-1.53-.73-.52-.21-1.07-.34-1.61-.48-2.22-.46-4.63-.26-7,.41-2.38.67-4.71,1.79-6.95,3.13-1.88,1.13-3.66,2.42-5.32,3.79-.41.35-.83.69-1.22,1.05l-.56.51c-.11.99-.22,1.98-.33,2.95-.49,4.33-.96,8.54-1.42,12.59-.47,4.05-.93,7.96-1.36,11.68-.22,1.86-.44,3.67-.65,5.44-.11.88-.21,1.75-.32,2.61l-.08.64-.04.29v.06s-.06.27-.06.27c4.15.5,7.92.95,11.26,1.35,3.71.46,6.92.87,9.55,1.24,5.27.73,8.22,1.27,8.19,1.52Z"/>
        </g>
        <g>
          <circle class="cls-2" cx="134.7" cy="52.67" r="12.48"/>
          <path class="cls-4" d="M122.58,49.66c-.18-.04-.23-1.21.56-3.16.78-1.9,2.64-4.63,6.16-6.32,1.74-.82,3.87-1.39,6.19-1.29,2.29.1,4.78.74,6.98,2.2,1.11.7,2.13,1.61,3.02,2.66.9,1.04,1.65,2.26,2.2,3.58,1.14,2.64,1.4,5.76.68,8.73-.76,2.96-2.44,5.6-4.69,7.4-1.1.92-2.34,1.64-3.62,2.14-1.27.52-2.6.84-3.91.94-2.62.27-5.12-.34-7.2-1.32-2.09-1-3.71-2.49-4.86-4.04-2.32-3.15-2.69-6.43-2.49-8.47.21-2.09.81-3.11.98-3.05.25.06.09,1.16.27,3.05.18,1.86.86,4.61,3.01,7.06,1.07,1.2,2.47,2.33,4.2,3.04,1.72.69,3.74,1.09,5.79.8,1.03-.11,2.06-.4,3.04-.83.99-.42,1.94-1,2.79-1.73,1.72-1.43,2.99-3.47,3.59-5.76.54-2.3.38-4.7-.48-6.76-.4-1.04-.97-2-1.65-2.83-.67-.84-1.45-1.58-2.3-2.16-1.68-1.22-3.64-1.81-5.49-2-1.86-.18-3.62.16-5.13.72-3.05,1.16-4.94,3.27-5.96,4.83-1.04,1.58-1.41,2.64-1.66,2.57Z"/>
        </g>
        <g>
          <path class="cls-6" d="M97.92,74.68l-1.97,10.37c16.04,9,25.16,22.72,20.51,41.45-.73,2.95-1.74,5.71-2.98,8.28,14.8-11.55,26.02-27.47,29.9-43.07,8.3-33.41-17.61-63.27-56.33-72.89S11.46,23.5,3.17,56.91c-3.87,15.6-1.4,34.92,6.28,52.05.11-2.85.51-5.76,1.24-8.72,4.65-18.74,19.13-26.59,37.52-27.05l3.11-10.09"/>
          <path class="cls-4" d="M51.31,63.11c.11.03-.26,1.58-1.04,4.48-.42,1.51-.94,3.37-1.56,5.57-.06.16-.08.37-.17.5-.18.01-.36.02-.55.04-.35.02-.72.05-1.08.07-.59.04-1.19.08-1.82.13-1.25.14-2.58.29-3.97.51-2.79.45-5.85,1.2-9.04,2.39-3.19,1.2-6.5,2.95-9.54,5.47-3.04,2.51-5.74,5.85-7.74,9.85-.47,1.01-1.02,2.01-1.38,3.11-.41,1.08-.84,2.16-1.12,3.32-.32,1.14-.67,2.29-.89,3.49l-.17.9-.12.73-.12.8c-.16,1.08-.27,2.22-.34,3.53-.76.47-.97.84-1.16,1.18-.42-.09-.96-.34-1.44-.49-.44-1-.76-1.84-1.14-2.78-.37-.92-.74-1.85-1.12-2.78l-.13-.33-.08-.23-.16-.46-.32-.93c-.21-.62-.43-1.24-.64-1.87-.79-2.53-1.55-5.13-2.16-7.81C1.07,86.15.2,80.47.05,74.56c-.13-2.95.01-5.96.26-9,.28-3.04.8-6.11,1.53-9.18.78-3.06,1.82-6.1,3.12-9.07,1.35-2.96,2.99-5.82,4.9-8.54,3.84-5.45,8.9-10.18,14.72-13.92,5.85-3.7,12.42-6.48,19.35-8.17,13.88-3.46,28.98-3,43.5.62,14.53,3.6,28.09,10.26,38.74,19.8,5.34,4.74,9.84,10.27,13.28,16.27,3.39,6.03,5.65,12.58,6.5,19.19.42,3.3.53,6.6.33,9.84-.24,3.24-.74,6.41-1.48,9.48-.79,3.05-1.77,6.01-2.94,8.83-1.21,2.8-2.49,5.53-3.98,8.08-2.9,5.15-6.32,9.76-9.92,13.93-1.79,2.09-3.68,4.03-5.56,5.89-.48.45-.96.9-1.44,1.35l-.72.67-.36.33-.18.17-.27.23c-.77.65-1.53,1.29-2.29,1.93-.78.65-1.45,1.25-2.31,1.93-.49-.1-1.09-.13-1.5-.24,0-.4-.02-.81-.47-1.59.55-1.19.99-2.26,1.35-3.28l.27-.77.23-.71.27-.87c.36-1.16.6-2.34.84-3.5.29-1.15.42-2.31.56-3.46.19-1.14.18-2.28.24-3.39.1-4.47-.72-8.68-2.24-12.32-1.51-3.65-3.61-6.75-5.87-9.3-2.27-2.55-4.62-4.63-6.88-6.34-1.13-.85-2.24-1.6-3.27-2.31-.53-.33-1.05-.65-1.55-.97-.31-.19-.62-.38-.92-.57l-.47-.29c-.02-.16.06-.35.08-.52.49-2.23.9-4.12,1.23-5.65.67-2.94,1.07-4.47,1.18-4.45.11.02-.08,1.59-.54,4.57-.23,1.43-.51,3.2-.85,5.29,0,.09-.04.2-.03.28l.26.15c.19.11.38.21.58.32.52.3,1.06.6,1.61.92,1.08.68,2.24,1.41,3.42,2.24,2.36,1.67,4.85,3.74,7.28,6.33,2.42,2.59,4.7,5.78,6.38,9.62,1.68,3.83,2.65,8.3,2.62,13.04-.03,1.18,0,2.39-.19,3.59-.13,1.21-.25,2.44-.53,3.65-.24,1.22-.47,2.47-.83,3.69-.12.41-.24.83-.37,1.25l-.17.52c-.1.29-.21.56-.33.82.17-.12.45-.38.66-.55.36-.32.73-.65,1.1-.98.89-.85,1.78-1.71,2.69-2.57,1.81-1.84,3.63-3.75,5.35-5.8,3.45-4.09,6.73-8.6,9.49-13.6,1.42-2.48,2.63-5.11,3.77-7.81,1.1-2.71,2.01-5.54,2.74-8.45.68-2.92,1.14-5.92,1.34-8.98.16-3.06.04-6.17-.37-9.27-.83-6.21-2.99-12.37-6.22-18.07-3.28-5.67-7.58-10.93-12.71-15.45-10.22-9.11-23.32-15.55-37.41-19.04-14.09-3.51-28.68-3.95-41.97-.67-6.65,1.6-12.9,4.23-18.46,7.71-5.52,3.52-10.31,7.96-13.95,13.06-1.81,2.55-3.38,5.24-4.66,8.02-1.25,2.8-2.25,5.66-3.01,8.56-.71,2.91-1.23,5.83-1.53,8.75-.26,2.92-.42,5.81-.32,8.66.09,5.71.88,11.23,2.02,16.46.56,2.62,1.27,5.16,2.02,7.63.4,1.19.79,2.37,1.17,3.53.17.47.34.93.51,1.38.1.25.23.61.33.79.02-.28.05-.57.09-.88l.09-.54c.09-.43.17-.85.26-1.28.25-1.26.63-2.46.99-3.65.32-1.21.78-2.35,1.24-3.48.4-1.15.99-2.2,1.51-3.27,2.19-4.2,5.14-7.71,8.42-10.3,3.28-2.6,6.79-4.36,10.14-5.52,3.35-1.15,6.52-1.82,9.39-2.19,1.43-.18,2.8-.28,4.07-.38.64-.02,1.26-.04,1.85-.06.22,0,.44-.01.66-.01h.3c.05-.07.07-.18.1-.26.68-2,1.26-3.7,1.72-5.07.99-2.85,1.55-4.33,1.66-4.29Z"/>
        </g>
        <g>
          <path class="cls-6" d="M51.31,63.11l2.57,10.17c6.04.32,12.4,1.33,18.91,2.95,6.51,1.62,12.61,3.7,18.1,6.24l7.03-7.79"/>
          <path class="cls-4" d="M97.92,74.68c.33.3-1.6,3.03-4.98,7.21l-.32.4c-.17.21-.35.41-.53.62-.2.24-.41.47-.61.72l-.16.18-.08.09s-.05.06-.09.03l-.44-.19c-.3-.13-.6-.25-.9-.38l-.46-.2-.28-.11c-.35-.14-.71-.27-1.07-.42-1.45-.56-3.01-1.12-4.67-1.68-3.31-1.12-7-2.2-10.93-3.18-3.92-.97-7.69-1.75-11.14-2.3-1.73-.28-3.37-.51-4.91-.7-.39-.04-.77-.09-1.14-.13l-.29-.03-.5-.04c-.33-.03-.65-.06-.98-.08l-.47-.04s-.07-.02-.07-.07l-.03-.12-.05-.24c-.07-.31-.14-.62-.21-.92-.06-.27-.12-.54-.18-.8-.03-.17-.07-.34-.1-.5-1.03-5.27-1.46-8.59-1.03-8.7.43-.11,1.63,3.01,3.23,8.15.05.16.1.32.15.49l.04.12v.03s.04.06.04.06c.05.06.03.2.16.15l.13-.02h.06s.27,0,.27,0c.39.02.78.03,1.18.05,1.6.08,3.31.21,5.1.42,3.58.41,7.48,1.12,11.51,2.12,4.03,1,7.81,2.2,11.16,3.51,1.68.65,3.25,1.33,4.7,2.01.36.17.72.34,1.07.51l.24.12.05.04.11.08c.09.1.13-.03.21-.06l.05-.04.03-.02.09-.09.36-.36c3.81-3.79,6.33-5.99,6.66-5.69Z"/>
        </g>
        <g>
          <ellipse class="cls-6" cx="36.44" cy="98.48" rx="16.39" ry="10.68" transform="translate(-67.92 110.11) rotate(-76.06)"/>
          <path class="cls-4" d="M46.8,101.05c-.24-.06-.09-1.27-.03-3.39,0-1.06.01-2.36-.19-3.83-.19-1.46-.53-3.12-1.23-4.77-.7-1.63-1.78-3.33-3.4-4.34-.8-.49-1.71-.85-2.69-.91-.98-.06-2,.12-3,.52-1.01.39-1.99,1.05-2.88,1.84-.91.79-1.74,1.73-2.47,2.8-1.5,2.1-2.56,4.64-3.27,7.32-.63,2.7-.88,5.45-.54,8,.15,1.28.44,2.51.88,3.63.42,1.13.98,2.16,1.69,2.98.7.83,1.52,1.47,2.41,1.87.9.4,1.87.51,2.8.45,1.9-.13,3.65-1.13,5.03-2.24,1.4-1.13,2.47-2.44,3.32-3.64.87-1.2,1.46-2.36,1.96-3.29.94-1.91,1.37-3.05,1.61-2.98.19.04.17,1.29-.45,3.44-.35,1.06-.81,2.37-1.6,3.78-.78,1.41-1.83,2.96-3.35,4.4-1.52,1.4-3.55,2.83-6.24,3.18-1.32.16-2.78.06-4.15-.48-1.36-.54-2.59-1.44-3.58-2.54-1.01-1.1-1.75-2.41-2.3-3.79-.57-1.38-.95-2.84-1.14-4.34-.45-3-.18-6.12.54-9.19.8-3.05,2.03-5.93,3.82-8.37.87-1.23,1.89-2.35,3.04-3.3,1.13-.96,2.4-1.77,3.81-2.27,1.39-.51,2.9-.74,4.35-.57,1.46.16,2.79.75,3.89,1.51,2.21,1.57,3.34,3.78,4.03,5.73.68,1.99.88,3.85.9,5.46.04,1.61-.16,2.98-.35,4.08-.46,2.2-1.03,3.31-1.21,3.26Z"/>
        </g>
        <g>
          <path class="cls-7" d="M33.86,108.85c-4.19-1.04-7.29-4.2-8.5-8.07-.29,6.79,2.48,12.46,7.12,13.61,4.64,1.15,9.74-2.56,12.66-8.7-2.87,2.86-7.09,4.2-11.29,3.16Z"/>
          <path class="cls-4" d="M33.86,108.85c.07-.29,1.29-.13,3.29-.41,1.96-.28,4.8-1.22,7.07-3.68l2.11,1.49c-1,2.26-2.44,4.7-4.73,6.77-1.14,1.03-2.5,1.96-4.12,2.57-1.61.6-3.53.8-5.38.36-1.84-.47-3.44-1.55-4.59-2.83-1.15-1.3-1.91-2.76-2.44-4.2-1.06-2.9-1.19-5.73-1.02-8.19l2.56-.33c.86,3.24,2.93,5.39,4.53,6.56,1.63,1.19,2.79,1.61,2.71,1.9-.04.23-1.36.32-3.47-.61-1.03-.48-2.25-1.23-3.39-2.4-1.14-1.16-2.21-2.74-2.9-4.67l2.56-.33c.01,2.2.29,4.67,1.24,6.99.47,1.15,1.11,2.26,1.94,3.16.84.9,1.87,1.54,3.02,1.85,1.16.27,2.38.18,3.53-.23,1.16-.41,2.24-1.09,3.19-1.89,1.93-1.6,3.32-3.65,4.37-5.59l2.11,1.49c-1.52,1.39-3.19,2.29-4.75,2.78-1.55.5-2.98.6-4.12.54-2.29-.16-3.42-.86-3.35-1.09Z"/>
        </g>
        <path class="cls-8" d="M45.76,100.8c-6.22-1.54-10.51,2.46-12.88,12,2.37-9.55.45-15.09-5.77-16.63,6.22,1.54,10.51-2.46,12.88-12-2.37,9.55-.45,15.09,5.77,16.63Z"/>
        <path class="cls-6" d="M31.69,114.19c-.33,1.15-.89,2.21-1.37,2.85-.47.67-.92,1.02-.83,1.24.06.19.77.21,1.63-.4.87-.61,1.73-1.75,2.17-3.3l-1.59-.4Z"/>
        <path class="cls-6" d="M35.37,114.35c-.02,1.2-.29,2.37-.59,3.11-.29.77-.63,1.22-.48,1.42.11.17.8,0,1.47-.81.68-.81,1.22-2.14,1.24-3.75l-1.64.03Z"/>
        <path class="cls-6" d="M28.31,112.01c-.62,1.03-1.43,1.91-2.06,2.4-.63.52-1.15.74-1.12.99,0,.2.68.4,1.68.03.99-.36,2.12-1.24,2.95-2.62l-1.44-.79Z"/>
        <ellipse class="cls-6" cx="61.49" cy="121.77" rx="2.57" ry="4.02" transform="translate(-71.51 152.1) rotate(-76.06)"/>
        <path class="cls-8" d="M55.19,35.3c-15.41-3.83-30.66-1.78-42.59,4.58-3.62,5.04-6.36,10.84-7.98,17.39-1.47,5.93-2.02,12.4-1.72,19.07,7.81-22.41,28.86-37.69,53.53-40.71-.41-.11-.82-.23-1.24-.34Z"/>
        <g>
          <path class="cls-1" d="M68.54,131.53c-.77,3.08-5.38,4.59-10.31,3.36s-8.31-4.71-7.54-7.8"/>
          <path class="cls-4" d="M50.69,127.1c.46.14.42,1.4,1.62,2.74,1.14,1.37,3.46,2.8,6.31,3.5,2.85.71,5.57.53,7.22-.15,1.69-.62,2.24-1.76,2.71-1.66.19.04.37.45.2,1.16-.15.71-.72,1.68-1.75,2.45-2.05,1.59-5.62,2.19-9.15,1.31-3.53-.87-6.4-3.07-7.47-5.43-.55-1.16-.6-2.29-.4-2.99.18-.71.53-.99.72-.93Z"/>
        </g>
        <g>
          <path class="cls-9" d="M74.94,130.42s3.79,3.82-2.14,4.55c-5.94.73-4.88-3.75-13.14-5.8h0c-8.26-2.05-9.43,2.4-14.33-1.02-4.91-3.42.23-5.02.23-5.02"/>
          <path class="cls-4" d="M45.55,123.12c.09.22-.49.57-1.12,1.29-.31.37-.49.77-.32,1.1.14.32.66.87,1.38,1.34.72.49,1.62.96,2.46,1.15.84.22,1.72.03,2.98-.28,1.25-.33,2.78-.66,4.35-.68,1.58-.03,3.18.2,4.75.57,1.56.41,3.08.95,4.46,1.72,1.39.75,2.58,1.76,3.53,2.64.96.87,1.65,1.44,2.5,1.64.84.23,1.85.23,2.71.13.86-.07,1.57-.31,1.85-.53.3-.22.33-.65.23-1.13-.22-.93-.56-1.51-.39-1.66.14-.13.8.09,1.53,1.16.18.27.34.62.42,1.1.07.47,0,1.08-.36,1.58-.72,1.03-1.81,1.41-2.86,1.7-1.07.27-2.25.46-3.7.24-.36-.04-.72-.18-1.08-.28-.34-.15-.72-.29-1.03-.49-.68-.37-1.21-.81-1.74-1.23-1.02-.83-1.97-1.55-3.11-2.12-1.12-.58-2.39-1.01-3.75-1.37-1.36-.32-2.69-.53-3.95-.54-1.27-.02-2.45.17-3.74.42-.67.11-1.34.26-2.12.27-.36.03-.77-.03-1.14-.05-.37-.08-.75-.13-1.08-.26-1.38-.48-2.34-1.2-3.16-1.94-.79-.75-1.58-1.59-1.73-2.84-.07-.61.14-1.17.42-1.56.29-.39.6-.62.88-.78,1.15-.61,1.83-.5,1.9-.31Z"/>
        </g>
        <g>
          <ellipse class="cls-6" cx="94.52" cy="112.9" rx="16.39" ry="10.68" transform="translate(-37.83 177.43) rotate(-76.06)"/>
          <path class="cls-4" d="M84.16,110.33c-.19-.04-.17-1.29.45-3.44.35-1.06.81-2.37,1.6-3.78.78-1.41,1.83-2.96,3.35-4.4,1.52-1.4,3.55-2.83,6.24-3.18,1.32-.16,2.78-.06,4.15.48,1.36.54,2.59,1.44,3.58,2.54,1.01,1.1,1.75,2.41,2.3,3.79.57,1.38.95,2.84,1.14,4.34.45,3,.18,6.12-.54,9.19-.8,3.05-2.03,5.93-3.82,8.37-.87,1.23-1.89,2.35-3.04,3.3-1.13.96-2.4,1.77-3.81,2.27-1.39.51-2.9.74-4.35.57-1.46-.16-2.79-.75-3.89-1.51-2.21-1.57-3.34-3.78-4.03-5.73-.68-1.99-.87-3.85-.9-5.46-.04-1.61.16-2.98.35-4.08.46-2.2,1.03-3.31,1.21-3.26.24.06.09,1.27.03,3.39,0,1.06-.01,2.36.19,3.83.19,1.46.53,3.12,1.23,4.77.7,1.63,1.78,3.33,3.4,4.34.8.49,1.71.85,2.69.91.98.06,2-.12,3-.52,1.01-.39,1.99-1.05,2.88-1.84.91-.79,1.74-1.73,2.47-2.8,1.5-2.1,2.56-4.64,3.27-7.32.63-2.7.88-5.45.54-8-.14-1.28-.44-2.51-.87-3.63-.42-1.12-.98-2.16-1.69-2.98-.7-.83-1.52-1.47-2.41-1.87-.9-.4-1.87-.51-2.8-.45-1.9.13-3.65,1.13-5.03,2.24-1.4,1.13-2.47,2.44-3.32,3.64-.87,1.2-1.46,2.36-1.96,3.29-.94,1.91-1.37,3.05-1.61,2.98Z"/>
        </g>
        <g>
          <path class="cls-7" d="M91.95,123.27c4.19,1.04,8.41-.3,11.29-3.16-2.92,6.14-8.02,9.85-12.66,8.7-4.64-1.15-7.41-6.82-7.12-13.61,1.2,3.87,4.31,7.03,8.5,8.07Z"/>
          <path class="cls-4" d="M91.95,123.27c-.04.23-1.36.32-3.47-.61-1.03-.48-2.25-1.23-3.39-2.4-1.14-1.16-2.21-2.74-2.9-4.67l2.56-.33c.01,2.2.29,4.67,1.24,6.99.47,1.15,1.11,2.26,1.94,3.16.84.9,1.87,1.54,3.02,1.85,1.16.27,2.38.18,3.53-.23,1.16-.41,2.24-1.09,3.19-1.89,1.93-1.6,3.32-3.65,4.37-5.59l2.11,1.49c-1.52,1.39-3.19,2.29-4.75,2.78-1.55.5-2.98.6-4.12.54-2.29-.16-3.42-.86-3.35-1.09.07-.29,1.29-.13,3.29-.41,1.96-.28,4.8-1.22,7.07-3.68l2.11,1.49c-1,2.26-2.44,4.7-4.73,6.77-1.14,1.03-2.5,1.96-4.12,2.57-1.61.6-3.53.8-5.38.36-1.84-.47-3.44-1.55-4.59-2.83-1.15-1.3-1.91-2.76-2.44-4.2-1.06-2.9-1.19-5.73-1.02-8.19l2.56-.33c.86,3.24,2.93,5.39,4.53,6.56,1.63,1.19,2.79,1.61,2.71,1.9Z"/>
        </g>
        <path class="cls-8" d="M85.2,110.59c6.22,1.54,8.14,7.09,5.77,16.63,2.37-9.55,6.66-13.55,12.88-12-6.22-1.54-8.14-7.09-5.77-16.63-2.37,9.55-6.66,13.55-12.88,12Z"/>
        <path class="cls-6" d="M89.77,128.62c-.34,1.57-.11,2.99.37,3.93.47.95,1.11,1.26,1.25,1.11.19-.16-.04-.67-.15-1.49-.13-.79-.13-1.99.12-3.16l-1.59-.4Z"/>
        <path class="cls-6" d="M86.61,126.64c-.73,1.43-.88,2.86-.66,3.89.21,1.04.74,1.5.92,1.4.22-.1.13-.66.24-1.48.08-.79.39-1.95.93-3.02l-1.44-.79Z"/>
        <path class="cls-6" d="M93.74,128.69c.08,1.61.67,2.91,1.38,3.7.7.79,1.39.93,1.5.75.14-.2-.22-.64-.53-1.4-.33-.73-.64-1.89-.7-3.08l-1.64.03Z"/>
        <path class="cls-8" d="M107.5,48.29c15.41,3.83,27.93,12.77,35.5,23.97.84,6.15.55,12.56-1.08,19.11-1.47,5.93-4.01,11.9-7.4,17.67,3.58-23.46-7.88-46.82-28.27-61.02.42.1.83.18,1.25.28Z"/>
      </g>
      <g>
        <circle class="cls-3" cx="52.51" cy="148.51" r="13.19"/>
        <path class="cls-4" d="M65.7,148.51c-.26,0-.36-1.17-1.02-3.07-.64-1.87-2.04-4.53-4.88-6.51-1.41-.97-3.14-1.78-5.1-2.07-1.95-.28-4.13-.17-6.18.65-1.03.38-2.02.94-2.93,1.63-.92.68-1.75,1.53-2.44,2.5-1.42,1.92-2.2,4.35-2.23,6.87.03,2.52.81,4.95,2.23,6.87.68.97,1.52,1.82,2.44,2.5.91.7,1.9,1.26,2.93,1.63,2.05.82,4.23.93,6.18.65,1.97-.29,3.7-1.1,5.1-2.07,2.84-1.99,4.23-4.65,4.88-6.51.65-1.9.76-3.07,1.02-3.07.18,0,.52,1.18.19,3.37-.15,1.09-.56,2.41-1.29,3.82-.74,1.41-1.85,2.9-3.43,4.19-1.57,1.28-3.6,2.39-5.99,2.88-2.37.47-5.07.45-7.67-.49-1.31-.43-2.58-1.1-3.75-1.95-1.18-.84-2.25-1.88-3.14-3.1-1.83-2.4-2.88-5.52-2.9-8.72.02-3.2,1.07-6.32,2.9-8.72.89-1.22,1.96-2.26,3.14-3.1,1.17-.85,2.44-1.52,3.75-1.95,2.61-.94,5.31-.96,7.67-.49,2.38.49,4.42,1.6,5.99,2.88,1.58,1.29,2.69,2.78,3.43,4.19.73,1.41,1.14,2.73,1.29,3.82.32,2.19-.02,3.38-.19,3.37Z"/>
      </g>
      <g>
        <circle class="cls-3" cx="52.51" cy="176.43" r="13.19"/>
        <path class="cls-4" d="M65.7,176.43c-.26,0-.36-1.17-1.02-3.07-.64-1.87-2.04-4.53-4.88-6.51-1.41-.97-3.14-1.78-5.1-2.07-1.95-.28-4.13-.17-6.18.65-1.03.38-2.02.94-2.93,1.63-.92.68-1.75,1.53-2.44,2.5-1.42,1.92-2.2,4.35-2.23,6.87.03,2.52.81,4.95,2.23,6.87.68.97,1.52,1.82,2.44,2.5.91.7,1.9,1.26,2.93,1.63,2.05.82,4.23.93,6.18.65,1.97-.29,3.7-1.1,5.1-2.07,2.84-1.99,4.23-4.65,4.88-6.51.65-1.9.76-3.07,1.02-3.07.18,0,.52,1.18.19,3.37-.15,1.09-.56,2.41-1.29,3.82-.74,1.41-1.85,2.9-3.43,4.19-1.57,1.28-3.6,2.39-5.99,2.88-2.37.47-5.07.45-7.67-.49-1.31-.43-2.58-1.1-3.75-1.95-1.18-.84-2.25-1.88-3.14-3.1-1.83-2.4-2.88-5.52-2.9-8.72.02-3.2,1.07-6.32,2.9-8.72.89-1.22,1.96-2.26,3.14-3.1,1.17-.85,2.44-1.52,3.75-1.95,2.61-.94,5.31-.96,7.67-.49,2.38.49,4.42,1.6,5.99,2.88,1.58,1.29,2.69,2.78,3.43,4.19.73,1.41,1.14,2.73,1.29,3.82.32,2.19-.02,3.38-.19,3.37Z"/>
      </g>
    </g>
  </g>
</svg>