<?xml version="1.0" encoding="UTF-8"?>
<svg id="_レイヤー_2" data-name="レイヤー 2" xmlns="http://www.w3.org/2000/svg" viewBox="0 0 319.56 333.9">
  <defs>
    <style>
      .cls-1 {
        fill: #d31421;
      }

      .cls-2 {
        fill: #9d9d9e;
      }

      .cls-3 {
        fill: #e9a6c3;
      }

      .cls-4 {
        fill: #fff;
      }

      .cls-5 {
        fill: #f3e740;
      }

      .cls-6 {
        fill: #392f2c;
      }

      .cls-7 {
        fill: #221714;
      }
    </style>
  </defs>
  <g id="_レイヤー_7" data-name="レイヤー 7">
    <g>
      <g>
        <g>
          <g>
            <path class="cls-5" d="M233.26,61.68c.37-.03.73-.06,1.09-.1,8.39-1.06,15.55-7.31,17.32-16.06,1.25-6.14-.43-12.19-4.06-16.71,13.31,8.93,20.63,25.29,17.24,41.97-2.03,10.01-7.58,18.41-15.09,24.18-2.43,2.47-5.48,4.27-8.85,5.19-2.88.79-5.98.95-9.11.32-10.65-2.16-17.53-12.55-15.37-23.2,1.72-8.49,8.67-14.56,16.81-15.59Z"/>
            <path class="cls-6" d="M233.26,61.68c.02.14-.65.32-1.88.71-1.22.38-3.01,1.05-5.05,2.32-2.02,1.28-4.29,3.21-6.11,6.05-1.81,2.81-3.03,6.58-2.92,10.74.11,4.14,1.8,8.67,5.16,12.17,1.67,1.74,3.75,3.21,6.12,4.19,2.37.97,5.01,1.5,7.7,1.38,2.69-.11,5.43-.84,7.9-2.18,1.24-.67,2.41-1.49,3.48-2.44.26-.24.53-.49.78-.74l.16-.16s.07-.06.11-.09l.11-.09.22-.18.44-.36c.6-.47,1.15-.99,1.73-1.49,4.5-4.14,8.2-9.49,10.38-15.6.8-2.25,1.42-4.55,1.77-6.87.09-.58.2-1.15.28-1.73l.15-1.74c.14-1.15.1-2.31.13-3.46,0-4.59-.93-9.05-2.43-13.13-3.01-8.19-8.53-14.75-14.69-18.96l1.96-2.14c2.19,2.81,3.58,6.01,4.2,9.17.62,3.16.47,6.28-.19,9.04-1.34,5.57-4.65,9.63-7.88,11.96-3.26,2.37-6.35,3.25-8.41,3.58-2.09.32-3.2.18-3.21.04-.01-.17,1.08-.34,3.01-.91,1.91-.59,4.71-1.68,7.57-4.05,2.83-2.34,5.6-6.14,6.6-11.14.5-2.48.53-5.22-.1-7.97-.62-2.75-1.91-5.5-3.87-7.88l1.96-2.14c6.73,4.36,12.84,11.35,16.2,20.21,1.67,4.41,2.72,9.26,2.76,14.26-.02,1.25.03,2.51-.12,3.77-.05.63-.11,1.26-.16,1.89-.08.63-.2,1.26-.29,1.89-.37,2.53-1.04,5.03-1.92,7.48-2.38,6.67-6.45,12.49-11.37,16.96-.63.54-1.24,1.1-1.89,1.61l-.48.38-.24.19-.03.02.02-.02h0s0,0,0,0l-.06.06c-.3.3-.62.59-.93.88-1.28,1.13-2.68,2.08-4.16,2.86-2.95,1.56-6.19,2.36-9.37,2.45-3.18.09-6.28-.58-9.03-1.77-2.75-1.21-5.14-2.98-7.03-5.04-3.81-4.15-5.57-9.41-5.52-14.12.04-4.73,1.61-8.88,3.77-11.88,2.17-3.02,4.79-4.95,7.06-6.13,2.29-1.17,4.25-1.65,5.57-1.82,1.32-.18,2.03-.12,2.04-.02Z"/>
          </g>
          <g>
            <path class="cls-4" d="M250.35,111.32c3.4-40.51-23.98-78.05-64.8-86.33-34.97-7.1-69.23,9.42-86.3,38.59-2.72-.94-5.53-1.73-8.43-2.32-35.68-7.24-70.48,15.81-77.72,51.49-2.07,10.18-1.66,20.28.8,29.7-5.42,5.45-9.36,12.49-11.01,20.59-3.36,16.57,3.84,32.83,16.98,41.8.06,14.4,3.72,28.42,10.39,40.87h0s.01.02.02.03c.78,1.46,1.62,2.89,2.49,4.31,22.53,40.43-.51,42.81-6.47,31.66-4.68-8.74-22.18-14.47-22.18-14.47,0,0,15,23.3,14.41,36.13-1.25,27.15,27.25,42.36,53.08,12.51,16.15-18.67,31.96-23.23,39.52-24.32,1.54-.07,3.08-.17,4.61-.33,0,0,0,0,0,0h0c20.92-2.11,40.52-11.77,54.94-27.16,1.63.51,3.3.94,5.01,1.29,27.26,5.54,53.85-11.62,60.21-38.5,24.96-3.03,46.3-21.65,51.58-47.64,5.91-29.11-10.33-57.55-37.14-67.9Z"/>
            <path class="cls-6" d="M250.35,111.32s.48.11,1.38.46c.89.36,2.25.85,3.98,1.64,3.38,1.7,8.42,4.4,13.9,9.33,1.32,1.27,2.82,2.54,4.13,4.12.68.77,1.38,1.55,2.1,2.35.65.86,1.31,1.74,1.99,2.64.34.45.68.91,1.03,1.37.35.46.63.98.95,1.47.62,1,1.26,2.03,1.91,3.07.58,1.09,1.13,2.21,1.72,3.36.28.58.61,1.14.85,1.74.25.61.49,1.22.74,1.83,1.09,2.44,1.83,5.11,2.65,7.84.3,1.4.6,2.82.91,4.27.18.72.25,1.46.34,2.21.09.75.18,1.5.27,2.26.62,6.07.36,12.62-1.08,19.32-1.46,6.69-4.15,13.5-8.23,19.87-4.03,6.4-9.59,12.23-16.32,16.97-.42.3-.83.61-1.26.9l-1.33.81c-.89.54-1.77,1.1-2.68,1.63-.93.48-1.87.96-2.82,1.44-.47.24-.94.5-1.43.71l-1.48.62c-3.9,1.77-8.13,2.94-12.47,3.87-1.01.17-2.02.33-3.03.5-.05.02-.16.01-.21.05l-.06.2-.41,1.45-.47,1.64c-.15.55-.31,1.1-.54,1.62-.42,1.06-.84,2.13-1.27,3.2-1.89,4.19-4.19,8.33-7.26,11.99l-1.11,1.4c-.38.46-.82.87-1.22,1.31-.83.86-1.65,1.75-2.51,2.6-1.84,1.57-3.61,3.25-5.67,4.6-1.94,1.51-4.15,2.65-6.29,3.91-2.27,1.02-4.5,2.19-6.92,2.93-2.35.93-4.86,1.42-7.34,2.04-1.27.19-2.54.37-3.81.56l-.96.14c-.32.03-.64.04-.97.06l-1.94.1-1.95.09c-.65.04-1.3-.04-1.95-.06-1.3-.08-2.62-.1-3.92-.23-1.3-.19-2.6-.39-3.91-.58l-.98-.15-.96-.24-1.93-.49-1.33-.34c-.05-.03-.08.02-.11.05l-.45.46c-.92.95-1.84,1.9-2.83,2.8-.97.91-1.94,1.83-2.97,2.68-1.02.87-2.03,1.75-3.11,2.56-4.24,3.32-8.83,6.3-13.71,8.85-9.75,5.11-20.69,8.5-32.11,9.69l.56-3.03h0s-.78,3.04-.78,3.04h.05s.16,0,.16,0l-2.47.18-1.24.09-.62.04c-.3.02-.18,0-.45.05-1.55.22-3.09.59-4.62.98-3.06.83-6.07,1.97-8.98,3.34-5.83,2.77-11.26,6.52-16.22,10.91-1.21,1.13-2.47,2.21-3.62,3.42l-1.76,1.78-1.69,1.86c-1.15,1.27-2.31,2.55-3.47,3.83-.58.66-1.24,1.25-1.85,1.88-.62.63-1.25,1.24-1.93,1.82-2.62,2.38-5.49,4.55-8.64,6.32-3.14,1.78-6.56,3.2-10.19,3.97-3.62.78-7.47.82-11.18.03-3.72-.78-7.23-2.55-10.19-4.97-2.91-2.47-5.32-5.56-6.92-9.02-1.63-3.45-2.6-7.18-2.94-10.96-.04-.95-.13-1.89-.14-2.84l.02-1.42c0-.48.01-.96,0-1.34.01-1.63-.21-3.32-.57-5.01-.72-3.39-1.91-6.77-3.3-10.07-1.39-3.31-2.97-6.58-4.67-9.79-.85-1.61-1.73-3.21-2.64-4.79l-1.03-1.76-1.47-2.41c-.98-1.61-2.09-3.3-3.12-4.93l4.7,1.59c.78.25,1.61.58,2.44.9.83.32,1.66.63,2.5,1,1.75.74,3.42,1.53,5.1,2.4,3.32,1.77,6.61,3.71,9.49,6.45,1.46,1.27,2.75,3.05,3.74,4.73.77,1.35,1.87,2.53,3.19,3.36,1.31.8,2.83,1.33,4.26,1.25.71,0,1.39-.18,1.99-.47.62-.26,1.12-.73,1.58-1.24.84-1.04,1.35-2.49,1.56-4.04.14-.77.13-1.59.16-2.39-.06-.82-.05-1.64-.18-2.47-.4-3.32-1.36-6.64-2.55-9.87-1.21-3.23-2.59-6.4-4.18-9.48-.75-1.57-1.61-3.04-2.41-4.57-.87-1.51-1.74-3.02-2.61-4.53l-3.07-5.34,5.4,2.89h0s-2.37,2.37-2.37,2.37c-4.75-8.87-7.95-18.46-9.5-28.23-.37-2.44-.67-4.89-.84-7.35-.1-1.23-.15-2.46-.2-3.68l-.03-1.54h0s0,0,.01,0l-.3-.22c-4.04-2.96-7.58-6.58-10.3-10.72-2.74-4.13-4.79-8.69-5.96-13.46-1.16-4.77-1.48-9.71-.98-14.54.49-4.83,1.81-9.54,3.88-13.87,1.03-2.17,2.24-4.24,3.62-6.19.69-.97,1.41-1.92,2.18-2.83.37-.46.78-.9,1.17-1.34l.3-.33.23-.24.03-.03-.07-.28c-.1-.4-.19-.8-.28-1.2-.18-.8-.34-1.6-.49-2.41-.3-1.61-.53-3.23-.71-4.85-.34-3.24-.47-6.5-.34-9.73.25-6.46,1.4-12.83,3.42-18.84.96-3.03,2.23-5.93,3.59-8.75,1.39-2.82,3.01-5.5,4.73-8.08,3.54-5.11,7.7-9.72,12.38-13.6,9.34-7.8,20.55-12.9,31.99-14.79,5.72-1.01,11.49-1.16,17.12-.69,1.41.09,2.8.33,4.19.49,1.38.25,2.76.47,4.13.75,1.36.29,2.71.63,4.04,1.01,1.22.34,3.11.96,2.87.89.93-1.44,1.85-2.87,2.76-4.29,1.26-1.66,2.5-3.31,3.75-4.96,1.33-1.57,2.72-3.08,4.06-4.61,1.41-1.47,2.9-2.84,4.34-4.24,5.95-5.41,12.54-9.81,19.4-13.16,6.86-3.36,13.99-5.66,21.08-7.02,7.1-1.39,14.16-1.58,20.91-1.13.84.07,1.69.14,2.52.21.84.08,1.67.11,2.49.28,1.64.27,3.27.54,4.89.81,1.62.25,3.18.7,4.75,1.04,1.54.45,3.09.83,4.59,1.34,6.01,1.94,11.59,4.47,16.62,7.42,10.06,5.97,17.93,13.51,23.72,21.2,5.8,7.71,9.61,15.52,12.02,22.56,2.43,7.05,3.51,13.33,4.01,18.41.49,5.1.35,9.02.23,11.64-.1,1.31-.21,2.3-.28,2.97-.08.66-.13,1-.17.99s-.05-.34-.05-1.01c.01-.67.03-1.66.06-2.97-.02-2.62-.02-6.51-.64-11.53-.64-5.01-1.83-11.19-4.35-18.08-2.5-6.89-6.36-14.5-12.14-21.99-5.77-7.46-13.55-14.75-23.42-20.47-4.94-2.84-10.39-5.25-16.26-7.09-1.46-.48-2.98-.83-4.48-1.27-1.53-.32-3.06-.74-4.64-.98-1.57-.25-3.16-.5-4.76-.75-.8-.16-1.61-.18-2.43-.25-.81-.06-1.63-.12-2.45-.19-6.56-.38-13.42-.15-20.29,1.25-6.87,1.37-13.76,3.65-20.39,6.94-6.62,3.29-12.98,7.58-18.7,12.84-1.38,1.37-2.82,2.7-4.17,4.12-1.29,1.49-2.62,2.95-3.9,4.47-1.19,1.59-2.39,3.19-3.59,4.81-1.29,2.03-2.58,4.06-3.89,6.11-2.79-.96-3.47-1.14-4.86-1.54-1.28-.36-2.57-.67-3.87-.95-1.31-.26-2.63-.47-3.95-.7-1.33-.14-2.67-.37-4.01-.45-5.38-.43-10.9-.26-16.35.72-10.93,1.85-21.6,6.76-30.48,14.23-4.45,3.72-8.4,8.12-11.76,13-1.64,2.47-3.17,5.02-4.48,7.71-1.28,2.7-2.49,5.46-3.39,8.34-1.91,5.73-2.99,11.8-3.21,17.94-.12,3.07.01,6.17.35,9.25.17,1.54.39,3.08.68,4.61.14.77.3,1.53.47,2.29.08.38.17.76.27,1.14l.51,2.06-1.15,1.2-.36.37-.28.3c-.36.41-.74.81-1.08,1.24-.71.83-1.37,1.71-2,2.61-1.27,1.79-2.38,3.7-3.32,5.7-1.9,3.99-3.1,8.33-3.55,12.78-.45,4.44-.15,8.98.92,13.36,1.08,4.38,2.98,8.57,5.5,12.37,2.51,3.81,5.77,7.13,9.48,9.84l1.16.86.36.27c.05.05.14.08.16.14v.22s.02.9.02.9l.04,2.07c.05,1.18.1,2.36.19,3.54.17,2.36.46,4.71.82,7.06,1.5,9.38,4.58,18.6,9.15,27.12l2.73,5.1-5.1-2.73h0s2.33-2.44,2.33-2.44c.88,1.52,1.75,3.05,2.63,4.57.83,1.58,1.74,3.14,2.51,4.75,1.63,3.17,3.08,6.46,4.35,9.85,1.25,3.4,2.29,6.93,2.74,10.67.15.92.15,1.89.21,2.84-.03.97-.03,1.94-.19,2.93-.28,1.96-.92,4.02-2.33,5.77-1.46,1.82-3.86,2.98-6.15,2.99-2.3.1-4.44-.67-6.26-1.79-1.82-1.15-3.31-2.75-4.37-4.6-.15-.25-.25-.4-.36-.57l-.32-.51c-.2-.34-.42-.68-.71-.99l-.79-.95-.91-.89c-2.47-2.37-5.56-4.22-8.69-5.88-1.57-.82-3.21-1.59-4.83-2.27h-.02s.37.64.37.64c.93,1.62,1.83,3.25,2.7,4.9,1.74,3.3,3.36,6.65,4.8,10.09,1.44,3.44,2.7,6.97,3.48,10.7.39,1.86.65,3.78.64,5.78.02.52.01.95,0,1.37l-.02,1.29c0,.86.08,1.72.12,2.57.3,3.41,1.18,6.74,2.6,9.78,1.4,3.06,3.51,5.72,6,7.86,2.54,2.07,5.53,3.59,8.73,4.27,3.19.68,6.53.67,9.75-.02,3.22-.68,6.33-1.95,9.22-3.58,2.9-1.63,5.59-3.64,8.07-5.88.64-.54,1.24-1.12,1.83-1.71.59-.6,1.21-1.15,1.76-1.78,1.14-1.26,2.29-2.51,3.43-3.76l1.75-1.92,1.83-1.84c1.19-1.25,2.51-2.38,3.77-3.55,5.17-4.55,10.86-8.47,17.02-11.38,3.08-1.44,6.27-2.64,9.54-3.52,1.64-.41,3.29-.79,4.97-1.03.13-.04.66-.08.77-.08l.6-.04,1.2-.08,2.39-.17h.13s.04,0,.04,0h.06s-.78,3.04-.78,3.04h0s-4.94-2.48-4.94-2.48l5.49-.55c11.01-1.11,21.57-4.35,31.01-9.24,4.72-2.45,9.16-5.3,13.27-8.5,1.04-.78,2.03-1.62,3.01-2.46,1-.82,1.94-1.7,2.88-2.58.96-.86,1.85-1.78,2.75-2.69l.92-.93.63-.64.16-.16c.06-.02.14.03.21.04l.44.11,2.43.63,1.82.47.91.23.93.14c1.23.19,2.46.38,3.69.57,1.23.13,2.47.15,3.7.23.62.02,1.23.1,1.84.07l1.84-.08,1.83-.08c.3-.02.61-.02.91-.05l.9-.13c1.21-.17,2.41-.34,3.61-.51,2.35-.57,4.72-1.02,6.95-1.89,2.3-.69,4.41-1.78,6.57-2.74,2.03-1.2,4.13-2.25,5.98-3.68,1.96-1.26,3.65-2.85,5.4-4.33.82-.8,1.6-1.64,2.39-2.45.39-.42.81-.8,1.17-1.24l1.06-1.33c2.93-3.45,5.13-7.37,6.96-11.34.41-1.02.82-2.03,1.23-3.04.22-.5.38-1.02.53-1.54l.46-1.56.51-1.73.4-1.38c0-.07.04-.11.11-.1l.18-.03.35-.06.71-.11c1.15-.18,2.29-.36,3.43-.54,4.16-.86,8.23-1.95,11.99-3.63l1.42-.58c.47-.2.92-.45,1.37-.68.91-.46,1.82-.91,2.72-1.37.87-.52,1.73-1.03,2.59-1.55l1.28-.77c.42-.27.81-.57,1.22-.86,6.51-4.52,11.92-10.08,15.86-16.22,3.99-6.11,6.66-12.66,8.14-19.13,1.46-6.47,1.79-12.83,1.25-18.73-.08-.74-.16-1.47-.24-2.19-.08-.73-.14-1.45-.31-2.15-.28-1.41-.56-2.8-.83-4.16-.77-2.67-1.45-5.29-2.48-7.68-.23-.61-.47-1.21-.7-1.8-.23-.6-.54-1.15-.81-1.71-.55-1.12-1.1-2.22-1.63-3.3-.62-1.03-1.23-2.04-1.82-3.03-.31-.49-.57-1-.9-1.46-.33-.46-.66-.91-.98-1.36-.65-.9-1.28-1.77-1.9-2.63-.69-.8-1.36-1.58-2.02-2.35-1.26-1.58-2.7-2.84-3.97-4.13-5.28-4.97-10.16-7.78-13.44-9.62-1.68-.86-2.99-1.43-3.85-1.87-.86-.43-1.3-.66-1.28-.71Z"/>
          </g>
          <g>
            <path class="cls-5" d="M124.88,37.31c-.33-.17-.65-.34-.96-.52-7.31-4.24-11.47-12.8-9.69-21.54,1.25-6.14,5.15-11.05,10.26-13.81-15.73,3.04-28.86,15.25-32.25,31.93-2.03,10.01-.2,19.91,4.46,28.15,1.27,3.22,3.39,6.07,6.12,8.23,2.34,1.85,5.13,3.21,8.26,3.85,10.65,2.16,21.04-4.72,23.2-15.37,1.72-8.49-2.31-16.79-9.4-20.92Z"/>
            <path class="cls-6" d="M124.88,37.31c.05-.09.72.13,1.87.81,1.15.67,2.76,1.87,4.42,3.84,1.63,1.97,3.29,4.77,4.11,8.4.82,3.61.65,8.04-1.16,12.41-1.8,4.35-5.47,8.52-10.59,10.85-2.55,1.17-5.43,1.86-8.44,1.9-3,.03-6.1-.56-9-1.89-2.89-1.32-5.56-3.33-7.67-5.91-1.05-1.29-1.97-2.72-2.71-4.25-.18-.38-.36-.77-.52-1.17l-.03-.07s0,.02,0,.01h0s.01.02.01.02l-.02-.03-.15-.27-.29-.54c-.41-.72-.75-1.47-1.12-2.22-2.8-6.03-4.27-12.98-3.86-20.05.15-2.6.51-5.17,1.15-7.64.16-.62.29-1.24.47-1.85l.59-1.81c.35-1.22.89-2.36,1.36-3.51,1.99-4.59,4.84-8.65,8.1-12.06,6.56-6.85,14.91-10.9,22.8-12.29l.97,2.73c-2.73,1.44-4.99,3.46-6.64,5.75-1.65,2.29-2.69,4.83-3.2,7.3-1.03,4.99.04,9.58,1.73,12.83,1.7,3.3,3.86,5.39,5.39,6.68,1.56,1.28,2.5,1.86,2.42,2.01-.06.12-1.14-.19-2.94-1.29-1.77-1.11-4.27-3.13-6.35-6.58-2.06-3.4-3.53-8.43-2.59-14.08.46-2.8,1.54-5.72,3.34-8.4,1.8-2.67,4.33-5.07,7.44-6.8l.97,2.73c-7.31,1.47-14.96,5.35-20.92,11.72-2.97,3.17-5.56,6.91-7.36,11.14-.42,1.07-.92,2.11-1.23,3.23l-.54,1.66c-.16.56-.28,1.13-.42,1.7-.59,2.27-.91,4.63-1.05,7.01-.38,6.48.95,12.85,3.48,18.42.33.69.64,1.39,1.01,2.05l.27.5.13.25.07.12s.05.08.07.13l.09.21c.13.33.28.66.43.99.61,1.3,1.37,2.51,2.25,3.6,1.75,2.2,3.99,3.93,6.42,5.08,2.43,1.16,5.07,1.71,7.63,1.74,2.56.01,5.05-.53,7.27-1.48,4.46-1.91,7.78-5.42,9.5-9.19,1.73-3.8,2.07-7.74,1.5-11.03-.57-3.31-1.91-5.98-3.27-7.95-1.38-1.96-2.77-3.27-3.75-4.1-.98-.84-1.52-1.27-1.45-1.38Z"/>
          </g>
        </g>
        <path class="cls-6" d="M124.88,37.31c.46-.13,1.48,2.5.55,6.7-.46,2.07-1.48,4.45-3.12,6.74-.41.57-.84,1.15-1.33,1.69-.24.28-.49.55-.73.83-.26.27-.53.52-.8.79-.27.26-.55.53-.83.79-.29.26-.64.5-.96.75-.33.25-.67.49-1,.74-.35.23-.73.41-1.1.61-3,1.6-6.24,2.06-9.02,2-2.8-.07-5.23-.62-7.19-1.24-3.92-1.27-5.99-2.82-5.78-3.24.21-.46,2.56.24,6.36.82,1.89.28,4.15.53,6.59.42,2.43-.11,5.05-.6,7.39-1.86,2.28-1.22,4.29-3.21,5.84-5.06,1.55-1.88,2.63-3.79,3.32-5.51,1.38-3.46,1.34-5.89,1.82-5.96Z"/>
        <path class="cls-6" d="M115.76,27.9c.24.03.41.5.29,1.29-.11.78-.52,1.87-1.36,2.98-.83,1.11-2.07,2.23-3.61,3.14-1.55.91-3.29,1.67-5.36,2.13-2.04.44-4.06.44-5.82.16-1.76-.27-3.27-.81-4.45-1.39-2.38-1.17-3.48-2.46-3.21-2.85.27-.41,1.72.04,4.02.5,2.28.46,5.44.86,8.73.14,1.61-.36,3.23-.94,4.56-1.55,1.35-.62,2.47-1.31,3.33-1.99,1.76-1.36,2.4-2.64,2.88-2.56Z"/>
        <path class="cls-6" d="M258.96,85.06c-.5-.18-.07-2.32.33-5.65.22-1.66.31-3.63.14-5.72-.19-2.08-.72-4.3-1.96-6.22-1.2-1.95-2.95-3.4-4.75-4.46-1.8-1.06-3.65-1.76-5.23-2.27-3.18-1.01-5.3-1.37-5.3-1.87-.01-.47,2.22-1.01,5.84-.56,1.8.24,3.96.74,6.22,1.84,2.23,1.09,4.6,2.86,6.2,5.44,1.65,2.56,2.19,5.46,2.22,7.93,0,2.49-.39,4.67-.94,6.39-.53,1.73-1.11,3.06-1.64,3.93-.51.87-.9,1.3-1.13,1.22Z"/>
        <path class="cls-6" d="M264.83,54.4c-.43.22-1.32-.47-2.39-1.74-.54-.63-1.2-1.34-1.83-2.19-.7-.77-1.4-1.68-2.21-2.49-1.6-1.7-3.08-2.59-4.19-2.62-1.19-.09-2.15.47-2.52.16-.2-.14-.21-.52.06-1.04.28-.5.89-1.17,1.96-1.55,1.04-.39,2.54-.38,3.79.19.35.11.63.29.93.46.29.18.63.34.9.56.52.44,1.14.86,1.58,1.4,1,1.01,1.71,2.1,2.35,3.09.55,1.03,1.03,1.96,1.32,2.78.56,1.66.68,2.78.25,3Z"/>
        <g>
          <path class="cls-7" d="M169.79,87.23c-1.42,8.87-5.66,16.66-9.47,17.42-3.81.75-5.75-5.82-4.33-14.69,1.42-8.87,5.66-16.66,9.47-17.42,3.81-.75,5.75,5.82,4.33,14.69Z"/>
          <path class="cls-6" d="M169.79,87.23c-.26-.04-.27-1.12-.33-3-.03-.94-.08-2.09-.21-3.39-.13-1.3-.37-2.78-.87-4.23-.27-.71-.6-1.42-1.03-1.96-.12-.11-.23-.22-.34-.34-.12-.08-.23-.14-.34-.23-.12-.02-.22-.09-.33-.1-.12.02-.21-.06-.34,0-.48.04-1.17.39-1.81.98-.66.58-1.26,1.38-1.83,2.23-2.26,3.5-3.81,8.16-4.64,13.07-.38,2.46-.55,4.9-.4,7.17.09,1.13.26,2.22.54,3.19.27.96.72,1.82,1.17,2.19.06.04.11.09.16.14.05.04.11.04.16.07.09.08.21.06.31.1.11.02.25-.01.38,0,.15-.06.3-.07.46-.14.66-.25,1.37-.83,1.97-1.47,1.24-1.29,2.2-2.82,2.98-4.26,1.55-2.9,2.46-5.48,3.1-7.26.64-1.78.98-2.8,1.25-2.76.22.03.33,1.13.09,3.07-.24,1.94-.81,4.74-2.19,8.03-.71,1.64-1.61,3.4-3.05,5.13-.73.85-1.58,1.73-2.9,2.35-.33.15-.71.26-1.07.37-.41.05-.82.12-1.25.09-.44-.06-.89-.1-1.29-.31-.2-.09-.42-.17-.6-.28l-.52-.37c-1.31-1.07-1.89-2.42-2.33-3.69-.41-1.29-.64-2.6-.77-3.92-.22-2.64-.06-5.32.36-8.01.91-5.36,2.63-10.33,5.44-14.35.73-.99,1.5-1.94,2.5-2.74.98-.78,2.21-1.51,3.76-1.54.37-.04.77.09,1.14.15.36.1.7.29,1.03.45.28.21.56.42.8.65.21.24.41.48.6.72.67.98.99,1.96,1.25,2.88.44,1.83.5,3.47.45,4.88-.05,1.41-.21,2.61-.39,3.57-.37,1.93-.82,2.93-1.03,2.89Z"/>
        </g>
        <path class="cls-6" d="M162.64,57.86c-.34-.22-.18-1.34,1.06-2.55,1.21-1.18,3.59-2.21,6.26-1.8,1.32.21,2.55.77,3.48,1.53.94.77,1.51,1.75,1.78,2.6.24.86.26,1.56.11,2.03-.12.47-.31.71-.53.73-.49.04-.89-.83-1.65-1.7-.4-.43-.86-.85-1.48-1.19-.62-.33-1.36-.59-2.21-.73-1.71-.25-3.33.08-4.48.49-1.15.41-1.94.88-2.34.6Z"/>
        <path class="cls-6" d="M217.1,71.45c-.34-.22-.18-1.34,1.06-2.55,1.21-1.18,3.59-2.21,6.26-1.8,1.32.21,2.55.77,3.48,1.53.94.77,1.51,1.75,1.78,2.6.24.86.26,1.56.11,2.03-.12.47-.31.71-.53.73-.49.04-.89-.83-1.65-1.7-.4-.43-.86-.85-1.48-1.19-.62-.33-1.36-.59-2.21-.73-1.71-.25-3.33.08-4.48.49-1.15.41-1.94.88-2.34.6Z"/>
        <path class="cls-2" d="M166.14,90.56c-.75,4.69-2.99,8.82-5.01,9.22s-3.05-3.08-2.3-7.78c.75-4.69,2.99-8.82,5.01-9.22s3.05,3.08,2.3,7.78Z"/>
        <g>
          <path class="cls-7" d="M225.3,98.9c-1.42,8.87-5.66,16.66-9.47,17.42-3.81.75-5.75-5.82-4.33-14.69,1.42-8.87,5.66-16.66,9.47-17.42s5.75,5.82,4.33,14.69Z"/>
          <path class="cls-6" d="M225.3,98.9c-.26-.04-.27-1.12-.33-3-.03-.94-.08-2.09-.21-3.39-.13-1.3-.37-2.78-.87-4.23-.27-.71-.6-1.42-1.03-1.96-.12-.11-.23-.22-.34-.34-.12-.08-.23-.14-.34-.23-.12-.02-.22-.09-.33-.1-.12.02-.21-.06-.34,0-.48.04-1.17.39-1.81.98-.66.58-1.26,1.38-1.83,2.23-2.26,3.5-3.81,8.16-4.64,13.07-.38,2.46-.55,4.9-.4,7.17.09,1.13.26,2.22.54,3.19.27.96.72,1.82,1.17,2.19.06.04.11.09.16.14.05.04.11.04.16.07.09.08.21.06.31.1.11.02.25-.01.38,0,.15-.06.3-.07.46-.14.66-.25,1.37-.83,1.97-1.47,1.24-1.29,2.2-2.82,2.98-4.26,1.55-2.9,2.46-5.48,3.1-7.26.64-1.78.98-2.8,1.25-2.76.22.03.33,1.13.09,3.07-.24,1.94-.81,4.74-2.19,8.03-.71,1.64-1.61,3.4-3.05,5.13-.73.85-1.58,1.73-2.9,2.35-.33.15-.71.26-1.07.37-.41.05-.82.12-1.25.09-.44-.06-.89-.1-1.29-.31-.2-.09-.42-.17-.6-.28l-.52-.37c-1.31-1.07-1.89-2.42-2.33-3.69-.41-1.29-.64-2.6-.77-3.92-.22-2.64-.06-5.32.36-8.01.91-5.36,2.63-10.33,5.44-14.35.73-.99,1.5-1.94,2.5-2.74.98-.78,2.21-1.51,3.76-1.54.37-.04.77.09,1.14.15.36.1.7.29,1.03.45.28.21.56.42.8.65.21.24.41.48.6.72.67.98.99,1.96,1.25,2.88.44,1.83.5,3.47.45,4.88-.05,1.41-.21,2.61-.39,3.57-.37,1.93-.82,2.93-1.03,2.89Z"/>
        </g>
        <path class="cls-2" d="M221.49,101.28c-.75,4.69-2.99,8.82-5.01,9.22s-3.05-3.08-2.3-7.78,2.99-8.82,5.01-9.22c2.02-.4,3.05,3.08,2.3,7.78Z"/>
        <g>
          <ellipse class="cls-7" cx="193.12" cy="107.66" rx="3.88" ry="6.76" transform="translate(54.87 280.22) rotate(-80.44)"/>
          <path class="cls-6" d="M199.79,108.79c-.21-.04-.24-.52-.66-1.11-.39-.6-1.24-1.31-2.5-1.85-1.25-.54-2.93-.92-4.73-.86-.89.02-1.82.19-2.63.52-.82.32-1.38.88-1.43,1.29-.09.4.25,1.12.93,1.69.66.57,1.48,1.03,2.32,1.35,1.69.64,3.39.84,4.75.74,1.37-.1,2.41-.49,2.97-.93.6-.42.78-.87.99-.83.16,0,.38.63-.17,1.54-.52.91-1.81,1.77-3.47,2.16-1.67.4-3.73.4-5.91-.25-1.09-.33-2.21-.85-3.25-1.7-.52-.42-1.02-.96-1.41-1.66-.39-.69-.65-1.62-.49-2.57.16-.95.71-1.75,1.3-2.27.6-.53,1.25-.87,1.88-1.1,1.27-.46,2.49-.58,3.63-.54,2.27.09,4.22.77,5.67,1.7,1.44.92,2.38,2.15,2.57,3.18.22,1.04-.2,1.56-.34,1.51Z"/>
        </g>
        <ellipse class="cls-3" cx="123.6" cy="107.96" rx="10.89" ry="20.54" transform="translate(-29.57 166.88) rotate(-62.18)"/>
        <ellipse class="cls-3" cx="239.76" cy="125.04" rx="14.76" ry="9.49" transform="translate(-18.17 43.85) rotate(-10.07)"/>
      </g>
      <g>
        <path class="cls-1" d="M161.55,108.14s-7.17,37.26,12.54,43.33c19.25,5.93,37.39-29.98,37.39-29.98"/>
        <path class="cls-6" d="M211.49,121.49c.41.2-1.64,5.52-6.74,13.17-2.59,3.79-5.93,8.19-10.61,12.29-2.34,2.04-5.08,3.95-8.31,5.34-.8.36-1.66.62-2.52.89-.89.2-1.77.46-2.71.54-.92.16-1.87.13-2.82.14-.48-.01-.95-.09-1.43-.14l-.72-.08-.7-.16c-1.91-.37-3.63-1.18-5.26-2.1-1.6-.99-2.99-2.22-4.18-3.56-2.31-2.75-3.74-5.87-4.65-8.87-1.78-6.04-1.92-11.63-1.78-16.22.17-4.6.73-8.28,1.25-10.79.52-2.51,1.02-3.85,1.26-3.81.24.05.2,1.45.1,3.98-.1,2.52-.27,6.16-.12,10.62.17,4.44.6,9.79,2.38,15.22.9,2.7,2.24,5.37,4.16,7.6.99,1.08,2.11,2.05,3.39,2.83.31.2.66.34.99.52.33.18.67.35,1.03.46l1.07.4,1.11.27.56.13.56.06c.38.03.75.11,1.12.12.75-.01,1.5.02,2.25-.1.75-.05,1.48-.26,2.21-.41.72-.23,1.44-.42,2.13-.73,2.78-1.15,5.31-2.8,7.54-4.64,4.46-3.68,7.91-7.77,10.68-11.27,5.48-7.09,8.3-11.95,8.75-11.71Z"/>
      </g>
      <g>
        <path class="cls-4" d="M170.55,115.35c-3.39,1.1-6.5,3.04-8.97,5.62-.82-4.11-.42-8.45,1.14-12.34"/>
        <path class="cls-6" d="M162.72,108.63c.46.19.33,1.52.2,3.52-.07,1-.12,2.18-.11,3.47.01.32,0,.65.03.99l.02.51.02.26c0,.06,0,.02.01.03.02.01.04,0,.04,0v.02s-.01.05.02.06c0,0,.02,0,.05,0l.04-.02s0,.02.1-.05c.3-.19.58-.38.88-.55,1.16-.69,2.27-1.15,3.22-1.44,1.92-.58,3.18-.48,3.31-.07.14.45-.82,1.14-2.28,2.19-.73.53-1.58,1.15-2.48,1.89-.22.19-.45.38-.68.57-.21.18-.43.37-.64.56-.23.19-.48.42-.74.68-1.01.97-2.17,2.24-3.27,3.35-.13-.71-.27-1.44-.4-2.17-.27-1.43-.5-2.9-.58-4.4v-.53s-.01-.3-.01-.3c0-.2.01-.4.02-.59.01-.39.06-.77.09-1.15.18-1.49.52-2.79.92-3.84.81-2.1,1.79-3.15,2.22-2.97Z"/>
      </g>
      <g>
        <path class="cls-4" d="M205.74,123.5c1.61,2.91,2.65,6.13,3.04,9.44,3.21-2.87,4.92-7.33,4.47-11.62"/>
        <path class="cls-6" d="M213.25,121.32c.45-.07,1.15,1.22,1.15,3.52,0,1.14-.21,2.51-.73,3.95-.12.36-.29.72-.44,1.09l-.27.54-.14.27-.28.44c-.74,1.27-1.75,2.31-2.71,3.24-.4.38-.8.76-1.2,1.14-.38.35-.75.69-1.12,1.03-.17-1.5-.34-2.96-.51-4.37-.04-.35-.1-.64-.15-.95-.05-.31-.1-.61-.15-.85-.08-.38-.15-.76-.22-1.13-.2-1.07-.42-2.02-.6-2.83-.35-1.62-.53-2.69-.15-2.91.37-.21,1.26.5,2.25,2.02.49.76.99,1.73,1.43,2.87l.16.44c.03.08.05.1.07.15.05.1.05.05.08.07.04,0,.06-.02.07-.05.01-.02.01-.05.01-.05,0,0-.01.04.04,0,0,0,0,0,.02-.02l.13-.21.25-.41c.15-.28.32-.54.45-.82.56-1.08.96-2.12,1.25-3.03.58-1.82.8-3.1,1.3-3.16Z"/>
      </g>
      <g>
        <path class="cls-4" d="M161.55,108.14s3.5,10.23,25.33,16.34c17.96,5.03,29.2-2.52,29.2-2.52"/>
        <path class="cls-6" d="M216.08,121.96c.29.38-2.49,2.82-8.01,4.45-2.74.81-6.15,1.38-9.95,1.39-3.79.02-7.97-.56-12.16-1.76-4.14-1.18-7.99-2.7-11.33-4.42-3.34-1.73-6.16-3.7-8.27-5.66-2.11-1.96-3.5-3.89-4.22-5.33-.74-1.45-.83-2.4-.59-2.48.23-.08.72.6,1.73,1.71,1,1.11,2.54,2.62,4.68,4.19,4.25,3.2,11.03,6.37,18.98,8.62,3.92,1.12,7.75,1.74,11.26,1.9,3.51.17,6.68-.11,9.31-.57,5.28-.92,8.32-2.45,8.58-2.03Z"/>
      </g>
      <path class="cls-6" d="M297.95,120c.47-.04.99,1.05,1.5,3.16.47,2.1.76,5.26.28,9.21-.47,3.93-2.08,8.73-5.46,13.04-.43.53-.86,1.07-1.3,1.61-.47.52-.98,1-1.48,1.5-.98,1.05-2.15,1.88-3.28,2.81-2.38,1.68-4.98,3.22-7.77,4.37-2.79,1.17-5.57,2.08-8.3,2.69-2.72.66-5.36,1.05-7.88,1.33-5.04.52-9.56.48-13.33.18-7.53-.63-12.03-2.15-11.9-3.09.12-.95,4.68-1.17,11.88-1.8,3.59-.32,7.84-.78,12.45-1.59,2.3-.42,4.69-.91,7.1-1.59,2.43-.63,4.85-1.48,7.24-2.48,2.41-.99,4.56-2.24,6.56-3.53.92-.73,1.93-1.35,2.73-2.14.41-.38.85-.74,1.25-1.12.37-.4.74-.8,1.1-1.2,2.89-3.18,4.63-6.79,5.6-10.05.97-3.26,1.45-6.11,1.8-8.11.31-2,.71-3.18,1.19-3.22Z"/>
      <g>
        <path class="cls-4" d="M282.88,98.66c-11.38-30.23,51.95-26.21,30.61,20.65-4.49,7.41.23,12.73-3.98,14.34-7.37,3.65-16.16,1.61-24.1-.51-6.43-1.24-5.24-5.18-3.56-10.06.67-5.42-6.42-8.84-7.31-14.23-2.7-11.36,24.31-15.09,18.97-2.52"/>
        <path class="cls-6" d="M293.5,106.32c-.09-.04-.04-.45.13-1.17.08-.72.3-1.85-.17-3.06-.4-1.23-1.8-2.2-3.7-2.57-1.91-.36-4.26-.2-6.7.5-1.22.36-2.46.88-3.62,1.59-1.16.7-2.25,1.63-2.97,2.77-.75,1.14-1.02,2.45-.72,3.89.21,1.51.97,2.81,2.02,4.21,1.04,1.39,2.36,2.75,3.59,4.45.61.85,1.18,1.83,1.59,2.96l.26.88c.06.3.1.62.14.93.06.31.03.63.02.95l-.02.54c.03.2-.14.5-.16.64-.32.96-.62,1.91-.84,2.84-.22.92-.33,1.83-.22,2.51.13.67.43,1.08,1.06,1.49.64.4,1.55.67,2.51.86h.06s.05.03.05.03c3.75.97,7.58,1.91,11.51,2.26,3.9.35,7.92.02,11.41-1.72l.15-.07c.11-.07.23-.13.35-.17.06-.07.12-.11.18-.16.05-.12.16-.22.2-.55.12-.61.07-1.6.03-2.61-.06-1.61-.03-3.39.35-5.1.37-1.71,1.02-3.36,1.89-4.81.28-.63.55-1.26.83-1.89.29-.68.54-1.37.82-2.06.26-.69.48-1.38.73-2.06.21-.69.42-1.38.63-2.07,1.53-5.5,1.9-11.13.41-16.01-1.43-4.89-4.76-8.76-8.69-11.03-3.93-2.3-8.33-3.16-12.2-2.89-3.88.26-7.25,1.76-9.33,3.94-2.1,2.19-2.82,4.9-2.92,7.08-.12,2.21.22,3.97.45,5.14.24,1.18.37,1.82.25,1.86-.1.04-.45-.51-.92-1.67-.46-1.15-1.04-2.93-1.12-5.35-.04-1.21.06-2.58.48-4.04.42-1.45,1.19-2.96,2.34-4.32,2.32-2.74,6.18-4.62,10.54-5.08,4.35-.47,9.28.32,13.84,2.83,2.26,1.26,4.42,2.95,6.21,5.09,1.81,2.12,3.22,4.69,4.1,7.49.91,2.79,1.26,5.8,1.19,8.81-.08,3.02-.58,6.05-1.37,9.03-.22.74-.44,1.48-.66,2.22-.25.73-.49,1.47-.76,2.2-.28.72-.55,1.46-.86,2.18l-.47,1.08-.23.54-.12.27s-.06.13-.11.22l-.11.2c-.7,1.18-1.19,2.46-1.48,3.79-.29,1.34-.33,2.73-.27,4.26.02,1,.14,2.02-.09,3.38-.1.66-.43,1.48-.98,2.15-.28.31-.61.57-.94.81-.32.17-.65.34-.98.49l.15-.07c-4.27,2.11-9,2.41-13.25,2-4.29-.41-8.27-1.46-12.04-2.48l.11.03c-1.2-.27-2.43-.6-3.64-1.36-.3-.21-.6-.39-.87-.68l-.4-.4c-.12-.15-.23-.32-.34-.48-.46-.65-.69-1.41-.82-2.12-.19-1.43.05-2.65.32-3.75.28-1.1.63-2.11.97-3.08.04-.11.02-.04.03-.1v-.22c.01-.19.05-.38,0-.56l-.07-.56-.16-.56c-.26-.75-.65-1.51-1.16-2.25-1-1.49-2.29-2.89-3.42-4.48-.56-.8-1.1-1.63-1.52-2.55-.22-.45-.38-.95-.54-1.42-.1-.49-.23-.96-.29-1.45l-.1-.73c-.02-.25,0-.51,0-.77-.02-.51.1-1.01.18-1.51.25-.97.64-1.89,1.2-2.64,1.07-1.54,2.47-2.59,3.87-3.36,1.4-.77,2.83-1.28,4.21-1.61,2.77-.64,5.37-.67,7.58-.08,1.1.31,2.1.78,2.87,1.44.79.64,1.29,1.52,1.49,2.32.41,1.64-.08,2.82-.33,3.55-.35.71-.57,1.05-.66,1.01Z"/>
      </g>
      <path class="cls-6" d="M291.78,98.63c.17-.46,1.35-.46,3.1-.45,1.75,0,4.1-.04,6.63-.51,1.26-.23,2.45-.54,3.52-.87.53-.17,1.04-.34,1.51-.51.39-.11.67-.26.97-.46.29-.19.52-.39.69-.55.17-.19.28-.25.35-.43.13-.35.04-.63.22-.76.16-.13.71-.14,1.1.53.19.32.24.91.12,1.4-.11.51-.35,1.01-.7,1.49-.33.47-.84.98-1.44,1.33-.49.32-1.04.63-1.63.92-1.19.57-2.58,1.04-4.08,1.32-3.01.57-5.82.17-7.68-.48-1.88-.67-2.82-1.53-2.66-1.96Z"/>
      <path class="cls-6" d="M63.56,77.72c.43.21.38,1.45-.03,3.44-.38,1.99-.94,4.82-1.19,8.22-.25,3.4.1,7.38,1.67,11.38.2.5.4,1,.61,1.51.23.5.51.99.77,1.49.47,1.02,1.19,1.96,1.79,2.97,1.41,1.91,2.98,3.85,4.88,5.63,1.88,1.78,3.85,3.44,5.89,4.89,2.01,1.49,4.08,2.79,6.08,4.01,4.02,2.39,7.83,4.33,11.08,5.91,6.51,3.14,10.69,4.96,10.47,5.9-.21.92-4.95.75-12.22-1.33-3.63-1.05-7.87-2.62-12.4-4.89-2.25-1.15-4.59-2.46-6.89-4.04-2.33-1.54-4.61-3.38-6.8-5.46-2.21-2.07-4.08-4.44-5.72-6.85-.73-1.28-1.53-2.47-2.07-3.8-.29-.65-.6-1.28-.85-1.93-.22-.66-.43-1.32-.65-1.97-1.63-5.23-1.43-10.29-.47-14.13.96-3.87,2.34-6.72,3.53-8.51,1.23-1.79,2.1-2.63,2.52-2.42Z"/>
      <g>
        <path class="cls-4" d="M85.22,63.1c21.36-24.22-39.28-42.93-35.94,8.46,1.57,8.52-4.73,11.83-1.36,14.82,5.6,6.03,14.54,7.23,22.72,8.07,6.45,1.13,6.73-2.99,6.9-8.15,1.3-5.31,9.14-5.99,11.88-10.71,6.55-9.66-17.38-22.73-16.84-9.09"/>
        <path class="cls-6" d="M72.58,66.5c-.09,0-.18-.39-.26-1.18.03-.77-.01-2.04.95-3.43.47-.68,1.24-1.32,2.21-1.64.96-.34,2.06-.43,3.2-.33,2.27.23,4.7,1.18,7.06,2.77,1.17.8,2.32,1.78,3.37,3,1.03,1.21,1.97,2.69,2.43,4.51.25.9.29,1.9.18,2.89-.1.49-.16,1-.37,1.47-.09.24-.17.49-.28.71l-.36.64c-.23.44-.52.83-.79,1.25-.32.39-.64.8-1.01,1.14-.72.72-1.52,1.3-2.33,1.85-1.62,1.08-3.32,1.94-4.79,2.97-.74.51-1.37,1.08-1.88,1.69l-.35.47-.26.5c-.11.16-.14.35-.2.53l-.07.21c-.01.05,0-.01,0,.1-.03,1.03-.05,2.1-.18,3.23-.14,1.12-.34,2.35-1.03,3.62-.37.62-.86,1.25-1.52,1.69-.16.11-.33.22-.49.33l-.52.23c-.35.17-.7.24-1.05.33-1.4.29-2.67.16-3.88-.01l.11.02c-3.89-.38-7.98-.82-12.14-1.95-4.11-1.12-8.43-3.08-11.68-6.57l.12.12c-.26-.26-.51-.53-.74-.81-.22-.34-.44-.71-.59-1.09-.28-.82-.3-1.7-.15-2.36.27-1.35.74-2.27,1.11-3.2.6-1.41,1.05-2.73,1.26-4.08.2-1.35.19-2.71-.04-4.07l-.03-.23c-.02-.1-.02-.2-.02-.24v-.3s-.04-.59-.04-.59l-.05-1.18c-.03-.78-.02-1.57-.03-2.34,0-.78.05-1.56.07-2.33.06-.77.11-1.55.17-2.31.31-3.07.93-6.08,1.92-8.93,1-2.84,2.4-5.53,4.24-7.82,1.81-2.3,4.05-4.2,6.49-5.55,2.43-1.37,5.05-2.18,7.61-2.55,5.15-.73,10.04.28,13.94,2.26,3.91,1.97,6.85,5.1,8.05,8.49.6,1.68.78,3.37.66,4.87-.12,1.51-.51,2.83-.98,3.94-.94,2.24-2.12,3.69-2.95,4.61-.84.91-1.37,1.3-1.45,1.23-.1-.08.25-.63.89-1.65.63-1.01,1.57-2.54,2.24-4.65.69-2.08.97-4.86-.22-7.66-1.16-2.78-3.79-5.37-7.32-6.99-3.52-1.63-7.94-2.39-12.43-1.63-4.48.73-8.97,3.17-12.04,7.23-3.12,4.03-4.77,9.42-5.3,15.11-.05.72-.1,1.44-.14,2.16-.02.73-.05,1.45-.05,2.19.01.73,0,1.47.04,2.21.04.68.07,1.37.11,2.06.3,1.67.32,3.44.06,5.17-.25,1.73-.85,3.4-1.48,4.89-.39.93-.79,1.84-.9,2.45-.08.32-.01.46,0,.59.04.07.08.13.12.21.1.09.18.18.26.28l.12.12c2.65,2.86,6.29,4.6,10.06,5.66,3.79,1.07,7.71,1.55,11.56,1.97h.05s.06.02.06.02c.96.16,1.92.23,2.66.08.74-.16,1.16-.44,1.52-1.02.35-.6.57-1.49.69-2.43.13-.94.18-1.94.22-2.95.03-.13-.03-.47.08-.65l.17-.51c.11-.3.19-.61.36-.88.15-.28.3-.56.46-.82l.55-.73c.78-.91,1.66-1.63,2.54-2.2,1.75-1.16,3.47-1.96,4.93-2.89,1.47-.94,2.65-1.89,3.38-3.22.79-1.24,1-2.56.71-3.89-.27-1.32-.95-2.58-1.79-3.65-.84-1.07-1.81-2-2.82-2.77-2.03-1.53-4.17-2.51-6.08-2.85-1.91-.33-3.56.08-4.37,1.09-.87.96-1.05,2.1-1.24,2.8-.1.74-.2,1.13-.29,1.14Z"/>
      </g>
      <path class="cls-6" d="M76.91,59.92c0,.46-1.19.92-3.18.89-1.97-.05-4.74-.67-7.36-2.27-1.31-.79-2.44-1.72-3.35-2.68-.45-.48-.85-.96-1.2-1.44-.43-.54-.73-1.2-.87-1.75-.15-.57-.2-1.13-.12-1.64.06-.5.32-1.04.61-1.27.6-.49,1.12-.29,1.22-.11.12.19-.06.42-.06.79,0,.2.08.3.17.53.1.21.25.48.45.76.21.29.42.53.74.77.38.33.79.67,1.23,1.02.88.69,1.88,1.4,2.98,2.06,2.19,1.34,4.38,2.2,6.01,2.83,1.64.61,2.75,1.02,2.74,1.52Z"/>
    </g>
  </g>
</svg>