<?xml version="1.0" encoding="UTF-8"?>
<svg id="_レイヤー_2" xmlns="http://www.w3.org/2000/svg" version="1.1" viewBox="0 0 421.7 415.4">
  <!-- Generator: Adobe Illustrator 30.2.1, SVG Export Plug-In . SVG Version: 2.1.1 Build 1)  -->
  <defs>
    <style>
      .st0 {
        fill: #d31421;
      }

      .st1 {
        fill: #842d2c;
      }

      .st2 {
        display: none;
      }

      .st2, .st3 {
        fill: #392f2c;
      }

      .st4 {
        fill: #fff;
      }

      .st5 {
        fill: #221714;
      }

      .st6 {
        fill: #eaaec9;
      }

      .st7 {
        fill: #f3e627;
      }
    </style>
  </defs>
  <g id="_レイヤー_7">
    <g>
      <g>
        <g>
          <g>
            <g>
              <circle class="st7" cx="232.7" cy="58" r="25.9"/>
              <path class="st3" d="M258.6,59.4c-.1,0-.3-.6-.4-1.7,0-.3,0-.6,0-.9,0-.3-.1-.7-.2-1.1-.1-.8-.2-1.7-.5-2.6-.4-2-1.3-4.3-2.7-6.7-1.4-2.4-3.4-5-6.1-7.2-2.7-2.2-6.1-4.1-10.1-5-4-.8-8.4-.9-12.8.5-1.1.3-2.1.8-3.2,1.2-1,.5-2.1,1-3.1,1.8-1,.6-1.9,1.4-2.9,2.2-.9.9-1.8,1.7-2.5,2.7-1.5,1.9-2.9,4-3.8,6.4-.9,2.4-1.5,4.9-1.7,7.5-.1,2.6.2,5.2.8,7.6.6,2.5,1.7,4.7,3,6.8.6,1.1,1.4,2,2.2,2.9.9.9,1.6,1.8,2.6,2.5.9.8,1.9,1.4,2.8,2.1,1,.6,2,1.2,3.1,1.6,4.1,1.9,8.6,2.3,12.6,1.9,4.1-.4,7.7-1.9,10.6-3.8,2.9-1.9,5.2-4.2,6.9-6.5,1.6-2.3,2.8-4.5,3.4-6.4.4-.9.6-1.8.8-2.5.1-.4.2-.7.3-1,0-.3.1-.6.2-.9.2-1,.4-1.6.6-1.6s.2.6.2,1.7v.9c0,.3,0,.7-.1,1.1-.1.8-.2,1.7-.5,2.8-.5,2.1-1.5,4.5-3.1,7.1-1.6,2.6-3.9,5.3-7.1,7.5-3.2,2.2-7.1,4.1-11.7,4.7-4.5.6-9.6.2-14.4-1.8-1.2-.5-2.4-1.1-3.5-1.8-1.1-.7-2.3-1.4-3.3-2.3-1.1-.8-2-1.8-3-2.8-.9-1.1-1.8-2.1-2.6-3.3-1.5-2.4-2.8-5-3.6-7.9-.8-2.8-1.1-5.8-.9-8.8.2-3,.9-6,1.9-8.7,1-2.8,2.6-5.2,4.4-7.4.9-1.1,1.9-2.1,2.9-3,1.1-.9,2.1-1.8,3.3-2.5,1.1-.8,2.4-1.3,3.5-2,1.2-.5,2.4-1,3.7-1.4,5-1.5,10.1-1.3,14.5-.2,4.5,1.1,8.2,3.4,11.1,6,2.9,2.6,4.9,5.5,6.2,8.3,1.3,2.8,2,5.3,2.2,7.4.2,1,.2,2,.2,2.8,0,.4,0,.8,0,1.1,0,.3,0,.7-.1.9-.1,1.1-.3,1.7-.4,1.7h0Z"/>
            </g>
            <g>
              <circle class="st7" cx="339.9" cy="73.5" r="25.9"/>
              <path class="st3" d="M365.7,75c-.1,0-.3-.6-.4-1.7,0-.3,0-.6,0-.9,0-.3-.1-.7-.2-1.1-.1-.8-.2-1.7-.5-2.6-.4-1.9-1.3-4.3-2.7-6.7-1.4-2.4-3.4-5-6.1-7.2-2.7-2.2-6.1-4.1-10.1-5-4-.8-8.5-.9-12.8.5-1.1.3-2.1.8-3.2,1.2-1,.5-2.1,1-3,1.8-1,.6-1.9,1.4-2.9,2.2-.9.9-1.8,1.7-2.5,2.7-1.5,1.9-2.9,4-3.8,6.4-.9,2.4-1.5,4.9-1.7,7.5-.1,2.6.2,5.2.8,7.6.6,2.5,1.7,4.7,3,6.8.6,1.1,1.4,2,2.2,2.9.9.9,1.6,1.8,2.6,2.5.9.8,1.9,1.4,2.8,2.1,1,.6,2,1.2,3,1.6,4.1,1.9,8.6,2.3,12.6,1.9,4.1-.4,7.7-1.9,10.6-3.8,3-1.9,5.2-4.2,6.9-6.5,1.6-2.3,2.8-4.5,3.4-6.4.4-.9.6-1.8.8-2.5.1-.4.2-.7.3-1,0-.3.1-.6.2-.9.2-1.1.4-1.6.6-1.6.1,0,.2.6.2,1.7v.9c0,.3,0,.7-.1,1.1-.1.8-.2,1.7-.5,2.8-.5,2.1-1.5,4.5-3.1,7.1-1.6,2.6-3.9,5.3-7.1,7.5-3.2,2.2-7.1,4.1-11.7,4.7-4.5.6-9.6.2-14.4-1.8-1.2-.5-2.4-1.1-3.5-1.8-1.1-.7-2.3-1.4-3.3-2.3-1.1-.8-2-1.8-3-2.8-.9-1.1-1.8-2.1-2.6-3.3-1.5-2.4-2.8-5-3.6-7.9-.8-2.8-1.1-5.8-1-8.8.2-3,.9-5.9,1.9-8.7,1-2.8,2.6-5.2,4.4-7.4.9-1.1,1.9-2.1,2.9-3,1.1-.9,2.1-1.8,3.3-2.5,1.1-.8,2.4-1.3,3.5-2,1.2-.5,2.5-1,3.7-1.3,5-1.5,10.1-1.3,14.5-.2,4.5,1.1,8.2,3.4,11.1,6,2.9,2.6,4.9,5.5,6.2,8.3,1.3,2.8,2,5.3,2.2,7.4.2,1.1.2,2,.2,2.8,0,.4,0,.8,0,1.1,0,.3,0,.7-.1.9-.1,1.1-.3,1.7-.4,1.7h0Z"/>
            </g>
            <g>
              <circle class="st7" cx="378.3" cy="182.9" r="25.9"/>
              <path class="st3" d="M404.2,184.3c-.1,0-.3-.6-.4-1.6,0-.3,0-.6,0-.9,0-.3-.1-.7-.2-1.1-.1-.8-.2-1.6-.5-2.6-.4-1.9-1.3-4.3-2.7-6.7-1.4-2.4-3.4-5-6.1-7.2-2.7-2.2-6.1-4.1-10.1-5-4-.9-8.5-.9-12.8.5-1.1.3-2.1.8-3.2,1.2-1,.6-2.1,1.1-3,1.8-1,.6-1.9,1.4-2.9,2.2-.9.9-1.8,1.7-2.5,2.7-1.5,1.9-2.9,4.1-3.8,6.4-.9,2.4-1.5,4.9-1.7,7.5-.1,2.6.2,5.2.8,7.6.6,2.5,1.7,4.7,3,6.8.6,1.1,1.4,2,2.2,2.9.9.9,1.6,1.8,2.6,2.5.9.8,1.9,1.4,2.8,2.1,1,.6,2,1.2,3,1.6,4.1,1.9,8.6,2.3,12.6,1.9,4.1-.4,7.7-1.9,10.6-3.8,3-1.9,5.2-4.2,6.9-6.5,1.6-2.3,2.8-4.5,3.4-6.4.4-.9.6-1.8.8-2.5.1-.4.2-.7.3-1,0-.3.1-.6.2-.9.2-1.1.4-1.6.6-1.6.1,0,.2.6.2,1.7v.9c0,.3,0,.7-.1,1.1-.1.8-.2,1.7-.5,2.8-.5,2.1-1.5,4.5-3.1,7.1-1.6,2.6-3.9,5.3-7.1,7.5-3.2,2.2-7.1,4.1-11.7,4.7-4.5.6-9.6.2-14.4-1.8-1.2-.5-2.4-1.1-3.5-1.8-1.1-.7-2.3-1.4-3.3-2.4-1.1-.8-2-1.8-3-2.8-.9-1.1-1.8-2.1-2.6-3.4-1.5-2.4-2.8-5-3.6-7.9-.8-2.8-1.1-5.8-1-8.9.2-3,.9-5.9,1.9-8.7,1-2.8,2.6-5.2,4.4-7.4.9-1.1,1.9-2.1,2.9-3,1.1-.9,2.1-1.8,3.3-2.5,1.1-.8,2.4-1.4,3.5-2,1.2-.5,2.5-1,3.7-1.4,5-1.5,10.1-1.3,14.5-.2,4.5,1.1,8.2,3.4,11.1,6,2.9,2.6,4.9,5.5,6.2,8.3,1.3,2.8,2,5.3,2.2,7.4.2,1.1.2,2,.2,2.8,0,.4,0,.8,0,1.1,0,.3,0,.6-.1.9-.1,1.1-.3,1.7-.4,1.7h0Z"/>
            </g>
            <g>
              <circle class="st7" cx="158.7" cy="135.8" r="25.9"/>
              <path class="st3" d="M184.6,137.3c-.1,0-.3-.6-.4-1.6,0-.3,0-.6,0-.9,0-.3-.1-.7-.2-1.1-.1-.8-.2-1.6-.5-2.6-.4-1.9-1.3-4.3-2.7-6.7-1.4-2.4-3.4-5-6.1-7.2-2.7-2.2-6.1-4.1-10.1-5-4-.8-8.4-.9-12.8.5-1.1.3-2.1.8-3.2,1.2-1,.6-2.1,1.1-3.1,1.8-1,.6-1.9,1.4-2.9,2.2-.9.9-1.8,1.7-2.5,2.7-1.5,1.9-2.9,4.1-3.8,6.4-.9,2.4-1.5,4.9-1.7,7.5-.1,2.6.2,5.2.8,7.6.6,2.5,1.7,4.7,3,6.8.6,1.1,1.4,2,2.2,2.9.9.9,1.6,1.8,2.6,2.5.9.8,1.9,1.4,2.8,2.1,1,.6,2,1.2,3.1,1.6,4.1,1.9,8.6,2.3,12.6,1.9,4.1-.4,7.7-1.9,10.6-3.8,2.9-1.9,5.2-4.2,6.9-6.5,1.6-2.3,2.8-4.5,3.4-6.4.4-.9.6-1.8.8-2.5.1-.4.2-.7.3-1,0-.3.1-.6.2-.9.2-1.1.4-1.6.6-1.6.1,0,.2.6.2,1.7v.9c0,.3,0,.7-.1,1.1-.1.8-.2,1.7-.5,2.8-.5,2.1-1.5,4.5-3.1,7.1-1.6,2.6-3.9,5.3-7.1,7.5-3.2,2.2-7.1,4.1-11.7,4.7-4.5.6-9.6.2-14.4-1.8-1.2-.5-2.4-1.1-3.5-1.8-1.1-.7-2.3-1.4-3.3-2.4-1.1-.8-2-1.8-3-2.8-.9-1.1-1.8-2.1-2.6-3.4-1.5-2.4-2.8-5-3.6-7.9-.8-2.8-1.1-5.8-.9-8.9.2-3,.9-5.9,1.9-8.7,1-2.8,2.6-5.2,4.4-7.4.9-1.1,1.9-2.1,2.9-3,1.1-.9,2.1-1.8,3.3-2.5,1.1-.8,2.4-1.3,3.5-2,1.2-.5,2.4-1,3.7-1.3,5-1.5,10.1-1.3,14.5-.2,4.5,1.1,8.2,3.4,11.1,6,2.9,2.6,4.9,5.5,6.2,8.3,1.3,2.8,2,5.3,2.2,7.4.2,1.1.2,2,.2,2.8,0,.4,0,.8,0,1.1,0,.3,0,.6-.1.9-.1,1.1-.3,1.7-.4,1.7h0Z"/>
            </g>
            <g>
              <circle class="st7" cx="77" cy="257.6" r="25.9"/>
              <path class="st3" d="M102.9,259c-.1,0-.3-.6-.4-1.6,0-.3,0-.6,0-.9,0-.3-.1-.7-.2-1.1-.1-.8-.2-1.6-.5-2.6-.4-1.9-1.3-4.3-2.7-6.7-1.4-2.4-3.4-5-6.1-7.2-2.7-2.2-6.1-4.1-10.1-5-4-.9-8.4-.9-12.8.5-1.1.3-2.1.8-3.2,1.2-1,.6-2.1,1.1-3,1.8-1,.6-1.9,1.4-2.8,2.2-.8.9-1.8,1.7-2.5,2.7-1.5,1.9-2.9,4.1-3.8,6.4-.9,2.4-1.5,4.9-1.7,7.5-.1,2.6.2,5.2.8,7.6.6,2.5,1.7,4.7,3,6.8.6,1.1,1.4,2,2.2,2.9.8.9,1.7,1.8,2.6,2.5.9.8,1.9,1.4,2.8,2.1,1,.6,2,1.2,3.1,1.6,4.1,1.9,8.6,2.3,12.6,1.9,4.1-.4,7.7-1.9,10.6-3.8,2.9-1.9,5.2-4.2,6.8-6.5,1.6-2.3,2.8-4.5,3.4-6.4.4-.9.6-1.8.8-2.5.1-.4.2-.7.3-1,0-.3.1-.6.2-.9.2-1,.4-1.6.6-1.6.1,0,.2.6.2,1.7v.9c0,.3,0,.7-.1,1.1-.1.8-.2,1.7-.5,2.8-.5,2.1-1.5,4.5-3.1,7.1-1.6,2.6-3.9,5.3-7.1,7.5-3.2,2.2-7.2,4.1-11.7,4.7-4.5.6-9.6.2-14.4-1.8-1.2-.5-2.4-1.1-3.5-1.8-1.1-.7-2.3-1.4-3.3-2.4-1.1-.8-2-1.8-3-2.8-.9-1.1-1.8-2.1-2.6-3.4-1.5-2.4-2.8-5-3.6-7.9-.8-2.8-1.1-5.8-1-8.9.2-3,.9-5.9,1.9-8.7,1-2.8,2.6-5.2,4.4-7.4.9-1.1,1.9-2.1,2.9-3,1.1-.9,2.1-1.8,3.3-2.5,1.1-.8,2.4-1.4,3.5-2,1.2-.5,2.4-1,3.7-1.4,5-1.5,10.1-1.3,14.5-.2,4.5,1.1,8.2,3.4,11.1,6,2.9,2.6,4.9,5.5,6.2,8.3,1.3,2.8,2,5.3,2.2,7.4.2,1.1.2,2,.2,2.8,0,.4,0,.8,0,1.1,0,.3,0,.6,0,.9-.1,1.1-.3,1.7-.4,1.7h0Z"/>
            </g>
            <g>
              <circle class="st7" cx="340.1" cy="349.4" r="25.9"/>
              <path class="st3" d="M366,350.9c-.1,0-.3-.6-.4-1.6,0-.3,0-.6,0-.9,0-.3-.1-.7-.2-1.1-.1-.8-.2-1.6-.5-2.6-.4-2-1.3-4.3-2.7-6.7-1.4-2.4-3.4-5-6.1-7.2-2.7-2.2-6.1-4.1-10.1-5-4-.9-8.5-.9-12.8.5-1.1.3-2.1.8-3.2,1.2-1,.5-2.1,1-3,1.8-1,.6-1.9,1.4-2.9,2.2-.9.9-1.8,1.7-2.5,2.7-1.5,1.9-2.9,4-3.8,6.4-.9,2.4-1.5,4.9-1.7,7.5-.1,2.6.2,5.2.8,7.6.6,2.5,1.7,4.7,3,6.8.6,1.1,1.4,2,2.2,2.9.9.9,1.6,1.8,2.6,2.5.9.8,1.9,1.4,2.8,2.1,1,.6,2,1.2,3,1.6,4.1,1.9,8.6,2.3,12.6,1.9,4.1-.4,7.7-1.9,10.6-3.8,3-1.9,5.2-4.2,6.9-6.5,1.6-2.3,2.8-4.5,3.4-6.4.4-.9.6-1.8.8-2.5.1-.4.2-.7.3-1,0-.3.1-.6.2-.9.2-1,.4-1.6.6-1.6.1,0,.2.6.2,1.7v.9c0,.3,0,.7-.1,1.1-.1.8-.2,1.7-.5,2.8-.5,2.1-1.5,4.5-3.1,7.1-1.6,2.6-3.9,5.3-7.1,7.5-3.2,2.2-7.1,4.1-11.7,4.7-4.5.6-9.6.2-14.4-1.8-1.2-.5-2.4-1.1-3.5-1.8-1.1-.7-2.3-1.4-3.3-2.4-1.1-.8-2-1.8-3-2.8-.9-1.1-1.8-2.1-2.6-3.4-1.5-2.4-2.8-5-3.6-7.9-.8-2.8-1.1-5.8-1-8.9.2-3,.9-6,1.9-8.7,1-2.8,2.6-5.2,4.4-7.4.9-1.1,1.9-2.1,2.9-3,1.1-.9,2.1-1.8,3.3-2.5,1.1-.8,2.4-1.4,3.5-2,1.2-.5,2.5-1,3.7-1.4,5-1.5,10.1-1.3,14.5-.2,4.5,1.1,8.2,3.4,11.1,6,2.9,2.6,4.9,5.5,6.2,8.3,1.3,2.8,2,5.3,2.2,7.4.2,1,.2,2,.2,2.8,0,.4,0,.8,0,1.1,0,.3,0,.6-.1.9-.1,1.1-.3,1.7-.4,1.7h0Z"/>
            </g>
            <g>
              <circle class="st7" cx="224.4" cy="386.6" r="25.9"/>
              <path class="st3" d="M250.3,388.1c-.1,0-.3-.6-.4-1.6,0-.3,0-.6,0-.9,0-.3-.1-.7-.2-1.1-.1-.8-.2-1.6-.5-2.6-.4-2-1.3-4.3-2.7-6.7-1.4-2.4-3.4-5-6.1-7.2-2.7-2.2-6.1-4.1-10.1-5-4-.9-8.4-.9-12.8.5-1.1.3-2.1.8-3.2,1.2-1,.5-2.1,1-3.1,1.8-1,.6-1.9,1.4-2.9,2.2-.9.9-1.8,1.7-2.5,2.7-1.5,1.9-2.9,4-3.8,6.4-.9,2.4-1.5,4.9-1.7,7.5-.1,2.6.2,5.2.8,7.6.6,2.5,1.7,4.7,3,6.8.6,1.1,1.4,2,2.2,2.9.9.9,1.6,1.8,2.6,2.5.9.8,1.9,1.4,2.8,2.1,1,.6,2,1.2,3.1,1.6,4.1,1.9,8.6,2.3,12.6,1.9,4.1-.4,7.7-1.9,10.6-3.8,2.9-1.9,5.2-4.2,6.9-6.5,1.6-2.3,2.8-4.5,3.4-6.4.4-.9.6-1.8.8-2.5.1-.4.2-.7.3-1,0-.3.1-.6.2-.9.2-1,.4-1.6.6-1.6.1,0,.2.6.2,1.7v.9c0,.3,0,.7-.1,1.1-.1.8-.2,1.7-.5,2.8-.5,2.1-1.5,4.5-3.1,7.1-1.6,2.6-3.9,5.3-7.1,7.5-3.2,2.2-7.1,4.1-11.7,4.7-4.5.6-9.6.2-14.4-1.8-1.2-.5-2.4-1.1-3.5-1.8-1.1-.7-2.3-1.4-3.3-2.4-1.1-.8-2-1.8-3-2.8-.9-1.1-1.8-2.1-2.6-3.4-1.5-2.4-2.8-5-3.6-7.9-.8-2.8-1.1-5.8-.9-8.9.2-3,.9-6,1.9-8.7,1-2.8,2.6-5.2,4.4-7.4.9-1.1,1.9-2.1,2.9-3,1.1-.9,2.1-1.8,3.3-2.5,1.1-.8,2.4-1.4,3.5-2,1.2-.5,2.4-1,3.7-1.4,5-1.5,10.1-1.3,14.5-.2,4.5,1.1,8.2,3.4,11.1,6,2.9,2.6,4.9,5.5,6.2,8.3,1.3,2.8,2,5.3,2.2,7.4.2,1,.2,2,.2,2.8,0,.4,0,.8,0,1.1,0,.3,0,.6-.1.9-.1,1.1-.3,1.7-.4,1.7h0Z"/>
            </g>
            <g>
              <circle class="st7" cx="116.4" cy="350.7" r="25.9"/>
              <path class="st3" d="M142.3,352.1c-.1,0-.3-.6-.4-1.6,0-.3,0-.6,0-.9,0-.3-.1-.7-.2-1.1-.1-.8-.2-1.6-.5-2.6-.4-2-1.3-4.3-2.7-6.7-1.4-2.4-3.4-5-6.1-7.2-2.7-2.2-6.1-4.1-10.1-5-4-.9-8.4-.9-12.8.5-1.1.3-2.1.8-3.2,1.2-1,.5-2.1,1-3.1,1.8-1,.6-1.9,1.4-2.8,2.2-.8.9-1.8,1.7-2.5,2.7-1.5,1.9-2.9,4-3.8,6.4-.9,2.4-1.5,4.9-1.7,7.5-.1,2.6.2,5.2.8,7.6.6,2.5,1.7,4.7,3,6.8.6,1.1,1.4,2,2.2,2.9.8.9,1.7,1.8,2.6,2.5.9.8,1.9,1.4,2.8,2.1,1,.6,2,1.2,3.1,1.6,4.1,1.9,8.6,2.3,12.6,1.9,4.1-.4,7.7-1.9,10.6-3.8,2.9-1.9,5.2-4.2,6.9-6.5,1.6-2.3,2.8-4.5,3.4-6.4.4-.9.6-1.8.8-2.5.1-.4.2-.7.3-1,0-.3.1-.6.2-.9.2-1,.4-1.6.6-1.6.1,0,.2.6.2,1.7v.9c0,.3,0,.7-.1,1.1-.1.8-.2,1.7-.5,2.8-.5,2.1-1.5,4.5-3.1,7.1-1.6,2.6-3.9,5.3-7.1,7.5-3.2,2.2-7.2,4.1-11.7,4.7-4.5.6-9.6.2-14.4-1.8-1.2-.5-2.4-1.1-3.5-1.8-1.1-.7-2.3-1.4-3.3-2.4-1.1-.8-2-1.8-3-2.8-.9-1.1-1.8-2.1-2.6-3.4-1.5-2.4-2.8-5-3.6-7.9-.8-2.8-1.1-5.8-.9-8.9.2-3,.9-6,1.9-8.7,1-2.8,2.6-5.2,4.4-7.4.9-1.1,1.9-2.1,2.9-3,1.1-.9,2.1-1.8,3.3-2.5,1.1-.8,2.3-1.4,3.5-2,1.2-.5,2.4-1,3.7-1.4,5-1.5,10.1-1.3,14.5-.2,4.5,1.1,8.2,3.4,11.1,6,2.9,2.6,4.9,5.5,6.2,8.3,1.3,2.8,2,5.3,2.2,7.4.2,1,.2,2,.2,2.8,0,.4,0,.8,0,1.1,0,.3,0,.6-.1.9-.1,1.1-.3,1.7-.4,1.7h0Z"/>
            </g>
            <g>
              <path class="st0" d="M343.3,59.5c-4.7,30.3-33.8,53.5-65,51.9s-52.6-27.5-47.9-57.8C235.2,23.3,264.3,0,295.4,1.7c31.2,1.6,52.6,27.5,47.9,57.8Z"/>
              <path class="st3" d="M343.3,59.5c-.1,0,0-1.3,0-3.6.1-2.3.1-5.8-.4-10.1-.6-4.3-1.8-9.6-4.5-15.2-2.7-5.6-6.9-11.4-13-16.2-3-2.4-6.5-4.6-10.3-6.4-3.8-1.8-8-3.1-12.5-3.9-8.9-1.7-18.9-.9-28.6,2.2-9.7,3.2-19.1,9-26.6,17.2-1,1-1.8,2.1-2.7,3.2-.9,1.1-1.8,2.1-2.5,3.4-.8,1.2-1.6,2.3-2.3,3.5-.7,1.2-1.4,2.5-2,3.8-2.5,5.1-4.4,10.7-5.4,16.5-1.8,11.6.4,23.4,6.2,32.8,2.8,4.7,6.5,8.8,10.6,12.1,2.1,1.7,4.3,3.1,6.5,4.4,2.3,1.3,4.6,2.3,7,3.2,2.4.9,4.8,1.6,7.2,2.1,2.4.5,4.9.9,7.3,1.1,1.2.1,2.4,0,3.6.1,1.2,0,2.4,0,3.5,0,1.2,0,2.3-.2,3.5-.3.6,0,1.1,0,1.7-.2.6,0,1.1-.2,1.7-.3,9-1.5,17-4.8,23.6-9,6.6-4.2,11.8-9.1,15.6-14,1-1.2,1.9-2.4,2.7-3.6.8-1.2,1.7-2.3,2.3-3.5.7-1.2,1.3-2.3,1.9-3.3.6-1.1,1-2.2,1.5-3.2.2-.5.5-1,.7-1.5.2-.5.4-.9.6-1.4.3-.9.6-1.8.9-2.6s.6-1.5.8-2.2c.2-.7.3-1.3.5-1.9.6-2.2,1-3.4,1.1-3.4s0,1.2-.4,3.6c0,.6-.2,1.2-.3,2-.2.7-.4,1.5-.6,2.3-.2.8-.5,1.7-.8,2.7-.1.5-.3,1-.5,1.5-.2.5-.4,1-.6,1.5-.4,1-.8,2.2-1.4,3.3-.6,1.1-1.2,2.3-1.8,3.5-.6,1.2-1.4,2.4-2.2,3.7-.8,1.3-1.6,2.6-2.6,3.8-3.9,5.1-9.1,10.4-15.9,14.9-6.8,4.5-15.1,8.2-24.5,9.9-.6.1-1.2.2-1.8.3-.6,0-1.2.1-1.8.2-1.2.1-2.4.2-3.7.4-1.2,0-2.5,0-3.8,0-1.3,0-2.5,0-3.8,0-2.6-.1-5.1-.5-7.7-1-2.6-.5-5.2-1.3-7.7-2.2-2.5-.9-5.1-2.1-7.5-3.4-2.4-1.4-4.8-2.9-7-4.7-4.4-3.6-8.5-7.9-11.6-13-6.3-10.1-8.8-22.9-6.8-35.3,1.1-6.2,3-12.1,5.7-17.6.7-1.3,1.5-2.7,2.2-4,.8-1.3,1.7-2.5,2.5-3.8.8-1.3,1.8-2.4,2.7-3.6.9-1.1,1.8-2.3,2.9-3.4,8-8.6,18-14.7,28.3-18,10.3-3.2,20.9-3.8,30.3-1.9,4.7.9,9.2,2.4,13.2,4.3,4,1.9,7.6,4.3,10.8,6.9,6.3,5.3,10.5,11.5,13.2,17.4,2.6,5.9,3.7,11.4,4.1,15.9.3,4.5,0,8-.3,10.3-.4,2.3-.7,3.5-.8,3.5h0Z"/>
            </g>
            <g>
              <circle class="st0" cx="196.1" cy="91.3" r="46.6"/>
              <path class="st3" d="M242.6,93.9c-.1,0-.2-1-.4-3,0-.5,0-1,0-1.6,0-.6-.2-1.2-.3-1.9,0-.7-.2-1.4-.3-2.2,0-.8-.4-1.6-.5-2.5-.7-3.6-2.2-7.8-4.6-12.3-2.4-4.5-6-9.2-11-13.3-.6-.5-1.2-1-1.9-1.5-.7-.5-1.4-.9-2.1-1.4-.7-.5-1.4-1-2.1-1.4-.8-.4-1.5-.8-2.3-1.2-.4-.2-.8-.4-1.2-.6-.4-.2-.8-.3-1.2-.5-.8-.3-1.6-.7-2.5-1-.9-.3-1.7-.5-2.6-.8-.9-.2-1.8-.6-2.7-.8-1.9-.3-3.7-.8-5.6-.9-1,0-1.9-.2-2.9-.3h-3c-.5,0-1,0-1.5,0-.5,0-1,0-1.5.2-1,.1-2,.2-3,.3-2,.4-4.1.7-6.1,1.5l-1.5.5c-.2,0-.5.2-.8.2l-.7.3c-1,.4-2,.8-3,1.2-1,.5-1.9,1-2.9,1.5-.5.3-1,.5-1.4.8l-1.4.9c-1.9,1.2-3.6,2.6-5.3,4-.8.8-1.6,1.6-2.4,2.4l-.6.6-.6.7-1.1,1.3-1.1,1.3-1,1.4-1,1.4-.5.7-.4.8c-.6,1-1.1,2-1.7,3.1-.5,1.1-.9,2.2-1.4,3.2-1.7,4.4-2.8,9.1-3.1,13.9-.2,4.8.3,9.6,1.5,14.2.3,1.1.7,2.2,1,3.4.4,1.1.9,2.2,1.3,3.2l.3.8.4.8.8,1.5.8,1.5.9,1.4.9,1.4.5.7.5.7c.7.9,1.4,1.8,2.1,2.6,1.6,1.6,3.1,3.2,4.8,4.6l1.3,1.1c.4.4.9.6,1.3.9.9.6,1.8,1.3,2.7,1.8.9.5,1.9,1.1,2.8,1.6l.7.4c.2.1.5.2.7.3l1.4.6c1.9.9,3.9,1.5,5.9,2.1,1,.3,2,.4,3,.7.5.1,1,.2,1.5.3.5.1,1,.1,1.5.2,1,.1,2,.2,3,.3,1,0,2,0,2.9,0,1.9.1,3.8-.1,5.7-.3.9,0,1.9-.3,2.8-.4.9-.2,1.8-.3,2.7-.5.9-.2,1.7-.5,2.6-.8.4-.1.9-.2,1.3-.4.4-.2.8-.3,1.2-.5.8-.3,1.6-.6,2.4-1,.8-.3,1.5-.8,2.3-1.1.7-.4,1.5-.8,2.2-1.2.7-.4,1.4-.9,2.1-1.3,5.4-3.5,9.5-7.8,12.4-12,2.9-4.2,4.9-8.3,6-11.7.3-.9.6-1.7.8-2.4.2-.8.4-1.5.6-2.2s.4-1.3.5-1.9c.1-.6.2-1.1.3-1.6.3-1.9.6-2.9.7-2.9.1,0,.1,1,0,3,0,.5,0,1,0,1.7,0,.6-.2,1.3-.3,2-.1.7-.2,1.5-.4,2.3-.1.8-.4,1.7-.7,2.6-.9,3.7-2.8,7.9-5.6,12.5-2.9,4.5-7.1,9.2-12.7,13.1-.7.5-1.4,1-2.1,1.4-.8.4-1.5.9-2.3,1.3-.8.4-1.6.9-2.4,1.2-.8.4-1.7.7-2.5,1.1-.4.2-.9.4-1.3.5-.4.1-.9.3-1.4.4-.9.3-1.8.6-2.8.9-.9.3-1.9.4-2.9.6-1,.2-1.9.5-2.9.5-2,.2-4,.5-6.1.4-1,0-2.1,0-3.1,0-1.1-.1-2.1-.2-3.2-.3-.5,0-1.1,0-1.6-.2-.5-.1-1.1-.2-1.6-.3-1.1-.2-2.1-.4-3.2-.7-2.1-.7-4.3-1.2-6.3-2.2l-1.6-.7c-.3-.1-.5-.2-.8-.3l-.8-.4c-1-.6-2-1.1-3-1.7-1-.6-1.9-1.3-2.9-1.9-.5-.3-1-.6-1.4-1l-1.4-1.1c-1.9-1.4-3.5-3.2-5.2-4.9-.8-.9-1.5-1.9-2.3-2.8l-.6-.7-.5-.8-1-1.5-1-1.6-.9-1.6-.9-1.7-.4-.8-.4-.9c-.5-1.2-1-2.3-1.5-3.5-.4-1.2-.7-2.4-1.1-3.7-1.3-4.9-1.9-10.2-1.6-15.4.4-5.2,1.5-10.4,3.4-15.1.5-1.2,1-2.3,1.5-3.5.6-1.1,1.2-2.2,1.8-3.3l.5-.8.5-.8,1.1-1.5,1.1-1.5,1.2-1.4,1.2-1.4.6-.7.7-.6c.9-.9,1.8-1.7,2.6-2.6,1.9-1.5,3.7-3.1,5.8-4.3l1.5-1c.5-.3,1-.6,1.6-.8,1.1-.5,2.1-1.1,3.1-1.6,1.1-.4,2.1-.9,3.2-1.3l.8-.3c.3,0,.6-.2.8-.2.6-.2,1.1-.3,1.6-.5,2.1-.7,4.4-1,6.6-1.5,1.1-.2,2.2-.2,3.3-.3.5,0,1.1,0,1.6-.1s1.1,0,1.6,0c1.1,0,2.1,0,3.2,0,1.1,0,2.1.2,3.1.3,2.1.2,4.1.7,6,1.1,1,.2,1.9.6,2.9.8.9.3,1.9.6,2.8,1,.9.4,1.8.8,2.6,1.2.4.2.9.4,1.3.6.4.2.8.5,1.2.7.8.5,1.6.9,2.4,1.4.8.4,1.5,1,2.2,1.5.7.5,1.5,1,2.1,1.5.7.6,1.3,1.1,2,1.7,5.1,4.5,8.7,9.6,11.1,14.4,2.4,4.8,3.7,9.3,4.2,13,.1.9.4,1.8.4,2.6,0,.8,0,1.6.1,2.3,0,.7,0,1.4,0,2,0,.6,0,1.2-.1,1.7-.1,2-.3,3-.4,3h0Z"/>
            </g>
            <g>
              <circle class="st0" cx="365.5" cy="123.7" r="50.4"/>
              <path class="st3" d="M315.2,120.9c-.1,0-.1-1.1,0-3.2,0-.5,0-1.1.1-1.8,0-.7.2-1.4.3-2.1s.3-1.6.4-2.5c0-.4.2-.9.3-1.3.1-.5.3-.9.4-1.4,1-3.9,3-8.6,6.1-13.5,3.1-4.9,7.6-9.9,13.7-14.1.8-.5,1.5-1,2.3-1.6.8-.5,1.6-.9,2.5-1.4.9-.4,1.7-1,2.6-1.3.9-.4,1.8-.8,2.8-1.2.5-.2.9-.4,1.4-.6.5-.2,1-.3,1.5-.5,1-.3,2-.6,3-.9,1-.3,2-.4,3.1-.7,1-.2,2.1-.5,3.2-.6,2.2-.2,4.4-.5,6.6-.4,1.1,0,2.3,0,3.4,0,1.1.1,2.3.2,3.4.3.6,0,1.2,0,1.7.2.6.1,1.1.2,1.7.3,1.1.2,2.3.4,3.5.7,2.3.7,4.6,1.3,6.8,2.4.6.2,1.1.5,1.7.7.3.1.6.2.9.4l.8.4c1.1.6,2.2,1.2,3.3,1.8,1.1.7,2.1,1.4,3.1,2.1.5.4,1.1.7,1.6,1.1l1.5,1.2c2,1.6,3.8,3.5,5.6,5.3.8,1,1.7,2,2.5,3.1l.6.8.6.8,1.1,1.7,1.1,1.7,1,1.8,1,1.8.5.9.4.9c.5,1.2,1,2.5,1.6,3.8.4,1.3.8,2.6,1.2,3.9,1.4,5.3,2,11,1.8,16.6-.4,5.7-1.6,11.2-3.6,16.3-.5,1.3-1.1,2.5-1.6,3.8-.7,1.2-1.3,2.4-2,3.6l-.5.9-.6.8-1.1,1.7-1.1,1.6-1.3,1.5-1.3,1.5-.6.8-.7.7c-1,.9-1.9,1.8-2.8,2.8-2,1.6-4,3.3-6.2,4.7l-1.6,1.1c-.5.4-1.1.6-1.7.9-1.1.6-2.2,1.2-3.4,1.7-1.2.5-2.3.9-3.5,1.4l-.9.4c-.3.1-.6.2-.9.3-.6.2-1.2.4-1.8.5-2.3.8-4.7,1.1-7.1,1.6-1.2.2-2.4.2-3.5.4-.6,0-1.2.1-1.8.1-.6,0-1.2,0-1.7,0-1.2,0-2.3,0-3.5,0-1.1,0-2.3-.2-3.4-.4-2.2-.2-4.4-.7-6.5-1.2-1.1-.2-2.1-.6-3.1-.9-1-.4-2-.6-3-1-1-.4-1.9-.8-2.8-1.3-.5-.2-.9-.4-1.4-.6-.4-.2-.9-.5-1.3-.7-.9-.5-1.7-1-2.6-1.5-.9-.5-1.6-1.1-2.4-1.6-.8-.6-1.6-1.1-2.3-1.7-.7-.6-1.4-1.2-2.1-1.8-5.5-4.8-9.4-10.4-12-15.5-2.5-5.2-4-10-4.6-14.1,0-.5-.2-1-.2-1.5,0-.5-.1-.9-.2-1.4,0-.9-.1-1.7-.1-2.5,0-.8-.1-1.5-.1-2.2,0-.7,0-1.2.1-1.8.1-2.1.3-3.2.4-3.2s.2,1.1.4,3.2c0,.5,0,1.1,0,1.8,0,.6.2,1.3.3,2.1.1.8.2,1.6.3,2.4,0,.4.1.9.2,1.3.1.4.2.9.3,1.4.8,3.9,2.4,8.5,5,13.4,2.6,4.9,6.5,10,11.9,14.5.7.6,1.4,1.1,2,1.7.7.5,1.5,1,2.2,1.5.8.5,1.5,1.1,2.3,1.5.8.4,1.6.9,2.5,1.3.4.2.8.4,1.3.7.4.2.9.4,1.3.6.9.4,1.8.8,2.7,1.1.9.4,1.9.6,2.8.9,1,.3,1.9.7,2.9.8,2,.4,4,.9,6.1,1,1,0,2.1.2,3.2.3h3.2c.5,0,1.1,0,1.6,0,.5,0,1.1-.1,1.6-.2,1.1-.1,2.2-.2,3.3-.4,2.2-.5,4.4-.8,6.6-1.6.5-.2,1.1-.3,1.6-.5.3,0,.5-.2.8-.3l.8-.3c1.1-.4,2.1-.9,3.2-1.4,1-.5,2.1-1.1,3.1-1.6.5-.3,1.1-.5,1.5-.9l1.5-1c2-1.2,3.9-2.9,5.8-4.4l2.6-2.6.7-.6.6-.7,1.2-1.4,1.2-1.4,1.1-1.5,1.1-1.6.5-.8.5-.8c.6-1.1,1.2-2.2,1.8-3.3.5-1.2,1-2.3,1.5-3.5,1.9-4.8,3-9.9,3.4-15.1.2-5.3-.3-10.5-1.6-15.4-.4-1.2-.7-2.4-1.1-3.7-.5-1.2-1-2.3-1.5-3.5l-.4-.9-.4-.8-.9-1.7-.9-1.7-1-1.6-1-1.6-.5-.8-.6-.7c-.8-1-1.5-1.9-2.3-2.9-1.7-1.7-3.3-3.5-5.2-5l-1.4-1.2c-.5-.4-1-.7-1.4-1-1-.7-1.9-1.4-2.9-2-1-.6-2-1.1-3-1.7l-.8-.4c-.3-.1-.5-.2-.8-.3l-1.6-.7c-2.1-1-4.2-1.6-6.4-2.3-1.1-.3-2.2-.5-3.2-.7-.5-.1-1.1-.2-1.6-.3-.5-.1-1.1-.1-1.6-.2-1.1-.1-2.1-.2-3.2-.4-1.1,0-2.1,0-3.2,0-2.1-.1-4.2.2-6.2.3-1,0-2,.3-3,.5-1,.2-2,.3-2.9.6-.9.3-1.9.6-2.8.8-.5.1-.9.3-1.4.4-.4.2-.9.3-1.3.5-.9.3-1.8.7-2.6,1.1-.9.3-1.6.8-2.5,1.2-.8.4-1.6.8-2.4,1.3-.8.5-1.5,1-2.2,1.4-5.8,3.8-10.3,8.5-13.4,13.1-3.1,4.6-5.3,9-6.5,12.7-.2.5-.3.9-.5,1.4-.2.4-.3.9-.4,1.3-.2.8-.4,1.7-.6,2.4s-.4,1.4-.5,2.1c-.1.6-.2,1.2-.3,1.7-.4,2.1-.6,3.2-.7,3.2h0Z"/>
            </g>
            <g>
              <path class="st0" d="M188.3,126s-96.6,17.7-116,55c-19.4,37.4,19.3,78,19.3,78l96.6-133.1h0Z"/>
              <path class="st3" d="M188.3,126c.1,0-.6,1.2-2,3.4-1.4,2.1-3.5,5.2-6.2,9.2-5.5,7.9-13.5,19.4-23.5,33.4-10,14.1-22,30.8-35.3,49.3-6.7,9.2-13.7,19-20.9,29-1.8,2.5-3.7,5.1-5.5,7.6l-1.1,1.5c-.5.6-.9,1.2-1.4,1.9l-.3.5c0,0-.1.2-.2.2l-.2-.2-.8-.8c-.5-.6-1.1-1.1-1.6-1.7l-.7-.8-.4-.5-.8-.9-1.5-1.9c-4-5.1-7.7-10.6-10.9-16.5-3.2-5.9-5.8-12.1-7.5-18.4-.8-3.2-1.6-6.4-1.9-9.6-.2-1.6-.3-3.2-.4-4.9,0-.8,0-1.6,0-2.4v-2.4c.1-.8.2-1.6.2-2.4.1-.8.2-1.6.3-2.4l.2-1.2c0-.4.2-.8.2-1.2.2-.8.3-1.6.5-2.3.2-.8.4-1.5.7-2.3.2-.8.4-1.5.7-2.2.6-1.4,1.1-2.9,1.8-4.3.3-.7.7-1.4,1-2.1.3-.7.8-1.3,1.2-2,.4-.7.8-1.3,1.2-2,.5-.6.9-1.2,1.4-1.8.5-.6.9-1.2,1.4-1.8l1.5-1.7c.5-.6,1-1.1,1.5-1.6l1.6-1.5c8.6-8.1,18.2-13.5,27.4-18,9.2-4.4,18.1-7.9,26.3-10.7,16.4-5.6,30-8.9,39.5-10.9,4.7-1,8.4-1.7,10.9-2.1s3.9-.5,3.9-.4c0,.1-1.3.5-3.7,1.1-2.5.6-6.1,1.6-10.8,2.8-9.3,2.5-22.8,6.1-38.9,12-8.1,2.9-16.8,6.5-25.8,11-4.5,2.3-9,4.8-13.5,7.7-4.4,2.9-8.9,6.2-12.8,10-4,3.9-7.5,8.3-9.8,13.5-.7,1.3-1.1,2.7-1.6,4-.3.7-.4,1.4-.7,2.1-.2.7-.4,1.4-.6,2.1-.2.7-.3,1.4-.4,2.2s-.2.7-.2,1.1v1.1c-.2.7-.3,1.5-.4,2.2,0,.7,0,1.5-.1,2.2v1.1c0,0,0,1.1,0,1.1v2.3c.2,1.5.2,3,.4,4.5.3,3,1,6.1,1.8,9.1,1.7,6,4.2,11.9,7.2,17.6,3.1,5.7,6.7,11,10.5,16l1.5,1.8,1.2,1.4s0,0,0,0h0s.3-.4.3-.4c1.9-2.6,3.7-5.1,5.5-7.6,7.3-10,14.4-19.7,21.1-28.9,13.5-18.4,25.7-34.9,35.9-48.8s18.6-25,24.5-32.7c2.9-3.8,5.2-6.8,6.8-8.8,1.6-2,2.5-3,2.6-2.9h0Z"/>
            </g>
            <g>
              <path class="st0" d="M351,166.2s81.9,59.4,67.2,116.3c-14.8,56.9-70.4,54.4-102.8,48.1-32.4-6.3,35.5-164.4,35.5-164.4h0Z"/>
              <path class="st3" d="M351,166.2c.1,0-.4,1.5-1.4,4.3-1,2.8-2.6,6.9-4.6,12.1-4,10.5-9.7,25.7-16.2,44.7-3.2,9.5-6.6,19.9-9.9,31.2-3.3,11.3-6.5,23.5-8.7,36.5-1,6.5-1.9,13.2-1.6,19.9.2,3.3.7,6.7,2,9.5.7,1.4,1.6,2.5,2.8,3.3.3.2.6.4.9.5.2,0,.3.2.5.2h.5c0,.1.5.3.5.3h.6c0,.1,1.3.4,1.3.4,7,1.3,14.3,2.2,21.6,2.6,3.7.2,7.4.2,11.1,0,3.7-.2,7.5-.5,11.2-1,3.7-.6,7.4-1.3,10.9-2.3,3.5-1,7-2.2,10.3-3.8,3.3-1.6,6.4-3.3,9.3-5.4l1.1-.8,1-.8c.7-.5,1.4-1.1,2.1-1.6,1.3-1.2,2.6-2.3,3.8-3.6,4.9-5,8.7-10.8,11.5-17,1.4-3.1,2.6-6.2,3.6-9.4.2-.8.5-1.6.7-2.4.2-.8.5-1.6.6-2.4.3-1.6.7-3.2,1-4.8,1-6.4.7-12.7-.3-18.8-1-6.1-2.8-11.8-5-17.2-2.2-5.4-4.9-10.4-7.6-15-2.8-4.7-5.7-9-8.7-13-12-16-23.8-27.2-32-34.8-4.1-3.8-7.5-6.6-9.7-8.5-2.2-1.9-3.4-2.9-3.4-3s1.4.7,3.8,2.4c2.4,1.7,5.9,4.4,10.2,8,8.6,7.3,20.8,18.3,33.2,34.3,3,4,6.1,8.4,9,13.1,2.9,4.7,5.6,9.8,8,15.3,2.3,5.5,4.2,11.5,5.4,17.8,1.1,6.3,1.5,13.1.5,19.9-.3,1.7-.7,3.4-1,5.1-.1.9-.4,1.7-.6,2.5-.2.8-.5,1.7-.7,2.5-1,3.3-2.2,6.6-3.7,9.9-2.9,6.5-7,12.7-12.1,18.1-1.2,1.4-2.7,2.6-4.1,3.9-.7.6-1.5,1.2-2.2,1.8l-1.1.9-1.2.8c-3.1,2.2-6.4,4.1-9.9,5.7-3.5,1.6-7.1,2.9-10.8,4-3.7,1-7.5,1.8-11.4,2.4-3.9.5-7.7.9-11.6,1-3.8.1-7.7,0-11.4-.1-7.5-.4-14.9-1.4-22.1-2.7l-1.3-.2h-.7c0-.1-.8-.4-.8-.4l-.8-.2c-.3,0-.5-.2-.8-.3-.5-.2-1-.5-1.4-.8-1.8-1.2-3.2-3-4-4.8-1.7-3.6-2.1-7.4-2.3-11-.3-7.2.6-14.1,1.8-20.7,2.3-13.2,5.7-25.4,9.1-36.8,3.4-11.3,7-21.8,10.4-31.2,6.8-18.9,13-34,17.4-44.3,2.2-5.2,4-9.2,5.2-11.8,1.2-2.7,2-4.1,2.1-4h0Z"/>
            </g>
            <g>
              <ellipse class="st0" cx="99.3" cy="294.9" rx="56.5" ry="49.7" transform="translate(-5.3 1.9) rotate(-1)"/>
              <path class="st3" d="M42.8,295.9c-.1,0-.3-1.2-.3-3.4s.2-5.6,1.3-9.8c.5-2.1,1.3-4.4,2.3-6.8,1.1-2.4,2.4-4.9,4.1-7.5,3.4-5.1,8.3-10.3,14.7-14.6,6.4-4.3,14.3-7.8,23.3-9.4,4.5-.8,9.2-1.2,14.1-1,4.8.2,9.8.9,14.8,2.3,9.9,2.7,19.7,8.1,27.4,16.4,3.9,4.1,7.1,9,9.4,14.3,2.3,5.4,3.6,11.3,3.7,17.3,0,6-1,12-3.1,17.4-2.1,5.5-5.2,10.4-8.9,14.7-7.4,8.5-17,14.3-26.8,17.4-4.9,1.6-9.9,2.4-14.7,2.8-4.8.4-9.6.2-14.1-.5-9-1.3-17.1-4.4-23.7-8.5-6.6-4.1-11.7-9.1-15.2-14-1.8-2.5-3.2-5-4.4-7.3-1.1-2.4-2-4.6-2.6-6.7-1.2-4.1-1.6-7.5-1.7-9.7,0-2.2,0-3.4.2-3.4s.3,1.2.6,3.4.9,5.4,2.3,9.3c.7,2,1.6,4.1,2.8,6.3,1.2,2.2,2.7,4.5,4.5,6.9,3.6,4.6,8.6,9.3,14.9,13,6.3,3.8,14.1,6.6,22.7,7.7,4.3.5,8.8.7,13.4.3,4.6-.4,9.3-1.3,13.9-2.8,9.2-3,18.2-8.4,25-16.4,3.4-4,6.2-8.6,8.1-13.6,1.9-5,2.9-10.5,2.8-16-.1-5.5-1.3-10.9-3.4-15.9-2.1-5-5.1-9.5-8.6-13.3-7.1-7.7-16.3-12.9-25.6-15.5-4.7-1.4-9.4-2.1-14-2.3-4.6-.2-9.1,0-13.4.8-8.6,1.4-16.2,4.5-22.4,8.5-6.2,4-11,8.8-14.5,13.5-1.7,2.4-3.1,4.8-4.2,7-1.1,2.3-1.9,4.4-2.5,6.4-1.3,4-1.7,7.2-2,9.4s-.3,3.4-.5,3.4h0Z"/>
            </g>
            <g>
              <ellipse class="st0" cx="282.8" cy="364" rx="63.5" ry="47.5" transform="translate(-100.1 107.4) rotate(-18.3)"/>
              <path class="st3" d="M343,344.1c0,0-.2-.2-.5-.8s-.6-1.4-1.2-2.4c-1-2.1-2.7-5-5.6-8.3-2.9-3.3-7-6.8-12.4-9.7-5.4-2.9-12.2-5.2-19.9-6.2-7.7-1-16.3-.8-25.3,1.1-9,1.9-18.2,5.4-27,10.8-8.7,5.4-16.8,12.9-22.4,22.4-2.8,4.8-4.9,10-5.7,15.6-.9,5.5-.6,11.4,1.2,16.8,1.8,5.5,5,10.3,9,14.2,4,3.9,8.8,6.9,13.9,9.1,10.2,4.3,21.2,5.4,31.4,4.6,10.2-.9,19.8-3.6,28-7.5,8.3-3.9,15.4-8.8,20.9-14.2,5.6-5.4,9.7-11.3,12.3-16.8,2.6-5.6,3.9-10.8,4.2-15.2.3-4.3,0-7.8-.5-10-.2-1.1-.4-2-.5-2.6-.1-.6-.1-.9,0-.9s.2.2.4.8c.2.6.6,1.4.9,2.5.6,2.3,1.3,5.7,1.2,10.3-.1,4.5-1.2,10.1-3.7,16-2.5,5.9-6.6,12.1-12.3,17.9-5.7,5.8-12.9,11-21.5,15.2-8.5,4.1-18.4,7.1-29.1,8.1-10.6,1-22.2-.1-33.1-4.7-5.4-2.3-10.7-5.5-15.1-9.8-4.4-4.3-8-9.7-10-15.7-2-6.1-2.4-12.5-1.4-18.6,1-6.1,3.3-11.8,6.2-16.9,6-10.2,14.7-17.9,23.8-23.5,9.2-5.6,18.9-9.1,28.2-10.9,9.3-1.8,18.3-1.9,26.3-.6,8,1.2,15,3.8,20.6,7,5.6,3.2,9.7,7,12.5,10.6,2.8,3.6,4.3,6.8,5.2,9,.5,1.1.7,2,.8,2.5.1.6.2.9.1.9h0Z"/>
            </g>
            <g>
              <ellipse class="st0" cx="163.4" cy="366.2" rx="43.3" ry="57.2" transform="translate(-232.8 428.1) rotate(-74.8)"/>
              <path class="st3" d="M218.6,381.2c0,0,0-.3,0-.8,0-.5.2-1.3.3-2.4.2-2.1.4-5.2,0-9.1-.5-3.9-1.8-8.6-4.4-13.5-2.6-4.9-6.6-10-11.8-14.6-5.3-4.6-11.9-8.8-19.6-11.8-7.7-3.1-16.4-5.1-25.6-5.3-9.2-.2-19.1,1.4-28,5.9-4.4,2.2-8.6,5.2-12,9-3.4,3.7-6,8.3-7.4,13.3-1.3,5-1.4,10.2-.3,15.2,1,5,3.1,9.6,5.8,13.8,5.4,8.4,13.1,14.7,21.2,19.2,8.1,4.5,16.7,7.2,24.8,8.4,8.2,1.2,16,1,22.9-.4,6.9-1.3,12.9-3.7,17.6-6.7s8.3-6.3,10.7-9.4c2.4-3.1,3.8-5.9,4.6-7.8.4-1,.7-1.7.9-2.2.2-.5.4-.7.4-.7,0,0,0,.3,0,.8-.1.5-.2,1.3-.6,2.4-.6,2-1.8,5-4.2,8.4-2.3,3.4-5.9,7.1-10.7,10.3-4.9,3.2-11,6-18.2,7.5-7.2,1.6-15.3,2-23.8.8s-17.5-3.8-26.1-8.4c-8.5-4.6-16.7-11.3-22.6-20.2-2.9-4.5-5.2-9.5-6.4-15-1.2-5.5-1.1-11.4.4-17,1.5-5.6,4.4-10.7,8.2-14.8,3.8-4.2,8.3-7.4,13.1-9.8,9.6-4.8,20.1-6.4,29.8-6,9.7.4,18.8,2.5,26.8,5.9,7.9,3.3,14.8,7.8,20.1,12.8,5.4,5,9.4,10.4,11.9,15.7,2.6,5.2,3.8,10.2,4,14.3.3,4.1-.1,7.3-.6,9.4-.2,1-.5,1.8-.7,2.3-.2.5-.3.8-.4.8h0Z"/>
            </g>
            <g>
              <path class="st7" d="M361.7,156.5h0c-.6-51-39-101.1-90.8-104-35.9-2-70.1,23.2-88.7,51.1h0s0,0,0,0c-4,6.1-7.4,12.6-10.1,19.5-13.3,25.3-36.6,68-50.3,82.8-20,21.6-42.6,28.1-46.2,70.6-3.6,42.5,42.6,80.1,82.2,90.1s110.7,17.2,154.2-6.2c43.4-23.5,56.2-110.3,49.8-203.9h0Z"/>
              <path class="st3" d="M361.7,156.5c0,0,.2.8.4,2.5.2,1.6.4,4.1.6,7.3.5,6.5,1,16,1.3,28.3.2,12.3.2,27.4-1.1,44.8-.6,8.7-1.6,18-3,27.9-1.5,9.8-3.4,20.2-6.3,30.9-1.5,5.3-3.1,10.8-5.2,16.2-2,5.4-4.4,10.9-7.2,16.3-2.9,5.4-6.2,10.6-10.2,15.6-4,4.9-8.8,9.5-14.3,13.1-1.4.9-2.9,1.8-4.3,2.6-1.5.7-2.9,1.5-4.5,2.2-3,1.4-6.1,2.7-9.3,3.9-6.4,2.3-13,4.1-19.8,5.5-13.6,2.8-27.9,4-42.5,4.1-14.6.1-29.6-.9-44.8-2.9-7.6-1-15.2-2.3-22.9-3.9-3.8-.8-7.6-1.7-11.5-2.6-3.9-1-7.7-2.2-11.4-3.6-3.8-1.4-7.5-3-11.1-4.8-3.6-1.8-7.2-3.7-10.7-5.8-3.5-2.1-6.9-4.4-10.2-6.8-1.7-1.2-3.3-2.5-4.9-3.8-1.6-1.3-3.2-2.6-4.7-4-3.1-2.7-6.1-5.7-8.9-8.8-2.8-3.1-5.4-6.4-7.9-9.8-2.5-3.4-4.6-7.1-6.5-10.9-1-1.9-1.8-3.9-2.6-5.9-.7-2-1.5-4-2.1-6.1-1.5-5.1-2.3-10.4-2.4-15.6v-2s0-2,0-2v-2c.1-.6.2-1.3.3-1.9l.4-3.9.2-1.9c0-.6.2-1.3.3-1.9.5-2.5.9-5.1,1.7-7.6l1-3.7c.4-1.2.9-2.4,1.3-3.6.8-2.5,2.1-4.7,3.1-7.1.6-1.1,1.3-2.2,1.9-3.3.3-.6.6-1.1,1-1.6l1.1-1.6c.8-1,1.4-2.1,2.3-3.1l2.4-2.9c.8-1,1.7-1.9,2.6-2.8.8-.9,1.8-1.8,2.7-2.7,3.6-3.5,7.4-6.7,11-9.9,1.8-1.6,3.6-3.2,5.4-4.8.9-.8,1.8-1.6,2.6-2.5.9-.8,1.7-1.6,2.6-2.5l2.5-2.5c.8-.9,1.5-1.8,2.3-2.6.8-.9,1.5-1.8,2.2-2.8l1.1-1.4,1-1.4c5.6-7.6,10.6-15.6,15.4-23.5,4.8-7.9,9.3-15.9,13.7-23.8,4.4-7.9,8.6-15.7,12.8-23.5.5-1,1-1.9,1.5-2.9l.2-.4c.1-.2,0,0,0-.2l.3-.8.6-1.5c.8-2.1,1.8-4.1,2.7-6,1.9-3.9,4.1-7.7,6.5-11.3v.2c-.1,0,0,0,0,0l.6-1.2,1.3.4h0l-1.9.7c5.4-8,11.6-15.2,18.4-21.6s14-11.9,21.6-16.4c7.6-4.5,15.6-8.1,23.6-10.4,8.1-2.3,16.3-3.4,24.3-3.1,8,.2,15.6,1.5,22.7,3.8,7.1,2.2,13.6,5.3,19.5,8.8,11.8,7.1,21,16.1,27.9,25.2,7,9.1,11.8,18.2,15.1,26.4,3.3,8.3,5.3,15.7,6.4,21.8,1.1,6.1,1.4,10.9,1.6,14.2,0,3.3,0,5.1,0,5.2h0,0,0c-.3-.3-.1-7.2-2.5-19.2-1.3-6-3.3-13.3-6.8-21.4-3.4-8.1-8.3-17-15.3-25.8-6.9-8.8-16-17.5-27.6-24.3-5.8-3.4-12.1-6.3-19-8.4-6.9-2.1-14.3-3.4-22-3.5-7.6-.2-15.6.9-23.4,3.2s-15.5,5.8-22.9,10.2c-14.7,8.9-28.2,21.6-38.7,37.2l-.7,1-1.2-.3h0l2-.9h0c0,0,0,.1,0,.1h0c-2.3,3.6-4.4,7.2-6.3,11-.9,1.9-1.8,3.8-2.6,5.8l-.6,1.5-.3.8c0,0-.2.5-.2.6l-.2.4c-.5,1-1,1.9-1.5,2.9-4.1,7.8-8.3,15.7-12.7,23.6s-8.9,15.9-13.7,23.9c-4.8,8-9.8,16-15.5,23.8l-1.1,1.5-1.1,1.4c-.8.9-1.5,1.9-2.3,2.9-.8.9-1.6,1.9-2.4,2.8l-2.6,2.6c-.8.9-1.7,1.7-2.6,2.6-.9.8-1.8,1.7-2.7,2.5-1.8,1.6-3.6,3.3-5.5,4.9-3.7,3.2-7.4,6.4-10.9,9.7-.9.8-1.8,1.7-2.6,2.6-.8.9-1.7,1.7-2.5,2.6l-2.3,2.8c-.8.9-1.4,1.9-2.1,2.9l-1.1,1.5c-.3.5-.6,1-.9,1.6-.6,1-1.2,2.1-1.8,3.1-1,2.2-2.2,4.3-2.9,6.7-.4,1.1-.9,2.3-1.3,3.4l-1,3.5c-.7,2.3-1.1,4.8-1.6,7.2-.1.6-.2,1.2-.3,1.8l-.2,1.9-.4,3.7c0,.6-.2,1.2-.2,1.9v1.8c0,0-.2,1.8-.2,1.8v1.9c.2,4.9.9,9.9,2.3,14.6.5,2,1.3,3.9,1.9,5.8.8,1.9,1.6,3.8,2.5,5.6,1.8,3.6,3.9,7.1,6.2,10.4,2.3,3.3,4.8,6.5,7.6,9.5,2.7,3,5.6,5.9,8.6,8.5,12,10.7,25.9,19,40.4,24.5,3.6,1.3,7.3,2.5,11.1,3.5,3.8,1,7.5,1.8,11.3,2.6,7.6,1.6,15.1,2.8,22.6,3.9,15,2,29.8,3.1,44.2,3,14.4,0,28.5-1.2,41.9-3.9,6.7-1.4,13.2-3.1,19.4-5.3,3.1-1.1,6.1-2.4,9-3.7,1.5-.7,2.9-1.4,4.3-2.1,1.4-.8,2.7-1.6,4.1-2.4,5.3-3.4,9.8-7.7,13.7-12.4,3.9-4.7,7.1-9.8,10-15,2.9-5.2,5.2-10.5,7.2-15.9,2.1-5.3,3.7-10.7,5.2-15.9,2.9-10.5,5-20.8,6.5-30.5,1.5-9.8,2.5-19,3.3-27.7,1.4-17.4,1.7-32.4,1.7-44.7,0-12.3-.4-21.8-.6-28.3-.1-3.2-.2-5.7-.3-7.4,0-1.7,0-2.5,0-2.5h0Z"/>
            </g>
            <g>
              <path class="st0" d="M238.3,413.5c-15.3-2.3-15.7-17.4-9.6-28.7,2.3-8.4-.7-17.6,1.5-26.1,7.3-24.4,44.7-24.2,59.8-7.8,9.5,14.4.5,35.6-14.8,41.9-19.1,5-10.5,26.8-36.9,20.6h0Z"/>
              <path class="st3" d="M238.3,413.5c0-.1.9,0,2.4.1,1.5.1,3.8.4,6.6.2,2.8-.2,6.2-1,8.8-3.9,1.3-1.4,2.5-3.2,3.6-5.2s2.5-4.2,4.2-6.4c1.7-2.1,4-4.1,6.8-5.4.7-.4,1.4-.6,2.1-.9.4-.1.7-.2,1.1-.4l.6-.2h.1s0,0,0,0c0,0,0,0,0,0h.2c1.3-.6,2.5-1.3,3.7-2.1,4.8-3.1,9-8.2,11.4-14.2,1.2-3,2-6.3,2.1-9.7.1-3.4-.4-6.8-1.8-10-.3-.8-.7-1.6-1.1-2.3l-.6-1-.8-.8c-.6-.6-1.3-1.2-2-1.8-.7-.5-1.4-1.1-2.2-1.6-1.5-1-3.1-1.9-4.8-2.7-1.7-.8-3.5-1.5-5.3-2-7.3-2.2-15-2.5-21.9-1-6.9,1.5-13.1,5.3-16.7,10.6-.9,1.3-1.6,2.7-2.3,4.2-.3.7-.5,1.5-.8,2.2-.2.7-.4,1.5-.5,2.2-.5,3-.4,6.1-.4,9.1,0,3,.2,6.1,0,9,0,.7-.2,1.5-.2,2.2-.1.7-.2,1.4-.4,2.1,0,.4-.2.7-.3,1,0,.1,0,.2-.1.4l-.2.4-.2.4c-.3.6-.6,1.1-.9,1.7-2.1,4.5-2.9,9.1-2.5,13,.1,2,.8,3.6,1.5,5.2.8,1.4,1.7,2.7,2.8,3.5,1,1,2.1,1.5,3,2.1,1,.4,1.8.9,2.6,1,1.4.4,2.2.7,2.2.9,0,.1-.8,0-2.4-.1-.8,0-1.7-.4-2.8-.8-1.1-.5-2.3-1-3.5-2-1.3-.9-2.4-2.2-3.4-3.8-.9-1.7-1.7-3.6-2-5.8-.7-4.3,0-9.4,2.1-14.4.2-.6.6-1.2.9-1.9l.2-.5c0,0,0,0,0-.2,0-.3.1-.6.2-.9.1-.6.2-1.3.3-1.9,0-.7.1-1.3.2-2,.1-2.7,0-5.6-.2-8.7-.1-3.1-.3-6.4.2-9.8.1-.9.3-1.7.5-2.6.3-.8.6-1.7.9-2.5.7-1.6,1.5-3.3,2.5-4.8,2-3.1,4.8-5.8,8-7.9,3.2-2,6.9-3.6,10.7-4.4,3.8-.9,7.8-1.3,11.8-1.1,4,.2,8.1.8,12,2,2,.6,3.9,1.4,5.8,2.2,1.8.9,3.7,1.9,5.3,3,.9.5,1.6,1.2,2.5,1.8.8.7,1.6,1.3,2.3,2l.5.5.3.3c0,.1.3.2.4.5l.8,1.4c.5.9,1,1.8,1.3,2.7,1.5,3.7,2.1,7.8,2,11.6-.2,3.8-1.1,7.5-2.5,10.9-2.8,6.7-7.5,12.1-13,15.5-1.4.8-2.8,1.6-4.2,2.2,0,0-.2,0-.4.1h-.4c0,.1-.5.2-.5.2-.3.1-.7.2-1,.3-.6.2-1.3.4-1.9.7-2.4,1.1-4.4,2.7-6,4.5-3.2,3.7-5.1,8.2-8.4,11.3-1.6,1.6-3.5,2.6-5.3,3.2-1.8.5-3.5.7-5,.7-3,0-5.3-.6-6.8-.9-1.5-.4-2.2-.7-2.2-.9h0Z"/>
            </g>
            <g>
              <path class="st1" d="M238.3,413.5c-15.3-2.3-15.7-17.4-9.6-28.7,2.3-8.4-1.1-6.3.7-14.8,3.9-18,29.8-15.6,49.5-3.1,14.6,9.2,11.6,19.7-3.7,26-19.1,5-10.5,26.8-36.9,20.6h0Z"/>
              <path class="st3" d="M238.3,413.5c0-.1.7-.1,2,0,1.3.1,3.1.3,5.5.3.3,0,.6,0,.9,0,.3,0,.6,0,.9,0,.6,0,1.3-.2,2-.3,1.4-.3,2.8-.8,4.1-1.6s2.6-2,3.6-3.5c1.1-1.5,2.1-3.2,3.2-5.1s2.4-3.9,4.1-5.8c1.7-1.9,3.9-3.5,6.4-4.7.6-.3,1.3-.5,1.9-.8.6-.2,1.2-.4,1.8-.6,1.2-.5,2.3-1,3.5-1.7,2.3-1.2,4.5-2.7,6.1-4.7,1.7-1.9,2.7-4.2,2.3-6.6-.4-2.4-2-4.7-4.1-6.6-2.1-2-4.7-3.6-7.5-5.1-2.7-1.5-5.6-2.9-8.6-4.1-6-2.3-12.2-3.8-18.1-3.8-2.9,0-5.8.4-8.4,1.4-1.3.5-2.5,1.1-3.5,1.8-1.1.7-2,1.6-2.8,2.6-.4.5-.7,1-1.1,1.6-.3.6-.6,1.1-.8,1.7l-.3.9-.2.9c-.2.6-.3,1.2-.4,1.9-.2,1.2-.4,2.5-.3,3.6,0,.6.1,1.1.2,1.7.1.6.3,1.4.3,2.1.1,1.5-.1,2.9-.4,4.1-.1.7-.3,1.2-.5,1.9,0,.1,0,.2-.1.4l-.2.3-.2.4-.4.8c-1,2-1.8,4.1-2.3,6.1-1.1,4-1,7.8,0,10.9.9,3.1,2.9,5.2,4.7,6.6,1,.6,1.8,1.2,2.7,1.5.8.4,1.5.7,2.1.9,1.2.4,1.8.6,1.8.8s-.7.1-2,0c-.7,0-1.4-.3-2.4-.5-.9-.2-1.9-.8-3.1-1.3-2.2-1.3-4.7-3.6-5.9-7.1-1.3-3.5-1.5-7.8-.6-12.2.4-2.2,1.2-4.5,2.2-6.7l.4-.8.2-.4c0-.1,0,0,0,0,0,0,0,0,0,0,.1-.5.3-1.1.4-1.7.2-1.1.4-2.3.3-3.3,0-.5-.2-1-.3-1.7-.1-.6-.3-1.4-.4-2.1-.1-1.5,0-3,.2-4.4.5-2.8,1.4-5.9,3.4-8.5.9-1.3,2.1-2.5,3.5-3.4,1.3-1,2.8-1.7,4.3-2.3,3.1-1.2,6.4-1.6,9.6-1.7,6.6,0,13.2,1.5,19.5,3.9,3.2,1.2,6.2,2.7,9.1,4.3,2.9,1.6,5.7,3.4,8.1,5.7,1.2,1.1,2.4,2.4,3.3,3.9.9,1.5,1.6,3.1,1.9,4.9.3,1.8,0,3.6-.6,5.3-.6,1.6-1.6,3-2.6,4.2-2.1,2.4-4.7,4-7.2,5.3-1.3.7-2.5,1.2-3.8,1.7,0,0-.3.1-.4.1h-.2c0,0-.4.2-.4.2-.3,0-.6.2-.9.3-.5.2-1.1.4-1.7.6-2.1,1-4,2.2-5.5,3.8-1.5,1.6-2.8,3.4-4,5.2-1.2,1.8-2.3,3.6-3.6,5.2-1.3,1.6-2.8,3-4.5,3.9-1.6.9-3.3,1.4-4.9,1.6-.8,0-1.5.2-2.2.1h-1c-.3,0-.6,0-1,0-2.5-.2-4.3-.7-5.6-1-1.2-.4-1.9-.6-1.8-.8h0Z"/>
            </g>
            <g>
              <path class="st0" d="M59.5,268.3c-4.7,1.1-9.7-1.4-12.5-5.3s-3.6-8.9-3.3-13.7c.3-4.9,1.7-10.1-.2-14.7-1.7-4.2-5.9-7-10.2-8.4-5.4-1.9-11.3-2.1-16.9-.8-6.3,1.4-12.6,5.4-14.2,11.6-1.4,5.4,1.1,11,2.8,16.3,2.1,6.4,3.3,13.2,3.4,20,0,5-.4,10.2.9,15.1,1.7,6.2,6.4,11.4,12.4,13.8,6,2.3,13,1.7,18.4-1.7,3.3-2,6-5,9.7-6.2,1.6-.5,3.2-.7,4.7-1.3,4-1.7,5.9-6.6,5.5-11-.4-4.4-2.7-8.3-5-12"/>
              <path class="st3" d="M55.1,269.8c.1,0,.7.5,1.5,1.8.9,1.2,2.1,3.1,3.2,5.9.5,1.4,1,3,1.2,4.9.1,1.9,0,3.9-.9,6-.8,2-2.3,4.2-4.8,5.4-1.2.6-2.5.9-3.6,1.2-1.2.3-2.2.6-3.2,1.2-2.1,1.1-4,2.9-6.4,4.6-2.4,1.8-5.3,3.1-8.5,3.8-3.2.7-6.6.7-10-.1-3.4-.8-6.7-2.5-9.4-5s-5-5.6-6.3-9.3c-1.3-3.7-1.5-7.6-1.5-11.3,0-3.8,0-7.4-.3-11-.4-3.7-1.1-7.4-2.1-11-1-3.6-2.5-7.2-3.5-11.1-.5-2-.8-4-.7-6.2,0-2.1.7-4.3,1.7-6.1,2-3.8,5.4-6.2,8.9-7.9,1.7-.8,3.5-1.4,5.3-1.8,1.8-.4,3.6-.6,5.4-.8,3.6-.2,7.1.2,10.4,1,3.3.9,6.4,2.3,8.9,4.4,2.6,2.1,4.5,5.1,5,8.1.6,3.1.2,5.9,0,8.5-.3,2.6-.7,4.9-.6,7.1,0,2.2.3,4.3.9,6.1.5,1.8,1.4,3.5,2.3,4.8,1,1.3,2.1,2.3,3.2,3.1,2.3,1.5,4.4,2,5.9,2.1,1.5.1,2.2,0,2.3.1,0,.1-.7.5-2.3.6-1.5.1-4-.1-6.6-1.6-1.3-.8-2.7-1.8-3.9-3.2-1.2-1.4-2.2-3.2-2.9-5.2-.7-2-1.2-4.3-1.3-6.7-.2-2.4.1-5,.4-7.5.2-2.5.4-5.1-.1-7.6-.5-2.4-2-4.6-4.1-6.3-2.2-1.7-4.9-2.9-7.8-3.6-2.9-.7-6.1-1-9.3-.8s-6.4.9-9.4,2.4c-2.9,1.4-5.7,3.5-7.1,6.3-1.5,2.8-1.5,6.2-.7,9.6.8,3.5,2.4,7.1,3.5,11,1.1,3.9,1.8,7.8,2.2,11.7.2,2,.3,3.9.3,5.8,0,1.9,0,3.8,0,5.6,0,3.6.1,7.1,1.2,10.1,1.1,3,2.9,5.8,5.2,7.9,2.3,2.1,5,3.6,7.9,4.3,2.9.7,5.8.8,8.6.3,2.8-.5,5.2-1.6,7.4-3.1,2.2-1.5,4.3-3.4,6.8-4.6,1.2-.6,2.6-1.1,3.9-1.3,1.2-.3,2.3-.5,3.2-.9,1.8-.8,3.1-2.4,3.8-4,.8-1.7,1.1-3.5,1-5.1,0-1.6-.4-3.1-.8-4.5-.8-2.6-1.9-4.6-2.5-6-.7-1.4-1-2.1-.9-2.2h0Z"/>
            </g>
            <path class="st3" d="M94.8,271.9c.1.5-1.6,1.5-4.7,2.5s-7.5,1.9-12.4,2.1c-4.9.2-9.4-.2-12.5-.9-3.2-.7-5-1.5-4.9-2,.2-1.1,7.9-.5,17.3-1,9.4-.4,17-1.8,17.3-.8h0Z"/>
            <g>
              <polygon class="st4" points="47 263 49.9 294.1 66 295.3 66.2 253.7 47 263"/>
              <path class="st3" d="M47,263c-.1-.3,1.6-1.4,4.8-3.3,1.6-.9,3.6-2,5.9-3.2,1.2-.6,2.4-1.3,3.7-1.9.3-.2.7-.3,1-.5.5-.2,1-.5,1.5-.8,1.2-.6,2.5-1.3,3.8-1.9,0,5.4.2,11.5.2,18,0,5.7,0,11.8,0,18.2,0,3.3,0,6.5,0,9.7-3.5-.3-7-.5-10.3-.8-3.2-.3-6.3-.5-9.2-.8-.1-1.6-.3-3.3-.4-4.8,0-1.1-.2-2.2-.2-3.2-.1-2.1-.3-4.1-.4-6-.2-3.8-.4-7.1-.5-9.9-.2-5.5-.2-8.7.2-8.7.4,0,1,3.1,1.8,8.5.4,2.7.8,6,1.3,9.8.4,3.3.8,7.1,1.3,11.1h.1s0,0,0,0h.2c.6,0,1.3,0,1.9.1,1.3,0,2.6.2,4,.2,1.3,0,2.7.2,4.1.3.7,0,1.4,0,2.1.1.1,0,0,0,0,0h0v-5.7c0-6.4,0-12.5.2-18.2,0-2.9.1-5.6.2-8.2,0-1.3,0-2.6,0-3.8v-.5c0-.1,0-.1,0-.1h0s0-.2,0-.2c0-.1,0-.3,0-.4-.2,0-.3.1-.5.1h-.1s-.5.2-.5.2c-.3.1-.7.3-1,.5-1.3.6-2.6,1.1-3.8,1.7-2.4,1-4.5,1.9-6.2,2.6-3.4,1.4-5.4,2-5.6,1.8h0Z"/>
            </g>
            <g>
              <path class="st1" d="M21.8,302.1c0-.2,0-.4.1-.7.6-4.7.3-9.5-.9-14.1-1.7-6.4-5.2-12.2-6.4-18.6-.7-4.1-.6-8.2-.4-12.4.1-4.1.2-8.3-.7-12.3-.9-4-3-7.9-6.4-10.3-.8-.5-1.6-1-2.5-1.3-1,1.4-1.8,2.9-2.2,4.5-1.4,5.4,1.1,11,2.8,16.3,2.1,6.4,3.3,13.2,3.4,20,0,5-.4,10.2.9,15.1,1.7,6.2,6.4,11.4,12.4,13.8h0Z"/>
              <path class="st3" d="M21.8,302.1c0,.1-.6,0-1.6-.3-1-.3-2.4-1-4-2.1-1.6-1.1-3.5-2.8-5.1-5.1-1.6-2.3-3.1-5.4-3.6-9-.6-3.5-.5-7.4-.6-11.4,0-3.9-.5-8.1-1.4-12.4-.4-2.2-1-4.3-1.7-6.5-.7-2.2-1.5-4.4-2.3-6.8-.8-2.4-1.5-5-1.5-7.9,0-1.4.1-2.9.5-4.3.2-.7.5-1.4.8-2.1.2-.3.3-.7.5-1v-.3c.1,0,.4-.4.4-.4.2-.3.4-.5.5-.8l1.1-1.5,1.8.7c.3.1.6.2.9.4.3.1.6.3.7.4.7.4,1.3.8,1.8,1.3,1.1.9,2.1,2,2.9,3.1,1.6,2.3,2.7,4.9,3.2,7.4,1.2,5.1.8,10,.6,14.5-.2,4.4-.3,8.5.6,12.2.8,3.7,2.3,7.1,3.5,10.2,1.2,3.2,2.1,6.2,2.6,8.9.5,2.7.5,5.1.4,7-.2,3.9-.9,5.9-1.2,5.8-.3,0,0-2.1-.3-5.8-.1-1.8-.4-4.1-1-6.6-.6-2.5-1.7-5.3-3-8.4-1.3-3.1-2.9-6.5-4-10.5-1.1-4.1-1.2-8.6-1.1-13,.1-4.5.3-9.1-.7-13.5-.5-2.2-1.4-4.3-2.7-6.1-.6-.9-1.4-1.7-2.2-2.4-.4-.3-.9-.7-1.3-.9-.2,0-.1,0-.1,0h0v.2c-.2.2-.3.5-.5.7-.2.5-.4,1-.6,1.5-.3,1.1-.4,2.1-.4,3.3,0,2.2.6,4.5,1.3,6.8.7,2.3,1.6,4.6,2.2,6.9.7,2.3,1.2,4.7,1.7,6.9.8,4.6,1.1,9,1.1,13.1,0,4.1-.3,7.7,0,11,.4,3.2,1.4,6,2.7,8.2,1.3,2.2,2.9,3.9,4.2,5.1,2.8,2.4,4.8,3.2,4.7,3.5h0Z"/>
            </g>
            <g>
              <path class="st4" d="M279.2,289.9c-116.8,25.2-153.7-39.1-153.7-39.1l7.2-10.2s34.9,61,145.6,37.1l.9,12.2h0Z"/>
              <path class="st3" d="M279.2,289.9c-.1,0-.3-1.2-.6-3.4-.1-1.1-.3-2.5-.5-4.2,0-.8-.2-1.7-.3-2.6,0-.3,0-.6-.1-.9v-.2s-.2,0-.3,0c-.2,0-.3,0-.5.1-.4,0-.8.2-1.2.3-.6.1-1.1.2-1.7.4-1.2.3-2.4.5-3.7.8-.6.1-1.3.3-2,.4-.7.1-1.4.2-2.1.4-1.4.2-2.9.5-4.4.8-6.1,1.1-13.1,1.9-20.8,2.5-7.8.5-16.3.6-25.5,0-9.2-.7-19-2.2-29-5.1-10-2.9-20.2-7.1-29.8-13.2-4.8-3-9.5-6.5-13.8-10.5-2.1-2-4.3-4.1-6.2-6.4-1-1.1-1.9-2.3-2.9-3.5l-.7-.9-.3-.5h0c0-.1-1,1.3-1,1.3-.9,1.2-1.8,2.5-2.6,3.7l-1.2,1.7h0l.2.3.3.4.6.9c.4.6.9,1.2,1.3,1.7.9,1.1,1.8,2.2,2.8,3.3,3.8,4.3,8.1,8.2,12.5,11.6,4.4,3.4,9.1,6.4,13.9,9.1,4.8,2.6,9.6,4.8,14.4,6.7,9.7,3.7,19.4,6,28.5,7.5,1.1.2,2.3.4,3.4.5,1.1.1,2.2.2,3.4.4,2.2.2,4.4.5,6.6.6,2.1.1,4.3.3,6.3.4,2.1,0,4.1,0,6.1.1,2,0,3.9,0,5.8,0,1.9,0,3.7,0,5.5-.1,3.6-.2,6.9-.4,10.1-.6,3.1-.3,6.1-.6,8.7-.9,2.7-.4,5.1-.7,7.3-1,1.1-.1,2.1-.3,3.1-.4,1-.2,1.9-.3,2.7-.5,1.7-.3,3.1-.5,4.3-.7,2.3-.3,3.6-.4,3.6-.3,0,.1-1.1.5-3.4,1.1-1.1.3-2.6.6-4.2,1-.8.2-1.7.4-2.7.6-1,.2-2,.4-3.1.6-2.2.4-4.6.8-7.3,1.3-2.7.4-5.6.8-8.8,1.2-3.1.4-6.6.6-10.1,1-1.8.1-3.6.2-5.6.3-1.9,0-3.9.2-5.9.2h-6.2c-2.1,0-4.2-.2-6.4-.3-2.2,0-4.4-.3-6.7-.5-1.1-.1-2.3-.2-3.4-.3-1.1-.2-2.3-.3-3.5-.5-9.4-1.3-19.3-3.6-29.3-7.3-5-1.9-10-4.1-14.9-6.8-4.9-2.7-9.8-5.8-14.4-9.3-4.6-3.5-9.1-7.5-13.1-12.1-1-1.1-2-2.3-2.9-3.5-.5-.6-.9-1.2-1.4-1.8l-.7-.9-.3-.5-.4-.6c-.4-.6-.8-1.3-1.2-1.9.4-.6.8-1.2,1.2-1.8l1.4-2c.9-1.2,1.7-2.5,2.6-3.7,1.4-2,2.9-4.1,4.3-6.1l1.2,2c.4.7.8,1.3,1.2,1.9l.6.8.3.4.6.9c.9,1.1,1.8,2.2,2.7,3.3,1.9,2.1,3.9,4.2,5.9,6.1,4.2,3.8,8.6,7.2,13.2,10.2,9.2,5.9,19.1,10.1,28.8,13,9.7,2.9,19.2,4.5,28.2,5.3,9,.8,17.4.8,25.1.5,7.7-.4,14.6-1.1,20.7-1.9,1.5-.2,3-.4,4.4-.6.7-.1,1.4-.2,2.1-.3.7-.1,1.3-.2,2-.4,2.7-.5,5.2-.9,7.5-1.3.4,0,.7-.1,1.1-.2h.3s.1,0,.1,0c0,0,.1,0,0,0v.5c0,.7.1,1.4.1,2,0,1,0,1.9.1,2.8,0,1.7.1,3.1.1,4.2,0,2.3,0,3.5-.1,3.5h0Z"/>
            </g>
            <path class="st3" d="M278.3,277.6c.1,0-1,1.5-3,4.1-1,1.3-2.3,2.9-3.8,4.8-1.6,2-3.5,4.3-5.6,6.9-3.7-2.9-8.1-6.3-13-10.1-2.4,4.1-4.9,8.6-7.7,13.4-4.3-3.7-8.9-7.7-13.6-11.9-3.8,4.1-7.8,8.3-11.9,12.7-2.7-4.4-5.5-8.8-8.4-13.4-4.6,3.6-9.4,7.3-14.2,11-.5-1.1-1-2.2-1.5-3.4-1.7-3.8-3.4-7.6-5.1-11.3-4.9,3.1-9.8,6.1-14.5,9.1-2.3-5.9-4.6-11.6-6.7-17-6.6,1.5-12.9,3-18.8,4.3-1.1-6.6-2.2-12.7-3.1-18.2-5.3,1.3-10,2.5-14.2,3.5,0-1.9-.2-3.8-.2-5.5,0-1.5-.1-2.8-.2-4.1,0-2.6-.1-4.7-.2-6.5,0-3.5,0-5.4,0-5.5s.4,1.9.7,5.4c.1,1.8.3,3.9.6,6.5.2,2.3.4,4.9.6,7.9.2,0,.5-.1.8-.2.5-.1,1.1-.3,1.6-.5,1.1-.3,2.3-.6,3.5-1,2.7-.7,5.5-1.5,8.4-2.3,1,5.5,2.2,11.5,3.4,17.9,5.8-1.4,12-2.9,18.5-4.5,2.1,5.2,4.2,10.6,6.5,16.1,4.7-3,9.5-6,14.4-9.1,2.1,4.6,4.1,9.2,6.3,14l.2.4h0c4.7-3.6,9.3-7.2,13.9-10.7,2.8,4.5,5.5,8.9,8.1,13.1,3.9-4.1,7.7-8.1,11.3-11.9,4.7,4.1,9.1,8.1,13.3,11.8,2.7-4.6,5.3-8.9,7.7-12.9,2.7,2.2,5.3,4.4,7.8,6.4,1.1.9,2.1,1.8,3.1,2.6,1,.8,2.2,1.8,2.4,2,1.9-2.1,3.5-4,5-5.6,1.6-1.8,3-3.3,4.1-4.5,2.2-2.5,3.5-3.7,3.6-3.6h0Z"/>
            <g>
              <polygon class="st4" points="132.7 240.6 104 251.1 111.8 264.7 138.8 247.8 132.7 240.6"/>
              <path class="st3" d="M132.7,240.6c.2-.1.9.4,2.1,1.5.6.6,1.3,1.3,2.1,2.1.4.4.9.9,1.3,1.4.7.8,1.5,1.6,2.3,2.6-1.9,1.3-4,2.7-6.4,4.3-1.9,1.3-4,2.7-6.3,4.2-2.3,1.5-4.7,3-7.2,4.7-1.3.8-2.6,1.6-3.9,2.5-1.9,1.2-3.8,2.4-5.7,3.6-.7-1.3-1.5-2.6-2.2-3.9-2.6-4.6-5.2-9.1-7.6-13.3,1.7-.6,3.4-1.2,5.1-1.8,1-.4,2-.7,3-1,1.9-.6,3.8-1.3,5.5-1.9,3.5-1.2,6.6-2.1,9.2-2.9,5.2-1.6,8.3-2.3,8.5-1.9.1.4-2.7,1.9-7.7,4-2.5,1.1-5.5,2.3-8.9,3.7-1.7.7-3.5,1.4-5.4,2.1-.9.4-1.9.8-2.9,1.1l-.8.3h-.2c0,0,0,0,0,0h0s0,0,0,0h0c0,0,0,0,0,0h0s0,.1,0,.1l.4.7c.5.9,1.1,1.9,1.7,2.8,1.1,1.9,2.2,3.9,3.4,5.8l.3.5h0c2.2-1.3,4.3-2.6,6.3-3.8,2.6-1.5,5-3,7.3-4.4,2.3-1.4,4.5-2.6,6.5-3.8,1-.6,2-1.1,2.9-1.6.2-.1.5-.3.7-.4h.3c.2-.2.4-.3.5-.4-.1-.2-.3-.5-.4-.7-.4-.5-.7-1-1.1-1.5-.7-.9-1.2-1.8-1.7-2.5-.9-1.4-1.3-2.2-1.1-2.3h0Z"/>
            </g>
          </g>
          <ellipse class="st6" cx="310.3" cy="106.5" rx="9.9" ry="15.4" transform="translate(170 403) rotate(-83.6)"/>
          <path class="st6" d="M197.8,88.6c3.5-4,11.1-4.7,16.9-1.5,5.8,3.2,7.6,9,4.1,13s-11.1,4.7-16.9,1.5-7.6-9-4.1-13Z"/>
          <ellipse class="st0" cx="253.3" cy="103.4" rx="5.1" ry="8.5" transform="translate(105.8 333.8) rotate(-79.6)"/>
          <path class="st2" d="M231.3,72.3c-.2,0-.4-.4-.4-.9,0-.3,0-.6.1-1,.1-.3.2-.8.5-1.2.2-.4.5-.9.9-1.3.4-.4.8-.8,1.3-1.2,1-.7,2.3-1.4,3.8-1.6s3,0,4.2.4c1.3.5,2.2,1.3,2.8,2.1.6.8.8,1.6.8,2.1,0,.6,0,.9-.3,1-.5.2-1.3-.5-2.4-1.2-.6-.3-1.2-.6-2-.7-.8-.1-1.6-.1-2.6,0-1.9.3-3.4,1.2-4.5,2.1-1.1.8-1.8,1.6-2.3,1.4h0Z"/>
          <path class="st3" d="M141.8,91.4c.4.3.2,1.6-.5,3.6-.6,2.1-1.6,5-2.3,8.5s-.8,7.8.4,12.2c.1.6.3,1.1.4,1.7.2.6.4,1.1.6,1.7.4,1.1,1,2.2,1.5,3.3,1.2,2.2,2.7,4.4,4.4,6.5,1.8,2.1,3.6,4.1,5.6,5.9,1.9,1.8,3.9,3.4,5.9,5,3.9,3,7.7,5.5,10.9,7.6,6.5,4.1,10.6,6.5,10.3,7.5-.3.9-5.3.2-12.7-2.9-3.7-1.6-8-3.7-12.5-6.7-2.2-1.5-4.5-3.1-6.8-5.1-2.3-1.9-4.4-4.1-6.5-6.6-2.1-2.4-3.8-5.2-5.2-7.9-.6-1.4-1.3-2.8-1.7-4.2-.2-.7-.5-1.4-.7-2.1-.1-.7-.3-1.4-.4-2.2-1.1-5.7-.2-11,1.2-14.9,1.5-4,3.3-6.8,4.8-8.5,1.5-1.7,2.5-2.5,3-2.2h0Z"/>
          <g>
            <path class="st4" d="M166.4,78.7c25.5-22.9-36.1-50-38.9,4.5.6,9.2-6.4,11.9-3.2,15.4,5.2,7,14.4,9.4,22.9,11.3,6.7,2,7.5-2.3,8.3-7.7,2-5.4,7.5-18.8,10.9-23.5"/>
            <path class="st3" d="M166.4,78.7c.1.1-.3,1-1.1,2.7s-1.9,4.2-3.2,7.4c-1.3,3.2-2.9,7.1-4.5,11.7-.2.6-.4,1.1-.6,1.7v.4c-.2,0-.1,0-.2.2,0,.3,0,.6-.1,1-.2,1.3-.4,2.7-.9,4.2-.3.7-.6,1.5-1.3,2.2-.6.7-1.5,1.3-2.5,1.6-1.9.6-3.6.2-5.2-.2h.1c-3.9-.8-8.1-1.7-12.3-3.3-2.1-.8-4.3-1.9-6.3-3.2-2-1.4-3.9-3.1-5.5-5.2h.1c-.2,0-.3-.3-.5-.5,0-.1-.2-.2-.2-.3l-.2-.4c-.3-.6-.4-1.3-.4-1.9,0-1.3.5-2.2.9-2.9.8-1.5,1.5-2.7,2.1-4,.6-1.3.9-2.6,1-4,0-.7,0-1.4,0-2.1v-.8s0-.6,0-.6v-1.2c.6-6,1.9-11.9,4.5-17.1,1.3-2.6,3-5,5-7,1-1,2.1-1.9,3.2-2.8,1.1-.8,2.4-1.5,3.6-2.1,5-2.3,10.4-2.6,15.1-1.7,4.7,1,8.8,3.2,11.7,6,3,2.8,4.7,6.5,4.8,9.9.1,3.3-1.1,6.1-2.3,7.9-1.2,1.9-2.5,3-3.4,3.8-.9.7-1.4,1-1.5.9,0,0,.3-.6,1-1.5.7-.9,1.7-2.2,2.6-4,.9-1.8,1.7-4.2,1.4-7-.3-2.8-1.8-5.7-4.5-8-2.6-2.3-6.3-4.2-10.5-4.9-4.1-.7-8.8-.3-13,1.7-4.2,2-7.7,5.8-10,10.4-2.3,4.7-3.5,10.1-4,15.7,0,.7-.1,1.4-.1,2.1,0,.9,0,1.8,0,2.7-.2,1.8-.6,3.5-1.3,5.1-.7,1.6-1.6,3-2.2,4.2-.3.6-.5,1.1-.5,1.4,0,.2,0,.4.3.7h.1c2.5,3.6,6.2,5.9,10.1,7.5,3.9,1.6,7.9,2.6,11.7,3.5h0s0,0,0,0c1.3.4,2.6.6,3.4.4.4,0,.8-.3,1.1-.6.3-.3.6-.8.8-1.3.4-1.1.7-2.3.9-3.5,0-.3.1-.6.2-.9,0,0,0-.5.2-.7l.2-.5c.2-.6.5-1.2.7-1.7,1.9-4.5,3.7-8.4,5.3-11.5s3-5.5,4.1-7.1c1.1-1.6,1.9-2.3,2-2.2h0Z"/>
          </g>
        </g>
        <g>
          <path class="st4" d="M158.6,94.4s25.2-.5,25.5-12.7c.3-12.1-19.5-7.5-26.6-7.7"/>
          <path class="st3" d="M157.5,74c0-.3.9-.5,2.4-.8,1.5-.3,3.8-.7,6.6-1.1,2.8-.3,6.3-.7,10.2-.1,2,.3,4.2.9,6.2,2.5,1,.8,1.8,1.9,2.3,3.2.5,1.2.7,2.6.7,3.8,0,1.3-.2,2.6-.8,3.8-.5,1.2-1.2,2.2-2.1,3.1-1.6,1.7-3.6,2.8-5.4,3.7-3.7,1.6-7.1,2.2-9.9,2.6-5.7.7-9.3.2-9.3-.3,0-.5,3.4-1,8.8-2.3,2.7-.7,5.8-1.6,8.9-3.1,1.5-.8,3-1.8,4.1-3,1.1-1.2,1.8-2.7,1.8-4.4,0-1.8-.5-3.2-1.6-4.2-1.1-1-2.8-1.6-4.4-1.9-3.4-.7-6.7-.6-9.5-.7-2.8,0-5.1,0-6.7-.1-1.6-.1-2.5-.4-2.5-.7h0Z"/>
        </g>
        <path class="st3" d="M383.7,117.9c.5-.2,1.3.8,2.4,2.8,1.1,2,2.2,5.2,2.9,9.3.6,4.1.3,9.5-1.9,14.9-.3.7-.6,1.3-.9,2-.3.7-.7,1.3-1.1,1.9-.7,1.4-1.7,2.5-2.6,3.8-2,2.4-4.2,4.7-6.7,6.6-2.5,2-5.1,3.7-7.7,5.1-2.6,1.4-5.2,2.6-7.7,3.6-5,1.9-9.6,3.2-13.6,3.9-7.9,1.5-12.9,1.2-13,.2-.1-1,4.5-2.5,11.6-5.2,3.6-1.3,7.8-3,12.3-5.1,2.2-1.1,4.5-2.2,6.8-3.6,2.3-1.3,4.5-2.9,6.7-4.6,2.2-1.7,4-3.6,5.7-5.4.7-1,1.6-1.9,2.2-2.9.3-.5.7-1,1-1.5.3-.5.5-1,.8-1.5,2.1-4.1,2.8-8.2,2.9-11.8,0-3.6-.2-6.7-.4-8.8-.2-2.1-.2-3.4.3-3.6h0Z"/>
        <g>
          <path class="st4" d="M362.4,100.3c-20.1-27.7,45.8-41.3,37.1,12.6-2.5,8.8,3.8,13,0,15.8-6.5,5.8-16.1,6.2-24.8,6.2-6.9.5-6.8-3.8-6.5-9.3-.8-5.7-3.4-20-5.8-25.3"/>
          <path class="st3" d="M362.4,100.3c.1,0,.7.8,1.5,2.5.7,1.8,1.6,4.4,2.5,7.8.9,3.4,1.8,7.5,2.7,12.3.1.6.2,1.2.3,1.8v.5c.2.2,0,.6.1.7,0,.3,0,.6,0,.9,0,1.2,0,2.5.2,3.7.1.6.3,1.1.5,1.4.2.4.5.7.9.9.8.4,2.1.5,3.4.4h.1c3.9,0,8.1-.2,12.2-1,4.1-.7,8.2-2.2,11.4-5.1h.1c.3-.4.5-.6.5-.8,0-.2,0-.8-.2-1.4-.4-1.3-1-2.9-1.3-4.6-.3-1.7-.4-3.5-.2-5.3,0-.9.3-1.8.5-2.6.1-.7.2-1.4.3-2.1.7-5.6.7-11.2-.6-16.2-1.3-5-3.9-9.4-7.6-12.3-3.6-2.9-8.1-4.2-12.3-4.4-4.2-.2-8.2.8-11.3,2.6-3.1,1.7-5.2,4.3-6.1,6.9-.9,2.6-.6,5.2,0,7.1.5,2,1.3,3.4,1.8,4.5.5,1,.8,1.6.6,1.6-.1,0-.5-.3-1.3-1.2-.7-.9-1.7-2.3-2.5-4.4-.8-2.1-1.4-4.9-.6-8.2.8-3.2,3.3-6.5,6.8-8.6,3.5-2.2,7.9-3.5,12.7-3.4,4.8,0,10,1.4,14.4,4.8,1.1.8,2.1,1.8,3.1,2.8.9,1.1,1.8,2.2,2.6,3.4,1.5,2.4,2.6,5.1,3.4,7.9,1.5,5.7,1.5,11.7.8,17.7l-.2,1.2v.6c0,0-.1.3-.1.3,0,0,0,.2,0,.2v.2c-.2.7-.4,1.4-.4,2.1-.2,1.4-.1,2.7.2,4.1.3,1.4.7,2.7,1.2,4.3.2.8.5,1.8.3,3.1-.1.6-.4,1.3-.8,1.8l-.3.4c-.1.1-.2.2-.3.3-.2.2-.4.4-.6.6h.1c-1.9,1.6-4.2,2.9-6.4,3.8-2.3.9-4.6,1.5-6.8,1.8-4.5.7-8.8.7-12.8.7h.1c-1.6,0-3.4,0-5.1-.9-.9-.4-1.6-1.2-2.1-2.1-.5-.8-.7-1.7-.8-2.5-.2-1.6-.1-3,0-4.3,0-.3,0-.7,0-1,0-.2,0-.2,0-.2v-.4c-.1-.6-.2-1.2-.3-1.8-.7-4.8-1.4-8.9-2-12.3-.6-3.4-1.2-6.1-1.6-7.9s-.7-2.8-.5-2.8h0Z"/>
        </g>
        <g>
          <path class="st4" d="M369.8,124.2s-24.5-5.8-22.3-17.7c2.2-11.9,20.6-3.2,27.6-1.9"/>
          <path class="st3" d="M375.1,104.5c0,.2-1,.4-2.6.2-1.6-.2-3.8-.7-6.6-1.3-2.7-.6-6-1.3-9.4-1.3-1.7,0-3.4.2-4.7.9-1.3.7-2.1,2-2.5,3.7-.3,1.7,0,3.2.8,4.7.8,1.4,2.1,2.7,3.4,3.8,2.7,2.2,5.6,3.7,8.1,4.9,5,2.4,8.3,3.6,8.1,4.1-.1.5-3.7.2-9.1-1.6-2.7-1-5.9-2.3-9.2-4.6-1.6-1.2-3.2-2.7-4.5-4.7-.6-1-1.1-2.2-1.4-3.5-.3-1.3-.2-2.6,0-3.9.2-1.2.7-2.5,1.5-3.6s1.8-2.1,3-2.6c2.3-1.2,4.6-1.2,6.6-1.1,4,.3,7.3,1.4,10,2.3,2.7.9,4.8,1.8,6.2,2.4,1.4.6,2.2,1,2.2,1.3h0Z"/>
        </g>
      </g>
      <ellipse class="st5" cx="236.4" cy="87" rx="10.7" ry="5.9" transform="translate(50 256.5) rotate(-62.5)"/>
      <path class="st2" d="M289.7,76.1c-.5,0-1-.9-1.8-2-.8-1.1-2.1-2.4-3.8-3.3-.9-.4-1.7-.6-2.5-.7-.8,0-1.5,0-2.1.2-1.2.3-2.2.8-2.6.5-.2-.2-.2-.5,0-1,.2-.5.6-1.2,1.4-1.8.8-.6,1.9-1.1,3.3-1.2,1.3,0,2.8.2,4.1.8,1.3.6,2.4,1.6,3.2,2.6.4.5.7,1,.9,1.5.3.5.4,1,.5,1.5.1.4.1.9.1,1.3,0,.4,0,.7-.1.9-.2.5-.4.8-.6.8h0Z"/>
      <ellipse class="st5" cx="280.9" cy="89" rx="5.9" ry="10.7" transform="translate(-12.1 57.7) rotate(-11.5)"/>
      <g>
        <path class="st0" d="M276.1,112.9c.4,10.8-9.9,20-20.7,20.4-10.8.4-18-8.1-18.4-18.9"/>
        <path class="st3" d="M236.9,114.5c.3,0,.5.8.9,2.3.4,1.5,1.1,3.6,2.3,5.9,1.2,2.3,3.2,4.8,6,6.5,1.4.9,3,1.5,4.8,1.9,1.7.4,3.6.5,5.6.3,3.9-.4,7.4-1.9,10.2-3.9,2.8-1.9,4.9-4.3,6.2-6.6,1.3-2.2,2-4.3,2.4-5.7.3-1.5.5-2.3.8-2.3.2,0,.5.8.6,2.5,0,1.6-.3,4.1-1.5,6.8-1.2,2.7-3.4,5.7-6.5,8.1-1.5,1.2-3.4,2.3-5.4,3.1-2,.9-4.2,1.4-6.5,1.7-4.6.6-9.2-.7-12.6-3-3.4-2.4-5.4-5.5-6.4-8.3-1.1-2.8-1.4-5.2-1.4-6.8,0-1.6.2-2.5.5-2.5h0Z"/>
      </g>
      <g>
        <path class="st7" d="M233.4,111.9c2.5,4.1,10.2,7.2,20,6.8,11.5-.5,19.3-2.6,24.4-8.7"/>
        <path class="st3" d="M277.8,110.1c.2.2,0,.8-.8,1.9-.7,1.1-2.1,2.4-4,3.7-1.9,1.3-4.5,2.4-7.5,3.2-2.9.8-6.2,1.2-9.6,1.5-3.4.2-6.8.2-9.8-.4-3-.6-5.6-1.5-7.7-2.6-2.1-1.1-3.5-2.4-4.3-3.6-.8-1.1-.9-1.9-.7-2,.2-.1.8.3,1.7,1,.9.7,2.4,1.5,4.3,2.2,1.9.7,4.4,1.3,7.1,1.6,1.4.1,2.8.3,4.3.2.8,0,1.5,0,2.3,0,.8,0,1.6,0,2.4-.1,3.3-.2,6.4-.6,9.1-1.1,2.7-.6,5.1-1.3,7-2.2,3.8-1.8,5.7-3.8,6.1-3.4h0Z"/>
      </g>
    </g>
  </g>
</svg>