<?xml version="1.0" encoding="UTF-8"?>
<svg xmlns="http://www.w3.org/2000/svg" viewBox="0 0 161.59 75.92">
  <defs>
    <style>
      .cls-1 {
        fill: #ffd800;
      }

      .cls-2 {
        fill: #f29600;
      }

      .cls-3 {
        fill: #6355a1;
      }

      .cls-4 {
        fill: #00b1bb;
      }

      .cls-5 {
        fill: #fff000;
      }

      .cls-6 {
        fill: #ef8200;
      }

      .cls-7 {
        isolation: isolate;
      }

      .cls-8 {
        mix-blend-mode: multiply;
      }

      .cls-9 {
        fill: #9c9c9d;
      }

      .cls-10 {
        fill: #231815;
      }

      .cls-11 {
        fill: #fff;
      }

      .cls-12 {
        fill: #00b3ec;
      }

      .cls-13 {
        fill: #e96093;
      }

      .cls-14 {
        fill: #e50012;
      }

      .cls-15 {
        fill: #8dc21f;
      }
    </style>
  </defs>
  <g class="cls-7">
    <g id="_レイヤー_2" data-name="レイヤー 2">
      <g id="_背景" data-name="背景">
        <g>
          <g>
            <path class="cls-10" d="M159.89,15.57c-.34-2.13-2.4-2.77-3.28-3.04-.74-.23-1.87-.5-3.06-.5-.82,0-1.51.13-2.08.34-.12-.19-.26-.37-.41-.54-1.09-1.21-2.49-1.44-3.15-1.48-4.26-.43-8.78-.52-11.83-.52-4.62,0-8.34.2-10.11.37-1.14.11-2.53.88-2.98,2.72-.08.34-.14.74-.19,1.26-.06.72-.08,1.64-.11,2.61v.33c-.04,1.05-.05,2.26.06,3.3.19,1.79.81,2.87,1.54,3.51-.18.02-.36.05-.53.07-.39.06-1.13.18-1.84.57-.73-.21-1.6-.37-2.46-.37-.79,0-1.51.14-2.13.39-.66-.2-1.43-.35-2.22-.39.07-.33.13-.7.16-1.11.07-.87.04-1.81.02-2.43,0-.15,0-.28,0-.38-.03-3.47-.66-4.54-.89-4.94-.79-1.34-2.13-1.93-5.01-2.14,0-.06,0-.11,0-.16,0-1.38-.06-2.6-.27-4.03-.12-.78-.4-1.58-.88-2.22h0c-.45-.6-1.64-2.17-7.74-2.17-1.24,0-2.28.05-3.1.15-.92.11-3.35.4-4.14,2.65-.63,1.8-.58,3.88-.55,4.88v.08c.02.54.04,1.08.07,1.6-.36.04-.56.08-.67.1-1.91.36-3.22,1.88-3.34,3.88v.09c-.06.96-.1,1.6-.06,2.91.02.55.12,1.99.2,2.94-.42-.04-.87-.05-1.37-.05-.56,0-1.29.06-1.93.17-.65.11-2.27.37-3.14,1.76,0,0,0,0-.01,0-.09-.09-.19-.18-.28-.27.12-.19.23-.39.31-.61.84-2.1.85-4.26.7-5.71-.09-.87-.39-3.04-1.37-4.32-1.16-1.51-3.14-1.72-5.11-1.72-.41,0-.84.01-1.26.03.02-3.41-.58-5.54-1.93-6.95-1.72-1.8-4.69-1.99-5.88-1.99-1.81,0-3.36.4-4.52,1.15-1.48-.76-3.59-.86-4.55-.86-.56,0-1.11.03-1.63.1-1.38.17-3.27.4-4.65,1.98-1.3,1.48-1.86,3.47-1.71,6.2-.6,0-1.17.02-1.71.05-1.28.07-3.07.29-4.38.93-.87.43-1.56,1.11-2.07,2.02-.15-.33-.33-.65-.54-.92-1.16-1.51-3.14-1.72-5.11-1.72-.41,0-.84.01-1.26.03.02-3.41-.58-5.54-1.93-6.95-1.72-1.8-4.69-1.99-5.88-1.99-1.81,0-3.36.4-4.52,1.15-1.48-.76-3.59-.86-4.55-.86-.56,0-1.11.03-1.63.1-1.38.17-3.27.4-4.65,1.98-1.3,1.48-1.86,3.47-1.71,6.2-.6,0-1.17.02-1.71.05-1.28.07-3.07.29-4.38.93-2.03,1-3.1,3.36-3.1,6.84,0,2.7.81,4.82,2.22,5.82,1.27.9,3.29,1.38,5.85,1.38.71,0,1.47-.04,2.27-.11.17.43.36.78.61,1.12.53.76,1.33,1.28,2.2,1.62-.35,1.04-.51,2.15-.43,3.24.19,2.63.91,5.27,4.96,6.77,2.01.74,4.51.85,5.82.85.86,0,1.71-.05,2.45-.13,1.97-.23,4.46-.73,6.09-2.36.01.41.04.84.08,1.29.21,2.04.39,3.8,2.73,4.83l.04.02c1.42.63,4.44.7,4.47.7h.02c1.96,0,4.04-.17,4.12-.17h.06c4.08-.4,6.62-1.37,7.73-2.98.53-.68,1.41-2.17,1.52-7.48,0,0,0-.01,0-.02.37,2.17,1.44,4.21,4.81,5.46,2.01.74,4.51.85,5.82.85.86,0,1.71-.05,2.45-.13,1.97-.23,4.46-.73,6.09-2.36.01.41.04.84.08,1.29.21,2.04.39,3.8,2.73,4.83l.04.02c1.42.63,4.44.7,4.47.7h.02c1.96,0,4.04-.17,4.12-.17h.06c4.08-.4,6.62-1.37,7.73-2.98.42-.53,1.04-1.55,1.35-4.49.03,0,.05,0,.08,0,.06.78.16,1.6.32,2.36.66,3.07,3.81,3.37,4.99,3.48.62.06,1.22.09,1.86.09h0c.74,0,1.39-.04,2.02-.07h.12c1.51-.09,2.66-.29,3.36-.44,1.1-.23,2.77-.58,3.39-2.38.27-.78.38-1.93.41-3.13.38-.04.71-.08,1.01-.12-.04.7-.02,1.47.07,2.31.21,2.04.39,3.8,2.73,4.83l.04.02c1.42.63,4.44.7,4.47.7h.02c1.96,0,4.04-.17,4.12-.17h.06c4.08-.4,6.62-1.37,7.73-2.98.06-.08.12-.16.19-.26.07.08.15.16.22.23.95.98,2.25,2.1,3.94,2.1.89,0,1.74-.32,2.4-.91,1.46-1.31,3.16-3.34,4.54-5.1,1.01,1.4,1.75,2.44,2.37,3.21.71.88,1.89,2.36,3.79,2.36h0c.39,0,.76-.06,1.13-.19,1.6-.55,3.22-1.39,4.57-2.37,1.46-1.06,3.09-2.55,2.7-4.66-.26-1.41-1.09-2.93-5.04-7.65.05.02.11.04.16.05.73.22,1.61.33,2.6.33h0c.72,0,1.47-.06,2.1-.17,2.36-.4,3.11-1.73,3.33-2.76.5-2.37.2-10.03.03-11.09ZM54.22,31.72c-.02-.5-.06-1.01-.1-1.51.14.07.28.13.43.19-.14.43-.25.87-.33,1.32ZM132.29,26.33c-.19.2-.38.4-.57.59-.21-.75-.6-1.32-1.06-1.74.76.03,1.64.06,2.66.09-.35.36-.69.72-1.03,1.06Z"/>
            <path class="cls-10" d="M118.94,47.06c-.06,0-3.32-.05-5.08-.83-1.83-.81-2.69-2.01-3.12-3.29-1.11,1.32-2.75,1.67-3.65,1.86-.75.16-1.97.37-3.58.46h-.12c-1.28.08-2.7.12-4.09,0-2.38-.23-4.12-.99-5.18-2.28-.1.15-.19.27-.28.39-1.34,1.94-4.13,3.08-8.73,3.52-.18.01-2.3.18-4.32.18-.06,0-3.32-.05-5.08-.83-2.58-1.14-3.22-3.07-3.49-4.87-1.6.76-3.35,1.06-4.7,1.21-.8.09-1.71.14-2.62.14-1.41,0-4.11-.12-6.33-.94-1.33-.49-2.42-1.12-3.29-1.9-.37,1.92-.91,2.86-1.39,3.48-1.34,1.94-4.13,3.08-8.73,3.52-.11,0-2.27.18-4.32.18-.06,0-3.32-.05-5.08-.83-2.58-1.14-3.23-3.07-3.49-4.87-1.6.76-3.35,1.06-4.69,1.21-.8.09-1.71.14-2.62.14-1.41,0-4.11-.12-6.33-.94-4.86-1.8-5.71-5.24-5.91-8.03-.06-.84,0-1.71.17-2.57-.7-.43-1.26-.95-1.69-1.57-.1-.14-.2-.28-.29-.43-.48.03-.95.04-1.4.04-2.86,0-5.17-.57-6.69-1.64-1.8-1.28-2.83-3.83-2.83-7,0-5.14,2.13-7.26,3.91-8.14,1.23-.6,2.89-.97,4.95-1.08.11,0,.21-.01.32-.02.1-2.38.79-4.27,2.08-5.74,1.75-1.99,4.04-2.27,5.56-2.46.58-.07,1.19-.11,1.81-.11,1.04,0,2.88.1,4.47.69,1.29-.64,2.86-.98,4.6-.98,1.38,0,4.82.24,6.93,2.44,1.42,1.48,2.15,3.51,2.3,6.48,1.94.01,4.06.25,5.57,1.68.41-.37.86-.67,1.36-.92,1.23-.6,2.89-.97,4.95-1.08.11,0,.21-.01.32-.02.1-2.38.79-4.27,2.08-5.74,1.75-1.99,4.04-2.27,5.56-2.46.58-.07,1.19-.11,1.81-.11,1.04,0,2.88.1,4.47.69,1.29-.64,2.86-.98,4.6-.98,1.38,0,4.82.24,6.93,2.44,1.42,1.48,2.15,3.51,2.3,6.48,2.19.01,4.6.32,6.11,2.29,1.16,1.52,1.54,3.82,1.66,5.06.1.99.13,2.29-.08,3.69.34-.09.63-.13.82-.16.64-.1,1.36-.17,1.96-.18-.04-.56-.07-1.09-.08-1.39-.04-1.37,0-2.06.05-3.03v-.11c.15-2.44,1.71-4.42,3.96-5.08,0-.12,0-.24-.01-.37-.03-1.17-.09-3.42.63-5.47,1.08-3.11,4.29-3.49,5.34-3.61.87-.1,1.97-.16,3.27-.16,6.05,0,7.93,1.47,8.9,2.75.75,1,1.04,2.12,1.15,2.88.17,1.1.24,2.08.27,3.09,2.16.3,3.81.98,4.83,2.72.49.84,1.06,2.24,1.09,5.66v.26c.02.64.05,1.54,0,2.42.19.04.37.08.53.12.68-.21,1.41-.32,2.18-.33.87,0,1.69.13,2.32.29.04-.02.08-.03.12-.05-.3-.7-.5-1.51-.59-2.41-.12-1.11-.11-2.39-.08-3.49v-.33c.03-1.01.06-1.93.12-2.68.05-.6.12-1.08.22-1.49.63-2.57,2.69-3.66,4.25-3.81,1.81-.17,5.57-.37,10.25-.37,3.08,0,7.66.09,11.98.53.86.05,2.56.37,3.95,1.82.49-.09,1-.14,1.54-.14,1.37,0,2.66.31,3.49.57.94.29,3.8,1.18,4.28,4.2.18,1.16.51,8.98-.04,11.61-.26,1.21-1.18,3.33-4.51,3.9-.54.09-1.15.15-1.76.18,2.3,2.95,2.88,4.23,3.12,5.58.6,3.28-2.22,5.32-3.28,6.09-1.46,1.06-3.21,1.97-4.94,2.57-.52.18-1.05.27-1.6.27-2.6,0-4.17-1.96-4.93-2.9-.38-.47-.81-1.05-1.3-1.72-1.34,1.62-2.51,2.89-3.51,3.79-.92.83-2.12,1.29-3.37,1.29-1.69,0-3.04-.81-4.06-1.67-1.53,1.36-4.1,2.2-7.88,2.57-.11,0-2.27.18-4.32.18ZM111.61,36.3c.36,0,.71.13.98.38.32.29.49.72.47,1.15-.04.63-.01,1.33.06,2.08.22,2.11.37,2.99,1.87,3.65.93.41,3.06.58,3.95.6,1.93,0,3.98-.17,4-.17,4.5-.43,6.13-1.52,6.72-2.36.09-.12.13-.17.17-.23.24-.37.64-.61,1.09-.65.45-.05.88.13,1.18.45l.21.22c.74.77,1.75,1.66,2.89,1.66.53,0,1.04-.19,1.43-.54,1.14-1.03,2.66-2.73,4.37-4.92.28-.36.71-.53,1.17-.56.46,0,.88.23,1.15.61.95,1.32,1.72,2.39,2.32,3.14.77.96,1.55,1.82,2.66,1.82.22,0,.44-.04.65-.11,1.47-.51,2.96-1.28,4.19-2.17,1.68-1.22,2.32-2.18,2.13-3.22-.2-1.11-1.01-2.55-4.72-6.98-.42-.5-.45-1.21-.09-1.75s1.04-.77,1.65-.57l.12.04c.59.18,1.33.27,2.18.27.64,0,1.3-.05,1.86-.15,1.88-.32,2.09-1.31,2.16-1.63.44-2.07.18-9.51.02-10.56h0c-.16-1.03-1.03-1.5-2.27-1.88-1.02-.32-2.95-.64-4.21-.19-.63.23-1.34,0-1.71-.57-.08-.13-.17-.25-.27-.36-.72-.8-1.66-.97-2.16-1-4.26-.43-8.73-.52-11.74-.52-4.57,0-8.23.19-9.97.36-.31.03-1.37.24-1.71,1.62-.06.26-.11.59-.15,1.03-.05.67-.08,1.55-.1,2.48v.37c-.04,1-.05,2.16.06,3.1.13,1.2.49,2.07,1.06,2.57.43.38.6.98.43,1.52s-.65.94-1.22,1.01c-.16.02-.32.04-.48.07-.33.05-.88.14-1.39.41-.33.18-.72.22-1.09.12-.5-.14-1.26-.31-2.06-.31-.58,0-1.11.1-1.58.29-.31.12-.64.14-.96.05-.44-.13-1.12-.29-1.87-.33-.43-.02-.83-.23-1.09-.57-.26-.34-.36-.78-.26-1.2.06-.28.11-.58.13-.9.06-.8.04-1.69.02-2.28v-.41c-.03-2.05-.26-3.47-.7-4.22-.37-.63-.95-1.22-3.87-1.43-.76-.06-1.34-.69-1.34-1.45v-.16c0-1.32-.05-2.47-.26-3.82-.09-.61-.3-1.17-.6-1.56-.8-1.06-3.01-1.6-6.58-1.6-1.18,0-2.17.05-2.93.14-1.21.14-2.51.46-2.94,1.68-.54,1.55-.49,3.44-.47,4.35.02.61.04,1.14.07,1.64.04.77-.52,1.45-1.29,1.53-.29.03-.46.06-.56.08-1.26.24-2.08,1.21-2.16,2.54l-1.46.02,1.45.09c-.06.95-.09,1.53-.05,2.76.02.5.11,1.91.2,2.86.04.43-.12.85-.42,1.15-.3.3-.72.47-1.15.42-.38-.03-.8-.05-1.25-.05s-1.14.06-1.7.15c-.52.08-1.62.26-2.14,1.1-.32.51-.95.78-1.54.65-.29-.06-.55-.2-.75-.41-.07-.07-.14-.13-.21-.19-.53-.48-.64-1.27-.25-1.87.07-.11.13-.23.19-.36.73-1.83.73-3.74.61-5.02-.12-1.21-.46-2.78-1.08-3.58-.62-.82-1.77-1.15-3.96-1.15-.39,0-.8.01-1.2.03-.42,0-.78-.13-1.07-.41-.29-.28-.45-.66-.44-1.05.02-2.98-.45-4.81-1.53-5.94-1.37-1.43-4.05-1.55-4.83-1.55-1.51,0-2.8.32-3.74.92-.44.28-.99.3-1.45.07-.84-.43-2.29-.7-3.88-.7-.5,0-.99.03-1.45.09-1.28.16-2.72.34-3.74,1.5-1.04,1.19-1.47,2.83-1.35,5.16.02.4-.12.79-.39,1.07-.27.29-.65.45-1.05.45-.58,0-1.12.02-1.63.04-1.61.09-2.97.37-3.82.78-.6.3-1.07.76-1.45,1.42-.27.48-.75.77-1.33.74-.55-.02-1.03-.35-1.26-.85-.12-.26-.24-.47-.37-.64-.62-.81-1.77-1.15-3.96-1.15-.39,0-.8.01-1.2.03-.42,0-.78-.13-1.07-.41-.29-.28-.45-.66-.44-1.05.02-2.98-.45-4.81-1.53-5.94-1.37-1.43-4.05-1.55-4.83-1.55-1.51,0-2.8.32-3.74.92-.44.28-.99.3-1.45.07-.84-.43-2.29-.7-3.88-.7-.5,0-.99.03-1.45.09-1.28.16-2.72.34-3.74,1.5-1.05,1.19-1.47,2.83-1.35,5.16.02.4-.12.79-.39,1.07-.27.29-.65.45-1.05.45-.58,0-1.12.02-1.63.04-1.61.09-2.97.37-3.82.78-1.89.93-2.29,3.52-2.29,5.53,0,2.19.6,3.92,1.61,4.64,1.31.93,3.85,1.3,7.14,1.01.66-.06,1.25.32,1.48.92.12.3.25.55.43.8.33.48.85.85,1.56,1.13.72.28,1.09,1.08.84,1.81-.3.88-.42,1.8-.36,2.67.18,2.62.9,4.36,4.02,5.51,1.79.67,4.1.76,5.32.76.8,0,1.59-.04,2.28-.12,1.6-.19,3.88-.59,5.23-1.94.41-.41,1.03-.54,1.56-.32.54.21.9.73.91,1.31,0,.37.03.76.08,1.18.22,2.1.37,2.99,1.87,3.65.93.41,3.06.58,3.95.6,1.93,0,3.98-.17,4-.17,4.5-.43,6.13-1.52,6.72-2.36.79-1,1.19-3.22,1.26-6.68.01-.75.6-1.37,1.34-1.43.74-.07,1.41.45,1.54,1.19.28,1.61.94,3.25,3.88,4.34,1.79.67,4.1.76,5.32.76.8,0,1.59-.04,2.28-.12,1.6-.19,3.88-.59,5.23-1.94.41-.41,1.03-.54,1.56-.32.54.21.9.73.91,1.31,0,.37.03.76.08,1.17.22,2.11.37,2.99,1.87,3.65.93.41,3.06.58,3.95.6,1.9,0,3.98-.17,4.01-.17,4.5-.43,6.13-1.52,6.71-2.36.24-.31.81-1.03,1.1-3.81.08-.78.73-1.35,1.55-1.3.72.05,1.37.63,1.42,1.34.06.82.16,1.54.29,2.16.38,1.78,2.01,2.17,3.71,2.34,1.25.12,2.53.08,3.62.01h.15c1.42-.09,2.5-.27,3.15-.41,1.15-.24,1.99-.49,2.32-1.43.13-.38.3-1.16.33-2.69.02-.73.58-1.34,1.3-1.41.36-.04.67-.07.95-.11.07,0,.14-.01.21-.01ZM54.22,33.17s-.06,0-.09,0c-.74-.04-1.33-.64-1.36-1.38-.02-.48-.05-.97-.1-1.45-.04-.52.19-1.02.62-1.32.43-.3.98-.34,1.45-.12.11.05.22.1.34.15.72.28,1.09,1.08.84,1.82-.12.35-.21.72-.27,1.09-.12.7-.73,1.21-1.43,1.21ZM131.72,28.37c-.12,0-.24-.01-.36-.04-.51-.13-.9-.52-1.04-1.02-.12-.42-.33-.77-.64-1.05-.45-.41-.6-1.06-.37-1.63.23-.57.76-.93,1.41-.9.75.03,1.62.06,2.63.08.58.01,1.09.37,1.31.9.22.53.1,1.15-.3,1.56l-1.03,1.06s0,0,0,0l-.57.59c-.28.29-.66.45-1.05.45Z"/>
          </g>
          <g>
            <g>
              <path class="cls-10" d="M159.89,12.82c-.34-2.13-2.4-2.77-3.28-3.04-.74-.23-1.87-.5-3.06-.5-.82,0-1.51.13-2.08.34-.12-.19-.26-.37-.41-.54-1.09-1.21-2.49-1.44-3.15-1.48-4.26-.43-8.78-.52-11.83-.52-4.62,0-8.34.2-10.11.37-1.14.11-2.53.88-2.98,2.72-.08.34-.14.74-.19,1.26-.06.72-.08,1.64-.11,2.61v.33c-.04,1.05-.05,2.26.06,3.3.19,1.79.81,2.87,1.54,3.51-.18.02-.36.05-.53.07-.39.06-1.13.18-1.84.57-.73-.21-1.6-.37-2.46-.37-.79,0-1.51.14-2.13.39-.66-.2-1.43-.35-2.22-.39.07-.33.13-.7.16-1.11.07-.87.04-1.81.02-2.43,0-.15,0-.28,0-.38-.03-3.47-.66-4.54-.89-4.94-.79-1.34-2.13-1.93-5.01-2.14,0-.06,0-.11,0-.16,0-1.38-.06-2.6-.27-4.03-.12-.78-.4-1.58-.88-2.22h0c-.45-.6-1.64-2.17-7.74-2.17-1.24,0-2.28.05-3.1.15-.92.11-3.35.4-4.14,2.65-.63,1.8-.58,3.88-.55,4.88v.08c.02.54.04,1.08.07,1.6-.36.04-.56.08-.67.1-1.91.36-3.22,1.88-3.34,3.88v.09c-.06.96-.1,1.6-.06,2.91.02.55.12,1.99.2,2.94-.42-.04-.87-.05-1.37-.05-.56,0-1.29.06-1.93.17-.65.11-2.27.37-3.14,1.76,0,0,0,0-.01,0-.09-.09-.19-.18-.28-.27.12-.19.23-.39.31-.61.84-2.1.85-4.26.7-5.71-.09-.87-.39-3.04-1.37-4.32-1.16-1.51-3.14-1.72-5.11-1.72-.41,0-.84.01-1.26.03.02-3.41-.58-5.54-1.93-6.95-1.72-1.8-4.69-1.99-5.88-1.99-1.81,0-3.36.4-4.52,1.15-1.48-.76-3.59-.86-4.55-.86-.56,0-1.11.03-1.63.1-1.38.17-3.27.4-4.65,1.98-1.3,1.48-1.86,3.47-1.71,6.2-.6,0-1.17.02-1.71.05-1.28.07-3.07.29-4.38.93-.87.43-1.56,1.11-2.07,2.02-.15-.33-.33-.65-.54-.92-1.16-1.51-3.14-1.72-5.11-1.72-.41,0-.84.01-1.26.03.02-3.41-.58-5.54-1.93-6.95-1.72-1.8-4.69-1.99-5.88-1.99-1.81,0-3.36.4-4.52,1.15-1.48-.76-3.59-.86-4.55-.86-.56,0-1.11.03-1.63.1-1.38.17-3.27.4-4.65,1.98-1.3,1.48-1.86,3.47-1.71,6.2-.6,0-1.17.02-1.71.05-1.28.07-3.07.29-4.38.93-2.03,1-3.1,3.36-3.1,6.84,0,2.7.81,4.82,2.22,5.82,1.27.9,3.29,1.38,5.85,1.38.71,0,1.47-.04,2.27-.11.17.43.36.78.61,1.12.53.76,1.33,1.28,2.2,1.62-.35,1.04-.51,2.15-.43,3.24.19,2.63.91,5.27,4.96,6.77,2.01.74,4.51.85,5.82.85.86,0,1.71-.05,2.45-.13,1.97-.23,4.46-.73,6.09-2.36.01.41.04.84.08,1.29.21,2.04.39,3.8,2.73,4.83l.04.02c1.42.63,4.44.7,4.47.7h.02c1.96,0,4.04-.17,4.12-.17h.06c4.08-.4,6.62-1.37,7.73-2.98.53-.68,1.41-2.17,1.52-7.48,0,0,0-.01,0-.02.37,2.17,1.44,4.21,4.81,5.46,2.01.74,4.51.85,5.82.85.86,0,1.71-.05,2.45-.13,1.97-.23,4.46-.73,6.09-2.36.01.41.04.84.08,1.29.21,2.04.39,3.8,2.73,4.83l.04.02c1.42.63,4.44.7,4.47.7h.02c1.96,0,4.04-.17,4.12-.17h.06c4.08-.4,6.62-1.37,7.73-2.98.42-.53,1.04-1.55,1.35-4.49.03,0,.05,0,.08,0,.06.78.16,1.6.32,2.36.66,3.07,3.81,3.37,4.99,3.48.62.06,1.22.09,1.86.09h0c.74,0,1.39-.04,2.02-.07h.12c1.51-.09,2.66-.29,3.36-.44,1.1-.23,2.77-.58,3.39-2.38.27-.78.38-1.93.41-3.13.38-.04.71-.08,1.01-.12-.04.7-.02,1.47.07,2.31.21,2.04.39,3.8,2.73,4.83l.04.02c1.42.63,4.44.7,4.47.7h.02c1.96,0,4.04-.17,4.12-.17h.06c4.08-.4,6.62-1.37,7.73-2.98.06-.08.12-.16.19-.26.07.08.15.16.22.23.95.98,2.25,2.1,3.94,2.1.89,0,1.74-.32,2.4-.91,1.46-1.31,3.16-3.34,4.54-5.1,1.01,1.4,1.75,2.44,2.37,3.21.71.88,1.89,2.36,3.79,2.36h0c.39,0,.76-.06,1.13-.19,1.6-.55,3.22-1.39,4.57-2.37,1.46-1.06,3.09-2.55,2.7-4.66-.26-1.41-1.09-2.93-5.04-7.65.05.02.11.04.16.05.73.22,1.61.33,2.6.33h0c.72,0,1.47-.06,2.1-.17,2.36-.4,3.11-1.73,3.33-2.76.5-2.37.2-10.03.03-11.09ZM54.22,28.98c-.02-.5-.06-1.01-.1-1.51.14.07.28.13.43.19-.14.43-.25.87-.33,1.32ZM132.29,23.58c-.19.2-.38.4-.57.59-.21-.75-.6-1.32-1.06-1.74.76.03,1.64.06,2.66.09-.35.36-.69.72-1.03,1.06Z"/>
              <path class="cls-10" d="M118.94,44.32c-.06,0-3.32-.05-5.08-.83-1.85-.81-2.7-2-3.13-3.28-1.11,1.32-2.74,1.66-3.63,1.85-.75.16-1.99.37-3.58.46h-.12c-1.27.08-2.68.12-4.09,0-2.39-.23-4.12-.99-5.18-2.28-.1.15-.19.27-.28.39-1.34,1.94-4.13,3.08-8.73,3.52-.18.01-2.3.18-4.32.18-.06,0-3.32-.05-5.08-.83-2.58-1.14-3.22-3.07-3.49-4.87-1.6.76-3.35,1.06-4.7,1.21-.8.09-1.71.14-2.62.14-1.41,0-4.11-.12-6.33-.94-1.33-.49-2.42-1.12-3.29-1.9-.37,1.92-.91,2.86-1.39,3.48-1.34,1.94-4.13,3.08-8.73,3.52-.11,0-2.27.18-4.32.18-.06,0-3.32-.05-5.08-.83-2.58-1.14-3.23-3.07-3.49-4.87-1.6.76-3.35,1.06-4.69,1.21-.8.09-1.71.14-2.62.14-1.41,0-4.11-.12-6.33-.94-4.86-1.8-5.71-5.24-5.91-8.03-.06-.84,0-1.71.17-2.57-.7-.43-1.26-.95-1.69-1.57-.1-.14-.2-.28-.29-.43-3.54.2-6.33-.36-8.09-1.6-1.8-1.28-2.83-3.83-2.83-7,0-5.14,2.13-7.26,3.91-8.14,1.53-.75,3.54-1,4.95-1.08.11,0,.21-.01.32-.02.1-2.38.79-4.27,2.08-5.74,1.75-1.99,4.05-2.27,5.56-2.46.58-.07,1.19-.11,1.81-.11,1.04,0,2.88.1,4.47.69,1.29-.64,2.87-.98,4.6-.98,1.38,0,4.82.24,6.93,2.44,1.42,1.48,2.15,3.51,2.3,6.48,1.94.01,4.06.25,5.57,1.68.41-.37.86-.67,1.36-.92,1.53-.75,3.54-1,4.95-1.08.11,0,.21-.01.32-.02.1-2.38.79-4.27,2.08-5.74,1.75-1.99,4.05-2.27,5.57-2.46.58-.07,1.19-.11,1.81-.11,1.04,0,2.88.1,4.47.69,1.29-.64,2.87-.98,4.6-.98,1.38,0,4.82.24,6.93,2.44,1.42,1.48,2.15,3.51,2.3,6.48,2.19.01,4.6.32,6.11,2.29,1.16,1.52,1.54,3.82,1.66,5.06.1.99.13,2.29-.08,3.69.34-.09.63-.13.82-.16.64-.1,1.35-.17,1.96-.18-.04-.56-.07-1.09-.08-1.39-.04-1.37,0-2.07.05-3.03v-.11c.15-2.44,1.71-4.42,3.96-5.08,0-.12,0-.24-.01-.37-.03-1.17-.09-3.42.63-5.47,1.08-3.11,4.29-3.49,5.34-3.61.88-.1,1.98-.16,3.27-.16,6.05,0,7.93,1.47,8.9,2.75.75,1,1.04,2.12,1.15,2.88.17,1.1.24,2.08.27,3.09,2.16.3,3.81.98,4.83,2.72.49.84,1.06,2.24,1.09,5.66v.26c.02.64.05,1.54,0,2.42.19.04.37.08.53.12,1.45-.46,3.3-.32,4.5-.04.04-.02.08-.03.12-.05-.3-.7-.49-1.51-.59-2.41-.12-1.11-.11-2.39-.08-3.49v-.33c.03-1.01.06-1.93.12-2.68.05-.6.12-1.07.22-1.49.63-2.58,2.69-3.66,4.25-3.81,1.81-.17,5.57-.37,10.25-.37,3.08,0,7.66.09,11.98.53.85.05,2.56.37,3.95,1.82.49-.09,1-.14,1.54-.14,1.38,0,2.66.31,3.49.57.94.29,3.8,1.18,4.28,4.2.18,1.16.51,8.98-.04,11.61-.26,1.21-1.18,3.33-4.51,3.9-.54.09-1.15.15-1.76.18,2.3,2.95,2.88,4.23,3.12,5.58.6,3.28-2.22,5.32-3.28,6.09-1.46,1.06-3.22,1.97-4.94,2.57-.51.18-1.05.27-1.6.27-2.6,0-4.17-1.96-4.93-2.9-.38-.47-.8-1.04-1.3-1.72-1.33,1.62-2.51,2.89-3.51,3.79-.92.83-2.12,1.29-3.37,1.29-1.69,0-3.04-.81-4.06-1.67-1.54,1.37-4.1,2.2-7.88,2.57-.11,0-2.27.18-4.32.18ZM111.61,33.56c.36,0,.71.13.98.38.32.29.49.72.47,1.15-.04.63-.01,1.33.06,2.08.22,2.1.37,2.99,1.87,3.65.93.41,3.06.58,3.95.6,1.93,0,3.98-.17,4-.17,4.5-.43,6.13-1.52,6.72-2.36.09-.12.13-.17.17-.24.24-.37.64-.61,1.09-.65.45-.04.88.13,1.18.45l.21.22c.74.77,1.75,1.66,2.89,1.66.53,0,1.04-.19,1.43-.54,1.15-1.03,2.66-2.73,4.37-4.92.28-.36.67-.58,1.17-.56.46,0,.88.23,1.15.6.99,1.38,1.73,2.4,2.32,3.14.77.96,1.55,1.82,2.66,1.82.22,0,.44-.04.65-.11,1.47-.51,2.96-1.28,4.19-2.17,1.68-1.22,2.31-2.18,2.13-3.22-.2-1.1-1.01-2.54-4.72-6.98-.41-.49-.45-1.2-.09-1.73.35-.54,1.02-.77,1.64-.58l-.24,1.23.03-.02.34-1.17c.62.18,1.35.27,2.21.27.64,0,1.3-.05,1.86-.15,1.88-.32,2.09-1.31,2.16-1.63.44-2.07.18-9.51.02-10.56h0c-.16-1.03-1.03-1.5-2.27-1.89-1.02-.32-2.96-.64-4.21-.19-.64.23-1.34,0-1.71-.58-.08-.12-.17-.24-.27-.35-.72-.8-1.67-.98-2.16-1.01-4.26-.43-8.73-.52-11.74-.52-4.57,0-8.23.19-9.97.36-.31.03-1.37.24-1.71,1.62-.07.26-.11.59-.15,1.04-.05.67-.08,1.55-.1,2.48v.38c-.04,1-.05,2.16.06,3.1.13,1.2.49,2.07,1.06,2.57.43.38.6.98.43,1.52s-.65.94-1.22,1.01c-.16.02-.32.04-.47.07-.31.05-.89.14-1.39.41-.33.18-.72.22-1.09.12-.86-.25-2.53-.48-3.64-.03-.31.12-.64.14-.96.05-.44-.13-1.12-.29-1.87-.33-.43-.02-.83-.23-1.09-.57-.26-.34-.36-.78-.26-1.2.06-.28.11-.58.13-.9.06-.8.04-1.73.02-2.28v-.41c-.03-2.05-.26-3.47-.7-4.22-.37-.63-.95-1.22-3.87-1.43-.76-.06-1.34-.69-1.34-1.45v-.16c0-1.31-.05-2.47-.26-3.82-.09-.61-.31-1.17-.6-1.56-.8-1.06-3.01-1.59-6.58-1.59-1.18,0-2.17.05-2.93.14-1.21.14-2.51.46-2.94,1.68-.54,1.55-.49,3.44-.47,4.35.02.61.04,1.14.07,1.64.04.77-.52,1.44-1.29,1.53-.29.03-.46.06-.56.08-1.26.24-2.09,1.21-2.17,2.54l-1.46.02,1.45.08c-.06.95-.09,1.53-.05,2.76.02.5.11,1.91.2,2.86.04.43-.12.85-.42,1.15s-.72.46-1.15.42c-.38-.03-.79-.05-1.25-.05-.48,0-1.15.06-1.69.15-.53.08-1.62.26-2.14,1.1-.33.54-.97.79-1.58.64-.26-.07-.51-.2-.7-.4-.07-.07-.14-.13-.21-.19-.54-.47-.65-1.27-.26-1.87.07-.11.13-.23.19-.36.73-1.83.73-3.74.61-5.02-.12-1.21-.46-2.78-1.08-3.58-.62-.82-1.77-1.15-3.96-1.15-.39,0-.8.01-1.2.03-.4.02-.78-.13-1.07-.41-.29-.28-.45-.66-.44-1.06.02-2.98-.45-4.81-1.53-5.94-1.37-1.43-4.05-1.55-4.83-1.55-1.51,0-2.8.32-3.74.92-.44.28-.99.3-1.45.07-.84-.44-2.29-.7-3.88-.7-.5,0-.99.03-1.45.09-1.28.16-2.72.33-3.74,1.5-1.04,1.19-1.47,2.83-1.35,5.16.02.4-.12.78-.39,1.07s-.65.45-1.05.46c-.58,0-1.12.02-1.63.05-1.61.09-2.97.37-3.82.78-.6.29-1.07.76-1.45,1.42-.27.48-.79.76-1.33.74-.55-.02-1.03-.35-1.26-.85-.12-.26-.24-.47-.37-.64-.63-.82-1.77-1.15-3.96-1.15-.39,0-.8.01-1.2.03-.4.02-.78-.13-1.07-.41-.29-.28-.45-.66-.44-1.06.02-2.98-.45-4.81-1.53-5.94-1.37-1.43-4.05-1.55-4.83-1.55-1.51,0-2.8.32-3.74.92-.44.28-.99.3-1.45.07-.84-.44-2.29-.7-3.88-.7-.5,0-.99.03-1.45.09-1.28.16-2.72.33-3.74,1.5-1.05,1.19-1.47,2.83-1.35,5.16.02.4-.12.78-.39,1.07s-.65.45-1.05.46c-.57,0-1.12.02-1.63.05-1.61.09-2.97.37-3.82.78-1.89.93-2.29,3.52-2.29,5.53,0,2.19.6,3.92,1.61,4.64,1.31.93,3.91,1.29,7.14,1.01.66-.05,1.25.32,1.48.92.12.31.25.55.43.79.33.48.85.85,1.56,1.13.72.28,1.09,1.08.84,1.81-.3.88-.42,1.8-.36,2.67.18,2.62.9,4.36,4.02,5.51,1.79.67,4.1.76,5.32.76.8,0,1.59-.04,2.28-.12,1.6-.19,3.88-.59,5.23-1.94.41-.41,1.03-.54,1.56-.32.54.21.9.73.91,1.31,0,.37.03.76.08,1.18.22,2.1.37,2.98,1.87,3.65.93.41,3.06.58,3.95.6,1.93,0,3.98-.17,4-.17,4.5-.43,6.13-1.52,6.72-2.36.79-1,1.19-3.23,1.26-6.68.01-.75.6-1.37,1.34-1.43.74-.05,1.41.46,1.54,1.19.28,1.61.94,3.25,3.88,4.34,1.79.67,4.1.76,5.32.76.8,0,1.59-.04,2.28-.12,1.6-.19,3.88-.59,5.23-1.94.41-.41,1.03-.54,1.56-.32.54.21.9.73.91,1.31,0,.37.03.76.08,1.17.22,2.11.37,2.99,1.87,3.65.93.41,3.06.58,3.95.6,1.9,0,3.98-.17,4.01-.17,4.5-.43,6.13-1.52,6.71-2.36.24-.31.81-1.03,1.1-3.81.08-.76.74-1.36,1.5-1.3.74.03,1.42.61,1.47,1.34.06.82.16,1.54.29,2.16.38,1.78,2.01,2.18,3.71,2.34,1.25.12,2.54.07,3.62,0h.15c1.42-.09,2.5-.27,3.15-.41,1.15-.24,1.99-.49,2.32-1.43.13-.38.3-1.16.33-2.69.02-.73.57-1.33,1.3-1.41.36-.04.68-.08.96-.12.07,0,.14-.01.2-.01ZM54.22,30.43s-.06,0-.09,0c-.74-.04-1.33-.64-1.36-1.38-.02-.48-.05-.97-.1-1.45-.04-.52.19-1.02.62-1.32.43-.3.98-.34,1.45-.12.11.05.22.1.34.15.72.28,1.09,1.08.84,1.81-.12.35-.21.72-.28,1.1-.12.7-.73,1.21-1.43,1.21ZM131.72,25.63c-.12,0-.24-.01-.36-.04-.5-.13-.9-.52-1.04-1.02-.12-.42-.33-.77-.64-1.05-.45-.41-.6-1.06-.37-1.63.23-.57.76-.93,1.41-.9.75.03,1.62.06,2.63.08.58.01,1.09.37,1.31.9.22.54.1,1.15-.3,1.56l-1.59,1.65c-.28.29-.66.44-1.04.44Z"/>
            </g>
            <path class="cls-5" d="M159.89,12.82c-.34-2.13-2.4-2.77-3.28-3.04-.74-.23-1.87-.5-3.06-.5-.82,0-1.51.13-2.08.34-.12-.19-.26-.37-.41-.54-1.09-1.21-2.49-1.44-3.15-1.48-4.26-.43-8.78-.52-11.83-.52-4.62,0-8.34.2-10.11.37-1.14.11-2.53.88-2.98,2.72-.08.34-.14.74-.19,1.26-.06.72-.08,1.64-.11,2.61v.33c-.04,1.05-.05,2.26.06,3.3.19,1.79.81,2.87,1.54,3.51-.18.02-.36.05-.53.07-.39.06-1.13.18-1.84.57-.73-.21-1.6-.37-2.46-.37-.79,0-1.51.14-2.13.39-.66-.2-1.43-.35-2.22-.39.07-.33.13-.7.16-1.11.07-.87.04-1.81.02-2.43,0-.15,0-.28,0-.38-.03-3.47-.66-4.54-.89-4.94-.79-1.34-2.13-1.93-5.01-2.14,0-.06,0-.11,0-.16,0-1.38-.06-2.6-.27-4.03-.12-.78-.4-1.58-.88-2.22h0c-.45-.6-1.64-2.17-7.74-2.17-1.24,0-2.28.05-3.1.15-.92.11-3.35.4-4.14,2.65-.63,1.8-.58,3.88-.55,4.88v.08c.02.54.04,1.08.07,1.6-.36.04-.56.08-.67.1-1.91.36-3.22,1.88-3.34,3.88v.09c-.06.96-.1,1.6-.06,2.91.02.55.12,1.99.2,2.94-.42-.04-.87-.05-1.37-.05-.56,0-1.29.06-1.93.17-.65.11-2.27.37-3.14,1.76,0,0,0,0-.01,0-.09-.09-.19-.18-.28-.27.12-.19.23-.39.31-.61.84-2.1.85-4.26.7-5.71-.09-.87-.39-3.04-1.37-4.32-1.16-1.51-3.14-1.72-5.11-1.72-.41,0-.84.01-1.26.03.02-3.41-.58-5.54-1.93-6.95-1.72-1.8-4.69-1.99-5.88-1.99-1.81,0-3.36.4-4.52,1.15-1.48-.76-3.59-.86-4.55-.86-.56,0-1.11.03-1.63.1-1.38.17-3.27.4-4.65,1.98-1.3,1.48-1.86,3.47-1.71,6.2-.6,0-1.17.02-1.71.05-1.28.07-3.07.29-4.38.93-.87.43-1.56,1.11-2.07,2.02-.15-.33-.33-.65-.54-.92-1.16-1.51-3.14-1.72-5.11-1.72-.41,0-.84.01-1.26.03.02-3.41-.58-5.54-1.93-6.95-1.72-1.8-4.69-1.99-5.88-1.99-1.81,0-3.36.4-4.52,1.15-1.48-.76-3.59-.86-4.55-.86-.56,0-1.11.03-1.63.1-1.38.17-3.27.4-4.65,1.98-1.3,1.48-1.86,3.47-1.71,6.2-.6,0-1.17.02-1.71.05-1.28.07-3.07.29-4.38.93-2.03,1-3.1,3.36-3.1,6.84,0,2.7.81,4.82,2.22,5.82,1.27.9,3.29,1.38,5.85,1.38.71,0,1.47-.04,2.27-.11.17.43.36.78.61,1.12.53.76,1.33,1.28,2.2,1.62-.35,1.04-.51,2.15-.43,3.24.19,2.63.91,5.27,4.96,6.77,2.01.74,4.51.85,5.82.85.86,0,1.71-.05,2.45-.13,1.97-.23,4.46-.73,6.09-2.36.01.41.04.84.08,1.29.21,2.04.39,3.8,2.73,4.83l.04.02c1.42.63,4.44.7,4.47.7h.02c1.96,0,4.04-.17,4.12-.17h.06c4.08-.4,6.62-1.37,7.73-2.98.53-.68,1.41-2.17,1.52-7.48,0,0,0-.01,0-.02.37,2.17,1.44,4.21,4.81,5.46,2.01.74,4.51.85,5.82.85.86,0,1.71-.05,2.45-.13,1.97-.23,4.46-.73,6.09-2.36.01.41.04.84.08,1.29.21,2.04.39,3.8,2.73,4.83l.04.02c1.42.63,4.44.7,4.47.7h.02c1.96,0,4.04-.17,4.12-.17h.06c4.08-.4,6.62-1.37,7.73-2.98.42-.53,1.04-1.55,1.35-4.49.03,0,.05,0,.08,0,.06.78.16,1.6.32,2.36.66,3.07,3.81,3.37,4.99,3.48.62.06,1.22.09,1.86.09h0c.74,0,1.39-.04,2.02-.07h.12c1.51-.09,2.66-.29,3.36-.44,1.1-.23,2.77-.58,3.39-2.38.27-.78.38-1.93.41-3.13.38-.04.71-.08,1.01-.12-.04.7-.02,1.47.07,2.31.21,2.04.39,3.8,2.73,4.83l.04.02c1.42.63,4.44.7,4.47.7h.02c1.96,0,4.04-.17,4.12-.17h.06c4.08-.4,6.62-1.37,7.73-2.98.06-.08.12-.16.19-.26.07.08.15.16.22.23.95.98,2.25,2.1,3.94,2.1.89,0,1.74-.32,2.4-.91,1.46-1.31,3.16-3.34,4.54-5.1,1.01,1.4,1.75,2.44,2.37,3.21.71.88,1.89,2.36,3.79,2.36h0c.39,0,.76-.06,1.13-.19,1.6-.55,3.22-1.39,4.57-2.37,1.46-1.06,3.09-2.55,2.7-4.66-.26-1.41-1.09-2.93-5.04-7.65.05.02.11.04.16.05.73.22,1.61.33,2.6.33h0c.72,0,1.47-.06,2.1-.17,2.36-.4,3.11-1.73,3.33-2.76.5-2.37.2-10.03.03-11.09ZM54.22,28.98c-.02-.5-.06-1.01-.1-1.51.14.07.28.13.43.19-.14.43-.25.87-.33,1.32ZM132.29,23.58c-.19.2-.38.4-.57.59-.21-.75-.6-1.32-1.06-1.74.76.03,1.64.06,2.66.09-.35.36-.69.72-1.03,1.06Z"/>
            <g>
              <g>
                <path class="cls-14" d="M14.76,5.93c.5-.57,1.24-.74,2.64-.92,1.98-.24,4.08.18,4.41.48.99.92,1.48,4.1,1.17,8.09h1.09c-.62-5.89-.04-7.14.25-7.7.92-1.71,5.72-1.51,6.94-.23.84.88,1.2,2.91.98,6.44l-.14,1.82c1.55-.22,6.61-.7,7.24.12.53.69,1.32,4.17.23,6.88-.11.27-1.87,1.09-7.63.41.46,4.1.76,8.15-.12,11.36-.23.83-.83,2.05-4.79,2.51-1.98.23-4.98.13-6.79-.54-2.42-.9-2.74-2.06-2.88-3.99-.1-1.36.43-2.93,1.41-3.86.35-.33.6-.58,1.09-.81.83-.39,1.71-.41,2.36-.41.87,0,1.41-.25,2.01-.87.76-.79.65-2.66.54-3.23-.3,0-.82.02-1.37.02.09,1-.07,2.55-.64,2.88-.98.56-2.09.68-3.75.73-1.79.05-3.64-.38-3.99-.92-.09-.13-.24-.24-.46-1.14-.15-.61-.11-1.09-.11-1.77-5.43,1-8.09.33-8.93-.27-.25-.18-.87-1.14-.87-3.2,0-1.85.41-3.52,1.31-3.96s2.38-.57,3.14-.61c2.59-.14,5.38.1,5.38.1,0,0-.42-1.26-.57-2.65-.35-3.18.39-4.27.84-4.79Z"/>
                <path class="cls-11" d="M24.97,36.22c-1.77,0-3.7-.21-5.04-.71-2.97-1.1-3.33-2.82-3.47-4.78-.12-1.67.56-3.51,1.69-4.58.04-.04.09-.08.13-.13-1.41-.06-3.39-.37-4.01-1.33-.18-.24-.37-.55-.58-1.42-.08-.33-.11-.62-.13-.91-5.84.91-8.01-.22-8.56-.61-.58-.41-1.25-1.69-1.25-3.94,0-1.45.24-3.99,1.81-4.77,1.02-.5,2.62-.65,3.49-.7,1.55-.08,3.15-.03,4.22.02-.1-.46-.21-1-.27-1.56-.37-3.41.43-4.76,1.06-5.48h0c.75-.85,1.8-1.04,3.21-1.22,1.98-.24,4.48.1,5.14.72.34.31.61.75.82,1.27.1-.3.2-.5.29-.65.46-.87,1.5-1.43,2.99-1.64,1.83-.25,4.34.09,5.41,1.21,1.08,1.13,1.46,3.33,1.23,7.12l-.05.73c2.39-.27,6.12-.5,6.97.61.78,1.02,1.53,4.84.35,7.77-.43,1.09-3.19,1.49-7.45,1.09.37,3.54.6,7.42-.27,10.58-.33,1.22-1.27,2.67-5.56,3.17-.65.08-1.39.12-2.17.12ZM24.69,20.59s.07,0,.11,0l.73.02.13.72s.47,2.73-.78,4.03c-.79.81-1.56,1.15-2.66,1.15-.66,0-1.35.02-1.98.32-.33.16-.5.32-.81.61-.79.75-1.25,2.04-1.17,3.18.12,1.76.35,2.49,2.29,3.21,1.65.61,4.51.71,6.37.49,3.63-.42,3.92-1.46,4.03-1.85.87-3.19.51-7.36.09-11.02l-.13-1.13,1.13.13c4.6.54,6.33.08,6.77-.08.78-2.25.19-5.06-.16-5.69-.74-.31-4.06-.17-6.43.16l-1.11.16.22-2.94c.24-3.86-.27-5.26-.73-5.74-.46-.49-2.25-.88-3.85-.66-1.01.14-1.51.46-1.64.7-.19.35-.76,1.42-.15,7.18l.11,1h-3.08l.08-.98c.33-4.32-.32-6.74-.84-7.32-.42-.19-2.09-.49-3.72-.29-1.32.16-1.8.31-2.07.62h0c-.23.27-.95,1.08-.62,4.09.14,1.27.53,2.45.53,2.46l.43,1.31-1.37-.12s-2.76-.24-5.25-.1c-.95.05-2.18.21-2.79.51-.31.15-.8,1.14-.8,3.15,0,1.57.4,2.36.54,2.51.02,0,1.86,1.25,8.19.08l1.08-.2v1.4c-.02.49-.02.84.08,1.24.14.59.23.71.27.76l.07.1c.2.17,1.55.56,3.21.51,1.58-.05,2.52-.16,3.33-.62.1-.15.28-1.1.19-2.01l-.09-.99h1c.26,0,.52,0,.75-.01.2,0,.38-.01.53-.01Z"/>
              </g>
              <g>
                <path class="cls-14" d="M54.71,5.93c.5-.57,1.24-.74,2.64-.92,1.98-.24,4.08.18,4.41.48.99.92,1.48,4.1,1.17,8.09h1.09c-.62-5.89-.04-7.14.25-7.7.92-1.71,5.72-1.51,6.94-.23.84.88,1.2,2.91.98,6.44l-.14,1.82c1.55-.22,6.61-.7,7.24.12.53.69,1.32,4.17.23,6.88-.11.27-1.87,1.09-7.63.41.46,4.1.76,8.15-.12,11.36-.23.83-.83,2.05-4.79,2.51-1.98.23-4.98.13-6.79-.54-2.42-.9-2.74-2.06-2.88-3.99-.1-1.36.43-2.93,1.41-3.86.35-.33.6-.58,1.09-.81.83-.39,1.71-.41,2.36-.41.87,0,1.41-.25,2.01-.87.76-.79.65-2.66.54-3.23-.3,0-.82.02-1.37.02.09,1-.07,2.55-.64,2.88-.98.56-2.09.68-3.75.73-1.79.05-3.64-.38-3.99-.92-.09-.13-.24-.24-.46-1.14-.15-.61-.11-1.09-.11-1.77-5.43,1-8.09.33-8.93-.27-.25-.18-.87-1.14-.87-3.2,0-1.85.41-3.52,1.31-3.96s2.38-.57,3.14-.61c2.59-.14,5.38.1,5.38.1,0,0-.42-1.26-.57-2.65-.35-3.18.39-4.27.84-4.79Z"/>
                <path class="cls-11" d="M64.92,36.22c-1.77,0-3.7-.21-5.04-.71-2.97-1.1-3.33-2.82-3.47-4.78-.12-1.67.56-3.51,1.69-4.58.04-.04.09-.08.13-.13-1.41-.06-3.39-.37-4.01-1.33-.18-.25-.37-.55-.58-1.42-.08-.33-.12-.62-.13-.91-5.84.91-8.01-.22-8.56-.61-.58-.41-1.25-1.69-1.25-3.94,0-1.45.24-3.99,1.81-4.77,1.02-.5,2.63-.65,3.49-.7,1.55-.08,3.15-.03,4.22.02-.1-.46-.21-1-.27-1.56-.37-3.41.43-4.76,1.06-5.48h0c.75-.85,1.8-1.04,3.21-1.22,1.98-.24,4.47.1,5.14.72.34.32.61.76.82,1.28.1-.3.2-.5.29-.65.46-.87,1.5-1.43,2.99-1.63,1.82-.25,4.34.09,5.41,1.21,1.07,1.12,1.46,3.38,1.23,7.12l-.05.73c2.39-.27,6.12-.5,6.97.61.78,1.02,1.53,4.84.35,7.77-.44,1.09-3.2,1.48-7.45,1.09.37,3.54.6,7.42-.27,10.58-.33,1.21-1.26,2.67-5.56,3.17-.65.08-1.39.12-2.17.12ZM64.64,20.59s.07,0,.11,0l.73.02.13.72s.47,2.73-.78,4.03c-.78.81-1.55,1.15-2.66,1.15-.66,0-1.35.02-1.98.32-.33.16-.5.32-.81.61-.79.75-1.25,2.04-1.17,3.18.12,1.76.35,2.49,2.29,3.21,1.65.61,4.51.71,6.37.49,3.63-.42,3.92-1.46,4.03-1.85.87-3.19.51-7.36.09-11.02l-.13-1.13,1.13.13c4.6.54,6.33.08,6.77-.08.78-2.25.18-5.06-.16-5.69-.74-.31-4.06-.17-6.43.16l-1.11.16.22-2.94c.24-3.86-.27-5.26-.73-5.74-.46-.49-2.25-.88-3.85-.66-1.01.14-1.51.46-1.64.7-.19.35-.76,1.42-.15,7.18l.11,1h-3.08l.08-.98c.33-4.32-.32-6.74-.84-7.32-.42-.19-2.09-.49-3.72-.29-1.31.16-1.8.31-2.07.62h0c-.24.27-.95,1.08-.62,4.09.14,1.27.53,2.45.53,2.46l.43,1.31-1.37-.12s-2.76-.24-5.25-.1c-.95.05-2.18.21-2.79.51-.31.15-.8,1.14-.8,3.15,0,1.57.4,2.36.54,2.51.02,0,1.86,1.25,8.19.08l1.08-.2v1.4c-.02.49-.02.84.08,1.24.14.59.23.71.27.76l.07.1c.2.17,1.56.56,3.21.51,1.58-.05,2.52-.16,3.33-.62.09-.15.28-1.1.19-2.01l-.09-.99h.99c.26,0,.52,0,.75-.01.2,0,.38-.01.53-.01Z"/>
              </g>
              <g>
                <path class="cls-14" d="M96.3,5.7c.18-.53,2.38-.64,4.21-.64,3.26,0,4.89.51,5.18.9,0,0,.18.17.26.76.18,1.17.23,2.21.24,3.57,0,.92-.04,3.3-.04,3.3,0,0,1.06-.07,2.38,0s2.91.26,3.12.61c.31.53.44,2.12.45,3.34,0,.86.19,3.73-.49,3.88-1.35.31-4.85.31-4.85.31l.22,3.77s2.12-.1,4.81.22c.41.05.59,1.21.73,2.2.07.47.24,1.61.04,3.32-.04.34-.29.61-5.25.92,0,0,.24,3.87-.16,5.05-.01.04-1.41.5-3.91.65-1.07.06-2.14.13-3.5,0-1.51-.14-2.04-.39-2.16-.96-.45-2.09-.31-4.95-.31-4.95,0,0-3.65.26-4.75-.21-.04-.02-.26-2.32-.28-3.06-.03-1.05.14-3.02.3-3.05,1.75-.39,5.25-.35,5.25-.35l-.26-3.5s-3.77.26-4.9-.01c-.21-.05-.44-.05-.5-.68-.09-.91-.2-2.55-.22-3.03-.04-1.2,0-1.73.05-2.71.04-.69.42-.86.73-.92,1.1-.21,3.56-.14,3.56-.14,0,0-.29-2.38-.35-4.79-.02-.81-.08-2.53.37-3.82Z"/>
                <path class="cls-11" d="M101.29,38.85c-.51,0-1.05-.02-1.64-.08-1.06-.1-2.66-.25-2.96-1.67-.3-1.41-.35-3.12-.35-4.18-1.26.05-3.26.06-4.17-.33-.4-.18-.74-.33-.83-3.87-.09-3.72.62-3.88,1.01-3.96,1.25-.28,3.27-.35,4.47-.36l-.12-1.64c-1.26.07-3.37.13-4.28-.09-.73-.16-1.11-.64-1.19-1.47-.09-.92-.2-2.58-.22-3.09-.04-1.2,0-1.77.05-2.7.06-1.04.6-1.68,1.47-1.85.72-.13,1.88-.17,2.73-.17-.09-.93-.21-2.38-.25-3.85-.03-1.01-.07-2.73.42-4.14h0c.28-.79,1.19-1.25,5.07-1.25h0c1.48,0,4.96.12,5.87,1.22.27.31.41.79.47,1.21.19,1.3.24,2.42.25,3.7,0,.54-.01,1.6-.03,2.37.41,0,.94,0,1.51.03,3.33.16,3.67.74,3.85,1.06.48.81.56,2.72.57,3.79v.43c.07,2.37.03,4.06-1.19,4.34-.99.23-2.92.3-4.09.33l.12,1.95h0c.89,0,2.36.04,4.06.25,1.12.13,1.33,1.64,1.52,2.97.08.58.25,1.79.04,3.55-.13,1.09-.89,1.37-5.2,1.66.05,1.31.08,3.52-.26,4.5-.29.87-3.08,1.16-4.71,1.26h-.11c-.6.04-1.22.08-1.89.08ZM98.23,30.99l-.05,1.02s-.13,2.77.29,4.71c.02,0,.26.14,1.36.25,1.25.12,2.23.06,3.26,0h.11c1.53-.09,2.63-.31,3.19-.45.14-.99.11-2.98.03-4.29l-.06-.9.9-.06c2.87-.18,4-.34,4.45-.45.13-1.34,0-2.25-.06-2.7-.11-.75-.2-1.26-.28-1.52-2.43-.27-4.31-.18-4.33-.18l-.89.04-.33-5.62h.96c.87,0,3.18-.04,4.35-.23.09-.4.12-1.27.09-2.59v-.46c-.02-1.37-.16-2.35-.28-2.74-.34-.11-1.2-.25-2.44-.31-1.25-.06-2.27,0-2.28,0l-.98.06.02-.98s.05-2.37.04-3.28c0-1.21-.05-2.25-.23-3.44-.03-.19-.07-.3-.08-.34h0c-.15-.1-1.43-.55-4.45-.55h0c-2.27,0-3.14.18-3.43.27-.3,1.07-.27,2.48-.25,3.18.06,2.41.34,4.76.34,4.78l.12,1.04-1.05-.03c-.65-.02-2.53-.03-3.36.12,0,.02,0,.05,0,.08-.06,1-.09,1.5-.05,2.63.01.43.12,1.96.21,2.9.89.13,3.14.04,4.44-.05l.9-.06.41,5.38h-.99s-2.78-.04-4.52.22c-.07.57-.14,1.55-.12,2.24.01.49.12,1.66.19,2.36.86.13,2.52.12,3.87.03l1.02-.07ZM92.75,20.89l-.11.9.21-.86s-.06-.03-.1-.04Z"/>
              </g>
              <g>
                <g>
                  <path class="cls-14" d="M123.34,24.71c.1-.26,1.63-.44,2.36-.44,1.47,0,2.79.18,2.93.79.77,3.3.75,11.4-.39,12.77,0,0-.59,1.2-5.44,1.67,0,0-2.02.16-3.89.16-.61,0-2.64-.19-3.18-.43-.64-.28-.67-.24-.88-2.24-.04-.37-.25-3.04.47-3.58.49-.37,1.91-.08,5.07-.26,0,0,2.24-.2,2.36-1.24,0,0,.17-.61.19-2.71.01-1.51.1-3.77.39-4.48Z"/>
                  <path class="cls-11" d="M118.92,40.57c-.59,0-2.81-.18-3.54-.5-1.16-.51-1.21-1.03-1.41-2.98-.11-1.05-.25-3.59.83-4.4.53-.39,1.22-.39,2.47-.38.75,0,1.78.01,3.09-.06.62-.06,1.4-.31,1.53-.5,0-.06.14-.68.16-2.55.02-1.72.11-3.95.45-4.81h0c.35-.88,2.16-1.01,3.2-1.01,1.61,0,3.51.17,3.81,1.49.73,3.1.94,11.53-.52,13.49-.35.55-1.6,1.63-6.1,2.06-.1,0-2.1.16-3.97.17h0ZM115.96,38.34s.07.03.1.04c.39.17,2.17.37,2.85.37h.01c1.8,0,3.8-.16,3.82-.16,3.62-.35,4.59-1.11,4.74-1.25l.08-.1c.76-.91,1.01-8.26.24-11.83-.18-.08-.72-.25-2.09-.25-.49,0-1.21.09-1.6.17-.12.61-.23,1.93-.24,3.85-.02,1.85-.15,2.62-.2,2.86-.25,1.63-2.68,1.94-3.17,1.98-1.41.08-2.47.07-3.24.07-.55,0-1.12,0-1.35.03-.19.42-.23,1.79-.13,2.75.05.51.12,1.19.19,1.44Z"/>
                </g>
                <g>
                  <path class="cls-14" d="M117.25,27.63c.02,1.14,0,2.83-.1,3.44,0,.03-.83.25-1.66.24s-1.79-.27-1.81-.32c-.14-.42-.25-2.21-.21-3.99.03-1.51-.01-1.24.09-1.98.01-.1.44-.39,1.26-.39.81,0,1.75.26,2.26.49.14.06.15,1.31.18,2.5Z"/>
                  <path class="cls-11" d="M115.62,32.21s-.1,0-.15,0c-.88-.01-2.4-.15-2.66-.95-.21-.63-.29-2.68-.26-4.29,0-.45.01-.74.01-.95,0-.51,0-.58.08-1.13.11-.8,1.16-1.17,2.16-1.17h0c.92,0,1.98.28,2.62.56.66.29.67.81.71,3v.32c.03,1.05,0,2.87-.11,3.6-.11.67-.92,1-2.42,1ZM114.47,30.28c.28.06.65.12,1.03.12.29,0,.58-.03.81-.06.04-.7.06-1.77.04-2.69v-.32c-.02-.47-.03-1.12-.06-1.53-.41-.13-.97-.26-1.47-.26h0c-.18,0-.32.02-.42.04-.01.13-.01.24-.01.47,0,.21,0,.51-.01.97-.03,1.41.04,2.63.1,3.27Z"/>
                </g>
                <g>
                  <path class="cls-14" d="M121.92,27.63c.02,1.14,0,2.83-.1,3.44,0,.03-.83.25-1.66.24s-1.79-.27-1.81-.32c-.14-.42-.25-2.21-.21-3.99.03-1.51-.01-1.24.09-1.98.01-.1.44-.39,1.26-.39.81,0,1.75.26,2.26.49.14.06.15,1.31.18,2.5Z"/>
                  <path class="cls-11" d="M120.29,32.21s-.1,0-.15,0c-.71,0-2.38-.12-2.66-.94-.21-.65-.29-2.7-.26-4.3,0-.45.01-.74.01-.95,0-.51,0-.58.08-1.13.11-.8,1.16-1.17,2.16-1.17h0c.92,0,1.98.28,2.62.56.66.29.67.81.71,3v.32c.03,1.05,0,2.87-.11,3.6-.11.67-.92,1-2.42,1ZM119.14,30.28c.28.06.65.12,1.03.12.28,0,.58-.03.81-.06.04-.7.06-1.77.04-2.69v-.32c-.02-.47-.03-1.12-.06-1.53-.41-.13-.97-.26-1.47-.26h0c-.18,0-.32.02-.42.04-.01.13-.01.24-.01.47,0,.21,0,.51-.01.97-.03,1.41.04,2.63.1,3.27Z"/>
                </g>
              </g>
              <g>
                <g>
                  <path class="cls-14" d="M126.28,10.63c3.53-.34,13.46-.65,21.4.16,0,0,1.47,0,1.3,1.57l-.71,4.45-1.74,8.53c1.36,1.72,6.68,7.55,7.01,9.34.08.44-2.17,2.39-5.16,3.42-.64.22-2.27-2.36-6.2-7.77,0,0-3.95,5.65-6.72,8.15-1.06.95-5.86-5.81-5.81-7.37,0-.23,9.41-9.99,11.35-11.76,0,0-11.83.13-14.39-.52-.74-.19-.76-2.43-.71-4.4s.08-3.77.38-3.8Z"/>
                  <path class="cls-11" d="M135.2,39.48c-.21,0-.46-.05-.74-.18-1.93-.9-5.78-6.43-5.72-8.22.02-.75,6.85-7.64,10.04-10.81-3.57,0-10.43-.06-12.4-.56-1.4-.36-1.46-2.51-1.39-5.3v-.32c.09-3.18.12-4.25,1.2-4.36,3.61-.34,13.65-.65,21.58.16,0,0,.95.02,1.59.73.29.32.62.91.52,1.84l-.71,4.5-1.66,8.15c.31.37.72.85,1.18,1.4,2.98,3.5,5.47,6.52,5.74,8.01.28,1.51-3.6,3.69-5.76,4.44-1.13.39-1.87-.64-4.97-4.96-.46-.64-.97-1.35-1.53-2.12-1.29,1.77-4.01,5.37-6.12,7.27-.13.12-.42.32-.86.32ZM130.59,31.38c.36,1.44,3.32,5.54,4.5,6.22,2.65-2.5,6.32-7.72,6.35-7.78l.73-1.04.75,1.02c.86,1.19,1.62,2.23,2.27,3.15,1.42,1.97,2.66,3.71,3.2,4.2,2.18-.81,3.73-2.04,4.2-2.55-.56-1.4-3.7-5.08-5.26-6.91-.64-.75-1.17-1.38-1.49-1.78l-.26-.33,1.82-8.94.7-4.41c.01-.16,0-.32-.07-.39-.09-.1-.31-.13-.34-.13-7.51-.76-16.8-.53-20.75-.22-.07.62-.1,1.76-.12,2.65v.33c-.07,2.32.06,3.21.19,3.54,2.3.47,10.81.49,13.98.46l2.38-.03-1.76,1.6c-1.79,1.63-9.65,9.79-11.02,11.35ZM126.37,11.53h0,0Z"/>
                </g>
                <g>
                  <path class="cls-14" d="M150.55,13.33c.14.9.38,8.12,0,9.92-.08.39-4.69.81-4.81-.51-.04-.49-.14-2.34-.16-4.54s-.02-4.89.22-5.17c1.07-1.26,4.71.06,4.75.31Z"/>
                  <path class="cls-11" d="M148.43,24.55c-.3,0-.57-.01-.78-.02-2.21-.13-2.75-1-2.81-1.71-.05-.52-.14-2.41-.16-4.61-.05-4.96.12-5.39.44-5.77,1.06-1.24,3.2-.86,4.39-.53,1.68.47,1.88.88,1.94,1.28h0c.16,1,.4,8.31,0,10.25-.2.94-1.82,1.11-3,1.11ZM146.63,22.51c.51.28,2.26.27,3.1.11.22-1.99.08-7.16-.04-8.75-.8-.33-2.56-.68-3.11-.33-.07.41-.13,1.57-.1,4.66.02,1.95.1,3.68.14,4.32ZM149.66,13.47h0s0,0,0,0Z"/>
                </g>
                <g>
                  <path class="cls-14" d="M156.72,13.33c.14.9.38,8.12,0,9.92-.08.39-4.69.81-4.81-.51-.04-.49-.14-2.34-.16-4.54-.02-2.3-.02-4.89.22-5.17,1.07-1.26,4.71.06,4.75.31Z"/>
                  <path class="cls-11" d="M154.6,24.55c-.29,0-.56-.01-.77-.02-2.22-.13-2.76-1-2.82-1.71-.05-.53-.14-2.43-.16-4.61-.05-4.95.12-5.4.44-5.77,1.05-1.24,3.2-.86,4.38-.53,1.68.47,1.88.87,1.94,1.28h0c.16,1,.4,8.31,0,10.25-.2.94-1.83,1.11-3.01,1.11ZM152.81,22.51c.51.28,2.26.27,3.1.11.22-1.99.08-7.16-.03-8.75-.8-.33-2.56-.68-3.11-.34-.07.41-.13,1.58-.1,4.66.02,2.09.1,3.74.15,4.32ZM156.14,14h0s0,0,0,0ZM155.83,13.47h0s0,0,0,0Z"/>
                </g>
              </g>
              <g>
                <g>
                  <path class="cls-14" d="M85.19,24.71c.1-.26,1.63-.44,2.36-.44,1.47,0,2.79.18,2.93.79.77,3.3.75,11.4-.39,12.77,0,0-.59,1.2-5.44,1.67,0,0-2.02.16-3.89.16-.61,0-2.64-.19-3.18-.43-.64-.28-.67-.24-.88-2.24-.04-.37-.25-3.04.47-3.58.49-.37,1.91-.08,5.07-.26,0,0,2.24-.2,2.36-1.24,0,0,.17-.61.19-2.71.01-1.51.1-3.77.39-4.48Z"/>
                  <path class="cls-11" d="M80.76,40.57c-.59,0-2.81-.18-3.54-.51-1.16-.51-1.21-1.03-1.41-2.98-.11-1.05-.25-3.59.83-4.4.53-.39,1.21-.39,2.47-.38.75,0,1.78.01,3.09-.06.62-.06,1.4-.31,1.53-.5,0-.06.14-.68.16-2.55.02-1.72.11-3.95.45-4.81h0c.35-.88,2.16-1.01,3.2-1.01,1.61,0,3.51.17,3.81,1.49.73,3.1.94,11.53-.52,13.49-.35.55-1.6,1.63-6.1,2.06-.1,0-2.1.16-3.97.17h0ZM77.8,38.34s.07.03.1.04c.4.17,2.17.39,2.86.37,1.81,0,3.8-.16,3.82-.16,3.62-.35,4.59-1.11,4.74-1.25l.08-.1c.76-.91,1.01-8.26.24-11.83-.18-.08-.72-.25-2.09-.25-.49,0-1.21.09-1.6.17-.12.61-.23,1.93-.24,3.85-.02,1.85-.15,2.62-.2,2.86-.25,1.63-2.68,1.94-3.17,1.98-1.4.08-2.47.07-3.24.07-.55,0-1.12,0-1.35.03-.19.42-.23,1.79-.13,2.75.05.51.12,1.19.19,1.44Z"/>
                </g>
                <g>
                  <path class="cls-11" d="M78.57,24.57s-1.71-.12-2.26,1.75c0,0-1.22-.54-1.89.2,0,0-.24.25-.26.83,0,0-1.76.11-1.7,1.48,0,0-.07,1.21,1.5,1.47,0,0,.08,1.91,2.3,1.02,0,0,1.1.85,2.32.88h-.05c1.22-.03,2.32-.88,2.32-.88,2.22.9,2.3-1.02,2.3-1.02,1.57-.26,1.5-1.47,1.5-1.47.06-1.37-1.7-1.48-1.7-1.48-.02-.58-.26-.83-.26-.83-.68-.74-1.89-.2-1.89-.2-.55-1.87-2.26-1.75-2.26-1.75"/>
                  <path class="cls-14" d="M78.57,32.32h-.05c-1.09-.04-2.05-.69-2.29-.86-.75.29-1.35.3-1.77.02-.47-.3-.59-.86-.62-1.07-1.56-.31-1.51-1.56-1.51-1.58-.05-1.26,1.32-1.53,1.71-1.58.04-.55.28-.8.29-.81.6-.66,1.57-.39,1.9-.27.54-1.62,1.97-1.71,2.28-1.71.02,0,.03,0,.05,0,.31,0,1.74.09,2.28,1.71.33-.12,1.3-.38,1.9.28,0,0,.25.26.29.81.39.05,1.76.32,1.71,1.59,0,0,.05,1.26-1.51,1.56-.03.22-.14.77-.62,1.07-.43.28-1.03.27-1.77-.02-.23.17-1.2.82-2.28.86h0ZM76.27,31.2l.05.04s1.07.81,2.23.85c1.16-.04,2.21-.84,2.23-.85l.05-.04.06.02c.71.28,1.25.31,1.62.07.49-.31.52-.98.52-.98v-.09s.09-.02.09-.02c1.44-.24,1.41-1.31,1.4-1.36.05-1.25-1.53-1.37-1.6-1.37h-.1s0-.11,0-.11c-.02-.53-.23-.76-.23-.76-.61-.67-1.75-.18-1.77-.18l-.12.05-.04-.12c-.46-1.58-1.81-1.67-2.09-1.67h-.01s-.04,0-.04,0h0s-.02,0-.03,0c-.32,0-1.61.1-2.07,1.67l-.04.12-.12-.05s-1.15-.49-1.77.18c0,0-.22.24-.23.76v.1s-.11,0-.11,0c-.07,0-1.65.12-1.6,1.36,0,.06-.04,1.12,1.41,1.37h.09s0,.11,0,.11c0,0,.04.67.52.98.37.24.92.22,1.62-.07l.06-.02Z"/>
                </g>
              </g>
              <g>
                <g>
                  <path class="cls-14" d="M45.24,24.71c.1-.26,1.63-.44,2.36-.44,1.47,0,2.79.18,2.93.79.77,3.3.75,11.4-.39,12.77,0,0-.59,1.2-5.44,1.67,0,0-2.02.16-3.89.16-.61,0-2.64-.19-3.18-.43-.64-.28-.67-.24-.88-2.24-.04-.37-.25-3.04.47-3.58.49-.37,1.91-.08,5.07-.26,0,0,2.24-.2,2.36-1.24,0,0,.17-.61.19-2.71.01-1.51.1-3.77.39-4.48Z"/>
                  <path class="cls-11" d="M40.82,40.57c-.59,0-2.81-.18-3.54-.5-1.16-.51-1.21-1.03-1.41-2.98-.11-1.05-.25-3.59.83-4.4.53-.39,1.21-.39,2.47-.38.75,0,1.78.01,3.1-.06.62-.06,1.4-.31,1.53-.5,0-.06.14-.68.16-2.55.02-1.72.11-3.95.45-4.81h0c.35-.88,2.16-1.01,3.2-1.01,1.61,0,3.5.17,3.81,1.49.73,3.1.94,11.54-.52,13.49-.35.55-1.6,1.63-6.1,2.06-.1,0-2.1.16-3.97.17h0ZM37.85,38.34s.07.03.1.04c.39.17,2.19.39,2.86.37,1.8,0,3.8-.16,3.82-.16,3.62-.35,4.59-1.11,4.74-1.25l.08-.1c.76-.91,1.02-8.26.24-11.83-.17-.08-.71-.25-2.09-.25-.49,0-1.21.09-1.6.17-.12.61-.23,1.93-.24,3.85-.02,1.85-.15,2.62-.2,2.86-.25,1.63-2.68,1.94-3.17,1.98-1.4.08-2.47.07-3.24.07-.55,0-1.11,0-1.35.03-.19.42-.23,1.79-.13,2.75.05.51.12,1.19.19,1.44ZM46.08,25.05h0s0,0,0,0c0,0,0,0,0,0Z"/>
                </g>
                <g>
                  <g>
                    <circle class="cls-2" cx="38.82" cy="27.5" r="3.58"/>
                    <path class="cls-14" d="M38.82,31.2c-2.04,0-3.7-1.66-3.7-3.7s1.66-3.7,3.7-3.7,3.7,1.66,3.7,3.7-1.66,3.7-3.7,3.7ZM38.82,24.03c-1.91,0-3.47,1.56-3.47,3.47s1.56,3.47,3.47,3.47,3.47-1.56,3.47-3.47-1.56-3.47-3.47-3.47Z"/>
                  </g>
                  <g>
                    <ellipse class="cls-2" cx="38.82" cy="22.27" rx=".7" ry="1.48"/>
                    <path class="cls-14" d="M38.82,23.86c-.46,0-.81-.7-.81-1.59s.36-1.59.81-1.59.81.7.81,1.59-.36,1.59-.81,1.59ZM38.82,20.91c-.28,0-.59.56-.59,1.37s.31,1.37.59,1.37.59-.56.59-1.37-.31-1.37-.59-1.37Z"/>
                  </g>
                  <g>
                    <ellipse class="cls-2" cx="38.82" cy="32.73" rx=".7" ry="1.48"/>
                    <path class="cls-14" d="M38.82,34.33c-.46,0-.81-.7-.81-1.59s.36-1.59.81-1.59.81.7.81,1.59-.36,1.59-.81,1.59ZM38.82,31.37c-.28,0-.59.56-.59,1.37s.31,1.37.59,1.37.59-.56.59-1.37-.31-1.37-.59-1.37Z"/>
                  </g>
                  <g>
                    <ellipse class="cls-2" cx="44.05" cy="27.5" rx="1.48" ry=".7"/>
                    <path class="cls-14" d="M44.05,28.31c-.89,0-1.59-.36-1.59-.81s.7-.81,1.59-.81,1.59.36,1.59.81-.7.81-1.59.81ZM44.05,26.91c-.8,0-1.37.31-1.37.59s.56.59,1.37.59,1.37-.31,1.37-.59-.56-.59-1.37-.59Z"/>
                  </g>
                  <g>
                    <ellipse class="cls-2" cx="33.59" cy="27.5" rx="1.48" ry=".7"/>
                    <path class="cls-14" d="M33.59,28.31c-.89,0-1.59-.36-1.59-.81s.7-.81,1.59-.81,1.59.36,1.59.81-.7.81-1.59.81ZM33.59,26.91c-.81,0-1.37.31-1.37.59s.56.59,1.37.59,1.37-.31,1.37-.59-.56-.59-1.37-.59Z"/>
                  </g>
                  <g>
                    <ellipse class="cls-2" cx="42.52" cy="23.8" rx="1.48" ry=".7" transform="translate(-4.37 37.03) rotate(-45)"/>
                    <path class="cls-14" d="M41.78,25.07c-.16,0-.29-.05-.39-.14-.17-.17-.19-.44-.07-.77.11-.31.33-.63.62-.93.63-.63,1.38-.88,1.7-.55.32.32.08,1.07-.55,1.7-.29.29-.62.51-.93.62-.14.05-.27.07-.38.07ZM43.25,22.75c-.28,0-.73.21-1.15.63-.27.27-.47.57-.57.84-.09.24-.08.44.02.54.1.1.29.1.54.02.28-.1.57-.3.84-.57h0c.57-.57.75-1.18.55-1.38-.05-.05-.13-.08-.23-.08Z"/>
                  </g>
                  <g>
                    <ellipse class="cls-2" cx="35.12" cy="31.19" rx="1.48" ry=".7" transform="translate(-11.77 33.97) rotate(-45)"/>
                    <path class="cls-14" d="M34.38,32.46c-.16,0-.29-.05-.39-.14-.17-.17-.19-.44-.07-.77.11-.31.33-.63.62-.93.63-.63,1.38-.87,1.7-.55.32.32.08,1.07-.55,1.7h0c-.29.29-.62.51-.93.62-.14.05-.27.07-.38.07ZM35.85,30.15c-.28,0-.73.21-1.15.63-.27.27-.47.57-.57.84-.09.24-.08.44.02.54.1.1.29.1.54.02.28-.1.57-.3.84-.57h0c.57-.57.75-1.18.55-1.38-.05-.05-.13-.08-.23-.08Z"/>
                  </g>
                  <g>
                    <ellipse class="cls-2" cx="35.12" cy="23.8" rx=".7" ry="1.48" transform="translate(-6.54 31.8) rotate(-45)"/>
                    <path class="cls-14" d="M35.86,25.07c-.37,0-.87-.25-1.31-.69-.29-.29-.51-.62-.62-.93-.12-.33-.09-.61.07-.77.32-.33,1.07-.08,1.7.55h0c.63.63.87,1.38.55,1.7-.1.1-.23.14-.39.14ZM34.38,22.76c-.1,0-.18.03-.23.08-.1.1-.1.29-.02.54.1.28.3.57.57.84.57.57,1.19.75,1.38.55.2-.2.02-.81-.55-1.38h0c-.42-.42-.87-.63-1.15-.63Z"/>
                  </g>
                  <g>
                    <ellipse class="cls-2" cx="42.52" cy="31.2" rx=".7" ry="1.48" transform="translate(-9.61 39.2) rotate(-45)"/>
                    <path class="cls-14" d="M43.25,32.47c-.12,0-.24-.02-.38-.07-.31-.11-.63-.33-.93-.62s-.51-.62-.62-.93c-.12-.33-.09-.61.07-.77.32-.32,1.07-.08,1.7.55h0c.63.63.87,1.38.55,1.7-.1.1-.23.14-.39.14ZM41.78,30.16c-.1,0-.18.03-.23.08-.1.1-.1.29-.02.54.1.28.3.57.57.84.27.27.57.47.84.57.24.09.44.08.54-.02.2-.2.02-.81-.55-1.38h0c-.42-.42-.87-.63-1.15-.63Z"/>
                  </g>
                </g>
              </g>
            </g>
          </g>
          <g>
            <g>
              <path class="cls-10" d="M136.67,70.87c-1.58-.41-3.19-1.17-4.47-2.36-.95-.92-1.77-2.13-2.28-3.39-.59-1.54-.89-3.21-1.04-4.87-.22-2.29-.12-4.56.1-6.83.04-.39.14-2.67.14-3.06.14-1.84.4-3.68.87-5.45.26-.94.62-1.92,1.24-2.63.51-.55,1.28-.9,1.98-.97,1.43-.1,9.5-.48,10.9-.52.88,0,1.73.06,2.57.27.4.13.81.38,1.06.76.33.46.51,1.05.59,1.6.26,1.64-.33,4.23-1.65,4.93-.37.2-.81.3-1.21.29-1.21.04-2.46-.09-3.67-.3-.85-.15-3.81-.86-4.59-.55-.66.26-.88,1.42-.8,2.15.04.32.15.69.37.86.33.29.77.31,1.17.33,1.43.06,2.9-.2,4.36-.18.66-.01,1.39.14,1.87.66.88.99.59,3.26.11,4.47-.22.44-.51.92-.95,1.13-.48.26-1.03.26-1.58.22-1.36-.09-2.67-.42-4.03-.62-.44-.03-1.54-.21-1.87.13-.15.19-.15.51-.15.79.04.6.22,1.22.59,1.68.26.34.66.57,1.03.68.81.26,1.61.2,2.38.13,1.9-.22,3.66-1.12,5.53-1.48.62-.16,1.32-.15,1.98.07.48.2.95.62,1.28,1.11.37.66.7,1.36.88,2.09.51,1.65.77,3.45.48,5.06-.22,1.07-.73,2.03-1.42,2.7-1.02,1.01-2.45,1.46-3.8,1.75-2.56.52-5.34.06-7.98-.65Z"/>
              <path class="cls-10" d="M142.3,73.2c-1.76,0-3.73-.31-6-.93-1.38-.36-3.38-1.12-5.09-2.69-1.12-1.08-2.05-2.46-2.64-3.91-.59-1.53-.95-3.25-1.14-5.29-.2-2.07-.17-4.27.1-7.1.03-.34.13-2.58.13-2.92,0-.04,0-.08,0-.12.17-2.17.47-4.04.91-5.71.24-.9.67-2.21,1.56-3.21.75-.81,1.83-1.34,2.91-1.46,1.55-.11,9.67-.49,11.02-.52.91,0,1.92.05,2.96.32.84.27,1.49.74,1.91,1.35.53.75.74,1.62.83,2.22.31,1.97-.35,5.32-2.41,6.41-.59.32-1.28.48-1.94.46-.25,0-.52.01-.79,0,.24.15.45.33.63.53,1.4,1.58,1,4.44.4,5.98-.02.04-.03.08-.05.12-.08.16-.18.34-.29.53.75-.13,1.59-.08,2.38.18.04.01.08.03.11.04.73.31,1.43.9,1.92,1.63.02.04.04.07.07.11.51.91.83,1.69,1.02,2.44.43,1.37.88,3.54.5,5.67-.28,1.38-.93,2.6-1.84,3.48-1.32,1.31-3.1,1.83-4.5,2.13-.84.17-1.72.26-2.65.26ZM130.57,50.41c0,.57-.11,2.72-.15,3.14-.25,2.64-.28,4.66-.1,6.55.16,1.78.47,3.25.95,4.5.43,1.06,1.12,2.09,1.93,2.87,1.25,1.15,2.77,1.72,3.83,2,0,0,.01,0,.02,0,3.03.83,5.36,1.03,7.31.63,1-.22,2.27-.57,3.07-1.36.5-.49.86-1.18,1.02-1.96.22-1.2.07-2.71-.44-4.34-.14-.56-.37-1.1-.73-1.76-.18-.25-.4-.43-.57-.51-.35-.1-.73-.11-1.09-.02-.82.16-1.56.41-2.35.66-1.07.35-2.17.71-3.38.85-.87.07-1.9.16-3-.19-.68-.2-1.32-.63-1.74-1.18-.65-.82-.84-1.8-.88-2.47,0-.49,0-1.17.44-1.76.04-.05.07-.09.11-.13.76-.79,1.97-.67,2.78-.59l.23.02s.08,0,.12.01c.49.07.98.16,1.47.25.85.16,1.65.3,2.44.36.17.01.62.04.79-.05.04-.02.14-.11.31-.44.41-1.1.42-2.58.13-2.92-.1-.1-.37-.17-.76-.17-.67,0-1.31.04-1.98.09-.8.06-1.63.12-2.47.09-.5-.02-1.33-.05-2.04-.66-.61-.5-.82-1.25-.88-1.81-.1-1.01.12-3.04,1.71-3.67.89-.35,2.33-.15,4.84.37.23.05.42.08.55.11,1.26.21,2.37.31,3.36.27.23.01.43-.04.57-.12.5-.26,1.12-2.02.9-3.42-.06-.41-.18-.76-.34-.99-.07-.1-.19-.18-.32-.22-.65-.17-1.42-.2-2.14-.2-1.29.03-9.3.41-10.78.51-.33.04-.78.25-1.02.52-.34.38-.64,1.05-.9,2.02-.4,1.48-.67,3.16-.82,5.13ZM137.3,58.23c.04.11.1.21.16.29.05.06.16.14.29.18.58.19,1.23.13,1.85.08.17-.02.35-.05.52-.08-.41-.07-.82-.14-1.22-.21-.44-.08-.88-.16-1.32-.23-.08,0-.16-.01-.26-.02,0,0-.02,0-.03,0ZM137.85,49.67c.06,0,.12,0,.17,0,.67.02,1.38-.03,2.13-.08.12,0,.25-.02.37-.03-1.26-.25-2.13-.38-2.6-.4-.04.14-.06.33-.06.5Z"/>
            </g>
            <g>
              <path class="cls-10" d="M136.68,73.54c-1.57-.42-3.19-1.2-4.47-2.39-.95-.93-1.76-2.15-2.28-3.41-.59-1.55-.89-3.22-1.04-4.88-.22-2.29-.12-4.56.1-6.83.04-.39.14-2.67.14-3.06.14-1.84.4-3.68.87-5.44.26-.94.62-1.92,1.24-2.62.51-.54,1.28-.89,1.98-.96,1.43-.09,9.5-.4,10.9-.42.88.02,1.72.07,2.57.3.4.13.81.39,1.06.77.33.47.51,1.06.59,1.61.26,1.64-.33,4.23-1.65,4.91-.37.19-.8.29-1.21.28-1.21.03-2.46-.11-3.67-.33-.84-.16-3.82-.89-4.58-.6-.66.26-.88,1.41-.8,2.14.04.32.15.69.37.86.33.3.77.32,1.17.34,1.43.07,2.9-.18,4.36-.14.66,0,1.39.16,1.87.68.88,1,.59,3.27.11,4.47-.22.44-.51.91-.95,1.12-.48.25-1.03.25-1.57.21-1.36-.1-2.67-.44-4.03-.66-.44-.03-1.54-.23-1.87.11-.15.19-.15.51-.15.79.04.6.22,1.22.59,1.69.26.34.66.57,1.03.68.81.27,1.61.21,2.38.15,1.9-.21,3.66-1.08,5.53-1.43.62-.15,1.32-.14,1.98.09.48.21.95.63,1.28,1.12.37.66.7,1.37.88,2.1.51,1.65.77,3.46.48,5.07-.22,1.07-.73,2.02-1.42,2.68-1.02,1-2.45,1.44-3.8,1.71-2.56.49-5.34.01-7.98-.73Z"/>
              <path class="cls-10" d="M142.44,75.92c-1.8,0-3.81-.32-6.14-.98-1.97-.53-3.73-1.47-5.08-2.73-1.11-1.08-2.04-2.47-2.63-3.93-.59-1.54-.96-3.26-1.14-5.3-.2-2.07-.17-4.26.09-7.1.03-.34.13-2.58.13-2.92,0-.04,0-.08,0-.11.17-2.18.47-4.05.91-5.71.25-.9.67-2.21,1.56-3.21.76-.81,1.84-1.33,2.92-1.44,1.44-.1,9.55-.41,11.02-.42.9.01,1.92.07,2.96.35.83.27,1.48.75,1.89,1.36.53.75.74,1.62.82,2.22.31,1.98-.36,5.33-2.42,6.4-.58.3-1.26.46-1.89.44-.27,0-.54,0-.82,0,.23.15.44.33.63.53,1.4,1.58,1,4.44.39,5.98-.02.04-.03.08-.05.12-.08.17-.18.35-.3.54.76-.13,1.61-.07,2.4.2.04.01.08.03.11.04.73.32,1.42.92,1.91,1.64.02.03.04.07.06.1.51.92.83,1.7,1.02,2.46.43,1.36.88,3.53.5,5.67-.28,1.37-.93,2.59-1.85,3.47-1.33,1.3-3.11,1.8-4.51,2.09-.8.15-1.63.23-2.51.23ZM130.57,53.02c0,.56-.11,2.72-.15,3.13-.25,2.65-.28,4.67-.1,6.56.16,1.78.47,3.25.95,4.51.43,1.07,1.13,2.1,1.93,2.89,1.25,1.16,2.78,1.75,3.84,2.03,0,0,.01,0,.02,0,3.04.85,5.36,1.08,7.31.7,1-.21,2.26-.55,3.06-1.33.5-.48.86-1.17,1.02-1.93.22-1.21.07-2.72-.44-4.35-.14-.57-.37-1.11-.73-1.77-.18-.25-.41-.44-.58-.53-.35-.11-.74-.12-1.09-.03-.83.15-1.57.39-2.35.64-1.07.34-2.17.69-3.37.82-.83.06-1.89.14-2.99-.22-.67-.2-1.32-.64-1.73-1.19-.65-.83-.84-1.8-.88-2.47,0-.5,0-1.19.44-1.77.03-.04.07-.09.11-.12.77-.79,1.98-.66,2.79-.57l.22.02s.08,0,.12.01c.49.08.98.17,1.46.26.85.16,1.65.32,2.45.38.17.01.62.05.79-.04.04-.02.13-.1.3-.43.41-1.09.42-2.58.12-2.92-.1-.11-.4-.21-.77-.19-.67-.01-1.32.03-1.99.07-.79.05-1.62.11-2.46.07-.51-.03-1.36-.07-2.07-.71-.56-.43-.77-1.21-.84-1.77-.14-1.4.33-3.12,1.72-3.66.89-.34,2.33-.13,4.84.41.22.05.41.09.54.11,1.26.22,2.36.32,3.36.3.03,0,.07,0,.1,0,.14.02.32-.04.47-.11.49-.26,1.1-2,.88-3.4-.06-.42-.18-.77-.34-.99-.07-.11-.2-.19-.33-.23-.66-.17-1.42-.21-2.14-.22-1.36.02-9.45.33-10.78.42-.34.03-.77.24-1.02.51-.33.37-.63,1.04-.9,2-.39,1.47-.66,3.15-.82,5.12ZM137.31,60.9c.04.11.1.21.16.29.05.06.16.14.3.19.59.19,1.23.14,1.85.1.17-.02.34-.04.51-.08-.42-.07-.83-.15-1.24-.23-.44-.08-.88-.17-1.32-.24-.08,0-.16-.02-.26-.03,0,0,0,0,0,0ZM137.86,52.34c.06,0,.12,0,.18.01.67.03,1.37-.01,2.11-.06.12,0,.24-.02.36-.02-1.26-.26-2.12-.4-2.6-.43-.04.14-.06.33-.06.5ZM137.69,52.33h0s0,0,0,0h0Z"/>
            </g>
            <path class="cls-13" d="M136.67,70.87c-1.58-.41-3.19-1.17-4.47-2.36-.95-.92-1.76-2.13-2.28-3.39-.59-1.54-.89-3.21-1.04-4.87-.22-2.29-.12-4.56.1-6.83.04-.39.14-2.67.14-3.06.14-1.84.4-3.68.87-5.45.25-.94.62-1.92,1.24-2.63.51-.55,1.28-.9,1.98-.97,1.43-.11,9.5-.48,10.9-.52.88,0,1.72.05,2.57.27.4.13.81.38,1.07.76.33.46.52,1.05.59,1.6.26,1.64-.33,4.23-1.65,4.93-.37.2-.81.3-1.21.29-1.21.04-2.46-.09-3.67-.3-.84-.15-3.82-.86-4.59-.55-.66.26-.88,1.42-.8,2.15.04.32.15.69.37.86.33.3.77.31,1.17.33,1.43.06,2.89-.2,4.36-.18.66-.01,1.39.14,1.87.66.88.99.59,3.26.11,4.47-.22.44-.51.92-.95,1.13-.48.26-1.03.26-1.58.22-1.36-.09-2.68-.42-4.03-.62-.44-.03-1.54-.21-1.87.13-.15.19-.15.51-.14.79.04.6.22,1.22.59,1.68.26.34.66.57,1.03.68.81.26,1.61.2,2.38.13,1.9-.22,3.66-1.12,5.53-1.48.62-.16,1.32-.15,1.98.06.48.2.95.62,1.28,1.11.37.66.7,1.36.88,2.09.51,1.65.77,3.45.48,5.06-.22,1.07-.73,2.02-1.42,2.7-1.02,1.01-2.45,1.46-3.8,1.75-2.56.52-5.34.06-7.98-.65Z"/>
            <g>
              <path class="cls-10" d="M114.16,70.08c-1.95-.77-3.83-2.16-5.08-3.87-1.55-2.14-2.36-4.78-2.59-7.33-.33-3.07.06-6.31,1.3-9.09.99-2.27,2.6-4.27,4.47-5.84,2.23-1.86,5.39-2.76,8.29-2.75,1.65.01,3.34.33,4.81,1.08.88.44,1.69,1.07,2.28,1.86.29.44.48.95.55,1.46.04.71-.14,1.45-.4,2.07-.44,1.05-1.13,1.93-1.9,2.64-.55.49-1.39.65-2.09.55-1.5-.28-2.87-1.21-4.34-1.59-1.14-.3-2.24-.09-3.23.53-1.1.66-1.9,1.85-2.31,3.05-.55,1.69-.32,3.7.34,5.35.26.65.66,1.2,1.14,1.68.66.6,1.51,1.06,2.35,1.26,1.4.38,2.97.24,4.18-.39.62-.31,1.13-.83,1.5-1.43-.77-.04-4.22-.22-4.99-.48-.22-.09-.44-.25-.55-.48-.22-.35-.26-.81-.33-1.24-.19-1.19-.26-3.25.76-3.75.96-.43,4.7.09,5.73.17.95.08,1.91-.08,2.86,0,.66.03,1.39.06,1.95.51.3.29.66,1.37.74,1.81.11.75.04,1.54.04,2.33.04,1.93.12,3.91-.06,5.82-.11,1.21-.32,2.42-.76,3.52-.29.72-.7,1.39-1.24,1.89-.51.46-1.24.67-1.94.85-.84.24-1.72.4-2.6.52-2.9.38-6.06.36-8.89-.73Z"/>
              <path class="cls-10" d="M119.82,72.48c-2.31,0-4.37-.35-6.18-1.05,0,0,0,0-.01,0-2.26-.89-4.34-2.48-5.72-4.36-2.03-2.8-2.67-5.93-2.86-8.06-.37-3.43.13-6.92,1.43-9.81,1.02-2.35,2.71-4.55,4.86-6.36,2.32-1.94,5.73-3.09,9.14-3.09.03,0,.06,0,.1,0,2.02.01,3.91.44,5.46,1.24,1.11.55,2.08,1.34,2.78,2.29.44.65.72,1.37.83,2.12,0,.04.01.09.01.13.06,1.07-.24,2.06-.5,2.7-.48,1.15-1.24,2.21-2.26,3.15-.35.31-.77.55-1.22.72.44-.02.9-.03,1.38.01.74.03,1.82.07,2.75.84.03.03.06.05.09.08.79.77,1.15,2.58,1.15,2.6.1.7.09,1.33.07,1.94,0,.21-.01.42-.01.63l.02.71c.04,1.72.08,3.49-.08,5.25-.13,1.52-.42,2.8-.86,3.92-.4,1-.94,1.82-1.61,2.43-.77.69-1.73.98-2.57,1.19-.77.22-1.66.4-2.76.55-1.19.16-2.33.23-3.42.23ZM114.69,68.73c2.2.85,4.95,1.07,8.17.64.95-.13,1.71-.28,2.4-.48.54-.14,1.1-.29,1.36-.53.33-.3.63-.78.87-1.36.34-.85.55-1.86.66-3.11.15-1.59.11-3.28.07-4.92l-.02-.75c0-.26,0-.5.01-.73.01-.51.02-.99-.04-1.41-.03-.19-.21-.7-.34-.96-.22-.09-.62-.11-.97-.12-.45-.03-.87-.02-1.31,0-.51.02-1.04.04-1.61,0-.2-.02-.49-.05-.85-.08-.82-.09-3.21-.34-4.06-.22-.11.3-.21,1.1-.04,2.22l.04.24c.02.12.04.28.07.38.34.06,1.38.19,4.22.35h.2c.51.04.97.33,1.2.79.24.45.22,1-.05,1.43-.53.87-1.25,1.55-2.09,1.97-1.5.78-3.46.97-5.21.49-1.02-.24-2.09-.8-2.95-1.58-.73-.72-1.21-1.43-1.52-2.22-.85-2.12-.99-4.43-.37-6.33.56-1.67,1.63-3.06,2.94-3.85,1.33-.84,2.84-1.08,4.34-.69.78.2,1.5.52,2.19.83.72.32,1.39.62,2.05.74.28.04.67-.05.86-.21.69-.64,1.21-1.36,1.53-2.12.2-.48.3-.96.29-1.36-.05-.29-.16-.57-.31-.79-.39-.53-1-1.02-1.72-1.38-1.18-.6-2.61-.92-4.18-.93h-.08c-2.75,0-5.46.9-7.27,2.41-1.81,1.52-3.22,3.35-4.07,5.3-1.09,2.44-1.51,5.41-1.19,8.36.22,2.53,1.05,4.88,2.32,6.64,1.05,1.44,2.67,2.67,4.43,3.37ZM118.45,50.61c-.49,0-.96.15-1.43.44-.74.45-1.37,1.29-1.7,2.28-.4,1.23-.28,2.87.31,4.35.17.42.43.81.82,1.19.05.04.1.09.16.13-.27-.49-.35-1.01-.41-1.39l-.04-.21c-.25-1.61-.37-4.38,1.55-5.32.86-.38,2.22-.38,4.46-.17-.46-.17-.89-.36-1.31-.55-.61-.27-1.19-.53-1.75-.67-.22-.06-.45-.09-.66-.09Z"/>
            </g>
            <g>
              <path class="cls-10" d="M114.17,72.59c-1.95-.78-3.83-2.18-5.08-3.89-1.55-2.15-2.36-4.79-2.59-7.34-.34-3.08.06-6.31,1.3-9.09.99-2.26,2.6-4.26,4.47-5.82,2.23-1.85,5.39-2.74,8.29-2.7,1.65.02,3.34.35,4.81,1.12.88.44,1.69,1.08,2.28,1.88.3.44.48.95.55,1.46.04.71-.15,1.45-.4,2.07-.44,1.04-1.13,1.92-1.9,2.63-.55.49-1.39.65-2.09.54-1.5-.29-2.87-1.23-4.34-1.62-1.14-.3-2.24-.11-3.23.51-1.1.65-1.91,1.84-2.31,3.04-.55,1.69-.32,3.7.34,5.36.26.66.66,1.21,1.14,1.69.66.6,1.51,1.07,2.35,1.27,1.4.38,2.98.25,4.18-.37.63-.31,1.13-.82,1.5-1.42-.77-.05-4.22-.25-4.99-.51-.22-.09-.44-.25-.55-.49-.22-.35-.26-.81-.33-1.24-.19-1.19-.26-3.25.76-3.75.95-.42,4.7.12,5.73.21.95.08,1.91-.07,2.86.02.66.03,1.39.07,1.95.53.3.29.66,1.37.74,1.81.11.75.04,1.54.04,2.33.04,1.93.12,3.91-.06,5.82-.11,1.21-.33,2.41-.76,3.51-.29.72-.69,1.39-1.24,1.89-.51.46-1.25.67-1.94.83-.84.23-1.72.39-2.6.5-2.9.36-6.06.33-8.89-.78Z"/>
              <path class="cls-10" d="M119.91,75.03c-2.34,0-4.41-.36-6.27-1.09,0,0,0,0-.01,0-2.26-.91-4.34-2.5-5.71-4.38-2.02-2.79-2.67-5.93-2.86-8.07-.38-3.42.13-6.92,1.42-9.81,1.02-2.34,2.71-4.54,4.86-6.34,2.35-1.94,5.81-3.05,9.24-3.04,2.02.03,3.91.47,5.46,1.28,1.11.56,2.08,1.36,2.78,2.31.44.65.72,1.37.82,2.12,0,.04.01.08.01.13.06,1.07-.24,2.06-.51,2.7-.48,1.15-1.24,2.2-2.26,3.14-.35.31-.77.55-1.22.71.45-.01.91-.02,1.4.02.74.04,1.82.09,2.75.86.03.02.06.05.08.08.71.69,1.1,2.31,1.15,2.6.1.69.09,1.32.07,1.92,0,.21-.01.43-.01.64l.02.65c.04,1.74.08,3.54-.08,5.31-.13,1.51-.42,2.79-.86,3.91-.41,1.01-.95,1.82-1.62,2.43-.76.69-1.73.96-2.58,1.17-.77.21-1.68.39-2.76.53-1.17.15-2.28.22-3.33.22ZM114.7,71.24c2.2.86,4.95,1.09,8.17.69.93-.12,1.72-.27,2.4-.46.43-.11,1.08-.26,1.36-.51.34-.31.63-.76.87-1.35.33-.84.55-1.86.66-3.1.15-1.61.11-3.32.07-4.98l-.02-.69c0-.27,0-.51.01-.75.01-.5.03-.98-.04-1.39-.03-.19-.21-.71-.34-.97-.22-.09-.62-.11-.98-.13-.45-.04-.87-.03-1.32,0-.51.02-1.04.04-1.6-.01-.2-.02-.49-.05-.83-.09-.83-.09-3.21-.37-4.06-.25-.11.3-.21,1.1-.03,2.21l.04.23c.02.12.05.29.07.4.33.06,1.36.2,4.22.37h.21c.51.04.96.34,1.2.79s.21.99-.05,1.43c-.53.87-1.26,1.54-2.1,1.96-1.5.77-3.46.95-5.21.46-1.03-.24-2.09-.81-2.95-1.6-.73-.73-1.21-1.44-1.51-2.23-.85-2.13-.99-4.44-.37-6.34.56-1.66,1.63-3.06,2.95-3.84,1.33-.83,2.84-1.07,4.34-.67.78.21,1.5.53,2.19.84.72.32,1.4.63,2.05.75.28.03.67-.04.85-.2.69-.64,1.21-1.35,1.53-2.1.2-.48.3-.96.29-1.36-.05-.29-.16-.57-.31-.79-.39-.53-1-1.03-1.73-1.4-1.17-.61-2.61-.94-4.18-.96-.05,0-.1,0-.15,0-2.72,0-5.4.88-7.19,2.37-1.81,1.51-3.22,3.33-4.06,5.28-1.09,2.44-1.51,5.41-1.19,8.35.23,2.54,1.05,4.89,2.32,6.65,1.05,1.45,2.67,2.68,4.44,3.39ZM118.43,53.14c-.48,0-.95.14-1.41.43-.75.44-1.37,1.28-1.7,2.27-.4,1.23-.28,2.86.31,4.36.17.42.43.81.82,1.2.04.04.09.08.14.12-.26-.49-.34-1-.41-1.39l-.03-.21c-.25-1.6-.38-4.38,1.56-5.31.85-.38,2.21-.37,4.44-.15-.46-.17-.89-.36-1.31-.55-.61-.27-1.19-.53-1.74-.68-.23-.06-.46-.09-.68-.09Z"/>
            </g>
            <path class="cls-1" d="M114.16,70.08c-1.95-.77-3.83-2.16-5.08-3.87-1.55-2.14-2.36-4.78-2.59-7.33-.33-3.07.06-6.31,1.3-9.09.99-2.27,2.6-4.27,4.47-5.84,2.23-1.86,5.39-2.76,8.29-2.75,1.65.01,3.34.33,4.81,1.08.88.44,1.69,1.07,2.28,1.86.29.44.48.95.55,1.46.04.71-.14,1.45-.4,2.07-.44,1.05-1.13,1.93-1.9,2.64-.55.49-1.39.65-2.09.55-1.5-.28-2.87-1.21-4.34-1.59-1.14-.3-2.24-.09-3.23.53-1.1.66-1.91,1.85-2.31,3.05-.55,1.69-.32,3.7.34,5.35.26.65.66,1.2,1.14,1.68.66.6,1.51,1.06,2.35,1.26,1.4.38,2.97.24,4.18-.39.62-.31,1.14-.83,1.5-1.43-.77-.04-4.22-.22-4.99-.48-.22-.09-.44-.25-.55-.48-.22-.35-.26-.81-.33-1.24-.19-1.19-.26-3.25.76-3.75.95-.43,4.7.09,5.73.17.95.08,1.91-.08,2.86,0,.66.03,1.39.06,1.95.51.3.29.66,1.37.74,1.81.11.75.04,1.54.04,2.33.04,1.93.12,3.91-.06,5.82-.11,1.21-.33,2.42-.76,3.52-.29.72-.69,1.39-1.24,1.89-.51.46-1.25.67-1.94.85-.84.24-1.72.4-2.6.52-2.9.38-6.06.36-8.89-.73Z"/>
            <g>
              <path class="cls-10" d="M84.54,68.96c-.48-.11-.99-.23-1.44-.52-.29-.18-.51-.51-.63-.81-.22-.59-.26-1.25-.26-1.87,0-5.71.51-11.61,2.68-16.91,1.1-2.63,3.23-5.09,5.8-6.4,3.12-1.57,6.83-1.39,9.81.55,2.13,1.42,3.79,3.74,4.71,6.18,1.66,4.35,2.22,9.13,2.45,13.78.04,1.24.34,4.77-.39,5.67-.88,1.04-4.15.96-5.55.87-.66-.03-1.32-.01-1.99-.22-.3-.08-.88-.33-.96-.63-.18-.67.36-3.46.4-4.13-.74.42-1.58.73-2.46.85-2.1.31-4.38-.18-6.33-1.05.11.63.48,2.95.3,3.53-.11.33-.41.62-.74.79-.48.29-1.07.39-1.66.45-1.25.13-2.5.12-3.75-.15ZM96.81,56.05c.66-.28,1.29-.79,1.69-1.37.36-.55.55-1.25.55-1.91-.04-1.78-1.18-4.2-2.87-4.62-1.43-.35-3.05.42-3.75,1.77-.44.88-.81,1.87-.88,2.86-.04.59,0,1.18.26,1.73.81,1.81,3.16,2.29,5,1.54Z"/>
              <path class="cls-10" d="M103.28,71.01c-.5,0-1.05-.02-1.65-.06h-.25c-.62-.03-1.33-.05-2.08-.29-.59-.17-1.68-.62-1.93-1.67-.13-.46-.1-1.11.04-2.27-.17.04-.33.06-.5.09-1.48.22-3.12.1-4.77-.33.1,1.25-.02,1.65-.08,1.81-.22.68-.74,1.26-1.43,1.63-.66.4-1.48.54-2.18.62-1.55.16-2.92.1-4.21-.17-.01,0-.02,0-.04,0l.33-1.41-.41,1.4c-.53-.13-1.2-.28-1.84-.71-.49-.31-.93-.86-1.18-1.5-.31-.83-.35-1.67-.35-2.39,0-4.56.29-11.34,2.79-17.46,1.27-3.05,3.69-5.72,6.48-7.15,3.64-1.83,7.85-1.6,11.26.63,2.27,1.51,4.19,4.02,5.28,6.89,1.87,4.91,2.34,10.18,2.54,14.22,0,.19.02.4.03.64.15,3.12.08,5.01-.75,6.02-.33.4-1.23,1.46-5.12,1.46ZM95.13,42.83c-1.28,0-2.57.3-3.78.91-2.19,1.12-4.1,3.24-5.11,5.67-2.3,5.64-2.57,12.04-2.57,16.36,0,.43.02.97.17,1.36.02.04.05.09.07.11.21.13.54.21.9.3l-.26,1.43.3-1.42c1,.21,2.08.25,3.31.12.36-.04.81-.11,1.06-.25.04-.02.06-.04.08-.05,0-.46-.12-1.57-.33-2.78-.09-.53.11-1.07.54-1.4.42-.33,1-.4,1.48-.18,1.91.85,3.86,1.19,5.52.94.67-.09,1.35-.33,1.96-.68.46-.26,1.03-.25,1.48.02.45.28.72.79.69,1.32-.01.24-.08.71-.16,1.27-.08.51-.21,1.44-.26,2.03.39.11.8.12,1.27.14h.3c2.41.16,3.94-.09,4.35-.33.18-.49.22-1.85.11-4.04-.01-.26-.02-.48-.03-.66-.19-3.8-.63-8.78-2.36-13.31-.88-2.32-2.39-4.32-4.16-5.49-1.4-.91-2.98-1.37-4.57-1.37ZM95.1,57.82c-1.88,0-3.77-.85-4.61-2.73-.42-.9-.42-1.81-.38-2.41.08-1.08.42-2.19,1.03-3.42,1-1.95,3.31-3.03,5.38-2.53,2.4.6,3.93,3.58,3.98,6,0,1.02-.28,1.98-.79,2.75-.57.83-1.41,1.51-2.33,1.9,0,0-.02,0-.03.01-.7.28-1.48.43-2.26.43ZM96.81,56.05h0,0ZM95.47,49.51c-.69,0-1.42.43-1.75,1.07-.43.85-.67,1.63-.72,2.3-.03.44.01.76.13,1.01.47,1.05,1.99,1.27,3.13.81.41-.18.81-.5,1.05-.86.18-.27.29-.68.29-1.09-.03-1.34-.94-3-1.77-3.21-.12-.03-.23-.04-.35-.04Z"/>
            </g>
            <g>
              <path class="cls-10" d="M84.54,71.38c-.48-.11-1-.23-1.44-.52-.29-.18-.51-.51-.63-.81-.22-.59-.26-1.25-.26-1.87,0-5.71.51-11.61,2.68-16.91,1.1-2.63,3.23-5.08,5.8-6.4,3.12-1.57,6.83-1.38,9.81.58,2.13,1.43,3.79,3.76,4.71,6.2,1.66,4.36,2.22,9.14,2.45,13.79.04,1.24.34,4.77-.39,5.67-.88,1.03-4.15.94-5.55.85-.66-.03-1.32-.02-1.99-.23-.3-.09-.88-.33-.96-.63-.18-.67.36-3.46.4-4.13-.73.42-1.58.73-2.46.85-2.1.31-4.38-.19-6.33-1.06.11.63.48,2.95.3,3.53-.11.33-.41.62-.74.79-.48.29-1.07.38-1.66.45-1.25.13-2.5.11-3.76-.15ZM96.81,58.49c.66-.28,1.29-.79,1.69-1.37.37-.55.55-1.25.55-1.91-.04-1.78-1.18-4.2-2.87-4.62-1.44-.35-3.05.41-3.75,1.76-.44.88-.81,1.87-.88,2.86-.03.59,0,1.18.26,1.73.81,1.81,3.16,2.29,5,1.55Z"/>
              <path class="cls-10" d="M103.34,73.47c-.52,0-1.09-.02-1.71-.06h-.24c-.62-.03-1.33-.05-2.09-.3-.58-.17-1.66-.62-1.92-1.66-.13-.47-.11-1.12.04-2.28-.17.03-.33.06-.5.09-1.48.22-3.12.09-4.77-.34.1,1.25-.02,1.64-.08,1.81-.23.68-.75,1.27-1.43,1.63-.67.4-1.49.54-2.19.62-1.54.16-2.92.1-4.21-.17-.01,0-.03,0-.04,0l.34-1.41-.41,1.39c-.53-.13-1.2-.28-1.83-.71-.49-.31-.93-.86-1.18-1.5-.31-.83-.35-1.67-.35-2.38,0-4.56.29-11.33,2.79-17.46,1.28-3.05,3.7-5.72,6.48-7.14,3.59-1.8,7.9-1.55,11.26.66,2.27,1.52,4.19,4.03,5.27,6.9,1.87,4.92,2.34,10.19,2.54,14.23l.03.63c.16,3.13.08,5.02-.75,6.03-.33.39-1.22,1.44-5.06,1.44ZM95.11,45.27c-1.28,0-2.56.3-3.76.9-2.18,1.12-4.1,3.23-5.11,5.66-2.31,5.64-2.57,12.04-2.57,16.35,0,.43.02.97.17,1.36.02.04.05.09.07.11.21.14.54.21.89.3l-.26,1.43.3-1.42c1,.21,2.08.25,3.31.13.38-.04.81-.11,1.06-.25.04-.02.07-.04.1-.06,0-.38-.14-1.61-.34-2.77-.09-.53.11-1.07.54-1.4.42-.33,1-.4,1.49-.18,1.91.86,3.87,1.2,5.53.95.67-.09,1.35-.33,1.95-.67.46-.26,1.03-.25,1.48.02.45.28.72.78.69,1.31-.01.24-.08.72-.16,1.28-.08.51-.21,1.43-.26,2.02.39.11.81.13,1.28.14h.3c2.53.18,3.96-.09,4.35-.32.18-.49.22-1.85.11-4.04-.01-.26-.02-.48-.03-.66-.19-3.81-.63-8.79-2.36-13.32-.88-2.32-2.39-4.33-4.16-5.51-1.4-.92-2.99-1.39-4.59-1.39ZM95.11,60.26c-1.88,0-3.78-.85-4.62-2.73-.42-.9-.42-1.81-.38-2.41.08-1.08.42-2.2,1.03-3.42,1.02-1.98,3.28-3.03,5.38-2.52,2.39.6,3.93,3.58,3.98,6,0,1.01-.28,1.98-.79,2.75-.57.82-1.41,1.5-2.33,1.89,0,0-.02,0-.03.01-.69.28-1.47.42-2.24.42ZM96.81,58.49h0,0ZM95.46,51.95c-.68,0-1.4.42-1.73,1.06-.43.85-.67,1.63-.72,2.3-.03.45.01.77.13,1.01.48,1.06,2,1.27,3.13.82.41-.18.81-.5,1.05-.85.18-.27.29-.68.29-1.08-.03-1.34-.94-3.01-1.77-3.22-.12-.03-.25-.04-.37-.04Z"/>
            </g>
            <path class="cls-4" d="M84.54,68.96c-.48-.11-.99-.23-1.44-.52-.29-.18-.51-.51-.63-.81-.22-.59-.26-1.25-.26-1.87,0-5.71.52-11.61,2.68-16.91,1.1-2.64,3.23-5.09,5.8-6.4,3.12-1.57,6.83-1.39,9.81.55,2.13,1.42,3.79,3.74,4.71,6.18,1.66,4.35,2.22,9.13,2.45,13.78.04,1.24.34,4.77-.39,5.67-.88,1.04-4.15.96-5.55.87-.66-.03-1.32-.02-1.99-.22-.29-.08-.88-.33-.96-.63-.18-.67.36-3.46.4-4.13-.73.42-1.58.73-2.46.85-2.1.31-4.38-.18-6.33-1.05.11.63.48,2.95.3,3.53-.11.33-.4.62-.74.79-.48.29-1.07.39-1.66.45-1.25.13-2.5.12-3.75-.15ZM96.81,56.05c.66-.28,1.29-.79,1.69-1.37.37-.55.55-1.25.55-1.91-.04-1.78-1.18-4.2-2.87-4.62-1.43-.34-3.05.42-3.75,1.77-.44.88-.81,1.87-.88,2.86-.04.59,0,1.18.26,1.73.81,1.81,3.16,2.28,5,1.54Z"/>
            <g>
              <path class="cls-10" d="M68.95,68.95c-.55.01-1.21.03-1.62-.33-.55-.43-.62-2.34-.7-3-.8-6.95-1.01-14.04-.19-20.98.11-.78.15-1.62.59-2.29.3-.41.81-.67,1.29-.78,1.65-.45,3.45-.37,5.18-.23.95.07,1.95.14,2.72.66,1.83,1.21.84,5.13.36,7.26-.63,2.71-1.07,5.47-1.44,8.22-.22,1.47-.41,2.97-.48,4.44-.07.92-.15,1.84.07,2.68.04.26.41.07.66.03,1.32-.23,2.61-.53,3.94-.68.81-.11,2.69-.19,3.27.44.59.66.74,1.72.66,2.64-.04.55-.29,1.24-.85,1.28-4.49.32-8.98.55-13.47.66Z"/>
              <path class="cls-10" d="M68.61,70.4c-.68,0-1.55-.08-2.25-.7-.83-.64-1.01-2.01-1.15-3.6l-.03-.34c-.9-7.8-.96-14.77-.19-21.3l.05-.38c.1-.75.21-1.69.77-2.53.51-.7,1.28-1.18,2.17-1.39,1.82-.49,3.78-.42,5.63-.26,1.09.08,2.32.18,3.4.9,2.58,1.7,1.62,5.95,1.04,8.48l-.07.3c-.54,2.33-.99,4.9-1.42,8.09-.26,1.71-.41,3.08-.47,4.32-.03.37-.06.71-.07,1.03.11-.02.22-.04.34-.07.9-.17,1.83-.36,2.79-.46.73-.11,3.33-.36,4.5.88,1.09,1.22,1.12,2.88,1.05,3.75-.1,1.48-.99,2.53-2.2,2.61-4.81.34-9.24.56-13.53.66h0l-.03-1.45.02,1.45c-.11,0-.23,0-.36,0ZM68.91,67.5l.04,1.45-.04-1.45c4.1-.1,8.33-.3,12.91-.62.04-.6-.05-1.16-.23-1.45-.33-.12-1.26-.17-2.06-.05-.88.1-1.71.26-2.6.43-.43.08-.86.17-1.29.24-.37.1-1.03.27-1.65-.14-.35-.23-.59-.59-.68-1-.27-1.06-.18-2.14-.11-3.09.07-1.32.22-2.78.49-4.56.44-3.26.9-5.91,1.46-8.33l.07-.3c.27-1.19,1.1-4.82.19-5.42-.46-.3-1.21-.36-2.01-.42-1.62-.14-3.28-.2-4.71.18-.29.07-.46.18-.49.23-.14.22-.21.72-.27,1.24l-.05.4c-.74,6.27-.67,13.03.2,20.61l.04.41c.03.32.1,1.19.22,1.63.17.01.41,0,.57,0ZM82.32,66.84s0,0-.01,0c0,0,0,0,.01,0Z"/>
            </g>
            <g>
              <path class="cls-10" d="M68.95,71.38c-.55.01-1.22.03-1.62-.32-.55-.43-.62-2.34-.7-3-.8-6.95-1.01-14.04-.19-20.98.11-.78.15-1.62.59-2.29.29-.41.81-.67,1.29-.78,1.65-.45,3.45-.38,5.18-.24.95.07,1.95.14,2.72.65,1.83,1.21.84,5.13.36,7.26-.62,2.71-1.07,5.47-1.44,8.22-.22,1.47-.4,2.97-.48,4.44-.07.92-.15,1.84.07,2.68.04.26.4.07.66.03,1.32-.23,2.61-.54,3.94-.69.81-.11,2.69-.19,3.28.44.59.66.74,1.72.66,2.64-.04.55-.29,1.24-.85,1.28-4.49.32-8.98.55-13.47.67Z"/>
              <path class="cls-10" d="M68.59,72.84c-.68,0-1.54-.08-2.22-.69-.82-.63-1.01-1.99-1.14-3.57l-.03-.36c-.9-7.81-.96-14.78-.19-21.31l.05-.4c.09-.75.21-1.68.77-2.52.5-.69,1.27-1.18,2.16-1.39,1.82-.5,3.79-.42,5.63-.27,1.09.08,2.32.17,3.4.89,2.59,1.7,1.62,5.95,1.04,8.49l-.07.29c-.54,2.33-.99,4.91-1.42,8.09-.25,1.67-.41,3.08-.47,4.32-.03.36-.06.71-.07,1.03.11-.02.22-.04.33-.06.9-.18,1.84-.36,2.8-.47.73-.1,3.32-.36,4.5.88,1.08,1.21,1.12,2.87,1.05,3.75-.1,1.48-.99,2.54-2.2,2.61-4.82.34-9.25.56-13.53.67l-.04-1.45.04,1.45-.04-1.45.03,1.45c-.12,0-.25,0-.39,0ZM68.33,69.93c.17.01.41,0,.57,0h0c4.09-.1,8.32-.31,12.91-.63.05-.68-.08-1.19-.24-1.45-.33-.12-1.26-.17-2.05-.05-.88.1-1.72.26-2.61.44-.42.08-.85.17-1.28.24-.37.1-1.03.27-1.66-.14-.35-.23-.59-.59-.68-1-.27-1.07-.18-2.15-.1-3.11.07-1.3.23-2.79.49-4.54.44-3.26.9-5.91,1.46-8.33l.07-.29c.27-1.19,1.1-4.83.19-5.43-.46-.3-1.25-.36-2.01-.42-1.61-.13-3.27-.2-4.7.19-.29.07-.46.18-.49.23-.15.22-.21.71-.27,1.23l-.06.42c-.74,6.27-.67,13.02.2,20.6.01.12.03.27.04.44.03.31.1,1.17.22,1.6ZM68.22,69.91h0s0,0,0,0t0,0ZM82.32,69.27s0,0-.01,0c0,0,0,0,.01,0Z"/>
            </g>
            <path class="cls-3" d="M68.95,68.95c-.55.01-1.21.03-1.62-.33-.55-.43-.62-2.34-.7-3-.8-6.95-1.01-14.04-.19-20.98.11-.77.15-1.62.59-2.29.3-.41.81-.67,1.29-.78,1.65-.45,3.45-.37,5.18-.23.96.07,1.94.14,2.72.66,1.83,1.21.84,5.13.36,7.26-.63,2.71-1.07,5.47-1.44,8.22-.22,1.47-.41,2.97-.48,4.44-.07.92-.15,1.83.07,2.68.04.26.41.07.66.03,1.33-.23,2.61-.53,3.94-.68.81-.11,2.68-.19,3.27.44.59.66.74,1.72.66,2.64-.04.55-.3,1.24-.85,1.28-4.49.32-8.98.55-13.47.66Z"/>
            <g class="cls-8">
              <path class="cls-9" d="M69.97,67.95c-.06.17-.32.29-.75.28-.41-.01-1.02-.18-1.5-.64-.48-.47-.6-1.05-.5-1.45.1-.41.36-.59.56-.55.2.04.33.23.49.44.16.21.35.47.58.7.46.47,1.23.88,1.11,1.24Z"/>
            </g>
            <g>
              <path class="cls-10" d="M52.14,69.62c-.55.03-1.21.07-1.62-.28-.55-.42-.62-2.38-.69-3.06-.79-7.09-1-14.38-.17-21.49.11-.8.15-1.66.59-2.35.29-.42.81-.68,1.29-.8,1.65-.46,3.45-.39,5.18-.25.95.07,1.95.14,2.72.66,1.83,1.22.84,5.19.35,7.36-.63,2.76-1.07,5.56-1.45,8.36-.22,1.5-.41,3.03-.49,4.52-.08.93-.15,1.87.07,2.72.04.26.4.06.66.01,1.33-.27,2.61-.61,3.94-.8.81-.14,2.69-.26,3.27.35.59.65.74,1.71.66,2.64-.04.55-.3,1.26-.85,1.32-4.49.47-8.98.85-13.46,1.1Z"/>
              <path class="cls-10" d="M51.62,71.09c-.64,0-1.39-.1-2.02-.63-.87-.7-1.05-2.08-1.18-3.67l-.03-.35c-.88-7.87-.94-15.21-.17-21.81l.05-.41c.09-.76.21-1.71.76-2.56.5-.71,1.28-1.21,2.17-1.42,1.81-.51,3.78-.44,5.64-.29,1.08.08,2.32.17,3.4.9,2.58,1.71,1.61,6,1.03,8.56l-.07.32c-.54,2.35-.99,4.97-1.43,8.24-.25,1.71-.41,3.14-.47,4.41-.03.35-.06.7-.07,1.03.1-.02.2-.04.29-.07.9-.2,1.83-.41,2.79-.55.73-.12,3.34-.45,4.53.79.81.89,1.18,2.25,1.06,3.76-.1,1.45-.96,2.52-2.15,2.64-4.86.5-9.28.87-13.52,1.11h0l-.08-1.45.07,1.45c-.18.01-.38.02-.59.02ZM52.05,68.17l.09,1.45-.08-1.45c4.06-.23,8.3-.57,12.94-1.05,0,0,0,0,0-.01.06-.69-.06-1.21-.22-1.47-.34-.1-1.25-.12-2.02,0-.88.12-1.71.31-2.59.51-.43.1-.86.19-1.29.28-.37.11-1.04.31-1.68-.11-.36-.23-.6-.59-.69-1.01-.27-1.08-.18-2.18-.1-3.15.07-1.32.23-2.84.5-4.62.45-3.34.91-6.04,1.47-8.47l.07-.31c.27-1.21,1.1-4.9.19-5.51-.46-.3-1.21-.36-2.01-.42-1.6-.13-3.26-.2-4.69.2-.29.07-.46.19-.49.24-.16.24-.22.75-.29,1.29l-.06.43c-.73,6.34-.67,13.47.18,21.13.01.12.03.26.04.43.03.32.1,1.18.21,1.64.15,0,.37,0,.52-.02ZM65.45,67.08s0,0-.01,0c0,0,0,0,.01,0Z"/>
            </g>
            <g>
              <path class="cls-10" d="M52.13,72.11c-.55.03-1.21.08-1.62-.28-.55-.42-.62-2.38-.69-3.05-.79-7.09-1-14.37-.17-21.49.11-.8.15-1.67.59-2.35.29-.42.81-.69,1.29-.81,1.65-.47,3.45-.41,5.18-.27.95.07,1.95.13,2.72.65,1.83,1.21.84,5.19.35,7.36-.63,2.76-1.08,5.56-1.45,8.37-.22,1.5-.41,3.03-.49,4.52-.08.93-.15,1.87.07,2.72.04.26.4.06.66,0,1.32-.28,2.61-.62,3.94-.82.81-.14,2.69-.27,3.27.34.59.65.73,1.71.66,2.64-.04.55-.3,1.26-.85,1.32-4.49.48-8.98.87-13.46,1.15Z"/>
              <path class="cls-10" d="M51.6,73.59c-.64,0-1.4-.1-2.03-.65-.83-.63-1.02-2.02-1.15-3.64l-.03-.35c-.88-7.84-.94-15.19-.17-21.81l.05-.4c.09-.77.21-1.72.76-2.57.49-.71,1.27-1.21,2.16-1.43,1.82-.52,3.79-.46,5.64-.31,1.09.08,2.32.16,3.41.89,2.58,1.7,1.61,6,1.03,8.57l-.07.31c-.54,2.37-.99,4.99-1.43,8.24-.26,1.75-.41,3.15-.47,4.41-.03.36-.06.7-.07,1.02.09-.02.18-.04.27-.06.91-.21,1.85-.42,2.81-.56.73-.13,3.34-.46,4.53.77,1.09,1.2,1.13,2.87,1.06,3.76-.09,1.46-.96,2.53-2.15,2.65-4.88.52-9.3.89-13.52,1.15h0l-.09-1.45.08,1.45c-.18.01-.39.02-.61.02ZM52.04,70.67l.1,1.45-.09-1.45c4.05-.25,8.29-.61,12.95-1.1,0,0,0,0,0-.01.05-.69-.07-1.22-.22-1.47-.34-.1-1.25-.12-2.02.02-.89.13-1.73.32-2.62.52-.42.1-.84.19-1.26.28-.37.11-1.04.31-1.68-.1-.36-.23-.61-.59-.7-1.01-.27-1.08-.18-2.18-.1-3.15.06-1.31.22-2.79.5-4.62.44-3.32.91-6.02,1.47-8.48l.07-.3c.27-1.21,1.11-4.91.19-5.52-.45-.3-1.21-.36-2.01-.41-1.6-.12-3.26-.18-4.69.22-.29.07-.46.19-.49.24-.16.25-.22.77-.29,1.31l-.05.41c-.74,6.38-.68,13.5.18,21.13.01.12.03.26.04.43.03.32.1,1.17.21,1.63.16,0,.37,0,.52-.02ZM65.44,69.52s0,0-.01,0c0,0,0,0,.01,0Z"/>
            </g>
            <path class="cls-15" d="M52.14,69.62c-.55.03-1.21.07-1.62-.28-.55-.42-.62-2.38-.69-3.06-.79-7.09-1-14.38-.17-21.49.11-.79.15-1.66.59-2.35.3-.42.81-.68,1.29-.8,1.65-.46,3.45-.39,5.18-.25.95.07,1.95.14,2.72.66,1.83,1.22.84,5.19.35,7.36-.63,2.76-1.07,5.56-1.45,8.36-.22,1.5-.41,3.03-.49,4.52-.08.93-.15,1.87.07,2.72.04.26.4.06.66.01,1.32-.27,2.61-.61,3.94-.8.81-.14,2.69-.26,3.27.35.59.65.73,1.71.66,2.64-.04.55-.3,1.26-.85,1.32-4.49.47-8.98.85-13.46,1.1Z"/>
            <g>
              <path class="cls-10" d="M38.67,69.48c-.7-.84-.73-2.19-.76-3.35-.1-5.66.03-11.34.44-17.02.11-1.48.15-2.95.27-4.43.08-1.01.23-2.17.85-2.99,1.1-1.4,4.67-1.53,6.39-1.23.73.15,1.5.34,2.13.79.44.38.73.98.8,1.55.07.53.07,1.06.03,1.59-.11,1.93-.34,3.87-.53,5.8-.15,1.33-.75,8.9-.79,10.23-.04.87-.05,5.58-.16,6.42-.08.57-.26,1.19-.59,1.71-.4.6-1.03,1.02-1.69,1.26-1.8.69-5.22,1.09-6.39-.33Z"/>
              <path class="cls-10" d="M41.59,71.9c-1.58,0-3.12-.39-4.04-1.49-1.01-1.21-1.06-2.87-1.1-4.2-.1-6,.05-11.77.45-17.21.06-.73.09-1.45.13-2.17.04-.76.08-1.51.14-2.27.09-1.24.3-2.66,1.15-3.76,1.64-2.08,5.95-2.09,7.79-1.78.89.18,1.87.42,2.73,1.04.03.02.06.05.09.07.69.59,1.18,1.52,1.3,2.47.08.57.09,1.19.04,1.88-.09,1.47-.24,2.97-.39,4.42l-.14,1.42c-.16,1.39-.75,8.89-.79,10.13-.01.31-.02,1.04-.04,1.91-.03,2.35-.06,4.06-.14,4.66-.08.6-.28,1.48-.81,2.3-.57.84-1.42,1.48-2.42,1.84-1.03.4-2.5.72-3.96.72ZM44.14,41.77c-1.54,0-3.15.33-3.53.81-.37.48-.48,1.38-.54,2.2-.06.74-.09,1.46-.13,2.2-.04.74-.08,1.49-.13,2.23-.39,5.34-.54,11.03-.44,16.88.03.86.06,2.01.43,2.45,0,0,0,0,0,0,.46.56,2.89.61,4.75-.1.46-.16.81-.42,1.01-.71.16-.26.3-.65.36-1.08.06-.47.09-2.88.11-4.31.01-.91.02-1.68.04-1.98.04-1.41.66-9.05.8-10.33l.14-1.41c.15-1.42.29-2.89.38-4.32.04-.51.03-.93-.02-1.3-.03-.23-.14-.48-.28-.61-.39-.26-.96-.39-1.51-.5-.44-.08-.93-.11-1.43-.11Z"/>
            </g>
            <g>
              <path class="cls-10" d="M38.67,72.04c-.69-.83-.73-2.19-.76-3.35-.1-5.66.03-11.34.44-17.02.11-1.48.15-2.95.27-4.43.08-1.01.22-2.18.85-3,1.11-1.41,4.66-1.56,6.39-1.27.73.15,1.5.33,2.13.78.44.37.73.98.8,1.54.07.53.07,1.06.03,1.59-.12,1.93-.34,3.87-.53,5.81-.15,1.33-.75,8.9-.79,10.23-.04.88-.05,5.58-.16,6.42-.07.57-.26,1.19-.59,1.71-.41.6-1.03,1.02-1.69,1.27-1.8.7-5.22,1.12-6.39-.29Z"/>
              <path class="cls-10" d="M41.54,74.44c-1.56,0-3.08-.38-3.99-1.47-1.01-1.21-1.06-2.88-1.1-4.21-.1-5.97.05-11.74.45-17.19.05-.73.09-1.45.13-2.17.04-.75.08-1.51.14-2.27.09-1.24.3-2.66,1.14-3.77,1.63-2.09,5.95-2.13,7.78-1.82.89.18,1.87.41,2.74,1.03.03.02.06.05.09.07.7.6,1.18,1.52,1.3,2.47.08.56.09,1.18.04,1.87-.09,1.47-.24,2.97-.39,4.42l-.14,1.42c-.16,1.39-.75,8.9-.79,10.14-.01.31-.02,1.05-.04,1.93-.03,2.35-.06,4.05-.14,4.64-.08.59-.28,1.47-.81,2.3-.57.84-1.42,1.48-2.42,1.85-1.04.41-2.54.75-4.01.75ZM44.21,44.3c-1.56,0-3.22.34-3.61.84-.37.49-.48,1.39-.55,2.21-.06.74-.09,1.47-.13,2.2-.04.74-.08,1.49-.13,2.23-.39,5.36-.54,11.04-.44,16.88.02.85.06,2,.42,2.44h0c.46.56,2.89.59,4.74-.13.46-.17.81-.42,1.02-.73.16-.26.3-.66.35-1.08.06-.47.09-2.87.11-4.31.01-.92.02-1.69.04-2,.04-1.4.66-9.05.8-10.33l.14-1.41c.14-1.42.29-2.89.38-4.32.04-.51.03-.93-.02-1.3-.03-.23-.14-.47-.27-.6-.39-.25-.96-.38-1.5-.49-.42-.07-.88-.1-1.36-.1Z"/>
            </g>
            <path class="cls-6" d="M38.67,69.48c-.7-.84-.73-2.19-.76-3.35-.1-5.66.03-11.34.44-17.02.11-1.48.15-2.95.27-4.43.08-1.01.22-2.17.85-2.99,1.1-1.4,4.67-1.53,6.39-1.23.73.15,1.51.34,2.13.79.44.38.73.98.8,1.55.07.53.07,1.06.03,1.59-.11,1.93-.34,3.87-.53,5.8-.15,1.33-.76,8.9-.79,10.23-.04.87-.05,5.58-.16,6.42-.08.57-.26,1.19-.59,1.71-.4.6-1.03,1.02-1.69,1.26-1.8.69-5.22,1.09-6.39-.33Z"/>
            <path class="cls-11" d="M39.51,46.67c-.2,0-.41-.33-.53-.9-.11-.57-.16-1.4.16-2.34.16-.47.42-.91.76-1.24.33-.33.7-.57,1.04-.69.68-.24,1.12-.16,1.17,0,.07.19-.24.43-.6.79-.36.36-.72.83-.95,1.53-.24.69-.37,1.42-.52,1.95-.15.54-.32.89-.53.9Z"/>
            <g>
              <path class="cls-10" d="M21.78,70.08c-1.68-1.12-2.81-3.14-3.76-5.12-1.94-4.07-3.32-8.57-4.28-13.27-.04-.04-.04-.08-.04-.12-.66-2.19-1.25-4.49-1.24-6.82,0-.72.04-1.48.33-2.16.18-.38.48-.68.77-.94,1.43-1.11,3.89-.99,5.1.39.44.53.66,1.31.84,2.05.77,3.23,1.39,6.53,2.81,9.35.88,1.87,3.11,3.63,4.98,2.92.77-.32,1.43-1.08,1.91-1.82.7-1.19,1.22-2.52,1.44-3.88.26-1.32,1.15-7.63,1.63-8.86.81-1.91,3.42-2.61,4.92-1.29.33.31.59.7.73,1.16.44,1.43-.53,6.69-.83,8.22-.82,4.03-1.93,8.02-3.33,11.97-.67,1.97-1.44,3.96-2.62,5.68-1.07,1.63-2.76,3.07-4.51,3.42-1.69.38-3.48.01-4.87-.9Z"/>
              <path class="cls-10" d="M25.29,72.58c-1.5,0-3.02-.44-4.31-1.29,0,0,0,0-.01,0-1.97-1.32-3.22-3.51-4.27-5.69-1.87-3.92-3.33-8.44-4.35-13.43-.04-.09-.06-.2-.08-.31-.66-2.22-1.27-4.62-1.26-7.1,0-.88.06-1.82.45-2.73.33-.7.79-1.14,1.15-1.46,2.15-1.67,5.46-1.4,7.15.53.66.8.94,1.79,1.16,2.65.12.51.24,1.01.35,1.51.63,2.73,1.22,5.31,2.35,7.54.63,1.34,2.17,2.6,3.17,2.22.33-.14.8-.61,1.21-1.25.61-1.04,1.04-2.21,1.23-3.32.08-.42.21-1.2.36-2.15.54-3.39.99-6.06,1.36-7,.6-1.4,1.84-2.42,3.34-2.77,1.44-.33,2.85,0,3.89.91.57.53.95,1.13,1.16,1.82.38,1.26.12,4.26-.79,8.93-.83,4.09-1.97,8.19-3.39,12.17-.63,1.88-1.47,4.09-2.78,6.01-1.38,2.11-3.42,3.63-5.43,4.02-.54.12-1.08.18-1.64.18ZM22.58,68.87c1.1.71,2.5.97,3.75.69,1.26-.25,2.67-1.34,3.61-2.79,1.13-1.66,1.88-3.63,2.46-5.35,1.38-3.88,2.48-7.84,3.28-11.79.8-4.12,1.04-6.9.86-7.51-.06-.2-.17-.37-.34-.53-.29-.25-.77-.36-1.29-.23-.6.14-1.09.52-1.3,1.03-.27.68-.88,4.52-1.18,6.36-.16,1-.29,1.81-.37,2.2-.23,1.42-.79,2.94-1.61,4.33-.55.86-1.42,1.93-2.6,2.42-2.72,1.03-5.66-1.09-6.86-3.64-1.27-2.51-1.93-5.38-2.57-8.16-.11-.49-.23-.98-.34-1.47-.1-.39-.28-1.13-.55-1.46-.65-.74-2.22-.85-3.09-.17-.08.07-.27.25-.35.42-.17.39-.18,1-.19,1.53,0,2.15.57,4.35,1.18,6.4,0,.02.01.04.02.07.02.06.04.12.05.19.98,4.83,2.38,9.18,4.16,12.93.87,1.8,1.86,3.6,3.25,4.53ZM14.8,50.71s0,0,0,0c0,0,0,0,0,0Z"/>
            </g>
            <g>
              <path class="cls-10" d="M21.77,72.79c-1.68-1.11-2.81-3.11-3.76-5.08-1.94-4.05-3.33-8.53-4.27-13.22-.04-.04-.04-.08-.04-.12-.66-2.19-1.25-4.48-1.24-6.8,0-.72.04-1.48.33-2.16.18-.38.48-.69.77-.94,1.43-1.13,3.89-1.03,5.1.34.44.53.66,1.3.84,2.04.77,3.22,1.39,6.52,2.81,9.32.88,1.87,3.11,3.6,4.98,2.88.77-.33,1.43-1.09,1.91-1.83.7-1.19,1.22-2.53,1.44-3.89.26-1.33,1.15-7.64,1.63-8.87.81-1.91,3.42-2.63,4.92-1.33.33.31.59.69.73,1.16.44,1.43-.53,6.69-.83,8.22-.82,4.04-1.93,8.04-3.33,11.99-.66,1.97-1.44,3.97-2.62,5.7-1.07,1.64-2.75,3.09-4.51,3.46-1.68.39-3.48.04-4.87-.85Z"/>
              <path class="cls-10" d="M25.23,75.25c-1.48,0-2.97-.43-4.24-1.25,0,0,0,0,0,0-1.98-1.3-3.22-3.49-4.27-5.66-1.87-3.92-3.34-8.42-4.35-13.39-.04-.1-.06-.2-.08-.3-.66-2.22-1.27-4.61-1.27-7.09,0-.88.06-1.82.45-2.73.34-.71.81-1.17,1.14-1.46,2.15-1.69,5.46-1.45,7.15.47.66.79.95,1.78,1.16,2.65.12.5.23.99.34,1.48.63,2.73,1.22,5.31,2.35,7.54.62,1.33,2.16,2.57,3.16,2.18.33-.14.79-.61,1.22-1.27.61-1.04,1.04-2.21,1.23-3.33.08-.42.21-1.21.36-2.18.54-3.38.98-6.05,1.35-6.98.6-1.41,1.85-2.44,3.36-2.79,1.43-.33,2.84,0,3.87.89.57.54.95,1.13,1.17,1.82.38,1.25.12,4.25-.79,8.93-.83,4.1-1.97,8.2-3.38,12.2-.63,1.88-1.46,4.08-2.78,6.03-1.38,2.12-3.41,3.65-5.42,4.06-.56.13-1.13.19-1.7.19ZM22.56,71.57c1.09.7,2.49.95,3.75.66,1.26-.26,2.67-1.37,3.62-2.83,1.14-1.68,1.88-3.66,2.46-5.37,1.38-3.89,2.48-7.86,3.28-11.82.8-4.13,1.04-6.91.86-7.51-.06-.19-.17-.37-.34-.52-.42-.36-1.03-.28-1.27-.22-.6.14-1.1.54-1.32,1.05-.27.68-.88,4.51-1.17,6.35-.16,1.01-.29,1.84-.37,2.23-.23,1.42-.79,2.94-1.61,4.34-.56.86-1.42,1.93-2.59,2.44-2.72,1.06-5.67-1.04-6.87-3.59-1.27-2.5-1.93-5.38-2.57-8.16-.11-.48-.22-.96-.34-1.45-.1-.39-.28-1.13-.54-1.44-.65-.74-2.22-.82-3.09-.13-.08.07-.28.26-.36.43-.17.4-.19,1-.19,1.53,0,2.16.57,4.34,1.18,6.38,0,.02.01.05.02.08.02.06.04.12.05.18.97,4.8,2.37,9.14,4.16,12.89.82,1.7,1.85,3.57,3.25,4.49ZM14.81,53.51h0s0,0,0,0Z"/>
            </g>
            <path class="cls-12" d="M21.78,70.08c-1.68-1.12-2.81-3.14-3.76-5.12-1.94-4.07-3.32-8.57-4.28-13.27-.04-.04-.04-.08-.04-.12-.66-2.19-1.24-4.49-1.24-6.82,0-.72.04-1.48.33-2.16.18-.38.48-.68.77-.94,1.43-1.11,3.89-.99,5.1.39.44.53.66,1.31.84,2.05.77,3.23,1.39,6.53,2.81,9.35.88,1.87,3.11,3.63,4.98,2.92.77-.32,1.43-1.08,1.91-1.82.7-1.19,1.22-2.52,1.44-3.87.26-1.32,1.15-7.63,1.63-8.86.81-1.91,3.42-2.61,4.92-1.29.33.31.59.7.73,1.16.44,1.43-.53,6.69-.83,8.22-.82,4.03-1.93,8.02-3.33,11.96-.66,1.97-1.44,3.95-2.62,5.68-1.07,1.63-2.76,3.07-4.51,3.42-1.69.38-3.48.01-4.87-.9Z"/>
            <path class="cls-11" d="M14.7,49.74c-.17.1-.62-.27-1.06-1.08-.43-.8-.82-2.04-.84-3.48,0-.72.09-1.45.37-2.1.26-.64.76-1.19,1.27-1.42.51-.26,1.02-.25,1.31-.12.29.13.38.3.33.38-.05.1-.2.12-.4.19-.19.06-.43.19-.67.42-.24.24-.43.55-.55,1-.13.44-.18.99-.17,1.6.01,2.47.78,4.39.41,4.61Z"/>
            <path class="cls-11" d="M33.08,43.51c-.2-.05-.32-.28-.35-.63-.02-.35.05-.86.4-1.38.36-.54.98-.88,1.49-.89.25-.01.46.06.57.14.12.09.15.19.13.28-.05.19-.25.32-.4.5-.15.18-.34.39-.54.69-.21.31-.42.66-.65.92-.22.26-.46.42-.66.37Z"/>
            <path class="cls-11" d="M51.12,47.15c-.2,0-.41-.32-.53-.88-.11-.56-.16-1.37.16-2.28.16-.45.42-.88.76-1.21.33-.32.7-.56,1.04-.67.67-.24,1.12-.15,1.18,0,.07.18-.24.42-.6.77-.36.35-.72.81-.95,1.49-.24.67-.37,1.38-.52,1.9-.15.52-.32.86-.53.87Z"/>
            <path class="cls-11" d="M67.36,46.95c-.2,0-.41-.32-.53-.86-.11-.55-.16-1.34.15-2.23.16-.44.42-.86.75-1.18.33-.31.7-.54,1.04-.65.67-.23,1.12-.14,1.18.01.07.18-.24.41-.6.75-.36.34-.72.79-.95,1.45-.24.66-.37,1.35-.52,1.86-.15.51-.32.84-.53.85Z"/>
            <path class="cls-11" d="M87.78,46.91c-.17-.09-.12-.5.19-1.07.32-.57.92-1.3,1.78-1.92.86-.63,1.81-1.02,2.53-1.17.72-.16,1.2-.11,1.26.06.12.35-1.34,1-2.83,2.1-1.5,1.08-2.57,2.19-2.94,2.01Z"/>
            <path class="cls-11" d="M86.11,49.44c-.2-.02-.38-.15-.47-.39-.08-.23-.07-.56.1-.87.17-.31.46-.54.72-.62.27-.09.51-.05.64.08.14.13.17.32.16.51-.01.19-.07.39-.18.58-.11.2-.25.37-.42.5-.17.13-.36.22-.57.2Z"/>
            <path class="cls-11" d="M110.91,47.48c-.17-.09-.14-.53.18-1.15.32-.62.94-1.41,1.85-2.08.91-.68,1.91-1.08,2.68-1.23.76-.15,1.27-.08,1.32.1.09.37-1.48.98-3.03,2.16-1.58,1.15-2.62,2.39-3,2.21Z"/>
            <path class="cls-11" d="M118.66,55.91c-.19.06-.46-.08-.59-.44-.12-.35-.07-.89.39-1.32.47-.43,1.13-.47,1.5-.34.38.13.52.36.47.54-.05.18-.25.3-.43.42-.19.12-.33.24-.46.36-.13.11-.28.28-.42.43-.14.15-.27.31-.47.37Z"/>
            <path class="cls-11" d="M131.11,46.92c-.2-.01-.39-.36-.48-.97-.08-.6-.06-1.47.38-2.39.22-.46.54-.85.91-1.16.42-.34.9-.48,1.3-.49.4-.01.72.11.89.23.17.13.22.26.19.34-.09.18-.47.19-.86.39-.2.1-.39.24-.55.44-.19.23-.37.51-.53.84-.32.66-.51,1.36-.69,1.89-.17.52-.36.88-.57.87Z"/>
            <path class="cls-11" d="M147.53,60.92c-.19.05-.41,0-.59-.03-.18-.04-.34-.07-.48-.13-.14-.06-.32-.16-.51-.28-.18-.12-.36-.28-.41-.48-.05-.2.03-.41.26-.56.23-.15.65-.23,1.13-.03.48.2.78.61.84.92.07.33-.07.53-.25.58Z"/>
            <path class="cls-11" d="M146.83,43.07c-.2.04-.41-.02-.58-.07-.18-.06-.32-.13-.44-.21-.12-.09-.18-.2-.28-.34-.08-.14-.22-.3-.26-.5-.04-.19.06-.41.36-.52.29-.11.74-.05,1.09.22.35.27.5.65.48.93-.02.29-.17.46-.37.5Z"/>
            <path class="cls-11" d="M128.29,56.28c-.19.06-.41.01-.6-.07-.2-.08-.37-.19-.52-.33-.15-.14-.25-.3-.33-.47-.07-.17-.13-.36-.08-.55.05-.18.24-.31.52-.31.28,0,.65.13.93.4.28.27.41.6.4.85,0,.25-.14.42-.33.48Z"/>
            <path class="cls-11" d="M98.3,56.49c-.27-.28.18-.99.69-1.81.53-.81,1.02-1.53,1.43-1.45.2.04.33.3.34.69,0,.39-.13.91-.46,1.42-.32.51-.76.88-1.15,1.08-.39.2-.71.22-.85.08Z"/>
            <path class="cls-11" d="M82.29,65.53c-.2.05-.4.03-.57.02-.17-.01-.3-.03-.42-.09-.23-.13-.62-.48-.51-.83.05-.17.2-.31.42-.38.22-.07.54-.06.87.11.34.17.53.47.54.72.01.25-.13.41-.33.46Z"/>
            <path class="cls-11" d="M65.54,65.74c-.2.06-.4.04-.57.04-.17,0-.3-.02-.42-.08-.23-.12-.62-.47-.51-.82.05-.17.2-.32.42-.39.22-.07.53-.08.87.08.34.16.53.46.54.71.02.25-.14.41-.33.47Z"/>
            <path class="cls-11" d="M27.5,58.27c-.24-.32.55-1.2,1.36-2.24.39-.5.74-.96,1.04-1.35.29-.36.53-.59.73-.56.19.03.31.36.25.87-.06.51-.34,1.19-.84,1.83-.5.64-1.1,1.09-1.58,1.33-.48.24-.85.28-.96.13Z"/>
            <g class="cls-8">
              <path class="cls-9" d="M25.85,69.81c-.04-.2.45-.49,1.1-1.03.65-.54,1.47-1.35,2.24-2.37.77-1.02,1.4-2.04,1.93-2.75.52-.72.93-1.14,1.11-1.07.18.07.11.61-.18,1.44-.29.82-.81,1.96-1.68,3.12-.87,1.17-2,2.05-2.93,2.46-.93.42-1.57.38-1.6.2Z"/>
            </g>
            <g class="cls-8">
              <path class="cls-9" d="M44.36,68.94c-.25-.3.38-1,.9-1.62.26-.32.47-.61.65-.85.19-.23.35-.43.56-.46.2-.03.42.17.48.57.06.4-.09.97-.51,1.47-.41.5-.91.78-1.29.91-.38.13-.67.11-.78-.03Z"/>
            </g>
            <g class="cls-8">
              <path class="cls-9" d="M98.81,63.39c.15.12.14.38-.05.68-.2.3-.59.63-1.13.83-.54.21-1.11.24-1.51.16-.4-.08-.62-.25-.63-.43,0-.18.19-.34.47-.48.28-.15.63-.29,1.02-.44.4-.15.76-.28,1.08-.36.32-.07.59-.09.74.04Z"/>
            </g>
            <g class="cls-8">
              <path class="cls-9" d="M105.54,68.01c-.12-.16-.12-.35-.08-.53.04-.19.14-.37.28-.54.29-.33.72-.57,1.12-.46.19.06.34.24.36.48.03.24-.05.54-.27.8-.22.26-.53.42-.8.45-.27.04-.49-.04-.61-.2Z"/>
            </g>
            <g class="cls-8">
              <path class="cls-9" d="M88.93,67.97c-.13-.14-.19-.31-.21-.45-.02-.15,0-.28.1-.39.17-.21.57-.32.96-.21.39.11.58.56.27.95-.15.19-.37.29-.58.31-.21.01-.41-.06-.54-.2Z"/>
            </g>
            <g class="cls-8">
              <path class="cls-9" d="M53.45,68.56c-.06.17-.32.3-.75.3-.41,0-1.02-.15-1.5-.61-.47-.46-.6-1.06-.5-1.47.1-.42.36-.62.56-.58.2.03.33.23.49.44.16.21.35.47.58.7.45.46,1.22.86,1.11,1.23Z"/>
            </g>
            <g class="cls-8">
              <path class="cls-9" d="M124.73,68.69c-.06-.19.12-.39.36-.61.25-.22.58-.47.93-.77.35-.29.67-.57.96-.77.28-.2.53-.32.73-.24.19.08.28.37.2.77-.08.4-.35.9-.84,1.3-.49.4-1.08.6-1.53.62-.46.02-.76-.12-.81-.3Z"/>
            </g>
            <g class="cls-8">
              <path class="cls-9" d="M141.8,56.42c-.02-.2.1-.39.23-.58.13-.19.28-.39.46-.62.18-.23.35-.45.52-.63.17-.18.35-.33.56-.32.2,0,.4.21.47.57.07.36-.01.87-.35,1.29-.33.43-.84.66-1.23.65-.4,0-.63-.19-.66-.38Z"/>
            </g>
            <g class="cls-8">
              <path class="cls-9" d="M145.67,69.72c-.1-.19.09-.46.37-.8.28-.34.66-.78,1.03-1.3.75-1.03,1.2-2.08,1.62-1.99.2.05.34.41.32.97-.02.55-.23,1.3-.7,1.96-.47.67-1.11,1.09-1.63,1.25-.53.17-.91.09-1-.09Z"/>
            </g>
          </g>
        </g>
      </g>
    </g>
  </g>
</svg>