<?xml version="1.0" encoding="UTF-8"?>
<svg id="_レイヤー_2" xmlns="http://www.w3.org/2000/svg" version="1.1" viewBox="0 0 164.9 191.6">
  <!-- Generator: Adobe Illustrator 30.1.0, SVG Export Plug-In . SVG Version: 2.1.1 Build 136)  -->
  <defs>
    <style>
      .st0 {
        fill: #d31421;
      }

      .st1 {
        fill: #842d2c;
      }

      .st2 {
        fill: #fff;
      }

      .st3 {
        fill: #392f2c;
      }

      .st4 {
        fill: #221714;
      }

      .st5 {
        fill: #eaaec9;
      }

      .st6 {
        fill: #f3e627;
      }
    </style>
  </defs>
  <g id="_テキスト">
    <g>
      <g>
        <g>
          <g>
            <g>
              <g>
                <circle class="st6" cx="91" cy="51.8" r="10.1"/>
                <path class="st3" d="M101.1,52.4c-.1,0,0-.9-.5-2.4-.4-1.5-1.3-3.7-3.4-5.4-1.1-.8-2.4-1.6-4-1.9-1.6-.3-3.3-.4-5,.2-.8.2-1.7.7-2.4,1.2-.8.5-1.5,1.2-2.1,1.9-1.2,1.5-2,3.4-2.1,5.5,0,2,.4,4,1.5,5.7.5.8,1.2,1.5,1.9,2.1.7.6,1.5,1.1,2.3,1.4,1.6.7,3.4.9,4.9.8,1.6-.2,3-.8,4.2-1.5,2.3-1.5,3.5-3.6,4-5,.5-1.5.6-2.4.7-2.4,0,0,.2.9-.2,2.5-.4,1.6-1.5,3.9-4,5.7-1.2.9-2.8,1.6-4.6,1.8-1.8.2-3.8,0-5.6-.7-.9-.4-1.8-.9-2.7-1.6-.8-.7-1.6-1.5-2.2-2.4-1.2-1.8-1.9-4.2-1.8-6.5.2-2.3,1.1-4.6,2.5-6.3.7-.9,1.5-1.6,2.4-2.2.9-.6,1.8-1,2.8-1.3,2-.6,3.9-.5,5.7,0,1.8.4,3.2,1.3,4.3,2.3,2.3,2,3.1,4.5,3.3,6.1.2,1.7,0,2.5-.1,2.5h0Z"/>
              </g>
              <g>
                <circle class="st6" cx="132.9" cy="57.9" r="10.1"/>
                <path class="st3" d="M143,58.5c-.1,0-.1-.9-.5-2.4-.4-1.5-1.3-3.7-3.4-5.4-1.1-.8-2.4-1.6-4-1.9-1.6-.3-3.3-.4-5,.2-.9.2-1.7.7-2.4,1.2-.8.5-1.5,1.2-2.1,1.9-1.2,1.5-2,3.4-2.1,5.5,0,2,.4,4,1.5,5.7.5.8,1.2,1.5,1.9,2.1.7.6,1.5,1.1,2.3,1.4,1.6.7,3.4.9,4.9.8,1.6-.2,3-.8,4.1-1.5,2.3-1.5,3.5-3.6,4-5,.5-1.5.6-2.4.7-2.4,0,0,.2.9-.2,2.5-.4,1.6-1.5,3.9-4,5.7-1.2.9-2.8,1.6-4.6,1.8-1.8.2-3.8,0-5.6-.7-.9-.4-1.8-.9-2.7-1.6-.8-.7-1.6-1.5-2.2-2.4-1.2-1.8-1.9-4.2-1.8-6.5.2-2.3,1.1-4.6,2.5-6.3.7-.9,1.5-1.6,2.4-2.2.9-.6,1.8-1,2.8-1.3,2-.6,3.9-.5,5.7,0,1.8.4,3.2,1.3,4.4,2.3,2.3,2,3.1,4.5,3.3,6.1.2,1.7,0,2.5-.1,2.5h0Z"/>
              </g>
              <g>
                <circle class="st6" cx="147.9" cy="100.6" r="10.1"/>
                <path class="st3" d="M158.1,101.2c-.1,0-.1-.9-.5-2.4-.4-1.5-1.3-3.7-3.4-5.4-1.1-.8-2.4-1.6-4-1.9-1.6-.3-3.3-.4-5,.2-.9.2-1.7.7-2.4,1.2-.8.5-1.5,1.2-2.1,1.9-1.2,1.5-2,3.4-2.1,5.4,0,2,.4,4.1,1.5,5.7.5.8,1.1,1.5,1.9,2.1.7.6,1.5,1.1,2.3,1.4,1.6.7,3.4.9,4.9.8,1.6-.2,3-.8,4.1-1.5,2.3-1.5,3.5-3.6,4-5,.5-1.5.6-2.4.7-2.4,0,0,.2.9-.2,2.5-.4,1.6-1.5,3.9-4,5.7-1.2.9-2.8,1.6-4.6,1.8-1.8.2-3.8,0-5.6-.7-.9-.4-1.9-.9-2.7-1.6-.8-.7-1.6-1.5-2.2-2.4-1.2-1.8-1.9-4.2-1.8-6.5.1-2.3,1.1-4.6,2.5-6.3.7-.9,1.5-1.6,2.4-2.2.9-.6,1.9-1,2.8-1.3,2-.6,3.9-.5,5.7,0,1.8.4,3.2,1.3,4.4,2.3,2.3,2.1,3.1,4.5,3.3,6.1.2,1.7,0,2.6-.1,2.5h0Z"/>
              </g>
              <g>
                <circle class="st6" cx="62.1" cy="82.2" r="10.1"/>
                <path class="st3" d="M72.2,82.8c-.1,0,0-.9-.5-2.4-.4-1.5-1.3-3.7-3.4-5.4-1.1-.8-2.4-1.6-4-1.9-1.5-.3-3.3-.4-5,.2-.8.2-1.7.7-2.5,1.2-.8.5-1.5,1.2-2.1,1.9-1.2,1.5-2,3.4-2.1,5.4,0,2,.4,4.1,1.5,5.7.5.8,1.2,1.5,1.9,2.1.7.6,1.5,1.1,2.3,1.4,1.6.7,3.4.9,4.9.8,1.6-.2,3-.8,4.1-1.5,2.3-1.5,3.5-3.6,4-5,.5-1.5.6-2.4.7-2.4,0,0,.2.9-.2,2.5-.4,1.6-1.5,3.9-4,5.7-1.2.9-2.8,1.6-4.6,1.8-1.8.2-3.8,0-5.6-.7-.9-.4-1.8-.9-2.7-1.6-.8-.7-1.6-1.5-2.2-2.4-1.2-1.8-1.9-4.2-1.8-6.5.2-2.3,1-4.6,2.5-6.3.7-.9,1.5-1.6,2.4-2.2.9-.6,1.8-1,2.8-1.3,2-.6,4-.5,5.7,0,1.8.4,3.2,1.3,4.3,2.3,2.3,2.1,3.1,4.5,3.3,6.1.2,1.7,0,2.6-.1,2.5h0Z"/>
              </g>
              <g>
                <circle class="st6" cx="30.1" cy="129.9" r="10.1"/>
                <path class="st3" d="M40.2,130.4c-.1,0,0-.9-.5-2.4-.4-1.5-1.3-3.7-3.4-5.4-1.1-.8-2.4-1.6-4-1.9-1.5-.3-3.3-.4-5,.2-.9.2-1.7.7-2.5,1.2-.8.5-1.5,1.2-2.1,1.9-1.2,1.5-2,3.4-2.1,5.5,0,2,.4,4.1,1.5,5.6.5.8,1.1,1.5,1.9,2.1.7.6,1.5,1.1,2.3,1.4,1.6.7,3.4.9,4.9.8,1.6-.2,3-.8,4.1-1.5,2.3-1.5,3.5-3.6,4-5,.5-1.5.6-2.4.7-2.4,0,0,.2.9-.2,2.5-.4,1.6-1.5,3.9-4,5.7-1.2.9-2.8,1.6-4.6,1.8-1.8.2-3.8,0-5.6-.7-.9-.4-1.9-.9-2.7-1.6-.8-.7-1.6-1.5-2.2-2.4-1.2-1.8-1.9-4.2-1.8-6.5.1-2.3,1-4.6,2.5-6.3.7-.9,1.5-1.6,2.4-2.2.9-.6,1.9-1,2.8-1.3,2-.6,4-.5,5.7,0,1.8.4,3.2,1.3,4.3,2.3,2.3,2.1,3.1,4.5,3.3,6.1.2,1.6,0,2.6-.1,2.5h0Z"/>
              </g>
              <g>
                <circle class="st6" cx="133" cy="165.8" r="10.1"/>
                <path class="st3" d="M143.1,166.4c-.1,0-.1-.9-.5-2.4-.4-1.5-1.3-3.7-3.4-5.4-1.1-.9-2.4-1.6-4-1.9-1.6-.3-3.3-.4-5,.2-.9.2-1.7.6-2.4,1.2-.8.5-1.5,1.1-2.1,1.9-1.2,1.5-2,3.4-2.1,5.4,0,2,.4,4.1,1.5,5.6.5.8,1.2,1.5,1.9,2.1.7.6,1.5,1.1,2.3,1.4,1.6.7,3.4.9,4.9.8,1.6-.2,3-.8,4.1-1.5,2.3-1.5,3.5-3.6,4-5,.5-1.5.6-2.4.7-2.4,0,0,.2.9-.2,2.5-.4,1.6-1.5,3.9-4,5.7-1.2.9-2.8,1.6-4.6,1.8-1.8.2-3.8,0-5.6-.7-.9-.4-1.8-.9-2.7-1.6-.8-.7-1.6-1.5-2.2-2.4-1.2-1.8-1.9-4.2-1.8-6.5.2-2.4,1.1-4.6,2.5-6.3.7-.9,1.5-1.6,2.4-2.2.9-.6,1.9-1,2.8-1.3,2-.6,3.9-.5,5.7,0,1.8.4,3.2,1.3,4.4,2.3,2.3,2.1,3.1,4.5,3.3,6.1.2,1.6,0,2.6-.1,2.5h0Z"/>
              </g>
              <g>
                <circle class="st6" cx="87.8" cy="180.3" r="10.1"/>
                <path class="st3" d="M97.9,180.9c-.1,0,0-.9-.5-2.4-.4-1.5-1.3-3.7-3.4-5.4-1.1-.9-2.4-1.6-4-1.9-1.6-.3-3.3-.4-5,.2-.8.2-1.7.6-2.4,1.2-.8.5-1.5,1.1-2.1,1.9-1.2,1.5-2,3.4-2.1,5.4,0,2,.4,4.1,1.5,5.6.5.8,1.2,1.5,1.9,2.1.7.6,1.5,1.1,2.3,1.4,1.6.7,3.4.9,4.9.8,1.6-.2,3-.8,4.2-1.5,2.3-1.5,3.5-3.6,4-5,.5-1.5.6-2.4.7-2.4,0,0,.2.9-.2,2.5-.4,1.6-1.5,3.9-4,5.7-1.2.9-2.8,1.6-4.6,1.8-1.8.2-3.8,0-5.6-.7-.9-.4-1.8-.9-2.7-1.6-.8-.7-1.6-1.5-2.2-2.4-1.2-1.8-1.9-4.2-1.8-6.5.2-2.4,1.1-4.6,2.5-6.3.7-.9,1.5-1.6,2.4-2.2.9-.6,1.8-1,2.8-1.3,2-.6,3.9-.5,5.7,0,1.8.4,3.2,1.3,4.3,2.3,2.3,2.1,3.1,4.5,3.3,6.1.2,1.6,0,2.6-.1,2.5h0Z"/>
              </g>
              <g>
                <circle class="st6" cx="45.5" cy="166.3" r="10.1"/>
                <path class="st3" d="M55.6,166.8c-.1,0,0-.9-.5-2.4-.4-1.5-1.3-3.7-3.4-5.4-1.1-.9-2.4-1.6-4-1.9-1.5-.3-3.3-.4-5,.2-.8.2-1.7.6-2.5,1.2-.8.5-1.5,1.1-2.1,1.9-1.2,1.5-2,3.4-2.1,5.4,0,2,.4,4.1,1.5,5.6.5.8,1.2,1.5,1.9,2.1.7.6,1.5,1.1,2.3,1.4,1.6.7,3.4.9,4.9.8,1.6-.2,3-.8,4.2-1.5,2.3-1.5,3.5-3.6,4-5,.5-1.5.6-2.4.7-2.4,0,0,.2.9-.2,2.5-.4,1.6-1.5,3.9-4,5.7-1.2.9-2.8,1.6-4.6,1.8-1.8.2-3.8,0-5.6-.7-.9-.4-1.8-.9-2.7-1.6-.8-.7-1.6-1.5-2.2-2.4-1.2-1.8-1.9-4.2-1.8-6.5.2-2.4,1-4.6,2.5-6.3.7-.9,1.5-1.6,2.4-2.2.9-.6,1.8-1,2.8-1.3,2-.6,4-.5,5.7,0,1.8.4,3.2,1.3,4.3,2.3,2.3,2.1,3.1,4.5,3.3,6.1.2,1.6,0,2.6-.1,2.5h0Z"/>
              </g>
              <g>
                <path class="st0" d="M134.2,52.4c-1.8,11.8-13.2,20.9-25.4,20.3s-20.6-10.8-18.7-22.6c1.8-11.8,13.2-20.9,25.4-20.3s20.6,10.8,18.7,22.6Z"/>
                <path class="st3" d="M134.2,52.4c0,0,0-.5,0-1.4,0-.2,0-.5,0-.8,0-.3,0-.6,0-.9,0-.3,0-.7,0-1.1,0-.4-.1-.8-.1-1.2-.2-1.7-.7-3.8-1.8-5.9-1.1-2.2-2.7-4.4-5.1-6.3-2.3-1.9-5.4-3.4-8.9-4-3.5-.7-7.4-.4-11.2.8-3.8,1.3-7.5,3.5-10.4,6.7-1.4,1.6-2.8,3.4-3.8,5.4-1,2-1.7,4.2-2.1,6.4-.7,4.5.1,9.2,2.4,12.8,1.1,1.8,2.5,3.4,4.2,4.7,1.6,1.3,3.4,2.3,5.3,3,3.7,1.3,7.7,1.6,11.2,1,3.5-.6,6.7-1.9,9.2-3.5,2.6-1.6,4.6-3.6,6.1-5.5,1.5-1.9,2.6-3.7,3.3-5.3.4-.8.6-1.5.8-2.1.1-.3.2-.6.3-.9,0-.3.1-.5.2-.7.2-.9.4-1.3.4-1.3s0,.5-.1,1.4c0,.2,0,.5-.1.8,0,.3-.1.6-.2.9-.2.7-.4,1.4-.7,2.2-.6,1.7-1.6,3.6-3.1,5.6-1.5,2-3.6,4.1-6.2,5.8-2.6,1.8-5.9,3.2-9.6,3.8-3.7.7-7.8.4-11.8-.9-2-.8-3.9-1.8-5.7-3.2-1.7-1.4-3.3-3.1-4.5-5.1-2.5-3.9-3.4-9-2.7-13.8.4-2.4,1.2-4.7,2.2-6.9,1.1-2.2,2.5-4,4-5.7,3.1-3.4,7.1-5.7,11.1-7,4-1.2,8.2-1.5,11.8-.7,3.7.7,6.9,2.3,9.4,4.4,2.4,2.1,4.1,4.5,5.1,6.8,1,2.3,1.5,4.5,1.6,6.2,0,.4,0,.8,0,1.2,0,.4,0,.8,0,1.1s0,.7,0,.9c0,.3,0,.5-.1.8-.1.9-.2,1.4-.3,1.4h0Z"/>
              </g>
              <g>
                <circle class="st0" cx="76.7" cy="64.8" r="18.2"/>
                <path class="st3" d="M94.9,65.8c-.2,0,0-1.6-.6-4.4-.3-1.4-.9-3-1.8-4.8-1-1.8-2.4-3.6-4.3-5.2-1.9-1.6-4.4-3-7.3-3.6-2.8-.6-6.1-.7-9.2.3-1.6.5-3.1,1.2-4.6,2.2-.7.5-1.4,1-2.1,1.6-.6.6-1.3,1.2-1.8,1.9-2.3,2.7-3.7,6.3-4,10.1-.2,3.8.8,7.5,2.8,10.5.5.8,1,1.4,1.6,2.1.6.6,1.2,1.3,1.9,1.8,1.3,1.1,2.8,2,4.3,2.7,3,1.4,6.2,1.7,9.2,1.3,2.9-.3,5.5-1.4,7.6-2.8,2.1-1.4,3.7-3.1,4.8-4.7,1.1-1.7,1.9-3.2,2.3-4.6.9-2.7.9-4.3,1.1-4.3,0,0,0,.4,0,1.2,0,.4,0,.9-.2,1.4,0,.6-.2,1.2-.4,1.9-.4,1.4-1.1,3.1-2.2,4.9-1.1,1.8-2.8,3.6-4.9,5.1-2.2,1.5-4.9,2.8-8.1,3.2-3.1.4-6.6.1-9.8-1.3-1.7-.7-3.2-1.6-4.7-2.8-.7-.6-1.4-1.3-2-1.9-.6-.7-1.2-1.5-1.7-2.3-2.2-3.2-3.3-7.3-3.1-11.4.3-4.1,1.8-8,4.3-11,.6-.8,1.3-1.4,2-2.1.7-.6,1.4-1.2,2.2-1.7,1.6-1,3.2-1.8,4.9-2.3,3.4-1,6.9-.9,9.9-.2,3.1.8,5.7,2.3,7.7,4,2,1.8,3.4,3.8,4.3,5.6.9,1.9,1.4,3.6,1.6,5.1.2.7.2,1.4.2,1.9,0,.6,0,1,0,1.4,0,.8-.1,1.2-.2,1.2h0Z"/>
              </g>
              <g>
                <circle class="st0" cx="142.9" cy="77.5" r="19.7"/>
                <path class="st3" d="M123.3,76.4c0,0,0-.4,0-1.3,0-.4,0-.9.2-1.5,0-.6.2-1.3.4-2.1.4-1.5,1.2-3.3,2.4-5.3,1.2-1.9,3-3.9,5.4-5.5,2.4-1.6,5.3-3,8.7-3.4,3.4-.4,7.1-.1,10.6,1.4,1.8.7,3.5,1.8,5,3,.8.6,1.5,1.4,2.2,2.1.6.8,1.3,1.6,1.9,2.5,1.1,1.8,2.1,3.7,2.6,5.8.6,2.1.8,4.3.7,6.5-.1,2.2-.6,4.4-1.4,6.4-.8,2-1.9,3.8-3.2,5.4-.6.8-1.4,1.5-2.1,2.2-.8.6-1.6,1.3-2.4,1.8-1.7,1.1-3.5,1.9-5.3,2.5-3.7,1.1-7.4,1-10.7.2-3.3-.8-6.1-2.5-8.3-4.3-2.2-1.9-3.7-4.1-4.7-6.1-1-2-1.6-3.9-1.8-5.5-.2-.8-.2-1.5-.2-2.1,0-.6,0-1.1,0-1.5,0-.8.1-1.3.2-1.3s0,.4.1,1.3c0,.4,0,.9.1,1.5,0,.6.2,1.3.3,2,.3,1.5.9,3.3,1.9,5.2,1,1.9,2.6,3.9,4.6,5.7,2.1,1.7,4.8,3.2,7.9,3.9,3.1.7,6.6.8,10-.3,1.7-.5,3.4-1.3,4.9-2.3.8-.5,1.5-1.1,2.2-1.7.7-.7,1.4-1.3,2-2.1,2.5-3,4-6.9,4.3-11,.2-4.1-.9-8.2-3-11.4-.5-.8-1.1-1.6-1.7-2.3-.7-.7-1.3-1.4-2-2-1.4-1.2-3-2.2-4.6-2.9-3.3-1.5-6.8-1.8-9.9-1.5-3.2.4-6,1.6-8.3,3-2.3,1.5-4,3.3-5.2,5.1-1.2,1.8-2.1,3.5-2.5,5-.3.7-.4,1.4-.6,2-.2.6-.2,1.1-.3,1.5-.1.8-.2,1.2-.3,1.2h0Z"/>
              </g>
              <g>
                <path class="st0" d="M73.6,78.4s-37.8,6.9-45.3,21.5c-7.6,14.6,7.6,30.5,7.6,30.5,0,0,37.8-52,37.8-52Z"/>
                <path class="st3" d="M73.6,78.4s-.2.5-.8,1.3c-.5.8-1.4,2.1-2.4,3.6-2.2,3.1-5.3,7.6-9.2,13.1-3.9,5.5-8.6,12-13.8,19.3-2.6,3.6-5.3,7.4-8.2,11.3-.7,1-1.4,2-2.2,3l-.4.6-.5.7v.2c-.1,0-.2,0-.2,0h0c0,0-.3-.4-.3-.4-.2-.2-.4-.4-.6-.7l-.4-.5-.3-.4-.6-.7c-1.6-2-3-4.2-4.3-6.5-2.5-4.6-4.1-9.7-3.8-14.8.1-2.5.7-5,1.8-7.2,1-2.2,2.5-4.1,4.2-5.7,3.4-3.2,7.1-5.3,10.7-7,3.6-1.7,7.1-3.1,10.3-4.2,6.4-2.2,11.8-3.5,15.4-4.3,1.8-.4,3.3-.7,4.3-.8,1-.2,1.5-.2,1.5-.2,0,0-.5.2-1.5.4-1,.2-2.4.6-4.2,1.1-3.6,1-8.9,2.4-15.2,4.7s-6.6,2.5-10.1,4.3c-3.5,1.8-7.2,3.9-10.3,6.9-1.6,1.5-2.9,3.2-3.8,5.3-1,2-1.5,4.3-1.6,6.6-.2,4.7,1.3,9.5,3.7,14,1.2,2.2,2.6,4.3,4.1,6.2l.6.7.5.6h0s.1-.1.1-.1c.7-1,1.5-2,2.2-3,2.9-3.9,5.6-7.7,8.3-11.3,5.3-7.2,10-13.7,14.1-19.1,4-5.4,7.3-9.8,9.6-12.8,1.1-1.5,2-2.7,2.7-3.4s1-1.2,1-1.1h0Z"/>
              </g>
              <g>
                <path class="st0" d="M137.3,94.1s32.1,23.2,26.3,45.5c-5.8,22.2-27.5,21.3-40.2,18.8s13.9-64.3,13.9-64.3h0Z"/>
                <path class="st3" d="M137.3,94.1s-.1.6-.6,1.7c-.4,1.1-1,2.7-1.8,4.7-1.6,4.1-3.8,10.1-6.3,17.5-1.3,3.7-2.6,7.8-3.9,12.2-1.3,4.4-2.6,9.2-3.4,14.2-.4,2.5-.7,5.2-.6,7.8,0,1.3.3,2.6.8,3.7.3.6.6,1,1.1,1.3.4.3,1,.4,1.7.5,5.5,1,11.3,1.5,17.2.7,2.9-.4,5.7-1.2,8.3-2.4,2.6-1.2,4.9-2.8,6.8-4.8,3.8-3.9,5.9-9.1,6.8-14.1.8-5-.4-9.9-2.1-14.1-1.8-4.2-4.1-7.8-6.4-11-4.7-6.2-9.3-10.6-12.5-13.6-1.6-1.5-2.9-2.6-3.8-3.3-.9-.8-1.3-1.2-1.3-1.2s.6.3,1.5.9,2.3,1.7,4,3.1c3.4,2.8,8.1,7.2,13,13.4,2.4,3.2,4.8,6.8,6.7,11.1,1.8,4.3,3.1,9.4,2.3,14.7-.4,2.7-1.2,5.2-2.4,7.8-1.1,2.5-2.7,5-4.8,7.1-2,2.1-4.5,3.8-7.2,5.1-2.7,1.3-5.7,2.1-8.7,2.5-6.1.9-12.1.3-17.6-.7-.6-.1-1.5-.3-2.3-.8-.7-.5-1.2-1.2-1.6-1.9-.7-1.4-.8-2.9-.9-4.3-.1-2.8.2-5.5.7-8.1.9-5.2,2.2-9.9,3.6-14.4,1.3-4.4,2.8-8.5,4.1-12.2,2.7-7.4,5.1-13.3,6.8-17.3.9-2,1.6-3.6,2.1-4.6.5-1.1.8-1.6.8-1.6h0Z"/>
              </g>
              <g>
                <ellipse class="st0" cx="38.8" cy="144.5" rx="22.1" ry="19.4" transform="translate(-2.6 .7) rotate(-1)"/>
                <path class="st3" d="M16.7,144.9s0-.5-.1-1.3c0-.2,0-.5,0-.7,0-.3,0-.6.1-.9,0-.3,0-.7.1-1,0-.4.2-.8.3-1.1.7-3.2,3.2-7.9,8.3-11.3,2.5-1.7,5.6-3.1,9.1-3.7,3.5-.6,7.4-.6,11.3.5,2,.5,3.8,1.3,5.7,2.4,1.8,1.1,3.5,2.4,5,4,3,3.2,5,7.6,5.1,12.4,0,4.7-1.8,9.2-4.7,12.5-1.5,1.6-3.1,3.1-4.9,4.2-1.8,1.1-3.7,2-5.6,2.6-3.8,1.2-7.7,1.4-11.2.9-3.5-.5-6.7-1.7-9.2-3.3-5.2-3.2-7.8-7.8-8.7-11-.1-.4-.2-.8-.3-1.1,0-.4-.1-.7-.2-1,0-.3,0-.6-.1-.9,0-.3,0-.5,0-.7,0-.9,0-1.3,0-1.3.2,0,.1,1.9,1.1,4.9,1,3.1,3.7,7.3,8.7,10.2,2.5,1.5,5.5,2.6,8.9,3,3.3.4,7.1.2,10.7-1,1.8-.6,3.6-1.4,5.2-2.5,1.7-1.1,3.2-2.4,4.5-3.9,2.7-3.1,4.3-7.2,4.3-11.6-.1-4.3-1.9-8.4-4.7-11.4-1.4-1.5-3-2.8-4.7-3.8-1.7-1-3.5-1.8-5.3-2.3-3.7-1.1-7.4-1.1-10.7-.6-3.4.5-6.3,1.8-8.8,3.3-4.9,3.1-7.4,7.4-8.3,10.5-.9,3.1-.8,5-1,5h0Z"/>
              </g>
              <g>
                <ellipse class="st0" cx="110.6" cy="171.5" rx="24.8" ry="18.6" transform="translate(-48.3 43.5) rotate(-18.3)"/>
                <path class="st3" d="M134.1,163.7c-.2,0-.6-1.9-2.9-4.5-1.1-1.3-2.7-2.6-4.8-3.8-2.1-1.1-4.8-2-7.8-2.4-6-.8-13.6.4-20.4,4.6-3.4,2.1-6.6,5-8.8,8.8-1.1,1.9-1.9,3.9-2.2,6.1-.4,2.2-.2,4.4.5,6.6.7,2.1,2,4,3.5,5.6,1.6,1.5,3.5,2.7,5.4,3.6,4,1.7,8.3,2.1,12.3,1.8,8-.7,14.8-4.3,19.1-8.5,2.2-2.1,3.8-4.4,4.8-6.6,1-2.2,1.5-4.2,1.6-5.9.2-3.4-.6-5.3-.4-5.3,0,0,.2.4.5,1.3.2.4.2,1,.3,1.7.1.7.1,1.4.1,2.3,0,1.8-.4,3.9-1.4,6.2-1,2.3-2.6,4.7-4.8,7-4.4,4.5-11.4,8.3-19.8,9.1-4.2.4-8.7,0-12.9-1.8-2.1-.9-4.2-2.2-5.9-3.8-1.7-1.7-3.1-3.8-3.9-6.1-.8-2.4-.9-4.9-.5-7.3.4-2.4,1.3-4.6,2.4-6.6,2.4-4,5.8-7,9.3-9.2,7.2-4.3,15.1-5.5,21.3-4.5,3.1.5,5.9,1.5,8,2.7,2.2,1.3,3.8,2.8,4.9,4.1.5.7,1,1.3,1.3,2,.3.6.6,1.1.7,1.6.3.9.4,1.3.4,1.4h0Z"/>
              </g>
              <g>
                <ellipse class="st0" cx="63.9" cy="172.3" rx="16.9" ry="22.4" transform="translate(-119.2 188.9) rotate(-74.8)"/>
                <path class="st3" d="M85.5,178.2c-.2,0,.4-1.7,0-4.8-.2-1.5-.7-3.4-1.7-5.3-1-1.9-2.6-3.9-4.6-5.7-4.1-3.6-10.4-6.5-17.7-6.7-3.6,0-7.5.6-10.9,2.3-1.7.9-3.3,2.1-4.7,3.5-1.3,1.5-2.3,3.2-2.9,5.2-.5,1.9-.5,4-.1,5.9.4,1.9,1.2,3.8,2.3,5.4,2.1,3.3,5.1,5.7,8.3,7.5,6.4,3.5,13.3,4.2,18.6,3.1,2.7-.5,5-1.5,6.9-2.6,1.9-1.1,3.2-2.5,4.2-3.7,1.8-2.5,2.2-4.2,2.4-4.2,0,0,0,.4-.3,1.2,0,.4-.3.9-.6,1.4-.2.6-.6,1.2-1.1,1.8-.9,1.3-2.3,2.8-4.2,4-1.9,1.3-4.3,2.3-7.1,2.9-5.6,1.2-12.8.6-19.5-3-3.3-1.8-6.5-4.4-8.8-7.9-1.1-1.8-2-3.7-2.5-5.9-.5-2.1-.5-4.4.1-6.6.6-2.2,1.8-4.2,3.2-5.8,1.5-1.6,3.2-2.9,5.1-3.8,3.8-1.9,7.8-2.5,11.6-2.4,7.6.3,14.1,3.4,18.3,7.3,2.1,1.9,3.7,4.1,4.7,6.1,1,2.1,1.4,4,1.6,5.6,0,.8,0,1.5,0,2.1,0,.6,0,1.1-.2,1.5-.2.8-.3,1.2-.4,1.2h0Z"/>
              </g>
              <g>
                <path class="st6" d="M141.4,90.3h0c-.2-20-15.3-39.5-35.5-40.7-14.1-.8-27.4,9-34.7,20h0c-1.6,2.4-2.9,4.9-3.9,7.6-5.2,9.9-14.3,26.6-19.7,32.4-7.8,8.4-16.6,11-18.1,27.6-1.4,16.6,16.6,31.3,32.1,35.2,15.5,3.9,43.3,6.7,60.3-2.4s22-43.1,19.5-79.7h0Z"/>
                <path class="st3" d="M141.4,90.3s0,.3.1,1c0,.7.2,1.6.2,2.9.2,2.5.4,6.3.5,11.1s0,10.7-.4,17.5c-.5,6.8-1.4,14.6-3.6,23-1.2,4.2-2.6,8.5-4.9,12.7-2.2,4.2-5.2,8.4-9.6,11.2-4.4,2.7-9.5,4.4-14.8,5.6-5.3,1.1-10.9,1.6-16.6,1.6-5.7,0-11.6-.3-17.5-1.1-3-.4-5.9-.9-8.9-1.5-1.5-.3-3-.7-4.5-1-1.5-.4-3-.9-4.5-1.4-5.9-2.2-11.4-5.5-16.3-9.8-4.8-4.3-9-9.7-11-16.2-.6-2-.9-4.1-1-6.1,0-2.1.2-4.1.5-6.1.7-4,2-7.9,4.4-11.2,2.3-3.3,5.4-5.8,8.2-8.3,2.9-2.5,5.6-5,7.7-8,4.3-6,7.9-12.3,11.4-18.5,1.7-3.1,3.4-6.2,5-9.2l.6-1.1c0,0,.1-.2.1-.2v-.3c.1,0,.4-.6.4-.6.3-.8.7-1.6,1.1-2.4.8-1.5,1.6-3,2.6-4.4h0c0,0,0,0,0,0l.3-.5.5.2h0l-.7.3c4.2-6.3,9.7-11.3,15.6-14.9,3-1.8,6.1-3.2,9.2-4.1,3.2-.9,6.4-1.3,9.5-1.2,6.2.1,11.9,2.2,16.5,5,4.6,2.8,8.2,6.3,10.9,9.8,2.7,3.5,4.6,7.1,5.9,10.3.7,1.6,1.1,3.2,1.6,4.6.4,1.4.6,2.8.9,3.9.4,2.4.6,4.3.6,5.6,0,1.3,0,2,0,2.1h0c0,0-.1-.8-.2-2,0-1.3-.4-3.1-.8-5.5-.3-1.2-.6-2.5-1-3.9-.5-1.4-.9-2.9-1.7-4.5-1.3-3.2-3.2-6.6-6-10.1-2.7-3.4-6.3-6.8-10.8-9.5-4.5-2.7-10-4.6-16-4.7-3,0-6.1.3-9.1,1.2s-6.1,2.3-8.9,4c-5.8,3.5-11,8.5-15.1,14.6l-.3.4h-.5c0-.1.8-.5.8-.5h0s0,0,0,0h0c-.9,1.4-1.7,2.8-2.4,4.3-.4.8-.7,1.5-1,2.3l-.2.6v.3c-.2.2-.2.3-.3.4l-.6,1.1c-1.6,3-3.2,6.1-5,9.2-3.5,6.2-7,12.6-11.4,18.7-2.2,3.1-5,5.8-7.9,8.3-2.9,2.5-5.8,5-8,8.1-2.2,3.1-3.5,6.8-4.1,10.6-.3,1.9-.6,3.9-.5,5.8,0,1.9.4,3.9.9,5.7,1.8,6.1,5.9,11.4,10.5,15.5,4.7,4.2,10.1,7.4,15.8,9.6,1.4.5,2.9,1,4.3,1.4,1.5.4,2.9.7,4.4,1,2.9.6,5.9,1.1,8.8,1.5,5.9.8,11.7,1.2,17.3,1.2,5.6,0,11.2-.5,16.4-1.5,5.2-1.1,10.2-2.8,14.4-5.3,4.1-2.7,7.1-6.7,9.3-10.7,2.2-4.1,3.7-8.3,4.9-12.4,2.3-8.2,3.2-16,3.8-22.8.6-6.8.7-12.7.7-17.5s-.1-8.5-.2-11.1c0-1.3,0-2.2-.1-2.9,0-.7,0-1,0-1h0Z"/>
              </g>
              <g>
                <path class="st0" d="M93.2,190.8c-6-.9-6.2-6.8-3.8-11.2.9-3.3-.3-6.9.6-10.2,2.8-9.5,17.5-9.5,23.4-3,3.7,5.6.2,13.9-5.8,16.4-7.5,2-4.1,10.5-14.4,8.1Z"/>
                <path class="st3" d="M93.2,190.8c0,0,.5,0,1.3,0,.4,0,.9,0,1.5,0h.5c.2,0,.3,0,.5,0,.3,0,.7,0,1-.2.7-.2,1.4-.6,2.1-1.2.6-.6,1.1-1.5,1.7-2.4.6-.9,1.2-2,2.1-2.9.9-.9,2.2-1.6,3.6-2h0c1.6-.7,3.1-1.9,4.4-3.5,1.2-1.6,2.1-3.5,2.4-5.6.2-1.1.1-2.1,0-3.2-.2-1.1-.7-2.1-1.2-3,0,0-.1-.1-.2-.2l-.3-.3c-.2-.2-.4-.4-.6-.6-.5-.3-.9-.7-1.4-1-1-.6-2.1-1.1-3.3-1.4-2.8-.8-5.9-1-8.6-.4-2.7.6-5.2,2-6.5,4.1l-.5.8c-.2.3-.2.6-.4.8-.1.3-.2.6-.3.8,0,.3-.1.6-.2.9-.2,1.2-.2,2.4-.1,3.6,0,1.2,0,2.4,0,3.5,0,.6-.1,1.1-.3,1.7v.4c0,0-.2.2-.2.3v.2c-.2.2-.3.4-.4.7-.8,1.8-1.1,3.6-1,5.1,0,.8.3,1.4.6,2,.3.6.7,1,1.1,1.4.4.4.8.6,1.2.8.4.1.7.3,1,.4.6.2.9.3.9.3s-.3,0-.9,0c-.3,0-.7-.2-1.1-.3-.4-.2-.9-.4-1.4-.8-.5-.4-.9-.9-1.3-1.5-.3-.6-.7-1.4-.8-2.2-.3-1.7,0-3.7.8-5.6,0-.2.2-.5.3-.7v-.2c0,0,0,0,.1,0v-.4c.2-.5.2-1,.3-1.5,0-1.1,0-2.2,0-3.4,0-1.2-.1-2.5,0-3.8,0-.3.1-.7.2-1,.1-.3.2-.6.4-1,.1-.3.2-.7.4-1,.2-.3.4-.6.6-.9.3-.6.9-1.1,1.4-1.7s.6-.5.8-.7c.3-.2.6-.5.9-.7.7-.4,1.3-.8,2-1,.3-.1.7-.3,1.1-.4.4,0,.7-.2,1.1-.3,3-.7,6.2-.6,9.3.4,1.3.4,2.5.9,3.6,1.6.6.3,1.1.7,1.6,1.1.3.2.5.4.7.6l.3.3c.1.1.2.2.4.4.7,1.1,1.2,2.3,1.4,3.6.2,1.2.2,2.5,0,3.7-.8,4.8-4,8.6-7.7,10h0c-1.2.4-2.3.9-3.2,1.7-.9.8-1.5,1.7-2.1,2.6s-1.2,1.8-1.9,2.5c-.8.7-1.7,1.1-2.5,1.2-.4.1-.8,0-1.2.1-.2,0-.4,0-.5,0-.2,0-.3,0-.5,0-.6,0-1.1-.1-1.5-.2-.8-.2-1.2-.3-1.2-.4h0Z"/>
              </g>
              <g>
                <path class="st1" d="M93.2,190.8c-6-.9-6.2-6.8-3.8-11.2.9-3.3-.4-2.4.3-5.8,1.5-7,11.6-6.1,19.4-1.2,5.7,3.6,4.5,7.7-1.5,10.2-7.5,2-4.1,10.5-14.4,8.1h0Z"/>
                <path class="st3" d="M93.2,190.8c0,0,.5,0,1.3,0,.8,0,2.1.2,3.5-.2.2,0,.3-.1.5-.2.2,0,.3-.2.5-.3.4-.2.7-.5,1-.8.6-.6,1.1-1.5,1.7-2.4.6-.9,1.2-2,2.2-2.9,1-.9,2.2-1.6,3.6-2h0c1.2-.5,2.5-1.2,3.5-2.2,1-1,1.5-2.3,1-3.5-.5-1.3-1.8-2.3-3.2-3.2-1.4-.9-2.9-1.6-4.6-2.3-2.3-.9-4.8-1.4-7.1-1.5-1.1,0-2.3.1-3.3.6-1,.4-1.9.9-2.4,1.7-.2.2-.3.4-.4.6-.1.2-.3.4-.3.6-.1.5-.3.9-.4,1.4,0,.5-.1,1-.1,1.4,0,.4.2.9.2,1.5,0,.6,0,1.1-.2,1.6,0,.3-.1.5-.2.7,0,0,0,.1,0,.1h0c0,.1,0,.3,0,.3l-.2.3c-.4.8-.7,1.6-.9,2.4-.4,1.6-.4,3.1,0,4.2.3,1.2,1.1,2,1.8,2.6,1.5,1,2.6,1.1,2.6,1.2,0,0-.3,0-.8,0s-1.2-.2-2.1-.7c-.8-.5-1.8-1.4-2.3-2.8-.5-1.4-.6-3-.2-4.8.2-.9.5-1.8.9-2.6l.2-.3v-.2c0,0,0,0,0,0h0c0-.2.1-.5.2-.7,0-.4.2-.9.1-1.3,0-.4-.2-.9-.3-1.5,0-.6,0-1.2,0-1.7,0-.5.3-1.1.4-1.7,0-.3.3-.6.4-.8.2-.3.3-.6.5-.8.7-1.1,1.9-1.8,3-2.2,1.2-.5,2.5-.6,3.8-.7,2.6,0,5.1.6,7.6,1.5,1.7.7,3.3,1.5,4.8,2.4,1.5,1,2.9,2.1,3.7,3.9.4.9.4,1.9.1,2.8s-.8,1.6-1.4,2.2c-1.2,1.2-2.6,1.9-4,2.4h0c-1.2.4-2.3.9-3.1,1.7-.9.8-1.5,1.7-2.1,2.6-.6.9-1.2,1.8-1.9,2.5-.4.3-.8.6-1.2.8-.2.1-.4.2-.6.3-.2,0-.4.1-.6.2-.4.1-.8.1-1.2.1-.2,0-.4,0-.5,0-.2,0-.3,0-.5,0-.6,0-1.2-.1-1.6-.2-.8-.2-1.3-.4-1.2-.4h0Z"/>
              </g>
              <g>
                <path class="st0" d="M23.3,134c-1.8.4-3.8-.5-4.9-2.1-1.1-1.5-1.4-3.5-1.3-5.3.1-1.9.7-3.9,0-5.7-.7-1.7-2.3-2.7-4-3.3-2.1-.7-4.4-.8-6.6-.3-2.5.6-4.9,2.1-5.6,4.5-.5,2.1.4,4.3,1.1,6.4.8,2.5,1.3,5.2,1.3,7.8,0,2-.2,4,.4,5.9.7,2.4,2.5,4.5,4.8,5.4s5.1.6,7.2-.7c1.3-.8,2.4-2,3.8-2.4.6-.2,1.3-.3,1.9-.5,1.6-.7,2.3-2.6,2.1-4.3-.2-1.7-1-3.2-2-4.7"/>
                <path class="st3" d="M21.6,134.6s.2.2.6.7c.3.5.8,1.2,1.3,2.3.4,1.1.8,2.6.1,4.2-.3.8-.9,1.6-1.9,2.1-.5.2-1,.3-1.4.5-.5.1-.8.2-1.2.5-.8.4-1.6,1.1-2.5,1.8-.9.7-2.1,1.2-3.3,1.5-1.2.3-2.6.3-3.9,0s-2.6-1-3.7-1.9c-1.1-1-1.9-2.2-2.5-3.6-.5-1.4-.6-3-.6-4.4,0-1.5,0-2.9-.1-4.3-.1-1.4-.4-2.9-.8-4.3-.4-1.4-1-2.8-1.4-4.3-.4-1.5-.4-3.3.4-4.8.8-1.5,2.1-2.4,3.5-3.1,1.4-.6,2.8-.9,4.2-1,2.8-.1,5.5.5,7.6,2.1,1,.8,1.7,2,2,3.2.2,1.2,0,2.3,0,3.3-.1,1-.3,1.9-.2,2.8,0,.9.1,1.7.4,2.4.4,1.5,1.3,2.5,2.2,3.1s1.7.8,2.3.8c.6,0,.9,0,.9,0,0,0-.3.2-.9.2-.6,0-1.6,0-2.6-.6-1-.6-2.1-1.7-2.6-3.3-.3-.8-.5-1.7-.5-2.6,0-.9,0-1.9.1-2.9s.2-2,0-3c-.2-.9-.8-1.8-1.6-2.5-1.7-1.3-4.2-1.9-6.7-1.7-1.2,0-2.5.4-3.7.9-1.2.6-2.2,1.4-2.8,2.5-.6,1.1-.6,2.4-.3,3.8.3,1.4,1,2.8,1.4,4.3.4,1.5.7,3.1.8,4.6.2,1.5.1,3.1.1,4.5,0,1.4,0,2.8.5,4s1.1,2.2,2,3.1c1.8,1.7,4.3,2.2,6.4,1.8,1.1-.2,2.1-.6,2.9-1.2.9-.6,1.7-1.3,2.7-1.8.5-.2,1-.4,1.5-.5s.9-.2,1.2-.3c.7-.3,1.2-.9,1.5-1.6.6-1.3.4-2.7.1-3.7-.3-1-.7-1.8-1-2.3-.3-.5-.4-.8-.3-.8h0Z"/>
              </g>
              <path class="st3" d="M37.1,135.4c.1.4-2.8,1.6-6.7,1.8-3.9.2-6.9-.7-6.8-1.1,0-.4,3.1-.2,6.8-.4,3.7-.2,6.6-.7,6.8-.3Z"/>
              <g>
                <polygon class="st2" points="18.4 132 19.5 144.1 25.8 144.6 25.9 128.4 18.4 132"/>
                <path class="st3" d="M18.4,132c0-.1.6-.6,1.9-1.3.6-.4,1.4-.8,2.3-1.3.5-.2.9-.5,1.4-.8.8-.4,1.6-.8,2.5-1.2,0,2.1,0,4.5,0,7.1,0,2.2,0,4.6,0,7.1,0,1.3,0,2.6,0,3.8-2.7-.2-5.3-.4-7.6-.6,0-1.1-.2-2.1-.2-3.2,0-.8-.1-1.6-.1-2.4,0-1.5-.2-2.8-.2-3.9,0-2.1,0-3.4,0-3.4s.4,1.2.7,3.3c.2,1.1.3,2.4.5,3.8.2,1.3.3,2.8.5,4.4h0s0,0,.1,0c.2,0,.5,0,.8,0,.5,0,1,0,1.5.1.5,0,1.1,0,1.6.1.3,0,.5,0,.8,0,0,0,0,0,0,0h0v-2.2c0-2.5,0-4.9,0-7.1,0-1.1,0-2.2,0-3.2,0-.5,0-1,0-1.5,0-.3,0-.2,0-.3v-.2s-.2,0-.2,0h0s-.2.1-.2.1l-.4.2c-.5.2-1,.4-1.5.6-.9.4-1.8.8-2.4,1-1.3.5-2.1.8-2.2.7h0Z"/>
              </g>
              <g>
                <path class="st1" d="M8.5,147.2c0,0,0-.2,0-.3.2-1.8.1-3.7-.4-5.5-.7-2.5-2-4.8-2.5-7.3-.3-1.6-.2-3.2-.2-4.8,0-1.6,0-3.2-.3-4.8s-1.2-3.1-2.5-4c-.3-.2-.6-.4-1-.5-.4.5-.7,1.1-.9,1.8-.5,2.1.4,4.3,1.1,6.4.8,2.5,1.3,5.2,1.3,7.8,0,2-.2,4,.4,5.9.7,2.4,2.5,4.5,4.8,5.4h0Z"/>
                <path class="st3" d="M8.5,147.2c0,0-.9,0-2.2-.9-.6-.4-1.4-1.1-2-2-.6-.9-1.2-2.1-1.4-3.5-.2-1.4-.2-2.9-.2-4.4,0-1.5-.2-3.2-.5-4.9-.3-1.7-.9-3.4-1.6-5.2C.3,125.3,0,124.3,0,123.2,0,122.6,0,122.1.2,121.5c0-.3.2-.6.3-.8,0-.1.1-.3.2-.4l.2-.3.2-.3.4-.6.7.3c.2,0,.5.2.6.3.3.1.5.3.7.5.4.4.8.8,1.1,1.2.6.9,1,1.9,1.3,2.9.5,2,.3,3.9.2,5.6,0,1.7,0,3.3.2,4.8.3,1.4.9,2.8,1.3,4,.5,1.2.8,2.4,1,3.5.2,1.1.2,2,.2,2.8,0,1.5-.4,2.3-.4,2.3-.1,0,0-.8-.1-2.3,0-.7-.2-1.6-.4-2.6-.2-1-.7-2.1-1.2-3.3-.5-1.2-1.2-2.5-1.6-4.1-.4-1.6-.5-3.4-.4-5.1,0-1.8.1-3.6-.3-5.3-.2-.8-.5-1.7-1.1-2.4-.2-.3-.5-.7-.9-.9-.2-.1-.3-.3-.5-.3-.1,0,0,0,0,0h0c0,.1-.1.2-.1.3,0,.2-.2.4-.2.6-.1.4-.2.8-.2,1.3,0,.9.2,1.8.5,2.7.6,1.8,1.2,3.6,1.5,5.4.3,1.8.5,3.5.4,5.1,0,1.6-.1,3,0,4.3.3,2.5,1.7,4.3,2.7,5.2,1.1.9,1.9,1.3,1.8,1.4h0Z"/>
              </g>
              <g>
                <path class="st2" d="M109.2,142.5c-45.7,9.9-60.1-15.3-60.1-15.3l2.8-4s13.7,23.8,56.9,14.5l.4,4.8Z"/>
                <path class="st3" d="M109.2,142.5c0,0-.1-.5-.2-1.3,0-.4-.1-1-.2-1.6,0-.3,0-.7-.1-1,0-.1,0-.2,0-.4h0c0,0,0,0,0,0h-.2c-1.6.4-3.6.8-5.9,1.2-1.2.3-2.5.4-3.8.5-1.4.1-2.8.3-4.3.5-6.1.3-13.4.2-21.3-2-.5-.1-1-.2-1.5-.4-.5-.2-1-.4-1.5-.5-1-.4-2-.7-2.9-1.1-1-.5-1.9-.9-2.9-1.4-1-.5-1.9-1.1-2.9-1.7-1-.6-1.8-1.3-2.8-1.9-.9-.7-1.8-1.5-2.6-2.2-.8-.8-1.7-1.6-2.4-2.5-.7-.8-1.8-2.2-1.6-1.9l-.4.6-1,1.4-.5.7h0l.4.6.5.7c.3.5.7.9,1.1,1.3.4.4.8.8,1.2,1.2l1.2,1.2c.9.7,1.7,1.5,2.5,2.1.9.6,1.8,1.3,2.7,1.9.9.6,1.8,1.1,2.8,1.7,1.9.9,3.7,1.9,5.7,2.6,7.6,2.9,15,3.6,21.2,3.7h4.4c1.4-.1,2.7-.2,3.9-.3s2.4-.2,3.4-.3c1-.2,2-.3,2.8-.4,1.7-.3,3.1-.4,4-.6s1.4-.1,1.4-.1-.4.2-1.3.4c-.9.2-2.2.5-3.9.8-.9.2-1.8.4-2.8.6-1.1.1-2.2.2-3.4.4-1.2.1-2.6.3-4,.4-1.4,0-2.9,0-4.5.1-6.2,0-13.8-.6-21.7-3.5-2-.6-3.9-1.7-5.9-2.6-.9-.6-1.9-1.1-2.8-1.7-1-.6-1.8-1.3-2.8-1.9-.9-.7-1.8-1.5-2.7-2.2l-1.2-1.2c-.4-.4-.8-.8-1.2-1.3-.4-.4-.8-.9-1.2-1.4l-.5-.7-.6-.8-.5-.7c.2-.2.3-.5.5-.7l.5-.8,1-1.4c.6-.8,1.1-1.6,1.7-2.4.3.5.6,1,.9,1.4l.2.3v.2c.1,0,.2,0,.2,0l.3.3c.3.4.7.9,1.1,1.3.7.9,1.5,1.6,2.3,2.4.8.7,1.7,1.5,2.5,2.1.9.6,1.7,1.3,2.7,1.9.9.5,1.8,1.1,2.8,1.6.9.5,1.9.9,2.8,1.4.9.4,1.9.8,2.9,1.1.5.2.9.4,1.4.5.5.2,1,.3,1.4.4,7.6,2.2,14.9,2.4,20.9,2.3,1.5-.1,2.9-.2,4.3-.4,1.3-.1,2.6-.2,3.8-.4,2.4-.4,4.5-.7,6.2-1,.1,0,.3,0,.4,0,0,0,.2,0,.2,0v.2c0,.3,0,.5,0,.8,0,.4,0,.7,0,1.1,0,.6,0,1.2,0,1.6,0,.9,0,1.4,0,1.4h0Z"/>
              </g>
              <path class="st3" d="M108.8,137.7s-.4.6-1.2,1.6c-.4.5-.9,1.1-1.5,1.9-.6.8-1.4,1.7-2.2,2.7-1.5-1.1-3.2-2.5-5.1-4-.9,1.6-1.9,3.4-3,5.2-1.7-1.5-3.5-3-5.3-4.6-1.5,1.6-3,3.3-4.6,5-1.1-1.7-2.2-3.4-3.3-5.2-1.8,1.4-3.7,2.9-5.6,4.3-.2-.4-.4-.9-.6-1.3-.7-1.5-1.3-3-2-4.4-1.9,1.2-3.8,2.4-5.7,3.6-.9-2.3-1.8-4.5-2.6-6.7-2.6.6-5,1.2-7.3,1.7-.4-2.6-.8-4.9-1.2-7.1-2.1.5-3.9,1-5.6,1.4,0-1.4-.1-2.6-.2-3.8,0-1,0-1.8,0-2.5,0-1.4,0-2.1,0-2.1s.1.7.3,2.1c.1,1.3.3,3.2.5,5.6,1.7-.5,3.5-1,5.6-1.6.4,2.1.8,4.5,1.3,7,2.3-.6,4.7-1.1,7.2-1.8.8,2,1.7,4.1,2.5,6.3,1.8-1.2,3.7-2.4,5.6-3.6.8,1.8,1.6,3.6,2.4,5.4v.2c1.9-1.4,3.7-2.8,5.5-4.2,1.1,1.8,2.1,3.5,3.2,5.1,1.5-1.6,3-3.2,4.4-4.7,1.8,1.6,3.6,3.2,5.2,4.6,1.1-1.8,2.1-3.5,3-5,2,1.6,3.7,3,5.2,4.3,1.5-1.7,2.7-3,3.5-4,.9-1,1.4-1.5,1.4-1.4Z"/>
              <g>
                <polygon class="st2" points="51.9 123.2 40.7 127.3 43.7 132.6 54.3 126.1 51.9 123.2"/>
                <path class="st3" d="M51.9,123.2c0,0,.3.2.8.6.2.2.5.5.8.8.2.2.3.3.5.5.3.3.6.7.9,1-1.4.9-3,2-5,3.3-.9.6-1.8,1.2-2.8,1.8-1.2.8-2.5,1.6-3.7,2.4-.3-.5-.6-1-.9-1.5-1-1.8-2-3.6-3-5.2,1.1-.4,2.1-.8,3.2-1.1.8-.2,1.5-.5,2.2-.7,1.4-.4,2.6-.8,3.6-1.2,2-.6,3.3-.9,3.3-.7,0,.2-1.1.7-3,1.6-1,.4-2.2.9-3.5,1.4-.7.3-1.4.6-2.1.8-.4.2-.8.3-1.1.4h-.3c0,.1,0,.1,0,.1h0s0,0,0,0c0,0,0,0,0,0l.2.3c.2.4.4.7.6,1.1.4.8.9,1.5,1.3,2.3v.2h.1c.8-.5,1.7-1,2.5-1.5,1-.6,2-1.2,2.9-1.7.9-.5,1.8-1,2.5-1.5.4-.2.8-.4,1.1-.7l.3-.2h0c0,0,.1-.1.2-.2,0,0-.1-.2-.2-.3-.2-.2-.3-.4-.4-.6-.3-.4-.5-.7-.7-1-.3-.5-.5-.9-.4-.9h0Z"/>
              </g>
            </g>
            <ellipse class="st5" cx="121.3" cy="70.8" rx="3.9" ry="6" transform="translate(37.5 183.5) rotate(-83.6)"/>
            <path class="st5" d="M77.3,63.8c1.4-1.6,4.3-1.8,6.6-.6,2.3,1.2,3,3.5,1.6,5.1-1.4,1.6-4.3,1.8-6.6.6s-3-3.5-1.6-5.1Z"/>
            <ellipse class="st0" cx="99" cy="69.6" rx="2" ry="3.3" transform="translate(12.7 154.4) rotate(-79.6)"/>
            <path class="st3" d="M90.4,57.4c-.2,0-.3-.5,0-1.2.3-.7,1.2-1.4,2.3-1.6.6,0,1.2,0,1.7.2.5.2.9.5,1.1.8.4.7.4,1.2.2,1.2-.2,0-.5-.2-.9-.5s-1-.4-1.8-.3c-.7.1-1.3.5-1.8.8-.4.3-.7.6-.9.6h0Z"/>
            <path class="st3" d="M55.5,64.9c.4.2-.5,2-1.1,4.7-.3,1.4-.3,3.1.1,4.8.2.9.6,1.7,1,2.6.5.9,1,1.7,1.7,2.6,2.8,3.3,6.3,5.6,8.8,7.2,2.5,1.6,4.2,2.6,4,2.9-.1.4-2.1,0-5-1.1-2.8-1.2-6.8-3.3-10.1-7.2-.8-1-1.5-2-2-3.1-.5-1.1-.9-2.2-1.1-3.3-.4-2.2,0-4.3.5-5.8.6-1.6,1.3-2.7,1.9-3.3.6-.7,1-1,1.2-.9h0Z"/>
            <g>
              <path class="st2" d="M65.1,59.9c10-9-14.1-19.6-15.2,1.8.2,3.6-2.5,4.6-1.3,6,2,2.8,5.6,3.7,9,4.4,2.6.8,2.9-.9,3.2-3,.8-2.1,2.9-7.4,4.3-9.2"/>
              <path class="st3" d="M65.1,59.9c0,0-.7,1.4-1.7,3.9-.5,1.2-1.1,2.8-1.8,4.6,0,.2-.2.4-.2.7v.2s0,0,0,0v.4c-.1.5-.2,1.1-.4,1.6-.2.6-.7,1.3-1.5,1.5-.8.2-1.4,0-2,0h0c-1.5-.3-3.2-.7-4.8-1.3-1.6-.6-3.4-1.6-4.6-3.3h0c-.3-.3-.5-.7-.5-1.3,0-.5.2-.8.3-1.2.3-.6.6-1.1.8-1.6.2-.5.3-1,.4-1.5,0-.3,0-.5,0-.8v-.2h0c0-.1,0-.4,0-.4v-.5c.2-2.3.7-4.6,1.8-6.7.5-1,1.2-2,1.9-2.8.8-.8,1.7-1.4,2.7-1.9,2-.9,4.1-1,5.9-.7,1.8.4,3.4,1.2,4.6,2.3,1.1,1.1,1.8,2.5,1.9,3.8,0,1.3-.4,2.4-.9,3.1-.5.7-1,1.2-1.3,1.5-.3.3-.6.4-.6.4s0-.2.4-.6c.3-.3.7-.8,1-1.6.4-.7.7-1.7.6-2.7,0-1.1-.7-2.2-1.8-3.2-1.1-.9-2.5-1.6-4.1-1.9-1.6-.3-3.4-.1-5.1.7-.8.4-1.6,1-2.2,1.7-.6.7-1.2,1.5-1.7,2.4-.9,1.8-1.4,3.9-1.5,6.2v.8c0,.3,0,.7,0,1,0,.7-.2,1.4-.5,2-.3.6-.6,1.2-.9,1.6-.1.2-.2.4-.2.5s0,.2.1.3h0c1,1.4,2.4,2.3,3.9,2.9s3.1,1,4.6,1.4h0c.5.2,1,.2,1.3.2.3,0,.5-.3.7-.8.2-.4.3-.9.4-1.4v-.4c0,0,0-.2.1-.3v-.2c.2-.2.3-.4.4-.7.7-1.8,1.4-3.3,2.1-4.5,1.2-2.5,2.2-3.7,2.4-3.6h0Z"/>
            </g>
          </g>
          <g>
            <path class="st2" d="M62,66s9.9-.2,10-5c.1-4.7-7.6-2.9-10.4-3"/>
            <path class="st3" d="M61.6,58.1c0-.2,1.3-.4,3.5-.7,1.1-.1,2.4-.3,4,0,.8.1,1.7.4,2.4,1,.8.6,1.2,1.8,1.2,2.7,0,1-.5,2-1.1,2.7-.6.7-1.4,1.1-2.1,1.4-1.4.6-2.8.9-3.9,1-2.2.3-3.6,0-3.6-.1s1.3-.4,3.4-.9c1-.3,2.3-.6,3.5-1.2,1.2-.6,2.3-1.6,2.3-2.9,0-.7-.2-1.2-.7-1.6s-1.1-.6-1.7-.8c-1.3-.3-2.6-.2-3.7-.3-2.2,0-3.6,0-3.6-.3h0Z"/>
          </g>
          <path class="st3" d="M150.1,75.2c.2,0,.5.3.9,1.1.4.8.9,2,1.1,3.7.2,1.6.1,3.7-.8,5.8-.4,1.1-1.1,2.1-1.8,3-.8.9-1.6,1.8-2.6,2.6-4,3.1-8.3,4.3-11.3,4.9-3.1.6-5.1.5-5.1,0,0-.4,1.7-1,4.6-2,2.8-1.1,6.7-2.5,10.1-5.2.9-.7,1.6-1.4,2.2-2.1.6-.8,1.2-1.5,1.5-2.3.8-1.6,1.1-3.2,1.1-4.6,0-2.8-.5-4.7,0-4.9h0Z"/>
          <g>
            <path class="st2" d="M141.7,68.3c-7.9-10.8,17.9-16.2,14.5,4.9-1,3.4,1.5,5.1,0,6.2-2.6,2.3-6.3,2.4-9.7,2.4-2.7.2-2.7-1.5-2.5-3.6-.3-2.2-1.3-7.8-2.3-9.9"/>
            <path class="st3" d="M141.7,68.3c.1,0,.9,1.4,1.6,4,.4,1.3.7,2.9,1.1,4.8,0,.2,0,.5.1.7v.2c0,0,0,.2,0,.3v.4c0,.5,0,1,0,1.4,0,.4.2.8.6.9.3.2.8.2,1.3.2h0c1.5,0,3.1,0,4.8-.4,1.6-.3,3.2-.9,4.4-2h0c.1-.2.2-.2.2-.3,0,0,0-.3,0-.6-.1-.5-.4-1.1-.5-1.8s-.2-1.4,0-2.1c0-.3.1-.7.2-1v-.8c.4-2.2.4-4.4-.1-6.3-.2-1-.6-1.9-1.1-2.7-.5-.8-1.1-1.5-1.8-2.1-1.4-1.1-3.2-1.7-4.8-1.7-1.6,0-3.2.3-4.4,1-1.2.7-2.1,1.7-2.4,2.7-.3,1-.2,2,0,2.8.2.8.5,1.4.7,1.7.2.4.3.6.2.7s-.2-.1-.5-.5c-.3-.3-.7-.9-1-1.7-.3-.8-.6-1.9-.2-3.2.3-1.3,1.3-2.5,2.6-3.4,1.4-.8,3.1-1.4,5-1.3,1.9,0,3.9.6,5.6,1.9.8.7,1.6,1.5,2.2,2.4.6,1,1.1,2,1.3,3.1.6,2.2.6,4.6.3,6.9v.5c0,0,0,.2,0,.2h0c0,.1,0,.3,0,.3,0,.3-.1.5-.1.8,0,.5,0,1.1,0,1.6.1.5.3,1.1.5,1.7,0,.3.2.7.1,1.2,0,.5-.4.9-.8,1.2h0c-1.5,1.3-3.4,1.9-5.2,2.2-1.8.3-3.4.3-5,.3h0c-.6,0-1.3,0-2-.3-.7-.4-1.1-1.2-1.1-1.8,0-.6,0-1.2,0-1.7v-.4c0,0,0,0,0,0v-.2c0-.2,0-.5-.1-.7-.3-1.9-.5-3.5-.8-4.8-.5-2.7-.9-4.1-.8-4.2h0Z"/>
          </g>
          <g>
            <path class="st2" d="M144.6,77.7s-9.6-2.3-8.7-6.9c.9-4.7,8.1-1.3,10.8-.8"/>
            <path class="st3" d="M146.7,70c0,.2-1.5,0-3.6-.4-1.1-.2-2.3-.5-3.7-.5-.7,0-1.3,0-1.8.4-.5.3-.8.8-1,1.4-.3,1.3.6,2.5,1.6,3.3,1.1.8,2.2,1.4,3.1,1.9,1.9.9,3.2,1.4,3.2,1.6,0,.2-1.4,0-3.6-.6-1.1-.4-2.3-.9-3.6-1.8-.6-.5-1.3-1-1.8-1.8-.5-.8-.8-1.9-.5-2.9.2-1,.8-2,1.7-2.4.9-.5,1.8-.5,2.6-.5,1.6,0,2.9.5,3.9.9,2.1.8,3.3,1.3,3.3,1.5h0Z"/>
          </g>
        </g>
        <ellipse class="st4" cx="92.4" cy="63.2" rx="4.2" ry="2.3" transform="translate(-6.3 115.9) rotate(-62.5)"/>
        <path class="st3" d="M113.3,58.9c-.2,0-.4-.4-.7-.8-.3-.4-.8-1-1.5-1.3-.7-.3-1.3-.3-1.8-.2-.5.1-.8.3-1,.2-.1,0,0-.6.5-1.1.3-.2.8-.4,1.3-.5.5,0,1.1,0,1.6.3,1.1.5,1.7,1.5,1.8,2.2.2.7,0,1.2-.2,1.2Z"/>
        <ellipse class="st4" cx="109.8" cy="63.9" rx="2.3" ry="4.2" transform="translate(-10.5 23.2) rotate(-11.5)"/>
        <g>
          <path class="st0" d="M108,73.3c.2,4.2-3.9,7.8-8.1,8-4.2.2-7-3.2-7.2-7.4"/>
          <path class="st3" d="M92.7,73.9c.2,0,.3,1.4,1.3,3.2.5.9,1.2,1.9,2.3,2.6,1.1.7,2.5,1,4,.9,3.1-.3,5.4-2.3,6.4-4.1,1.1-1.8,1-3.2,1.2-3.2,0,0,.2.3.2,1,0,.6-.1,1.6-.6,2.7-.5,1.1-1.3,2.2-2.6,3.2-1.2.9-2.8,1.7-4.6,1.9-1.8.2-3.6-.3-4.9-1.2-1.3-.9-2.1-2.2-2.5-3.2-.8-2.2-.5-3.6-.3-3.6h0Z"/>
        </g>
        <g>
          <path class="st6" d="M91.3,72.9c1,1.6,4,2.8,7.8,2.7,4.5-.2,7.5-1,9.5-3.4"/>
          <path class="st3" d="M108.6,72.2c.1,0-.3,1.2-1.9,2.2-1.5,1.1-4,1.7-6.7,1.8-2.7.2-5.2-.3-6.8-1.2-.8-.4-1.4-1-1.7-1.4-.3-.4-.3-.7-.3-.8.2,0,.8.7,2.4,1.2,1.5.6,3.8.9,6.3.7,2.6-.2,4.8-.6,6.3-1.3,1.5-.7,2.2-1.5,2.4-1.3Z"/>
        </g>
      </g>
      <path class="st0" d="M77.2,12.4c0-.2,0-.3-.1-.4l-11.4-9.6c-.2-.1-.4-.1-.5,0l-11.4,9.6c-.1.1-.2.3-.1.4s.2.3.4.3h6.5v9.4h9.9v-9.4h6.5c.2,0,.3-.1.4-.3h0Z"/>
      <g>
        <path class="st0" d="M108.7,24c-1.4-.3-2.9-.8-4.1-1.6-1-.7-1.8-1.6-2.5-2.6-1.4-2.2-2-5.1-1.7-7.6v-.2c0-1.2.2-2.5.7-3.7.1-.3.7-1.4.9-1.6,0-.2.5-.9.7-1,.6-.8,1.2-1.5,2-2,.4-.3.9-.5,1.4-.7,1.7-.8,3.6-1,5.5-.8,2.5.2,5.2,1.3,7,3.2,1,1.1,1.7,2.5,2.1,4,.7,2.8.6,5.8-.3,8.5-.4,1.2-.9,2.4-1.8,3.4-1.1,1.3-2.6,2.3-4.3,2.7-1.7.5-3.7.6-5.5.3ZM111.5,13.9c1-.1,2-.6,2.7-1.4.5-.6.7-1.4.7-2.2,0-.9-.4-1.8-1-2.5-.4-.5-1.1-.9-1.7-1.2-.8-.3-1.6-.4-2.4-.4-.6,0-1.1.2-1.6.6-.4.3-.7.6-.9,1-.4.7-.9,1.4-1,2.2-.1.8,0,1.7.3,2.4.4.8,1.3,1.3,2.1,1.4.9.1,1.8.1,2.7,0Z"/>
        <path class="st0" d="M125.3,23.5c-.7,0-1.5-.2-2-.7-.5-.4-.8-1-.9-1.6-.3-2-.5-11.9-.5-13.8s0-3,.5-4.3c.2-.6.6-1.1,1.1-1.4.8-.5,1.7-.7,2.7-.8,2.6-.3,5.2-.2,7.6.7,1.4.5,2.7,1.2,3.8,2.3,1,1,1.7,2.3,2,3.7.4,1.8,0,3.8-.6,5.5-.5,1.4-1.6,2.7-2.9,3.5-2.1,1.2-4.8,1.3-7.2,1,.2.8.8,3.7.5,4.5-.4,1.3-2.6,1.6-4,1.5h0ZM131.7,10.6c.9,0,1.9-.4,2.5-1.1,1.2-1.2.8-3.1-.4-4.1-.8-.7-2-1-3-1s-2,0-2.4.4c-.3.3-.3,1.3-.3,1.7,0,1.3,0,2.6.2,3.9,1.1.3,2.3.2,3.4.2Z"/>
        <path class="st0" d="M102.3,1.6c-.2-.5-.6-1-1.1-1.3C100.8.1,100.2,0,99.8,0c-.7,0-4.5.4-5.2.5-1.1,0-7.2.3-8.3.3-1.6,0-3.2,0-4.7.1-.4,0-.9,0-1.3.2-.4.1-.9.4-1.2.8-.3.6-.4,1.2-.4,1.8,0,1.5.4,4.4,1.6,5.2.7.4,1.6.5,2.4.4,1.2,0,2.3-.1,3.5-.2.5,0,.9,0,1.4,0v.4c-.2,3.3-.4,6.5-.3,9.8,0,.9,0,1.9.3,2.7.2.6.5,1,1.1,1.3.8.4,1.8.5,2.7.6.9,0,1.9,0,2.8-.2.4-.1.8-.4,1.1-.7.6-.6.8-1.5.9-2.4.2-1.2,0-2.5.1-3.8l.2-3.8c.1-1.6.2-3.2.1-4.8,1-.1,2-.2,3-.4.9-.1,2-.3,2.6-1,1.1-1.1.7-4,0-5.4h0Z"/>
      </g>
    </g>
  </g>
</svg>