<?xml version="1.0" encoding="UTF-8"?>
<svg id="_レイヤー_2" data-name="レイヤー 2" xmlns="http://www.w3.org/2000/svg" viewBox="0 0 41.09 28.65">
  <defs>
    <style>
      .cls-1 {
        fill: #ef8200;
      }

      .cls-1, .cls-2 {
        fill-rule: evenodd;
      }

      .cls-2 {
        fill: #fdfdfd;
      }
    </style>
  </defs>
  <g id="_ロゴ_" data-name="ロゴ３">
    <g>
      <path class="cls-1" d="M41.09,1.88c-6.85,4.28-13.45,8.41-20.12,12.58,6.65,4.32,13.17,8.56,19.91,12.93-3.69.66-7.02.23-10.2-1.18-4.4-1.95-8.19-4.88-11.99-7.76-1.85-1.4-1.83-1.43-3.83-.18-.76.47-1.49,1-2.28,1.42-.73.38-.96.75-.75,1.67.75,3.28-1.22,6.37-4.41,7.13-3.17.76-6.26-1.04-7.18-4.19-.67-2.28.14-4.81,2.03-6.32,1.92-1.54,4.54-1.79,6.7-.5.73.43,1.19.47,1.68-.21.07-.1.19-.18.27-.27.87-.91,1.98-1.59,2.74-2.62-1.16-1.13-2.31-2.26-3.47-3.38-.49-.47-.76.12-1.08.29-3.74,1.97-8.08-.14-8.83-4.3C-.16,4.63.91,2.24,2.97.94c2.11-1.33,4.71-1.24,6.73.22,1.94,1.41,2.94,3.93,2.29,6.21-.25.87-.1,1.28.67,1.71,1.18.67,2.32,1.43,3.43,2.23.63.46,1.04.39,1.63-.08,3.43-2.68,7-5.16,10.81-7.26,3.85-2.12,7.94-2.96,12.56-2.1Z"/>
      <path class="cls-2" d="M6.11,9c-1.65-.02-2.98-1.39-2.95-3.04.03-1.65,1.38-2.95,3.06-2.93,1.67.02,2.97,1.36,2.94,3.03-.03,1.67-1.37,2.96-3.04,2.93Z"/>
      <path class="cls-2" d="M6.01,25.65c-1.64,0-3.02-1.35-3.03-2.98,0-1.63,1.36-2.99,3.01-2.99,1.66,0,3.02,1.34,3.03,2.98,0,1.63-1.37,2.99-3.01,2.99Z"/>
    </g>
  </g>
</svg>