<?xml version="1.0" encoding="UTF-8"?>
<svg id="_レイヤー_2" data-name="レイヤー 2" xmlns="http://www.w3.org/2000/svg" viewBox="0 0 42.7 29.78">
  <defs>
    <style>
      .cls-1 {
        fill: #040000;
      }

      .cls-1, .cls-2 {
        fill-rule: evenodd;
      }

      .cls-2 {
        fill: #fdfdfd;
      }
    </style>
  </defs>
  <g id="_レイヤー_7" data-name="レイヤー 7">
    <g>
      <path class="cls-1" d="M42.7,1.95c-7.12,4.45-13.98,8.74-20.91,13.07,6.91,4.49,13.69,8.9,20.69,13.44-3.84.68-7.29.24-10.6-1.22-4.58-2.02-8.51-5.07-12.46-8.07-1.92-1.46-1.9-1.49-3.99-.19-.79.49-1.55,1.04-2.37,1.47-.75.4-1,.78-.78,1.73.78,3.41-1.27,6.62-4.58,7.41-3.3.79-6.5-1.08-7.46-4.35-.7-2.37.15-5,2.11-6.57,1.99-1.6,4.72-1.86,6.97-.52.76.45,1.24.49,1.74-.22.08-.11.19-.18.29-.28.91-.95,2.05-1.65,2.84-2.73-1.2-1.17-2.4-2.35-3.61-3.51-.51-.49-.79.12-1.13.3-3.88,2.04-8.4-.14-9.18-4.47C-.17,4.81.95,2.32,3.09.97c2.19-1.38,4.9-1.29,6.99.23,2.02,1.46,3.05,4.09,2.38,6.46-.26.9-.1,1.33.69,1.78,1.23.7,2.42,1.48,3.56,2.32.65.47,1.08.4,1.7-.08,3.56-2.79,7.27-5.36,11.24-7.55,4-2.21,8.25-3.07,13.06-2.18Z"/>
      <path class="cls-2" d="M6.35,9.35c-1.72-.02-3.09-1.44-3.07-3.16.03-1.72,1.43-3.06,3.18-3.04,1.73.02,3.08,1.42,3.05,3.15-.03,1.74-1.42,3.07-3.16,3.05Z"/>
      <path class="cls-2" d="M6.25,26.66c-1.71,0-3.14-1.4-3.14-3.1,0-1.7,1.41-3.11,3.13-3.11,1.73,0,3.14,1.39,3.14,3.1,0,1.69-1.42,3.11-3.13,3.11Z"/>
    </g>
  </g>
</svg>