<?xml version="1.0" encoding="UTF-8"?>
<svg id="_レイヤー_2" data-name="レイヤー 2" xmlns="http://www.w3.org/2000/svg" viewBox="0 0 357.15 61">
  <defs>
    <style>
      .cls-1 {
        fill: #ffd800;
      }

      .cls-2 {
        fill: #ef8200;
      }

      .cls-3 {
        fill: #392f2c;
      }

      .cls-4 {
        fill: #fff;
        stroke: #231815;
        stroke-linecap: round;
        stroke-linejoin: round;
        stroke-width: 6px;
      }
    </style>
  </defs>
  <g id="_レイヤー_5" data-name="レイヤー 5">
    <g>
      <g>
        <path class="cls-4" d="M58.77,57.58c-1.05,0-2.31,0-3.08-.7-1.05-.84-1.19-4.48-1.33-5.74-1.54-13.23-1.96-26.67-.42-39.83.21-1.47.28-3.08,1.12-4.34.56-.77,1.54-1.26,2.45-1.47,3.15-.84,6.58-.7,9.87-.42,1.82.14,3.71.28,5.18,1.26,3.5,2.31,1.61,9.8.7,13.86-1.19,5.18-2.03,10.43-2.73,15.68-.42,2.8-.77,5.67-.91,8.47-.14,1.75-.28,3.5.14,5.11.07.49.77.14,1.26.07,2.52-.42,4.97-.98,7.49-1.26,1.54-.21,5.11-.35,6.23.84,1.12,1.26,1.4,3.29,1.26,5.04-.07,1.05-.56,2.38-1.61,2.45-8.54.63-17.08.98-25.62.98Z"/>
        <path class="cls-4" d="M86.51,55.62c-1.33-1.61-1.4-4.06-1.47-6.16-.21-10.22,0-20.44.77-30.66.21-2.66.28-5.32.49-7.98.14-1.82.42-3.92,1.61-5.39,2.1-2.52,8.89-2.73,12.18-2.17,1.4.28,2.87.63,4.06,1.47.84.7,1.4,1.82,1.54,2.87.14.98.14,1.96.07,2.94-.21,3.57-.63,7.14-.98,10.71-.28,2.45-1.4,16.38-1.47,18.83-.07,1.61-.07,10.29-.28,11.83-.14,1.05-.49,2.17-1.12,3.08-.77,1.05-1.96,1.75-3.22,2.1-3.43,1.05-9.94,1.26-12.18-1.47Z"/>
        <path class="cls-4" d="M141.39,55.76c-1.96-1.68-2.31-4.62-3.64-6.86-3.92-6.44-7.84-12.95-12.11-19.18-.14,6.93,2.24,13.72,3.01,20.58.14,1.61-.07,3.36-.98,4.62-.91,1.4-2.59,2.24-4.2,2.59-1.89.35-3.85.49-5.81.28-1.68-.14-3.5-.56-4.9-1.54-.77-.56-1.4-1.4-1.75-2.24-2.03-4.55-2.73-9.59-3.08-14.56-.49-8.61-.63-17.57,2.1-25.76.56-1.68,1.4-3.36,2.87-4.27,2.59-1.68,8.05-1.82,10.57-.07,1.54,1.05,2.73,2.66,3.57,4.34,1.26,2.38,7.28,17.08,8.4,19.53,1.82,3.71,3.85,7.35,6.72,10.36-.21-2.8-1.47-20.02-1.61-22.82-.14-2.38-.21-4.83.14-7.14.21-1.47.56-3.01,1.54-4.06,1.47-1.61,6.79-2.59,8.96-2.52,2.17,0,4.13.84,5.6,2.38,1.26,1.26,1.89,3.08,2.31,4.76.84,3.64.91,7.49.84,11.2-.07,4.83-.49,9.73-1.12,14.49-.63,4.9-1.4,10.01-4.06,14.14-2.94,4.55-9.24,5.32-13.37,1.75Z"/>
        <path class="cls-4" d="M177.09,55.97c-3.01-.42-6.09-1.47-8.54-3.36-1.82-1.47-3.36-3.5-4.34-5.67-1.12-2.66-1.68-5.6-1.96-8.54-.42-4.06-.21-8.12.21-12.18.07-.7.28-4.76.28-5.46.28-3.29.77-6.58,1.68-9.73.49-1.68,1.19-3.43,2.38-4.69.98-.98,2.45-1.61,3.78-1.75,2.73-.21,18.13-.98,20.79-1.05,1.68,0,3.29.07,4.9.42.77.21,1.54.63,2.03,1.26.63.77.98,1.75,1.12,2.66.49,2.73-.63,7.07-3.15,8.33-.7.35-1.54.56-2.31.56-2.31.14-4.69,0-7-.28-1.61-.21-7.28-1.26-8.75-.7-1.26.49-1.68,2.52-1.54,3.78.07.56.28,1.19.7,1.47.63.49,1.47.49,2.24.49,2.73,0,5.53-.56,8.33-.63,1.26-.07,2.66.14,3.57.98,1.68,1.61,1.12,5.46.21,7.56-.42.77-.98,1.61-1.82,2.03-.91.49-1.96.56-3.01.56-2.59,0-5.11-.42-7.7-.63-.84,0-2.94-.21-3.57.42-.28.35-.28.91-.28,1.4.07,1.05.42,2.1,1.12,2.87.49.56,1.26.91,1.96,1.05,1.54.35,3.08.14,4.55-.07,3.64-.63,7-2.38,10.57-3.22,1.19-.35,2.52-.42,3.78-.14.91.28,1.82.91,2.45,1.68.7,1.05,1.33,2.17,1.68,3.36.98,2.66,1.47,5.6.91,8.33-.42,1.82-1.4,3.5-2.73,4.76-1.96,1.89-4.69,2.94-7.28,3.71-4.9,1.4-10.22,1.19-15.26.42Z"/>
        <path class="cls-4" d="M234.7,56.95c-3.78-.84-7.56-2.73-10.22-5.53-2.52-2.59-4.2-6.09-5.25-9.59-1.61-5.25-2.03-10.92-1.75-16.38.21-4.2.77-8.47,1.96-12.46.35-1.05.7-2.1,1.33-3.01.7-.98,1.75-1.75,2.87-2.17,2.59-.98,7.35-.63,9.17,1.47.7.84.98,2.1,1.05,3.22.14,1.75-.14,3.5-.42,5.18-.56,2.73-1.4,5.39-1.96,8.12-.42,1.68-.56,3.57-.07,5.25.49,1.54,1.54,2.87,2.87,3.78,4.2,3.08,11.34,2.59,14.98-1.12.84-.91,1.54-2.03,1.89-3.22.56-1.82.49-3.78.35-5.67-.28-3.29-1.05-6.58-1.05-9.94.07-1.33.21-2.73.98-3.78.7-1.05,1.89-1.82,3.08-2.24,2.8-.91,6.72-.49,8.12,2.1.91,1.68,1.4,3.57,1.82,5.46.98,5.04.91,10.43.21,15.61-.7,5.39-2.24,10.92-4.97,15.61-1.61,2.73-3.78,5.25-6.37,7.07-1.96,1.33-4.27,2.24-6.58,2.66-3.92.63-8.12.49-12.04-.42Z"/>
        <path class="cls-4" d="M275.3,57.58c-1.61-.07-3.43-.56-4.69-1.54-1.12-.91-1.82-2.31-2.1-3.71-.77-4.55-1.19-27.65-1.19-32.27,0-3.36.07-6.93,1.26-10.15.49-1.4,1.4-2.52,2.66-3.36,1.82-1.19,4.06-1.68,6.23-1.89,5.95-.63,12.11-.35,17.71,1.61,3.22,1.12,6.37,2.8,8.75,5.25,2.31,2.31,3.99,5.39,4.62,8.61.84,4.2.07,8.89-1.47,12.95-1.19,3.29-3.64,6.37-6.72,8.05-4.9,2.8-11.2,3.01-16.87,2.45.49,1.96,1.75,8.54,1.12,10.43-1.05,2.94-6.16,3.78-9.31,3.57ZM290.07,27.62c2.1-.21,4.41-.91,5.88-2.45,2.73-2.73,1.96-7.14-.98-9.66-1.89-1.54-4.62-2.24-7.07-2.24-1.26,0-4.69,0-5.6.91-.63.63-.7,3.15-.7,4.06,0,3.01.21,6.02.42,9.03,2.59.7,5.39.56,8.05.35Z"/>
      </g>
      <g>
        <path class="cls-1" d="M58.77,57.58c-1.05,0-2.31,0-3.08-.7-1.05-.84-1.19-4.48-1.33-5.74-1.54-13.23-1.96-26.67-.42-39.83.21-1.47.28-3.08,1.12-4.34.56-.77,1.54-1.26,2.45-1.47,3.15-.84,6.58-.7,9.87-.42,1.82.14,3.71.28,5.18,1.26,3.5,2.31,1.61,9.8.7,13.86-1.19,5.18-2.03,10.43-2.73,15.68-.42,2.8-.77,5.67-.91,8.47-.14,1.75-.28,3.5.14,5.11.07.49.77.14,1.26.07,2.52-.42,4.97-.98,7.49-1.26,1.54-.21,5.11-.35,6.23.84,1.12,1.26,1.4,3.29,1.26,5.04-.07,1.05-.56,2.38-1.61,2.45-8.54.63-17.08.98-25.62.98Z"/>
        <path class="cls-1" d="M86.51,55.62c-1.33-1.61-1.4-4.06-1.47-6.16-.21-10.22,0-20.44.77-30.66.21-2.66.28-5.32.49-7.98.14-1.82.42-3.92,1.61-5.39,2.1-2.52,8.89-2.73,12.18-2.17,1.4.28,2.87.63,4.06,1.47.84.7,1.4,1.82,1.54,2.87.14.98.14,1.96.07,2.94-.21,3.57-.63,7.14-.98,10.71-.28,2.45-1.4,16.38-1.47,18.83-.07,1.61-.07,10.29-.28,11.83-.14,1.05-.49,2.17-1.12,3.08-.77,1.05-1.96,1.75-3.22,2.1-3.43,1.05-9.94,1.26-12.18-1.47Z"/>
        <path class="cls-1" d="M141.39,55.76c-1.96-1.68-2.31-4.62-3.64-6.86-3.92-6.44-7.84-12.95-12.11-19.18-.14,6.93,2.24,13.72,3.01,20.58.14,1.61-.07,3.36-.98,4.62-.91,1.4-2.59,2.24-4.2,2.59-1.89.35-3.85.49-5.81.28-1.68-.14-3.5-.56-4.9-1.54-.77-.56-1.4-1.4-1.75-2.24-2.03-4.55-2.73-9.59-3.08-14.56-.49-8.61-.63-17.57,2.1-25.76.56-1.68,1.4-3.36,2.87-4.27,2.59-1.68,8.05-1.82,10.57-.07,1.54,1.05,2.73,2.66,3.57,4.34,1.26,2.38,7.28,17.08,8.4,19.53,1.82,3.71,3.85,7.35,6.72,10.36-.21-2.8-1.47-20.02-1.61-22.82-.14-2.38-.21-4.83.14-7.14.21-1.47.56-3.01,1.54-4.06,1.47-1.61,6.79-2.59,8.96-2.52,2.17,0,4.13.84,5.6,2.38,1.26,1.26,1.89,3.08,2.31,4.76.84,3.64.91,7.49.84,11.2-.07,4.83-.49,9.73-1.12,14.49-.63,4.9-1.4,10.01-4.06,14.14-2.94,4.55-9.24,5.32-13.37,1.75Z"/>
        <path class="cls-1" d="M177.09,55.97c-3.01-.42-6.09-1.47-8.54-3.36-1.82-1.47-3.36-3.5-4.34-5.67-1.12-2.66-1.68-5.6-1.96-8.54-.42-4.06-.21-8.12.21-12.18.07-.7.28-4.76.28-5.46.28-3.29.77-6.58,1.68-9.73.49-1.68,1.19-3.43,2.38-4.69.98-.98,2.45-1.61,3.78-1.75,2.73-.21,18.13-.98,20.79-1.05,1.68,0,3.29.07,4.9.42.77.21,1.54.63,2.03,1.26.63.77.98,1.75,1.12,2.66.49,2.73-.63,7.07-3.15,8.33-.7.35-1.54.56-2.31.56-2.31.14-4.69,0-7-.28-1.61-.21-7.28-1.26-8.75-.7-1.26.49-1.68,2.52-1.54,3.78.07.56.28,1.19.7,1.47.63.49,1.47.49,2.24.49,2.73,0,5.53-.56,8.33-.63,1.26-.07,2.66.14,3.57.98,1.68,1.61,1.12,5.46.21,7.56-.42.77-.98,1.61-1.82,2.03-.91.49-1.96.56-3.01.56-2.59,0-5.11-.42-7.7-.63-.84,0-2.94-.21-3.57.42-.28.35-.28.91-.28,1.4.07,1.05.42,2.1,1.12,2.87.49.56,1.26.91,1.96,1.05,1.54.35,3.08.14,4.55-.07,3.64-.63,7-2.38,10.57-3.22,1.19-.35,2.52-.42,3.78-.14.91.28,1.82.91,2.45,1.68.7,1.05,1.33,2.17,1.68,3.36.98,2.66,1.47,5.6.91,8.33-.42,1.82-1.4,3.5-2.73,4.76-1.96,1.89-4.69,2.94-7.28,3.71-4.9,1.4-10.22,1.19-15.26.42Z"/>
        <path class="cls-1" d="M234.7,56.95c-3.78-.84-7.56-2.73-10.22-5.53-2.52-2.59-4.2-6.09-5.25-9.59-1.61-5.25-2.03-10.92-1.75-16.38.21-4.2.77-8.47,1.96-12.46.35-1.05.7-2.1,1.33-3.01.7-.98,1.75-1.75,2.87-2.17,2.59-.98,7.35-.63,9.17,1.47.7.84.98,2.1,1.05,3.22.14,1.75-.14,3.5-.42,5.18-.56,2.73-1.4,5.39-1.96,8.12-.42,1.68-.56,3.57-.07,5.25.49,1.54,1.54,2.87,2.87,3.78,4.2,3.08,11.34,2.59,14.98-1.12.84-.91,1.54-2.03,1.89-3.22.56-1.82.49-3.78.35-5.67-.28-3.29-1.05-6.58-1.05-9.94.07-1.33.21-2.73.98-3.78.7-1.05,1.89-1.82,3.08-2.24,2.8-.91,6.72-.49,8.12,2.1.91,1.68,1.4,3.57,1.82,5.46.98,5.04.91,10.43.21,15.61-.7,5.39-2.24,10.92-4.97,15.61-1.61,2.73-3.78,5.25-6.37,7.07-1.96,1.33-4.27,2.24-6.58,2.66-3.92.63-8.12.49-12.04-.42Z"/>
        <path class="cls-1" d="M275.3,57.58c-1.61-.07-3.43-.56-4.69-1.54-1.12-.91-1.82-2.31-2.1-3.71-.77-4.55-1.19-27.65-1.19-32.27,0-3.36.07-6.93,1.26-10.15.49-1.4,1.4-2.52,2.66-3.36,1.82-1.19,4.06-1.68,6.23-1.89,5.95-.63,12.11-.35,17.71,1.61,3.22,1.12,6.37,2.8,8.75,5.25,2.31,2.31,3.99,5.39,4.62,8.61.84,4.2.07,8.89-1.47,12.95-1.19,3.29-3.64,6.37-6.72,8.05-4.9,2.8-11.2,3.01-16.87,2.45.49,1.96,1.75,8.54,1.12,10.43-1.05,2.94-6.16,3.78-9.31,3.57ZM290.07,27.62c2.1-.21,4.41-.91,5.88-2.45,2.73-2.73,1.96-7.14-.98-9.66-1.89-1.54-4.62-2.24-7.07-2.24-1.26,0-4.69,0-5.6.91-.63.63-.7,3.15-.7,4.06,0,3.01.21,6.02.42,9.03,2.59.7,5.39.56,8.05.35Z"/>
      </g>
      <g>
        <polygon class="cls-2" points="12.13 22.33 17.76 12.99 21.75 23.14 32.37 25.6 23.96 32.53 24.9 43.4 15.7 37.53 5.66 41.79 8.4 31.23 1.25 22.99 12.13 22.33"/>
        <path class="cls-3" d="M12.13,22.33c0,.11-1,.28-2.86.5-.94.1-2.08.22-3.41.35-.67.06-1.39.13-2.15.2-.47.04-.56.06-.74.08-.15.02-.31.04-.47.06.11.12.23.24.35.36.14.14.13.12.49.52.57.63,1.16,1.28,1.77,1.96,1.3,1.46,2.7,3.02,4.17,4.67-.43,1.76-.89,3.6-1.36,5.51-.22.88-.44,1.78-.67,2.7l-.17.69-.04.15v.03s-.02.11-.02.11l.1-.05.04-.02.56-.24c.82-.35,1.64-.71,2.48-1.07,1.83-.78,3.7-1.58,5.6-2.4,2.56,1.63,5.21,3.31,7.93,5.03-.27-3.21-.53-6.33-.79-9.36,1.6-1.31,3.18-2.6,4.72-3.85.71-.57,1.4-1.14,2.09-1.7l.47-.38.04-.03.1-.07-.11-.04h-.03s-.15-.05-.15-.05l-.69-.17c-.92-.22-1.82-.44-2.7-.66-1.91-.47-3.75-.91-5.51-1.34-.78-2.07-1.52-4.03-2.2-5.86-.32-.85-.62-1.68-.92-2.47-.19-.51-.17-.49-.24-.68-.05-.16-.11-.32-.16-.48-.09.13-.18.26-.27.39-.1.15-.16.22-.41.62-.42.64-.81,1.25-1.17,1.81-.74,1.12-1.37,2.07-1.89,2.86-1.05,1.55-1.67,2.36-1.76,2.3-.1-.06.33-.98,1.21-2.64.45-.83,1-1.84,1.64-3.01.33-.59.68-1.22,1.05-1.88.58-1,1.19-2.05,1.83-3.16,1.27,3.08,2.78,6.72,4.47,10.81,1.51.33,3.08.67,4.72,1.03,2.36.53,4.81,1.08,7.33,1.65-2.99,2.49-6.14,5.11-9.41,7.84.35,4,.72,8.13,1.09,12.37-3.58-2.29-7.08-4.53-10.46-6.69-3.93,1.64-7.71,3.22-11.3,4.72.67-2.5,1.31-4.92,1.93-7.26.44-1.61.87-3.17,1.27-4.66-2.84-3.39-5.37-6.41-7.52-8.97,1.28-.06,2.5-.11,3.65-.16.77-.02,1.48-.04,2.16-.06,1.34-.02,2.48-.04,3.43-.06,1.87-.01,2.89.03,2.9.15Z"/>
      </g>
      <g>
        <polygon class="cls-2" points="334.89 22.33 340.51 12.99 344.51 23.14 355.13 25.6 346.71 32.53 347.65 43.4 338.46 37.53 328.42 41.79 331.15 31.23 324.01 22.99 334.89 22.33"/>
        <path class="cls-3" d="M334.89,22.33c0,.11-1,.28-2.86.5-.94.1-2.08.22-3.41.35-.67.06-1.39.13-2.15.2-.47.04-.56.06-.74.08-.15.02-.31.04-.47.06.11.12.23.24.35.36.14.14.13.12.49.52.57.63,1.16,1.28,1.77,1.96,1.3,1.46,2.7,3.02,4.17,4.67-.43,1.76-.89,3.6-1.36,5.51-.22.88-.44,1.78-.67,2.7l-.17.69-.04.15v.03s-.02.11-.02.11l.1-.05.04-.02.56-.24c.82-.35,1.64-.71,2.48-1.07,1.83-.78,3.7-1.58,5.6-2.4,2.56,1.63,5.21,3.31,7.93,5.03-.27-3.21-.53-6.33-.79-9.36,1.6-1.31,3.18-2.6,4.72-3.85.71-.57,1.4-1.14,2.09-1.7l.47-.38.04-.03.1-.07-.11-.04h-.03s-.15-.05-.15-.05l-.69-.17c-.92-.22-1.82-.44-2.7-.66-1.91-.47-3.75-.91-5.51-1.34-.78-2.07-1.52-4.03-2.2-5.86-.32-.85-.62-1.68-.92-2.47-.19-.51-.17-.49-.24-.68-.05-.16-.11-.32-.16-.48-.09.13-.18.26-.27.39-.1.15-.16.22-.41.62-.42.64-.81,1.25-1.17,1.81-.74,1.12-1.37,2.07-1.89,2.86-1.05,1.55-1.67,2.36-1.76,2.3-.1-.06.33-.98,1.21-2.64.45-.83,1-1.84,1.64-3.01.33-.59.68-1.22,1.05-1.88.58-1,1.19-2.05,1.83-3.16,1.27,3.08,2.78,6.72,4.47,10.81,1.51.33,3.08.67,4.72,1.03,2.36.53,4.81,1.08,7.33,1.65-2.99,2.49-6.14,5.11-9.41,7.84.35,4,.72,8.13,1.09,12.37-3.58-2.29-7.08-4.53-10.46-6.69-3.93,1.64-7.71,3.22-11.3,4.72.67-2.5,1.31-4.92,1.93-7.26.44-1.61.87-3.17,1.27-4.66-2.84-3.39-5.37-6.41-7.52-8.97,1.28-.06,2.5-.11,3.65-.16.77-.02,1.49-.04,2.16-.06,1.34-.02,2.48-.04,3.43-.06,1.87-.01,2.89.03,2.9.15Z"/>
      </g>
    </g>
  </g>
</svg>