<?xml version="1.0" encoding="UTF-8"?>
<svg id="_レイヤー_2" data-name="レイヤー 2" xmlns="http://www.w3.org/2000/svg" viewBox="0 0 310.63 62.23">
  <defs>
    <style>
      .cls-1 {
        fill: #ffd800;
      }

      .cls-2 {
        fill: #392f2c;
      }

      .cls-3 {
        fill: #e96093;
      }

      .cls-4 {
        fill: #fff;
        stroke: #231815;
        stroke-linecap: round;
        stroke-linejoin: round;
        stroke-width: 6px;
      }
    </style>
  </defs>
  <g id="_レイヤー_5" data-name="レイヤー 5">
    <g>
      <g>
        <path class="cls-4" d="M89.03,55.23c-1.96-1.68-2.31-4.62-3.64-6.86-3.92-6.44-7.84-12.95-12.11-19.18-.14,6.93,2.24,13.72,3.01,20.58.14,1.61-.07,3.36-.98,4.62-.91,1.4-2.59,2.24-4.2,2.59-1.89.35-3.85.49-5.81.28-1.68-.14-3.5-.56-4.9-1.54-.77-.56-1.4-1.4-1.75-2.24-2.03-4.55-2.73-9.59-3.08-14.56-.49-8.61-.63-17.57,2.1-25.76.56-1.68,1.4-3.36,2.87-4.27,2.59-1.68,8.05-1.82,10.57-.07,1.54,1.05,2.73,2.66,3.57,4.34,1.26,2.38,7.28,17.08,8.4,19.53,1.82,3.71,3.85,7.35,6.72,10.36-.21-2.8-1.47-20.02-1.61-22.82-.14-2.38-.21-4.83.14-7.14.21-1.47.56-3.01,1.54-4.06,1.47-1.61,6.79-2.59,8.96-2.52,2.17,0,4.13.84,5.6,2.38,1.26,1.26,1.89,3.08,2.31,4.76.84,3.64.91,7.49.84,11.2-.07,4.83-.49,9.73-1.12,14.49-.63,4.9-1.4,10.01-4.06,14.14-2.94,4.55-9.24,5.32-13.37,1.75Z"/>
        <path class="cls-4" d="M124.74,55.44c-3.01-.42-6.09-1.47-8.54-3.36-1.82-1.47-3.36-3.5-4.34-5.67-1.12-2.66-1.68-5.6-1.96-8.54-.42-4.06-.21-8.12.21-12.18.07-.7.28-4.76.28-5.46.28-3.29.77-6.58,1.68-9.73.49-1.68,1.19-3.43,2.38-4.69.98-.98,2.45-1.61,3.78-1.75,2.73-.21,18.13-.98,20.79-1.05,1.68,0,3.29.07,4.9.42.77.21,1.54.63,2.03,1.26.63.77.98,1.75,1.12,2.66.49,2.73-.63,7.07-3.15,8.33-.7.35-1.54.56-2.31.56-2.31.14-4.69,0-7-.28-1.61-.21-7.28-1.26-8.75-.7-1.26.49-1.68,2.52-1.54,3.78.07.56.28,1.19.7,1.47.63.49,1.47.49,2.24.49,2.73,0,5.53-.56,8.33-.63,1.26-.07,2.66.14,3.57.98,1.68,1.61,1.12,5.46.21,7.56-.42.77-.98,1.61-1.82,2.03-.91.49-1.96.56-3.01.56-2.59,0-5.11-.42-7.7-.63-.84,0-2.94-.21-3.57.42-.28.35-.28.91-.28,1.4.07,1.05.42,2.1,1.12,2.87.49.56,1.26.91,1.96,1.05,1.54.35,3.08.14,4.55-.07,3.64-.63,7-2.38,10.57-3.22,1.19-.35,2.52-.42,3.78-.14.91.28,1.82.91,2.45,1.68.7,1.05,1.33,2.17,1.68,3.36.98,2.66,1.47,5.6.91,8.33-.42,1.82-1.4,3.5-2.73,4.76-1.96,1.89-4.69,2.94-7.28,3.71-4.9,1.4-10.22,1.19-15.26.42Z"/>
        <path class="cls-4" d="M189.25,55.51c-1.4-.63-2.59-1.75-3.36-3.01-1.82-3.01-2.66-6.51-3.29-9.94-.77-4.13-1.33-8.33-1.96-12.46-.56,3.92-1.12,7.84-1.82,11.76-.56,3.15-1.19,6.3-2.66,9.17-.7,1.47-1.75,2.94-3.15,3.85-2.38,1.47-5.53,1.61-8.33,1.19-1.68-.28-3.43-.63-5.04-1.26-1.05-.42-2.1-.91-2.94-1.75-2.73-2.59-4.62-13.79-5.18-17.5-.98-6.58-1.54-13.23-1.96-19.88-.14-1.96-.49-3.99-.28-5.95.14-.63.42-1.33.91-1.82,2.1-2.03,9.45-2.24,12.32-2.03,1.47.14,3.08.35,4.13,1.4,1.33,1.33,1.61,3.5,1.89,5.39.56,4.62.84,9.24,1.33,13.86.35,3.92.77,7.77,1.33,11.62.49-2.52,3.92-15.89,4.76-18.27.35-.91.7-1.89,1.26-2.59.42-.49.91-.91,1.47-1.05,1.19-.35,3.92-.14,4.83.56.7.49,1.05,1.33,1.4,2.03,1.19,2.66,4.62,16.59,5.25,19.46.91-6.93,1.54-13.86,2.1-20.79.21-2.38.49-4.83.98-7.21.28-1.05.7-2.17,1.4-2.94.7-.7,1.75-1.05,2.73-1.19,1.89-.28,3.85-.35,5.74-.21,1.82.14,3.64.28,5.32.77.91.21,1.89.56,2.59,1.19.56.49.91,1.26.98,1.96.21,2.1-.14,4.27-.28,6.37-.56,8.12-1.26,16.24-2.73,24.22-.63,3.36-1.4,6.72-2.66,9.87-.42,1.05-.91,2.1-1.75,2.87-.98.98-2.45,1.54-3.78,1.96-1.82.63-3.78,1.05-5.67,1.19-1.96.14-4.13,0-5.88-.84Z"/>
        <path class="cls-4" d="M218.94,58.52c-3.5-1.96-4.34-8.54-3.57-12.53.21-1.26.7-2.59,1.54-3.64.77-.91,1.96-1.47,3.15-1.68,1.82-.35,3.71-.21,5.53-.14,3.15.07,6.3.07,9.38-.35,1.33-.14,2.66-.42,3.78-1.05.63-.35,1.19-.91,1.33-1.61.49-1.75-1.4-2.73-3.15-3.15-1.89-.56-3.92-.7-5.95-.91-3.71-.49-7.63-.91-11.06-2.45-1.82-.84-3.43-2.17-4.62-3.71-4.34-5.6-4.62-14.49.63-19.18,2.38-2.17,5.74-3.15,8.82-3.78,5.39-1.05,10.92-1.12,16.45-1.05,2.87,0,5.95.21,8.68,1.4,1.47.63,3.01,1.54,3.85,2.94,2.03,3.36,1.12,10.22-1.26,13.3-.91,1.26-2.38,2.17-3.85,2.59-1.89.56-4.06.35-5.88-.28-4.13-1.4-7.63-4.62-11.97-5.25-3.36-.49-7.7.21-7.91,3.64-.14,1.61,1.61,3.5,3.15,4.06.98.35,2.03.49,3.08.7,5.39.91,10.92.98,16.38,1.68,2.8.35,5.67,1.12,7.91,2.8,1.26.84,2.24,2.1,3.01,3.43,1.19,2.17,1.82,4.69,1.96,7.14.21,3.15-.49,6.65-2.24,9.31-1.19,1.75-2.94,3.15-4.76,4.13-3.5,1.89-7.42,2.73-11.27,3.29-5.6.7-11.27.7-16.87,1.05-1.4.07-2.94-.07-4.27-.7Z"/>
      </g>
      <g>
        <polygon class="cls-3" points="12.13 23.66 17.76 14.32 21.75 24.47 32.37 26.93 23.96 33.86 24.9 44.72 15.7 38.86 5.66 43.11 8.4 32.56 1.25 24.32 12.13 23.66"/>
        <path class="cls-2" d="M12.13,23.66c0,.11-1,.28-2.86.5-.94.1-2.08.22-3.41.35-.67.06-1.39.13-2.15.2-.47.04-.56.06-.74.08-.15.02-.31.04-.47.06.11.12.23.24.35.36.14.15.13.12.49.52.57.63,1.16,1.28,1.77,1.96,1.3,1.46,2.7,3.02,4.17,4.67-.43,1.76-.89,3.6-1.36,5.51-.22.88-.44,1.78-.67,2.7l-.17.69-.04.15v.03s-.02.11-.02.11l.1-.05.04-.02.56-.24c.82-.35,1.64-.71,2.48-1.07,1.83-.78,3.7-1.58,5.6-2.4,2.56,1.63,5.21,3.31,7.93,5.03-.27-3.21-.53-6.33-.79-9.36,1.6-1.31,3.18-2.6,4.72-3.85.71-.57,1.4-1.14,2.09-1.7l.47-.38.04-.03.1-.07-.11-.04h-.03s-.15-.05-.15-.05l-.69-.17c-.92-.22-1.82-.44-2.7-.66-1.91-.47-3.75-.91-5.51-1.34-.78-2.07-1.52-4.03-2.2-5.86-.32-.85-.62-1.68-.92-2.47-.19-.51-.17-.49-.24-.68-.05-.16-.11-.32-.16-.47-.09.13-.18.26-.27.39-.1.15-.16.22-.41.62-.42.64-.81,1.25-1.17,1.81-.74,1.12-1.37,2.07-1.89,2.86-1.05,1.55-1.67,2.36-1.76,2.3s.33-.98,1.21-2.64c.45-.83,1-1.84,1.64-3.01.33-.59.68-1.22,1.05-1.88.58-1,1.19-2.05,1.83-3.16,1.27,3.08,2.78,6.72,4.47,10.81,1.51.33,3.08.67,4.72,1.03,2.36.53,4.81,1.08,7.33,1.65-2.99,2.49-6.14,5.11-9.41,7.83.35,4,.72,8.13,1.09,12.37-3.58-2.29-7.08-4.53-10.46-6.69-3.93,1.64-7.71,3.22-11.3,4.72.67-2.5,1.31-4.92,1.93-7.26.44-1.61.87-3.17,1.27-4.66-2.84-3.39-5.37-6.41-7.52-8.97,1.28-.06,2.5-.11,3.65-.16.77-.02,1.49-.04,2.16-.06,1.34-.02,2.48-.04,3.43-.06,1.87-.01,2.89.03,2.9.15Z"/>
      </g>
      <g>
        <polygon class="cls-3" points="288.38 23.66 294 14.32 297.99 24.47 308.62 26.93 300.2 33.86 301.14 44.72 291.95 38.86 281.91 43.11 284.64 32.56 277.49 24.32 288.38 23.66"/>
        <path class="cls-2" d="M288.38,23.66c0,.11-1,.28-2.86.5-.94.1-2.08.22-3.41.35-.67.06-1.39.13-2.15.2-.47.04-.56.06-.74.08-.15.02-.31.04-.47.06.11.12.23.24.35.36.14.15.13.12.49.52.57.63,1.16,1.28,1.77,1.96,1.3,1.46,2.7,3.02,4.17,4.67-.43,1.76-.89,3.6-1.36,5.51-.22.88-.44,1.78-.67,2.7l-.17.69-.04.15v.03s-.02.11-.02.11l.1-.05.04-.02.56-.24c.82-.35,1.64-.71,2.48-1.07,1.83-.78,3.7-1.58,5.6-2.4,2.56,1.63,5.21,3.31,7.93,5.03-.27-3.21-.53-6.33-.79-9.36,1.6-1.31,3.18-2.6,4.72-3.85.71-.57,1.4-1.14,2.09-1.7l.47-.38.04-.03.1-.07-.11-.04h-.03s-.15-.05-.15-.05l-.69-.17c-.92-.22-1.82-.44-2.7-.66-1.91-.47-3.75-.91-5.51-1.34-.78-2.07-1.52-4.03-2.2-5.86-.32-.85-.62-1.68-.92-2.47-.19-.51-.17-.49-.24-.68-.05-.16-.11-.32-.16-.47-.09.13-.18.26-.27.39-.1.15-.16.22-.41.62-.42.64-.81,1.25-1.17,1.81-.74,1.12-1.37,2.07-1.89,2.86-1.05,1.55-1.67,2.36-1.76,2.3-.1-.06.33-.98,1.21-2.64.45-.83,1-1.84,1.64-3.01.33-.59.68-1.22,1.05-1.88.58-1,1.19-2.05,1.83-3.16,1.27,3.08,2.78,6.72,4.47,10.81,1.51.33,3.08.67,4.72,1.03,2.36.53,4.81,1.08,7.33,1.65-2.99,2.49-6.14,5.11-9.41,7.83.35,4,.72,8.13,1.09,12.37-3.58-2.29-7.08-4.53-10.46-6.69-3.93,1.64-7.71,3.22-11.3,4.72.67-2.5,1.31-4.92,1.93-7.26.44-1.61.87-3.17,1.27-4.66-2.84-3.39-5.37-6.41-7.52-8.97,1.28-.06,2.5-.11,3.65-.16.77-.02,1.49-.04,2.16-.06,1.34-.02,2.48-.04,3.43-.06,1.87-.01,2.89.03,2.9.15Z"/>
      </g>
      <g>
        <path class="cls-1" d="M89.03,55.23c-1.96-1.68-2.31-4.62-3.64-6.86-3.92-6.44-7.84-12.95-12.11-19.18-.14,6.93,2.24,13.72,3.01,20.58.14,1.61-.07,3.36-.98,4.62-.91,1.4-2.59,2.24-4.2,2.59-1.89.35-3.85.49-5.81.28-1.68-.14-3.5-.56-4.9-1.54-.77-.56-1.4-1.4-1.75-2.24-2.03-4.55-2.73-9.59-3.08-14.56-.49-8.61-.63-17.57,2.1-25.76.56-1.68,1.4-3.36,2.87-4.27,2.59-1.68,8.05-1.82,10.57-.07,1.54,1.05,2.73,2.66,3.57,4.34,1.26,2.38,7.28,17.08,8.4,19.53,1.82,3.71,3.85,7.35,6.72,10.36-.21-2.8-1.47-20.02-1.61-22.82-.14-2.38-.21-4.83.14-7.14.21-1.47.56-3.01,1.54-4.06,1.47-1.61,6.79-2.59,8.96-2.52,2.17,0,4.13.84,5.6,2.38,1.26,1.26,1.89,3.08,2.31,4.76.84,3.64.91,7.49.84,11.2-.07,4.83-.49,9.73-1.12,14.49-.63,4.9-1.4,10.01-4.06,14.14-2.94,4.55-9.24,5.32-13.37,1.75Z"/>
        <path class="cls-1" d="M124.74,55.44c-3.01-.42-6.09-1.47-8.54-3.36-1.82-1.47-3.36-3.5-4.34-5.67-1.12-2.66-1.68-5.6-1.96-8.54-.42-4.06-.21-8.12.21-12.18.07-.7.28-4.76.28-5.46.28-3.29.77-6.58,1.68-9.73.49-1.68,1.19-3.43,2.38-4.69.98-.98,2.45-1.61,3.78-1.75,2.73-.21,18.13-.98,20.79-1.05,1.68,0,3.29.07,4.9.42.77.21,1.54.63,2.03,1.26.63.77.98,1.75,1.12,2.66.49,2.73-.63,7.07-3.15,8.33-.7.35-1.54.56-2.31.56-2.31.14-4.69,0-7-.28-1.61-.21-7.28-1.26-8.75-.7-1.26.49-1.68,2.52-1.54,3.78.07.56.28,1.19.7,1.47.63.49,1.47.49,2.24.49,2.73,0,5.53-.56,8.33-.63,1.26-.07,2.66.14,3.57.98,1.68,1.61,1.12,5.46.21,7.56-.42.77-.98,1.61-1.82,2.03-.91.49-1.96.56-3.01.56-2.59,0-5.11-.42-7.7-.63-.84,0-2.94-.21-3.57.42-.28.35-.28.91-.28,1.4.07,1.05.42,2.1,1.12,2.87.49.56,1.26.91,1.96,1.05,1.54.35,3.08.14,4.55-.07,3.64-.63,7-2.38,10.57-3.22,1.19-.35,2.52-.42,3.78-.14.91.28,1.82.91,2.45,1.68.7,1.05,1.33,2.17,1.68,3.36.98,2.66,1.47,5.6.91,8.33-.42,1.82-1.4,3.5-2.73,4.76-1.96,1.89-4.69,2.94-7.28,3.71-4.9,1.4-10.22,1.19-15.26.42Z"/>
        <path class="cls-1" d="M189.25,55.51c-1.4-.63-2.59-1.75-3.36-3.01-1.82-3.01-2.66-6.51-3.29-9.94-.77-4.13-1.33-8.33-1.96-12.46-.56,3.92-1.12,7.84-1.82,11.76-.56,3.15-1.19,6.3-2.66,9.17-.7,1.47-1.75,2.94-3.15,3.85-2.38,1.47-5.53,1.61-8.33,1.19-1.68-.28-3.43-.63-5.04-1.26-1.05-.42-2.1-.91-2.94-1.75-2.73-2.59-4.62-13.79-5.18-17.5-.98-6.58-1.54-13.23-1.96-19.88-.14-1.96-.49-3.99-.28-5.95.14-.63.42-1.33.91-1.82,2.1-2.03,9.45-2.24,12.32-2.03,1.47.14,3.08.35,4.13,1.4,1.33,1.33,1.61,3.5,1.89,5.39.56,4.62.84,9.24,1.33,13.86.35,3.92.77,7.77,1.33,11.62.49-2.52,3.92-15.89,4.76-18.27.35-.91.7-1.89,1.26-2.59.42-.49.91-.91,1.47-1.05,1.19-.35,3.92-.14,4.83.56.7.49,1.05,1.33,1.4,2.03,1.19,2.66,4.62,16.59,5.25,19.46.91-6.93,1.54-13.86,2.1-20.79.21-2.38.49-4.83.98-7.21.28-1.05.7-2.17,1.4-2.94.7-.7,1.75-1.05,2.73-1.19,1.89-.28,3.85-.35,5.74-.21,1.82.14,3.64.28,5.32.77.91.21,1.89.56,2.59,1.19.56.49.91,1.26.98,1.96.21,2.1-.14,4.27-.28,6.37-.56,8.12-1.26,16.24-2.73,24.22-.63,3.36-1.4,6.72-2.66,9.87-.42,1.05-.91,2.1-1.75,2.87-.98.98-2.45,1.54-3.78,1.96-1.82.63-3.78,1.05-5.67,1.19-1.96.14-4.13,0-5.88-.84Z"/>
        <path class="cls-1" d="M218.94,58.52c-3.5-1.96-4.34-8.54-3.57-12.53.21-1.26.7-2.59,1.54-3.64.77-.91,1.96-1.47,3.15-1.68,1.82-.35,3.71-.21,5.53-.14,3.15.07,6.3.07,9.38-.35,1.33-.14,2.66-.42,3.78-1.05.63-.35,1.19-.91,1.33-1.61.49-1.75-1.4-2.73-3.15-3.15-1.89-.56-3.92-.7-5.95-.91-3.71-.49-7.63-.91-11.06-2.45-1.82-.84-3.43-2.17-4.62-3.71-4.34-5.6-4.62-14.49.63-19.18,2.38-2.17,5.74-3.15,8.82-3.78,5.39-1.05,10.92-1.12,16.45-1.05,2.87,0,5.95.21,8.68,1.4,1.47.63,3.01,1.54,3.85,2.94,2.03,3.36,1.12,10.22-1.26,13.3-.91,1.26-2.38,2.17-3.85,2.59-1.89.56-4.06.35-5.88-.28-4.13-1.4-7.63-4.62-11.97-5.25-3.36-.49-7.7.21-7.91,3.64-.14,1.61,1.61,3.5,3.15,4.06.98.35,2.03.49,3.08.7,5.39.91,10.92.98,16.38,1.68,2.8.35,5.67,1.12,7.91,2.8,1.26.84,2.24,2.1,3.01,3.43,1.19,2.17,1.82,4.69,1.96,7.14.21,3.15-.49,6.65-2.24,9.31-1.19,1.75-2.94,3.15-4.76,4.13-3.5,1.89-7.42,2.73-11.27,3.29-5.6.7-11.27.7-16.87,1.05-1.4.07-2.94-.07-4.27-.7Z"/>
      </g>
    </g>
  </g>
</svg>