<?xml version="1.0" encoding="UTF-8"?>
<svg id="_レイヤー_2" data-name="レイヤー 2" xmlns="http://www.w3.org/2000/svg" viewBox="0 0 457.25 36.37">
  <defs>
    <style>
      .cls-1, .cls-2 {
        fill: #e95504;
      }

      .cls-3, .cls-4 {
        fill: #00b2d5;
      }

      .cls-3, .cls-5, .cls-2 {
        stroke: #fff;
        stroke-linecap: round;
        stroke-linejoin: round;
        stroke-width: 4.43px;
      }

      .cls-5 {
        fill: #fff000;
      }

      .cls-6 {
        fill: #519b58;
      }

      .cls-7 {
        fill: #888;
      }
    </style>
  </defs>
  <g id="_背景" data-name="背景">
    <g>
      <g>
        <path class="cls-2" d="M29.09,13.41h-4.18c-.82,7.14-1.94,13.46-3.32,18.92l-5.97-1.22c.92-3.77,1.73-10.15,2.14-17.7l-4.28.05-.25,9.03h-6.53v-9.03H2.32l-.1-6.07h4.49v-3.57h7.04l-.1,3.57,4.39-.05c.05-1.33.05-2.65.05-4.03l7.75.51-.3,3.52h3.47l.1,6.07Z"/>
        <path class="cls-2" d="M36.03,13.72l-.05-6.07,12.85-.05.05,6.07-12.85.05ZM41.08,26.72c7.4-4.89,12.24-9.28,18.41-17.08l5.56,4.23c-5.86,7.85-11.63,13.41-19.38,18.87l-4.59-6.02Z"/>
        <path class="cls-2" d="M98.78,13.41h-4.18c-.82,7.14-1.94,13.46-3.32,18.92l-5.97-1.22c.92-3.77,1.73-10.15,2.14-17.7l-4.28.05-.25,9.03h-6.53v-9.03h-4.39l-.1-6.07h4.49v-3.57h7.04l-.1,3.57,4.39-.05c.05-1.33.05-2.65.05-4.03l7.75.51-.3,3.52h3.47l.1,6.07Z"/>
        <path class="cls-2" d="M105.72,13.72l-.05-6.07,12.85-.05.05,6.07-12.85.05ZM110.76,26.72c7.4-4.89,12.24-9.28,18.41-17.08l5.56,4.23c-5.86,7.85-11.63,13.41-19.38,18.87l-4.59-6.02Z"/>
        <path class="cls-3" d="M151.37,32.48l-11.37-14.53,10.71-14.69,6.73,4.44-8.62,10.56,8.06,10.3-5.51,3.93Z"/>
        <path class="cls-3" d="M184.24,22.28l5.51,2.09c-2.19,5.25-4.69,7.7-10.3,7.7-6.48,0-10-4.95-9.59-11.48l.05-.46h-3.72l-.05-5.56h4.13l.15-2.75h-6.27l-.1-5.56h6.73l.15-2.45,6.78.36-.15,2.04h12.75l.1,5.56-13.21.05-.15,2.75,11.22-.05.05,5.56-11.63.05-.1,1.38c-.2,3.37,1.43,5.2,3.26,5.2,1.63,0,3.47-1.43,4.39-4.44Z"/>
        <path class="cls-3" d="M199.57,23.25c-1.17-5.81-2.09-11.88-2.3-17.75l6.17-.51c.21,5.1.71,9.08,1.02,12.44l2.5-.41.66,4.95-8.06,1.27ZM210.68,31.26c1.73-8.01,3.16-15.96,3.37-24.89l6.78.36c-.87,10.15-2.3,18.82-4.23,25.5l-5.92-.97Z"/>
        <path class="cls-3" d="M252.84,27.95c-2.96,2.09-5.61,3.06-7.85,3.06-3.67,0-6.32-2.55-7.7-6.63l-3.26,1.68-1.38,5.92-6.32-.97,5.91-27.23,6.83,1.02-3.26,13.72,5.41-2.75c1.58,6.12,2.7,8.52,4.74,8.52,1.02,0,2.24-.61,3.83-1.63l3.06,5.3Z"/>
        <path class="cls-5" d="M273.65,27.26l.25,4.87c-1.69.33-3.26.49-4.87.49-1.24,0-2.52-.12-3.84-.29-3.96-.54-6.6-3.47-6.6-6.85,0-2.02.91-4.21,3.05-6.19l-3.75-7.14,4.95-1.86,3.05,6.11c2.15-1.03,4.83-1.9,8.05-2.52l.74,5.24c-7.84,1.48-10.36,4.21-10.36,6.15,0,1.07.78,1.86,1.86,2.06,1.2.21,2.15.33,3.18.33,1.2,0,2.48-.16,4.29-.41Z"/>
        <path class="cls-5" d="M292.53,8.69c-1.07,1.86-2.43,4-3.92,6.15l2.43-.08v16.51l-5.57.08-.25-11.55-1.28,1.78-4.87-3.39c1.9-2.6,6.4-9.65,8.17-13.12l5.28,3.63ZM312.79,25.53v3.96h-5.53l-.08,4h-6.03l.37-18.78h-1.24c-.74,1.69-1.57,3.34-2.39,4.95l-6.11-1.73c2.19-4.99,3.88-10.19,5.08-15.68l7.22,2.31c-.41,1.36-.87,2.72-1.32,4.05h9.95v6.11h-5.16l-.08,3.59h5.28v4.37h-5.36l-.04,2.85h5.45Z"/>
        <path class="cls-5" d="M323.89,27.68c4.99-.54,7.47-2.35,7.47-3.84,0-1.2-1.61-2.23-4.87-2.23-1.81,0-4.21.33-7.1,1.11l-.91-4.37c3.22-.87,6.02-1.28,8.34-1.28,6.44,0,9.37,2.93,9.37,6.19,0,3.8-4.13,8.05-11.56,8.3l-.74-3.88Z"/>
        <path class="cls-5" d="M351.41,32.96c-2.85-1.9-4.91-4.58-4.91-7.68,0-2.39,1.28-5.03,4.5-7.63l-10.81.08v-4.83l18.82.04v5.99c-4.87,1.98-6.72,4.13-6.72,6.07,0,1.69,1.44,3.3,3.55,4.58l-4.42,3.38Z"/>
        <path class="cls-5" d="M373.28,18.35c-.04,2.72-.74,5.53-1.61,8.09,7.43,1.36,13.87,1.86,21.75,2.52l-1.2,5.2c-8.05-.87-14.48-1.86-22.12-3.55l-.7,1.73-5.07-.95c1.15-3.63,2.76-11.51,3.38-15.22h-3.47v-5.03l9.16.04-.12,7.18ZM373.07,5.15l-.41,4.62-8.34-.74.41-4.62,8.34.74ZM373.9,24.5c.7-4.17,1.03-9.37,1.24-14.24h-1.2v-4.87h2.56v-3.18h3.84v3.18h2.6v4.87h-4.05c-.04.83-.12,1.69-.16,2.52h4.83c-.04,4.75-.45,10.28-1.03,14.49l-4.5-.45.33-3.84h1.24l.37-5.74h-1.61c-.29,2.72-.62,5.36-.99,7.84l-3.47-.58ZM395.15,5.23v4.29h-7.72c-.12.41-.25.87-.41,1.32l-3.34-.79c.7-3.01,1.07-4.7,1.48-7.84l3.92.87c-.16.78-.29,1.48-.45,2.15h6.52ZM394.03,14.31l-1.86,3.67h2.81v3.22h-2.52v.62c0,2.39-.58,4.95-1.57,6.48l-5.12-1.15.87-3.14,1.69.37c.41-1.07.62-1.94.62-2.81v-.37h-4.33v-3.22h3.76l1.53-2.97h-5.03v-3.47h9.16v2.76Z"/>
        <path class="cls-5" d="M406.12,27.22l1.9-.08.21,4.7-6.73.45-1.32-19.93,5.45-.21.49,15.06ZM423.5,16.29h-4.13l.12,2.06h3.47l.08,4.04h-3.34c0,.66.04,1.36.04,2.19,1.32.08,2.27.16,3.47.41l-.66,4.21c-1.07-.33-2.15-.41-3.09-.41-.54,2.68-1.98,4.5-5.03,4.5-3.55,0-5.2-2.23-5.2-4.5,0-2.43,1.94-4.95,5.61-4.74v-1.61h-6.15l-.04-4.04h6.02l-.12-2.06h-6.4l-.04-4.21,15.31-.04.08,4.21ZM415.53,28.67c0-.58-.5-1.07-1.07-1.07s-1.07.49-1.07,1.07.49,1.07,1.07,1.07,1.07-.49,1.07-1.07ZM420.9,10.34l-3.18.46-.95-5.36,3.55-.5.58,5.41ZM425.02,9.93l-3.09.33-.58-5.49,3.3-.29.37,5.45Z"/>
        <path class="cls-5" d="M433.67,30.52c2.64-2.85,4.17-5.24,4.17-6.85,0-1.4-1.2-2.23-3.84-2.23-1.2,0-2.72.16-4.58.54l-.74-4.62c2.19-.41,4.13-.62,5.82-.62,6.36,0,9.2,2.68,9.2,6.31,0,3.05-2.06,6.81-5.74,10.15l-4.29-2.68ZM441.59,15.92l-10.85-1.4.62-4.66,11.18,1.65-.95,4.42Z"/>
        <path class="cls-5" d="M449.8,26.15l-.45-15.64h5.69l-.45,15.64h-4.79ZM449.67,32.83v-4.58h4.99v4.58h-4.99Z"/>
      </g>
      <g>
        <path class="cls-1" d="M29.09,13.41h-4.18c-.82,7.14-1.94,13.46-3.31,18.92l-5.97-1.22c.92-3.77,1.73-10.15,2.14-17.7l-4.28.05-.26,9.03h-6.53v-9.03H2.32l-.1-6.07h4.49v-3.57h7.04l-.1,3.57,4.39-.05c.05-1.33.05-2.65.05-4.03l7.75.51-.31,3.52h3.47l.1,6.07Z"/>
        <path class="cls-1" d="M36.03,13.72l-.05-6.07,12.85-.05.05,6.07-12.85.05ZM41.08,26.72c7.39-4.89,12.24-9.28,18.41-17.08l5.56,4.23c-5.87,7.85-11.63,13.41-19.38,18.87l-4.59-6.02Z"/>
        <path class="cls-1" d="M98.78,13.41h-4.18c-.82,7.14-1.94,13.46-3.31,18.92l-5.97-1.22c.92-3.77,1.73-10.15,2.14-17.7l-4.28.05-.26,9.03h-6.53v-9.03h-4.39l-.1-6.07h4.49v-3.57h7.04l-.1,3.57,4.39-.05c.05-1.33.05-2.65.05-4.03l7.75.51-.31,3.52h3.47l.1,6.07Z"/>
        <path class="cls-1" d="M105.72,13.72l-.05-6.07,12.85-.05.05,6.07-12.85.05ZM110.77,26.72c7.39-4.89,12.24-9.28,18.41-17.08l5.56,4.23c-5.87,7.85-11.63,13.41-19.38,18.87l-4.59-6.02Z"/>
        <path class="cls-4" d="M151.37,32.48l-11.37-14.53,10.71-14.69,6.73,4.44-8.62,10.56,8.06,10.3-5.51,3.93Z"/>
        <path class="cls-4" d="M184.24,22.28l5.51,2.09c-2.19,5.25-4.69,7.7-10.3,7.7-6.48,0-10-4.95-9.59-11.48l.05-.46h-3.72l-.05-5.56h4.13l.15-2.75h-6.27l-.1-5.56h6.73l.15-2.45,6.78.36-.15,2.04h12.75l.1,5.56-13.21.05-.15,2.75,11.22-.05.05,5.56-11.63.05-.1,1.38c-.2,3.37,1.43,5.2,3.26,5.2,1.63,0,3.47-1.43,4.39-4.44Z"/>
        <path class="cls-4" d="M199.57,23.25c-1.17-5.81-2.09-11.88-2.3-17.75l6.17-.51c.2,5.1.71,9.08,1.02,12.44l2.5-.41.66,4.95-8.06,1.27ZM210.69,31.26c1.73-8.01,3.16-15.96,3.36-24.89l6.78.36c-.87,10.15-2.3,18.82-4.24,25.5l-5.91-.97Z"/>
        <path class="cls-4" d="M252.84,27.95c-2.96,2.09-5.61,3.06-7.85,3.06-3.67,0-6.32-2.55-7.7-6.63l-3.26,1.68-1.38,5.92-6.32-.97,5.92-27.23,6.83,1.02-3.26,13.72,5.41-2.75c1.58,6.12,2.7,8.52,4.74,8.52,1.02,0,2.24-.61,3.83-1.63l3.06,5.3Z"/>
        <path class="cls-7" d="M273.65,27.26l.25,4.87c-1.69.33-3.26.49-4.87.49-1.24,0-2.52-.12-3.84-.29-3.96-.54-6.6-3.47-6.6-6.85,0-2.02.91-4.21,3.06-6.19l-3.76-7.14,4.95-1.86,3.05,6.11c2.15-1.03,4.83-1.9,8.05-2.52l.74,5.24c-7.84,1.48-10.36,4.21-10.36,6.15,0,1.07.78,1.86,1.86,2.06,1.2.21,2.15.33,3.18.33,1.2,0,2.47-.16,4.29-.41Z"/>
        <path class="cls-6" d="M292.53,8.69c-1.07,1.86-2.43,4-3.92,6.15l2.43-.08v16.51l-5.57.08-.25-11.55-1.28,1.78-4.87-3.39c1.9-2.6,6.4-9.65,8.17-13.12l5.28,3.63ZM312.79,25.53v3.96h-5.53l-.08,4h-6.02l.37-18.78h-1.24c-.74,1.69-1.57,3.34-2.39,4.95l-6.11-1.73c2.19-4.99,3.88-10.19,5.08-15.68l7.22,2.31c-.41,1.36-.87,2.72-1.32,4.05h9.94v6.11h-5.16l-.08,3.59h5.28v4.37h-5.36l-.04,2.85h5.45Z"/>
        <path class="cls-6" d="M323.9,27.68c4.99-.54,7.47-2.35,7.47-3.84,0-1.2-1.61-2.23-4.87-2.23-1.82,0-4.21.33-7.1,1.11l-.91-4.37c3.22-.87,6.02-1.28,8.34-1.28,6.44,0,9.37,2.93,9.37,6.19,0,3.8-4.13,8.05-11.55,8.3l-.74-3.88Z"/>
        <path class="cls-6" d="M351.41,32.96c-2.85-1.9-4.91-4.58-4.91-7.68,0-2.39,1.28-5.03,4.5-7.63l-10.81.08v-4.83l18.82.04v5.99c-4.87,1.98-6.73,4.13-6.73,6.07,0,1.69,1.45,3.3,3.55,4.58l-4.42,3.38Z"/>
        <path class="cls-7" d="M373.28,18.35c-.04,2.72-.74,5.53-1.61,8.09,7.43,1.36,13.87,1.86,21.75,2.52l-1.2,5.2c-8.05-.87-14.48-1.86-22.12-3.55l-.7,1.73-5.07-.95c1.15-3.63,2.76-11.51,3.38-15.22h-3.47v-5.03l9.16.04-.12,7.18ZM373.07,5.15l-.41,4.62-8.34-.74.41-4.62,8.34.74ZM373.9,24.5c.7-4.17,1.03-9.37,1.24-14.24h-1.2v-4.87h2.56v-3.18h3.84v3.18h2.6v4.87h-4.05c-.04.83-.12,1.69-.16,2.52h4.83c-.04,4.75-.45,10.28-1.03,14.49l-4.5-.45.33-3.84h1.24l.37-5.74h-1.61c-.29,2.72-.62,5.36-.99,7.84l-3.47-.58ZM395.15,5.23v4.29h-7.72c-.12.41-.25.87-.41,1.32l-3.34-.79c.7-3.01,1.07-4.7,1.48-7.84l3.92.87c-.16.78-.29,1.48-.45,2.15h6.52ZM394.03,14.31l-1.86,3.67h2.81v3.22h-2.52v.62c0,2.39-.58,4.95-1.57,6.48l-5.12-1.15.87-3.14,1.69.37c.41-1.07.62-1.94.62-2.81v-.37h-4.33v-3.22h3.76l1.53-2.97h-5.03v-3.47h9.16v2.76Z"/>
        <path class="cls-7" d="M406.12,27.22l1.9-.08.21,4.7-6.73.45-1.32-19.93,5.45-.21.49,15.06ZM423.5,16.29h-4.13l.12,2.06h3.47l.08,4.04h-3.34c0,.66.04,1.36.04,2.19,1.32.08,2.27.16,3.47.41l-.66,4.21c-1.07-.33-2.15-.41-3.09-.41-.54,2.68-1.98,4.5-5.03,4.5-3.55,0-5.2-2.23-5.2-4.5,0-2.43,1.94-4.95,5.61-4.74v-1.61h-6.15l-.04-4.04h6.02l-.12-2.06h-6.4l-.04-4.21,15.31-.04.08,4.21ZM415.53,28.67c0-.58-.5-1.07-1.07-1.07s-1.07.49-1.07,1.07.49,1.07,1.07,1.07,1.07-.49,1.07-1.07ZM420.9,10.34l-3.18.46-.95-5.36,3.55-.5.58,5.41ZM425.02,9.93l-3.09.33-.58-5.49,3.3-.29.37,5.45Z"/>
        <path class="cls-7" d="M433.67,30.52c2.64-2.85,4.17-5.24,4.17-6.85,0-1.4-1.2-2.23-3.84-2.23-1.2,0-2.72.16-4.58.54l-.74-4.62c2.19-.41,4.13-.62,5.82-.62,6.36,0,9.2,2.68,9.2,6.31,0,3.05-2.06,6.81-5.74,10.15l-4.29-2.68ZM441.59,15.92l-10.85-1.4.62-4.66,11.18,1.65-.95,4.42Z"/>
        <path class="cls-7" d="M449.8,26.15l-.45-15.64h5.69l-.45,15.64h-4.79ZM449.67,32.83v-4.58h4.99v4.58h-4.99Z"/>
      </g>
    </g>
  </g>
</svg>