<?xml version="1.0" encoding="UTF-8"?>
<svg xmlns="http://www.w3.org/2000/svg" viewBox="0 0 672.01 428.92">
  <defs>
    <style>
      .cls-1 {
        fill: #ffd800;
      }

      .cls-2 {
        fill: #00b1bb;
      }

      .cls-3 {
        fill: #ef8200;
      }

      .cls-4 {
        fill: #00b2d5;
      }

      .cls-4, .cls-5, .cls-6, .cls-7, .cls-8, .cls-9 {
        stroke-linecap: round;
        stroke-linejoin: round;
      }

      .cls-4, .cls-6, .cls-9 {
        stroke: #fff;
        stroke-width: 6.35px;
      }

      .cls-10 {
        isolation: isolate;
      }

      .cls-11 {
        fill: #a6a6a7;
      }

      .cls-5 {
        fill: #e50012;
      }

      .cls-5, .cls-7 {
        stroke-width: 7.73px;
      }

      .cls-5, .cls-7, .cls-8 {
        stroke: #231815;
      }

      .cls-12 {
        mix-blend-mode: multiply;
      }

      .cls-13, .cls-7, .cls-8 {
        fill: #231815;
      }

      .cls-6 {
        fill: #fff000;
      }

      .cls-14 {
        fill: #fff;
      }

      .cls-15 {
        fill: #1eaa39;
      }

      .cls-16 {
        fill: #392f2c;
      }

      .cls-8 {
        stroke-width: 15.99px;
      }

      .cls-9 {
        fill: #e95504;
      }

      .cls-17 {
        fill: #e74c94;
      }

      .cls-18 {
        fill: #595757;
      }

      .cls-19 {
        fill: #00b3ec;
      }

      .cls-20 {
        fill: #8dc21f;
      }
    </style>
  </defs>
  <g class="cls-10">
    <g id="_レイヤー_2" data-name="レイヤー 2">
      <g id="_レイヤー_7" data-name="レイヤー 7">
        <g>
          <g>
            <polygon class="cls-1" points="621.61 109.14 669.58 116.11 634.87 149.95 643.06 197.74 600.15 175.18 557.24 197.74 565.43 149.95 530.72 116.11 578.69 109.14 600.15 65.67 621.61 109.14"/>
            <path class="cls-16" d="M621.61,109.14c-.09.05-.69-.92-1.74-2.82-1.05-1.9-2.56-4.73-4.48-8.42-1.91-3.7-4.25-8.24-6.99-13.54-2.41-4.72-5.17-10.13-8.25-16.15-.15.32-.3.64-.45.96-.28.58-.55,1.16-.84,1.75-.78,1.62-1.58,3.28-2.4,4.97-1.63,3.38-3.34,6.9-5.1,10.55-3.65,7.51-7.55,15.55-11.68,24.06-13.93,2.09-29.11,4.37-45.27,6.8,10.47,10.16,21.52,20.87,32.99,31.99-2.48,14.54-5.05,29.58-7.68,44.99,13.84-7.26,27.36-14.35,40.41-21.2,14.13,7.48,27.72,14.67,40.62,21.49-2.69-16.12-5.21-31.26-7.52-45.16,6.82-6.56,13.26-12.75,19.27-18.54,2.92-2.8,5.75-5.51,8.46-8.11,1.36-1.3,2.69-2.57,3.99-3.82.47-.45.94-.9,1.41-1.34.26-.24.52-.48.78-.72-6.67-1.06-12.67-2.02-17.91-2.85-5.89-.96-10.93-1.79-15.04-2.46-4.1-.69-7.26-1.25-9.39-1.66-2.13-.41-3.23-.68-3.22-.78.02-.1,1.15-.05,3.3.17,2.16.21,5.35.58,9.47,1.08,4.13.52,9.2,1.17,15.12,1.92,2.96.39,6.14.81,9.51,1.25,4.09.56,8.42,1.14,12.99,1.77-10.11,10-22.07,21.84-35.52,35.15,2.73,15.51,5.7,32.41,8.87,50.41-14.35-7.5-29.48-15.41-45.2-23.63-14.67,7.73-29.86,15.73-45.41,23.92,2.98-17.32,5.9-34.24,8.71-50.58-12.67-12.41-24.87-24.36-36.44-35.69,18.09-2.55,35.09-4.94,50.68-7.14,8.5-16.9,16.07-31.95,22.46-44.65,2,4.15,3.9,8.09,5.69,11.81,1.47,3.07,2.85,5.96,4.13,8.66,2.55,5.4,4.72,10.02,6.5,13.79,1.75,3.77,3.09,6.69,3.95,8.68.87,1.99,1.27,3.04,1.18,3.09Z"/>
          </g>
          <g>
            <g>
              <g>
                <path class="cls-7" d="M502.91,180.03c-3.77-3.23-4.45-8.89-7.01-13.2-7.55-12.4-15.09-24.92-23.31-36.92-.27,13.34,4.31,26.41,5.79,39.61.27,3.1-.13,6.47-1.89,8.89-1.75,2.69-4.98,4.31-8.08,4.98-3.64.67-7.41.94-11.18.54-3.23-.27-6.74-1.08-9.43-2.96-1.48-1.08-2.7-2.69-3.37-4.31-3.91-8.76-5.25-18.46-5.93-28.02-.94-16.57-1.21-33.82,4.04-49.58,1.08-3.23,2.69-6.47,5.52-8.22,4.98-3.23,15.49-3.5,20.34-.13,2.96,2.02,5.25,5.12,6.87,8.35,2.43,4.58,14.01,32.87,16.17,37.59,3.5,7.14,7.41,14.15,12.93,19.94-.4-5.39-2.83-38.53-3.1-43.92-.27-4.58-.4-9.3.27-13.74.4-2.83,1.08-5.79,2.96-7.81,2.83-3.1,13.07-4.99,17.25-4.85,4.18,0,7.95,1.62,10.78,4.58,2.42,2.43,3.64,5.93,4.45,9.16,1.62,7.01,1.75,14.42,1.62,21.56-.13,9.3-.94,18.73-2.16,27.89-1.21,9.43-2.69,19.27-7.81,27.21-5.66,8.76-17.78,10.24-25.73,3.37Z"/>
                <path class="cls-7" d="M210.78,305.64c-6.74-3.77-8.35-16.44-6.87-24.12.4-2.43,1.35-4.98,2.96-7.01,1.48-1.75,3.77-2.83,6.06-3.23,3.5-.67,7.14-.4,10.64-.27,6.06.13,12.13.13,18.05-.67,2.56-.27,5.12-.81,7.28-2.02,1.21-.67,2.29-1.75,2.56-3.1.94-3.37-2.69-5.25-6.06-6.06-3.64-1.08-7.55-1.35-11.45-1.75-7.14-.94-14.69-1.75-21.29-4.72-3.5-1.62-6.6-4.18-8.89-7.14-8.35-10.78-8.89-27.89,1.21-36.92,4.58-4.18,11.05-6.06,16.98-7.28,10.37-2.02,21.02-2.16,31.66-2.02,5.52,0,11.45.4,16.71,2.69,2.83,1.21,5.79,2.96,7.41,5.66,3.91,6.47,2.16,19.67-2.42,25.6-1.75,2.43-4.58,4.18-7.41,4.98-3.64,1.08-7.81.67-11.32-.54-7.95-2.69-14.68-8.89-23.04-10.1-6.47-.94-14.82.4-15.22,7.01-.27,3.1,3.1,6.74,6.06,7.81,1.89.67,3.91.94,5.93,1.35,10.37,1.75,21.02,1.89,31.53,3.23,5.39.67,10.91,2.16,15.23,5.39,2.42,1.62,4.31,4.04,5.79,6.6,2.29,4.18,3.5,9.03,3.77,13.74.4,6.06-.94,12.8-4.31,17.92-2.29,3.37-5.66,6.06-9.16,7.95-6.74,3.64-14.28,5.25-21.69,6.33-10.78,1.35-21.69,1.35-32.47,2.02-2.69.13-5.66-.13-8.22-1.35Z"/>
                <path class="cls-7" d="M445.43,418.98c-5.79-.81-11.72-2.83-16.44-6.47-3.5-2.83-6.47-6.74-8.35-10.91-2.15-5.12-3.23-10.78-3.77-16.44-.81-7.81-.4-15.63.4-23.44.13-1.35.54-9.16.54-10.51.54-6.33,1.48-12.66,3.23-18.73.94-3.23,2.29-6.6,4.58-9.03,1.89-1.89,4.72-3.1,7.28-3.37,5.25-.4,34.89-1.89,40.01-2.02,3.23,0,6.33.13,9.43.81,1.48.4,2.96,1.21,3.91,2.43,1.21,1.48,1.89,3.37,2.16,5.12.94,5.25-1.21,13.61-6.06,16.03-1.35.67-2.96,1.08-4.45,1.08-4.45.27-9.03,0-13.47-.54-3.1-.4-14.01-2.43-16.84-1.35-2.43.94-3.23,4.85-2.96,7.28.13,1.08.54,2.29,1.35,2.83,1.21.94,2.83.94,4.31.94,5.25,0,10.64-1.08,16.03-1.21,2.42-.13,5.12.27,6.87,1.89,3.23,3.1,2.16,10.51.4,14.55-.81,1.48-1.89,3.1-3.5,3.91-1.75.94-3.77,1.08-5.79,1.08-4.98,0-9.83-.81-14.82-1.21-1.62,0-5.66-.4-6.87.81-.54.67-.54,1.75-.54,2.69.13,2.02.81,4.04,2.16,5.52.94,1.08,2.42,1.75,3.77,2.02,2.96.67,5.93.27,8.76-.13,7.01-1.21,13.47-4.58,20.34-6.2,2.29-.67,4.85-.81,7.27-.27,1.75.54,3.5,1.75,4.72,3.23,1.35,2.02,2.56,4.18,3.23,6.47,1.89,5.12,2.83,10.78,1.75,16.03-.81,3.5-2.7,6.74-5.25,9.16-3.77,3.64-9.03,5.66-14.01,7.14-9.43,2.69-19.67,2.29-29.37.81Z"/>
              </g>
              <path class="cls-7" d="M381.84,182.32c-7.28-1.62-14.55-5.25-19.67-10.64-4.85-4.98-8.08-11.72-10.1-18.46-3.1-10.11-3.91-21.02-3.37-31.53.4-8.08,1.48-16.3,3.77-23.98.67-2.02,1.35-4.04,2.56-5.79,1.35-1.89,3.37-3.37,5.52-4.18,4.98-1.89,14.15-1.21,17.65,2.83,1.35,1.62,1.89,4.04,2.02,6.2.27,3.37-.27,6.74-.81,9.97-1.08,5.25-2.69,10.37-3.77,15.63-.81,3.23-1.08,6.87-.13,10.11.94,2.96,2.96,5.52,5.52,7.28,8.08,5.93,21.83,4.98,28.83-2.16,1.62-1.75,2.96-3.91,3.64-6.2,1.08-3.5.94-7.28.67-10.91-.54-6.33-2.02-12.66-2.02-19.13.13-2.56.4-5.25,1.89-7.28,1.35-2.02,3.64-3.5,5.93-4.31,5.39-1.75,12.93-.94,15.63,4.04,1.75,3.23,2.69,6.87,3.5,10.51,1.89,9.7,1.75,20.07.4,30.04-1.35,10.37-4.31,21.02-9.57,30.04-3.1,5.25-7.28,10.1-12.26,13.61-3.77,2.56-8.22,4.31-12.66,5.12-7.54,1.21-15.63.94-23.17-.81Z"/>
              <path class="cls-7" d="M280.36,186.36c-6.74-3.77-8.35-16.44-6.87-24.12.4-2.43,1.35-4.98,2.96-7.01,1.48-1.75,3.77-2.83,6.06-3.23,3.5-.67,7.14-.4,10.64-.27,6.06.13,12.13.13,18.05-.67,2.56-.27,5.12-.81,7.28-2.02,1.21-.67,2.29-1.75,2.56-3.1.94-3.37-2.69-5.25-6.06-6.06-3.64-1.08-7.55-1.35-11.45-1.75-7.14-.94-14.69-1.75-21.29-4.72-3.5-1.62-6.6-4.18-8.89-7.14-8.35-10.78-8.89-27.89,1.21-36.92,4.58-4.18,11.05-6.06,16.98-7.28,10.37-2.02,21.02-2.16,31.66-2.02,5.52,0,11.45.4,16.71,2.69,2.83,1.21,5.79,2.96,7.41,5.66,3.91,6.47,2.16,19.67-2.42,25.6-1.75,2.43-4.58,4.18-7.41,4.98-3.64,1.08-7.81.67-11.32-.54-7.95-2.69-14.68-8.89-23.04-10.1-6.47-.94-14.82.4-15.22,7.01-.27,3.1,3.1,6.74,6.06,7.81,1.89.67,3.91.94,5.93,1.35,10.37,1.75,21.02,1.89,31.53,3.23,5.39.67,10.91,2.16,15.23,5.39,2.42,1.62,4.31,4.04,5.79,6.6,2.29,4.18,3.5,9.03,3.77,13.74.4,6.06-.94,12.8-4.31,17.92-2.29,3.37-5.66,6.06-9.16,7.95-6.74,3.64-14.28,5.25-21.69,6.33-10.78,1.35-21.69,1.35-32.47,2.02-2.69.13-5.66-.13-8.22-1.35Z"/>
              <path class="cls-7" d="M235.72,180.03c-3.77-3.23-4.45-8.89-7.01-13.2-7.55-12.4-15.09-24.92-23.31-36.92-.27,13.34,4.31,26.41,5.79,39.61.27,3.1-.13,6.47-1.89,8.89-1.75,2.69-4.98,4.31-8.08,4.98-3.64.67-7.41.94-11.18.54-3.23-.27-6.74-1.08-9.43-2.96-1.48-1.08-2.7-2.69-3.37-4.31-3.91-8.76-5.25-18.46-5.93-28.02-.94-16.57-1.21-33.82,4.04-49.58,1.08-3.23,2.69-6.47,5.52-8.22,4.98-3.23,15.49-3.5,20.34-.13,2.96,2.02,5.25,5.12,6.87,8.35,2.43,4.58,14.01,32.87,16.17,37.59,3.5,7.14,7.41,14.15,12.93,19.94-.4-5.39-2.83-38.53-3.1-43.92-.27-4.58-.4-9.3.27-13.74.4-2.83,1.08-5.79,2.96-7.81,2.83-3.1,13.07-4.99,17.25-4.85,4.18,0,7.95,1.62,10.78,4.58,2.42,2.43,3.64,5.93,4.45,9.16,1.62,7.01,1.75,14.42,1.62,21.56-.13,9.3-.94,18.73-2.16,27.89-1.21,9.43-2.69,19.27-7.81,27.21-5.66,8.76-17.78,10.24-25.73,3.37Z"/>
              <path class="cls-7" d="M117.96,182.32c-7.28-1.62-14.55-5.25-19.67-10.64-4.85-4.98-8.08-11.72-10.1-18.46-3.1-10.11-3.91-21.02-3.37-31.53.4-8.08,1.48-16.3,3.77-23.98.67-2.02,1.35-4.04,2.56-5.79,1.35-1.89,3.37-3.37,5.52-4.18,4.98-1.89,14.15-1.21,17.65,2.83,1.35,1.62,1.89,4.04,2.02,6.2.27,3.37-.27,6.74-.81,9.97-1.08,5.25-2.69,10.37-3.77,15.63-.81,3.23-1.08,6.87-.13,10.11.94,2.96,2.96,5.52,5.52,7.28,8.08,5.93,21.83,4.98,28.83-2.16,1.62-1.75,2.96-3.91,3.64-6.2,1.08-3.5.94-7.28.67-10.91-.54-6.33-2.02-12.66-2.02-19.13.13-2.56.4-5.25,1.89-7.28,1.35-2.02,3.64-3.5,5.93-4.31,5.39-1.75,12.93-.94,15.63,4.04,1.75,3.23,2.69,6.87,3.5,10.51,1.89,9.7,1.75,20.07.4,30.04-1.35,10.37-4.31,21.02-9.57,30.04-3.1,5.25-7.28,10.1-12.26,13.61-3.77,2.56-8.22,4.31-12.66,5.12-7.54,1.21-15.63.94-23.17-.81Z"/>
              <path class="cls-7" d="M18.69,186.36c-6.74-3.77-8.35-16.44-6.87-24.12.4-2.43,1.35-4.98,2.96-7.01,1.48-1.75,3.77-2.83,6.06-3.23,3.5-.67,7.14-.4,10.64-.27,6.06.13,12.13.13,18.05-.67,2.56-.27,5.12-.81,7.28-2.02,1.21-.67,2.29-1.75,2.56-3.1.94-3.37-2.69-5.25-6.06-6.06-3.64-1.08-7.55-1.35-11.45-1.75-7.14-.94-14.69-1.75-21.29-4.72-3.5-1.62-6.6-4.18-8.89-7.14-8.35-10.78-8.89-27.89,1.21-36.92,4.58-4.18,11.05-6.06,16.98-7.28,10.37-2.02,21.02-2.16,31.66-2.02,5.52,0,11.45.4,16.71,2.69,2.83,1.21,5.79,2.96,7.41,5.66,3.91,6.47,2.16,19.67-2.42,25.6-1.75,2.43-4.58,4.18-7.41,4.98-3.64,1.08-7.81.67-11.32-.54-7.95-2.69-14.68-8.89-23.04-10.1-6.47-.94-14.82.4-15.22,7.01-.27,3.1,3.1,6.74,6.06,7.81,1.89.67,3.91.94,5.93,1.35,10.37,1.75,21.02,1.89,31.53,3.23,5.39.67,10.91,2.16,15.23,5.39,2.42,1.62,4.31,4.04,5.79,6.6,2.29,4.18,3.5,9.03,3.77,13.74.4,6.06-.94,12.8-4.31,17.92-2.29,3.37-5.66,6.06-9.16,7.95-6.74,3.64-14.28,5.25-21.69,6.33-10.78,1.35-21.69,1.35-32.47,2.02-2.69.13-5.66-.13-8.22-1.35Z"/>
              <path class="cls-7" d="M143.99,302.54c-2.56-.27-9.83-.67-11.72-2.56-.67-.81-.94-1.75-1.35-2.69-2.29-5.79-2.29-12.4-2.7-18.73-1.35-18.59-1.48-37.45.81-55.91,0-.4-.13-.67-.13-1.08.4-3.23.94-6.6,1.89-9.7.27-1.08.54-2.02.94-2.96.54-1.08,1.62-1.89,2.7-2.56,4.31-2.96,9.57-4.45,14.68-5.12,9.57-1.48,20.08-1.08,29.1,2.56,6.33,2.56,11.86,7.14,15.9,12.66,4.04,5.52,6.87,12.13,8.49,18.86,2.43,10.37,2.7,21.56.54,31.93-1.21,6.06-3.23,12.26-6.87,17.38-5.25,7.41-14.01,12.8-22.77,15.09-9.57,2.56-19.67,3.37-29.51,2.83ZM159.62,259.83c4.85-1.08,10.37-2.43,13.34-6.33,1.21-1.62,2.29-3.23,2.83-5.12,1.75-5.79.54-13.07-3.23-17.78-2.16-2.83-5.52-5.12-9.03-5.79-4.72-.81-9.7-.27-14.28,1.35-1.35,11.05-1.48,22.5-.94,33.68,3.64,1.08,7.54.81,11.32,0Z"/>
              <path class="cls-7" d="M92.36,299.04c-2.56-3.1-2.69-7.81-2.83-11.86-.4-19.67,0-39.34,1.48-59.01.4-5.12.54-10.24.94-15.36.27-3.5.81-7.55,3.1-10.37,4.04-4.85,17.11-5.25,23.44-4.18,2.69.54,5.52,1.21,7.81,2.83,1.62,1.35,2.7,3.5,2.96,5.52.27,1.89.27,3.77.13,5.66-.4,6.87-1.21,13.74-1.89,20.61-.54,4.72-2.7,31.53-2.83,36.24-.13,3.1-.13,19.81-.54,22.77-.27,2.02-.94,4.18-2.16,5.93-1.48,2.02-3.77,3.37-6.2,4.04-6.6,2.02-19.13,2.43-23.44-2.83Z"/>
              <path class="cls-7" d="M26.9,303.62c-3.91,0-8.08-.13-11.32-2.16-2.56-1.62-4.04-4.85-4.72-7.81-1.48-6.6-1.75-13.34-2.02-20.07-.27-11.86-.13-23.71.4-35.57.4-8.76-.27-17.78,1.21-26.54.54-2.56,1.35-5.25,3.37-7.01,2.42-2.16,6.06-2.69,9.3-2.96,4.45-.4,9.03-.27,13.61.4,2.02.27,4.31.81,6.06,2.16,1.62,1.35,2.56,3.37,2.83,5.52.54,2.83.67,5.79.67,8.62-.13,6.87-.81,13.61-.94,20.34-.13,3.37-.13,6.74-.13,10.1,8.35-8.35,15.36-17.78,22.1-27.48,2.96-4.45,5.79-8.89,9.03-13.2,1.21-1.48,2.69-3.1,4.58-4.04.94-.67,2.29-.94,3.5-.67,3.23.4,7.81,4.18,8.76,7.28.54,2.02.13,4.18-.67,6.06-.27.67-.54,1.62-1.21,2.02-.13.13-.13.54-.13.67-.27.81-2.56,4.04-3.1,4.72-3.1,4.31-22.23,27.89-25.6,32.07,5.39,8.76,11.86,16.98,19.13,24.25,2.83,2.69,6.33,5.12,7.81,8.76,1.89,4.45-2.02,9.3-6.33,11.45-2.02.94-4.72,1.21-6.74.4-7.28-3.23-20.61-25.33-24.79-32.07-.4-.54-2.29-3.5-2.7-3.91h-4.98c0,.94.13,6.33.13,7.28.27,4.31.54,8.62.67,12.8,0,3.5,0,7.14-1.08,10.37-.54,1.62-1.35,3.1-2.56,4.18-3.5,3.37-9.3,3.91-14.15,4.04Z"/>
              <path class="cls-7" d="M362.83,422.89c-7.14-2.29-14.01-6.87-18.59-12.8-5.66-7.41-8.62-16.84-9.43-26-1.21-11.05.27-22.77,4.85-32.87,3.64-8.22,9.57-15.49,16.44-21.15,8.22-6.74,19.81-9.97,30.45-9.97,6.06,0,12.26,1.08,17.65,3.64,3.23,1.48,6.2,3.64,8.35,6.33,1.08,1.48,1.75,3.23,2.02,4.98.13,2.43-.54,4.99-1.48,7.14-1.62,3.64-4.18,6.74-7.01,9.3-2.02,1.75-5.12,2.43-7.68,2.16-5.52-.81-10.51-3.91-15.9-5.12-4.18-.94-8.22-.13-11.86,2.16-4.04,2.43-7.01,6.74-8.49,11.05-2.02,6.06-1.21,13.2,1.21,19,.94,2.29,2.42,4.18,4.18,5.79,2.43,2.02,5.52,3.5,8.62,4.04,5.12,1.08,10.91.27,15.36-2.16,2.29-1.21,4.18-3.1,5.52-5.25-2.83,0-15.49,0-18.32-.81-.81-.27-1.62-.81-2.02-1.62-.81-1.21-.94-2.83-1.21-4.31-.67-4.18-.94-11.45,2.83-13.34,3.5-1.62,17.25-.27,21.02-.13,3.5.13,7.01-.54,10.51-.4,2.42,0,5.12,0,7.14,1.48,1.08.94,2.42,4.58,2.69,6.06.4,2.56.13,5.25.13,7.95.13,6.6.4,13.34-.27,19.94-.4,4.18-1.21,8.35-2.83,12.26-1.08,2.56-2.56,4.98-4.58,6.87-1.89,1.75-4.58,2.69-7.14,3.5-3.1,1.08-6.33,1.89-9.57,2.56-10.64,2.16-22.23,2.96-32.6-.27Z"/>
              <path class="cls-7" d="M254.78,422.62c-1.75-.4-3.64-.81-5.25-1.89-1.08-.67-1.89-1.89-2.29-2.96-.81-2.16-.94-4.58-.94-6.87,0-21.02,1.89-42.71,9.84-62.24,4.04-9.7,11.86-18.73,21.29-23.58,11.45-5.79,25.06-5.12,35.97,1.89,7.81,5.12,13.88,13.47,17.25,22.23,6.06,15.63,8.08,32.74,8.89,49.45.13,4.45,1.21,17.11-1.48,20.48-3.23,3.91-15.22,4.18-20.34,4.04-2.43,0-4.85.13-7.28-.54-1.08-.27-3.23-1.08-3.5-2.16-.67-2.43,1.35-12.66,1.48-15.09-2.69,1.62-5.79,2.83-9.03,3.37-7.68,1.35-16.03-.27-23.17-3.37.4,2.29,1.75,10.78,1.08,12.93-.4,1.21-1.48,2.29-2.7,2.96-1.75,1.08-3.91,1.48-6.06,1.75-4.58.54-9.16.54-13.74-.4ZM299.78,374.66c2.43-1.08,4.72-2.96,6.2-5.12,1.35-2.02,2.02-4.58,2.02-7.01-.13-6.47-4.31-15.22-10.51-16.71-5.25-1.21-11.18,1.62-13.74,6.6-1.62,3.23-2.96,6.87-3.23,10.51-.13,2.16,0,4.31.94,6.33,2.96,6.6,11.59,8.22,18.32,5.39Z"/>
              <path class="cls-7" d="M201.47,422.08c-2.02,0-4.45,0-5.93-1.35-2.02-1.62-2.29-8.62-2.56-11.05-2.96-25.46-3.77-51.33-.81-76.66.4-2.83.54-5.93,2.16-8.35,1.08-1.48,2.96-2.43,4.72-2.83,6.06-1.62,12.66-1.35,19-.81,3.5.27,7.14.54,9.97,2.43,6.74,4.45,3.1,18.86,1.35,26.68-2.29,9.97-3.91,20.07-5.25,30.18-.81,5.39-1.48,10.91-1.75,16.3-.27,3.37-.54,6.74.27,9.83.13.94,1.48.27,2.43.13,4.85-.81,9.57-1.89,14.42-2.43,2.96-.4,9.83-.67,11.99,1.62,2.15,2.43,2.69,6.33,2.42,9.7-.13,2.02-1.08,4.58-3.1,4.72-16.44,1.21-32.87,1.89-49.31,1.89Z"/>
              <path class="cls-7" d="M144.68,422.08c-2.02,0-4.45,0-5.93-1.35-2.02-1.62-2.29-8.62-2.56-11.05-2.96-25.46-3.77-51.33-.81-76.66.4-2.83.54-5.93,2.16-8.35,1.08-1.48,2.96-2.43,4.72-2.83,6.06-1.62,12.66-1.35,19-.81,3.5.27,7.14.54,9.97,2.43,6.74,4.45,3.1,18.86,1.35,26.68-2.29,9.97-3.91,20.07-5.25,30.18-.81,5.39-1.48,10.91-1.75,16.3-.27,3.37-.54,6.74.27,9.83.13.94,1.48.27,2.43.13,4.85-.81,9.57-1.89,14.42-2.43,2.96-.4,9.84-.67,11.99,1.62,2.15,2.43,2.69,6.33,2.42,9.7-.13,2.02-1.08,4.58-3.1,4.72-16.44,1.21-32.87,1.89-49.31,1.89Z"/>
              <path class="cls-7" d="M96.35,418.31c-2.56-3.1-2.69-7.81-2.83-11.86-.4-19.67,0-39.34,1.48-59.01.4-5.12.54-10.24.94-15.36.27-3.5.81-7.55,3.1-10.37,4.04-4.85,17.11-5.25,23.44-4.18,2.69.54,5.52,1.21,7.81,2.83,1.62,1.35,2.7,3.5,2.96,5.52.27,1.89.27,3.77.13,5.66-.4,6.87-1.21,13.74-1.89,20.61-.54,4.72-2.7,31.53-2.83,36.24-.13,3.1-.13,19.81-.54,22.77-.27,2.02-.94,4.18-2.16,5.93-1.48,2.02-3.77,3.37-6.2,4.04-6.6,2.02-19.13,2.43-23.44-2.83Z"/>
              <path class="cls-7" d="M38.22,414.94c-6.2-4.31-10.37-11.32-13.88-18.05-7.14-13.88-12.26-28.7-15.76-43.92-.13-.13-.13-.27-.13-.4-2.43-7.14-4.58-14.55-4.58-21.96,0-2.29.13-4.72,1.21-6.87.67-1.21,1.75-2.16,2.83-2.96,5.25-3.5,14.28-3.1,18.73,1.48,1.62,1.75,2.43,4.31,3.1,6.74,2.83,10.64,5.12,21.56,10.37,31.12,3.23,6.33,11.45,12.66,18.32,10.64,2.83-.94,5.25-3.37,7.01-5.79,2.56-3.91,4.45-8.35,5.25-12.93.94-4.45,4.18-25.87,5.93-30.04,2.96-6.47,12.53-8.89,18.05-4.31,1.21,1.08,2.16,2.43,2.69,4.04,1.62,4.98-1.89,23.17-2.96,28.43-2.96,13.88-7.01,27.48-12.13,40.69-2.42,6.6-5.25,13.2-9.57,18.73-3.91,5.25-10.1,9.57-16.57,10.1-6.2.67-12.8-1.21-17.92-4.72Z"/>
            </g>
            <g class="cls-12">
              <path class="cls-11" d="M206.86,409.7c.16.62-.23,1.36-1.21,1.83-.96.47-2.51.55-3.97-.08-1.47-.63-2.46-1.81-2.78-2.84-.34-1.04-.06-1.83.5-2.14.58-.33,1.3-.24,2-.09.71.16,1.42.39,2.16.71.74.31,1.4.67,2,1.08.59.41,1.15.88,1.3,1.52Z"/>
            </g>
            <path class="cls-14" d="M192.3,405.38c-.64.17-1.31-.09-1.94-.41-.63-.34-1.24-.76-1.82-1.29-.59-.52-1.08-1.08-1.48-1.67-.39-.59-.72-1.23-.62-1.89.09-.64.7-1.18,1.73-1.28,1.01-.11,2.41.3,3.53,1.3,1.12,1.01,1.68,2.35,1.68,3.37.01,1.04-.46,1.7-1.08,1.86Z"/>
            <path class="cls-14" d="M247.91,404.9c-.66-.03-1.24-.41-1.76-.73-.52-.33-.99-.65-1.41-1.08-.44-.42-.76-.87-1.1-1.39-.32-.52-.72-1.09-.76-1.75-.04-.63.46-1.31,1.52-1.51,1.04-.22,2.55.18,3.67,1.28,1.12,1.1,1.54,2.6,1.34,3.65-.19,1.07-.85,1.57-1.49,1.54Z"/>
            <g class="cls-12">
              <path class="cls-11" d="M120.86,402.5c.59.27.87,1.14.61,2.35-.25,1.2-1.09,2.72-2.49,3.92-1.4,1.2-3.02,1.8-4.25,1.87-1.24.07-2.06-.34-2.23-.96-.18-.64.24-1.36.88-2.11.65-.75,1.53-1.55,2.51-2.4.98-.85,1.91-1.59,2.75-2.12.84-.52,1.62-.83,2.22-.55Z"/>
            </g>
            <g class="cls-12">
              <path class="cls-11" d="M145.6,410.69c0,.64-.53,1.27-1.56,1.48-1.01.22-2.48-.09-3.67-1.07-1.19-.97-1.79-2.35-1.78-3.39,0-1.06.51-1.7,1.13-1.83.65-.14,1.3.14,1.91.42.61.31,1.18.66,1.73,1.12.56.45,1.02.94,1.44,1.47.4.54.8,1.13.8,1.79Z"/>
            </g>
            <g class="cls-12">
              <path class="cls-11" d="M272.51,408.78c.5.41.75,1.07.54,1.83-.19.74-.86,1.54-1.84,1.94-.98.4-2.01.3-2.67-.1-.67-.4-.95-1.04-.89-1.68.07-.65.39-1.22.7-1.66.32-.45.65-.78,1.06-.94.41-.17.87-.16,1.42-.07.54.1,1.16.28,1.66.7Z"/>
            </g>
            <g class="cls-12">
              <path class="cls-11" d="M334.34,402.96c.63.1,1.15.87,1.14,2.15,0,1.26-.64,2.97-1.99,4.33-1.35,1.36-3.06,2-4.32,2.01-1.28.02-2.06-.5-2.15-1.12-.11-.66.36-1.32.95-2,.6-.69,1.35-1.42,2.16-2.23.8-.82,1.53-1.56,2.22-2.17.68-.59,1.34-1.06,2-.96Z"/>
            </g>
            <g>
              <g>
                <path class="cls-5" d="M502.91,171.97c-3.77-3.23-4.45-8.89-7.01-13.2-7.55-12.4-15.09-24.92-23.31-36.92-.27,13.34,4.31,26.41,5.79,39.61.27,3.1-.13,6.47-1.89,8.89-1.75,2.69-4.98,4.31-8.08,4.98-3.64.67-7.41.94-11.18.54-3.23-.27-6.74-1.08-9.43-2.96-1.48-1.08-2.7-2.69-3.37-4.31-3.91-8.76-5.25-18.46-5.93-28.02-.94-16.57-1.21-33.82,4.04-49.58,1.08-3.23,2.69-6.47,5.52-8.22,4.98-3.23,15.49-3.5,20.34-.13,2.96,2.02,5.25,5.12,6.87,8.35,2.43,4.58,14.01,32.87,16.17,37.59,3.5,7.14,7.41,14.15,12.93,19.94-.4-5.39-2.83-38.53-3.1-43.92-.27-4.58-.4-9.3.27-13.74.4-2.83,1.08-5.79,2.96-7.81,2.83-3.1,13.07-4.99,17.25-4.85,4.18,0,7.95,1.62,10.78,4.58,2.42,2.43,3.64,5.93,4.45,9.16,1.62,7.01,1.75,14.42,1.62,21.56-.13,9.3-.94,18.73-2.16,27.89-1.21,9.43-2.69,19.27-7.81,27.21-5.66,8.76-17.78,10.24-25.73,3.37Z"/>
                <path class="cls-5" d="M210.78,297.58c-6.74-3.77-8.35-16.44-6.87-24.12.4-2.43,1.35-4.98,2.96-7.01,1.48-1.75,3.77-2.83,6.06-3.23,3.5-.67,7.14-.4,10.64-.27,6.06.13,12.13.13,18.05-.67,2.56-.27,5.12-.81,7.28-2.02,1.21-.67,2.29-1.75,2.56-3.1.94-3.37-2.69-5.25-6.06-6.06-3.64-1.08-7.55-1.35-11.45-1.75-7.14-.94-14.69-1.75-21.29-4.72-3.5-1.62-6.6-4.18-8.89-7.14-8.35-10.78-8.89-27.89,1.21-36.92,4.58-4.18,11.05-6.06,16.98-7.28,10.37-2.02,21.02-2.16,31.66-2.02,5.52,0,11.45.4,16.71,2.69,2.83,1.21,5.79,2.96,7.41,5.66,3.91,6.47,2.16,19.67-2.42,25.6-1.75,2.43-4.58,4.18-7.41,4.98-3.64,1.08-7.81.67-11.32-.54-7.95-2.69-14.68-8.89-23.04-10.1-6.47-.94-14.82.4-15.22,7.01-.27,3.1,3.1,6.74,6.06,7.81,1.89.67,3.91.94,5.93,1.35,10.37,1.75,21.02,1.89,31.53,3.23,5.39.67,10.91,2.16,15.23,5.39,2.42,1.62,4.31,4.04,5.79,6.6,2.29,4.18,3.5,9.03,3.77,13.74.4,6.06-.94,12.8-4.31,17.92-2.29,3.37-5.66,6.06-9.16,7.95-6.74,3.64-14.28,5.25-21.69,6.33-10.78,1.35-21.69,1.35-32.47,2.02-2.69.13-5.66-.13-8.22-1.35Z"/>
                <path class="cls-5" d="M445.43,410.93c-5.79-.81-11.72-2.83-16.44-6.47-3.5-2.83-6.47-6.74-8.35-10.91-2.15-5.12-3.23-10.78-3.77-16.44-.81-7.81-.4-15.63.4-23.44.13-1.35.54-9.16.54-10.51.54-6.33,1.48-12.66,3.23-18.73.94-3.23,2.29-6.6,4.58-9.03,1.89-1.89,4.72-3.1,7.28-3.37,5.25-.4,34.89-1.89,40.01-2.02,3.23,0,6.33.13,9.43.81,1.48.4,2.96,1.21,3.91,2.43,1.21,1.48,1.89,3.37,2.16,5.12.94,5.25-1.21,13.61-6.06,16.03-1.35.67-2.96,1.08-4.45,1.08-4.45.27-9.03,0-13.47-.54-3.1-.4-14.01-2.43-16.84-1.35-2.43.94-3.23,4.85-2.96,7.28.13,1.08.54,2.29,1.35,2.83,1.21.94,2.83.94,4.31.94,5.25,0,10.64-1.08,16.03-1.21,2.42-.13,5.12.27,6.87,1.89,3.23,3.1,2.16,10.51.4,14.55-.81,1.48-1.89,3.1-3.5,3.91-1.75.94-3.77,1.08-5.79,1.08-4.98,0-9.83-.81-14.82-1.21-1.62,0-5.66-.4-6.87.81-.54.67-.54,1.75-.54,2.69.13,2.02.81,4.04,2.16,5.52.94,1.08,2.42,1.75,3.77,2.02,2.96.67,5.93.27,8.76-.13,7.01-1.21,13.47-4.58,20.34-6.2,2.29-.67,4.85-.81,7.27-.27,1.75.54,3.5,1.75,4.72,3.23,1.35,2.02,2.56,4.18,3.23,6.47,1.89,5.12,2.83,10.78,1.75,16.03-.81,3.5-2.7,6.74-5.25,9.16-3.77,3.64-9.03,5.66-14.01,7.14-9.43,2.69-19.67,2.29-29.37.81Z"/>
              </g>
              <g>
                <path class="cls-17" d="M502.91,171.97c-3.77-3.23-4.45-8.89-7.01-13.2-7.55-12.4-15.09-24.92-23.31-36.92-.27,13.34,4.31,26.41,5.79,39.61.27,3.1-.13,6.47-1.89,8.89-1.75,2.69-4.98,4.31-8.08,4.98-3.64.67-7.41.94-11.18.54-3.23-.27-6.74-1.08-9.43-2.96-1.48-1.08-2.7-2.69-3.37-4.31-3.91-8.76-5.25-18.46-5.93-28.02-.94-16.57-1.21-33.82,4.04-49.58,1.08-3.23,2.69-6.47,5.52-8.22,4.98-3.23,15.49-3.5,20.34-.13,2.96,2.02,5.25,5.12,6.87,8.35,2.43,4.58,14.01,32.87,16.17,37.59,3.5,7.14,7.41,14.15,12.93,19.94-.4-5.39-2.83-38.53-3.1-43.92-.27-4.58-.4-9.3.27-13.74.4-2.83,1.08-5.79,2.96-7.81,2.83-3.1,13.07-4.99,17.25-4.85,4.18,0,7.95,1.62,10.78,4.58,2.42,2.43,3.64,5.93,4.45,9.16,1.62,7.01,1.75,14.42,1.62,21.56-.13,9.3-.94,18.73-2.16,27.89-1.21,9.43-2.69,19.27-7.81,27.21-5.66,8.76-17.78,10.24-25.73,3.37Z"/>
                <path class="cls-20" d="M210.78,297.58c-6.74-3.77-8.35-16.44-6.87-24.12.4-2.43,1.35-4.98,2.96-7.01,1.48-1.75,3.77-2.83,6.06-3.23,3.5-.67,7.14-.4,10.64-.27,6.06.13,12.13.13,18.05-.67,2.56-.27,5.12-.81,7.28-2.02,1.21-.67,2.29-1.75,2.56-3.1.94-3.37-2.69-5.25-6.06-6.06-3.64-1.08-7.55-1.35-11.45-1.75-7.14-.94-14.69-1.75-21.29-4.72-3.5-1.62-6.6-4.18-8.89-7.14-8.35-10.78-8.89-27.89,1.21-36.92,4.58-4.18,11.05-6.06,16.98-7.28,10.37-2.02,21.02-2.16,31.66-2.02,5.52,0,11.45.4,16.71,2.69,2.83,1.21,5.79,2.96,7.41,5.66,3.91,6.47,2.16,19.67-2.42,25.6-1.75,2.43-4.58,4.18-7.41,4.98-3.64,1.08-7.81.67-11.32-.54-7.95-2.69-14.68-8.89-23.04-10.1-6.47-.94-14.82.4-15.22,7.01-.27,3.1,3.1,6.74,6.06,7.81,1.89.67,3.91.94,5.93,1.35,10.37,1.75,21.02,1.89,31.53,3.23,5.39.67,10.91,2.16,15.23,5.39,2.42,1.62,4.31,4.04,5.79,6.6,2.29,4.18,3.5,9.03,3.77,13.74.4,6.06-.94,12.8-4.31,17.92-2.29,3.37-5.66,6.06-9.16,7.95-6.74,3.64-14.28,5.25-21.69,6.33-10.78,1.35-21.69,1.35-32.47,2.02-2.69.13-5.66-.13-8.22-1.35Z"/>
                <path class="cls-19" d="M445.43,410.93c-5.79-.81-11.72-2.83-16.44-6.47-3.5-2.83-6.47-6.74-8.35-10.91-2.15-5.12-3.23-10.78-3.77-16.44-.81-7.81-.4-15.63.4-23.44.13-1.35.54-9.16.54-10.51.54-6.33,1.48-12.66,3.23-18.73.94-3.23,2.29-6.6,4.58-9.03,1.89-1.89,4.72-3.1,7.28-3.37,5.25-.4,34.89-1.89,40.01-2.02,3.23,0,6.33.13,9.43.81,1.48.4,2.96,1.21,3.91,2.43,1.21,1.48,1.89,3.37,2.16,5.12.94,5.25-1.21,13.61-6.06,16.03-1.35.67-2.96,1.08-4.45,1.08-4.45.27-9.03,0-13.47-.54-3.1-.4-14.01-2.43-16.84-1.35-2.43.94-3.23,4.85-2.96,7.28.13,1.08.54,2.29,1.35,2.83,1.21.94,2.83.94,4.31.94,5.25,0,10.64-1.08,16.03-1.21,2.42-.13,5.12.27,6.87,1.89,3.23,3.1,2.16,10.51.4,14.55-.81,1.48-1.89,3.1-3.5,3.91-1.75.94-3.77,1.08-5.79,1.08-4.98,0-9.83-.81-14.82-1.21-1.62,0-5.66-.4-6.87.81-.54.67-.54,1.75-.54,2.69.13,2.02.81,4.04,2.16,5.52.94,1.08,2.42,1.75,3.77,2.02,2.96.67,5.93.27,8.76-.13,7.01-1.21,13.47-4.58,20.34-6.2,2.29-.67,4.85-.81,7.27-.27,1.75.54,3.5,1.75,4.72,3.23,1.35,2.02,2.56,4.18,3.23,6.47,1.89,5.12,2.83,10.78,1.75,16.03-.81,3.5-2.7,6.74-5.25,9.16-3.77,3.64-9.03,5.66-14.01,7.14-9.43,2.69-19.67,2.29-29.37.81Z"/>
              </g>
              <path class="cls-5" d="M381.84,174.26c-7.28-1.62-14.55-5.25-19.67-10.64-4.85-4.98-8.08-11.72-10.1-18.46-3.1-10.11-3.91-21.02-3.37-31.53.4-8.08,1.48-16.3,3.77-23.98.67-2.02,1.35-4.04,2.56-5.79,1.35-1.89,3.37-3.37,5.52-4.18,4.98-1.89,14.15-1.21,17.65,2.83,1.35,1.62,1.89,4.04,2.02,6.2.27,3.37-.27,6.74-.81,9.97-1.08,5.25-2.69,10.37-3.77,15.63-.81,3.23-1.08,6.87-.13,10.11.94,2.96,2.96,5.52,5.52,7.28,8.08,5.93,21.83,4.98,28.83-2.16,1.62-1.75,2.96-3.91,3.64-6.2,1.08-3.5.94-7.28.67-10.91-.54-6.33-2.02-12.66-2.02-19.13.13-2.56.4-5.25,1.89-7.28,1.35-2.02,3.64-3.5,5.93-4.31,5.39-1.75,12.93-.94,15.63,4.04,1.75,3.23,2.69,6.87,3.5,10.51,1.89,9.7,1.75,20.07.4,30.04-1.35,10.37-4.31,21.02-9.57,30.04-3.1,5.25-7.28,10.1-12.26,13.61-3.77,2.56-8.22,4.31-12.66,5.12-7.54,1.21-15.63.94-23.17-.81Z"/>
              <path class="cls-17" d="M381.84,174.26c-7.28-1.62-14.55-5.25-19.67-10.64-4.85-4.98-8.08-11.72-10.1-18.46-3.1-10.11-3.91-21.02-3.37-31.53.4-8.08,1.48-16.3,3.77-23.98.67-2.02,1.35-4.04,2.56-5.79,1.35-1.89,3.37-3.37,5.52-4.18,4.98-1.89,14.15-1.21,17.65,2.83,1.35,1.62,1.89,4.04,2.02,6.2.27,3.37-.27,6.74-.81,9.97-1.08,5.25-2.69,10.37-3.77,15.63-.81,3.23-1.08,6.87-.13,10.11.94,2.96,2.96,5.52,5.52,7.28,8.08,5.93,21.83,4.98,28.83-2.16,1.62-1.75,2.96-3.91,3.64-6.2,1.08-3.5.94-7.28.67-10.91-.54-6.33-2.02-12.66-2.02-19.13.13-2.56.4-5.25,1.89-7.28,1.35-2.02,3.64-3.5,5.93-4.31,5.39-1.75,12.93-.94,15.63,4.04,1.75,3.23,2.69,6.87,3.5,10.51,1.89,9.7,1.75,20.07.4,30.04-1.35,10.37-4.31,21.02-9.57,30.04-3.1,5.25-7.28,10.1-12.26,13.61-3.77,2.56-8.22,4.31-12.66,5.12-7.54,1.21-15.63.94-23.17-.81Z"/>
              <path class="cls-5" d="M280.36,178.31c-6.74-3.77-8.35-16.44-6.87-24.12.4-2.43,1.35-4.98,2.96-7.01,1.48-1.75,3.77-2.83,6.06-3.23,3.5-.67,7.14-.4,10.64-.27,6.06.13,12.13.13,18.05-.67,2.56-.27,5.12-.81,7.28-2.02,1.21-.67,2.29-1.75,2.56-3.1.94-3.37-2.69-5.25-6.06-6.06-3.64-1.08-7.55-1.35-11.45-1.75-7.14-.94-14.69-1.75-21.29-4.72-3.5-1.62-6.6-4.18-8.89-7.14-8.35-10.78-8.89-27.89,1.21-36.92,4.58-4.18,11.05-6.06,16.98-7.28,10.37-2.02,21.02-2.16,31.66-2.02,5.52,0,11.45.4,16.71,2.69,2.83,1.21,5.79,2.96,7.41,5.66,3.91,6.47,2.16,19.67-2.42,25.6-1.75,2.43-4.58,4.18-7.41,4.98-3.64,1.08-7.81.67-11.32-.54-7.95-2.69-14.68-8.89-23.04-10.1-6.47-.94-14.82.4-15.22,7.01-.27,3.1,3.1,6.74,6.06,7.81,1.89.67,3.91.94,5.93,1.35,10.37,1.75,21.02,1.89,31.53,3.23,5.39.67,10.91,2.16,15.23,5.39,2.42,1.62,4.31,4.04,5.79,6.6,2.29,4.18,3.5,9.03,3.77,13.74.4,6.06-.94,12.8-4.31,17.92-2.29,3.37-5.66,6.06-9.16,7.95-6.74,3.64-14.28,5.25-21.69,6.33-10.78,1.35-21.69,1.35-32.47,2.02-2.69.13-5.66-.13-8.22-1.35Z"/>
              <path class="cls-17" d="M280.36,178.31c-6.74-3.77-8.35-16.44-6.87-24.12.4-2.43,1.35-4.98,2.96-7.01,1.48-1.75,3.77-2.83,6.06-3.23,3.5-.67,7.14-.4,10.64-.27,6.06.13,12.13.13,18.05-.67,2.56-.27,5.12-.81,7.28-2.02,1.21-.67,2.29-1.75,2.56-3.1.94-3.37-2.69-5.25-6.06-6.06-3.64-1.08-7.55-1.35-11.45-1.75-7.14-.94-14.69-1.75-21.29-4.72-3.5-1.62-6.6-4.18-8.89-7.14-8.35-10.78-8.89-27.89,1.21-36.92,4.58-4.18,11.05-6.06,16.98-7.28,10.37-2.02,21.02-2.16,31.66-2.02,5.52,0,11.45.4,16.71,2.69,2.83,1.21,5.79,2.96,7.41,5.66,3.91,6.47,2.16,19.67-2.42,25.6-1.75,2.43-4.58,4.18-7.41,4.98-3.64,1.08-7.81.67-11.32-.54-7.95-2.69-14.68-8.89-23.04-10.1-6.47-.94-14.82.4-15.22,7.01-.27,3.1,3.1,6.74,6.06,7.81,1.89.67,3.91.94,5.93,1.35,10.37,1.75,21.02,1.89,31.53,3.23,5.39.67,10.91,2.16,15.23,5.39,2.42,1.62,4.31,4.04,5.79,6.6,2.29,4.18,3.5,9.03,3.77,13.74.4,6.06-.94,12.8-4.31,17.92-2.29,3.37-5.66,6.06-9.16,7.95-6.74,3.64-14.28,5.25-21.69,6.33-10.78,1.35-21.69,1.35-32.47,2.02-2.69.13-5.66-.13-8.22-1.35Z"/>
              <path class="cls-5" d="M235.72,171.97c-3.77-3.23-4.45-8.89-7.01-13.2-7.55-12.4-15.09-24.92-23.31-36.92-.27,13.34,4.31,26.41,5.79,39.61.27,3.1-.13,6.47-1.89,8.89-1.75,2.69-4.98,4.31-8.08,4.98-3.64.67-7.41.94-11.18.54-3.23-.27-6.74-1.08-9.43-2.96-1.48-1.08-2.7-2.69-3.37-4.31-3.91-8.76-5.25-18.46-5.93-28.02-.94-16.57-1.21-33.82,4.04-49.58,1.08-3.23,2.69-6.47,5.52-8.22,4.98-3.23,15.49-3.5,20.34-.13,2.96,2.02,5.25,5.12,6.87,8.35,2.43,4.58,14.01,32.87,16.17,37.59,3.5,7.14,7.41,14.15,12.93,19.94-.4-5.39-2.83-38.53-3.1-43.92-.27-4.58-.4-9.3.27-13.74.4-2.83,1.08-5.79,2.96-7.81,2.83-3.1,13.07-4.99,17.25-4.85,4.18,0,7.95,1.62,10.78,4.58,2.42,2.43,3.64,5.93,4.45,9.16,1.62,7.01,1.75,14.42,1.62,21.56-.13,9.3-.94,18.73-2.16,27.89-1.21,9.43-2.69,19.27-7.81,27.21-5.66,8.76-17.78,10.24-25.73,3.37Z"/>
              <path class="cls-17" d="M235.72,171.97c-3.77-3.23-4.45-8.89-7.01-13.2-7.55-12.4-15.09-24.92-23.31-36.92-.27,13.34,4.31,26.41,5.79,39.61.27,3.1-.13,6.47-1.89,8.89-1.75,2.69-4.98,4.31-8.08,4.98-3.64.67-7.41.94-11.18.54-3.23-.27-6.74-1.08-9.43-2.96-1.48-1.08-2.7-2.69-3.37-4.31-3.91-8.76-5.25-18.46-5.93-28.02-.94-16.57-1.21-33.82,4.04-49.58,1.08-3.23,2.69-6.47,5.52-8.22,4.98-3.23,15.49-3.5,20.34-.13,2.96,2.02,5.25,5.12,6.87,8.35,2.43,4.58,14.01,32.87,16.17,37.59,3.5,7.14,7.41,14.15,12.93,19.94-.4-5.39-2.83-38.53-3.1-43.92-.27-4.58-.4-9.3.27-13.74.4-2.83,1.08-5.79,2.96-7.81,2.83-3.1,13.07-4.99,17.25-4.85,4.18,0,7.95,1.62,10.78,4.58,2.42,2.43,3.64,5.93,4.45,9.16,1.62,7.01,1.75,14.42,1.62,21.56-.13,9.3-.94,18.73-2.16,27.89-1.21,9.43-2.69,19.27-7.81,27.21-5.66,8.76-17.78,10.24-25.73,3.37Z"/>
              <path class="cls-14" d="M177.68,95.97c-.62-.14-1.03-1.2-.81-2.86.21-1.64,1.16-3.83,2.92-5.67,1.76-1.84,3.91-2.87,5.54-3.15,1.65-.29,2.73.07,2.89.69.18.65-.5,1.42-1.46,2.34-.98.93-2.25,2.06-3.55,3.4-1.29,1.36-2.36,2.67-3.25,3.69-.89,1.01-1.63,1.71-2.28,1.56Z"/>
              <path class="cls-5" d="M117.96,174.26c-7.28-1.62-14.55-5.25-19.67-10.64-4.85-4.98-8.08-11.72-10.1-18.46-3.1-10.11-3.91-21.02-3.37-31.53.4-8.08,1.48-16.3,3.77-23.98.67-2.02,1.35-4.04,2.56-5.79,1.35-1.89,3.37-3.37,5.52-4.18,4.98-1.89,14.15-1.21,17.65,2.83,1.35,1.62,1.89,4.04,2.02,6.2.27,3.37-.27,6.74-.81,9.97-1.08,5.25-2.69,10.37-3.77,15.63-.81,3.23-1.08,6.87-.13,10.11.94,2.96,2.96,5.52,5.52,7.28,8.08,5.93,21.83,4.98,28.83-2.16,1.62-1.75,2.96-3.91,3.64-6.2,1.08-3.5.94-7.28.67-10.91-.54-6.33-2.02-12.66-2.02-19.13.13-2.56.4-5.25,1.89-7.28,1.35-2.02,3.64-3.5,5.93-4.31,5.39-1.75,12.93-.94,15.63,4.04,1.75,3.23,2.69,6.87,3.5,10.51,1.89,9.7,1.75,20.07.4,30.04-1.35,10.37-4.31,21.02-9.57,30.04-3.1,5.25-7.28,10.1-12.26,13.61-3.77,2.56-8.22,4.31-12.66,5.12-7.54,1.21-15.63.94-23.17-.81Z"/>
              <path class="cls-17" d="M117.96,174.26c-7.28-1.62-14.55-5.25-19.67-10.64-4.85-4.98-8.08-11.72-10.1-18.46-3.1-10.11-3.91-21.02-3.37-31.53.4-8.08,1.48-16.3,3.77-23.98.67-2.02,1.35-4.04,2.56-5.79,1.35-1.89,3.37-3.37,5.52-4.18,4.98-1.89,14.15-1.21,17.65,2.83,1.35,1.62,1.89,4.04,2.02,6.2.27,3.37-.27,6.74-.81,9.97-1.08,5.25-2.69,10.37-3.77,15.63-.81,3.23-1.08,6.87-.13,10.11.94,2.96,2.96,5.52,5.52,7.28,8.08,5.93,21.83,4.98,28.83-2.16,1.62-1.75,2.96-3.91,3.64-6.2,1.08-3.5.94-7.28.67-10.91-.54-6.33-2.02-12.66-2.02-19.13.13-2.56.4-5.25,1.89-7.28,1.35-2.02,3.64-3.5,5.93-4.31,5.39-1.75,12.93-.94,15.63,4.04,1.75,3.23,2.69,6.87,3.5,10.51,1.89,9.7,1.75,20.07.4,30.04-1.35,10.37-4.31,21.02-9.57,30.04-3.1,5.25-7.28,10.1-12.26,13.61-3.77,2.56-8.22,4.31-12.66,5.12-7.54,1.21-15.63.94-23.17-.81Z"/>
              <path class="cls-5" d="M18.69,178.31c-6.74-3.77-8.35-16.44-6.87-24.12.4-2.43,1.35-4.98,2.96-7.01,1.48-1.75,3.77-2.83,6.06-3.23,3.5-.67,7.14-.4,10.64-.27,6.06.13,12.13.13,18.05-.67,2.56-.27,5.12-.81,7.28-2.02,1.21-.67,2.29-1.75,2.56-3.1.94-3.37-2.69-5.25-6.06-6.06-3.64-1.08-7.55-1.35-11.45-1.75-7.14-.94-14.69-1.75-21.29-4.72-3.5-1.62-6.6-4.18-8.89-7.14-8.35-10.78-8.89-27.89,1.21-36.92,4.58-4.18,11.05-6.06,16.98-7.28,10.37-2.02,21.02-2.16,31.66-2.02,5.52,0,11.45.4,16.71,2.69,2.83,1.21,5.79,2.96,7.41,5.66,3.91,6.47,2.16,19.67-2.42,25.6-1.75,2.43-4.58,4.18-7.41,4.98-3.64,1.08-7.81.67-11.32-.54-7.95-2.69-14.68-8.89-23.04-10.1-6.47-.94-14.82.4-15.22,7.01-.27,3.1,3.1,6.74,6.06,7.81,1.89.67,3.91.94,5.93,1.35,10.37,1.75,21.02,1.89,31.53,3.23,5.39.67,10.91,2.16,15.23,5.39,2.42,1.62,4.31,4.04,5.79,6.6,2.29,4.18,3.5,9.03,3.77,13.74.4,6.06-.94,12.8-4.31,17.92-2.29,3.37-5.66,6.06-9.16,7.95-6.74,3.64-14.28,5.25-21.69,6.33-10.78,1.35-21.69,1.35-32.47,2.02-2.69.13-5.66-.13-8.22-1.35Z"/>
              <path class="cls-17" d="M18.69,178.31c-6.74-3.77-8.35-16.44-6.87-24.12.4-2.43,1.35-4.98,2.96-7.01,1.48-1.75,3.77-2.83,6.06-3.23,3.5-.67,7.14-.4,10.64-.27,6.06.13,12.13.13,18.05-.67,2.56-.27,5.12-.81,7.28-2.02,1.21-.67,2.29-1.75,2.56-3.1.94-3.37-2.69-5.25-6.06-6.06-3.64-1.08-7.55-1.35-11.45-1.75-7.14-.94-14.69-1.75-21.29-4.72-3.5-1.62-6.6-4.18-8.89-7.14-8.35-10.78-8.89-27.89,1.21-36.92,4.58-4.18,11.05-6.06,16.98-7.28,10.37-2.02,21.02-2.16,31.66-2.02,5.52,0,11.45.4,16.71,2.69,2.83,1.21,5.79,2.96,7.41,5.66,3.91,6.47,2.16,19.67-2.42,25.6-1.75,2.43-4.58,4.18-7.41,4.98-3.64,1.08-7.81.67-11.32-.54-7.95-2.69-14.68-8.89-23.04-10.1-6.47-.94-14.82.4-15.22,7.01-.27,3.1,3.1,6.74,6.06,7.81,1.89.67,3.91.94,5.93,1.35,10.37,1.75,21.02,1.89,31.53,3.23,5.39.67,10.91,2.16,15.23,5.39,2.42,1.62,4.31,4.04,5.79,6.6,2.29,4.18,3.5,9.03,3.77,13.74.4,6.06-.94,12.8-4.31,17.92-2.29,3.37-5.66,6.06-9.16,7.95-6.74,3.64-14.28,5.25-21.69,6.33-10.78,1.35-21.69,1.35-32.47,2.02-2.69.13-5.66-.13-8.22-1.35Z"/>
              <path class="cls-5" d="M143.99,294.48c-2.56-.27-9.83-.67-11.72-2.56-.67-.81-.94-1.75-1.35-2.69-2.29-5.79-2.29-12.4-2.7-18.73-1.35-18.59-1.48-37.45.81-55.91,0-.4-.13-.67-.13-1.08.4-3.23.94-6.6,1.89-9.7.27-1.08.54-2.02.94-2.96.54-1.08,1.62-1.89,2.7-2.56,4.31-2.96,9.57-4.45,14.68-5.12,9.57-1.48,20.08-1.08,29.1,2.56,6.33,2.56,11.86,7.14,15.9,12.66,4.04,5.52,6.87,12.13,8.49,18.86,2.43,10.37,2.7,21.56.54,31.93-1.21,6.06-3.23,12.26-6.87,17.38-5.25,7.41-14.01,12.8-22.77,15.09-9.57,2.56-19.67,3.37-29.51,2.83ZM159.62,251.77c4.85-1.08,10.37-2.43,13.34-6.33,1.21-1.62,2.29-3.23,2.83-5.12,1.75-5.79.54-13.07-3.23-17.78-2.16-2.83-5.52-5.12-9.03-5.79-4.72-.81-9.7-.27-14.28,1.35-1.35,11.05-1.48,22.5-.94,33.68,3.64,1.08,7.54.81,11.32,0Z"/>
              <path class="cls-20" d="M143.99,294.48c-2.56-.27-9.83-.67-11.72-2.56-.67-.81-.94-1.75-1.35-2.69-2.29-5.79-2.29-12.4-2.7-18.73-1.35-18.59-1.48-37.45.81-55.91,0-.4-.13-.67-.13-1.08.4-3.23.94-6.6,1.89-9.7.27-1.08.54-2.02.94-2.96.54-1.08,1.62-1.89,2.7-2.56,4.31-2.96,9.57-4.45,14.68-5.12,9.57-1.48,20.08-1.08,29.1,2.56,6.33,2.56,11.86,7.14,15.9,12.66,4.04,5.52,6.87,12.13,8.49,18.86,2.43,10.37,2.7,21.56.54,31.93-1.21,6.06-3.23,12.26-6.87,17.38-5.25,7.41-14.01,12.8-22.77,15.09-9.57,2.56-19.67,3.37-29.51,2.83ZM159.62,251.77c4.85-1.08,10.37-2.43,13.34-6.33,1.21-1.62,2.29-3.23,2.83-5.12,1.75-5.79.54-13.07-3.23-17.78-2.16-2.83-5.52-5.12-9.03-5.79-4.72-.81-9.7-.27-14.28,1.35-1.35,11.05-1.48,22.5-.94,33.68,3.64,1.08,7.54.81,11.32,0Z"/>
              <path class="cls-14" d="M132.18,213.33c-.61.13-1.46-.77-1.78-2.58-.17-.9-.14-2,.1-3.18.26-1.17.76-2.43,1.52-3.59.77-1.16,1.73-2.11,2.71-2.81.99-.69,1.99-1.14,2.89-1.34,1.8-.42,2.95.01,3.08.62.15.66-.6,1.4-1.54,2.36-.48.47-1,1.04-1.55,1.66-.53.64-1.09,1.34-1.61,2.12-.51.79-.94,1.58-1.32,2.32-.35.75-.67,1.45-.91,2.08-.51,1.24-.9,2.22-1.56,2.35Z"/>
              <path class="cls-5" d="M92.36,290.98c-2.56-3.1-2.69-7.81-2.83-11.86-.4-19.67,0-39.34,1.48-59.01.4-5.12.54-10.24.94-15.36.27-3.5.81-7.55,3.1-10.37,4.04-4.85,17.11-5.25,23.44-4.18,2.69.54,5.52,1.21,7.81,2.83,1.62,1.35,2.7,3.5,2.96,5.52.27,1.89.27,3.77.13,5.66-.4,6.87-1.21,13.74-1.89,20.61-.54,4.72-2.7,31.53-2.83,36.24-.13,3.1-.13,19.81-.54,22.77-.27,2.02-.94,4.18-2.16,5.93-1.48,2.02-3.77,3.37-6.2,4.04-6.6,2.02-19.13,2.43-23.44-2.83Z"/>
              <path class="cls-20" d="M92.36,290.98c-2.56-3.1-2.69-7.81-2.83-11.86-.4-19.67,0-39.34,1.48-59.01.4-5.12.54-10.24.94-15.36.27-3.5.81-7.55,3.1-10.37,4.04-4.85,17.11-5.25,23.44-4.18,2.69.54,5.52,1.21,7.81,2.83,1.62,1.35,2.7,3.5,2.96,5.52.27,1.89.27,3.77.13,5.66-.4,6.87-1.21,13.74-1.89,20.61-.54,4.72-2.7,31.53-2.83,36.24-.13,3.1-.13,19.81-.54,22.77-.27,2.02-.94,4.18-2.16,5.93-1.48,2.02-3.77,3.37-6.2,4.04-6.6,2.02-19.13,2.43-23.44-2.83Z"/>
              <path class="cls-14" d="M96.65,208.06c-.59.19-1.58-.7-2.03-2.63-.47-1.89-.21-4.81,1.48-7.4,1.67-2.59,4.31-4.13,6.49-4.26,1.09-.09,2,.19,2.52.55.53.37.67.78.56,1.08-.11.31-.44.52-.83.74-.39.23-.84.49-1.35.85-1.01.71-2.33,1.96-3.41,3.61-1.08,1.66-1.7,3.42-2.11,4.81-.43,1.38-.67,2.46-1.32,2.65Z"/>
              <path class="cls-5" d="M26.9,295.56c-3.91,0-8.08-.13-11.32-2.16-2.56-1.62-4.04-4.85-4.72-7.81-1.48-6.6-1.75-13.34-2.02-20.07-.27-11.86-.13-23.71.4-35.57.4-8.76-.27-17.78,1.21-26.54.54-2.56,1.35-5.25,3.37-7.01,2.42-2.16,6.06-2.69,9.3-2.96,4.45-.4,9.03-.27,13.61.4,2.02.27,4.31.81,6.06,2.16,1.62,1.35,2.56,3.37,2.83,5.52.54,2.83.67,5.79.67,8.62-.13,6.87-.81,13.61-.94,20.34-.13,3.37-.13,6.74-.13,10.1,8.35-8.35,15.36-17.78,22.1-27.48,2.96-4.45,5.79-8.89,9.03-13.2,1.21-1.48,2.69-3.1,4.58-4.04.94-.67,2.29-.94,3.5-.67,3.23.4,7.81,4.18,8.76,7.28.54,2.02.13,4.18-.67,6.06-.27.67-.54,1.62-1.21,2.02-.13.13-.13.54-.13.67-.27.81-2.56,4.04-3.1,4.72-3.1,4.31-22.23,27.89-25.6,32.07,5.39,8.76,11.86,16.98,19.13,24.25,2.83,2.69,6.33,5.12,7.81,8.76,1.89,4.45-2.02,9.3-6.33,11.45-2.02.94-4.72,1.21-6.74.4-7.28-3.23-20.61-25.33-24.79-32.07-.4-.54-2.29-3.5-2.7-3.91h-4.98c0,.94.13,6.33.13,7.28.27,4.31.54,8.62.67,12.8,0,3.5,0,7.14-1.08,10.37-.54,1.62-1.35,3.1-2.56,4.18-3.5,3.37-9.3,3.91-14.15,4.04Z"/>
              <path class="cls-20" d="M26.9,295.56c-3.91,0-8.08-.13-11.32-2.16-2.56-1.62-4.04-4.85-4.72-7.81-1.48-6.6-1.75-13.34-2.02-20.07-.27-11.86-.13-23.71.4-35.57.4-8.76-.27-17.78,1.21-26.54.54-2.56,1.35-5.25,3.37-7.01,2.42-2.16,6.06-2.69,9.3-2.96,4.45-.4,9.03-.27,13.61.4,2.02.27,4.31.81,6.06,2.16,1.62,1.35,2.56,3.37,2.83,5.52.54,2.83.67,5.79.67,8.62-.13,6.87-.81,13.61-.94,20.34-.13,3.37-.13,6.74-.13,10.1,8.35-8.35,15.36-17.78,22.1-27.48,2.96-4.45,5.79-8.89,9.03-13.2,1.21-1.48,2.69-3.1,4.58-4.04.94-.67,2.29-.94,3.5-.67,3.23.4,7.81,4.18,8.76,7.28.54,2.02.13,4.18-.67,6.06-.27.67-.54,1.62-1.21,2.02-.13.13-.13.54-.13.67-.27.81-2.56,4.04-3.1,4.72-3.1,4.31-22.23,27.89-25.6,32.07,5.39,8.76,11.86,16.98,19.13,24.25,2.83,2.69,6.33,5.12,7.81,8.76,1.89,4.45-2.02,9.3-6.33,11.45-2.02.94-4.72,1.21-6.74.4-7.28-3.23-20.61-25.33-24.79-32.07-.4-.54-2.29-3.5-2.7-3.91h-4.98c0,.94.13,6.33.13,7.28.27,4.31.54,8.62.67,12.8,0,3.5,0,7.14-1.08,10.37-.54,1.62-1.35,3.1-2.56,4.18-3.5,3.37-9.3,3.91-14.15,4.04Z"/>
              <path class="cls-5" d="M362.83,414.83c-7.14-2.29-14.01-6.87-18.59-12.8-5.66-7.41-8.62-16.84-9.43-26-1.21-11.05.27-22.77,4.85-32.87,3.64-8.22,9.57-15.49,16.44-21.15,8.22-6.74,19.81-9.97,30.45-9.97,6.06,0,12.26,1.08,17.65,3.64,3.23,1.48,6.2,3.64,8.35,6.33,1.08,1.48,1.75,3.23,2.02,4.98.13,2.43-.54,4.99-1.48,7.14-1.62,3.64-4.18,6.74-7.01,9.3-2.02,1.75-5.12,2.43-7.68,2.16-5.52-.81-10.51-3.91-15.9-5.12-4.18-.94-8.22-.13-11.86,2.16-4.04,2.43-7.01,6.74-8.49,11.05-2.02,6.06-1.21,13.2,1.21,19,.94,2.29,2.42,4.18,4.18,5.79,2.43,2.02,5.52,3.5,8.62,4.04,5.12,1.08,10.91.27,15.36-2.16,2.29-1.21,4.18-3.1,5.52-5.25-2.83,0-15.49,0-18.32-.81-.81-.27-1.62-.81-2.02-1.62-.81-1.21-.94-2.83-1.21-4.31-.67-4.18-.94-11.45,2.83-13.34,3.5-1.62,17.25-.27,21.02-.13,3.5.13,7.01-.54,10.51-.4,2.42,0,5.12,0,7.14,1.48,1.08.94,2.42,4.58,2.69,6.06.4,2.56.13,5.25.13,7.95.13,6.6.4,13.34-.27,19.94-.4,4.18-1.21,8.35-2.83,12.26-1.08,2.56-2.56,4.98-4.58,6.87-1.89,1.75-4.58,2.69-7.14,3.5-3.1,1.08-6.33,1.89-9.57,2.56-10.64,2.16-22.23,2.96-32.6-.27Z"/>
              <path class="cls-19" d="M362.83,414.83c-7.14-2.29-14.01-6.87-18.59-12.8-5.66-7.41-8.62-16.84-9.43-26-1.21-11.05.27-22.77,4.85-32.87,3.64-8.22,9.57-15.49,16.44-21.15,8.22-6.74,19.81-9.97,30.45-9.97,6.06,0,12.26,1.08,17.65,3.64,3.23,1.48,6.2,3.64,8.35,6.33,1.08,1.48,1.75,3.23,2.02,4.98.13,2.43-.54,4.99-1.48,7.14-1.62,3.64-4.18,6.74-7.01,9.3-2.02,1.75-5.12,2.43-7.68,2.16-5.52-.81-10.51-3.91-15.9-5.12-4.18-.94-8.22-.13-11.86,2.16-4.04,2.43-7.01,6.74-8.49,11.05-2.02,6.06-1.21,13.2,1.21,19,.94,2.29,2.42,4.18,4.18,5.79,2.43,2.02,5.52,3.5,8.62,4.04,5.12,1.08,10.91.27,15.36-2.16,2.29-1.21,4.18-3.1,5.52-5.25-2.83,0-15.49,0-18.32-.81-.81-.27-1.62-.81-2.02-1.62-.81-1.21-.94-2.83-1.21-4.31-.67-4.18-.94-11.45,2.83-13.34,3.5-1.62,17.25-.27,21.02-.13,3.5.13,7.01-.54,10.51-.4,2.42,0,5.12,0,7.14,1.48,1.08.94,2.42,4.58,2.69,6.06.4,2.56.13,5.25.13,7.95.13,6.6.4,13.34-.27,19.94-.4,4.18-1.21,8.35-2.83,12.26-1.08,2.56-2.56,4.98-4.58,6.87-1.89,1.75-4.58,2.69-7.14,3.5-3.1,1.08-6.33,1.89-9.57,2.56-10.64,2.16-22.23,2.96-32.6-.27Z"/>
              <path class="cls-5" d="M254.78,414.56c-1.75-.4-3.64-.81-5.25-1.89-1.08-.67-1.89-1.89-2.29-2.96-.81-2.16-.94-4.58-.94-6.87,0-21.02,1.89-42.71,9.84-62.24,4.04-9.7,11.86-18.73,21.29-23.58,11.45-5.79,25.06-5.12,35.97,1.89,7.81,5.12,13.88,13.47,17.25,22.23,6.06,15.63,8.08,32.74,8.89,49.45.13,4.45,1.21,17.11-1.48,20.48-3.23,3.91-15.22,4.18-20.34,4.04-2.43,0-4.85.13-7.28-.54-1.08-.27-3.23-1.08-3.5-2.16-.67-2.43,1.35-12.66,1.48-15.09-2.69,1.62-5.79,2.83-9.03,3.37-7.68,1.35-16.03-.27-23.17-3.37.4,2.29,1.75,10.78,1.08,12.93-.4,1.21-1.48,2.29-2.7,2.96-1.75,1.08-3.91,1.48-6.06,1.75-4.58.54-9.16.54-13.74-.4ZM299.78,366.6c2.43-1.08,4.72-2.96,6.2-5.12,1.35-2.02,2.02-4.58,2.02-7.01-.13-6.47-4.31-15.22-10.51-16.71-5.25-1.21-11.18,1.62-13.74,6.6-1.62,3.23-2.96,6.87-3.23,10.51-.13,2.16,0,4.31.94,6.33,2.96,6.6,11.59,8.22,18.32,5.39Z"/>
              <path class="cls-19" d="M254.78,414.56c-1.75-.4-3.64-.81-5.25-1.89-1.08-.67-1.89-1.89-2.29-2.96-.81-2.16-.94-4.58-.94-6.87,0-21.02,1.89-42.71,9.84-62.24,4.04-9.7,11.86-18.73,21.29-23.58,11.45-5.79,25.06-5.12,35.97,1.89,7.81,5.12,13.88,13.47,17.25,22.23,6.06,15.63,8.08,32.74,8.89,49.45.13,4.45,1.21,17.11-1.48,20.48-3.23,3.91-15.22,4.18-20.34,4.04-2.43,0-4.85.13-7.28-.54-1.08-.27-3.23-1.08-3.5-2.16-.67-2.43,1.35-12.66,1.48-15.09-2.69,1.62-5.79,2.83-9.03,3.37-7.68,1.35-16.03-.27-23.17-3.37.4,2.29,1.75,10.78,1.08,12.93-.4,1.21-1.48,2.29-2.7,2.96-1.75,1.08-3.91,1.48-6.06,1.75-4.58.54-9.16.54-13.74-.4ZM299.78,366.6c2.43-1.08,4.72-2.96,6.2-5.12,1.35-2.02,2.02-4.58,2.02-7.01-.13-6.47-4.31-15.22-10.51-16.71-5.25-1.21-11.18,1.62-13.74,6.6-1.62,3.23-2.96,6.87-3.23,10.51-.13,2.16,0,4.31.94,6.33,2.96,6.6,11.59,8.22,18.32,5.39Z"/>
              <path class="cls-5" d="M201.47,414.02c-2.02,0-4.45,0-5.93-1.35-2.02-1.62-2.29-8.62-2.56-11.05-2.96-25.46-3.77-51.33-.81-76.66.4-2.83.54-5.93,2.16-8.35,1.08-1.48,2.96-2.43,4.72-2.83,6.06-1.62,12.66-1.35,19-.81,3.5.27,7.14.54,9.97,2.43,6.74,4.45,3.1,18.86,1.35,26.68-2.29,9.97-3.91,20.07-5.25,30.18-.81,5.39-1.48,10.91-1.75,16.3-.27,3.37-.54,6.74.27,9.83.13.94,1.48.27,2.43.13,4.85-.81,9.57-1.89,14.42-2.43,2.96-.4,9.83-.67,11.99,1.62,2.15,2.43,2.69,6.33,2.42,9.7-.13,2.02-1.08,4.58-3.1,4.72-16.44,1.21-32.87,1.89-49.31,1.89Z"/>
              <path class="cls-19" d="M201.47,414.02c-2.02,0-4.45,0-5.93-1.35-2.02-1.62-2.29-8.62-2.56-11.05-2.96-25.46-3.77-51.33-.81-76.66.4-2.83.54-5.93,2.16-8.35,1.08-1.48,2.96-2.43,4.72-2.83,6.06-1.62,12.66-1.35,19-.81,3.5.27,7.14.54,9.97,2.43,6.74,4.45,3.1,18.86,1.35,26.68-2.29,9.97-3.91,20.07-5.25,30.18-.81,5.39-1.48,10.91-1.75,16.3-.27,3.37-.54,6.74.27,9.83.13.94,1.48.27,2.43.13,4.85-.81,9.57-1.89,14.42-2.43,2.96-.4,9.83-.67,11.99,1.62,2.15,2.43,2.69,6.33,2.42,9.7-.13,2.02-1.08,4.58-3.1,4.72-16.44,1.21-32.87,1.89-49.31,1.89Z"/>
              <path class="cls-5" d="M144.68,414.02c-2.02,0-4.45,0-5.93-1.35-2.02-1.62-2.29-8.62-2.56-11.05-2.96-25.46-3.77-51.33-.81-76.66.4-2.83.54-5.93,2.16-8.35,1.08-1.48,2.96-2.43,4.72-2.83,6.06-1.62,12.66-1.35,19-.81,3.5.27,7.14.54,9.97,2.43,6.74,4.45,3.1,18.86,1.35,26.68-2.29,9.97-3.91,20.07-5.25,30.18-.81,5.39-1.48,10.91-1.75,16.3-.27,3.37-.54,6.74.27,9.83.13.94,1.48.27,2.43.13,4.85-.81,9.57-1.89,14.42-2.43,2.96-.4,9.84-.67,11.99,1.62,2.15,2.43,2.69,6.33,2.42,9.7-.13,2.02-1.08,4.58-3.1,4.72-16.44,1.21-32.87,1.89-49.31,1.89Z"/>
              <path class="cls-19" d="M144.68,414.02c-2.02,0-4.45,0-5.93-1.35-2.02-1.62-2.29-8.62-2.56-11.05-2.96-25.46-3.77-51.33-.81-76.66.4-2.83.54-5.93,2.16-8.35,1.08-1.48,2.96-2.43,4.72-2.83,6.06-1.62,12.66-1.35,19-.81,3.5.27,7.14.54,9.97,2.43,6.74,4.45,3.1,18.86,1.35,26.68-2.29,9.97-3.91,20.07-5.25,30.18-.81,5.39-1.48,10.91-1.75,16.3-.27,3.37-.54,6.74.27,9.83.13.94,1.48.27,2.43.13,4.85-.81,9.57-1.89,14.42-2.43,2.96-.4,9.84-.67,11.99,1.62,2.15,2.43,2.69,6.33,2.42,9.7-.13,2.02-1.08,4.58-3.1,4.72-16.44,1.21-32.87,1.89-49.31,1.89Z"/>
              <path class="cls-14" d="M136.81,329.56c-.64-.09-1.13-1.02-1.32-2.53-.17-1.49-.06-3.71,1.11-6.05,1.2-2.38,3.35-3.93,5.13-4.31.89-.2,1.64-.14,2.14.06.5.2.76.5.78.82.04.67-.69,1.27-1.43,2.13-.75.84-1.65,2-2.4,3.46-.77,1.51-1.38,3.18-2.03,4.45-.64,1.26-1.34,2.07-1.99,1.97Z"/>
              <path class="cls-5" d="M96.35,410.25c-2.56-3.1-2.69-7.81-2.83-11.86-.4-19.67,0-39.34,1.48-59.01.4-5.12.54-10.24.94-15.36.27-3.5.81-7.55,3.1-10.37,4.04-4.85,17.11-5.25,23.44-4.18,2.69.54,5.52,1.21,7.81,2.83,1.62,1.35,2.7,3.5,2.96,5.52.27,1.89.27,3.77.13,5.66-.4,6.87-1.21,13.74-1.89,20.61-.54,4.72-2.7,31.53-2.83,36.24-.13,3.1-.13,19.81-.54,22.77-.27,2.02-.94,4.18-2.16,5.93-1.48,2.02-3.77,3.37-6.2,4.04-6.6,2.02-19.13,2.43-23.44-2.83Z"/>
              <path class="cls-19" d="M96.35,410.25c-2.56-3.1-2.69-7.81-2.83-11.86-.4-19.67,0-39.34,1.48-59.01.4-5.12.54-10.24.94-15.36.27-3.5.81-7.55,3.1-10.37,4.04-4.85,17.11-5.25,23.44-4.18,2.69.54,5.52,1.21,7.81,2.83,1.62,1.35,2.7,3.5,2.96,5.52.27,1.89.27,3.77.13,5.66-.4,6.87-1.21,13.74-1.89,20.61-.54,4.72-2.7,31.53-2.83,36.24-.13,3.1-.13,19.81-.54,22.77-.27,2.02-.94,4.18-2.16,5.93-1.48,2.02-3.77,3.37-6.2,4.04-6.6,2.02-19.13,2.43-23.44-2.83Z"/>
              <path class="cls-14" d="M100.12,326.1c-.61.12-1.45-.75-1.77-2.51-.17-.87-.15-1.94.08-3.09.25-1.14.72-2.36,1.45-3.5.74-1.13,1.66-2.06,2.6-2.75.96-.68,1.92-1.13,2.79-1.34,1.74-.43,2.88-.02,3.02.58.16.66-.54,1.41-1.42,2.37-.9.96-2,2.19-3,3.72-.98,1.54-1.66,3.04-2.17,4.26-.52,1.2-.91,2.15-1.58,2.27Z"/>
              <path class="cls-5" d="M38.22,406.88c-6.2-4.31-10.37-11.32-13.88-18.05-7.14-13.88-12.26-28.7-15.76-43.92-.13-.13-.13-.27-.13-.4-2.43-7.14-4.58-14.55-4.58-21.96,0-2.29.13-4.72,1.21-6.87.67-1.21,1.75-2.16,2.83-2.96,5.25-3.5,14.28-3.1,18.73,1.48,1.62,1.75,2.43,4.31,3.1,6.74,2.83,10.64,5.12,21.56,10.37,31.12,3.23,6.33,11.45,12.66,18.32,10.64,2.83-.94,5.25-3.37,7.01-5.79,2.56-3.91,4.45-8.35,5.25-12.93.94-4.45,4.18-25.87,5.93-30.04,2.96-6.47,12.53-8.89,18.05-4.31,1.21,1.08,2.16,2.43,2.69,4.04,1.62,4.98-1.89,23.17-2.96,28.43-2.96,13.88-7.01,27.48-12.13,40.69-2.42,6.6-5.25,13.2-9.57,18.73-3.91,5.25-10.1,9.57-16.57,10.1-6.2.67-12.8-1.21-17.92-4.72Z"/>
              <path class="cls-19" d="M38.22,406.88c-6.2-4.31-10.37-11.32-13.88-18.05-7.14-13.88-12.26-28.7-15.76-43.92-.13-.13-.13-.27-.13-.4-2.43-7.14-4.58-14.55-4.58-21.96,0-2.29.13-4.72,1.21-6.87.67-1.21,1.75-2.16,2.83-2.96,5.25-3.5,14.28-3.1,18.73,1.48,1.62,1.75,2.43,4.31,3.1,6.74,2.83,10.64,5.12,21.56,10.37,31.12,3.23,6.33,11.45,12.66,18.32,10.64,2.83-.94,5.25-3.37,7.01-5.79,2.56-3.91,4.45-8.35,5.25-12.93.94-4.45,4.18-25.87,5.93-30.04,2.96-6.47,12.53-8.89,18.05-4.31,1.21,1.08,2.16,2.43,2.69,4.04,1.62,4.98-1.89,23.17-2.96,28.43-2.96,13.88-7.01,27.48-12.13,40.69-2.42,6.6-5.25,13.2-9.57,18.73-3.91,5.25-10.1,9.57-16.57,10.1-6.2.67-12.8-1.21-17.92-4.72Z"/>
              <path class="cls-14" d="M25.82,81.7c.08.67-.82,1.34-2.07,2.21-1.26.86-2.86,1.99-4.44,3.44-1.58,1.47-2.82,2.97-3.78,4.16-.96,1.17-1.7,2.02-2.37,1.89-.62-.12-1.04-1.32-.72-3.21.16-.94.54-2.01,1.13-3.12.61-1.09,1.45-2.21,2.52-3.2,1.07-.98,2.25-1.73,3.39-2.26,1.15-.51,2.25-.8,3.2-.88,1.91-.18,3.07.34,3.14.97Z"/>
              <path class="cls-14" d="M84,140.36c-.67.04-1.28-.79-1.96-1.99-.67-1.21-1.44-2.79-2.37-4.5-.93-1.7-1.85-3.2-2.51-4.42-.65-1.22-1.02-2.19-.62-2.73.37-.52,1.5-.48,2.95.31,1.44.78,3.14,2.37,4.34,4.56,1.2,2.19,1.62,4.48,1.5,6.11-.12,1.65-.69,2.62-1.33,2.65Z"/>
              <path class="cls-14" d="M101.34,82.47c.34,1.27-1.2,2.78-3.32,3.67-2.13.88-4.28.89-4.94-.24-.66-1.12.67-3.12,3.12-4.14,2.45-1.02,4.8-.55,5.13.71Z"/>
              <path class="cls-14" d="M158.71,86.5c-.1.67-.83,1.14-1.58,1.71-.78.57-1.66,1.27-2.55,2.17-.87.92-1.55,1.82-2.09,2.62-.55.78-1,1.52-1.66,1.64-.61.12-1.43-.59-1.65-2.14-.12-.77-.02-1.69.3-2.66.34-.95.9-1.92,1.7-2.76.81-.83,1.77-1.42,2.7-1.79.95-.34,1.88-.47,2.65-.38,1.56.17,2.3.97,2.19,1.58Z"/>
              <path class="cls-14" d="M133.98,139.2c.06-.67,1.46-1.07,3.47-1.42,2.01-.37,4.58-.78,6.35-2.19.93-.72,1.91-1.85,2.93-2.85,1-.99,1.95-1.83,2.8-2.5,1.7-1.33,3.01-1.94,3.5-1.52s.1,1.81-.95,3.7c-.53.94-1.21,2.02-2.03,3.16-.82,1.1-1.72,2.45-3.33,3.75-1.65,1.3-3.6,1.88-5.22,2.06-1.64.16-3.03,0-4.15-.25-2.22-.52-3.43-1.29-3.37-1.93Z"/>
              <path class="cls-14" d="M238.49,96.07c-.23.2-.68.23-1.21-.18-.52-.39-1.06-1.3-1.17-2.42-.28-2.27.89-4.84,2.27-6.94,1.43-2.24,3.53-4.15,5.54-4.73.99-.31,1.86-.28,2.42-.13.58.18.87.46.9.79.05.67-.82,1.29-1.68,2.27-.89.97-1.95,2.46-3.21,4.41-1.35,2.04-2.41,3.55-2.89,4.6-.26.52-.41.92-.52,1.34-.12.41-.18.79-.44,1.01Z"/>
              <path class="cls-14" d="M284.23,80.62c.2.64-.43,1.43-1.4,2.36-.98.93-2.29,2.03-3.7,3.28-1.4,1.26-2.63,2.45-3.66,3.32-1.03.86-1.89,1.4-2.5,1.13-.59-.26-.79-1.34-.36-2.88.42-1.53,1.55-3.48,3.35-5.1,1.8-1.61,3.86-2.53,5.43-2.78,1.58-.26,2.64.06,2.83.67Z"/>
              <path class="cls-14" d="M345.46,139.81c-.67.05-1.3-.8-2.04-2.01-.73-1.22-1.61-2.82-2.7-4.49-1.1-1.67-2.21-3.11-3.04-4.27-.82-1.16-1.34-2.08-1.03-2.67.3-.56,1.46-.66,3.06,0,1.58.65,3.53,2.15,4.97,4.34,1.44,2.2,2.03,4.58,1.99,6.29-.03,1.73-.58,2.76-1.22,2.81Z"/>
              <path class="cls-14" d="M355.82,95.1c-.62.07-1.38-.83-1.55-2.58-.09-.87.03-1.9.36-3,.35-1.09.93-2.22,1.76-3.25.84-1.02,1.84-1.82,2.83-2.38,1.01-.54,2-.87,2.87-.95,1.74-.19,2.79.37,2.84.99.07.67-.7,1.32-1.64,2.14-.96.82-2.12,1.87-3.23,3.2-1.09,1.35-1.88,2.7-2.49,3.81-.61,1.09-1.09,1.97-1.76,2.04Z"/>
              <path class="cls-14" d="M417.23,98.05c-.63.07-1.36-.71-1.68-2.22-.33-1.49-.14-3.68.9-5.77,1.04-2.09,2.68-3.55,4.06-4.19,1.4-.65,2.46-.54,2.79,0,.34.57-.01,1.45-.56,2.51-.56,1.06-1.31,2.34-2.04,3.79-.72,1.46-1.29,2.83-1.8,3.91-.51,1.08-1,1.89-1.66,1.96Z"/>
              <path class="cls-14" d="M395.57,141.48c.03-.68,1.25-1.18,3.01-1.85,1.77-.66,4.09-1.55,6.5-2.85,2.4-1.31,4.41-2.77,5.93-3.89,1.52-1.11,2.61-1.87,3.19-1.52.54.32.44,1.76-.65,3.71-.53.97-1.34,2.02-2.38,3.05-1.05,1.02-2.34,2.01-3.83,2.82-1.49.8-3.03,1.34-4.45,1.67-1.43.3-2.75.41-3.86.33-2.22-.15-3.49-.85-3.46-1.48Z"/>
              <path class="cls-14" d="M448.35,97.93c-.57.23-1.58-.48-2.12-2.24-.27-.87-.35-1.96-.2-3.15.18-1.18.61-2.44,1.32-3.62.73-1.16,1.67-2.11,2.65-2.8,1-.66,2.01-1.09,2.91-1.23,1.81-.3,2.9.28,2.95.9.07.68-.71,1.31-1.6,2.17-.46.42-.93.93-1.43,1.49-.48.59-.98,1.23-1.44,1.96-.44.74-.8,1.47-1.11,2.16-.28.7-.53,1.35-.7,1.95-.37,1.17-.6,2.15-1.23,2.4Z"/>
              <path class="cls-14" d="M506.91,97.55c-.57.24-1.56-.4-2.19-2.02-.32-.8-.49-1.82-.46-2.96.05-1.13.32-2.37.85-3.56.55-1.19,1.31-2.2,2.13-2.98.84-.77,1.72-1.31,2.53-1.6,1.64-.59,2.77-.27,2.96.33.22.64-.36,1.43-1.05,2.43-.71,1-1.54,2.26-2.25,3.79-.68,1.53-1.09,2.99-1.38,4.18-.3,1.18-.51,2.14-1.14,2.39Z"/>
              <path class="cls-14" d="M13.5,212.42c-.31.11-.68-.03-1.1-.46-.37-.44-.79-1.21-.92-2.23-.15-1.01-.05-2.23.3-3.45.35-1.22.95-2.42,1.67-3.55.75-1.14,1.45-2.03,2.37-2.95.89-.87,1.92-1.57,2.99-1.92,1.07-.37,2.16-.25,2.73.11.59.35.71.79.6,1.07-.12.32-.46.5-.77.76-.32.25-.59.55-.94.99-.35.44-.79,1.04-1.28,1.81-.53.84-1.11,1.74-1.71,2.69-1.25,1.91-2.12,3.46-2.61,4.66-.53,1.18-.7,2.22-1.33,2.47Z"/>
              <path class="cls-14" d="M84.37,201.44c-.21.63-.77,1.06-1.27,1.46-.52.39-1.04.73-1.65,1.01-.6.29-1.19.48-1.83.63-.63.14-1.32.29-1.94.06-.6-.22-1.01-.95-.79-2.01.2-1.04,1.1-2.3,2.53-2.97,1.42-.68,2.97-.58,3.9-.07.96.51,1.26,1.28,1.05,1.88Z"/>
              <path class="cls-14" d="M179.83,244.95c.61.16.91,1.49.43,3.5-.24,1-.71,2.14-1.4,3.31-.71,1.16-1.65,2.34-2.81,3.41-1.17,1.05-2.44,1.87-3.67,2.46-1.24.57-2.41.93-3.43,1.06-2.05.29-3.34-.15-3.44-.77-.12-.67.87-1.4,2.27-2.37,1.42-.97,3.25-2.25,5.08-3.89,1.82-1.66,3.27-3.36,4.37-4.67,1.11-1.3,1.94-2.21,2.59-2.03Z"/>
              <path class="cls-14" d="M220.02,199.58c-.14.66-1.18,1.01-2.55,1.48-1.38.45-3.12,1.08-4.91,2.06-1.78.99-3.24,2.12-4.37,3.05-1.12.91-1.97,1.6-2.61,1.36-.59-.21-.83-1.45-.17-3.23.32-.89.9-1.86,1.71-2.8.83-.93,1.89-1.82,3.15-2.52,1.27-.69,2.59-1.11,3.82-1.31,1.23-.18,2.37-.15,3.29.05,1.86.39,2.78,1.27,2.64,1.88Z"/>
              <path class="cls-14" d="M281.7,264.88c-.62.24-1.63-.83-2.81-2.63-1.19-1.8-2.54-4.31-4.23-6.73-1.68-2.4-3.52-4.25-5.01-5.48-1.47-1.25-2.62-2-2.5-2.67.09-.61,1.67-1.04,4.05-.31,2.36.7,5.26,2.72,7.35,5.73,2.08,2.99,3.04,6.03,3.47,8.21.41,2.2.31,3.65-.3,3.88Z"/>
              <path class="cls-14" d="M20.47,166.19c-.59.26-1.66-.57-2.84-2.31-.58-.88-1.19-2-1.68-3.39-.48-1.38-.81-3.06-.73-4.89.21-3.88,2.56-6.83,4.85-7.91,1.14-.54,2.2-.65,2.89-.51.7.14,1.04.45,1.06.76.03.69-1.07,1.25-2,2.47-.49.59-.95,1.38-1.34,2.3-.38.93-.66,2.02-.72,3.12-.12,2.39.46,4.85.78,6.77.33,1.93.34,3.3-.27,3.57Z"/>
              <path class="cls-14" d="M280.14,161.36c-.51.37-1.59,0-2.48-1.39-.88-1.35-1.4-3.82-.39-6.31,1.02-2.49,3.12-3.89,4.69-4.24,1.62-.38,2.64.12,2.75.74.13.66-.48,1.35-1.14,2.2-.67.85-1.43,1.9-1.92,3.09-.48,1.19-.68,2.47-.79,3.55-.13,1.07-.18,1.99-.73,2.37Z"/>
              <path class="cls-14" d="M208.66,279.01c-.64.1-1.39-.64-1.95-2.09-.28-.73-.5-1.65-.53-2.74-.04-1.09.12-2.38.66-3.66,1.17-2.75,3.69-4.17,5.63-4.23.97-.04,1.75.22,2.18.57.44.35.57.72.48,1.03-.21.64-1.06.97-1.78,1.63-.73.62-1.64,1.64-2.14,2.84-.57,1.34-.84,2.96-1.15,4.28-.31,1.31-.74,2.27-1.39,2.37Z"/>
              <path class="cls-14" d="M10.51,332.46c-.57.3-1.63-.34-2.75-1.87-1.09-1.5-2.31-4.06-2.18-7.3.15-3.33,1.98-6.01,3.84-7.14.93-.58,1.8-.8,2.42-.78.63.02.99.24,1.09.54.2.65-.56,1.45-1.2,2.67-.66,1.19-1.32,2.95-1.42,4.92-.09,2.06.31,4.13.54,5.78.23,1.65.25,2.86-.34,3.17Z"/>
              <path class="cls-14" d="M74.93,356.63c.55.33.42,1.77-.4,3.83-.83,2.04-2.41,4.82-5.15,7.21-2.77,2.41-6.14,3.54-8.59,3.5-2.48-.02-3.82-.95-3.71-1.56.1-.67,1.41-1,3.13-1.74,1.73-.72,3.94-1.94,6.07-3.79,2.15-1.87,3.95-3.97,5.44-5.46,1.48-1.49,2.65-2.34,3.21-2Z"/>
              <path class="cls-14" d="M196.17,335.37c-.65.02-1.3-1.01-1.71-2.81-.39-1.78-.58-4.45.42-7.39,1.02-2.98,3.19-5.16,5.14-5.98.97-.42,1.83-.54,2.44-.46.61.08.96.32,1.04.63.16.66-.67,1.41-1.53,2.56-.89,1.13-1.9,2.77-2.6,4.79-.71,2.07-1.09,4.23-1.55,5.88-.44,1.65-.98,2.75-1.64,2.77Z"/>
              <path class="cls-14" d="M266.73,334.39c-.61-.18-.89-1.46-.43-3.4.45-1.92,1.77-4.42,3.98-6.5,2.21-2.08,4.79-3.24,6.73-3.58,1.96-.35,3.22.02,3.36.63.16.66-.75,1.44-2.06,2.46-1.32,1.01-3.05,2.32-4.79,3.94-1.73,1.64-3.13,3.28-4.23,4.54-1.09,1.25-1.93,2.1-2.58,1.91Z"/>
              <path class="cls-14" d="M311.81,361.56c.58.27.69,1.48.12,3.2-.56,1.7-1.87,3.86-3.89,5.71-2.02,1.85-4.28,2.97-6.03,3.38-1.75.42-2.95.2-3.17-.4-.24-.62.48-1.5,1.62-2.58,1.15-1.07,2.71-2.39,4.37-3.9,1.65-1.52,3.09-2.96,4.26-4.02,1.17-1.04,2.1-1.68,2.71-1.4Z"/>
              <path class="cls-14" d="M260.85,344.6c-.65.05-1.28-.22-1.69-.82-.41-.59-.57-1.51-.3-2.43.28-.92.92-1.6,1.59-1.86.68-.28,1.35-.15,1.86.25.52.41.82.98,1,1.5.18.53.23,1.02.09,1.48-.14.46-.45.84-.89,1.18-.44.34-1.01.65-1.66.7Z"/>
              <path class="cls-14" d="M351.61,335.24c-.55-.33-.39-1.78.55-3.78.93-2,2.7-4.52,5.17-6.8,2.47-2.28,5.13-3.83,7.2-4.6,2.07-.77,3.53-.81,3.82-.24.57,1.21-3.43,4.25-7.8,8.33-4.42,4.03-7.77,7.77-8.93,7.1Z"/>
              <path class="cls-14" d="M385.84,359.24c-.07.66-.5,1.2-.97,1.66-.48.46-1,.83-1.62,1.1-.62.28-1.25.42-1.91.46-.65.04-1.34-.01-1.88-.4-.52-.38-.76-1.11-.47-2,.27-.88,1.11-1.86,2.33-2.41,1.22-.54,2.51-.5,3.35-.11.85.39,1.24,1.05,1.16,1.69Z"/>
              <path class="cls-14" d="M415.53,366.47c-1.08.75-2.83.11-4.15-1.22-1.31-1.34-1.94-3.09-1.18-4.16.75-1.07,2.91-.84,4.55.82,1.64,1.66,1.86,3.82.78,4.56Z"/>
              <path class="cls-14" d="M425.98,332.49c-.65.03-1.32-.91-1.8-2.57-.46-1.64-.77-4.16.09-7,.9-2.91,3.03-5.01,4.96-5.72.96-.37,1.8-.43,2.38-.3.58.13.89.4.95.71.1.67-.7,1.34-1.48,2.38-.8,1.02-1.7,2.51-2.28,4.34-.59,1.9-.87,3.93-1.26,5.5-.38,1.57-.9,2.62-1.55,2.66Z"/>
              <path class="cls-14" d="M482.18,320.76c-.66.02-1.26-.36-1.81-.75-.55-.41-1.05-.85-1.51-1.4-.47-.54-.84-1.1-1.15-1.71-.3-.6-.58-1.25-.46-1.9.12-.63.75-1.15,1.8-1.17,1.03-.03,2.42.53,3.41,1.69,1,1.16,1.34,2.62,1.15,3.63-.18,1.04-.79,1.58-1.43,1.6Z"/>
              <path class="cls-14" d="M486.63,380.53c-.61.26-1.38-.06-2.21-.52-.84-.47-1.78-1.07-2.82-1.7-1.05-.63-2.02-1.18-2.82-1.71-.79-.53-1.43-1.06-1.49-1.72-.06-.63.6-1.33,1.9-1.61,1.28-.29,3.16-.05,4.86.98,1.7,1.03,2.78,2.58,3.12,3.85.35,1.28.05,2.18-.54,2.43Z"/>
              <g class="cls-12">
                <path class="cls-11" d="M81.87,98.98c.47.42.27,1.6-.81,3.01-1.07,1.4-3.1,2.92-5.69,3.7-2.59.78-5.12.63-6.78.05-1.68-.57-2.5-1.45-2.34-2.06.17-.65,1.2-.97,2.6-1.28,1.41-.31,3.22-.67,5.16-1.25,1.94-.59,3.64-1.29,4.99-1.81,1.34-.51,2.38-.81,2.88-.36Z"/>
              </g>
              <g class="cls-12">
                <path class="cls-11" d="M84.41,153.93c.62-.06,1.4,1.16,1.25,3.32-.13,2.13-1.39,4.94-3.71,7.08-2.3,2.11-4.79,3.16-6.59,3.64-1.82.48-3.06.42-3.36-.16-.3-.59.45-1.61,1.78-2.8,1.33-1.2,3.21-2.56,4.93-4.16,1.69-1.57,2.92-3.22,3.72-4.53.82-1.3,1.3-2.35,1.98-2.39Z"/>
              </g>
              <g class="cls-12">
                <path class="cls-11" d="M162.63,152.02c.56.31.45,1.78-.5,3.84-.94,2.05-2.8,4.62-5.45,6.83-2.66,2.2-5.54,3.55-7.72,4.1-2.2.55-3.66.38-3.87-.22-.39-1.29,4.02-3.69,8.56-7.52,4.6-3.76,7.78-7.65,8.98-7.02Z"/>
              </g>
              <g class="cls-12">
                <path class="cls-11" d="M207.18,160.25c.62.08,1.15,1.07.94,2.7-.1.81-.42,1.73-.95,2.66-.55.91-1.32,1.82-2.29,2.58-.98.74-2.06,1.25-3.09,1.54-1.04.27-2.01.34-2.81.23-1.63-.22-2.44-.99-2.36-1.61.08-.67.9-1.14,1.89-1.71,1.01-.56,2.23-1.27,3.48-2.21,1.23-.96,2.23-1.95,3.04-2.78.81-.81,1.48-1.48,2.14-1.39Z"/>
              </g>
              <g class="cls-12">
                <path class="cls-11" d="M247.22,170.9c-.17-.65.59-1.43,1.73-2.39,1.15-.95,2.66-2.12,4.23-3.52,1.56-1.41,2.89-2.78,3.96-3.82,1.07-1.02,1.94-1.7,2.56-1.46.59.23.82,1.4.35,3.12-.46,1.7-1.7,3.89-3.71,5.69-2.01,1.8-4.32,2.8-6.06,3.07-1.76.28-2.9-.08-3.06-.69Z"/>
              </g>
              <g class="cls-12">
                <path class="cls-11" d="M330.9,169.95c.11-.32.47-.51.87-.75.41-.25.87-.55,1.42-1,.55-.45,1.21-1.08,1.97-1.87.78-.82,1.75-1.76,2.74-2.69,3.98-3.73,7.56-6.56,8.6-5.74,1.03.79-1.08,5.19-5.35,9.2-1.07,1.01-2.12,1.85-3.2,2.61-1.12.77-2.32,1.37-3.49,1.6-1.16.25-2.25.09-2.86-.27-.62-.36-.8-.79-.7-1.09Z"/>
              </g>
              <g class="cls-12">
                <path class="cls-11" d="M333.8,106.75c-.2-.63.18-1.36.74-2.12.57-.76,1.32-1.59,2.16-2.47.83-.89,1.61-1.68,2.35-2.3.73-.6,1.44-1.02,2.08-.86.62.16,1.06.96.99,2.2-.06,1.23-.7,2.86-1.97,4.21-1.27,1.35-2.87,2.07-4.09,2.2-1.24.14-2.06-.26-2.25-.87Z"/>
              </g>
              <g class="cls-12">
                <path class="cls-11" d="M410.11,164.54c-.26-.61.4-1.52,1.47-2.64,1.12-1.14,2.52-2.55,4.07-4.11,1.49-1.62,2.84-3.08,3.92-4.25,1.07-1.12,1.95-1.83,2.57-1.59.6.22.82,1.42.39,3.16-.42,1.73-1.57,3.98-3.45,5.96-1.89,1.97-4.08,3.22-5.79,3.72-1.72.51-2.92.35-3.18-.24Z"/>
              </g>
              <g class="cls-12">
                <path class="cls-11" d="M472.97,165.67c.55.35.81,1.08.6,2.01-.2.92-.9,2-2.02,2.76-1.12.76-2.38,1.02-3.31.87-.94-.15-1.53-.66-1.65-1.29-.13-.65.17-1.3.59-1.89.43-.59,1-1.14,1.7-1.61.69-.47,1.4-.8,2.12-.99.71-.18,1.42-.21,1.98.14Z"/>
              </g>
              <g class="cls-12">
                <path class="cls-11" d="M527.39,152.98c.63.05,1.16,1.44,1.01,3.73-.07,1.14-.34,2.47-.84,3.9-.52,1.42-1.26,2.92-2.26,4.35-1.01,1.42-2.18,2.63-3.33,3.59-1.18.95-2.34,1.66-3.39,2.1-2.1.91-3.59.88-3.85.31-.29-.61.62-1.64,1.95-3.07,1.35-1.43,3.1-3.34,4.75-5.67,1.63-2.34,2.84-4.63,3.73-6.38.9-1.74,1.56-2.94,2.23-2.87Z"/>
              </g>
              <g class="cls-12">
                <path class="cls-11" d="M31.8,290.64c-.12-.66.45-1.35,1.11-2.15.68-.8,1.47-1.76,2.23-2.92.75-1.17,1.3-2.29,1.76-3.23.46-.93.86-1.73,1.51-1.89.61-.16,1.45.51,1.84,2.01.2.74.23,1.66.07,2.66-.18.99-.57,2.04-1.2,3.02-.64.97-1.44,1.76-2.27,2.33-.84.55-1.7.9-2.46,1.02-1.53.26-2.49-.24-2.59-.86Z"/>
              </g>
              <g class="cls-12">
                <path class="cls-11" d="M82.25,285.22c.61.17,1.07.93.79,2.1-.26,1.15-1.38,2.5-3.03,3.08-1.64.59-3.36.24-4.29-.5-.95-.74-1.07-1.63-.7-2.14.38-.54,1.05-.8,1.62-1.09.59-.28,1.14-.53,1.79-.75.64-.24,1.24-.39,1.87-.54.63-.13,1.31-.36,1.95-.17Z"/>
              </g>
              <g class="cls-12">
                <path class="cls-11" d="M117.47,280.89c.62,0,1.27.95,1.16,2.64-.05.83-.34,1.79-.86,2.76-.54.95-1.32,1.89-2.31,2.66-1.01.75-2.12,1.25-3.18,1.51-1.07.24-2.07.26-2.89.08-1.65-.35-2.39-1.23-2.23-1.83.16-.66,1.02-1.03,2.01-1.52,1.01-.48,2.2-1.12,3.41-2.03,1.2-.93,2.14-1.9,2.87-2.74.74-.82,1.33-1.55,2-1.53Z"/>
              </g>
              <g class="cls-12">
                <path class="cls-11" d="M184.74,276.73c.47.42-.12,2.04-1.83,4.1-1.7,2.06-4.59,4.48-8.3,6.24-3.71,1.75-7.42,2.47-10.08,2.48-2.68.02-4.31-.55-4.33-1.18-.03-1.36,5.92-2.44,12.39-5.58,6.52-3.02,11.12-6.94,12.16-6.06Z"/>
              </g>
              <g class="cls-12">
                <path class="cls-11" d="M272.8,279.19c.48.43.13,1.75-1.09,3.44-1.2,1.68-3.32,3.68-6.08,5.23-2.76,1.54-5.56,2.31-7.63,2.46-2.08.16-3.39-.24-3.51-.87-.12-.66.93-1.43,2.56-2.35,1.69-.91,3.86-2.08,6.25-3.38,2.35-1.37,4.48-2.61,6.14-3.58,1.64-.91,2.84-1.41,3.34-.96Z"/>
              </g>
              <g class="cls-12">
                <path class="cls-11" d="M273.07,219.15c.28.17.41.54.34,1.15-.09.58-.42,1.39-1.11,2.16-.67.78-1.67,1.52-2.85,2.06-1.17.54-2.51.89-3.87,1.07-1.37.18-2.63.18-3.77.11-1.24-.08-2.44-.34-3.43-.86-1-.5-1.72-1.37-1.88-2.05-.16-.69.08-1.09.37-1.19.31-.12.68,0,1.08.05.41.04.8.03,1.39-.02.59-.05,1.38-.14,2.32-.3,1.03-.16,2.18-.29,3.3-.44,2.28-.29,4.06-.66,5.32-1.1,1.29-.39,2.19-.96,2.79-.63Z"/>
              </g>
              <g class="cls-12">
                <path class="cls-11" d="M72,392.09c.46.46.11,1.66-.83,3.21-.97,1.56-2.41,3.45-4.48,5.42-1.05.97-2.18,1.83-3.34,2.47-1.16.64-2.35,1.05-3.39,1.2-2.12.31-3.38-.38-3.37-1,0-.68.99-1.23,2.21-2.14,1.25-.89,2.8-2.25,4.66-4,1.84-1.75,3.79-3.39,5.33-4.31,1.55-.95,2.74-1.3,3.21-.84Z"/>
              </g>
              <g class="cls-12">
                <path class="cls-11" d="M308.99,391.75c.43.46.04,1.7-1.31,3.11-1.33,1.4-3.68,2.87-6.58,3.56-2.9.68-5.66.41-7.47-.25-1.84-.66-2.74-1.59-2.56-2.19.19-.65,1.34-.9,2.95-1.14,1.62-.23,3.72-.51,6-1.03,2.27-.54,4.27-1.23,5.83-1.75,1.55-.5,2.69-.79,3.15-.3Z"/>
              </g>
              <g class="cls-12">
                <path class="cls-11" d="M411.36,394.47c.57.31.57,1.57.03,3.35-.56,1.78-1.66,4.13-3.59,6.4-.97,1.12-2.05,2.1-3.15,2.84-1.13.72-2.23,1.25-3.24,1.48-2.01.51-3.31.11-3.44-.5-.15-.66.75-1.43,1.94-2.5.61-.51,1.27-1.18,2-1.89.72-.74,1.48-1.58,2.29-2.52,1.59-1.87,3.05-3.74,4.3-5.01,1.25-1.28,2.29-1.97,2.86-1.65Z"/>
              </g>
              <g class="cls-12">
                <path class="cls-11" d="M462.63,361.02c-.28-.6-.16-1.3.13-1.97.29-.67.75-1.32,1.36-1.91.6-.59,1.27-1.02,1.95-1.29.68-.26,1.38-.36,1.97-.06.58.29.92.97.85,1.88-.06.9-.56,2-1.47,2.88-.92.88-2.03,1.35-2.93,1.38-.91.04-1.58-.32-1.85-.91Z"/>
              </g>
              <g class="cls-12">
                <path class="cls-11" d="M476.82,402.05c-.44-1.25,1.72-3.15,4.38-5.03,2.68-1.86,5.2-3.23,6.23-2.39.49.43.45,1.39-.15,2.58-.59,1.18-1.76,2.57-3.36,3.69-1.61,1.12-3.31,1.75-4.62,1.89-1.32.15-2.24-.14-2.48-.75Z"/>
              </g>
            </g>
          </g>
          <g>
            <path class="cls-13" d="M569.28,125.67c0,.58-.48,1.06-1.06,1.06h-1.38v1.54c0,.99-.08,1.5-.43,2.24-.74,1.47-1.58,2.48-3.36,4.55-.38.45-1.12.42-1.54,0-.4-.42-.34-1.07.05-1.52,1.25-1.5,1.89-2.22,2.67-3.41.46-.72.48-1.06.5-2.06v-1.33h-3.17v2.06c0,.59-.46,1.06-1.06,1.06s-1.06-.46-1.06-1.06v-2.06h-1.2c-.59,0-1.06-.48-1.06-1.06s.46-1.06,1.06-1.06h1.2v-1.47c0-.58.48-1.06,1.06-1.06s1.06.48,1.06,1.06v1.47h3.17v-1.54c0-.58.48-1.06,1.06-1.06s1.07.48,1.07,1.06l-.02,1.54h1.38c.58,0,1.06.46,1.06,1.06Z"/>
            <path class="cls-13" d="M571.91,125.69c-.51-.29-.69-.93-.4-1.44s.93-.69,1.44-.4l1.86,1.02c.5.29.69.94.4,1.44-.29.51-.94.69-1.44.42l-1.86-1.04ZM581.56,125.82c-.5,2.06-1.42,3.86-2.53,5.25-1.22,1.57-3.19,2.85-5.79,3.38-.56.11-1.2-.24-1.33-.82-.13-.64.34-1.12.86-1.25,2.32-.56,3.7-1.44,4.59-2.58,1.02-1.31,1.68-2.69,2.23-4.64.14-.56.77-.88,1.31-.7.56.18.82.75.66,1.36Z"/>
            <path class="cls-13" d="M595.09,125.67c0,.58-.48,1.06-1.06,1.06h-1.38v1.54c0,.99-.08,1.5-.43,2.24-.74,1.47-1.58,2.48-3.36,4.55-.38.45-1.12.42-1.54,0-.4-.42-.34-1.07.05-1.52,1.25-1.5,1.89-2.22,2.67-3.41.46-.72.48-1.06.5-2.06v-1.33h-3.17v2.06c0,.59-.46,1.06-1.06,1.06s-1.06-.46-1.06-1.06v-2.06h-1.2c-.59,0-1.06-.48-1.06-1.06s.46-1.06,1.06-1.06h1.2v-1.47c0-.58.48-1.06,1.06-1.06s1.06.48,1.06,1.06v1.47h3.17v-1.54c0-.58.48-1.06,1.06-1.06s1.07.48,1.07,1.06l-.02,1.54h1.38c.58,0,1.06.46,1.06,1.06Z"/>
            <path class="cls-13" d="M597.72,125.69c-.51-.29-.69-.93-.4-1.44s.93-.69,1.44-.4l1.86,1.02c.5.29.69.94.4,1.44-.29.51-.94.69-1.44.42l-1.86-1.04ZM607.38,125.82c-.5,2.06-1.42,3.86-2.53,5.25-1.22,1.57-3.19,2.85-5.79,3.38-.56.11-1.2-.24-1.33-.82-.13-.64.34-1.12.86-1.25,2.32-.56,3.7-1.44,4.59-2.58,1.02-1.31,1.68-2.69,2.23-4.64.14-.56.77-.88,1.31-.7.56.18.82.75.66,1.36Z"/>
            <path class="cls-13" d="M614.74,124.17h2.91c.59,0,1.06.48,1.06,1.06s-.46,1.07-1.06,1.07h-2.56l.4,1.97h2.42c.58,0,1.06.46,1.06,1.06s-.48,1.06-1.06,1.06h-2.03l.86,4.05c.1.58-.29,1.12-.86,1.22-.58.11-1.12-.27-1.22-.85l-.88-4.42h-3.55c-.59,0-1.06-.48-1.06-1.06s.46-1.06,1.06-1.06h3.17l-.4-1.97h-2.42c-.58,0-1.06-.48-1.06-1.07s.48-1.06,1.06-1.06h2.02l-.27-1.28c-.11-.58.27-1.12.85-1.23.58-.1,1.14.29,1.23.86l.34,1.65Z"/>
            <path class="cls-13" d="M621.75,128.06v-1.33c0-.54.43-.96.96-.96s.96.42.96.96v1.33c0,.53-.43.96-.96.96s-.96-.43-.96-.96ZM624.72,133.16c1.33-1.33,2.34-2.24,3.23-3.94.19-.38.19-.67.21-1.04v-1.68c0-.53.43-.96.96-.96.26,0,.5.1.67.27.18.19.29.43.29.69v1.84c0,.59-.16,1.26-.48,1.79-.94,1.63-2.26,3.25-3.79,4.64-.4.37-1.07.34-1.42-.05-.3-.32-.4-1.02.34-1.57ZM624.52,128.06v-1.33c0-.54.43-.96.96-.96s.96.42.96.96v1.33c0,.53-.43.96-.96.96s-.96-.43-.96-.96Z"/>
            <path class="cls-13" d="M631.44,135.02c-.4-.43-.37-1.12.05-1.52,2.29-2.24,4.24-4.26,5.57-6.07.56-.8.56-1.42.54-2.46h-4.23c-.59,0-1.06-.46-1.06-1.06s.46-1.06,1.06-1.06h5.15c.64,0,1.22.53,1.15,1.26,0,2.37.05,3.12-.82,4.37,0,0-.3.37-.78.94l3.86,4.03c.4.43.35,1.1-.06,1.5-.43.4-1.09.35-1.52-.06l-3.63-3.91c-1.17,1.33-2.55,2.91-3.79,4.07-.43.4-1.1.38-1.49-.05ZM641.77,122.95v.88c0,.43-.35.78-.8.78s-.78-.35-.78-.78v-.88c0-.45.35-.8.78-.8s.8.35.8.8ZM643.78,122.95v.88c0,.43-.35.78-.8.78s-.78-.35-.78-.78v-.88c0-.45.35-.8.78-.8s.8.35.8.8Z"/>
            <path class="cls-13" d="M571.95,150.67v-2.61c0-.56.5-1.02,1.06-1.06h2.87v-1.12c0-.59.48-1.06,1.07-1.06s1.06.46,1.06,1.06v1.12h2.64c.54,0,1.02.42,1.07.96v2.29c0,.5-.08,1.25-.22,1.68-.67,1.86-2.18,4.21-4.4,6.34-.42.4-1.2.34-1.58-.1-.29-.32-.35-.93.16-1.49,2.27-2.42,3.35-3.91,3.83-5.36.1-.29.11-.7.11-1.01v-1.2h-5.54l.02,1.57c-.02.58-.48,1.06-1.07,1.06s-1.07-.48-1.06-1.07ZM581.88,145.01v.88c0,.43-.35.8-.78.8s-.8-.37-.8-.8v-.88c0-.43.35-.8.8-.8s.78.37.78.8ZM583.9,145.01v.88c0,.43-.35.8-.8.8s-.78-.37-.78-.8v-.88c0-.43.35-.8.78-.8s.8.37.8.8Z"/>
            <path class="cls-13" d="M592,148.35c.05.3-.13.61-.22.74-.43.54-.91.9-1.55,1.36v6.67c0,.53-.43.96-.96.96s-.96-.43-.96-.96v-5.41c-.74.43-1.68,1.01-2.93,1.65-.46.24-1.07.03-1.31-.43-.22-.48-.02-1.04.46-1.3,2.93-1.54,4.64-2.72,5.75-3.75.4-.37.98-.46,1.39-.16.19.14.3.37.34.62Z"/>
            <path class="cls-13" d="M604.69,153.54c-1.78,2.64-3.47,3.57-5.01,3.92-.83.18-1.34.24-2.46.26-.69-.03-.99-.51-.99-1.09v-9.99c0-.59.48-1.06,1.06-1.06s1.07.46,1.07,1.06v8.93c.43,0,.54-.03.86-.11,1.07-.26,2.45-1.26,3.89-3.33.34-.48,1.06-.56,1.5-.18.43.38.4,1.1.08,1.58Z"/>
            <path class="cls-13" d="M607.22,151.06v-1.33c0-.54.43-.96.96-.96s.96.42.96.96v1.33c0,.53-.43.96-.96.96s-.96-.43-.96-.96ZM610.2,156.16c1.33-1.33,2.34-2.24,3.23-3.94.19-.38.19-.67.21-1.04v-1.68c0-.53.43-.96.96-.96.26,0,.5.1.67.27.18.19.29.43.29.69v1.84c0,.59-.16,1.26-.48,1.79-.94,1.63-2.26,3.25-3.79,4.64-.4.37-1.07.34-1.42-.05-.3-.32-.4-1.02.34-1.57ZM609.99,151.06v-1.33c0-.54.43-.96.96-.96s.96.42.96.96v1.33c0,.53-.43.96-.96.96s-.96-.43-.96-.96Z"/>
            <path class="cls-13" d="M621.9,146.83c0,.58-.46,1.06-1.06,1.06h-1.38c-.58,0-1.06-.48-1.06-1.06s.48-1.07,1.06-1.07h1.38c.59,0,1.06.48,1.06,1.07ZM621.9,150.23c0,.59-.46,1.06-1.06,1.06h-1.38c-.58,0-1.06-.46-1.06-1.06s.48-1.06,1.06-1.06h1.38c.59,0,1.06.48,1.06,1.06ZM628.71,149.35c-.72,2.94-1.79,5.22-3.89,6.72-1.28.93-2.96,1.55-4.82,1.94-.83.16-1.23-.42-1.33-.86-.11-.56.3-1.1.86-1.23,1.92-.43,3.03-.8,4-1.54,1.46-1.07,2.58-2.85,3.17-5.68.13-.58.77-.88,1.33-.7.54.18.82.8.67,1.36ZM627.06,145.7v.88c0,.43-.35.8-.8.8s-.78-.37-.78-.8v-.88c0-.45.35-.8.78-.8s.8.35.8.8ZM629.07,145.7v.88c0,.43-.37.8-.8.8s-.8-.37-.8-.8v-.88c0-.45.37-.8.8-.8s.8.35.8.8Z"/>
          </g>
          <g>
            <g>
              <path class="cls-8" d="M56.62,24.05h-5.99c-1.17,10.23-2.78,19.28-4.75,27.1l-8.55-1.75c1.32-5.4,2.48-14.54,3.07-25.35l-6.14.07-.37,12.93h-9.35v-12.93h-6.28l-.15-8.69h6.43v-5.11h10.08l-.15,5.11,6.28-.07c.07-1.9.07-3.8.07-5.77l11.1.73-.44,5.04h4.97l.15,8.69Z"/>
              <path class="cls-8" d="M64.94,24.49l-.07-8.69,18.41-.07.07,8.69-18.41.07ZM72.18,43.11c10.59-7.01,17.53-13.29,26.37-24.47l7.96,6.06c-8.4,11.25-16.65,19.21-27.76,27.03l-6.57-8.62Z"/>
              <path class="cls-8" d="M153.21,24.05h-5.99c-1.17,10.23-2.78,19.28-4.75,27.1l-8.55-1.75c1.32-5.4,2.48-14.54,3.07-25.35l-6.14.07-.37,12.93h-9.35v-12.93h-6.28l-.15-8.69h6.43v-5.11h10.08l-.15,5.11,6.28-.07c.07-1.9.07-3.8.07-5.77l11.1.73-.44,5.04h4.97l.15,8.69Z"/>
              <path class="cls-8" d="M161.54,24.49l-.07-8.69,18.41-.07.07,8.69-18.41.07ZM168.77,43.11c10.59-7.01,17.53-13.29,26.37-24.47l7.96,6.06c-8.4,11.25-16.65,19.21-27.76,27.03l-6.57-8.62Z"/>
              <path class="cls-8" d="M225.26,51.37l-16.29-20.82,15.34-21.04,9.64,6.35-12.34,15.12,11.54,14.75-7.89,5.62Z"/>
              <path class="cls-8" d="M270.76,36.76l7.89,2.99c-3.14,7.52-6.72,11.03-14.75,11.03-9.28,0-14.32-7.09-13.73-16.44l.07-.66h-5.33l-.07-7.96h5.92l.22-3.94h-8.98l-.15-7.96h9.64l.22-3.51,9.71.51-.22,2.92h18.26l.15,7.96-18.92.07-.22,3.94,16.07-.07.07,7.96-16.65.07-.15,1.97c-.29,4.82,2.04,7.45,4.67,7.45,2.34,0,4.97-2.04,6.28-6.35Z"/>
              <path class="cls-8" d="M291.1,38.14c-1.68-8.33-3-17.02-3.29-25.42l8.84-.73c.29,7.3,1.02,13,1.46,17.82l3.58-.58.95,7.08-11.54,1.83ZM307.02,49.61c2.48-11.47,4.53-22.86,4.82-35.65l9.71.51c-1.24,14.54-3.29,26.95-6.06,36.52l-8.47-1.39Z"/>
              <path class="cls-8" d="M365.85,44.87c-4.24,2.99-8.04,4.38-11.25,4.38-5.26,0-9.06-3.65-11.03-9.5l-4.67,2.41-1.97,8.47-9.06-1.39,8.47-39.01,9.79,1.46-4.67,19.65,7.74-3.94c2.26,8.77,3.87,12.2,6.79,12.2,1.46,0,3.21-.88,5.48-2.34l4.38,7.6Z"/>
              <path class="cls-8" d="M394.17,43.88l.35,6.98c-2.42.47-4.67.71-6.98.71-1.77,0-3.61-.18-5.5-.41-5.68-.77-9.46-4.97-9.46-9.82,0-2.9,1.3-6.03,4.38-8.87l-5.38-10.23,7.1-2.66,4.38,8.75c3.08-1.48,6.92-2.72,11.53-3.61l1.06,7.51c-11.23,2.13-14.84,6.03-14.84,8.81,0,1.54,1.12,2.66,2.66,2.96,1.71.3,3.08.47,4.55.47,1.71,0,3.55-.24,6.15-.59Z"/>
              <path class="cls-8" d="M420.28,17.28c-1.54,2.66-3.49,5.74-5.62,8.81l3.49-.12v23.65l-7.98.12-.35-16.56-1.83,2.54-6.98-4.85c2.72-3.73,9.17-13.84,11.71-18.8l7.57,5.2ZM449.31,41.4v5.68h-7.92l-.12,5.74h-8.63l.53-26.9h-1.77c-1.06,2.42-2.25,4.79-3.43,7.1l-8.75-2.48c3.13-7.15,5.56-14.6,7.27-22.47l10.35,3.31c-.59,1.95-1.24,3.9-1.89,5.79h14.25v8.75h-7.39l-.12,5.14h7.57v6.27h-7.69l-.06,4.08h7.8Z"/>
              <path class="cls-8" d="M464.14,44.48c7.15-.77,10.7-3.37,10.7-5.5,0-1.71-2.31-3.19-6.98-3.19-2.6,0-6.03.47-10.17,1.6l-1.3-6.27c4.61-1.24,8.63-1.83,11.94-1.83,9.22,0,13.42,4.2,13.42,8.87,0,5.44-5.91,11.53-16.56,11.88l-1.06-5.56Z"/>
              <path class="cls-8" d="M502.39,52.04c-4.08-2.72-7.04-6.56-7.04-11,0-3.43,1.83-7.21,6.45-10.94l-15.49.12v-6.92l26.96.06v8.57c-6.98,2.84-9.64,5.91-9.64,8.69,0,2.42,2.07,4.73,5.08,6.56l-6.33,4.85Z"/>
              <path class="cls-8" d="M532.69,31.11c-.06,3.9-1.06,7.92-2.31,11.59,10.64,1.95,19.87,2.66,31.16,3.61l-1.71,7.45c-11.53-1.24-20.75-2.66-31.69-5.08l-1,2.48-7.27-1.36c1.66-5.2,3.96-16.5,4.85-21.82h-4.97v-7.21l13.13.06-.18,10.29ZM532.4,12.19l-.59,6.62-11.94-1.06.59-6.62,11.94,1.06ZM533.58,39.92c1-5.97,1.48-13.42,1.77-20.4h-1.71v-6.98h3.67v-4.55h5.5v4.55h3.72v6.98h-5.79c-.06,1.18-.18,2.42-.24,3.61h6.92c-.06,6.8-.65,14.72-1.48,20.75l-6.45-.65.47-5.5h1.77l.53-8.22h-2.31c-.41,3.9-.89,7.69-1.42,11.23l-4.97-.83ZM564.03,12.31v6.15h-11.06c-.18.59-.35,1.24-.59,1.89l-4.79-1.12c1.01-4.32,1.54-6.74,2.13-11.23l5.62,1.24c-.24,1.12-.41,2.13-.65,3.07h9.34ZM562.43,25.32l-2.66,5.26h4.02v4.61h-3.61v.89c0,3.43-.83,7.1-2.25,9.28l-7.33-1.66,1.24-4.49,2.42.53c.59-1.54.89-2.78.89-4.02v-.53h-6.21v-4.61h5.38l2.19-4.26h-7.21v-4.97h13.13v3.96Z"/>
              <path class="cls-8" d="M578.79,43.83l2.72-.12.29,6.74-9.64.65-1.89-28.56,7.8-.3.71,21.58ZM603.69,28.16h-5.91l.18,2.96h4.97l.12,5.79h-4.79c0,.95.06,1.95.06,3.13,1.89.12,3.25.24,4.97.59l-.95,6.03c-1.54-.47-3.07-.59-4.43-.59-.77,3.84-2.84,6.44-7.21,6.44-5.08,0-7.45-3.19-7.45-6.44,0-3.49,2.78-7.1,8.04-6.8v-2.31h-8.81l-.06-5.79h8.63l-.18-2.96h-9.17l-.06-6.03,21.94-.06.12,6.03ZM592.28,45.89c0-.83-.71-1.54-1.54-1.54s-1.54.71-1.54,1.54.71,1.54,1.54,1.54,1.54-.71,1.54-1.54ZM599.96,19.64l-4.55.65-1.36-7.69,5.08-.71.83,7.75ZM605.88,19.05l-4.43.47-.83-7.86,4.73-.41.53,7.8Z"/>
              <path class="cls-8" d="M617.17,48.56c3.78-4.08,5.97-7.51,5.97-9.82,0-2.01-1.71-3.19-5.5-3.19-1.71,0-3.9.24-6.56.77l-1.06-6.62c3.13-.59,5.91-.89,8.34-.89,9.11,0,13.19,3.84,13.19,9.05,0,4.38-2.96,9.76-8.22,14.55l-6.15-3.84ZM628.52,27.62l-15.55-2.01.89-6.68,16.02,2.37-1.36,6.33Z"/>
              <path class="cls-8" d="M639.34,42.29l-.65-22.41h8.16l-.65,22.41h-6.86ZM639.16,51.87v-6.56h7.15v6.56h-7.15Z"/>
            </g>
            <g>
              <path class="cls-8" d="M60.73,25.91h-5.99c-1.17,10.23-2.78,19.28-4.75,27.1l-8.55-1.75c1.32-5.4,2.48-14.54,3.07-25.35l-6.14.07-.37,12.93h-9.35v-12.93h-6.28l-.15-8.69h6.43v-5.11h10.08l-.15,5.11,6.28-.07c.07-1.9.07-3.8.07-5.77l11.1.73-.44,5.04h4.97l.15,8.69Z"/>
              <path class="cls-8" d="M69.06,26.35l-.07-8.69,18.41-.07.07,8.69-18.41.07ZM76.29,44.98c10.59-7.01,17.53-13.29,26.37-24.47l7.96,6.06c-8.4,11.25-16.65,19.21-27.76,27.03l-6.57-8.62Z"/>
              <path class="cls-8" d="M157.33,25.91h-5.99c-1.17,10.23-2.78,19.28-4.75,27.1l-8.55-1.75c1.32-5.4,2.48-14.54,3.07-25.35l-6.14.07-.37,12.93h-9.35v-12.93h-6.28l-.15-8.69h6.43v-5.11h10.08l-.15,5.11,6.28-.07c.07-1.9.07-3.8.07-5.77l11.1.73-.44,5.04h4.97l.15,8.69Z"/>
              <path class="cls-8" d="M165.66,26.35l-.07-8.69,18.41-.07.07,8.69-18.41.07ZM172.89,44.98c10.59-7.01,17.53-13.29,26.37-24.47l7.96,6.06c-8.4,11.25-16.65,19.21-27.76,27.03l-6.57-8.62Z"/>
              <path class="cls-8" d="M229.37,53.23l-16.29-20.82,15.34-21.04,9.64,6.35-12.34,15.12,11.54,14.75-7.89,5.62Z"/>
              <path class="cls-8" d="M274.88,38.62l7.89,2.99c-3.14,7.52-6.72,11.03-14.75,11.03-9.28,0-14.32-7.09-13.73-16.44l.07-.66h-5.33l-.07-7.96h5.92l.22-3.94h-8.98l-.15-7.96h9.64l.22-3.51,9.71.51-.22,2.92h18.26l.15,7.96-18.92.07-.22,3.94,16.07-.07.07,7.96-16.65.07-.15,1.97c-.29,4.82,2.04,7.45,4.67,7.45,2.34,0,4.97-2.04,6.28-6.35Z"/>
              <path class="cls-8" d="M295.22,40.01c-1.68-8.33-3-17.02-3.29-25.42l8.84-.73c.29,7.3,1.02,13,1.46,17.82l3.58-.58.95,7.08-11.54,1.83ZM311.14,51.48c2.48-11.47,4.53-22.86,4.82-35.65l9.71.51c-1.24,14.54-3.29,26.95-6.06,36.52l-8.47-1.39Z"/>
              <path class="cls-8" d="M369.96,46.73c-4.24,2.99-8.04,4.38-11.25,4.38-5.26,0-9.06-3.65-11.03-9.5l-4.67,2.41-1.97,8.47-9.06-1.39,8.47-39.01,9.79,1.46-4.67,19.65,7.74-3.94c2.26,8.77,3.87,12.2,6.79,12.2,1.46,0,3.21-.88,5.48-2.34l4.38,7.6Z"/>
              <path class="cls-8" d="M398.28,45.75l.35,6.98c-2.42.47-4.67.71-6.98.71-1.77,0-3.61-.18-5.5-.41-5.68-.77-9.46-4.97-9.46-9.82,0-2.9,1.3-6.03,4.38-8.87l-5.38-10.23,7.1-2.66,4.38,8.75c3.08-1.48,6.92-2.72,11.53-3.61l1.06,7.51c-11.23,2.13-14.84,6.03-14.84,8.81,0,1.54,1.12,2.66,2.66,2.96,1.71.3,3.08.47,4.55.47,1.71,0,3.55-.24,6.15-.59Z"/>
              <path class="cls-8" d="M424.39,19.14c-1.54,2.66-3.49,5.74-5.62,8.81l3.49-.12v23.65l-7.98.12-.35-16.56-1.83,2.54-6.98-4.85c2.72-3.73,9.17-13.84,11.71-18.8l7.57,5.2ZM453.42,43.26v5.68h-7.92l-.12,5.74h-8.63l.53-26.9h-1.77c-1.06,2.42-2.25,4.79-3.43,7.1l-8.75-2.48c3.13-7.15,5.56-14.6,7.27-22.47l10.35,3.31c-.59,1.95-1.24,3.9-1.89,5.79h14.25v8.75h-7.39l-.12,5.14h7.57v6.27h-7.69l-.06,4.08h7.8Z"/>
              <path class="cls-8" d="M468.25,46.34c7.15-.77,10.7-3.37,10.7-5.5,0-1.71-2.31-3.19-6.98-3.19-2.6,0-6.03.47-10.17,1.6l-1.3-6.27c4.61-1.24,8.63-1.83,11.94-1.83,9.22,0,13.42,4.2,13.42,8.87,0,5.44-5.91,11.53-16.56,11.88l-1.06-5.56Z"/>
              <path class="cls-8" d="M506.5,53.91c-4.08-2.72-7.04-6.56-7.04-11,0-3.43,1.83-7.21,6.45-10.94l-15.49.12v-6.92l26.96.06v8.57c-6.98,2.84-9.64,5.91-9.64,8.69,0,2.42,2.07,4.73,5.08,6.56l-6.33,4.85Z"/>
              <path class="cls-8" d="M536.81,32.98c-.06,3.9-1.06,7.92-2.31,11.59,10.64,1.95,19.87,2.66,31.16,3.61l-1.71,7.45c-11.53-1.24-20.75-2.66-31.69-5.08l-1,2.48-7.27-1.36c1.66-5.2,3.96-16.5,4.85-21.82h-4.97v-7.21l13.13.06-.18,10.29ZM536.51,14.06l-.59,6.62-11.94-1.06.59-6.62,11.94,1.06ZM537.69,41.79c1-5.97,1.48-13.42,1.77-20.4h-1.71v-6.98h3.67v-4.55h5.5v4.55h3.72v6.98h-5.79c-.06,1.18-.18,2.42-.24,3.61h6.92c-.06,6.8-.65,14.72-1.48,20.75l-6.45-.65.47-5.5h1.77l.53-8.22h-2.31c-.41,3.9-.89,7.69-1.42,11.23l-4.97-.83ZM568.14,14.17v6.15h-11.06c-.18.59-.35,1.24-.59,1.89l-4.79-1.12c1.01-4.32,1.54-6.74,2.13-11.23l5.62,1.24c-.24,1.12-.41,2.13-.65,3.07h9.34ZM566.55,27.18l-2.66,5.26h4.02v4.61h-3.61v.89c0,3.43-.83,7.1-2.25,9.28l-7.33-1.66,1.24-4.49,2.42.53c.59-1.54.89-2.78.89-4.02v-.53h-6.21v-4.61h5.38l2.19-4.26h-7.21v-4.97h13.13v3.96Z"/>
              <path class="cls-8" d="M582.91,45.69l2.72-.12.29,6.74-9.64.65-1.89-28.56,7.8-.3.71,21.58ZM607.8,30.02h-5.91l.18,2.96h4.97l.12,5.79h-4.79c0,.95.06,1.95.06,3.13,1.89.12,3.25.24,4.97.59l-.95,6.03c-1.54-.47-3.07-.59-4.43-.59-.77,3.84-2.84,6.44-7.21,6.44-5.08,0-7.45-3.19-7.45-6.44,0-3.49,2.78-7.1,8.04-6.8v-2.31h-8.81l-.06-5.79h8.63l-.18-2.96h-9.17l-.06-6.03,21.94-.06.12,6.03ZM596.39,47.76c0-.83-.71-1.54-1.54-1.54s-1.54.71-1.54,1.54.71,1.54,1.54,1.54,1.54-.71,1.54-1.54ZM604.08,21.51l-4.55.65-1.36-7.69,5.08-.71.83,7.75ZM609.99,20.91l-4.43.47-.83-7.86,4.73-.41.53,7.8Z"/>
              <path class="cls-8" d="M621.29,50.42c3.78-4.08,5.97-7.51,5.97-9.82,0-2.01-1.71-3.19-5.5-3.19-1.71,0-3.9.24-6.56.77l-1.06-6.62c3.13-.59,5.91-.89,8.34-.89,9.11,0,13.19,3.84,13.19,9.05,0,4.38-2.96,9.76-8.22,14.55l-6.15-3.84ZM632.64,29.49l-15.55-2.01.89-6.68,16.02,2.37-1.36,6.33Z"/>
              <path class="cls-8" d="M643.45,44.15l-.65-22.41h8.16l-.65,22.41h-6.86ZM643.27,53.73v-6.56h7.15v6.56h-7.15Z"/>
            </g>
            <g>
              <path class="cls-9" d="M56.62,24.05h-5.99c-1.17,10.23-2.78,19.28-4.75,27.1l-8.55-1.75c1.32-5.4,2.48-14.54,3.07-25.35l-6.14.07-.37,12.93h-9.35v-12.93h-6.28l-.15-8.69h6.43v-5.11h10.08l-.15,5.11,6.28-.07c.07-1.9.07-3.8.07-5.77l11.1.73-.44,5.04h4.97l.15,8.69Z"/>
              <path class="cls-9" d="M64.94,24.49l-.07-8.69,18.41-.07.07,8.69-18.41.07ZM72.18,43.11c10.59-7.01,17.53-13.29,26.37-24.47l7.96,6.06c-8.4,11.25-16.65,19.21-27.76,27.03l-6.57-8.62Z"/>
              <path class="cls-9" d="M153.21,24.05h-5.99c-1.17,10.23-2.78,19.28-4.75,27.1l-8.55-1.75c1.32-5.4,2.48-14.54,3.07-25.35l-6.14.07-.37,12.93h-9.35v-12.93h-6.28l-.15-8.69h6.43v-5.11h10.08l-.15,5.11,6.28-.07c.07-1.9.07-3.8.07-5.77l11.1.73-.44,5.04h4.97l.15,8.69Z"/>
              <path class="cls-9" d="M161.54,24.49l-.07-8.69,18.41-.07.07,8.69-18.41.07ZM168.77,43.11c10.59-7.01,17.53-13.29,26.37-24.47l7.96,6.06c-8.4,11.25-16.65,19.21-27.76,27.03l-6.57-8.62Z"/>
              <path class="cls-4" d="M225.26,51.37l-16.29-20.82,15.34-21.04,9.64,6.35-12.34,15.12,11.54,14.75-7.89,5.62Z"/>
              <path class="cls-4" d="M270.76,36.76l7.89,2.99c-3.14,7.52-6.72,11.03-14.75,11.03-9.28,0-14.32-7.09-13.73-16.44l.07-.66h-5.33l-.07-7.96h5.92l.22-3.94h-8.98l-.15-7.96h9.64l.22-3.51,9.71.51-.22,2.92h18.26l.15,7.96-18.92.07-.22,3.94,16.07-.07.07,7.96-16.65.07-.15,1.97c-.29,4.82,2.04,7.45,4.67,7.45,2.34,0,4.97-2.04,6.28-6.35Z"/>
              <path class="cls-4" d="M291.1,38.14c-1.68-8.33-3-17.02-3.29-25.42l8.84-.73c.29,7.3,1.02,13,1.46,17.82l3.58-.58.95,7.08-11.54,1.83ZM307.02,49.61c2.48-11.47,4.53-22.86,4.82-35.65l9.71.51c-1.24,14.54-3.29,26.95-6.06,36.52l-8.47-1.39Z"/>
              <path class="cls-4" d="M365.85,44.87c-4.24,2.99-8.04,4.38-11.25,4.38-5.26,0-9.06-3.65-11.03-9.5l-4.67,2.41-1.97,8.47-9.06-1.39,8.47-39.01,9.79,1.46-4.67,19.65,7.74-3.94c2.26,8.77,3.87,12.2,6.79,12.2,1.46,0,3.21-.88,5.48-2.34l4.38,7.6Z"/>
              <path class="cls-6" d="M394.17,43.88l.35,6.98c-2.42.47-4.67.71-6.98.71-1.77,0-3.61-.18-5.5-.41-5.68-.77-9.46-4.97-9.46-9.82,0-2.9,1.3-6.03,4.38-8.87l-5.38-10.23,7.1-2.66,4.38,8.75c3.08-1.48,6.92-2.72,11.53-3.61l1.06,7.51c-11.23,2.13-14.84,6.03-14.84,8.81,0,1.54,1.12,2.66,2.66,2.96,1.71.3,3.08.47,4.55.47,1.71,0,3.55-.24,6.15-.59Z"/>
              <path class="cls-6" d="M420.28,17.28c-1.54,2.66-3.49,5.74-5.62,8.81l3.49-.12v23.65l-7.98.12-.35-16.56-1.83,2.54-6.98-4.85c2.72-3.73,9.17-13.84,11.71-18.8l7.57,5.2ZM449.31,41.4v5.68h-7.92l-.12,5.74h-8.63l.53-26.9h-1.77c-1.06,2.42-2.25,4.79-3.43,7.1l-8.75-2.48c3.13-7.15,5.56-14.6,7.27-22.47l10.35,3.31c-.59,1.95-1.24,3.9-1.89,5.79h14.25v8.75h-7.39l-.12,5.14h7.57v6.27h-7.69l-.06,4.08h7.8Z"/>
              <path class="cls-6" d="M464.14,44.48c7.15-.77,10.7-3.37,10.7-5.5,0-1.71-2.31-3.19-6.98-3.19-2.6,0-6.03.47-10.17,1.6l-1.3-6.27c4.61-1.24,8.63-1.83,11.94-1.83,9.22,0,13.42,4.2,13.42,8.87,0,5.44-5.91,11.53-16.56,11.88l-1.06-5.56Z"/>
              <path class="cls-6" d="M502.39,52.04c-4.08-2.72-7.04-6.56-7.04-11,0-3.43,1.83-7.21,6.45-10.94l-15.49.12v-6.92l26.96.06v8.57c-6.98,2.84-9.64,5.91-9.64,8.69,0,2.42,2.07,4.73,5.08,6.56l-6.33,4.85Z"/>
              <path class="cls-6" d="M532.69,31.11c-.06,3.9-1.06,7.92-2.31,11.59,10.64,1.95,19.87,2.66,31.16,3.61l-1.71,7.45c-11.53-1.24-20.75-2.66-31.69-5.08l-1,2.48-7.27-1.36c1.66-5.2,3.96-16.5,4.85-21.82h-4.97v-7.21l13.13.06-.18,10.29ZM532.4,12.19l-.59,6.62-11.94-1.06.59-6.62,11.94,1.06ZM533.58,39.92c1-5.97,1.48-13.42,1.77-20.4h-1.71v-6.98h3.67v-4.55h5.5v4.55h3.72v6.98h-5.79c-.06,1.18-.18,2.42-.24,3.61h6.92c-.06,6.8-.65,14.72-1.48,20.75l-6.45-.65.47-5.5h1.77l.53-8.22h-2.31c-.41,3.9-.89,7.69-1.42,11.23l-4.97-.83ZM564.03,12.31v6.15h-11.06c-.18.59-.35,1.24-.59,1.89l-4.79-1.12c1.01-4.32,1.54-6.74,2.13-11.23l5.62,1.24c-.24,1.12-.41,2.13-.65,3.07h9.34ZM562.43,25.32l-2.66,5.26h4.02v4.61h-3.61v.89c0,3.43-.83,7.1-2.25,9.28l-7.33-1.66,1.24-4.49,2.42.53c.59-1.54.89-2.78.89-4.02v-.53h-6.21v-4.61h5.38l2.19-4.26h-7.21v-4.97h13.13v3.96Z"/>
              <path class="cls-6" d="M578.79,43.83l2.72-.12.29,6.74-9.64.65-1.89-28.56,7.8-.3.71,21.58ZM603.69,28.16h-5.91l.18,2.96h4.97l.12,5.79h-4.79c0,.95.06,1.95.06,3.13,1.89.12,3.25.24,4.97.59l-.95,6.03c-1.54-.47-3.07-.59-4.43-.59-.77,3.84-2.84,6.44-7.21,6.44-5.08,0-7.45-3.19-7.45-6.44,0-3.49,2.78-7.1,8.04-6.8v-2.31h-8.81l-.06-5.79h8.63l-.18-2.96h-9.17l-.06-6.03,21.94-.06.12,6.03ZM592.28,45.89c0-.83-.71-1.54-1.54-1.54s-1.54.71-1.54,1.54.71,1.54,1.54,1.54,1.54-.71,1.54-1.54ZM599.96,19.64l-4.55.65-1.36-7.69,5.08-.71.83,7.75ZM605.88,19.05l-4.43.47-.83-7.86,4.73-.41.53,7.8Z"/>
              <path class="cls-6" d="M617.17,48.56c3.78-4.08,5.97-7.51,5.97-9.82,0-2.01-1.71-3.19-5.5-3.19-1.71,0-3.9.24-6.56.77l-1.06-6.62c3.13-.59,5.91-.89,8.34-.89,9.11,0,13.19,3.84,13.19,9.05,0,4.38-2.96,9.76-8.22,14.55l-6.15-3.84ZM628.52,27.62l-15.55-2.01.89-6.68,16.02,2.37-1.36,6.33Z"/>
              <path class="cls-6" d="M639.34,42.29l-.65-22.41h8.16l-.65,22.41h-6.86ZM639.16,51.87v-6.56h7.15v6.56h-7.15Z"/>
            </g>
            <g>
              <path class="cls-3" d="M56.62,24.05h-5.99c-1.17,10.23-2.78,19.28-4.75,27.1l-8.55-1.75c1.32-5.4,2.48-14.54,3.07-25.35l-6.14.07-.37,12.93h-9.35v-12.93h-6.28l-.15-8.69h6.43v-5.11h10.08l-.15,5.11,6.28-.07c.07-1.9.07-3.8.07-5.77l11.1.73-.44,5.04h4.97l.15,8.69Z"/>
              <path class="cls-3" d="M64.95,24.49l-.07-8.69,18.41-.07.07,8.69-18.41.07ZM72.18,43.11c10.59-7.01,17.53-13.29,26.37-24.47l7.96,6.06c-8.4,11.25-16.65,19.21-27.76,27.03l-6.57-8.62Z"/>
              <path class="cls-3" d="M153.22,24.05h-5.99c-1.17,10.23-2.78,19.28-4.75,27.1l-8.55-1.75c1.32-5.4,2.48-14.54,3.07-25.35l-6.14.07-.37,12.93h-9.35v-12.93h-6.28l-.15-8.69h6.43v-5.11h10.08l-.15,5.11,6.28-.07c.07-1.9.07-3.8.07-5.77l11.1.73-.44,5.04h4.97l.15,8.69Z"/>
              <path class="cls-3" d="M161.54,24.49l-.07-8.69,18.41-.07.07,8.69-18.41.07ZM168.77,43.11c10.59-7.01,17.53-13.29,26.37-24.47l7.96,6.06c-8.4,11.25-16.65,19.21-27.76,27.03l-6.57-8.62Z"/>
              <path class="cls-2" d="M225.26,51.37l-16.29-20.82,15.34-21.04,9.64,6.35-12.34,15.12,11.54,14.75-7.89,5.62Z"/>
              <path class="cls-2" d="M270.77,36.76l7.89,2.99c-3.14,7.52-6.72,11.03-14.75,11.03-9.28,0-14.32-7.09-13.73-16.44l.07-.66h-5.33l-.07-7.96h5.92l.22-3.94h-8.98l-.15-7.96h9.64l.22-3.51,9.71.51-.22,2.92h18.26l.15,7.96-18.92.07-.22,3.94,16.07-.07.07,7.96-16.65.07-.15,1.97c-.29,4.82,2.04,7.45,4.67,7.45,2.34,0,4.97-2.04,6.28-6.35Z"/>
              <path class="cls-2" d="M291.1,38.14c-1.68-8.33-3-17.02-3.29-25.42l8.84-.73c.29,7.3,1.02,13,1.46,17.82l3.58-.58.95,7.08-11.54,1.83ZM307.03,49.61c2.48-11.47,4.53-22.86,4.82-35.65l9.71.51c-1.24,14.54-3.29,26.95-6.06,36.52l-8.47-1.39Z"/>
              <path class="cls-2" d="M365.85,44.87c-4.24,2.99-8.04,4.38-11.25,4.38-5.26,0-9.06-3.65-11.03-9.5l-4.67,2.41-1.97,8.47-9.06-1.39,8.47-39.01,9.79,1.46-4.67,19.65,7.74-3.94c2.26,8.77,3.87,12.2,6.79,12.2,1.46,0,3.21-.88,5.48-2.34l4.38,7.6Z"/>
              <path class="cls-18" d="M394.17,43.88l.35,6.98c-2.42.47-4.67.71-6.98.71-1.77,0-3.61-.18-5.5-.41-5.68-.77-9.46-4.97-9.46-9.82,0-2.9,1.3-6.03,4.38-8.87l-5.38-10.23,7.1-2.66,4.38,8.75c3.08-1.48,6.92-2.72,11.53-3.61l1.06,7.51c-11.23,2.13-14.84,6.03-14.84,8.81,0,1.54,1.12,2.66,2.66,2.96,1.71.3,3.08.47,4.55.47,1.71,0,3.55-.24,6.15-.59Z"/>
              <path class="cls-15" d="M420.28,17.28c-1.54,2.66-3.49,5.74-5.62,8.81l3.49-.12v23.65l-7.98.12-.35-16.56-1.83,2.54-6.98-4.85c2.72-3.73,9.17-13.84,11.71-18.8l7.57,5.2ZM449.31,41.4v5.68h-7.92l-.12,5.74h-8.63l.53-26.9h-1.77c-1.06,2.42-2.25,4.79-3.43,7.1l-8.75-2.48c3.13-7.15,5.56-14.6,7.27-22.47l10.35,3.31c-.59,1.95-1.24,3.9-1.89,5.79h14.25v8.75h-7.39l-.12,5.14h7.57v6.27h-7.69l-.06,4.08h7.8Z"/>
              <path class="cls-15" d="M464.14,44.48c7.15-.77,10.7-3.37,10.7-5.5,0-1.71-2.31-3.19-6.98-3.19-2.6,0-6.03.47-10.17,1.6l-1.3-6.27c4.61-1.24,8.63-1.83,11.94-1.83,9.22,0,13.42,4.2,13.42,8.87,0,5.44-5.91,11.53-16.56,11.88l-1.06-5.56Z"/>
              <path class="cls-15" d="M502.39,52.04c-4.08-2.72-7.04-6.56-7.04-11,0-3.43,1.83-7.21,6.44-10.94l-15.49.12v-6.92l26.96.06v8.57c-6.98,2.84-9.64,5.91-9.64,8.69,0,2.42,2.07,4.73,5.08,6.56l-6.33,4.85Z"/>
              <path class="cls-15" d="M532.69,31.11c-.06,3.9-1.06,7.92-2.31,11.59,10.64,1.95,19.87,2.66,31.16,3.61l-1.71,7.45c-11.53-1.24-20.75-2.66-31.69-5.08l-1,2.48-7.27-1.36c1.66-5.2,3.96-16.5,4.85-21.82h-4.97v-7.21l13.13.06-.18,10.29ZM532.4,12.19l-.59,6.62-11.94-1.06.59-6.62,11.94,1.06ZM533.58,39.92c1-5.97,1.48-13.42,1.77-20.4h-1.71v-6.98h3.67v-4.55h5.5v4.55h3.72v6.98h-5.79c-.06,1.18-.18,2.42-.24,3.61h6.92c-.06,6.8-.65,14.72-1.48,20.75l-6.45-.65.47-5.5h1.77l.53-8.22h-2.31c-.41,3.9-.89,7.69-1.42,11.23l-4.97-.83ZM564.03,12.31v6.15h-11.06c-.18.59-.35,1.24-.59,1.89l-4.79-1.12c1.01-4.32,1.54-6.74,2.13-11.23l5.62,1.24c-.24,1.12-.41,2.13-.65,3.07h9.34ZM562.44,25.32l-2.66,5.26h4.02v4.61h-3.61v.89c0,3.43-.83,7.1-2.25,9.28l-7.33-1.66,1.24-4.49,2.42.53c.59-1.54.89-2.78.89-4.02v-.53h-6.21v-4.61h5.38l2.19-4.26h-7.21v-4.97h13.13v3.96Z"/>
              <path class="cls-15" d="M578.8,43.83l2.72-.12.29,6.74-9.64.65-1.89-28.56,7.8-.3.71,21.58ZM603.69,28.16h-5.91l.18,2.96h4.97l.12,5.79h-4.79c0,.95.06,1.95.06,3.13,1.89.12,3.25.24,4.97.59l-.95,6.03c-1.54-.47-3.07-.59-4.43-.59-.77,3.84-2.84,6.44-7.21,6.44-5.08,0-7.45-3.19-7.45-6.44,0-3.49,2.78-7.1,8.04-6.8v-2.31h-8.81l-.06-5.79h8.63l-.18-2.96h-9.17l-.06-6.03,21.94-.06.12,6.03ZM592.28,45.89c0-.83-.71-1.54-1.54-1.54s-1.54.71-1.54,1.54.71,1.54,1.54,1.54,1.54-.71,1.54-1.54ZM599.97,19.64l-4.55.65-1.36-7.69,5.08-.71.83,7.75ZM605.88,19.05l-4.43.47-.83-7.86,4.73-.41.53,7.8Z"/>
              <path class="cls-15" d="M617.18,48.56c3.78-4.08,5.97-7.51,5.97-9.82,0-2.01-1.71-3.19-5.5-3.19-1.71,0-3.9.24-6.56.77l-1.06-6.62c3.13-.59,5.91-.89,8.34-.89,9.11,0,13.19,3.84,13.19,9.05,0,4.38-2.96,9.76-8.22,14.55l-6.15-3.84ZM628.53,27.62l-15.55-2.01.89-6.68,16.02,2.37-1.36,6.33Z"/>
              <path class="cls-15" d="M639.34,42.29l-.65-22.41h8.16l-.65,22.41h-6.86ZM639.16,51.87v-6.56h7.15v6.56h-7.15Z"/>
            </g>
          </g>
        </g>
      </g>
    </g>
  </g>
</svg>