<?xml version="1.0" encoding="UTF-8"?>
<svg id="_レイヤー_2" data-name="レイヤー 2" xmlns="http://www.w3.org/2000/svg" viewBox="0 0 92.86 29.1">
  <defs>
    <style>
      .cls-1 {
        fill: #009fe8;
        stroke: #231815;
        stroke-linecap: round;
        stroke-linejoin: round;
        stroke-width: 5px;
      }

      .cls-2 {
        fill: #00b3ec;
      }
    </style>
  </defs>
  <g id="_ロゴ_" data-name="ロゴ３">
    <g>
      <g>
        <path class="cls-1" d="M16.96,24.88c-.84-.72-.99-1.98-1.56-2.94-1.68-2.76-3.36-5.55-5.19-8.22-.06,2.97.96,5.88,1.29,8.82.06.69-.03,1.44-.42,1.98-.39.6-1.11.96-1.8,1.11-.81.15-1.65.21-2.49.12-.72-.06-1.5-.24-2.1-.66-.33-.24-.6-.6-.75-.96-.87-1.95-1.17-4.11-1.32-6.24-.21-3.69-.27-7.53.9-11.04.24-.72.6-1.44,1.23-1.83,1.11-.72,3.45-.78,4.53-.03.66.45,1.17,1.14,1.53,1.86.54,1.02,3.12,7.32,3.6,8.37.78,1.59,1.65,3.15,2.88,4.44-.09-1.2-.63-8.58-.69-9.78-.06-1.02-.09-2.07.06-3.06.09-.63.24-1.29.66-1.74.63-.69,2.91-1.11,3.84-1.08.93,0,1.77.36,2.4,1.02.54.54.81,1.32.99,2.04.36,1.56.39,3.21.36,4.8-.03,2.07-.21,4.17-.48,6.21-.27,2.1-.6,4.29-1.74,6.06-1.26,1.95-3.96,2.28-5.73.75Z"/>
        <path class="cls-1" d="M32.52,24.97c-1.29-.18-2.61-.63-3.66-1.44-.78-.63-1.44-1.5-1.86-2.43-.48-1.14-.72-2.4-.84-3.66-.18-1.74-.09-3.48.09-5.22.03-.3.12-2.04.12-2.34.12-1.41.33-2.82.72-4.17.21-.72.51-1.47,1.02-2.01.42-.42,1.05-.69,1.62-.75,1.17-.09,7.77-.42,8.91-.45.72,0,1.41.03,2.1.18.33.09.66.27.87.54.27.33.42.75.48,1.14.21,1.17-.27,3.03-1.35,3.57-.3.15-.66.24-.99.24-.99.06-2.01,0-3-.12-.69-.09-3.12-.54-3.75-.3-.54.21-.72,1.08-.66,1.62.03.24.12.51.3.63.27.21.63.21.96.21,1.17,0,2.37-.24,3.57-.27.54-.03,1.14.06,1.53.42.72.69.48,2.34.09,3.24-.18.33-.42.69-.78.87-.39.21-.84.24-1.29.24-1.11,0-2.19-.18-3.3-.27-.36,0-1.26-.09-1.53.18-.12.15-.12.39-.12.6.03.45.18.9.48,1.23.21.24.54.39.84.45.66.15,1.32.06,1.95-.03,1.56-.27,3-1.02,4.53-1.38.51-.15,1.08-.18,1.62-.06.39.12.78.39,1.05.72.3.45.57.93.72,1.44.42,1.14.63,2.4.39,3.57-.18.78-.6,1.5-1.17,2.04-.84.81-2.01,1.26-3.12,1.59-2.1.6-4.38.51-6.54.18Z"/>
        <path class="cls-1" d="M60.46,25c-.6-.27-1.11-.75-1.44-1.29-.78-1.29-1.14-2.79-1.41-4.26-.33-1.77-.57-3.57-.84-5.34-.24,1.68-.48,3.36-.78,5.04-.24,1.35-.51,2.7-1.14,3.93-.3.63-.75,1.26-1.35,1.65-1.02.63-2.37.69-3.57.51-.72-.12-1.47-.27-2.16-.54-.45-.18-.9-.39-1.26-.75-1.17-1.11-1.98-5.91-2.22-7.5-.42-2.82-.66-5.67-.84-8.52-.06-.84-.21-1.71-.12-2.55.06-.27.18-.57.39-.78.9-.87,4.05-.96,5.28-.87.63.06,1.32.15,1.77.6.57.57.69,1.5.81,2.31.24,1.98.36,3.96.57,5.94.15,1.68.33,3.33.57,4.98.21-1.08,1.68-6.81,2.04-7.83.15-.39.3-.81.54-1.11.18-.21.39-.39.63-.45.51-.15,1.68-.06,2.07.24.3.21.45.57.6.87.51,1.14,1.98,7.11,2.25,8.34.39-2.97.66-5.94.9-8.91.09-1.02.21-2.07.42-3.09.12-.45.3-.93.6-1.26.3-.3.75-.45,1.17-.51.81-.12,1.65-.15,2.46-.09.78.06,1.56.12,2.28.33.39.09.81.24,1.11.51.24.21.39.54.42.84.09.9-.06,1.83-.12,2.73-.24,3.48-.54,6.96-1.17,10.38-.27,1.44-.6,2.88-1.14,4.23-.18.45-.39.9-.75,1.23-.42.42-1.05.66-1.62.84-.78.27-1.62.45-2.43.51-.84.06-1.77,0-2.52-.36Z"/>
        <path class="cls-1" d="M73.46,26.29c-1.5-.84-1.86-3.66-1.53-5.37.09-.54.3-1.11.66-1.56.33-.39.84-.63,1.35-.72.78-.15,1.59-.09,2.37-.06,1.35.03,2.7.03,4.02-.15.57-.06,1.14-.18,1.62-.45.27-.15.51-.39.57-.69.21-.75-.6-1.17-1.35-1.35-.81-.24-1.68-.3-2.55-.39-1.59-.21-3.27-.39-4.74-1.05-.78-.36-1.47-.93-1.98-1.59-1.86-2.4-1.98-6.21.27-8.22,1.02-.93,2.46-1.35,3.78-1.62,2.31-.45,4.68-.48,7.05-.45,1.23,0,2.55.09,3.72.6.63.27,1.29.66,1.65,1.26.87,1.44.48,4.38-.54,5.7-.39.54-1.02.93-1.65,1.11-.81.24-1.74.15-2.52-.12-1.77-.6-3.27-1.98-5.13-2.25-1.44-.21-3.3.09-3.39,1.56-.06.69.69,1.5,1.35,1.74.42.15.87.21,1.32.3,2.31.39,4.68.42,7.02.72,1.2.15,2.43.48,3.39,1.2.54.36.96.9,1.29,1.47.51.93.78,2.01.84,3.06.09,1.35-.21,2.85-.96,3.99-.51.75-1.26,1.35-2.04,1.77-1.5.81-3.18,1.17-4.83,1.41-2.4.3-4.83.3-7.23.45-.6.03-1.26-.03-1.83-.3Z"/>
      </g>
      <g>
        <path class="cls-2" d="M16.96,24.88c-.84-.72-.99-1.98-1.56-2.94-1.68-2.76-3.36-5.55-5.19-8.22-.06,2.97.96,5.88,1.29,8.82.06.69-.03,1.44-.42,1.98-.39.6-1.11.96-1.8,1.11-.81.15-1.65.21-2.49.12-.72-.06-1.5-.24-2.1-.66-.33-.24-.6-.6-.75-.96-.87-1.95-1.17-4.11-1.32-6.24-.21-3.69-.27-7.53.9-11.04.24-.72.6-1.44,1.23-1.83,1.11-.72,3.45-.78,4.53-.03.66.45,1.17,1.14,1.53,1.86.54,1.02,3.12,7.32,3.6,8.37.78,1.59,1.65,3.15,2.88,4.44-.09-1.2-.63-8.58-.69-9.78-.06-1.02-.09-2.07.06-3.06.09-.63.24-1.29.66-1.74.63-.69,2.91-1.11,3.84-1.08.93,0,1.77.36,2.4,1.02.54.54.81,1.32.99,2.04.36,1.56.39,3.21.36,4.8-.03,2.07-.21,4.17-.48,6.21-.27,2.1-.6,4.29-1.74,6.06-1.26,1.95-3.96,2.28-5.73.75Z"/>
        <path class="cls-2" d="M32.52,24.97c-1.29-.18-2.61-.63-3.66-1.44-.78-.63-1.44-1.5-1.86-2.43-.48-1.14-.72-2.4-.84-3.66-.18-1.74-.09-3.48.09-5.22.03-.3.12-2.04.12-2.34.12-1.41.33-2.82.72-4.17.21-.72.51-1.47,1.02-2.01.42-.42,1.05-.69,1.62-.75,1.17-.09,7.77-.42,8.91-.45.72,0,1.41.03,2.1.18.33.09.66.27.87.54.27.33.42.75.48,1.14.21,1.17-.27,3.03-1.35,3.57-.3.15-.66.24-.99.24-.99.06-2.01,0-3-.12-.69-.09-3.12-.54-3.75-.3-.54.21-.72,1.08-.66,1.62.03.24.12.51.3.63.27.21.63.21.96.21,1.17,0,2.37-.24,3.57-.27.54-.03,1.14.06,1.53.42.72.69.48,2.34.09,3.24-.18.33-.42.69-.78.87-.39.21-.84.24-1.29.24-1.11,0-2.19-.18-3.3-.27-.36,0-1.26-.09-1.53.18-.12.15-.12.39-.12.6.03.45.18.9.48,1.23.21.24.54.39.84.45.66.15,1.32.06,1.95-.03,1.56-.27,3-1.02,4.53-1.38.51-.15,1.08-.18,1.62-.06.39.12.78.39,1.05.72.3.45.57.93.72,1.44.42,1.14.63,2.4.39,3.57-.18.78-.6,1.5-1.17,2.04-.84.81-2.01,1.26-3.12,1.59-2.1.6-4.38.51-6.54.18Z"/>
        <path class="cls-2" d="M60.46,25c-.6-.27-1.11-.75-1.44-1.29-.78-1.29-1.14-2.79-1.41-4.26-.33-1.77-.57-3.57-.84-5.34-.24,1.68-.48,3.36-.78,5.04-.24,1.35-.51,2.7-1.14,3.93-.3.63-.75,1.26-1.35,1.65-1.02.63-2.37.69-3.57.51-.72-.12-1.47-.27-2.16-.54-.45-.18-.9-.39-1.26-.75-1.17-1.11-1.98-5.91-2.22-7.5-.42-2.82-.66-5.67-.84-8.52-.06-.84-.21-1.71-.12-2.55.06-.27.18-.57.39-.78.9-.87,4.05-.96,5.28-.87.63.06,1.32.15,1.77.6.57.57.69,1.5.81,2.31.24,1.98.36,3.96.57,5.94.15,1.68.33,3.33.57,4.98.21-1.08,1.68-6.81,2.04-7.83.15-.39.3-.81.54-1.11.18-.21.39-.39.63-.45.51-.15,1.68-.06,2.07.24.3.21.45.57.6.87.51,1.14,1.98,7.11,2.25,8.34.39-2.97.66-5.94.9-8.91.09-1.02.21-2.07.42-3.09.12-.45.3-.93.6-1.26.3-.3.75-.45,1.17-.51.81-.12,1.65-.15,2.46-.09.78.06,1.56.12,2.28.33.39.09.81.24,1.11.51.24.21.39.54.42.84.09.9-.06,1.83-.12,2.73-.24,3.48-.54,6.96-1.17,10.38-.27,1.44-.6,2.88-1.14,4.23-.18.45-.39.9-.75,1.23-.42.42-1.05.66-1.62.84-.78.27-1.62.45-2.43.51-.84.06-1.77,0-2.52-.36Z"/>
        <path class="cls-2" d="M73.46,26.29c-1.5-.84-1.86-3.66-1.53-5.37.09-.54.3-1.11.66-1.56.33-.39.84-.63,1.35-.72.78-.15,1.59-.09,2.37-.06,1.35.03,2.7.03,4.02-.15.57-.06,1.14-.18,1.62-.45.27-.15.51-.39.57-.69.21-.75-.6-1.17-1.35-1.35-.81-.24-1.68-.3-2.55-.39-1.59-.21-3.27-.39-4.74-1.05-.78-.36-1.47-.93-1.98-1.59-1.86-2.4-1.98-6.21.27-8.22,1.02-.93,2.46-1.35,3.78-1.62,2.31-.45,4.68-.48,7.05-.45,1.23,0,2.55.09,3.72.6.63.27,1.29.66,1.65,1.26.87,1.44.48,4.38-.54,5.7-.39.54-1.02.93-1.65,1.11-.81.24-1.74.15-2.52-.12-1.77-.6-3.27-1.98-5.13-2.25-1.44-.21-3.3.09-3.39,1.56-.06.69.69,1.5,1.35,1.74.42.15.87.21,1.32.3,2.31.39,4.68.42,7.02.72,1.2.15,2.43.48,3.39,1.2.54.36.96.9,1.29,1.47.51.93.78,2.01.84,3.06.09,1.35-.21,2.85-.96,3.99-.51.75-1.26,1.35-2.04,1.77-1.5.81-3.18,1.17-4.83,1.41-2.4.3-4.83.3-7.23.45-.6.03-1.26-.03-1.83-.3Z"/>
      </g>
    </g>
  </g>
</svg>