<?xml version="1.0" encoding="UTF-8"?>
<svg id="_レイヤー_2" data-name="レイヤー 2" xmlns="http://www.w3.org/2000/svg" viewBox="0 0 87.72 29.16">
  <defs>
    <style>
      .cls-1 {
        fill: #f29600;
        stroke: #231815;
        stroke-linecap: round;
        stroke-linejoin: round;
        stroke-width: 5px;
      }

      .cls-2 {
        fill: #db771d;
      }
    </style>
  </defs>
  <g id="_ロゴ_" data-name="ロゴ３">
    <g>
      <g>
        <path class="cls-1" d="M5.47,26.35c-1.5-.84-1.86-3.66-1.53-5.37.09-.54.3-1.11.66-1.56.33-.39.84-.63,1.35-.72.78-.15,1.59-.09,2.37-.06,1.35.03,2.7.03,4.02-.15.57-.06,1.14-.18,1.62-.45.27-.15.51-.39.57-.69.21-.75-.6-1.17-1.35-1.35-.81-.24-1.68-.3-2.55-.39-1.59-.21-3.27-.39-4.74-1.05-.78-.36-1.47-.93-1.98-1.59-1.86-2.4-1.98-6.21.27-8.22,1.02-.93,2.46-1.35,3.78-1.62,2.31-.45,4.68-.48,7.05-.45,1.23,0,2.55.09,3.72.6.63.27,1.29.66,1.65,1.26.87,1.44.48,4.38-.54,5.7-.39.54-1.02.93-1.65,1.11-.81.24-1.74.15-2.52-.12-1.77-.6-3.27-1.98-5.13-2.25-1.44-.21-3.3.09-3.39,1.56-.06.69.69,1.5,1.35,1.74.42.15.87.21,1.32.3,2.31.39,4.68.42,7.02.72,1.2.15,2.43.48,3.39,1.2.54.36.96.9,1.29,1.47.51.93.78,2.01.84,3.06.09,1.35-.21,2.85-.96,3.99-.51.75-1.26,1.35-2.04,1.77-1.5.81-3.18,1.17-4.83,1.41-2.4.3-4.83.3-7.23.45-.6.03-1.26-.03-1.83-.3Z"/>
        <path class="cls-1" d="M27.43,26.29c-.93-.06-1.92-.15-2.73-.63-.54-.33-.9-.78-1.05-1.41-.24-.96-.24-1.98-.27-2.97-.06-3.54.09-7.08.3-10.62.03-.57-.09-3.81-.12-4.38,0-.78-.06-1.56.18-2.31.12-.36.36-.72.69-.93.51-.33,1.17-.39,1.77-.48,1.11-.12,2.25-.06,3.33.21.66.15,1.29.48,1.8.93.51.48.81,1.17.99,1.86.33,1.17.36,2.4.39,3.6.06,1.77,0,3.57-.12,5.34.45-.03,3.21-.15,3.66-.21.06,0,.06-.12.06-.18.03-.39.03-.75.03-1.14-.09-2.28-.3-4.56-.12-6.81.06-.87.24-1.83.84-2.46.36-.42.93-.66,1.47-.81.75-.21,1.53-.27,2.31-.27.81-.03,1.68.09,2.37.51.57.36.99,1.02,1.14,1.68.21.75.24,1.53.24,2.31.03,2.25-.06,4.47-.06,6.72.03,2.52.21,5.04.09,7.56-.03,1.2-.15,2.58-.9,3.51-.42.51-1.11.84-1.77.99-.84.21-1.74.27-2.61.24-.78-.03-1.68-.21-2.25-.75-.6-.63-.78-1.59-.84-2.43-.09-1.47.03-2.94.06-4.41,0,0-.03,0,0,0-.6.15-3.33.12-3.93.09-.03,1.35.06,2.73-.12,4.08-.12.9-.33,1.89-.93,2.58-.3.36-.72.6-1.14.75-.87.27-1.83.3-2.76.24Z"/>
        <path class="cls-1" d="M54.16,26.23c-1.44-.27-2.91-.78-4.14-1.62-.99-.69-1.83-1.62-2.49-2.64-1.41-2.22-2.04-5.07-1.71-7.65v-.24c0-1.23.21-2.49.69-3.66.12-.27.66-1.41.87-1.62.06-.21.54-.87.66-1.02.57-.78,1.23-1.53,2.04-2.04.45-.27.9-.54,1.38-.72,1.68-.75,3.63-.96,5.46-.81,2.52.24,5.25,1.29,6.96,3.18,1.02,1.08,1.68,2.52,2.07,3.96.69,2.76.6,5.82-.3,8.52-.42,1.2-.93,2.4-1.77,3.36-1.08,1.29-2.64,2.28-4.26,2.73-1.74.48-3.66.6-5.46.27ZM56.98,16.15c.99-.15,2.01-.63,2.7-1.38.48-.57.69-1.41.72-2.19.03-.9-.39-1.83-.96-2.52-.45-.54-1.08-.9-1.71-1.2-.75-.33-1.59-.45-2.43-.42-.57,0-1.14.24-1.59.6-.36.27-.66.63-.93,1.02-.45.66-.87,1.44-.96,2.25-.12.78-.09,1.71.3,2.4.42.75,1.29,1.26,2.13,1.41.9.15,1.83.15,2.73.03Z"/>
        <path class="cls-1" d="M70.82,25.72c-.69-.03-1.47-.24-2.01-.66-.48-.39-.78-.99-.9-1.59-.33-1.95-.51-11.85-.51-13.83,0-1.44.03-2.97.54-4.35.21-.6.6-1.08,1.14-1.44.78-.51,1.74-.72,2.67-.81,2.55-.27,5.19-.15,7.59.69,1.38.48,2.73,1.2,3.75,2.25.99.99,1.71,2.31,1.98,3.69.36,1.8.03,3.81-.63,5.55-.51,1.41-1.56,2.73-2.88,3.45-2.1,1.2-4.8,1.29-7.23,1.05.21.84.75,3.66.48,4.47-.45,1.26-2.64,1.62-3.99,1.53ZM77.15,12.88c.9-.09,1.89-.39,2.52-1.05,1.17-1.17.84-3.06-.42-4.14-.81-.66-1.98-.96-3.03-.96-.54,0-2.01,0-2.4.39-.27.27-.3,1.35-.3,1.74,0,1.29.09,2.58.18,3.87,1.11.3,2.31.24,3.45.15Z"/>
      </g>
      <g>
        <path class="cls-2" d="M5.47,26.35c-1.5-.84-1.86-3.66-1.53-5.37.09-.54.3-1.11.66-1.56.33-.39.84-.63,1.35-.72.78-.15,1.59-.09,2.37-.06,1.35.03,2.7.03,4.02-.15.57-.06,1.14-.18,1.62-.45.27-.15.51-.39.57-.69.21-.75-.6-1.17-1.35-1.35-.81-.24-1.68-.3-2.55-.39-1.59-.21-3.27-.39-4.74-1.05-.78-.36-1.47-.93-1.98-1.59-1.86-2.4-1.98-6.21.27-8.22,1.02-.93,2.46-1.35,3.78-1.62,2.31-.45,4.68-.48,7.05-.45,1.23,0,2.55.09,3.72.6.63.27,1.29.66,1.65,1.26.87,1.44.48,4.38-.54,5.7-.39.54-1.02.93-1.65,1.11-.81.24-1.74.15-2.52-.12-1.77-.6-3.27-1.98-5.13-2.25-1.44-.21-3.3.09-3.39,1.56-.06.69.69,1.5,1.35,1.74.42.15.87.21,1.32.3,2.31.39,4.68.42,7.02.72,1.2.15,2.43.48,3.39,1.2.54.36.96.9,1.29,1.47.51.93.78,2.01.84,3.06.09,1.35-.21,2.85-.96,3.99-.51.75-1.26,1.35-2.04,1.77-1.5.81-3.18,1.17-4.83,1.41-2.4.3-4.83.3-7.23.45-.6.03-1.26-.03-1.83-.3Z"/>
        <path class="cls-2" d="M27.43,26.29c-.93-.06-1.92-.15-2.73-.63-.54-.33-.9-.78-1.05-1.41-.24-.96-.24-1.98-.27-2.97-.06-3.54.09-7.08.3-10.62.03-.57-.09-3.81-.12-4.38,0-.78-.06-1.56.18-2.31.12-.36.36-.72.69-.93.51-.33,1.17-.39,1.77-.48,1.11-.12,2.25-.06,3.33.21.66.15,1.29.48,1.8.93.51.48.81,1.17.99,1.86.33,1.17.36,2.4.39,3.6.06,1.77,0,3.57-.12,5.34.45-.03,3.21-.15,3.66-.21.06,0,.06-.12.06-.18.03-.39.03-.75.03-1.14-.09-2.28-.3-4.56-.12-6.81.06-.87.24-1.83.84-2.46.36-.42.93-.66,1.47-.81.75-.21,1.53-.27,2.31-.27.81-.03,1.68.09,2.37.51.57.36.99,1.02,1.14,1.68.21.75.24,1.53.24,2.31.03,2.25-.06,4.47-.06,6.72.03,2.52.21,5.04.09,7.56-.03,1.2-.15,2.58-.9,3.51-.42.51-1.11.84-1.77.99-.84.21-1.74.27-2.61.24-.78-.03-1.68-.21-2.25-.75-.6-.63-.78-1.59-.84-2.43-.09-1.47.03-2.94.06-4.41,0,0-.03,0,0,0-.6.15-3.33.12-3.93.09-.03,1.35.06,2.73-.12,4.08-.12.9-.33,1.89-.93,2.58-.3.36-.72.6-1.14.75-.87.27-1.83.3-2.76.24Z"/>
        <path class="cls-2" d="M54.16,26.23c-1.44-.27-2.91-.78-4.14-1.62-.99-.69-1.83-1.62-2.49-2.64-1.41-2.22-2.04-5.07-1.71-7.65v-.24c0-1.23.21-2.49.69-3.66.12-.27.66-1.41.87-1.62.06-.21.54-.87.66-1.02.57-.78,1.23-1.53,2.04-2.04.45-.27.9-.54,1.38-.72,1.68-.75,3.63-.96,5.46-.81,2.52.24,5.25,1.29,6.96,3.18,1.02,1.08,1.68,2.52,2.07,3.96.69,2.76.6,5.82-.3,8.52-.42,1.2-.93,2.4-1.77,3.36-1.08,1.29-2.64,2.28-4.26,2.73-1.74.48-3.66.6-5.46.27ZM56.98,16.15c.99-.15,2.01-.63,2.7-1.38.48-.57.69-1.41.72-2.19.03-.9-.39-1.83-.96-2.52-.45-.54-1.08-.9-1.71-1.2-.75-.33-1.59-.45-2.43-.42-.57,0-1.14.24-1.59.6-.36.27-.66.63-.93,1.02-.45.66-.87,1.44-.96,2.25-.12.78-.09,1.71.3,2.4.42.75,1.29,1.26,2.13,1.41.9.15,1.83.15,2.73.03Z"/>
        <path class="cls-2" d="M70.82,25.72c-.69-.03-1.47-.24-2.01-.66-.48-.39-.78-.99-.9-1.59-.33-1.95-.51-11.85-.51-13.83,0-1.44.03-2.97.54-4.35.21-.6.6-1.08,1.14-1.44.78-.51,1.74-.72,2.67-.81,2.55-.27,5.19-.15,7.59.69,1.38.48,2.73,1.2,3.75,2.25.99.99,1.71,2.31,1.98,3.69.36,1.8.03,3.81-.63,5.55-.51,1.41-1.56,2.73-2.88,3.45-2.1,1.2-4.8,1.29-7.23,1.05.21.84.75,3.66.48,4.47-.45,1.26-2.64,1.62-3.99,1.53ZM77.15,12.88c.9-.09,1.89-.39,2.52-1.05,1.17-1.17.84-3.06-.42-4.14-.81-.66-1.98-.96-3.03-.96-.54,0-2.01,0-2.4.39-.27.27-.3,1.35-.3,1.74,0,1.29.09,2.58.18,3.87,1.11.3,2.31.24,3.45.15Z"/>
      </g>
    </g>
  </g>
</svg>