<?xml version="1.0" encoding="UTF-8"?>
<svg id="_レイヤー_2" data-name="レイヤー 2" xmlns="http://www.w3.org/2000/svg" viewBox="0 0 115.74 28.57">
  <defs>
    <style>
      .cls-1 {
        fill: #1eaa39;
        stroke: #231815;
        stroke-linecap: round;
        stroke-linejoin: round;
        stroke-width: 5px;
      }

      .cls-2 {
        fill: #8dc21f;
      }
    </style>
  </defs>
  <g id="_ロゴ_" data-name="ロゴ３">
    <g>
      <g>
        <path class="cls-1" d="M4.98,25.89c-.45,0-.99,0-1.32-.3-.45-.36-.51-1.92-.57-2.46-.66-5.67-.84-11.43-.18-17.07.09-.63.12-1.32.48-1.86.24-.33.66-.54,1.05-.63,1.35-.36,2.82-.3,4.23-.18.78.06,1.59.12,2.22.54,1.5.99.69,4.2.3,5.94-.51,2.22-.87,4.47-1.17,6.72-.18,1.2-.33,2.43-.39,3.63-.06.75-.12,1.5.06,2.19.03.21.33.06.54.03,1.08-.18,2.13-.42,3.21-.54.66-.09,2.19-.15,2.67.36.48.54.6,1.41.54,2.16-.03.45-.24,1.02-.69,1.05-3.66.27-7.32.42-10.98.42Z"/>
        <path class="cls-1" d="M17.16,25.05c-.57-.69-.6-1.74-.63-2.64-.09-4.38,0-8.76.33-13.14.09-1.14.12-2.28.21-3.42.06-.78.18-1.68.69-2.31.9-1.08,3.81-1.17,5.22-.93.6.12,1.23.27,1.74.63.36.3.6.78.66,1.23.06.42.06.84.03,1.26-.09,1.53-.27,3.06-.42,4.59-.12,1.05-.6,7.02-.63,8.07-.03.69-.03,4.41-.12,5.07-.06.45-.21.93-.48,1.32-.33.45-.84.75-1.38.9-1.47.45-4.26.54-5.22-.63Z"/>
        <path class="cls-1" d="M40.93,25.11c-.84-.72-.99-1.98-1.56-2.94-1.68-2.76-3.36-5.55-5.19-8.22-.06,2.97.96,5.88,1.29,8.82.06.69-.03,1.44-.42,1.98-.39.6-1.11.96-1.8,1.11-.81.15-1.65.21-2.49.12-.72-.06-1.5-.24-2.1-.66-.33-.24-.6-.6-.75-.96-.87-1.95-1.17-4.11-1.32-6.24-.21-3.69-.27-7.53.9-11.04.24-.72.6-1.44,1.23-1.83,1.11-.72,3.45-.78,4.53-.03.66.45,1.17,1.14,1.53,1.86.54,1.02,3.12,7.32,3.6,8.37.78,1.59,1.65,3.15,2.88,4.44-.09-1.2-.63-8.58-.69-9.78-.06-1.02-.09-2.07.06-3.06.09-.63.24-1.29.66-1.74.63-.69,2.91-1.11,3.84-1.08.93,0,1.77.36,2.4,1.02.54.54.81,1.32.99,2.04.36,1.56.39,3.21.36,4.8-.03,2.07-.21,4.17-.48,6.21-.27,2.1-.6,4.29-1.74,6.06-1.26,1.95-3.96,2.28-5.73.75Z"/>
        <path class="cls-1" d="M56.49,25.2c-1.29-.18-2.61-.63-3.66-1.44-.78-.63-1.44-1.5-1.86-2.43-.48-1.14-.72-2.4-.84-3.66-.18-1.74-.09-3.48.09-5.22.03-.3.12-2.04.12-2.34.12-1.41.33-2.82.72-4.17.21-.72.51-1.47,1.02-2.01.42-.42,1.05-.69,1.62-.75,1.17-.09,7.77-.42,8.91-.45.72,0,1.41.03,2.1.18.33.09.66.27.87.54.27.33.42.75.48,1.14.21,1.17-.27,3.03-1.35,3.57-.3.15-.66.24-.99.24-.99.06-2.01,0-3-.12-.69-.09-3.12-.54-3.75-.3-.54.21-.72,1.08-.66,1.62.03.24.12.51.3.63.27.21.63.21.96.21,1.17,0,2.37-.24,3.57-.27.54-.03,1.14.06,1.53.42.72.69.48,2.34.09,3.24-.18.33-.42.69-.78.87-.39.21-.84.24-1.29.24-1.11,0-2.19-.18-3.3-.27-.36,0-1.26-.09-1.53.18-.12.15-.12.39-.12.6.03.45.18.9.48,1.23.21.24.54.39.84.45.66.15,1.32.06,1.95-.03,1.56-.27,3-1.02,4.53-1.38.51-.15,1.08-.18,1.62-.06.39.12.78.39,1.05.72.3.45.57.93.72,1.44.42,1.14.63,2.4.39,3.57-.18.78-.6,1.5-1.17,2.04-.84.81-2.01,1.26-3.12,1.59-2.1.6-4.38.51-6.54.18Z"/>
        <path class="cls-1" d="M81.18,25.62c-1.62-.36-3.24-1.17-4.38-2.37-1.08-1.11-1.8-2.61-2.25-4.11-.69-2.25-.87-4.68-.75-7.02.09-1.8.33-3.63.84-5.34.15-.45.3-.9.57-1.29.3-.42.75-.75,1.23-.93,1.11-.42,3.15-.27,3.93.63.3.36.42.9.45,1.38.06.75-.06,1.5-.18,2.22-.24,1.17-.6,2.31-.84,3.48-.18.72-.24,1.53-.03,2.25.21.66.66,1.23,1.23,1.62,1.8,1.32,4.86,1.11,6.42-.48.36-.39.66-.87.81-1.38.24-.78.21-1.62.15-2.43-.12-1.41-.45-2.82-.45-4.26.03-.57.09-1.17.42-1.62.3-.45.81-.78,1.32-.96,1.2-.39,2.88-.21,3.48.9.39.72.6,1.53.78,2.34.42,2.16.39,4.47.09,6.69-.3,2.31-.96,4.68-2.13,6.69-.69,1.17-1.62,2.25-2.73,3.03-.84.57-1.83.96-2.82,1.14-1.68.27-3.48.21-5.16-.18Z"/>
        <path class="cls-1" d="M98.84,25.89c-.69-.03-1.47-.24-2.01-.66-.48-.39-.78-.99-.9-1.59-.33-1.95-.51-11.85-.51-13.83,0-1.44.03-2.97.54-4.35.21-.6.6-1.08,1.14-1.44.78-.51,1.74-.72,2.67-.81,2.55-.27,5.19-.15,7.59.69,1.38.48,2.73,1.2,3.75,2.25.99.99,1.71,2.31,1.98,3.69.36,1.8.03,3.81-.63,5.55-.51,1.41-1.56,2.73-2.88,3.45-2.1,1.2-4.8,1.29-7.23,1.05.21.84.75,3.66.48,4.47-.45,1.26-2.64,1.62-3.99,1.53ZM105.17,13.05c.9-.09,1.89-.39,2.52-1.05,1.17-1.17.84-3.06-.42-4.14-.81-.66-1.98-.96-3.03-.96-.54,0-2.01,0-2.4.39-.27.27-.3,1.35-.3,1.74,0,1.29.09,2.58.18,3.87,1.11.3,2.31.24,3.45.15Z"/>
      </g>
      <g>
        <path class="cls-2" d="M4.98,25.89c-.45,0-.99,0-1.32-.3-.45-.36-.51-1.92-.57-2.46-.66-5.67-.84-11.43-.18-17.07.09-.63.12-1.32.48-1.86.24-.33.66-.54,1.05-.63,1.35-.36,2.82-.3,4.23-.18.78.06,1.59.12,2.22.54,1.5.99.69,4.2.3,5.94-.51,2.22-.87,4.47-1.17,6.72-.18,1.2-.33,2.43-.39,3.63-.06.75-.12,1.5.06,2.19.03.21.33.06.54.03,1.08-.18,2.13-.42,3.21-.54.66-.09,2.19-.15,2.67.36.48.54.6,1.41.54,2.16-.03.45-.24,1.02-.69,1.05-3.66.27-7.32.42-10.98.42Z"/>
        <path class="cls-2" d="M17.16,25.05c-.57-.69-.6-1.74-.63-2.64-.09-4.38,0-8.76.33-13.14.09-1.14.12-2.28.21-3.42.06-.78.18-1.68.69-2.31.9-1.08,3.81-1.17,5.22-.93.6.12,1.23.27,1.74.63.36.3.6.78.66,1.23.06.42.06.84.03,1.26-.09,1.53-.27,3.06-.42,4.59-.12,1.05-.6,7.02-.63,8.07-.03.69-.03,4.41-.12,5.07-.06.45-.21.93-.48,1.32-.33.45-.84.75-1.38.9-1.47.45-4.26.54-5.22-.63Z"/>
        <path class="cls-2" d="M40.93,25.11c-.84-.72-.99-1.98-1.56-2.94-1.68-2.76-3.36-5.55-5.19-8.22-.06,2.97.96,5.88,1.29,8.82.06.69-.03,1.44-.42,1.98-.39.6-1.11.96-1.8,1.11-.81.15-1.65.21-2.49.12-.72-.06-1.5-.24-2.1-.66-.33-.24-.6-.6-.75-.96-.87-1.95-1.17-4.11-1.32-6.24-.21-3.69-.27-7.53.9-11.04.24-.72.6-1.44,1.23-1.83,1.11-.72,3.45-.78,4.53-.03.66.45,1.17,1.14,1.53,1.86.54,1.02,3.12,7.32,3.6,8.37.78,1.59,1.65,3.15,2.88,4.44-.09-1.2-.63-8.58-.69-9.78-.06-1.02-.09-2.07.06-3.06.09-.63.24-1.29.66-1.74.63-.69,2.91-1.11,3.84-1.08.93,0,1.77.36,2.4,1.02.54.54.81,1.32.99,2.04.36,1.56.39,3.21.36,4.8-.03,2.07-.21,4.17-.48,6.21-.27,2.1-.6,4.29-1.74,6.06-1.26,1.95-3.96,2.28-5.73.75Z"/>
        <path class="cls-2" d="M56.49,25.2c-1.29-.18-2.61-.63-3.66-1.44-.78-.63-1.44-1.5-1.86-2.43-.48-1.14-.72-2.4-.84-3.66-.18-1.74-.09-3.48.09-5.22.03-.3.12-2.04.12-2.34.12-1.41.33-2.82.72-4.17.21-.72.51-1.47,1.02-2.01.42-.42,1.05-.69,1.62-.75,1.17-.09,7.77-.42,8.91-.45.72,0,1.41.03,2.1.18.33.09.66.27.87.54.27.33.42.75.48,1.14.21,1.17-.27,3.03-1.35,3.57-.3.15-.66.24-.99.24-.99.06-2.01,0-3-.12-.69-.09-3.12-.54-3.75-.3-.54.21-.72,1.08-.66,1.62.03.24.12.51.3.63.27.21.63.21.96.21,1.17,0,2.37-.24,3.57-.27.54-.03,1.14.06,1.53.42.72.69.48,2.34.09,3.24-.18.33-.42.69-.78.87-.39.21-.84.24-1.29.24-1.11,0-2.19-.18-3.3-.27-.36,0-1.26-.09-1.53.18-.12.15-.12.39-.12.6.03.45.18.9.48,1.23.21.24.54.39.84.45.66.15,1.32.06,1.95-.03,1.56-.27,3-1.02,4.53-1.38.51-.15,1.08-.18,1.62-.06.39.12.78.39,1.05.72.3.45.57.93.72,1.44.42,1.14.63,2.4.39,3.57-.18.78-.6,1.5-1.17,2.04-.84.81-2.01,1.26-3.12,1.59-2.1.6-4.38.51-6.54.18Z"/>
        <path class="cls-2" d="M81.18,25.62c-1.62-.36-3.24-1.17-4.38-2.37-1.08-1.11-1.8-2.61-2.25-4.11-.69-2.25-.87-4.68-.75-7.02.09-1.8.33-3.63.84-5.34.15-.45.3-.9.57-1.29.3-.42.75-.75,1.23-.93,1.11-.42,3.15-.27,3.93.63.3.36.42.9.45,1.38.06.75-.06,1.5-.18,2.22-.24,1.17-.6,2.31-.84,3.48-.18.72-.24,1.53-.03,2.25.21.66.66,1.23,1.23,1.62,1.8,1.32,4.86,1.11,6.42-.48.36-.39.66-.87.81-1.38.24-.78.21-1.62.15-2.43-.12-1.41-.45-2.82-.45-4.26.03-.57.09-1.17.42-1.62.3-.45.81-.78,1.32-.96,1.2-.39,2.88-.21,3.48.9.39.72.6,1.53.78,2.34.42,2.16.39,4.47.09,6.69-.3,2.31-.96,4.68-2.13,6.69-.69,1.17-1.62,2.25-2.73,3.03-.84.57-1.83.96-2.82,1.14-1.68.27-3.48.21-5.16-.18Z"/>
        <path class="cls-2" d="M98.84,25.89c-.69-.03-1.47-.24-2.01-.66-.48-.39-.78-.99-.9-1.59-.33-1.95-.51-11.85-.51-13.83,0-1.44.03-2.97.54-4.35.21-.6.6-1.08,1.14-1.44.78-.51,1.74-.72,2.67-.81,2.55-.27,5.19-.15,7.59.69,1.38.48,2.73,1.2,3.75,2.25.99.99,1.71,2.31,1.98,3.69.36,1.8.03,3.81-.63,5.55-.51,1.41-1.56,2.73-2.88,3.45-2.1,1.2-4.8,1.29-7.23,1.05.21.84.75,3.66.48,4.47-.45,1.26-2.64,1.62-3.99,1.53ZM105.17,13.05c.9-.09,1.89-.39,2.52-1.05,1.17-1.17.84-3.06-.42-4.14-.81-.66-1.98-.96-3.03-.96-.54,0-2.01,0-2.4.39-.27.27-.3,1.35-.3,1.74,0,1.29.09,2.58.18,3.87,1.11.3,2.31.24,3.45.15Z"/>
      </g>
    </g>
  </g>
</svg>