<?xml version="1.0" encoding="UTF-8"?>
<svg xmlns="http://www.w3.org/2000/svg" viewBox="0 0 300.28 193.72">
  <defs>
    <style>
      .cls-1, .cls-2, .cls-3 {
        fill: none;
      }

      .cls-4 {
        fill: #e50012;
        stroke-width: 2.01px;
      }

      .cls-4, .cls-5, .cls-6, .cls-7 {
        stroke: #fff;
      }

      .cls-4, .cls-8, .cls-9 {
        stroke-miterlimit: 10;
      }

      .cls-10 {
        fill: #ffd800;
      }

      .cls-5 {
        fill: #e95504;
      }

      .cls-5, .cls-2, .cls-3, .cls-11, .cls-12, .cls-6, .cls-7 {
        stroke-linecap: round;
        stroke-linejoin: round;
      }

      .cls-5, .cls-6, .cls-7 {
        stroke-width: 1.48px;
      }

      .cls-13 {
        fill: #6355a1;
      }

      .cls-14 {
        fill: #00b1bb;
      }

      .cls-15 {
        fill: #f6e889;
      }

      .cls-16 {
        fill: #da7ba5;
      }

      .cls-17, .cls-6 {
        fill: #fff000;
      }

      .cls-18 {
        fill: #825c38;
      }

      .cls-8 {
        fill: #f29600;
      }

      .cls-8, .cls-9 {
        stroke: #e50012;
        stroke-width: .25px;
      }

      .cls-2 {
        stroke: #64401d;
        stroke-width: 2.32px;
      }

      .cls-19 {
        fill: #dbb216;
      }

      .cls-20 {
        fill: #ef8200;
      }

      .cls-9, .cls-21 {
        fill: #fff;
      }

      .cls-22 {
        isolation: isolate;
      }

      .cls-23 {
        mix-blend-mode: multiply;
      }

      .cls-24 {
        fill: #9c9c9d;
      }

      .cls-3 {
        stroke: #221714;
        stroke-width: 1.86px;
      }

      .cls-25 {
        fill: #1eaa39;
      }

      .cls-26 {
        fill: #392f2c;
      }

      .cls-11 {
        stroke-width: 3.73px;
      }

      .cls-11, .cls-12 {
        fill: #231815;
        stroke: #231815;
      }

      .cls-27 {
        fill: #975a26;
      }

      .cls-12 {
        stroke-width: 3.22px;
      }

      .cls-28 {
        fill: #221714;
      }

      .cls-29 {
        fill: #8cba27;
      }

      .cls-30 {
        fill: #595757;
      }

      .cls-31 {
        fill: #00b3ec;
      }

      .cls-32 {
        fill: #e96093;
      }

      .cls-33 {
        fill: #8dc21f;
      }

      .cls-7 {
        fill: #00b2d5;
      }
    </style>
  </defs>
  <g class="cls-22">
    <g id="_レイヤー_2" data-name="レイヤー 2">
      <g id="_テキスト" data-name="テキスト">
        <g>
          <g>
            <g>
              <g>
                <g>
                  <g>
                    <path class="cls-27" d="M3.97,40.07c1.01.17,72.5,11.75,144.27,10.88,71.76,1.09,143.8-10.27,145.82-10.65,4.54-.69,5.67-2.94,5.26-5.62-.21-1.36-1.6-4.26-6.31-3.55-2.11.39-73.57,11.67-144.73,10.59C77.13,42.59,6.29,31.1,5.37,30.95c-3.76-.58-4.79,1.71-5.13,3.87-.37,2.35,1.23,4.86,3.74,5.25Z"/>
                    <path class="cls-26" d="M3.97,40.07s-.14,0-.4-.04c-.26-.05-.65-.15-1.12-.41-.47-.25-1.01-.66-1.49-1.3-.47-.63-.87-1.51-.95-2.57-.04-.53.04-1.09.16-1.66.13-.57.32-1.17.67-1.73.35-.56.88-1.08,1.55-1.38.67-.31,1.44-.41,2.21-.37,3.01.36,6.36.91,10.21,1.4,15.32,2.04,37.55,4.73,65.12,6.71,13.78.98,28.9,1.79,45.15,2.13,4.06.04,8.19.18,12.39.15,4.2-.01,8.47-.02,12.8-.03,4.33,0,8.72.06,13.17,0,4.45-.09,8.96-.11,13.52-.25,18.26-.5,37.41-1.68,57.21-3.43,9.9-.91,19.97-1.92,30.16-3.14,5.1-.61,10.23-1.26,15.39-1.95,2.58-.36,5.16-.73,7.75-1.1,1.29-.19,2.59-.39,3.89-.59.67-.09,1.24-.23,1.99-.3.72-.09,1.45-.08,2.2.01,1.48.19,3.03,1.02,3.89,2.37.42.65.72,1.43.8,2.21.09.73.08,1.51-.13,2.29-.2.77-.63,1.51-1.2,2.07-.57.56-1.24.95-1.91,1.25-1.35.6-2.75.75-4.01.96-5.16.79-10.29,1.51-15.39,2.17-10.2,1.33-20.27,2.47-30.17,3.49-19.82,1.96-38.99,3.34-57.27,4.09-4.57.2-9.09.29-13.55.44-4.46.11-8.86.13-13.19.2-8.67-.02-17.08-.04-25.21-.07-16.27-.1-31.43-.75-45.24-1.6-13.81-.84-26.28-1.99-37.22-3.09-10.94-1.1-20.33-2.26-28-3.27-7.67-1.01-13.61-1.91-17.63-2.55-2.01-.32-3.54-.58-4.57-.78-.51-.1-.89-.18-1.16-.23-.26-.06-.39-.09-.39-.11,0-.03.54.03,1.57.16,1.04.14,2.58.34,4.59.6,4.04.53,9.99,1.32,17.67,2.22,7.68.91,17.08,1.96,28.01,2.97,10.93,1.01,23.4,2.07,37.19,2.83,13.8.77,28.93,1.35,45.17,1.38,8.13,0,16.53-.01,25.19-.02,4.33-.08,8.72-.11,13.16-.24,4.45-.16,8.96-.27,13.52-.48,18.25-.79,37.38-2.21,57.17-4.19,9.89-1.02,19.94-2.17,30.12-3.51,5.09-.66,10.21-1.38,15.35-2.17,1.3-.21,2.53-.36,3.58-.84,1.06-.45,1.86-1.17,2.11-2.16.13-.49.15-1.05.08-1.62-.05-.53-.24-1.01-.52-1.46-.57-.89-1.54-1.43-2.66-1.59-1.13-.17-2.31.07-3.66.28-1.3.2-2.6.39-3.9.59-2.6.37-5.19.73-7.77,1.1-5.17.69-10.31,1.34-15.42,1.95-10.21,1.22-20.3,2.22-30.21,3.12-19.84,1.74-39.03,2.88-57.32,3.34-4.57.13-9.09.14-13.55.22-4.46.04-8.85-.04-13.19-.05-4.33,0-8.6,0-12.81-.01-4.2.02-8.34-.13-12.41-.19-16.27-.4-31.41-1.28-45.21-2.34-27.6-2.14-49.82-5.02-65.12-7.27-3.82-.54-7.24-1.15-10.14-1.56-.71-.05-1.4.03-1.99.29-.59.25-1.05.68-1.37,1.18-.61,1.01-.85,2.18-.85,3.14.11,2,1.33,3.23,2.18,3.73.88.53,1.45.54,1.43.6Z"/>
                  </g>
                  <g>
                    <path class="cls-27" d="M146.26,45.83c-12.3-6.54-14.99-16.09-15-16.07-.12-.37-.2-.72-.25-1.05.07.13,1.19,1.92,3.42,1.42,1.81-.4,2.39-2,2.53-3.44.19.21.38.44.57.69,0,0,2.01,3.63,5.52,8.17,3.5,4.55,11.97,9.06,11.98,9.05"/>
                    <path class="cls-26" d="M155.04,44.6c-.1.19-2.65-.85-6.45-3.32-.95-.62-1.97-1.35-3.02-2.2-1.05-.86-2.15-1.83-3.14-3.08-.95-1.18-1.9-2.47-2.86-3.83-.48-.68-.95-1.39-1.42-2.12-.23-.37-.46-.74-.7-1.11-.21-.35-.42-.71-.64-1.07l-.5-.6,1.52-.5c-.11,1.11-.44,2.42-1.51,3.37-.97.81-2.15,1.05-3.3.88-.58-.1-1.13-.34-1.59-.66-.47-.34-.83-.7-1.16-1.22l1.6-.57c.07.31.14.61.21.91l-1.51-.23c.06-.05.12-.14.37-.25.12-.05.31-.08.5-.04.19.04.35.15.44.24.18.19.21.33.24.39v.03s.06.13.06.13l.09.26c.07.18.13.35.21.53.14.35.3.69.46,1.03.32.68.67,1.33,1.04,1.95.75,1.24,1.53,2.4,2.37,3.42,1.65,2.07,3.38,3.69,4.89,4.96,3.05,2.51,5.16,3.69,5.04,3.92-.07.14-2.37-.69-5.71-3.04-1.65-1.19-3.55-2.77-5.36-4.88-.92-1.04-1.79-2.23-2.62-3.53-.41-.65-.8-1.34-1.16-2.06-.18-.36-.36-.73-.52-1.11-.08-.19-.16-.38-.24-.58l-.11-.3-.05-.15v-.04s.03.15.2.32c.09.08.24.17.43.2.19.03.37-.01.49-.07.24-.13.3-.25.34-.32l-1.51-.23c-.1-.39-.19-.79-.29-1.2l1.48-.5.11-.06s0,0,.01,0h0s0,0,0,0v.02s.04.04.04.04l.07.09c.05.06.11.13.17.19.11.12.25.22.38.32.27.18.57.31.88.36.63.1,1.41-.08,1.86-.48.55-.46.84-1.31.92-2.21l.2-2.1,1.32,1.6.62.75c.24.4.47.8.7,1.19.22.37.45.73.67,1.09.45.72.9,1.41,1.35,2.09.91,1.36,1.81,2.64,2.7,3.83.85,1.14,1.85,2.11,2.81,2.98.97.87,1.91,1.63,2.8,2.3,3.55,2.67,5.89,4.07,5.78,4.27Z"/>
                  </g>
                  <g>
                    <path class="cls-21" d="M134.44,30.12c-2.23.5-3.35-1.29-3.42-1.42-.26-1.7.38-2.95,1.82-3.55,1.41-.58,2.82.08,4.13,1.53-.14,1.44-.72,3.03-2.53,3.44Z"/>
                    <path class="cls-3" d="M134.44,30.12c-2.23.5-3.35-1.29-3.42-1.42-.26-1.7.38-2.95,1.82-3.55,1.41-.58,2.82.08,4.13,1.53-.14,1.44-.72,3.03-2.53,3.44Z"/>
                  </g>
                  <path class="cls-26" d="M122.99,44.84c.01-.49,3.1-.82,6.88-.74,3.79.08,6.85.54,6.84,1.02s-3.09.82-6.88.74c-3.79-.08-6.86-.54-6.84-1.02Z"/>
                  <path class="cls-26" d="M115.61,44.61c.02-.49.69-.86,1.51-.83.82.03,1.46.45,1.45.93s-.69.86-1.51.83c-.82-.03-1.46-.45-1.45-.93Z"/>
                  <path class="cls-26" d="M290.45,37.3c-.07-.48,1.87-1.18,4.34-1.55,2.47-.38,4.53-.29,4.6.19.08.48-1.87,1.18-4.34,1.55-2.47.38-4.53.29-4.6-.19Z"/>
                  <path class="cls-26" d="M217.1,45.26c-.03-.49,3.26-1.14,7.36-1.46s7.46-.18,7.5.3c.04.49-3.25,1.14-7.36,1.46-4.11.32-7.46.18-7.5-.3Z"/>
                  <path class="cls-26" d="M246.36,40.35c-.05-.48,1.57-1.05,3.61-1.27,2.04-.21,3.74,0,3.79.49.05.48-1.56,1.05-3.61,1.27-2.04.21-3.74,0-3.79-.49Z"/>
                  <path class="cls-26" d="M22.17,39.13c.07-.48,3.43-.46,7.51.06,4.08.51,7.35,1.32,7.29,1.81s-3.42.46-7.51-.06c-4.09-.51-7.36-1.32-7.29-1.81Z"/>
                  <path class="cls-26" d="M44.49,41.85c.05-.48.74-.81,1.53-.72.79.09,1.4.55,1.34,1.03-.05.48-.74.81-1.53.72s-1.4-.55-1.34-1.03Z"/>
                  <path class="cls-26" d="M284.27,38.19c-.07-.48.37-.94.98-1.03.61-.09,1.16.23,1.23.72s-.37.94-.98,1.03c-.61.09-1.16-.23-1.23-.72Z"/>
                </g>
                <g>
                  <g>
                    <path class="cls-29" d="M65.49,32.65c7.79-5.87,8.04-19.54-3.45-24.38C50.55,3.43,43.94,1.17,43.94,1.17c0,0-4.52,22.92,7.38,30.9,5.47,3.67,14.17.59,14.17.59Z"/>
                    <path class="cls-26" d="M65.49,32.65c.04.1-1.19.71-3.6,1.22-1.2.25-2.71.47-4.48.45-1.76-.03-3.86-.29-5.9-1.44-2.01-1.12-3.82-2.91-5.27-5.14-1.42-2.25-2.45-4.92-3.08-7.8-.64-2.88-.92-5.96-.93-9.14,0-1.59.07-3.21.2-4.84.07-.82.15-1.64.26-2.47l.17-1.24.17-1.05.23-1.2c.41.14.81.28,1.22.42.92.33,1.83.66,2.73.99.78.29,1.55.59,2.32.88,1.53.6,3.03,1.19,4.51,1.77,2.95,1.19,5.77,2.35,8.46,3.53,2.8,1.2,5.15,3.12,6.68,5.39,1.55,2.26,2.28,4.79,2.43,7.08.15,2.3-.3,4.37-.91,6.06-.59,1.72-1.5,3.01-2.26,4.01-.83.95-1.53,1.64-2.09,2-.53.39-.83.56-.86.51s.18-.32.63-.78c.47-.43,1.07-1.17,1.77-2.14,1.32-1.96,2.86-5.31,2.48-9.56-.22-2.09-.94-4.34-2.38-6.34-1.42-2-3.55-3.68-6.13-4.74-2.67-1.12-5.51-2.26-8.45-3.42-1.47-.57-2.98-1.15-4.5-1.74-1.41-.52-2.84-1.05-4.28-1.59h0s0,0,0,0h0s-.03.17-.03.17l-.17,1.2c-.1.8-.19,1.6-.26,2.39-.14,1.59-.21,3.16-.22,4.7-.01,3.08.22,6.05.79,8.8.56,2.75,1.47,5.26,2.73,7.37,1.28,2.08,2.9,3.78,4.66,4.83,1.73,1.07,3.65,1.42,5.31,1.53,1.67.11,3.14,0,4.33-.15,2.38-.3,3.67-.68,3.71-.55Z"/>
                  </g>
                  <path class="cls-26" d="M45.75,4.66c.11-.05.53.5,1.2,1.55.66,1.05,1.55,2.59,2.77,4.44,2.35,3.73,5.81,8.74,10.06,13.94,4.23,5.22,8.44,9.63,11.54,12.77,3.1,3.15,5.12,4.99,4.96,5.19-.28.41-9.27-6.22-17.87-16.84-4.32-5.27-7.67-10.49-9.77-14.42-1.09-1.95-1.82-3.6-2.3-4.75-.48-1.15-.69-1.81-.59-1.86Z"/>
                  <path class="cls-26" d="M45.73,14.32c.05-.23.83-.3,2.08-.21.62.04,1.36.12,2.18.24.41.06.84.13,1.28.2l.34.06.14.02h0s0-.01,0-.01h0s0,0,0,0h0s.03-.15.03-.15c.04-.24.08-.47.13-.7.09-.46.18-.9.26-1.33.18-.84.37-1.6.55-2.23.36-1.26.71-2.02.95-1.98.24.04.33.87.28,2.18-.02.66-.08,1.43-.17,2.29-.05.43-.11.88-.16,1.34-.03.23-.07.47-.1.71-.07.43-.13.86-.2,1.31l-.1.65c-.47-.1-.93-.19-1.39-.28-.29-.06-.59-.13-.87-.19-.43-.1-.85-.21-1.26-.31-.8-.21-1.51-.41-2.1-.61-1.18-.4-1.89-.76-1.84-.99Z"/>
                  <path class="cls-26" d="M47.18,21.08c.01-.22.99-.36,2.59-.43.8-.03,1.76-.04,2.83-.04.54,0,1.11.02,1.69.03.53.01,1.46.05,1.2.03h0s0,0,0-.02l.08-.21c.1-.28.21-.55.31-.84,2.1-5.51,4.17-9.84,4.62-9.67.46.17-.88,4.78-2.97,10.3-.29.76-.58,1.51-.86,2.24-1.52-.09-1.82-.12-2.47-.18-.58-.05-1.15-.11-1.69-.16-1.07-.11-2.02-.23-2.81-.35-1.59-.24-2.54-.5-2.52-.72Z"/>
                  <path class="cls-26" d="M50.66,26.85c.01-.23,1.13-.38,2.96-.44.92-.03,2.01-.05,3.23-.03,1.03.02,2.16.04,3.35.07,0-.01,0,.01,0-.02l.23-.65c2.14-5.99,4.24-10.72,4.7-10.55.46.16-.9,5.15-3.04,11.15-.23.64-.46,1.27-.68,1.89-.94-.06-1.85-.11-2.72-.17-.66-.05-1.3-.11-1.92-.16-1.22-.11-2.3-.23-3.21-.35-1.82-.25-2.91-.51-2.9-.73Z"/>
                </g>
              </g>
              <g>
                <g>
                  <polygon class="cls-19" points="49.22 148.62 49.22 104.37 43.1 104.37 43.1 60.12 257.16 60.12 257.16 104.37 263.28 104.37 263.28 148.62 259.68 148.62 259.68 192.87 43.1 192.87 43.1 148.62 49.22 148.62"/>
                  <path class="cls-26" d="M49.22,148.62s-.13.03-.39.04c-.26,0-.65.02-1.16.04-1,.02-2.47.05-4.41.08.03,3.9.08,9.61.15,16.97.04,7.31.08,16.26.14,26.67,23.6-.07,54.65-.15,91.21-.25,36.49-.04,78.49-.09,124.07-.15,0-14.42-.01-29.2-.02-44.27,1.2,0,2.4,0,3.6,0,0-13.92,0-28.1,0-42.49-2.05,0-4.09,0-6.12,0,0-14.99,0-29.77,0-44.26-83.69-.11-158.06-.21-212.59-.28-.06,16.3-.1,30.8-.15,43.2,2.09,0,4.13.02,6.1.03-.09,14.28-.16,25.49-.2,33.13-.05,3.77-.08,6.65-.11,8.6-.02.97-.04,1.7-.06,2.2-.02.49-.04.74-.06.74s-.04-.25-.06-.74c-.01-.5-.03-1.23-.06-2.2-.02-1.95-.06-4.83-.11-8.6-.05-7.44-.11-18.36-.2-32.28-1.99,0-4.04.02-6.15.03-.04-13-.09-28.2-.15-45.3,55.28-.07,130.68-.17,215.53-.28,0,14.49,0,29.25,0,44.24,2.04,0,4.08,0,6.12,0,0,15.58,0,30.93,0,46.01-1.2,0-2.4,0-3.6,0,0,15.06-.01,29.82-.02,44.23-46.2-.06-88.78-.11-125.77-.15-36.92-.1-68.28-.19-92.11-.25.05-10.76.1-20.01.14-27.57.07-7.5.12-13.32.15-17.3,2.08.04,3.66.06,4.73.08.51.02.9.03,1.16.04.26.01.39.03.39.04Z"/>
                </g>
                <g>
                  <path class="cls-18" d="M257.16,104.37c0,.49-3.17.88-7.08.88s-7.08-.4-7.08-.88,3.17-.88,7.08-.88,7.08.4,7.08.88Z"/>
                  <path class="cls-18" d="M56.97,68.59c0,.49-2.86.88-6.4.88s-6.39-.4-6.39-.88,2.86-.88,6.39-.88,6.4.4,6.4.88Z"/>
                  <path class="cls-18" d="M258.24,170.74c0,.49-2.86.88-6.4.88s-6.39-.4-6.39-.88,2.86-.88,6.39-.88,6.4.4,6.4.88Z"/>
                  <path class="cls-18" d="M56.97,185.32c0,.49-2.86.88-6.4.88s-6.39-.4-6.39-.88,2.86-.88,6.39-.88,6.4.4,6.4.88Z"/>
                  <path class="cls-18" d="M50.57,75.88c0,.49-1.43.88-3.2.88s-3.2-.4-3.2-.88,1.43-.88,3.2-.88,3.2.4,3.2.88Z"/>
                  <path class="cls-18" d="M257.16,177.75c0,.49-1.43.88-3.2.88s-3.2-.4-3.2-.88,1.43-.88,3.2-.88,3.2.4,3.2.88Z"/>
                  <path class="cls-18" d="M50.57,179.1c0,.49-1.43.88-3.2.88s-3.2-.4-3.2-.88,1.43-.88,3.2-.88,3.2.4,3.2.88Z"/>
                  <path class="cls-18" d="M255.72,97.23c0,.49-1.43.88-3.2.88s-3.2-.4-3.2-.88,1.43-.88,3.2-.88,3.2.4,3.2.88Z"/>
                  <path class="cls-18" d="M56.97,140.46c0,.49-1.43.88-3.2.88s-3.2-.4-3.2-.88,1.43-.88,3.2-.88,3.2.4,3.2.88Z"/>
                  <path class="cls-18" d="M76.96,90.47c0,.49-4.7.88-10.49.88s-10.49-.4-10.49-.88,4.7-.88,10.49-.88,10.49.4,10.49.88Z"/>
                  <path class="cls-18" d="M81.51,161.54c0,.49-7.84.88-17.52.88s-17.52-.4-17.52-.88,7.84-.88,17.52-.88,17.52.4,17.52.88Z"/>
                  <path class="cls-18" d="M240.85,165.86c0,.49-5.04.88-11.26.88s-11.26-.4-11.26-.88,5.04-.88,11.26-.88,11.26.4,11.26.88Z"/>
                  <path class="cls-18" d="M207.08,186.62c0,.49-5.04.88-11.26.88s-11.26-.4-11.26-.88,5.04-.88,11.26-.88,11.26.4,11.26.88Z"/>
                  <path class="cls-18" d="M185.64,78.13c0,.49-8.05.88-17.97.88s-17.97-.4-17.97-.88,8.05-.88,17.97-.88,17.97.4,17.97.88Z"/>
                  <ellipse class="cls-18" cx="69.82" cy="171.81" rx="8.76" ry=".88"/>
                  <path class="cls-18" d="M120.47,85.61c0,.49-2.44.88-5.45.88s-5.45-.4-5.45-.88,2.44-.88,5.45-.88,5.45.4,5.45.88Z"/>
                  <path class="cls-18" d="M101.24,97.23c0,.49-1.22.88-2.72.88s-2.72-.4-2.72-.88,1.22-.88,2.72-.88,2.72.4,2.72.88Z"/>
                  <path class="cls-18" d="M217.25,179.1c0,.49-1.22.88-2.72.88s-2.72-.4-2.72-.88,1.22-.88,2.72-.88,2.72.4,2.72.88Z"/>
                  <path class="cls-18" d="M197.53,88.04c0,.49-1.22.88-2.72.88s-2.72-.4-2.72-.88,1.22-.88,2.72-.88,2.72.4,2.72.88Z"/>
                  <path class="cls-18" d="M250.76,153.97c0,.49-1.22.88-2.72.88s-2.72-.4-2.72-.88,1.22-.88,2.72-.88,2.72.4,2.72.88Z"/>
                  <path class="cls-18" d="M92.73,180.99c0,.49-2.44.88-5.45.88s-5.45-.4-5.45-.88,2.44-.88,5.45-.88,5.45.4,5.45.88Z"/>
                  <path class="cls-18" d="M250.76,130.73c0,.49-2.44.88-5.45.88s-5.45-.4-5.45-.88,2.44-.88,5.45-.88,5.45.4,5.45.88Z"/>
                  <path class="cls-18" d="M147.76,95.07c0,.49-2.44.88-5.45.88s-5.45-.4-5.45-.88,2.44-.88,5.45-.88,5.45.4,5.45.88Z"/>
                  <path class="cls-18" d="M231.49,82.24c0,.49-2.44.88-5.45.88s-5.45-.4-5.45-.88,2.44-.88,5.45-.88,5.45.4,5.45.88Z"/>
                  <path class="cls-18" d="M79.67,104.37c0,.49-3.51.88-7.84.88s-7.84-.4-7.84-.88,3.51-.88,7.84-.88,7.84.4,7.84.88Z"/>
                  <path class="cls-18" d="M245.27,182.99c0,.49-3.51.88-7.84.88s-7.84-.4-7.84-.88,3.51-.88,7.84-.88,7.84.4,7.84.88Z"/>
                </g>
                <g>
                  <circle class="cls-28" cx="92.73" cy="69.52" r="3.18"/>
                  <path class="cls-26" d="M95.91,69.52c-.13,0-.22-.28-.43-.69-.21-.41-.57-.96-1.2-1.34-.61-.39-1.53-.54-2.36-.19-.83.33-1.5,1.21-1.49,2.23,0,1.01.67,1.9,1.49,2.23.83.35,1.74.19,2.36-.19.63-.38,1-.93,1.2-1.34.21-.41.3-.69.43-.69.11,0,.26.29.23.86-.03.56-.29,1.44-1.11,2.17-.79.73-2.22,1.21-3.67.73-1.44-.43-2.72-1.96-2.7-3.76-.02-1.8,1.27-3.32,2.7-3.76,1.45-.48,2.88,0,3.67.73.82.73,1.09,1.61,1.11,2.17.03.57-.12.86-.23.86Z"/>
                </g>
                <g>
                  <circle class="cls-28" cx="209.33" cy="69.52" r="3.18"/>
                  <path class="cls-26" d="M206.15,69.52c-.11,0-.26-.29-.23-.86.03-.56.29-1.44,1.11-2.17.79-.73,2.22-1.21,3.67-.73,1.44.43,2.72,1.96,2.7,3.76.02,1.8-1.27,3.32-2.7,3.76-1.45.48-2.88,0-3.67-.73-.82-.73-1.09-1.61-1.11-2.17-.03-.57.12-.86.23-.86.13,0,.22.28.43.69.21.41.57.96,1.2,1.34.61.39,1.53.54,2.36.19.83-.33,1.5-1.21,1.49-2.23,0-1.01-.67-1.9-1.49-2.23-.83-.35-1.74-.19-2.36.19-.63.38-1,.93-1.2,1.34-.21.41-.3.69-.43.69Z"/>
                </g>
                <g>
                  <line class="cls-2" x1="92.73" y1="69.52" x2="92.73" y2="39.58"/>
                  <line class="cls-2" x1="209.33" y1="69.52" x2="209.33" y2="39.58"/>
                </g>
              </g>
            </g>
            <g>
              <g>
                <path class="cls-16" d="M70.18,57.74c2.43-.03,4.37-1.97,4.44-4.38,1.79,1.61,4.54,1.55,6.23-.19,1.7-1.74,1.7-4.49.05-6.24,2.4-.13,4.3-2.11,4.27-4.54-.03-2.43-1.97-4.37-4.38-4.44,1.61-1.79,1.55-4.54-.19-6.23-1.74-1.7-4.49-1.7-6.24-.05-.13-2.4-2.11-4.3-4.54-4.27s-4.37,1.97-4.44,4.38c-1.79-1.61-4.54-1.55-6.23.19-1.7,1.74-1.7,4.49-.05,6.24-2.4.13-4.3,2.11-4.27,4.54.03,2.43,1.97,4.37,4.38,4.44-1.61,1.79-1.55,4.54.19,6.23,1.74,1.7,4.49,1.7,6.24.05.13,2.4,2.11,4.3,4.54,4.27Z"/>
                <g>
                  <path class="cls-1" d="M70.18,57.74c2.43-.03,4.37-1.97,4.44-4.38,1.79,1.61,4.54,1.55,6.23-.19,1.7-1.74,1.7-4.49.05-6.24,2.4-.13,4.3-2.11,4.27-4.54-.03-2.43-1.97-4.37-4.38-4.44,1.61-1.79,1.55-4.54-.19-6.23-1.74-1.7-4.49-1.7-6.24-.05-.13-2.4-2.11-4.3-4.54-4.27s-4.37,1.97-4.44,4.38c-1.79-1.61-4.54-1.55-6.23.19-1.7,1.74-1.7,4.49-.05,6.24-2.4.13-4.3,2.11-4.27,4.54.03,2.43,1.97,4.37,4.38,4.44-1.61,1.79-1.55,4.54.19,6.23,1.74,1.7,4.49,1.7,6.24.05.13,2.4,2.11,4.3,4.54,4.27Z"/>
                  <path class="cls-26" d="M70.18,57.74s-.65.24-1.83-.14c-.58-.2-1.27-.58-1.89-1.26-.31-.33-.58-.75-.8-1.23-.05-.12-.12-.25-.15-.36-.03-.08-.05-.14-.07-.2-.04-.13-.06-.26-.08-.39-.09.08-.17.17-.27.24-.05.04-.09.07-.14.1l-.08.05s-.1.07-.16.09c-.46.24-.98.41-1.54.49-1.11.17-2.38-.05-3.46-.77-1.08-.7-1.95-1.91-2.19-3.35-.12-.71-.1-1.47.11-2.21.05-.18.11-.37.18-.54.06-.17.18-.4.18-.4.03-.07.08-.13.12-.19-.06,0-.12,0-.18-.01-.03,0-.05,0-.09-.02-.1-.02-.28-.09-.41-.14-.57-.22-1.11-.55-1.58-.97-.94-.83-1.6-2.06-1.71-3.4-.13-1.32.29-2.75,1.2-3.82.45-.54,1.01-.99,1.65-1.31.16-.09.33-.15.49-.22.06-.03.21-.07.22-.08h.03s.04-.02.06-.03l-.04-.05-.04-.06c-.08-.14-.14-.29-.21-.44-.25-.6-.39-1.24-.41-1.9-.04-1.31.44-2.67,1.35-3.67.9-1.01,2.23-1.67,3.62-1.75.69-.04,1.4.05,2.07.28.94.37.59.27.66.28h0s.03-.1.03-.1c.05-.16.12-.32.18-.47.26-.62.65-1.19,1.13-1.67.95-.97,2.32-1.55,3.7-1.56,1.38-.02,2.76.53,3.74,1.48.49.47.89,1.03,1.17,1.65.06.16.13.31.19.47l.03.1h0c.07,0-.28.1.66-.29.66-.25,1.36-.36,2.06-.33,1.39.04,2.74.67,3.66,1.66.94.98,1.45,2.33,1.43,3.64,0,.66-.13,1.31-.37,1.91-.07.15-.12.3-.2.44l-.04.06-.04.05s.04,0,.06.01h.03s.15.05.22.08c.17.07.34.12.5.21.65.31,1.22.75,1.68,1.27.93,1.05,1.38,2.46,1.28,3.79-.08,1.34-.71,2.58-1.63,3.44-.46.43-.99.77-1.56,1-.13.05-.31.13-.41.15-.05.01-.06.02-.09.02-.06.01-.11.01-.18.02.04.05.09.11.12.19,0,0,.13.23.19.4.08.18.14.36.2.54.22.73.27,1.49.16,2.21-.21,1.44-1.05,2.67-2.11,3.4-1.07.74-2.33.99-3.45.85-.56-.07-1.08-.23-1.55-.46-.06-.02-.12-.07-.16-.09l-.08-.05s-.1-.06-.14-.1c-.1-.07-.18-.15-.28-.23-.01.13-.03.26-.07.39-.01.07-.04.13-.06.21-.03.11-.09.25-.14.37-.21.48-.47.91-.78,1.25-.6.69-1.28,1.09-1.86,1.3-1.17.41-1.84.22-1.83.18,0-.1.65-.08,1.66-.57.49-.26,1.07-.67,1.54-1.3.24-.31.44-.7.59-1.12.04-.11.08-.2.1-.34.04-.17.09-.35.1-.56.04-.42.07-.85.1-1.29.26.2.52.42.83.64.15.11.3.23.45.32.17.09.3.16.38.19.39.17.83.28,1.28.31.91.08,1.91-.17,2.72-.78.82-.6,1.43-1.58,1.55-2.69.07-.55.02-1.13-.17-1.68-.05-.14-.09-.27-.16-.4-.07-.15-.09-.21-.28-.51-.37-.52-.87-1.05-1.29-1.55.5-.06,1-.11,1.51-.17.27-.02.51-.08.72-.15.16-.04.22-.08.34-.13.41-.18.8-.44,1.13-.77.67-.65,1.1-1.56,1.14-2.52.05-.97-.29-1.97-.97-2.71-.34-.37-.75-.68-1.21-.89-.11-.06-.24-.09-.35-.14-.08-.03-.08-.03-.22-.07-.13-.04-.28-.07-.43-.09-.67-.07-1.35-.11-1.99-.16.36-.45.73-.9,1.1-1.36.19-.23.33-.48.42-.66.06-.1.09-.21.14-.31.16-.43.25-.88.24-1.35,0-.92-.36-1.85-1.02-2.53-.65-.69-1.58-1.11-2.54-1.14-.48-.02-.97.06-1.42.24-.26.12-.32.09-.95.53l-1.52,1.3-.19-1.87c-.03-.29-.13-.64-.17-.76l-.13-.32c-.19-.42-.47-.81-.81-1.13-.68-.65-1.61-1.02-2.57-1.01-.95,0-1.88.4-2.54,1.07-.33.33-.6.72-.78,1.15l-.12.33c-.04.11-.14.47-.16.76l-.15,1.87-1.55-1.26c-.64-.42-.7-.39-.96-.5-.46-.16-.95-.23-1.43-.2-.97.05-1.88.49-2.51,1.19-.64.69-.98,1.63-.96,2.55,0,.46.1.92.27,1.34.05.1.08.21.14.31.1.18.24.43.44.65.38.44.75.89,1.13,1.33-.64.07-1.32.12-1.98.21-.15.03-.31.06-.43.1-.14.04-.15.04-.22.07-.12.05-.24.09-.35.15-.46.22-.86.54-1.19.92-.66.76-.98,1.76-.9,2.73.07.97.52,1.87,1.2,2.5.34.32.73.57,1.15.74.12.04.18.08.34.12.21.06.45.12.72.13.51.05,1.01.09,1.52.14-.41.51-.9,1.05-1.26,1.58-.18.31-.2.37-.27.52-.06.13-.11.27-.15.41-.17.55-.21,1.13-.13,1.68.15,1.1.78,2.06,1.61,2.65.83.59,1.83.81,2.74.72.45-.05.89-.16,1.27-.34.08-.03.21-.1.38-.2.15-.09.3-.21.45-.33.3-.23.55-.45.81-.66.03.44.07.86.13,1.28.02.21.07.39.12.56.03.13.07.22.11.33.16.42.37.8.62,1.1.49.63,1.07,1.02,1.57,1.27,1.02.47,1.68.43,1.67.53Z"/>
                </g>
              </g>
              <g>
                <circle class="cls-15" cx="70" cy="42.57" r="9.04"/>
                <path class="cls-26" d="M70.11,51.61c0-.14.8-.19,2.12-.62,1.3-.43,3.16-1.39,4.55-3.38.68-.99,1.24-2.2,1.44-3.59.19-1.37.11-2.91-.48-4.35-.27-.73-.67-1.42-1.17-2.06-.49-.65-1.09-1.23-1.78-1.71-1.36-.99-3.09-1.53-4.88-1.53-1.78.04-3.5.62-4.84,1.64-.68.49-1.27,1.09-1.74,1.75-.48.65-.87,1.36-1.12,2.09-.56,1.46-.6,2.99-.38,4.36.23,1.38.82,2.58,1.52,3.55,1.44,1.96,3.32,2.88,4.63,3.28,1.33.41,2.14.43,2.13.57,0,.09-.81.29-2.29.06-1.45-.23-3.64-1.06-5.41-3.18-.86-1.05-1.62-2.41-1.95-4.01-.33-1.58-.33-3.39.29-5.14.28-.88.72-1.73,1.28-2.52.55-.79,1.24-1.52,2.05-2.12,1.59-1.24,3.67-1.96,5.8-2,2.14,0,4.23.66,5.85,1.87.82.58,1.53,1.29,2.1,2.07.58.77,1.04,1.61,1.34,2.49.65,1.73.7,3.54.41,5.13-.3,1.6-1.02,2.98-1.86,4.05-1.72,2.17-3.89,3.04-5.33,3.31-1.47.27-2.29.08-2.29,0Z"/>
              </g>
              <path class="cls-26" d="M66.67,45.16c.24,0,.4.58.89,1.22.47.64,1.38,1.29,2.5,1.28,1.12,0,2.02-.68,2.47-1.33.48-.65.62-1.24.86-1.24.2-.02.53.64.19,1.75-.17.54-.54,1.15-1.15,1.64-.6.49-1.45.83-2.36.84-.91,0-1.76-.31-2.37-.79-.62-.47-1-1.07-1.19-1.61-.37-1.1-.05-1.77.15-1.75Z"/>
              <ellipse class="cls-28" cx="66.62" cy="40.78" rx="1.01" ry="1.78" transform="translate(-.47 .77) rotate(-.66)"/>
              <ellipse class="cls-28" cx="73.34" cy="40.7" rx="1.01" ry="1.78" transform="translate(-.47 .85) rotate(-.66)"/>
            </g>
          </g>
          <g>
            <path class="cls-12" d="M237.49,112.38c-.38-2.37-2.66-3.08-3.64-3.38-.82-.25-2.07-.56-3.4-.56-.91,0-1.67.15-2.3.38-.14-.21-.29-.41-.45-.6-1.21-1.34-2.76-1.6-3.5-1.65-4.73-.48-9.74-.58-13.13-.58-5.13,0-9.25.22-11.22.41-1.27.12-2.81.98-3.31,3.01-.09.38-.16.83-.21,1.4-.07.8-.09,1.82-.12,2.89v.37c-.04,1.16-.05,2.51.07,3.66.22,1.99.9,3.18,1.71,3.89-.2.02-.4.05-.59.08-.43.07-1.25.2-2.05.63-.81-.23-1.78-.41-2.73-.41-.87,0-1.67.16-2.36.44-.73-.22-1.59-.39-2.46-.43.08-.37.14-.78.18-1.23.08-.97.05-2.01.03-2.7,0-.17,0-.31,0-.42-.03-3.86-.73-5.04-.99-5.48-.88-1.49-2.37-2.15-5.56-2.38,0-.06,0-.12,0-.17,0-1.54-.06-2.88-.3-4.47-.13-.86-.44-1.75-.97-2.46h0c-.5-.66-1.82-2.41-8.59-2.41-1.38,0-2.53.05-3.44.16-1.02.12-3.72.44-4.6,2.94-.7,2-.64,4.31-.61,5.41v.09c.02.6.04,1.2.08,1.77-.39.04-.62.09-.75.11-2.12.4-3.58,2.09-3.71,4.31v.1c-.07,1.07-.11,1.78-.06,3.23.02.61.13,2.21.22,3.26-.46-.04-.97-.06-1.52-.06-.62,0-1.44.07-2.14.18-.73.12-2.52.41-3.49,1.96,0,0,0,0-.01,0-.1-.1-.21-.2-.31-.29.14-.21.25-.43.35-.67.93-2.33.94-4.73.78-6.33-.1-.97-.43-3.38-1.52-4.8-1.28-1.68-3.49-1.91-5.68-1.91-.46,0-.93.01-1.4.03.03-3.79-.64-6.15-2.14-7.72-1.91-2-5.2-2.21-6.53-2.21-2.01,0-3.73.45-5.02,1.27-1.64-.85-3.98-.95-5.05-.95-.62,0-1.23.04-1.81.11-1.53.19-3.63.45-5.17,2.2-1.45,1.64-2.06,3.85-1.9,6.88-.67,0-1.3.02-1.89.05-1.42.08-3.41.32-4.87,1.03-.97.47-1.73,1.23-2.3,2.24-.17-.37-.36-.72-.6-1.02-1.28-1.68-3.49-1.91-5.68-1.91-.46,0-.93.01-1.4.03.03-3.79-.64-6.15-2.14-7.72-1.91-2-5.2-2.21-6.53-2.21-2.01,0-3.73.45-5.02,1.27-1.64-.85-3.98-.95-5.05-.95-.62,0-1.23.04-1.81.11-1.53.19-3.62.45-5.17,2.2-1.45,1.64-2.06,3.85-1.9,6.88-.67,0-1.3.02-1.89.05-1.42.08-3.41.32-4.87,1.03-2.25,1.11-3.44,3.73-3.44,7.59,0,2.99.9,5.35,2.46,6.46,1.41,1,3.65,1.53,6.49,1.53.79,0,1.63-.04,2.52-.12.19.47.4.87.68,1.25.59.85,1.48,1.42,2.44,1.8-.39,1.15-.56,2.39-.48,3.59.21,2.92,1.02,5.85,5.51,7.52,2.23.83,5,.95,6.46.95.95,0,1.89-.05,2.72-.15,2.19-.25,4.95-.81,6.76-2.62.01.45.04.93.09,1.43.23,2.26.44,4.22,3.03,5.36l.05.02c1.57.7,4.93.78,4.96.78h.02c2.17,0,4.48-.18,4.58-.19h.07c4.53-.44,7.35-1.53,8.58-3.31.59-.75,1.57-2.41,1.68-8.31,0,0,0-.02,0-.02.41,2.41,1.6,4.67,5.34,6.06,2.23.83,5,.95,6.46.95.95,0,1.89-.05,2.72-.15,2.19-.25,4.95-.81,6.76-2.62.01.45.04.93.09,1.43.23,2.26.44,4.22,3.03,5.36l.05.02c1.57.7,4.93.78,4.96.78h.02c2.17,0,4.48-.18,4.58-.19h.07c4.53-.44,7.34-1.53,8.58-3.31.46-.58,1.16-1.72,1.5-4.99.03,0,.06,0,.09,0,.07.86.18,1.77.36,2.62.73,3.41,4.23,3.74,5.54,3.86.68.06,1.36.1,2.06.1h0c.82,0,1.54-.04,2.24-.08h.13c1.68-.11,2.96-.32,3.73-.48,1.23-.26,3.08-.65,3.77-2.64.3-.87.43-2.14.46-3.48.42-.04.79-.09,1.12-.14-.04.78-.02,1.63.08,2.57.23,2.26.44,4.22,3.03,5.36l.05.02c1.57.7,4.93.78,4.96.78h.02c2.17,0,4.48-.18,4.58-.19h.07c4.53-.44,7.34-1.53,8.58-3.31.07-.08.14-.18.21-.29.08.09.16.18.25.26,1.05,1.09,2.5,2.33,4.37,2.33.99,0,1.93-.36,2.66-1.01,1.62-1.46,3.51-3.7,5.04-5.67,1.12,1.56,1.95,2.71,2.63,3.56.79.98,2.1,2.62,4.21,2.62h0c.43,0,.85-.07,1.25-.21,1.77-.61,3.57-1.55,5.07-2.63,1.62-1.18,3.43-2.83,3-5.17-.28-1.56-1.21-3.25-5.59-8.5.06.02.12.04.18.06.81.24,1.78.36,2.89.36h0c.8,0,1.63-.07,2.34-.19,2.62-.45,3.46-1.92,3.7-3.07.55-2.63.22-11.14.03-12.31ZM120.2,130.31c-.03-.56-.06-1.12-.11-1.67.16.07.32.15.48.21-.16.48-.28.97-.37,1.46ZM206.86,124.32c-.21.22-.43.44-.63.66-.23-.84-.67-1.47-1.18-1.93.84.04,1.82.07,2.96.09-.39.4-.77.8-1.14,1.18Z"/>
            <g>
              <path class="cls-12" d="M237.49,109.34c-.38-2.37-2.66-3.08-3.64-3.38-.82-.25-2.07-.56-3.4-.56-.91,0-1.67.15-2.3.38-.14-.21-.29-.41-.45-.6-1.21-1.34-2.76-1.6-3.5-1.65-4.73-.48-9.74-.58-13.13-.58-5.13,0-9.25.22-11.22.41-1.27.12-2.81.98-3.31,3.01-.09.38-.16.83-.21,1.4-.07.8-.09,1.82-.12,2.89v.37c-.04,1.16-.05,2.51.07,3.66.22,1.99.9,3.18,1.71,3.89-.2.02-.4.05-.59.08-.43.07-1.25.2-2.05.63-.81-.23-1.78-.41-2.73-.41-.87,0-1.67.16-2.36.44-.73-.22-1.59-.39-2.46-.43.08-.37.14-.78.18-1.23.08-.97.05-2.01.03-2.7,0-.17,0-.31,0-.42-.03-3.86-.73-5.04-.99-5.48-.88-1.49-2.37-2.15-5.56-2.38,0-.06,0-.12,0-.17,0-1.54-.06-2.88-.3-4.47-.13-.86-.44-1.75-.97-2.46h0c-.5-.66-1.82-2.41-8.59-2.41-1.38,0-2.53.05-3.44.16-1.02.12-3.72.44-4.6,2.94-.7,2-.64,4.31-.61,5.41v.09c.02.6.04,1.2.08,1.77-.39.04-.62.09-.75.11-2.12.4-3.58,2.09-3.71,4.31v.1c-.07,1.07-.11,1.78-.06,3.23.02.61.13,2.21.22,3.26-.46-.04-.97-.06-1.52-.06-.62,0-1.44.07-2.14.18-.73.12-2.52.41-3.49,1.96,0,0,0,0-.01,0-.1-.1-.21-.2-.31-.29.14-.21.25-.43.35-.67.93-2.33.94-4.73.78-6.33-.1-.97-.43-3.38-1.52-4.8-1.28-1.68-3.49-1.91-5.68-1.91-.46,0-.93.01-1.4.03.03-3.79-.64-6.15-2.14-7.72-1.91-2-5.2-2.21-6.53-2.21-2.01,0-3.73.45-5.02,1.27-1.64-.85-3.98-.95-5.05-.95-.62,0-1.23.04-1.81.11-1.53.19-3.63.45-5.17,2.2-1.45,1.64-2.06,3.85-1.9,6.88-.67,0-1.3.02-1.89.05-1.42.08-3.41.32-4.87,1.03-.97.47-1.73,1.23-2.3,2.24-.17-.37-.36-.72-.6-1.02-1.28-1.68-3.49-1.91-5.68-1.91-.46,0-.93.01-1.4.03.03-3.79-.64-6.15-2.14-7.72-1.91-2-5.2-2.21-6.53-2.21-2.01,0-3.73.45-5.02,1.27-1.64-.85-3.98-.95-5.05-.95-.62,0-1.23.04-1.81.11-1.53.19-3.62.45-5.17,2.2-1.45,1.64-2.06,3.85-1.9,6.88-.67,0-1.3.02-1.89.05-1.42.08-3.41.32-4.87,1.03-2.25,1.11-3.44,3.73-3.44,7.59,0,2.99.9,5.35,2.46,6.46,1.41,1,3.65,1.53,6.49,1.53.79,0,1.63-.04,2.52-.12.19.47.4.87.68,1.25.59.85,1.48,1.42,2.44,1.8-.39,1.15-.56,2.39-.48,3.59.21,2.92,1.02,5.85,5.51,7.52,2.23.83,5,.95,6.46.95.95,0,1.89-.05,2.72-.15,2.19-.25,4.95-.81,6.76-2.62.01.45.04.93.09,1.43.23,2.26.44,4.22,3.03,5.36l.05.02c1.57.7,4.93.78,4.96.78h.02c2.17,0,4.48-.18,4.58-.19h.07c4.53-.44,7.35-1.53,8.58-3.31.59-.75,1.57-2.41,1.68-8.31,0,0,0-.02,0-.02.41,2.41,1.6,4.67,5.34,6.06,2.23.83,5,.95,6.46.95.95,0,1.89-.05,2.72-.15,2.19-.25,4.95-.81,6.76-2.62.01.45.04.93.09,1.43.23,2.26.44,4.22,3.03,5.36l.05.02c1.57.7,4.93.78,4.96.78h.02c2.17,0,4.48-.18,4.58-.19h.07c4.53-.44,7.34-1.53,8.58-3.31.46-.58,1.16-1.72,1.5-4.99.03,0,.06,0,.09,0,.07.86.18,1.77.36,2.62.73,3.41,4.23,3.74,5.54,3.86.68.06,1.36.1,2.06.1h0c.82,0,1.54-.04,2.24-.08h.13c1.68-.11,2.96-.32,3.73-.48,1.23-.26,3.08-.65,3.77-2.64.3-.87.43-2.14.46-3.48.42-.04.79-.09,1.12-.14-.04.78-.02,1.63.08,2.57.23,2.26.44,4.22,3.03,5.36l.05.02c1.57.7,4.93.78,4.96.78h.02c2.17,0,4.48-.18,4.58-.19h.07c4.53-.44,7.34-1.53,8.58-3.31.07-.08.14-.18.21-.29.08.09.16.18.25.26,1.05,1.09,2.5,2.33,4.37,2.33.99,0,1.93-.36,2.66-1.01,1.62-1.46,3.51-3.7,5.04-5.67,1.12,1.56,1.95,2.71,2.63,3.56.79.98,2.1,2.62,4.21,2.62h0c.43,0,.85-.07,1.25-.21,1.77-.61,3.57-1.55,5.07-2.63,1.62-1.18,3.43-2.83,3-5.17-.28-1.56-1.21-3.25-5.59-8.5.06.02.12.04.18.06.81.24,1.78.36,2.89.36h0c.8,0,1.63-.07,2.34-.19,2.62-.45,3.46-1.92,3.7-3.07.55-2.63.22-11.14.03-12.31ZM120.2,127.27c-.03-.56-.06-1.12-.11-1.67.16.07.32.15.48.21-.16.48-.28.97-.37,1.46ZM206.86,121.28c-.21.22-.43.44-.63.66-.23-.84-.67-1.47-1.18-1.93.84.04,1.82.07,2.96.09-.39.4-.77.8-1.14,1.18Z"/>
              <path class="cls-17" d="M237.49,109.34c-.38-2.37-2.66-3.08-3.64-3.38-.82-.25-2.07-.56-3.4-.56-.91,0-1.67.15-2.3.38-.14-.21-.29-.41-.45-.6-1.21-1.34-2.76-1.6-3.5-1.65-4.73-.48-9.74-.58-13.13-.58-5.13,0-9.25.22-11.22.41-1.27.12-2.81.98-3.31,3.01-.09.38-.16.83-.21,1.4-.07.8-.09,1.82-.12,2.89v.37c-.04,1.16-.05,2.51.07,3.66.22,1.99.9,3.18,1.71,3.89-.2.02-.4.05-.59.08-.43.07-1.25.2-2.05.63-.81-.23-1.78-.41-2.73-.41-.87,0-1.67.16-2.36.44-.73-.22-1.59-.39-2.46-.43.08-.37.14-.78.18-1.23.08-.97.05-2.01.03-2.7,0-.17,0-.31,0-.42-.03-3.86-.73-5.04-.99-5.48-.88-1.49-2.37-2.15-5.56-2.38,0-.06,0-.12,0-.17,0-1.54-.06-2.88-.3-4.47-.13-.86-.44-1.75-.97-2.46h0c-.5-.66-1.82-2.41-8.59-2.41-1.38,0-2.53.05-3.44.16-1.02.12-3.72.44-4.6,2.94-.7,2-.64,4.31-.61,5.41v.09c.02.6.04,1.2.08,1.77-.39.04-.62.09-.75.11-2.12.4-3.58,2.09-3.71,4.31v.1c-.07,1.07-.11,1.78-.06,3.23.02.61.13,2.21.22,3.26-.46-.04-.97-.06-1.52-.06-.62,0-1.44.07-2.14.18-.73.12-2.52.41-3.49,1.96,0,0,0,0-.01,0-.1-.1-.21-.2-.31-.29.14-.21.25-.43.35-.67.93-2.33.94-4.73.78-6.33-.1-.97-.43-3.38-1.52-4.8-1.28-1.68-3.49-1.91-5.68-1.91-.46,0-.93.01-1.4.03.03-3.79-.64-6.15-2.14-7.72-1.91-2-5.2-2.21-6.53-2.21-2.01,0-3.73.45-5.02,1.27-1.64-.85-3.98-.95-5.05-.95-.62,0-1.23.04-1.81.11-1.53.19-3.63.45-5.17,2.2-1.45,1.64-2.06,3.85-1.9,6.88-.67,0-1.3.02-1.89.05-1.42.08-3.41.32-4.87,1.03-.97.47-1.73,1.23-2.3,2.24-.17-.37-.36-.72-.6-1.02-1.28-1.68-3.49-1.91-5.68-1.91-.46,0-.93.01-1.4.03.03-3.79-.64-6.15-2.14-7.72-1.91-2-5.2-2.21-6.53-2.21-2.01,0-3.73.45-5.02,1.27-1.64-.85-3.98-.95-5.05-.95-.62,0-1.23.04-1.81.11-1.53.19-3.62.45-5.17,2.2-1.45,1.64-2.06,3.85-1.9,6.88-.67,0-1.3.02-1.89.05-1.42.08-3.41.32-4.87,1.03-2.25,1.11-3.44,3.73-3.44,7.59,0,2.99.9,5.35,2.46,6.46,1.41,1,3.65,1.53,6.49,1.53.79,0,1.63-.04,2.52-.12.19.47.4.87.68,1.25.59.85,1.48,1.42,2.44,1.8-.39,1.15-.56,2.39-.48,3.59.21,2.92,1.02,5.85,5.51,7.52,2.23.83,5,.95,6.46.95.95,0,1.89-.05,2.72-.15,2.19-.25,4.95-.81,6.76-2.62.01.45.04.93.09,1.43.23,2.26.44,4.22,3.03,5.36l.05.02c1.57.7,4.93.78,4.96.78h.02c2.17,0,4.48-.18,4.58-.19h.07c4.53-.44,7.35-1.53,8.58-3.31.59-.75,1.57-2.41,1.68-8.31,0,0,0-.02,0-.02.41,2.41,1.6,4.67,5.34,6.06,2.23.83,5,.95,6.46.95.95,0,1.89-.05,2.72-.15,2.19-.25,4.95-.81,6.76-2.62.01.45.04.93.09,1.43.23,2.26.44,4.22,3.03,5.36l.05.02c1.57.7,4.93.78,4.96.78h.02c2.17,0,4.48-.18,4.58-.19h.07c4.53-.44,7.34-1.53,8.58-3.31.46-.58,1.16-1.72,1.5-4.99.03,0,.06,0,.09,0,.07.86.18,1.77.36,2.62.73,3.41,4.23,3.74,5.54,3.86.68.06,1.36.1,2.06.1h0c.82,0,1.54-.04,2.24-.08h.13c1.68-.11,2.96-.32,3.73-.48,1.23-.26,3.08-.65,3.77-2.64.3-.87.43-2.14.46-3.48.42-.04.79-.09,1.12-.14-.04.78-.02,1.63.08,2.57.23,2.26.44,4.22,3.03,5.36l.05.02c1.57.7,4.93.78,4.96.78h.02c2.17,0,4.48-.18,4.58-.19h.07c4.53-.44,7.34-1.53,8.58-3.31.07-.08.14-.18.21-.29.08.09.16.18.25.26,1.05,1.09,2.5,2.33,4.37,2.33.99,0,1.93-.36,2.66-1.01,1.62-1.46,3.51-3.7,5.04-5.67,1.12,1.56,1.95,2.71,2.63,3.56.79.98,2.1,2.62,4.21,2.62h0c.43,0,.85-.07,1.25-.21,1.77-.61,3.57-1.55,5.07-2.63,1.62-1.18,3.43-2.83,3-5.17-.28-1.56-1.21-3.25-5.59-8.5.06.02.12.04.18.06.81.24,1.78.36,2.89.36h0c.8,0,1.63-.07,2.34-.19,2.62-.45,3.46-1.92,3.7-3.07.55-2.63.22-11.14.03-12.31ZM120.2,127.27c-.03-.56-.06-1.12-.11-1.67.16.07.32.15.48.21-.16.48-.28.97-.37,1.46ZM206.86,121.28c-.21.22-.43.44-.63.66-.23-.84-.67-1.47-1.18-1.93.84.04,1.82.07,2.96.09-.39.4-.77.8-1.14,1.18Z"/>
              <g>
                <path class="cls-4" d="M76.4,101.69c.56-.63,1.37-.82,2.93-1.02,2.19-.27,4.53.2,4.89.54,1.1,1.02,1.64,4.55,1.3,8.98h1.21c-.69-6.54-.05-7.93.28-8.55,1.02-1.9,6.35-1.67,7.71-.26.94.98,1.33,3.23,1.09,7.14l-.15,2.02c1.72-.24,7.33-.78,8.03.14.59.77,1.46,4.63.26,7.64-.12.3-2.08,1.21-8.47.45.51,4.55.84,9.04-.13,12.61-.25.92-.92,2.28-5.32,2.79-2.2.26-5.53.14-7.54-.6-2.68-.99-3.04-2.29-3.2-4.43-.11-1.51.48-3.26,1.56-4.28.39-.37.67-.65,1.21-.9.92-.44,1.9-.45,2.62-.45.97,0,1.56-.27,2.23-.96.84-.87.72-2.95.6-3.59-.33,0-.91.03-1.52.03.1,1.11-.08,2.84-.72,3.2-1.09.62-2.32.76-4.16.81-1.99.06-4.04-.42-4.43-1.02-.09-.15-.27-.27-.51-1.27-.16-.68-.13-1.22-.12-1.96-6.03,1.12-8.98.36-9.92-.3-.28-.2-.96-1.27-.96-3.56,0-2.05.46-3.9,1.45-4.39s2.64-.63,3.49-.67c2.87-.16,5.97.12,5.97.12,0,0-.47-1.4-.63-2.94-.38-3.53.43-4.74.93-5.31Z"/>
                <path class="cls-4" d="M120.74,101.69c.56-.63,1.37-.82,2.93-1.02,2.19-.27,4.53.2,4.89.54,1.1,1.02,1.64,4.55,1.3,8.98h1.21c-.69-6.54-.05-7.93.28-8.55,1.02-1.9,6.35-1.67,7.71-.26.94.98,1.33,3.23,1.09,7.14l-.15,2.02c1.72-.24,7.33-.78,8.03.14.59.77,1.46,4.63.26,7.64-.12.3-2.08,1.21-8.47.45.51,4.55.84,9.04-.13,12.61-.25.92-.92,2.28-5.32,2.79-2.2.26-5.53.14-7.54-.6-2.68-.99-3.04-2.29-3.2-4.43-.11-1.51.48-3.26,1.56-4.28.39-.37.67-.65,1.21-.9.92-.44,1.9-.45,2.62-.45.97,0,1.56-.27,2.23-.96.84-.87.72-2.95.6-3.59-.33,0-.91.03-1.52.03.1,1.11-.08,2.84-.72,3.2-1.09.62-2.32.76-4.16.81-1.99.06-4.04-.42-4.43-1.02-.09-.15-.27-.27-.51-1.27-.16-.68-.13-1.22-.12-1.96-6.03,1.12-8.98.36-9.92-.3-.28-.2-.96-1.27-.96-3.56,0-2.05.46-3.9,1.45-4.39s2.64-.63,3.49-.67c2.87-.16,5.97.12,5.97.12,0,0-.47-1.4-.63-2.94-.38-3.53.43-4.74.93-5.31Z"/>
                <path class="cls-4" d="M166.91,101.43c.2-.58,2.64-.71,4.68-.71,3.62,0,5.43.57,5.75,1,0,0,.19.19.29.84.2,1.3.25,2.45.26,3.96,0,1.02-.05,3.66-.05,3.66,0,0,1.18-.07,2.64,0,1.47.07,3.23.29,3.46.68.35.59.49,2.35.5,3.71,0,.95.21,4.13-.54,4.31-1.5.35-5.38.35-5.38.35l.25,4.18s2.35-.11,5.34.25c.45.05.66,1.34.81,2.44.07.52.27,1.79.05,3.68-.05.38-.32.68-5.83,1.02,0,0,.27,4.3-.18,5.61-.01.04-1.56.56-4.34.72-1.18.07-2.37.15-3.89,0-1.67-.16-2.26-.43-2.4-1.06-.5-2.32-.34-5.49-.34-5.49,0,0-4.05.29-5.27-.23-.04-.02-.29-2.58-.31-3.39-.03-1.17.15-3.35.33-3.39,1.94-.43,5.83-.38,5.83-.38l-.29-3.89s-4.18.29-5.44-.01c-.23-.06-.49-.06-.55-.76-.1-1.01-.22-2.83-.24-3.37-.04-1.33,0-1.92.06-3.01.05-.77.46-.95.81-1.02,1.22-.23,3.96-.16,3.96-.16,0,0-.32-2.64-.38-5.31-.02-.9-.09-2.8.41-4.24Z"/>
                <g>
                  <path class="cls-4" d="M196.93,122.53c.11-.29,1.81-.49,2.62-.49,1.63,0,3.1.2,3.26.87.86,3.66.84,12.66-.43,14.17,0,0-.66,1.33-6.04,1.85,0,0-2.25.17-4.31.18-.68,0-2.94-.21-3.53-.47-.71-.32-.75-.27-.98-2.49-.04-.41-.28-3.37.52-3.97.54-.41,2.12-.09,5.63-.29,0,0,2.49-.23,2.62-1.38,0,0,.18-.68.21-3.01.02-1.67.11-4.18.43-4.97Z"/>
                  <path class="cls-4" d="M190.16,125.77c.03,1.27,0,3.15-.11,3.82,0,.03-.92.28-1.85.26s-1.99-.3-2.01-.36c-.16-.47-.28-2.45-.24-4.43.04-1.68-.01-1.38.1-2.19.02-.11.48-.43,1.4-.43s1.94.29,2.51.54c.16.07.17,1.46.2,2.78Z"/>
                  <path class="cls-4" d="M195.35,125.77c.03,1.27,0,3.15-.11,3.82,0,.03-.92.28-1.85.26s-1.99-.3-2.01-.36c-.16-.47-.28-2.45-.24-4.43.04-1.68-.01-1.38.1-2.19.02-.11.48-.43,1.4-.43s1.94.29,2.51.54c.16.07.17,1.46.2,2.78Z"/>
                </g>
                <g>
                  <path class="cls-4" d="M200.19,106.9c3.92-.37,14.94-.72,23.75.18,0,0,1.63,0,1.45,1.75l-.78,4.94-1.93,9.46c1.51,1.91,7.41,8.38,7.78,10.37.09.48-2.41,2.65-5.73,3.8-.71.24-2.52-2.62-6.89-8.63,0,0-4.39,6.28-7.46,9.04-1.18,1.06-6.51-6.45-6.45-8.18,0-.26,10.44-11.09,12.6-13.05,0,0-13.13.14-15.97-.58-.83-.21-.84-2.69-.78-4.88s.09-4.19.42-4.22Z"/>
                  <path class="cls-4" d="M227.13,109.9c.16.99.42,9.02,0,11.01-.09.43-5.2.9-5.33-.57-.05-.54-.15-2.6-.18-5.04s-.02-5.43.25-5.74c1.19-1.4,5.22.07,5.27.34Z"/>
                  <path class="cls-4" d="M233.98,109.9c.16.99.42,9.02,0,11.01-.09.43-5.2.9-5.33-.57-.05-.54-.15-2.6-.18-5.04-.03-2.55-.02-5.43.25-5.74,1.19-1.4,5.22.07,5.27.34Z"/>
                </g>
                <g>
                  <path class="cls-4" d="M154.57,122.53c.11-.29,1.81-.49,2.62-.49,1.63,0,3.1.2,3.26.87.86,3.66.84,12.66-.43,14.17,0,0-.66,1.33-6.04,1.85,0,0-2.25.17-4.31.18-.68,0-2.94-.21-3.53-.47-.71-.32-.75-.27-.98-2.49-.04-.41-.28-3.37.52-3.97.54-.41,2.12-.09,5.63-.29,0,0,2.49-.23,2.62-1.38,0,0,.18-.68.21-3.01.02-1.67.11-4.18.43-4.97Z"/>
                  <path class="cls-9" d="M147.23,122.38s-1.9-.14-2.51,1.94c0,0-1.35-.6-2.1.23,0,0-.27.28-.29.93,0,0-1.95.12-1.89,1.64,0,0-.08,1.34,1.66,1.64,0,0,.09,2.12,2.55,1.13,0,0,1.22.94,2.58.97h-.06c1.36-.03,2.58-.97,2.58-.97,2.46.99,2.55-1.13,2.55-1.13,1.74-.29,1.66-1.64,1.66-1.64.06-1.52-1.89-1.64-1.89-1.64-.02-.65-.29-.93-.29-.93-.75-.82-2.1-.23-2.1-.23-.61-2.08-2.51-1.94-2.51-1.94"/>
                </g>
                <g>
                  <path class="cls-4" d="M110.23,122.53c.11-.29,1.81-.49,2.62-.49,1.63,0,3.1.2,3.26.87.86,3.66.84,12.66-.43,14.17,0,0-.66,1.33-6.04,1.85,0,0-2.25.17-4.31.18-.68,0-2.94-.21-3.53-.47-.71-.32-.75-.27-.98-2.49-.04-.41-.28-3.37.52-3.97.54-.41,2.12-.09,5.63-.29,0,0,2.49-.23,2.62-1.38,0,0,.18-.68.21-3.01.02-1.67.11-4.18.43-4.97Z"/>
                  <g>
                    <circle class="cls-8" cx="103.1" cy="125.63" r="3.98"/>
                    <ellipse class="cls-8" cx="103.1" cy="119.82" rx=".78" ry="1.64"/>
                    <ellipse class="cls-8" cx="103.1" cy="131.44" rx=".78" ry="1.64"/>
                    <ellipse class="cls-8" cx="108.91" cy="125.62" rx="1.64" ry=".78"/>
                    <ellipse class="cls-8" cx="97.3" cy="125.62" rx="1.64" ry=".78"/>
                    <ellipse class="cls-8" cx="107.21" cy="121.52" rx="1.64" ry=".78" transform="translate(-54.52 111.4) rotate(-45)"/>
                    <ellipse class="cls-8" cx="99" cy="129.73" rx="1.64" ry=".78" transform="translate(-62.74 108) rotate(-45)"/>
                    <ellipse class="cls-8" cx="99" cy="121.52" rx=".78" ry="1.64" transform="translate(-56.93 105.59) rotate(-45)"/>
                    <ellipse class="cls-8" cx="107.21" cy="129.74" rx=".78" ry="1.64" transform="translate(-60.34 113.81) rotate(-45)"/>
                  </g>
                </g>
              </g>
            </g>
            <g>
              <path class="cls-12" d="M211.72,173.77c-1.75-.45-3.54-1.3-4.97-2.62-1.06-1.02-1.96-2.37-2.53-3.77-.65-1.71-.99-3.57-1.15-5.41-.25-2.54-.13-5.06.11-7.58.04-.43.16-2.96.16-3.4.16-2.05.44-4.09.96-6.05.28-1.04.69-2.13,1.38-2.92.57-.61,1.42-1,2.2-1.08,1.59-.12,10.55-.54,12.1-.57.98,0,1.92.06,2.85.3.45.14.89.43,1.18.85.37.52.57,1.17.65,1.78.29,1.82-.36,4.7-1.83,5.47-.41.22-.9.34-1.34.32-1.35.04-2.73-.1-4.07-.33-.94-.17-4.23-.95-5.09-.62-.73.29-.97,1.58-.89,2.38.04.36.16.77.41.95.37.33.86.35,1.3.37,1.59.07,3.22-.22,4.84-.2.73-.01,1.55.16,2.08.73.98,1.1.65,3.62.13,4.96-.24.49-.57,1.02-1.06,1.26-.53.28-1.14.29-1.75.25-1.5-.1-2.97-.46-4.48-.69-.49-.03-1.71-.24-2.08.14-.16.21-.16.57-.16.88.04.67.25,1.35.65,1.87.28.38.73.63,1.14.75.9.29,1.79.22,2.64.15,2.11-.25,4.06-1.24,6.14-1.64.69-.18,1.46-.17,2.19.07.53.23,1.06.68,1.42,1.23.41.73.77,1.51.98,2.32.57,1.83.85,3.83.53,5.62-.24,1.19-.81,2.25-1.58,2.99-1.14,1.12-2.72,1.62-4.22,1.95-2.84.58-5.93.07-8.86-.73Z"/>
              <path class="cls-12" d="M211.73,176.73c-1.75-.47-3.54-1.33-4.97-2.66-1.06-1.03-1.96-2.38-2.53-3.79-.65-1.72-.98-3.57-1.15-5.42-.25-2.55-.13-5.06.11-7.58.04-.43.16-2.96.16-3.4.16-2.05.44-4.09.96-6.04.28-1.04.69-2.13,1.38-2.91.57-.6,1.42-.99,2.2-1.06,1.59-.11,10.55-.45,12.1-.46.98.02,1.91.08,2.85.33.45.15.89.43,1.18.86.37.52.57,1.18.65,1.78.28,1.83-.36,4.69-1.83,5.45-.41.21-.89.33-1.34.31-1.34.03-2.73-.13-4.07-.37-.94-.18-4.23-.99-5.09-.66-.73.29-.97,1.57-.89,2.38.04.36.16.77.41.96.37.33.86.36,1.3.38,1.59.08,3.21-.2,4.84-.15.73,0,1.55.17,2.08.75.98,1.11.65,3.62.13,4.96-.24.49-.57,1.01-1.06,1.25-.53.28-1.14.28-1.75.23-1.51-.11-2.97-.49-4.47-.73-.49-.03-1.71-.25-2.07.13-.16.21-.16.57-.16.88.04.67.25,1.35.65,1.88.29.38.73.64,1.14.76.89.3,1.79.24,2.64.17,2.11-.23,4.06-1.2,6.14-1.58.69-.17,1.46-.15,2.19.09.53.23,1.06.7,1.42,1.24.41.74.77,1.52.98,2.33.57,1.83.85,3.84.53,5.63-.24,1.19-.81,2.24-1.58,2.98-1.13,1.11-2.72,1.59-4.22,1.9-2.84.55-5.93.01-8.85-.81Z"/>
              <path class="cls-32" d="M211.72,173.77c-1.75-.45-3.54-1.3-4.97-2.62-1.06-1.02-1.96-2.37-2.53-3.77-.65-1.71-.99-3.57-1.15-5.41-.25-2.54-.13-5.06.11-7.58.04-.43.16-2.96.16-3.4.16-2.05.44-4.09.96-6.05.28-1.04.69-2.13,1.38-2.92.57-.61,1.42-1,2.2-1.08,1.59-.12,10.55-.54,12.1-.57.98,0,1.91.06,2.85.3.45.14.9.43,1.18.85.37.52.57,1.17.65,1.78.29,1.82-.36,4.7-1.83,5.47-.41.22-.89.34-1.34.32-1.34.04-2.73-.1-4.07-.33-.94-.17-4.24-.95-5.09-.62-.73.29-.98,1.58-.89,2.38.04.36.16.77.41.95.37.33.86.35,1.3.37,1.59.07,3.21-.22,4.84-.2.73-.01,1.55.16,2.08.73.98,1.1.65,3.62.13,4.96-.24.49-.57,1.02-1.06,1.26-.53.28-1.14.29-1.75.25-1.5-.1-2.97-.46-4.48-.69-.49-.03-1.71-.24-2.08.14-.16.21-.16.57-.16.88.04.67.25,1.35.65,1.87.28.38.73.63,1.14.75.9.29,1.79.22,2.64.15,2.11-.25,4.06-1.24,6.14-1.64.69-.18,1.46-.17,2.19.07.53.23,1.06.68,1.42,1.23.41.73.77,1.51.98,2.32.57,1.83.85,3.83.53,5.62-.24,1.19-.81,2.25-1.58,2.99-1.14,1.12-2.72,1.62-4.22,1.95-2.84.58-5.93.07-8.86-.73Z"/>
              <path class="cls-12" d="M186.73,172.9c-2.16-.86-4.25-2.39-5.64-4.29-1.72-2.37-2.62-5.31-2.87-8.14-.37-3.41.07-7,1.45-10.09,1.1-2.52,2.89-4.74,4.96-6.48,2.48-2.07,5.98-3.07,9.2-3.05,1.84.01,3.71.37,5.34,1.2.98.49,1.88,1.19,2.53,2.07.33.48.53,1.05.61,1.62.04.78-.16,1.61-.44,2.3-.49,1.16-1.26,2.14-2.11,2.93-.61.54-1.55.73-2.32.62-1.67-.31-3.18-1.34-4.81-1.76-1.26-.33-2.48-.1-3.58.59-1.22.73-2.11,2.06-2.56,3.39-.61,1.87-.36,4.1.38,5.94.29.73.74,1.34,1.27,1.87.74.67,1.67,1.18,2.61,1.39,1.55.42,3.3.26,4.64-.43.69-.35,1.26-.92,1.67-1.58-.86-.05-4.69-.24-5.54-.53-.24-.1-.49-.28-.61-.54-.25-.39-.28-.9-.37-1.37-.21-1.32-.29-3.61.85-4.17,1.06-.48,5.22.1,6.36.19,1.06.09,2.12-.09,3.18,0,.73.03,1.55.06,2.16.57.33.32.74,1.52.82,2,.12.84.05,1.71.05,2.58.05,2.14.13,4.34-.07,6.46-.12,1.35-.36,2.68-.85,3.91-.32.8-.77,1.55-1.38,2.1-.57.52-1.38.75-2.16.94-.94.27-1.91.44-2.89.58-3.22.42-6.72.4-9.87-.81Z"/>
              <path class="cls-12" d="M186.74,175.68c-2.16-.87-4.25-2.42-5.64-4.32-1.72-2.38-2.62-5.32-2.87-8.15-.37-3.41.07-7,1.45-10.09,1.1-2.51,2.89-4.73,4.96-6.46,2.48-2.06,5.99-3.04,9.2-3,1.83.02,3.71.39,5.34,1.24.98.49,1.88,1.2,2.53,2.09.33.49.53,1.06.61,1.63.04.79-.16,1.61-.44,2.29-.49,1.16-1.26,2.13-2.11,2.92-.61.54-1.55.72-2.32.6-1.67-.32-3.18-1.36-4.81-1.79-1.26-.34-2.49-.12-3.58.57-1.22.72-2.12,2.04-2.56,3.37-.61,1.87-.36,4.1.38,5.95.29.73.74,1.34,1.27,1.87.73.67,1.67,1.19,2.61,1.41,1.55.43,3.3.28,4.64-.41.69-.34,1.26-.91,1.67-1.57-.86-.05-4.69-.27-5.54-.57-.24-.1-.49-.28-.61-.54-.25-.39-.29-.9-.37-1.37-.21-1.32-.29-3.61.85-4.16,1.06-.47,5.22.13,6.36.23,1.06.09,2.12-.07,3.18.02.73.04,1.55.08,2.16.59.33.32.74,1.52.82,2.01.13.84.04,1.71.05,2.58.05,2.14.13,4.34-.07,6.46-.12,1.35-.36,2.68-.85,3.9-.32.8-.77,1.54-1.38,2.09-.57.51-1.38.74-2.16.93-.93.26-1.91.43-2.89.56-3.22.4-6.72.36-9.87-.87Z"/>
              <path class="cls-10" d="M186.73,172.9c-2.16-.86-4.25-2.39-5.64-4.29-1.72-2.37-2.62-5.31-2.87-8.14-.37-3.41.07-7,1.45-10.09,1.1-2.51,2.88-4.74,4.96-6.48,2.48-2.07,5.98-3.07,9.2-3.05,1.84.01,3.71.37,5.34,1.2.98.48,1.88,1.19,2.53,2.07.33.48.53,1.05.61,1.62.04.78-.16,1.61-.44,2.3-.49,1.16-1.26,2.14-2.11,2.93-.61.54-1.55.73-2.32.62-1.67-.31-3.18-1.34-4.81-1.76-1.26-.33-2.48-.1-3.58.59-1.22.73-2.12,2.06-2.56,3.39-.61,1.87-.36,4.1.38,5.94.29.73.74,1.34,1.27,1.87.73.67,1.67,1.18,2.61,1.39,1.55.42,3.3.26,4.64-.43.69-.35,1.26-.92,1.67-1.58-.86-.05-4.69-.24-5.54-.53-.24-.1-.49-.28-.61-.54-.25-.39-.29-.9-.37-1.37-.21-1.32-.29-3.61.85-4.17,1.06-.48,5.22.1,6.36.19,1.06.08,2.12-.09,3.18,0,.73.03,1.55.06,2.16.57.33.32.73,1.52.82,2,.12.84.04,1.71.05,2.58.04,2.14.13,4.34-.07,6.46-.12,1.35-.36,2.68-.85,3.91-.32.8-.77,1.55-1.38,2.1-.57.52-1.38.75-2.16.94-.94.27-1.91.44-2.89.58-3.22.42-6.72.4-9.87-.81Z"/>
              <path class="cls-12" d="M153.85,171.65c-.53-.13-1.1-.25-1.59-.58-.33-.2-.57-.57-.69-.9-.24-.65-.29-1.38-.29-2.07,0-6.34.57-12.89,2.98-18.78,1.22-2.92,3.59-5.64,6.44-7.11,3.46-1.74,7.58-1.54,10.88.62,2.37,1.58,4.2,4.15,5.23,6.86,1.84,4.83,2.47,10.14,2.72,15.3.04,1.37.38,5.3-.44,6.3-.98,1.15-4.61,1.06-6.16.96-.73-.03-1.47-.02-2.21-.25-.33-.09-.98-.36-1.06-.69-.2-.75.4-3.85.44-4.58-.82.47-1.75.81-2.73.95-2.33.35-4.86-.2-7.02-1.17.12.69.54,3.27.33,3.92-.12.36-.45.68-.82.88-.53.32-1.18.43-1.84.5-1.39.14-2.78.13-4.17-.16ZM167.48,157.31c.73-.31,1.43-.88,1.87-1.53.41-.61.61-1.38.61-2.12-.04-1.97-1.31-4.66-3.19-5.12-1.59-.38-3.39.46-4.16,1.97-.49.98-.89,2.07-.98,3.17-.04.65,0,1.31.29,1.92.9,2.01,3.51,2.54,5.55,1.71Z"/>
              <path class="cls-12" d="M153.85,174.34c-.53-.13-1.1-.25-1.59-.58-.33-.2-.57-.57-.69-.9-.24-.65-.29-1.38-.29-2.07,0-6.34.57-12.89,2.98-18.77,1.22-2.92,3.59-5.64,6.44-7.1,3.46-1.74,7.58-1.53,10.89.64,2.37,1.58,4.21,4.17,5.23,6.88,1.85,4.84,2.47,10.15,2.72,15.31.04,1.37.38,5.3-.44,6.29-.98,1.15-4.61,1.05-6.16.94-.74-.03-1.47-.02-2.21-.26-.33-.1-.98-.37-1.06-.7-.2-.75.4-3.84.44-4.58-.82.47-1.76.81-2.73.94-2.33.34-4.86-.21-7.03-1.18.12.69.53,3.27.33,3.92-.12.36-.45.68-.82.88-.53.32-1.19.43-1.84.5-1.39.14-2.78.13-4.17-.17ZM167.48,160.03c.73-.31,1.43-.87,1.88-1.52.41-.61.61-1.38.61-2.12-.04-1.97-1.31-4.66-3.19-5.13-1.59-.39-3.38.46-4.16,1.96-.49.97-.9,2.07-.98,3.17-.04.65,0,1.31.29,1.92.9,2.01,3.51,2.54,5.55,1.72Z"/>
              <path class="cls-14" d="M153.85,171.65c-.53-.13-1.1-.25-1.59-.58-.33-.2-.57-.57-.69-.9-.24-.65-.29-1.38-.29-2.07,0-6.34.57-12.89,2.98-18.78,1.22-2.92,3.59-5.64,6.44-7.11,3.46-1.74,7.58-1.54,10.88.62,2.37,1.57,4.21,4.15,5.23,6.86,1.84,4.83,2.47,10.14,2.72,15.3.04,1.37.38,5.3-.44,6.3-.98,1.15-4.61,1.06-6.16.96-.74-.03-1.47-.02-2.21-.25-.33-.09-.98-.36-1.06-.69-.2-.75.4-3.85.44-4.58-.82.47-1.75.81-2.73.95-2.33.35-4.86-.2-7.02-1.17.12.69.53,3.27.33,3.92-.12.36-.45.68-.82.88-.53.32-1.18.43-1.84.5-1.39.14-2.78.13-4.17-.16ZM167.48,157.31c.73-.31,1.43-.88,1.87-1.53.41-.61.61-1.39.61-2.12-.04-1.97-1.31-4.66-3.19-5.12-1.59-.38-3.38.46-4.16,1.97-.49.98-.89,2.07-.98,3.17-.04.65,0,1.31.29,1.92.9,2.01,3.51,2.54,5.55,1.71Z"/>
              <path class="cls-12" d="M136.55,171.63c-.61.01-1.35.03-1.8-.36-.61-.47-.69-2.6-.77-3.33-.89-7.71-1.12-15.58-.22-23.29.12-.86.17-1.8.66-2.54.33-.45.9-.74,1.43-.86,1.83-.5,3.83-.42,5.75-.26,1.06.08,2.16.16,3.02.73,2.04,1.34.94,5.69.4,8.05-.69,3.01-1.19,6.07-1.6,9.12-.25,1.63-.45,3.3-.53,4.93-.08,1.02-.16,2.04.08,2.97.04.28.45.08.74.03,1.47-.26,2.9-.59,4.37-.76.9-.13,2.98-.21,3.64.49.65.73.82,1.91.74,2.93-.04.61-.33,1.38-.94,1.42-4.98.35-9.97.61-14.95.73Z"/>
              <path class="cls-12" d="M136.55,174.34c-.61.02-1.35.04-1.8-.36-.61-.47-.69-2.6-.77-3.33-.89-7.71-1.12-15.58-.22-23.29.12-.86.16-1.8.66-2.54.33-.45.9-.74,1.43-.87,1.84-.5,3.83-.42,5.75-.27,1.06.08,2.16.16,3.02.73,2.04,1.34.94,5.69.4,8.05-.69,3.01-1.19,6.07-1.6,9.12-.25,1.63-.45,3.3-.53,4.93-.08,1.02-.16,2.04.08,2.97.04.28.45.08.74.03,1.47-.26,2.9-.59,4.37-.76.9-.13,2.98-.21,3.64.49.65.73.82,1.91.74,2.93-.04.61-.33,1.38-.94,1.42-4.99.35-9.97.61-14.96.74Z"/>
              <path class="cls-13" d="M136.55,171.63c-.61.01-1.35.03-1.8-.36-.61-.47-.69-2.6-.77-3.33-.89-7.71-1.12-15.58-.22-23.29.12-.86.17-1.8.66-2.54.33-.45.9-.74,1.43-.86,1.84-.49,3.83-.42,5.75-.26,1.06.08,2.16.16,3.02.73,2.04,1.34.94,5.69.4,8.05-.69,3.01-1.19,6.07-1.6,9.12-.25,1.63-.45,3.3-.53,4.93-.08,1.02-.16,2.04.08,2.97.04.28.45.08.74.03,1.47-.26,2.9-.59,4.37-.76.9-.13,2.98-.21,3.64.49.65.73.82,1.91.74,2.93-.04.61-.33,1.38-.94,1.42-4.99.35-9.97.61-14.95.73Z"/>
              <g class="cls-23">
                <path class="cls-24" d="M137.68,170.53c-.06.19-.36.32-.83.31-.46-.01-1.13-.2-1.66-.71-.53-.52-.66-1.17-.56-1.61.11-.45.4-.66.62-.62.22.04.37.26.55.49.17.23.39.52.65.78.51.52,1.36.98,1.23,1.37Z"/>
              </g>
              <path class="cls-12" d="M117.89,172.39c-.61.03-1.35.08-1.79-.31-.61-.47-.69-2.64-.77-3.39-.88-7.88-1.11-15.96-.19-23.86.13-.88.17-1.85.66-2.61.33-.46.9-.76,1.43-.89,1.83-.51,3.83-.44,5.75-.28,1.06.08,2.16.16,3.01.73,2.04,1.35.93,5.76.39,8.17-.7,3.06-1.19,6.17-1.61,9.28-.25,1.66-.45,3.36-.54,5.02-.08,1.04-.17,2.07.08,3.02.04.29.45.07.73.01,1.47-.3,2.9-.68,4.37-.89.9-.15,2.98-.29,3.63.39.65.72.82,1.9.73,2.93-.04.62-.33,1.4-.94,1.46-4.98.52-9.96.94-14.94,1.22Z"/>
              <path class="cls-12" d="M117.88,175.15c-.61.04-1.35.08-1.79-.31-.61-.46-.69-2.64-.77-3.39-.88-7.87-1.11-15.95-.19-23.86.12-.88.17-1.85.66-2.61.33-.46.9-.76,1.43-.9,1.84-.52,3.83-.45,5.75-.3,1.06.07,2.16.15,3.01.72,2.04,1.34.93,5.76.39,8.16-.7,3.07-1.19,6.18-1.61,9.29-.25,1.66-.46,3.36-.54,5.02-.08,1.04-.17,2.08.08,3.02.04.29.45.06.73.01,1.47-.31,2.9-.69,4.37-.91.9-.15,2.98-.3,3.63.38.65.72.81,1.9.73,2.93-.04.62-.33,1.4-.94,1.46-4.98.53-9.96.97-14.94,1.27Z"/>
              <path class="cls-33" d="M117.89,172.38c-.61.03-1.35.08-1.79-.31-.61-.47-.69-2.64-.77-3.39-.88-7.88-1.11-15.96-.19-23.86.12-.88.17-1.85.66-2.61.33-.46.9-.76,1.43-.89,1.84-.51,3.83-.44,5.75-.28,1.06.08,2.16.16,3.01.73,2.04,1.35.93,5.76.39,8.17-.7,3.06-1.19,6.17-1.61,9.28-.25,1.66-.45,3.36-.54,5.02-.08,1.04-.17,2.07.08,3.02.04.29.45.07.73.01,1.47-.3,2.9-.68,4.37-.89.9-.15,2.98-.29,3.63.39.65.72.81,1.9.73,2.93-.04.62-.33,1.4-.94,1.46-4.98.52-9.96.94-14.94,1.22Z"/>
              <path class="cls-12" d="M102.94,172.22c-.77-.93-.81-2.43-.85-3.72-.11-6.28.03-12.59.49-18.89.13-1.64.17-3.28.3-4.91.08-1.12.25-2.41.94-3.32,1.23-1.56,5.18-1.69,7.09-1.36.81.17,1.67.37,2.36.87.49.42.81,1.09.89,1.72.08.59.08,1.18.04,1.76-.13,2.14-.38,4.29-.59,6.44-.17,1.47-.84,9.88-.88,11.36-.04.97-.05,6.2-.18,7.13-.08.64-.29,1.32-.66,1.9-.45.66-1.15,1.13-1.88,1.39-2,.77-5.79,1.21-7.09-.36Z"/>
              <path class="cls-12" d="M102.93,175.07c-.77-.92-.81-2.43-.85-3.72-.11-6.28.03-12.59.49-18.89.12-1.64.17-3.28.3-4.91.08-1.12.25-2.42.94-3.33,1.23-1.57,5.18-1.73,7.09-1.41.81.16,1.67.36,2.36.86.49.42.81,1.08.89,1.71.08.59.08,1.18.04,1.76-.13,2.15-.38,4.29-.59,6.45-.17,1.47-.84,9.88-.88,11.36-.04.97-.06,6.2-.18,7.13-.08.64-.29,1.33-.66,1.9-.45.66-1.15,1.14-1.88,1.4-2,.78-5.79,1.24-7.09-.32Z"/>
              <path class="cls-20" d="M102.94,172.22c-.77-.93-.81-2.43-.85-3.72-.11-6.28.03-12.59.49-18.89.13-1.64.17-3.28.3-4.91.08-1.12.25-2.41.94-3.32,1.23-1.56,5.18-1.69,7.09-1.36.81.17,1.67.37,2.36.87.49.42.81,1.09.89,1.72.08.59.08,1.18.04,1.76-.13,2.14-.38,4.29-.59,6.44-.17,1.47-.84,9.87-.88,11.36-.04.97-.05,6.2-.18,7.13-.08.64-.29,1.32-.66,1.9-.45.66-1.15,1.13-1.88,1.39-2,.77-5.79,1.21-7.09-.36Z"/>
              <path class="cls-21" d="M103.87,146.9c-.22,0-.45-.36-.58-1-.12-.63-.18-1.56.17-2.6.18-.52.47-1.01.84-1.38.37-.37.78-.63,1.16-.76.75-.27,1.24-.17,1.3,0,.08.21-.27.48-.67.88-.4.4-.8.92-1.06,1.7-.27.77-.41,1.57-.58,2.16-.16.6-.35.99-.59,1Z"/>
              <path class="cls-12" d="M84.19,172.9c-1.87-1.24-3.12-3.48-4.18-5.68-2.15-4.52-3.69-9.51-4.75-14.73-.04-.04-.04-.09-.04-.14-.73-2.43-1.38-4.99-1.38-7.57,0-.8.04-1.64.37-2.39.2-.42.53-.76.86-1.04,1.59-1.23,4.32-1.1,5.66.44.49.59.73,1.45.93,2.27.85,3.59,1.54,7.25,3.12,10.38.98,2.08,3.45,4.03,5.53,3.24.86-.36,1.59-1.2,2.12-2.02.77-1.32,1.35-2.8,1.6-4.3.29-1.47,1.28-8.47,1.81-9.83.9-2.11,3.79-2.89,5.46-1.43.37.34.65.77.81,1.29.48,1.59-.59,7.42-.92,9.12-.91,4.48-2.14,8.91-3.69,13.28-.74,2.19-1.6,4.39-2.9,6.3-1.18,1.81-3.06,3.41-5.01,3.79-1.87.42-3.86.01-5.4-.99Z"/>
              <path class="cls-12" d="M84.18,175.9c-1.87-1.23-3.12-3.45-4.18-5.64-2.15-4.5-3.69-9.47-4.74-14.68-.04-.04-.04-.09-.04-.14-.73-2.43-1.38-4.97-1.38-7.55,0-.8.04-1.64.37-2.4.21-.43.53-.76.86-1.05,1.59-1.25,4.32-1.14,5.66.38.49.58.73,1.45.93,2.26.85,3.58,1.54,7.23,3.12,10.35.97,2.07,3.45,4,5.53,3.19.85-.37,1.59-1.21,2.12-2.04.78-1.33,1.35-2.81,1.6-4.31.29-1.47,1.28-8.48,1.81-9.84.9-2.12,3.8-2.92,5.46-1.47.36.34.65.77.81,1.28.48,1.58-.59,7.43-.92,9.13-.91,4.48-2.14,8.92-3.69,13.31-.74,2.19-1.6,4.4-2.9,6.33-1.18,1.82-3.06,3.43-5.01,3.84-1.87.43-3.86.05-5.4-.95Z"/>
              <path class="cls-31" d="M84.19,172.9c-1.87-1.24-3.12-3.48-4.18-5.68-2.15-4.52-3.69-9.51-4.75-14.73-.04-.04-.04-.09-.04-.14-.73-2.43-1.38-4.99-1.38-7.57,0-.8.04-1.64.37-2.4.2-.42.53-.76.86-1.04,1.59-1.23,4.32-1.1,5.66.44.49.59.73,1.45.93,2.27.85,3.59,1.54,7.25,3.12,10.38.98,2.08,3.45,4.03,5.53,3.24.85-.36,1.59-1.2,2.12-2.02.77-1.32,1.35-2.8,1.6-4.3.29-1.47,1.28-8.47,1.81-9.83.9-2.11,3.8-2.89,5.46-1.43.37.34.65.77.81,1.29.48,1.59-.59,7.42-.92,9.12-.91,4.48-2.14,8.91-3.69,13.28-.74,2.19-1.6,4.39-2.9,6.3-1.18,1.81-3.06,3.41-5.01,3.79-1.87.42-3.86.01-5.4-.99Z"/>
              <path class="cls-21" d="M76.33,150.32c-.19.11-.69-.3-1.17-1.19-.48-.89-.92-2.27-.94-3.86-.01-.8.1-1.61.41-2.33.29-.71.85-1.32,1.41-1.58.56-.28,1.13-.27,1.45-.13.32.14.42.33.37.42-.05.11-.23.13-.44.21-.21.07-.48.21-.74.46-.27.26-.47.61-.62,1.11-.14.49-.2,1.1-.19,1.77.02,2.74.87,4.88.46,5.11Z"/>
              <path class="cls-21" d="M96.74,143.4c-.22-.05-.36-.31-.39-.7-.02-.39.05-.95.44-1.53.4-.6,1.09-.98,1.65-.99.28-.01.51.06.64.16.13.1.17.21.15.31-.06.21-.28.35-.44.56-.17.19-.38.44-.6.77-.24.34-.47.74-.72,1.02-.25.29-.51.46-.73.41Z"/>
              <path class="cls-21" d="M116.75,147.44c-.22,0-.45-.35-.58-.98-.12-.62-.18-1.52.17-2.53.18-.5.47-.98.84-1.34.37-.36.78-.62,1.16-.74.75-.26,1.24-.17,1.3,0,.08.2-.27.47-.67.85-.4.39-.8.9-1.06,1.65-.26.75-.41,1.53-.58,2.11-.16.58-.36.96-.59.97Z"/>
              <path class="cls-21" d="M134.78,147.22c-.22,0-.45-.35-.58-.96-.13-.61-.18-1.48.17-2.47.18-.49.47-.96.84-1.31.37-.35.78-.6,1.16-.72.75-.26,1.24-.16,1.3.01.08.2-.27.46-.67.83-.4.38-.8.88-1.06,1.61-.26.73-.41,1.5-.57,2.06-.16.57-.35.94-.58.94Z"/>
              <path class="cls-21" d="M157.45,147.18c-.19-.1-.13-.55.22-1.19.35-.63,1.02-1.44,1.98-2.14.96-.7,2.01-1.13,2.8-1.3.8-.18,1.34-.12,1.4.06.13.39-1.49,1.11-3.14,2.34-1.67,1.2-2.85,2.43-3.26,2.23Z"/>
              <path class="cls-21" d="M155.59,149.98c-.23-.02-.42-.17-.52-.43-.09-.26-.08-.62.12-.96.19-.35.51-.6.8-.69.3-.1.56-.05.71.09.15.15.19.36.18.57-.01.21-.08.43-.2.65-.12.22-.28.41-.46.55-.19.14-.4.24-.63.23Z"/>
              <path class="cls-21" d="M183.12,147.81c-.19-.1-.15-.59.2-1.28.35-.69,1.04-1.56,2.06-2.31,1.01-.75,2.12-1.2,2.97-1.37.85-.17,1.41-.09,1.46.11.11.41-1.64,1.09-3.36,2.4-1.75,1.28-2.9,2.65-3.33,2.45Z"/>
              <path class="cls-21" d="M191.73,157.17c-.21.06-.51-.09-.65-.49-.14-.39-.08-.99.43-1.47.53-.48,1.26-.52,1.66-.38.43.14.58.4.52.59-.06.2-.28.33-.47.46-.21.14-.37.27-.51.4-.14.12-.31.31-.46.48-.16.16-.3.35-.52.41Z"/>
              <path class="cls-21" d="M205.55,147.19c-.22-.01-.44-.4-.54-1.07-.09-.66-.07-1.63.42-2.65.25-.51.6-.95,1.01-1.29.46-.37,1-.53,1.44-.54.45-.01.8.12.99.26.19.14.25.29.21.38-.1.2-.52.21-.95.44-.22.11-.44.27-.61.48-.21.25-.41.57-.59.93-.36.73-.56,1.51-.76,2.09-.19.58-.39.98-.63.96Z"/>
              <path class="cls-21" d="M223.78,162.72c-.21.06-.45,0-.65-.04-.2-.04-.38-.08-.53-.14-.16-.07-.36-.18-.56-.31-.2-.14-.39-.31-.45-.53-.06-.22.03-.45.29-.62.26-.16.72-.25,1.25-.04.53.22.87.67.94,1.03.08.36-.07.59-.28.65Z"/>
              <path class="cls-21" d="M223,142.91c-.22.05-.45-.02-.64-.08-.2-.07-.36-.14-.49-.24-.13-.1-.2-.22-.31-.38-.09-.16-.24-.34-.29-.56-.05-.21.07-.46.39-.58.32-.12.83-.06,1.21.24.39.29.55.73.54,1.03-.02.32-.19.51-.41.56Z"/>
              <path class="cls-21" d="M202.41,157.58c-.21.06-.45.01-.66-.07-.22-.09-.41-.21-.58-.37-.16-.16-.28-.33-.36-.52-.08-.19-.14-.4-.08-.61.06-.2.26-.34.58-.35.31,0,.72.15,1.03.45.31.3.45.66.45.94,0,.28-.15.47-.36.53Z"/>
              <path class="cls-21" d="M169.13,157.81c-.3-.32.2-1.1.76-2.01.59-.9,1.13-1.7,1.59-1.61.22.05.37.33.37.76,0,.43-.15,1.01-.51,1.57-.36.56-.85.98-1.28,1.2-.43.22-.79.24-.94.09Z"/>
              <path class="cls-21" d="M151.36,167.84c-.22.06-.45.03-.63.02-.19-.01-.33-.03-.46-.1-.26-.14-.69-.54-.57-.92.06-.19.22-.34.46-.42.24-.07.6-.07.96.12.37.19.59.52.6.79.01.27-.15.45-.37.51Z"/>
              <path class="cls-21" d="M132.76,168.08c-.22.06-.44.04-.63.04-.19,0-.33-.02-.46-.09-.26-.13-.69-.52-.57-.91.06-.19.22-.35.46-.43.24-.08.59-.09.96.09.37.18.59.51.6.78.02.28-.15.46-.37.52Z"/>
              <path class="cls-21" d="M90.54,159.79c-.26-.35.61-1.34,1.51-2.49.43-.56.82-1.07,1.15-1.5.32-.39.59-.66.81-.62.21.04.35.39.27.96-.07.56-.38,1.32-.93,2.03-.55.71-1.22,1.21-1.75,1.47-.54.27-.94.31-1.07.15Z"/>
              <g class="cls-23">
                <path class="cls-24" d="M88.71,172.6c-.05-.22.5-.54,1.22-1.14.73-.6,1.63-1.5,2.49-2.63.86-1.14,1.56-2.26,2.14-3.06.58-.8,1.03-1.26,1.24-1.18.2.08.13.68-.2,1.6-.33.91-.9,2.17-1.87,3.46-.97,1.29-2.22,2.28-3.25,2.73-1.04.46-1.74.42-1.77.22Z"/>
              </g>
              <g class="cls-23">
                <path class="cls-24" d="M109.26,171.63c-.28-.33.42-1.11,1-1.8.29-.35.52-.68.72-.94.21-.26.39-.48.62-.51.22-.03.47.19.53.64.06.44-.11,1.08-.56,1.63-.46.55-1.02.87-1.43,1.01-.42.14-.74.13-.87-.03Z"/>
              </g>
              <g class="cls-23">
                <path class="cls-24" d="M169.7,165.47c.17.14.16.42-.06.75-.22.33-.65.7-1.26.93-.6.23-1.23.27-1.67.18-.44-.09-.69-.28-.69-.47,0-.2.22-.37.52-.54.31-.16.7-.32,1.14-.49.44-.17.85-.32,1.2-.4.35-.08.66-.1.82.04Z"/>
              </g>
              <g class="cls-23">
                <path class="cls-24" d="M177.17,170.59c-.13-.17-.14-.39-.09-.59.05-.21.15-.41.31-.6.32-.37.8-.64,1.24-.51.21.07.37.26.4.53.03.26-.06.6-.3.89-.24.29-.59.46-.89.5-.3.04-.55-.05-.68-.22Z"/>
              </g>
              <g class="cls-23">
                <path class="cls-24" d="M158.73,170.56c-.15-.15-.21-.34-.23-.5-.02-.17.01-.32.11-.44.19-.23.63-.36,1.07-.23.44.12.64.63.3,1.05-.16.21-.41.33-.65.34-.24.02-.45-.07-.6-.22Z"/>
              </g>
              <g class="cls-23">
                <path class="cls-24" d="M119.35,171.21c-.06.19-.36.34-.83.34-.46,0-1.13-.17-1.66-.68-.53-.52-.66-1.18-.55-1.63.11-.47.4-.69.62-.65.22.04.37.25.55.48.17.23.39.52.65.77.5.52,1.36.96,1.23,1.36Z"/>
              </g>
              <g class="cls-23">
                <path class="cls-24" d="M198.47,171.35c-.06-.21.13-.43.4-.67.28-.24.64-.52,1.03-.85.39-.32.75-.64,1.06-.86.31-.22.59-.36.81-.26.21.09.31.41.22.85-.09.44-.39,1-.93,1.45-.54.45-1.2.67-1.7.68-.51.02-.84-.14-.9-.34Z"/>
              </g>
              <g class="cls-23">
                <path class="cls-24" d="M217.42,157.73c-.03-.22.11-.43.25-.64.14-.21.31-.43.51-.68.2-.25.39-.5.58-.7.19-.2.39-.36.62-.35.22,0,.44.23.52.63.07.39-.01.96-.39,1.44-.36.48-.93.73-1.37.72-.45,0-.7-.21-.73-.42Z"/>
              </g>
              <g class="cls-23">
                <path class="cls-24" d="M221.71,172.49c-.11-.22.1-.51.41-.89.31-.38.73-.86,1.14-1.44.83-1.14,1.33-2.31,1.8-2.21.22.05.38.46.36,1.08-.02.61-.25,1.44-.78,2.17-.52.74-1.23,1.21-1.81,1.39-.59.18-1.01.1-1.11-.1Z"/>
              </g>
            </g>
          </g>
          <g>
            <g>
              <path class="cls-11" d="M83.47,85.78h-1.4c-.27,2.38-.65,4.5-1.11,6.32l-1.99-.41c.31-1.26.58-3.39.71-5.91l-1.43.02-.08,3.01h-2.18v-3.01h-1.46l-.03-2.03h1.5v-1.19h2.35l-.03,1.19,1.46-.02c.02-.44.02-.88.02-1.34l2.59.17-.1,1.17h1.16l.03,2.03Z"/>
              <path class="cls-11" d="M85.82,85.89l-.02-2.03,4.29-.02.02,2.03-4.29.02ZM87.5,90.23c2.47-1.63,4.09-3.1,6.15-5.71l1.86,1.41c-1.96,2.62-3.88,4.48-6.47,6.3l-1.53-2.01Z"/>
              <path class="cls-11" d="M106.81,85.78h-1.4c-.27,2.38-.65,4.5-1.11,6.32l-1.99-.41c.31-1.26.58-3.39.71-5.91l-1.43.02-.08,3.01h-2.18v-3.01h-1.46l-.03-2.03h1.5v-1.19h2.35l-.03,1.19,1.46-.02c.02-.44.02-.88.02-1.34l2.59.17-.1,1.17h1.16l.03,2.03Z"/>
              <path class="cls-11" d="M109.16,85.89l-.02-2.03,4.29-.02.02,2.03-4.29.02ZM110.85,90.23c2.47-1.63,4.09-3.1,6.15-5.71l1.86,1.41c-1.96,2.62-3.88,4.48-6.47,6.3l-1.53-2.01Z"/>
              <path class="cls-11" d="M124.44,92.15l-3.8-4.85,3.58-4.9,2.25,1.48-2.88,3.53,2.69,3.44-1.84,1.31Z"/>
              <path class="cls-11" d="M135.46,88.75l1.84.7c-.73,1.75-1.57,2.57-3.44,2.57-2.16,0-3.34-1.65-3.2-3.83l.02-.15h-1.24l-.02-1.86h1.38l.05-.92h-2.09l-.03-1.86h2.25l.05-.82,2.26.12-.05.68h4.26l.03,1.86-4.41.02-.05.92,3.75-.02.02,1.86-3.88.02-.03.46c-.07,1.12.48,1.74,1.09,1.74.54,0,1.16-.48,1.46-1.48Z"/>
              <path class="cls-11" d="M140.61,89.07c-.39-1.94-.7-3.97-.77-5.93l2.06-.17c.07,1.7.24,3.03.34,4.16l.83-.14.22,1.65-2.69.43ZM144.32,91.74c.58-2.67,1.06-5.33,1.12-8.31l2.26.12c-.29,3.39-.77,6.28-1.41,8.51l-1.98-.32Z"/>
              <path class="cls-11" d="M158.47,90.64c-.99.7-1.87,1.02-2.62,1.02-1.23,0-2.11-.85-2.57-2.21l-1.09.56-.46,1.98-2.11-.32,1.98-9.09,2.28.34-1.09,4.58,1.8-.92c.53,2.04.9,2.84,1.58,2.84.34,0,.75-.21,1.28-.54l1.02,1.77Z"/>
              <path class="cls-11" d="M165.45,90.41l.08,1.63c-.56.11-1.09.17-1.63.17-.41,0-.84-.04-1.28-.1-1.32-.18-2.2-1.16-2.2-2.29,0-.68.3-1.41,1.02-2.07l-1.25-2.38,1.65-.62,1.02,2.04c.72-.34,1.61-.63,2.69-.84l.25,1.75c-2.62.5-3.46,1.41-3.46,2.05,0,.36.26.62.62.69.4.07.72.11,1.06.11.4,0,.83-.05,1.43-.14Z"/>
              <path class="cls-11" d="M171.79,84.21c-.36.62-.81,1.34-1.31,2.05l.81-.03v5.51l-1.86.03-.08-3.86-.43.59-1.63-1.13c.63-.87,2.14-3.22,2.73-4.38l1.76,1.21ZM178.55,89.83v1.32h-1.85l-.03,1.34h-2.01l.12-6.27h-.41c-.25.56-.52,1.12-.8,1.65l-2.04-.58c.73-1.67,1.29-3.4,1.7-5.24l2.41.77c-.14.46-.29.91-.44,1.35h3.32v2.04h-1.72l-.03,1.2h1.76v1.46h-1.79v.95s1.81,0,1.81,0Z"/>
              <path class="cls-11" d="M182.29,90.55c1.67-.18,2.49-.79,2.49-1.28,0-.4-.54-.74-1.63-.74-.61,0-1.41.11-2.37.37l-.3-1.46c1.07-.29,2.01-.43,2.78-.43,2.15,0,3.13.98,3.13,2.07,0,1.27-1.38,2.69-3.86,2.77l-.25-1.3Z"/>
              <path class="cls-11" d="M191.5,92.31c-.95-.63-1.64-1.53-1.64-2.56,0-.8.43-1.68,1.5-2.55l-3.61.03v-1.61h6.28v2.01c-1.63.66-2.25,1.38-2.25,2.03,0,.57.48,1.1,1.18,1.53l-1.47,1.13Z"/>
              <path class="cls-11" d="M198.83,87.43c-.01.91-.25,1.85-.54,2.7,2.48.46,4.63.62,7.26.84l-.4,1.74c-2.69-.29-4.84-.62-7.39-1.18l-.23.58-1.69-.32c.39-1.21.92-3.84,1.13-5.08h-1.16v-1.68h3.06s-.04,2.41-.04,2.41ZM198.77,83.02l-.14,1.54-2.78-.25.14-1.54,2.78.25ZM199.04,89.49c.23-1.39.34-3.13.41-4.75h-.4v-1.63h.85v-1.06h1.28v1.06h.87v1.63h-1.35c-.01.28-.04.57-.06.84h1.61c-.01,1.58-.15,3.43-.34,4.84l-1.5-.15.11-1.28h.41l.12-1.92h-.54c-.1.91-.21,1.79-.33,2.62l-1.16-.19ZM206.14,83.05v1.43h-2.58c-.04.14-.08.29-.14.44l-1.12-.26c.23-1.01.36-1.57.5-2.62l1.31.29c-.06.26-.1.5-.15.72h2.18ZM205.77,86.08l-.62,1.23h.94v1.07h-.84v.21c0,.8-.19,1.65-.52,2.16l-1.71-.39.29-1.05.57.12c.14-.36.21-.65.21-.94v-.12h-1.45v-1.07h1.25l.51-.99h-1.68v-1.16h3.06v.92Z"/>
              <path class="cls-11" d="M209.85,90.4l.63-.03.07,1.57-2.25.15-.44-6.66,1.82-.07.17,5.03ZM215.65,86.74h-1.38l.04.69h1.16l.03,1.35h-1.12c0,.22.01.46.01.73.44.03.76.06,1.16.14l-.22,1.41c-.36-.11-.72-.14-1.03-.14-.18.9-.66,1.5-1.68,1.5-1.19,0-1.74-.74-1.74-1.5,0-.81.65-1.65,1.87-1.58v-.54h-2.05v-1.35s2,0,2,0l-.04-.69h-2.14v-1.41s5.1-.01,5.1-.01l.03,1.41ZM212.99,90.88c0-.19-.17-.36-.36-.36s-.36.17-.36.36.17.36.36.36.36-.17.36-.36ZM214.78,84.76l-1.06.15-.32-1.79,1.18-.17.19,1.8ZM216.16,84.62l-1.03.11-.19-1.83,1.1-.1.12,1.82Z"/>
              <path class="cls-11" d="M219.08,91.5c.88-.95,1.39-1.75,1.39-2.29,0-.47-.4-.74-1.28-.74-.4,0-.91.05-1.53.18l-.25-1.54c.73-.14,1.38-.21,1.94-.21,2.12,0,3.07.9,3.07,2.11,0,1.02-.69,2.27-1.92,3.39l-1.43-.9ZM221.72,86.62l-3.62-.47.21-1.56,3.73.55-.32,1.47Z"/>
              <path class="cls-11" d="M224.52,90.04l-.15-5.22h1.9l-.15,5.22h-1.6ZM224.48,92.27v-1.53h1.67v1.53h-1.67Z"/>
            </g>
            <g>
              <path class="cls-11" d="M84.43,86.22h-1.4c-.27,2.38-.65,4.5-1.11,6.32l-1.99-.41c.31-1.26.58-3.39.71-5.91l-1.43.02-.08,3.01h-2.18v-3.01h-1.46l-.03-2.03h1.5v-1.19h2.35l-.03,1.19,1.46-.02c.02-.44.02-.88.02-1.34l2.59.17-.1,1.17h1.16l.03,2.03Z"/>
              <path class="cls-11" d="M86.78,86.32l-.02-2.03,4.29-.02.02,2.03-4.29.02ZM88.46,90.66c2.47-1.63,4.09-3.1,6.15-5.71l1.86,1.41c-1.96,2.62-3.88,4.48-6.47,6.3l-1.53-2.01Z"/>
              <path class="cls-11" d="M107.77,86.22h-1.4c-.27,2.38-.65,4.5-1.11,6.32l-1.99-.41c.31-1.26.58-3.39.71-5.91l-1.43.02-.08,3.01h-2.18v-3.01h-1.46l-.03-2.03h1.5v-1.19h2.35l-.03,1.19,1.46-.02c.02-.44.02-.88.02-1.34l2.59.17-.1,1.17h1.16l.03,2.03Z"/>
              <path class="cls-11" d="M110.12,86.32l-.02-2.03,4.29-.02.02,2.03-4.29.02ZM111.81,90.66c2.47-1.63,4.09-3.1,6.15-5.71l1.86,1.41c-1.96,2.62-3.88,4.48-6.47,6.3l-1.53-2.01Z"/>
              <path class="cls-11" d="M125.4,92.59l-3.8-4.85,3.58-4.9,2.25,1.48-2.88,3.53,2.69,3.44-1.84,1.31Z"/>
              <path class="cls-11" d="M136.41,89.18l1.84.7c-.73,1.75-1.57,2.57-3.44,2.57-2.16,0-3.34-1.65-3.2-3.83l.02-.15h-1.24l-.02-1.86h1.38l.05-.92h-2.09l-.03-1.86h2.25l.05-.82,2.26.12-.05.68h4.26l.03,1.86-4.41.02-.05.92,3.75-.02.02,1.86-3.88.02-.03.46c-.07,1.12.48,1.74,1.09,1.74.54,0,1.16-.48,1.46-1.48Z"/>
              <path class="cls-11" d="M141.57,89.5c-.39-1.94-.7-3.97-.77-5.93l2.06-.17c.07,1.7.24,3.03.34,4.16l.83-.14.22,1.65-2.69.43ZM145.28,92.18c.58-2.67,1.06-5.33,1.12-8.31l2.26.12c-.29,3.39-.77,6.28-1.41,8.51l-1.98-.32Z"/>
              <path class="cls-11" d="M159.43,91.07c-.99.7-1.87,1.02-2.62,1.02-1.23,0-2.11-.85-2.57-2.21l-1.09.56-.46,1.98-2.11-.32,1.98-9.09,2.28.34-1.09,4.58,1.8-.92c.53,2.04.9,2.84,1.58,2.84.34,0,.75-.21,1.28-.54l1.02,1.77Z"/>
              <path class="cls-11" d="M166.41,90.84l.08,1.63c-.56.11-1.09.17-1.63.17-.41,0-.84-.04-1.28-.1-1.32-.18-2.2-1.16-2.2-2.29,0-.68.3-1.41,1.02-2.07l-1.25-2.38,1.65-.62,1.02,2.04c.72-.34,1.61-.63,2.69-.84l.25,1.75c-2.62.5-3.46,1.41-3.46,2.05,0,.36.26.62.62.69.4.07.72.11,1.06.11.4,0,.83-.05,1.43-.14Z"/>
              <path class="cls-11" d="M172.75,84.64c-.36.62-.81,1.34-1.31,2.05l.81-.03v5.51l-1.86.03-.08-3.86-.43.59-1.63-1.13c.63-.87,2.14-3.22,2.73-4.38l1.76,1.21ZM179.51,90.27v1.32h-1.85l-.03,1.34h-2.01l.12-6.27h-.41c-.25.56-.52,1.12-.8,1.65l-2.04-.58c.73-1.67,1.29-3.4,1.7-5.24l2.41.77c-.14.46-.29.91-.44,1.35h3.32v2.04h-1.72l-.03,1.2h1.76v1.46h-1.79v.95s1.81,0,1.81,0Z"/>
              <path class="cls-11" d="M183.25,90.98c1.67-.18,2.49-.79,2.49-1.28,0-.4-.54-.74-1.63-.74-.61,0-1.41.11-2.37.37l-.3-1.46c1.07-.29,2.01-.43,2.78-.43,2.15,0,3.13.98,3.13,2.07,0,1.27-1.38,2.69-3.86,2.77l-.25-1.3Z"/>
              <path class="cls-11" d="M192.46,92.74c-.95-.63-1.64-1.53-1.64-2.56,0-.8.43-1.68,1.5-2.55l-3.61.03v-1.61h6.28v2.01c-1.63.66-2.25,1.38-2.25,2.03,0,.57.48,1.1,1.18,1.53l-1.47,1.13Z"/>
              <path class="cls-11" d="M199.79,87.87c-.01.91-.25,1.85-.54,2.7,2.48.46,4.63.62,7.26.84l-.4,1.74c-2.69-.29-4.84-.62-7.39-1.18l-.23.58-1.69-.32c.39-1.21.92-3.84,1.13-5.08h-1.16v-1.68h3.06s-.04,2.41-.04,2.41ZM199.72,83.46l-.14,1.54-2.78-.25.14-1.54,2.78.25ZM200,89.92c.23-1.39.34-3.13.41-4.75h-.4v-1.63h.85v-1.06h1.28v1.06h.87v1.63h-1.35c-.01.28-.04.57-.06.84h1.61c-.01,1.58-.15,3.43-.34,4.84l-1.5-.15.11-1.28h.41l.12-1.92h-.54c-.1.91-.21,1.79-.33,2.62l-1.16-.19ZM207.1,83.49v1.43h-2.58c-.04.14-.08.29-.14.44l-1.12-.26c.23-1.01.36-1.57.5-2.62l1.31.29c-.06.26-.1.5-.15.72h2.18ZM206.72,86.52l-.62,1.23h.94v1.07h-.84v.21c0,.8-.19,1.65-.52,2.16l-1.71-.39.29-1.05.57.12c.14-.36.21-.65.21-.94v-.12h-1.45v-1.07h1.25l.51-.99h-1.68v-1.16h3.06v.92Z"/>
              <path class="cls-11" d="M210.81,90.83l.63-.03.07,1.57-2.25.15-.44-6.66,1.82-.07.17,5.03ZM216.61,87.18h-1.38l.04.69h1.16l.03,1.35h-1.12c0,.22.01.46.01.73.44.03.76.06,1.16.14l-.22,1.41c-.36-.11-.72-.14-1.03-.14-.18.9-.66,1.5-1.68,1.5-1.19,0-1.74-.74-1.74-1.5,0-.81.65-1.65,1.87-1.58v-.54h-2.05v-1.35s2,0,2,0l-.04-.69h-2.14v-1.41s5.1-.01,5.1-.01l.03,1.41ZM213.95,91.31c0-.19-.17-.36-.36-.36s-.36.17-.36.36.17.36.36.36.36-.17.36-.36ZM215.74,85.19l-1.06.15-.32-1.79,1.18-.17.19,1.8ZM217.12,85.06l-1.03.11-.19-1.83,1.1-.1.12,1.82Z"/>
              <path class="cls-11" d="M220.03,91.93c.88-.95,1.39-1.75,1.39-2.29,0-.47-.4-.74-1.28-.74-.4,0-.91.05-1.53.18l-.25-1.54c.73-.14,1.38-.21,1.94-.21,2.12,0,3.07.9,3.07,2.11,0,1.02-.69,2.27-1.92,3.39l-1.43-.9ZM222.68,87.05l-3.62-.47.21-1.56,3.73.55-.32,1.47Z"/>
              <path class="cls-11" d="M225.48,90.47l-.15-5.22h1.9l-.15,5.22h-1.6ZM225.44,92.7v-1.53h1.67v1.53h-1.67Z"/>
            </g>
            <g>
              <path class="cls-5" d="M83.47,85.78h-1.4c-.27,2.38-.65,4.5-1.11,6.32l-1.99-.41c.31-1.26.58-3.39.71-5.91l-1.43.02-.08,3.01h-2.18v-3.01h-1.46l-.03-2.03h1.5v-1.19h2.35l-.03,1.19,1.46-.02c.02-.44.02-.88.02-1.34l2.59.17-.1,1.17h1.16l.03,2.03Z"/>
              <path class="cls-5" d="M85.82,85.89l-.02-2.03,4.29-.02.02,2.03-4.29.02ZM87.5,90.23c2.47-1.63,4.09-3.1,6.15-5.71l1.86,1.41c-1.96,2.62-3.88,4.48-6.47,6.3l-1.53-2.01Z"/>
              <path class="cls-5" d="M106.81,85.78h-1.4c-.27,2.38-.65,4.5-1.11,6.32l-1.99-.41c.31-1.26.58-3.39.71-5.91l-1.43.02-.08,3.01h-2.18v-3.01h-1.46l-.03-2.03h1.5v-1.19h2.35l-.03,1.19,1.46-.02c.02-.44.02-.88.02-1.34l2.59.17-.1,1.17h1.16l.03,2.03Z"/>
              <path class="cls-5" d="M109.16,85.89l-.02-2.03,4.29-.02.02,2.03-4.29.02ZM110.85,90.23c2.47-1.63,4.09-3.1,6.15-5.71l1.86,1.41c-1.96,2.62-3.88,4.48-6.47,6.3l-1.53-2.01Z"/>
              <path class="cls-7" d="M124.44,92.15l-3.8-4.85,3.58-4.9,2.25,1.48-2.88,3.53,2.69,3.44-1.84,1.31Z"/>
              <path class="cls-7" d="M135.46,88.75l1.84.7c-.73,1.75-1.57,2.57-3.44,2.57-2.16,0-3.34-1.65-3.2-3.83l.02-.15h-1.24l-.02-1.86h1.38l.05-.92h-2.09l-.03-1.86h2.25l.05-.82,2.26.12-.05.68h4.26l.03,1.86-4.41.02-.05.92,3.75-.02.02,1.86-3.88.02-.03.46c-.07,1.12.48,1.74,1.09,1.74.54,0,1.16-.48,1.46-1.48Z"/>
              <path class="cls-7" d="M140.61,89.07c-.39-1.94-.7-3.97-.77-5.93l2.06-.17c.07,1.7.24,3.03.34,4.16l.83-.14.22,1.65-2.69.43ZM144.32,91.74c.58-2.67,1.06-5.33,1.12-8.31l2.26.12c-.29,3.39-.77,6.28-1.41,8.51l-1.98-.32Z"/>
              <path class="cls-7" d="M158.47,90.64c-.99.7-1.87,1.02-2.62,1.02-1.23,0-2.11-.85-2.57-2.21l-1.09.56-.46,1.98-2.11-.32,1.98-9.09,2.28.34-1.09,4.58,1.8-.92c.53,2.04.9,2.84,1.58,2.84.34,0,.75-.21,1.28-.54l1.02,1.77Z"/>
              <path class="cls-6" d="M165.45,90.41l.08,1.63c-.56.11-1.09.17-1.63.17-.41,0-.84-.04-1.28-.1-1.32-.18-2.2-1.16-2.2-2.29,0-.68.3-1.41,1.02-2.07l-1.25-2.38,1.65-.62,1.02,2.04c.72-.34,1.61-.63,2.69-.84l.25,1.75c-2.62.5-3.46,1.41-3.46,2.05,0,.36.26.62.62.69.4.07.72.11,1.06.11.4,0,.83-.05,1.43-.14Z"/>
              <path class="cls-6" d="M171.79,84.21c-.36.62-.81,1.34-1.31,2.05l.81-.03v5.51l-1.86.03-.08-3.86-.43.59-1.63-1.13c.63-.87,2.14-3.22,2.73-4.38l1.76,1.21ZM178.55,89.83v1.32h-1.85l-.03,1.34h-2.01l.12-6.27h-.41c-.25.56-.52,1.12-.8,1.65l-2.04-.58c.73-1.67,1.29-3.4,1.7-5.24l2.41.77c-.14.46-.29.91-.44,1.35h3.32v2.04h-1.72l-.03,1.2h1.76v1.46h-1.79v.95s1.81,0,1.81,0Z"/>
              <path class="cls-6" d="M182.29,90.55c1.67-.18,2.49-.79,2.49-1.28,0-.4-.54-.74-1.63-.74-.61,0-1.41.11-2.37.37l-.3-1.46c1.07-.29,2.01-.43,2.78-.43,2.15,0,3.13.98,3.13,2.07,0,1.27-1.38,2.69-3.86,2.77l-.25-1.3Z"/>
              <path class="cls-6" d="M191.5,92.31c-.95-.63-1.64-1.53-1.64-2.56,0-.8.43-1.68,1.5-2.55l-3.61.03v-1.61h6.28v2.01c-1.63.66-2.25,1.38-2.25,2.03,0,.57.48,1.1,1.18,1.53l-1.47,1.13Z"/>
              <path class="cls-6" d="M198.83,87.43c-.01.91-.25,1.85-.54,2.7,2.48.46,4.63.62,7.26.84l-.4,1.74c-2.69-.29-4.84-.62-7.39-1.18l-.23.58-1.69-.32c.39-1.21.92-3.84,1.13-5.08h-1.16v-1.68h3.06s-.04,2.41-.04,2.41ZM198.77,83.02l-.14,1.54-2.78-.25.14-1.54,2.78.25ZM199.04,89.49c.23-1.39.34-3.13.41-4.75h-.4v-1.63h.85v-1.06h1.28v1.06h.87v1.63h-1.35c-.01.28-.04.57-.06.84h1.61c-.01,1.58-.15,3.43-.34,4.84l-1.5-.15.11-1.28h.41l.12-1.92h-.54c-.1.91-.21,1.79-.33,2.62l-1.16-.19ZM206.14,83.05v1.43h-2.58c-.04.14-.08.29-.14.44l-1.12-.26c.23-1.01.36-1.57.5-2.62l1.31.29c-.06.26-.1.5-.15.72h2.18ZM205.77,86.08l-.62,1.23h.94v1.07h-.84v.21c0,.8-.19,1.65-.52,2.16l-1.71-.39.29-1.05.57.12c.14-.36.21-.65.21-.94v-.12h-1.45v-1.07h1.25l.51-.99h-1.68v-1.16h3.06v.92Z"/>
              <path class="cls-6" d="M209.85,90.4l.63-.03.07,1.57-2.25.15-.44-6.66,1.82-.07.17,5.03ZM215.65,86.74h-1.38l.04.69h1.16l.03,1.35h-1.12c0,.22.01.46.01.73.44.03.76.06,1.16.14l-.22,1.41c-.36-.11-.72-.14-1.03-.14-.18.9-.66,1.5-1.68,1.5-1.19,0-1.74-.74-1.74-1.5,0-.81.65-1.65,1.87-1.58v-.54h-2.05v-1.35s2,0,2,0l-.04-.69h-2.14v-1.41s5.1-.01,5.1-.01l.03,1.41ZM212.99,90.88c0-.19-.17-.36-.36-.36s-.36.17-.36.36.17.36.36.36.36-.17.36-.36ZM214.78,84.76l-1.06.15-.32-1.79,1.18-.17.19,1.8ZM216.16,84.62l-1.03.11-.19-1.83,1.1-.1.12,1.82Z"/>
              <path class="cls-6" d="M219.08,91.5c.88-.95,1.39-1.75,1.39-2.29,0-.47-.4-.74-1.28-.74-.4,0-.91.05-1.53.18l-.25-1.54c.73-.14,1.38-.21,1.94-.21,2.12,0,3.07.9,3.07,2.11,0,1.02-.69,2.27-1.92,3.39l-1.43-.9ZM221.72,86.62l-3.62-.47.21-1.56,3.73.55-.32,1.47Z"/>
              <path class="cls-6" d="M224.52,90.04l-.15-5.22h1.9l-.15,5.22h-1.6ZM224.48,92.27v-1.53h1.67v1.53h-1.67Z"/>
            </g>
            <g>
              <path class="cls-20" d="M83.47,85.78h-1.4c-.27,2.38-.65,4.5-1.11,6.32l-1.99-.41c.31-1.26.58-3.39.71-5.91l-1.43.02-.08,3.01h-2.18v-3.01h-1.46l-.03-2.03h1.5v-1.19h2.35l-.03,1.19,1.46-.02c.02-.44.02-.88.02-1.34l2.59.17-.1,1.17h1.16l.03,2.03Z"/>
              <path class="cls-20" d="M85.82,85.89l-.02-2.03,4.29-.02.02,2.03-4.29.02ZM87.5,90.23c2.47-1.63,4.09-3.1,6.15-5.71l1.86,1.41c-1.96,2.62-3.88,4.48-6.47,6.3l-1.53-2.01Z"/>
              <path class="cls-20" d="M106.81,85.78h-1.4c-.27,2.38-.65,4.5-1.11,6.32l-1.99-.41c.31-1.26.58-3.39.71-5.91l-1.43.02-.08,3.01h-2.18v-3.01h-1.46l-.03-2.03h1.5v-1.19h2.35l-.03,1.19,1.46-.02c.02-.44.02-.88.02-1.34l2.59.17-.1,1.17h1.16l.03,2.03Z"/>
              <path class="cls-20" d="M109.16,85.89l-.02-2.03,4.29-.02.02,2.03-4.29.02ZM110.85,90.23c2.47-1.63,4.09-3.1,6.15-5.71l1.86,1.41c-1.96,2.62-3.88,4.48-6.47,6.3l-1.53-2.01Z"/>
              <path class="cls-14" d="M124.44,92.15l-3.8-4.85,3.58-4.9,2.25,1.48-2.88,3.53,2.69,3.44-1.84,1.31Z"/>
              <path class="cls-14" d="M135.46,88.75l1.84.7c-.73,1.75-1.57,2.57-3.44,2.57-2.16,0-3.34-1.65-3.2-3.83l.02-.15h-1.24l-.02-1.86h1.38l.05-.92h-2.09l-.03-1.86h2.25l.05-.82,2.26.12-.05.68h4.26l.03,1.86-4.41.02-.05.92,3.75-.02.02,1.86-3.88.02-.03.46c-.07,1.12.48,1.74,1.09,1.74.54,0,1.16-.48,1.46-1.48Z"/>
              <path class="cls-14" d="M140.61,89.07c-.39-1.94-.7-3.97-.77-5.93l2.06-.17c.07,1.7.24,3.03.34,4.16l.83-.14.22,1.65-2.69.43ZM144.32,91.74c.58-2.67,1.06-5.33,1.12-8.31l2.26.12c-.29,3.39-.77,6.28-1.41,8.51l-1.98-.32Z"/>
              <path class="cls-14" d="M158.47,90.64c-.99.7-1.87,1.02-2.62,1.02-1.23,0-2.11-.85-2.57-2.21l-1.09.56-.46,1.98-2.11-.32,1.98-9.09,2.28.34-1.09,4.58,1.8-.92c.53,2.04.9,2.84,1.58,2.84.34,0,.75-.21,1.28-.54l1.02,1.77Z"/>
              <path class="cls-30" d="M165.45,90.41l.08,1.63c-.56.11-1.09.17-1.63.17-.41,0-.84-.04-1.28-.1-1.32-.18-2.2-1.16-2.2-2.29,0-.68.3-1.41,1.02-2.07l-1.25-2.38,1.65-.62,1.02,2.04c.72-.34,1.61-.63,2.69-.84l.25,1.75c-2.62.5-3.46,1.41-3.46,2.05,0,.36.26.62.62.69.4.07.72.11,1.06.11.4,0,.83-.05,1.43-.14Z"/>
              <path class="cls-25" d="M171.79,84.21c-.36.62-.81,1.34-1.31,2.05l.81-.03v5.51l-1.86.03-.08-3.86-.43.59-1.63-1.13c.63-.87,2.14-3.22,2.73-4.38l1.76,1.21ZM178.55,89.83v1.32h-1.85l-.03,1.34h-2.01l.12-6.27h-.41c-.25.56-.52,1.12-.8,1.65l-2.04-.58c.73-1.67,1.29-3.4,1.7-5.24l2.41.77c-.14.46-.29.91-.44,1.35h3.32v2.04h-1.72l-.03,1.2h1.76v1.46h-1.79v.95s1.81,0,1.81,0Z"/>
              <path class="cls-25" d="M182.29,90.55c1.67-.18,2.49-.79,2.49-1.28,0-.4-.54-.74-1.63-.74-.61,0-1.41.11-2.37.37l-.3-1.46c1.07-.29,2.01-.43,2.78-.43,2.15,0,3.13.98,3.13,2.07,0,1.27-1.38,2.69-3.86,2.77l-.25-1.3Z"/>
              <path class="cls-25" d="M191.5,92.31c-.95-.63-1.64-1.53-1.64-2.56,0-.8.43-1.68,1.5-2.55l-3.61.03v-1.61h6.28v2.01c-1.63.66-2.25,1.38-2.25,2.03,0,.57.48,1.1,1.18,1.53l-1.47,1.13Z"/>
              <path class="cls-25" d="M198.83,87.43c-.01.91-.25,1.85-.54,2.7,2.48.46,4.63.62,7.26.84l-.4,1.74c-2.69-.29-4.84-.62-7.39-1.18l-.23.58-1.69-.32c.39-1.21.92-3.84,1.13-5.08h-1.16v-1.68h3.06s-.04,2.41-.04,2.41ZM198.77,83.02l-.14,1.54-2.78-.25.14-1.54,2.78.25ZM199.04,89.49c.23-1.39.34-3.13.41-4.75h-.4v-1.63h.85v-1.06h1.28v1.06h.87v1.63h-1.35c-.01.28-.04.57-.06.84h1.61c-.01,1.58-.15,3.43-.34,4.84l-1.5-.15.11-1.28h.41l.12-1.92h-.54c-.1.91-.21,1.79-.33,2.62l-1.16-.19ZM206.14,83.05v1.43h-2.58c-.04.14-.08.29-.14.44l-1.12-.26c.23-1.01.36-1.57.5-2.62l1.31.29c-.06.26-.1.5-.15.72h2.18ZM205.77,86.08l-.62,1.23h.94v1.07h-.84v.21c0,.8-.19,1.65-.52,2.16l-1.71-.39.29-1.05.57.12c.14-.36.21-.65.21-.94v-.12h-1.45v-1.07h1.25l.51-.99h-1.68v-1.16h3.06v.92Z"/>
              <path class="cls-25" d="M209.85,90.4l.63-.03.07,1.57-2.25.15-.44-6.66,1.82-.07.17,5.03ZM215.65,86.74h-1.38l.04.69h1.16l.03,1.35h-1.12c0,.22.01.46.01.73.44.03.76.06,1.16.14l-.22,1.41c-.36-.11-.72-.14-1.03-.14-.18.9-.66,1.5-1.68,1.5-1.19,0-1.74-.74-1.74-1.5,0-.81.65-1.65,1.87-1.58v-.54h-2.05v-1.35s2,0,2,0l-.04-.69h-2.14v-1.41s5.1-.01,5.1-.01l.03,1.41ZM212.99,90.88c0-.19-.17-.36-.36-.36s-.36.17-.36.36.17.36.36.36.36-.17.36-.36ZM214.78,84.76l-1.06.15-.32-1.79,1.18-.17.19,1.8ZM216.16,84.62l-1.03.11-.19-1.83,1.1-.1.12,1.82Z"/>
              <path class="cls-25" d="M219.08,91.5c.88-.95,1.39-1.75,1.39-2.29,0-.47-.4-.74-1.28-.74-.4,0-.91.05-1.53.18l-.25-1.54c.73-.14,1.38-.21,1.94-.21,2.12,0,3.07.9,3.07,2.11,0,1.02-.69,2.27-1.92,3.39l-1.43-.9ZM221.72,86.62l-3.62-.47.21-1.56,3.73.55-.32,1.47Z"/>
              <path class="cls-25" d="M224.52,90.04l-.15-5.22h1.9l-.15,5.22h-1.6ZM224.48,92.27v-1.53h1.67v1.53h-1.67Z"/>
            </g>
          </g>
        </g>
      </g>
    </g>
  </g>
</svg>