<?xml version="1.0" encoding="UTF-8"?>
<svg id="_レイヤー_2" data-name="レイヤー 2" xmlns="http://www.w3.org/2000/svg" viewBox="0 0 233.79 17.03">
  <defs>
    <style>
      .cls-1 {
        fill: #231815;
      }
    </style>
  </defs>
  <g id="_レイヤー_7" data-name="レイヤー 7">
    <g>
      <path class="cls-1" d="M1.74,13.38c.38.57.87.99,1.46,1.26.59.27,1.21.41,1.84.41.35,0,.71-.05,1.08-.17.37-.11.7-.27,1-.5.3-.22.55-.49.74-.81s.29-.7.29-1.12c0-.6-.19-1.06-.57-1.38s-.85-.58-1.42-.79-1.18-.42-1.85-.62c-.67-.2-1.28-.47-1.85-.83-.57-.35-1.04-.82-1.42-1.42-.38-.59-.57-1.4-.57-2.41,0-.45.1-.94.3-1.45s.51-.98.93-1.41c.43-.43.97-.78,1.64-1.07.67-.29,1.47-.43,2.41-.43.85,0,1.67.12,2.44.35.78.24,1.46.71,2.05,1.43l-1.72,1.56c-.26-.41-.64-.74-1.12-.99-.48-.25-1.03-.37-1.65-.37s-1.07.08-1.46.23-.7.35-.93.59-.4.5-.5.78-.14.54-.14.77c0,.66.19,1.17.57,1.52.38.35.85.64,1.42.86.56.22,1.18.42,1.85.59.67.18,1.28.42,1.85.74.56.32,1.04.74,1.42,1.28.38.54.57,1.27.57,2.21,0,.75-.14,1.42-.43,2.02s-.67,1.11-1.15,1.52c-.48.41-1.06.73-1.72.95-.66.22-1.36.33-2.11.33-1,0-1.94-.18-2.84-.53-.89-.35-1.61-.89-2.13-1.63l1.74-1.5Z"/>
      <path class="cls-1" d="M22.15,16.63h-1.98v-1.61h-.04c-.25.56-.68,1.01-1.3,1.35s-1.33.52-2.13.52c-.51,0-1-.08-1.45-.23-.46-.15-.85-.39-1.2-.71s-.62-.74-.83-1.24-.31-1.1-.31-1.79v-6.71h1.98v6.16c0,.48.07.9.2,1.24s.31.62.53.84.47.37.76.46.58.14.89.14c.41,0,.79-.07,1.14-.2.35-.13.66-.34.92-.63.26-.29.47-.65.62-1.09.15-.44.22-.96.22-1.56v-5.37h1.98v10.43Z"/>
      <path class="cls-1" d="M25.16,6.2h1.98v1.61h.04c.25-.56.68-1.01,1.3-1.35.62-.34,1.33-.52,2.13-.52.5,0,.98.08,1.44.23.46.15.87.39,1.21.71.34.32.62.74.83,1.24s.31,1.1.31,1.79v6.71h-1.98v-6.16c0-.48-.07-.9-.2-1.24-.13-.34-.31-.62-.53-.84-.22-.21-.47-.37-.76-.46-.29-.09-.58-.14-.89-.14-.41,0-.79.07-1.14.2-.35.13-.66.34-.92.63-.26.29-.47.65-.62,1.09-.15.44-.22.96-.22,1.56v5.37h-1.98V6.2Z"/>
      <path class="cls-1" d="M42.9,8.82c-.23-.29-.52-.54-.87-.74s-.77-.3-1.26-.3c-.47,0-.88.1-1.22.3s-.52.49-.52.87c0,.31.1.56.3.75s.43.34.7.46.56.21.87.26c.31.06.57.11.79.15.42.1.83.23,1.2.37s.7.34.97.57.48.52.64.86c.15.34.23.75.23,1.23,0,.59-.12,1.09-.37,1.51-.25.42-.57.76-.97,1.02-.4.26-.85.45-1.35.57s-1.02.18-1.53.18c-.87,0-1.62-.13-2.28-.4-.65-.26-1.24-.75-1.75-1.45l1.5-1.23c.32.32.68.61,1.08.86.4.25.88.37,1.45.37.25,0,.5-.03.76-.08.26-.05.48-.13.68-.24.2-.11.36-.25.48-.42.12-.17.19-.36.19-.58,0-.29-.09-.54-.28-.73-.18-.19-.4-.34-.66-.45-.26-.11-.53-.2-.81-.26s-.54-.12-.76-.17c-.43-.1-.83-.22-1.21-.35-.38-.13-.72-.31-1.01-.53-.29-.22-.53-.5-.7-.84-.18-.34-.26-.76-.26-1.25,0-.54.11-1.02.34-1.42.23-.4.53-.74.9-1,.37-.26.8-.46,1.28-.59.48-.13.96-.2,1.44-.2.7,0,1.38.13,2.02.4s1.16.7,1.54,1.32l-1.54,1.17Z"/>
      <path class="cls-1" d="M56.24,16.63h-1.98v-1.61h-.04c-.25.56-.68,1.01-1.3,1.35s-1.33.52-2.13.52c-.51,0-1-.08-1.45-.23-.46-.15-.85-.39-1.2-.71s-.62-.74-.83-1.24-.31-1.1-.31-1.79v-6.71h1.98v6.16c0,.48.07.9.2,1.24s.31.62.53.84.47.37.76.46.58.14.89.14c.41,0,.79-.07,1.14-.2.35-.13.66-.34.92-.63.26-.29.47-.65.62-1.09.15-.44.22-.96.22-1.56v-5.37h1.98v10.43Z"/>
      <path class="cls-1" d="M59.24,6.2h1.98v1.61h.04c.25-.56.68-1.01,1.3-1.35.62-.34,1.33-.52,2.13-.52.5,0,.98.08,1.44.23.46.15.87.39,1.21.71.34.32.62.74.83,1.24s.31,1.1.31,1.79v6.71h-1.98v-6.16c0-.48-.07-.9-.2-1.24-.13-.34-.31-.62-.53-.84-.22-.21-.47-.37-.76-.46-.29-.09-.58-.14-.89-.14-.41,0-.79.07-1.14.2-.35.13-.66.34-.92.63-.26.29-.47.65-.62,1.09-.15.44-.22.96-.22,1.56v5.37h-1.98V6.2Z"/>
      <path class="cls-1" d="M71.47,0h1.98v10.74l4.49-4.51h2.75l-4.86,4.73,5.28,5.68h-2.82l-4.84-5.41v5.41h-1.98V0Z"/>
      <path class="cls-1" d="M82.54,2.46c0-.4.14-.74.43-1.02s.63-.43,1.02-.43.74.14,1.02.43.43.63.43,1.02-.14.74-.43,1.02-.63.43-1.02.43-.74-.14-1.02-.43-.43-.63-.43-1.02ZM83,6.2h1.98v10.43h-1.98V6.2Z"/>
      <path class="cls-1" d="M98.46,16.63h-1.98v-1.5h-.04c-.38.56-.91.99-1.57,1.3-.67.31-1.35.46-2.06.46-.81,0-1.54-.14-2.19-.42-.65-.28-1.21-.67-1.67-1.17-.46-.5-.82-1.08-1.07-1.74-.25-.66-.37-1.38-.37-2.16s.12-1.5.37-2.17c.25-.67.6-1.25,1.07-1.74.46-.49,1.02-.88,1.67-1.15.65-.28,1.38-.42,2.19-.42.75,0,1.45.16,2.11.47s1.17.74,1.52,1.29h.04V0h1.98v16.63ZM93.04,15.05c.53,0,1-.09,1.43-.27s.78-.43,1.08-.75c.29-.32.52-.7.68-1.14.16-.45.24-.93.24-1.46s-.08-1.02-.24-1.46-.39-.83-.68-1.14c-.29-.32-.65-.56-1.08-.75s-.9-.28-1.43-.28-1,.09-1.43.28c-.42.18-.78.43-1.08.75-.29.32-.52.7-.68,1.14s-.24.93-.24,1.46.08,1.02.24,1.46c.16.45.39.83.68,1.14.29.32.65.56,1.08.75.43.18.9.27,1.43.27Z"/>
      <path class="cls-1" d="M107.01,8.82c-.23-.29-.52-.54-.87-.74s-.77-.3-1.26-.3c-.47,0-.88.1-1.22.3s-.52.49-.52.87c0,.31.1.56.3.75s.43.34.7.46.56.21.87.26c.31.06.57.11.79.15.42.1.83.23,1.2.37s.7.34.97.57.48.52.64.86c.15.34.23.75.23,1.23,0,.59-.12,1.09-.37,1.51-.25.42-.57.76-.97,1.02-.4.26-.85.45-1.35.57s-1.02.18-1.53.18c-.87,0-1.62-.13-2.28-.4-.65-.26-1.24-.75-1.75-1.45l1.5-1.23c.32.32.68.61,1.08.86.4.25.88.37,1.45.37.25,0,.5-.03.76-.08.26-.05.48-.13.68-.24.2-.11.36-.25.48-.42.12-.17.19-.36.19-.58,0-.29-.09-.54-.28-.73-.18-.19-.4-.34-.66-.45-.26-.11-.53-.2-.81-.26s-.54-.12-.76-.17c-.43-.1-.83-.22-1.21-.35-.38-.13-.72-.31-1.01-.53-.29-.22-.53-.5-.7-.84-.18-.34-.26-.76-.26-1.25,0-.54.11-1.02.34-1.42.23-.4.53-.74.9-1,.37-.26.8-.46,1.28-.59.48-.13.96-.2,1.44-.2.7,0,1.38.13,2.02.4s1.16.7,1.54,1.32l-1.54,1.17Z"/>
      <path class="cls-1" d="M121.11,3.04h-5.02v-1.98h12.14v1.98h-5.02v13.6h-2.11V3.04Z"/>
      <path class="cls-1" d="M129.23,1.06h2.44l4.58,12.67h.04l4.75-12.67h2.31l-6.14,15.58h-1.98l-6.01-15.58Z"/>
      <path class="cls-1" d="M151.34,1.06h5.48c1,0,1.82.14,2.46.41.64.27,1.15.62,1.53,1.03s.63.89.78,1.41.22,1.02.22,1.51-.07.99-.22,1.51-.41.99-.78,1.41-.88.76-1.53,1.03c-.65.27-1.47.41-2.46.41h-3.37v6.86h-2.11V1.06ZM153.46,7.92h2.77c.41,0,.82-.03,1.22-.1.4-.07.76-.19,1.08-.36s.57-.43.76-.76c.19-.33.29-.76.29-1.29s-.1-.96-.29-1.29c-.19-.33-.44-.58-.76-.76s-.67-.3-1.08-.36c-.4-.07-.81-.1-1.22-.1h-2.77v5.02Z"/>
      <path class="cls-1" d="M163.79,6.2h1.98v1.61h.04c.13-.28.31-.53.53-.76.22-.23.47-.42.74-.58.27-.16.57-.29.89-.38.32-.09.65-.14.97-.14s.62.04.88.13l-.09,2.13c-.16-.04-.32-.08-.48-.11-.16-.03-.32-.04-.48-.04-.97,0-1.71.27-2.22.81-.51.54-.77,1.39-.77,2.53v5.24h-1.98V6.2Z"/>
      <path class="cls-1" d="M173.17,12.14c0,.45.1.87.3,1.24s.46.69.78.96c.32.26.7.47,1.12.62.42.15.87.22,1.32.22.62,0,1.15-.14,1.61-.43.45-.29.87-.66,1.25-1.13l1.5,1.14c-1.1,1.42-2.64,2.13-4.62,2.13-.82,0-1.57-.14-2.23-.42-.67-.28-1.23-.66-1.69-1.16s-.82-1.07-1.07-1.74c-.25-.67-.37-1.39-.37-2.17s.14-1.5.41-2.17c.27-.67.65-1.25,1.12-1.74.48-.49,1.04-.88,1.71-1.15s1.38-.42,2.16-.42c.92,0,1.71.16,2.34.48.64.32,1.16.75,1.57,1.27.41.52.71,1.11.89,1.76.18.65.27,1.32.27,1.99v.7h-8.36ZM179.42,10.56c-.01-.44-.08-.84-.21-1.21-.12-.37-.31-.68-.56-.96s-.56-.48-.93-.64c-.37-.15-.81-.23-1.31-.23s-.93.09-1.33.27c-.4.18-.74.42-1.02.71-.28.29-.5.62-.65.98-.15.36-.23.71-.23,1.07h6.25Z"/>
      <path class="cls-1" d="M189.41,8.82c-.23-.29-.52-.54-.87-.74s-.77-.3-1.26-.3c-.47,0-.88.1-1.22.3s-.52.49-.52.87c0,.31.1.56.3.75s.43.34.7.46.56.21.87.26c.31.06.57.11.79.15.42.1.83.23,1.2.37s.7.34.97.57.48.52.64.86c.15.34.23.75.23,1.23,0,.59-.12,1.09-.37,1.51-.25.42-.57.76-.97,1.02-.4.26-.85.45-1.35.57s-1.02.18-1.53.18c-.87,0-1.62-.13-2.28-.4-.65-.26-1.24-.75-1.75-1.45l1.5-1.23c.32.32.68.61,1.08.86.4.25.88.37,1.45.37.25,0,.5-.03.76-.08.26-.05.48-.13.68-.24.2-.11.36-.25.48-.42.12-.17.19-.36.19-.58,0-.29-.09-.54-.28-.73-.18-.19-.4-.34-.66-.45-.26-.11-.53-.2-.81-.26s-.54-.12-.76-.17c-.43-.1-.83-.22-1.21-.35-.38-.13-.72-.31-1.01-.53-.29-.22-.53-.5-.7-.84-.18-.34-.26-.76-.26-1.25,0-.54.11-1.02.34-1.42.23-.4.53-.74.9-1,.37-.26.8-.46,1.28-.59.48-.13.96-.2,1.44-.2.7,0,1.38.13,2.02.4s1.16.7,1.54,1.32l-1.54,1.17Z"/>
      <path class="cls-1" d="M195.08,12.14c0,.45.1.87.3,1.24s.46.69.78.96c.32.26.7.47,1.12.62.42.15.87.22,1.32.22.62,0,1.15-.14,1.61-.43.45-.29.87-.66,1.25-1.13l1.5,1.14c-1.1,1.42-2.64,2.13-4.62,2.13-.82,0-1.57-.14-2.23-.42-.67-.28-1.23-.66-1.69-1.16s-.82-1.07-1.07-1.74c-.25-.67-.37-1.39-.37-2.17s.14-1.5.41-2.17c.27-.67.65-1.25,1.12-1.74.48-.49,1.04-.88,1.71-1.15s1.38-.42,2.16-.42c.92,0,1.71.16,2.34.48.64.32,1.16.75,1.57,1.27.41.52.71,1.11.89,1.76.18.65.27,1.32.27,1.99v.7h-8.36ZM201.33,10.56c-.01-.44-.08-.84-.21-1.21-.12-.37-.31-.68-.56-.96s-.56-.48-.93-.64c-.37-.15-.81-.23-1.31-.23s-.93.09-1.33.27c-.4.18-.74.42-1.02.71-.28.29-.5.62-.65.98-.15.36-.23.71-.23,1.07h6.25Z"/>
      <path class="cls-1" d="M205.86,6.2h1.98v1.61h.04c.25-.56.68-1.01,1.3-1.35.62-.34,1.33-.52,2.13-.52.5,0,.98.08,1.44.23.46.15.87.39,1.21.71.34.32.62.74.83,1.24s.31,1.1.31,1.79v6.71h-1.98v-6.16c0-.48-.07-.9-.2-1.24-.13-.34-.31-.62-.53-.84-.22-.21-.47-.37-.76-.46-.29-.09-.58-.14-.89-.14-.41,0-.79.07-1.14.2-.35.13-.66.34-.92.63-.26.29-.47.65-.62,1.09-.15.44-.22.96-.22,1.56v5.37h-1.98V6.2Z"/>
      <path class="cls-1" d="M223.74,7.92h-2.84v4.73c0,.29,0,.58.02.87.01.29.07.54.17.77.1.23.24.41.44.55.2.14.49.21.87.21.23,0,.48-.02.73-.07s.48-.12.68-.24v1.8c-.24.13-.54.22-.91.28-.37.05-.66.08-.87.08-.76,0-1.35-.11-1.77-.32-.42-.21-.73-.49-.92-.83-.2-.34-.32-.71-.35-1.13-.04-.42-.06-.84-.06-1.26v-5.43h-2.29v-1.72h2.29v-2.93h1.98v2.93h2.84v1.72Z"/>
      <path class="cls-1" d="M231.97,8.82c-.23-.29-.52-.54-.87-.74s-.77-.3-1.26-.3c-.47,0-.88.1-1.22.3s-.52.49-.52.87c0,.31.1.56.3.75s.43.34.7.46.56.21.87.26c.31.06.57.11.79.15.42.1.83.23,1.2.37s.7.34.97.57.48.52.64.86c.15.34.23.75.23,1.23,0,.59-.12,1.09-.37,1.51-.25.42-.57.76-.97,1.02-.4.26-.85.45-1.35.57s-1.02.18-1.53.18c-.87,0-1.62-.13-2.28-.4-.65-.26-1.24-.75-1.75-1.45l1.5-1.23c.32.32.68.61,1.08.86.4.25.88.37,1.45.37.25,0,.5-.03.76-.08.26-.05.48-.13.68-.24.2-.11.36-.25.48-.42.12-.17.19-.36.19-.58,0-.29-.09-.54-.28-.73-.18-.19-.4-.34-.66-.45-.26-.11-.53-.2-.81-.26s-.54-.12-.76-.17c-.43-.1-.83-.22-1.21-.35-.38-.13-.72-.31-1.01-.53-.29-.22-.53-.5-.7-.84-.18-.34-.26-.76-.26-1.25,0-.54.11-1.02.34-1.42.23-.4.53-.74.9-1,.37-.26.8-.46,1.28-.59.48-.13.96-.2,1.44-.2.7,0,1.38.13,2.02.4s1.16.7,1.54,1.32l-1.54,1.17Z"/>
    </g>
  </g>
</svg>