<?xml version="1.0" encoding="UTF-8"?>
<svg id="_レイヤー_2" data-name="レイヤー 2" xmlns="http://www.w3.org/2000/svg" viewBox="0 0 218.94 60.47">
  <defs>
    <style>
      .cls-1 {
        fill: #e50012;
        stroke: #231815;
        stroke-linecap: round;
        stroke-linejoin: round;
        stroke-width: 6px;
      }

      .cls-2 {
        fill: #6355a1;
      }
    </style>
  </defs>
  <g id="_ロゴ_" data-name="ロゴ３">
    <g>
      <g>
        <path class="cls-1" d="M57.95,56.21c-1.61-.21-3.36-.7-4.76-1.61-.7-.42-1.33-1.05-1.75-1.75-1.12-2.1-.7-10.99-.77-13.37-.14-5.04-.49-10.08-1.4-15.05-1.05,4.34-2.66,8.61-4.2,12.88-.49,1.4-2.8,8.33-3.57,9.66-1.05,1.75-3.5,2.59-5.46,1.89-1.26-.42-2.31-1.4-3.15-2.38-1.54-1.96-2.73-4.2-3.78-6.44-2.03-4.34-3.85-8.75-5.67-13.16.21,3.36,1.68,20.44,1.33,23.73-.14,1.12-.42,2.31-1.19,3.22-1.19,1.4-3.22,1.96-5.04,2.17-2.52.35-5.11.28-7.63-.21-1.75-.35-3.57-.84-5.04-1.89-.84-.56-1.54-1.4-1.89-2.31-.42-1.12-.56-2.38-.7-3.57-.42-3.85-.28-7.77-.07-11.69.21-4.41.63-8.82,1.26-13.23.28-1.89,1.82-10.85,2.59-12.67.7-1.75,1.96-3.5,3.57-4.48,2.59-1.47,5.81-1.82,8.75-1.47,1.4.14,2.87.42,3.99,1.33.7.63,1.26,1.54,1.61,2.45.91,2.52,5.81,18.2,6.72,20.72.98,2.8,1.96,5.6,3.43,8.12.7,1.12,1.68,2.66,2.73,1.89,1.82-1.26,3.29-7.63,3.78-9.8.56-2.17,3.29-15.26,3.92-17.43.42-1.54,1.26-3.01,2.17-4.27.98-1.4,2.52-2.52,4.2-2.8,2.17-.28,4.48-.49,6.65-.21,1.68.21,3.43.7,4.76,1.68,1.54,1.05,2.66,2.73,3.43,4.41,2.24,5.18,3.08,10.99,3.71,16.66.63,5.25,1.12,10.5,1.05,15.82-.07,3.57-.84,7.63-3.22,10.29-.91.98-2.1,1.61-3.29,2.1-2.17.77-4.69.98-7.07.77Z"/>
        <path class="cls-1" d="M88.51,55.44c-3.01-.42-6.09-1.47-8.54-3.36-1.82-1.47-3.36-3.5-4.34-5.67-1.12-2.66-1.68-5.6-1.96-8.54-.42-4.06-.21-8.12.21-12.18.07-.7.28-4.76.28-5.46.28-3.29.77-6.58,1.68-9.73.49-1.68,1.19-3.43,2.38-4.69.98-.98,2.45-1.61,3.78-1.75,2.73-.21,18.13-.98,20.79-1.05,1.68,0,3.29.07,4.9.42.77.21,1.54.63,2.03,1.26.63.77.98,1.75,1.12,2.66.49,2.73-.63,7.07-3.15,8.33-.7.35-1.54.56-2.31.56-2.31.14-4.69,0-7-.28-1.61-.21-7.28-1.26-8.75-.7-1.26.49-1.68,2.52-1.54,3.78.07.56.28,1.19.7,1.47.63.49,1.47.49,2.24.49,2.73,0,5.53-.56,8.33-.63,1.26-.07,2.66.14,3.57.98,1.68,1.61,1.12,5.46.21,7.56-.42.77-.98,1.61-1.82,2.03-.91.49-1.96.56-3.01.56-2.59,0-5.11-.42-7.7-.63-.84,0-2.94-.21-3.57.42-.28.35-.28.91-.28,1.4.07,1.05.42,2.1,1.12,2.87.49.56,1.26.91,1.96,1.05,1.54.35,3.08.14,4.55-.07,3.64-.63,7-2.38,10.57-3.22,1.19-.35,2.52-.42,3.78-.14.91.28,1.82.91,2.45,1.68.7,1.05,1.33,2.17,1.68,3.36.98,2.66,1.47,5.6.91,8.33-.42,1.82-1.4,3.5-2.73,4.76-1.96,1.89-4.69,2.94-7.28,3.71-4.9,1.4-10.22,1.19-15.26.42Z"/>
        <path class="cls-1" d="M147.83,55.23c-1.96-1.68-2.31-4.62-3.64-6.86-3.92-6.44-7.84-12.95-12.11-19.18-.14,6.93,2.24,13.72,3.01,20.58.14,1.61-.07,3.36-.98,4.62-.91,1.4-2.59,2.24-4.2,2.59-1.89.35-3.85.49-5.81.28-1.68-.14-3.5-.56-4.9-1.54-.77-.56-1.4-1.4-1.75-2.24-2.03-4.55-2.73-9.59-3.08-14.56-.49-8.61-.63-17.57,2.1-25.76.56-1.68,1.4-3.36,2.87-4.27,2.59-1.68,8.05-1.82,10.57-.07,1.54,1.05,2.73,2.66,3.57,4.34,1.26,2.38,7.28,17.08,8.4,19.53,1.82,3.71,3.85,7.35,6.72,10.36-.21-2.8-1.47-20.02-1.61-22.82-.14-2.38-.21-4.83.14-7.14.21-1.47.56-3.01,1.54-4.06,1.47-1.61,6.79-2.59,8.96-2.52,2.17,0,4.13.84,5.6,2.38,1.26,1.26,1.89,3.08,2.31,4.76.84,3.64.91,7.49.84,11.2-.07,4.83-.49,9.73-1.12,14.49-.63,4.9-1.4,10.01-4.06,14.14-2.94,4.55-9.24,5.32-13.37,1.75Z"/>
        <path class="cls-1" d="M185.46,56.42c-3.78-.84-7.56-2.73-10.22-5.53-2.52-2.59-4.2-6.09-5.25-9.59-1.61-5.25-2.03-10.92-1.75-16.38.21-4.2.77-8.47,1.96-12.46.35-1.05.7-2.1,1.33-3.01.7-.98,1.75-1.75,2.87-2.17,2.59-.98,7.35-.63,9.17,1.47.7.84.98,2.1,1.05,3.22.14,1.75-.14,3.5-.42,5.18-.56,2.73-1.4,5.39-1.96,8.12-.42,1.68-.56,3.57-.07,5.25.49,1.54,1.54,2.87,2.87,3.78,4.2,3.08,11.34,2.59,14.98-1.12.84-.91,1.54-2.03,1.89-3.22.56-1.82.49-3.78.35-5.67-.28-3.29-1.05-6.58-1.05-9.94.07-1.33.21-2.73.98-3.78.7-1.05,1.89-1.82,3.08-2.24,2.8-.91,6.72-.49,8.12,2.1.91,1.68,1.4,3.57,1.82,5.46.98,5.04.91,10.43.21,15.61-.7,5.39-2.24,10.92-4.97,15.61-1.61,2.73-3.78,5.25-6.37,7.07-1.96,1.33-4.27,2.24-6.58,2.66-3.92.63-8.12.49-12.04-.42Z"/>
      </g>
      <g>
        <path class="cls-2" d="M57.95,56.21c-1.61-.21-3.36-.7-4.76-1.61-.7-.42-1.33-1.05-1.75-1.75-1.12-2.1-.7-10.99-.77-13.37-.14-5.04-.49-10.08-1.4-15.05-1.05,4.34-2.66,8.61-4.2,12.88-.49,1.4-2.8,8.33-3.57,9.66-1.05,1.75-3.5,2.59-5.46,1.89-1.26-.42-2.31-1.4-3.15-2.38-1.54-1.96-2.73-4.2-3.78-6.44-2.03-4.34-3.85-8.75-5.67-13.16.21,3.36,1.68,20.44,1.33,23.73-.14,1.12-.42,2.31-1.19,3.22-1.19,1.4-3.22,1.96-5.04,2.17-2.52.35-5.11.28-7.63-.21-1.75-.35-3.57-.84-5.04-1.89-.84-.56-1.54-1.4-1.89-2.31-.42-1.12-.56-2.38-.7-3.57-.42-3.85-.28-7.77-.07-11.69.21-4.41.63-8.82,1.26-13.23.28-1.89,1.82-10.85,2.59-12.67.7-1.75,1.96-3.5,3.57-4.48,2.59-1.47,5.81-1.82,8.75-1.47,1.4.14,2.87.42,3.99,1.33.7.63,1.26,1.54,1.61,2.45.91,2.52,5.81,18.2,6.72,20.72.98,2.8,1.96,5.6,3.43,8.12.7,1.12,1.68,2.66,2.73,1.89,1.82-1.26,3.29-7.63,3.78-9.8.56-2.17,3.29-15.26,3.92-17.43.42-1.54,1.26-3.01,2.17-4.27.98-1.4,2.52-2.52,4.2-2.8,2.17-.28,4.48-.49,6.65-.21,1.68.21,3.43.7,4.76,1.68,1.54,1.05,2.66,2.73,3.43,4.41,2.24,5.18,3.08,10.99,3.71,16.66.63,5.25,1.12,10.5,1.05,15.82-.07,3.57-.84,7.63-3.22,10.29-.91.98-2.1,1.61-3.29,2.1-2.17.77-4.69.98-7.07.77Z"/>
        <path class="cls-2" d="M88.51,55.44c-3.01-.42-6.09-1.47-8.54-3.36-1.82-1.47-3.36-3.5-4.34-5.67-1.12-2.66-1.68-5.6-1.96-8.54-.42-4.06-.21-8.12.21-12.18.07-.7.28-4.76.28-5.46.28-3.29.77-6.58,1.68-9.73.49-1.68,1.19-3.43,2.38-4.69.98-.98,2.45-1.61,3.78-1.75,2.73-.21,18.13-.98,20.79-1.05,1.68,0,3.29.07,4.9.42.77.21,1.54.63,2.03,1.26.63.77.98,1.75,1.12,2.66.49,2.73-.63,7.07-3.15,8.33-.7.35-1.54.56-2.31.56-2.31.14-4.69,0-7-.28-1.61-.21-7.28-1.26-8.75-.7-1.26.49-1.68,2.52-1.54,3.78.07.56.28,1.19.7,1.47.63.49,1.47.49,2.24.49,2.73,0,5.53-.56,8.33-.63,1.26-.07,2.66.14,3.57.98,1.68,1.61,1.12,5.46.21,7.56-.42.77-.98,1.61-1.82,2.03-.91.49-1.96.56-3.01.56-2.59,0-5.11-.42-7.7-.63-.84,0-2.94-.21-3.57.42-.28.35-.28.91-.28,1.4.07,1.05.42,2.1,1.12,2.87.49.56,1.26.91,1.96,1.05,1.54.35,3.08.14,4.55-.07,3.64-.63,7-2.38,10.57-3.22,1.19-.35,2.52-.42,3.78-.14.91.28,1.82.91,2.45,1.68.7,1.05,1.33,2.17,1.68,3.36.98,2.66,1.47,5.6.91,8.33-.42,1.82-1.4,3.5-2.73,4.76-1.96,1.89-4.69,2.94-7.28,3.71-4.9,1.4-10.22,1.19-15.26.42Z"/>
        <path class="cls-2" d="M147.83,55.23c-1.96-1.68-2.31-4.62-3.64-6.86-3.92-6.44-7.84-12.95-12.11-19.18-.14,6.93,2.24,13.72,3.01,20.58.14,1.61-.07,3.36-.98,4.62-.91,1.4-2.59,2.24-4.2,2.59-1.89.35-3.85.49-5.81.28-1.68-.14-3.5-.56-4.9-1.54-.77-.56-1.4-1.4-1.75-2.24-2.03-4.55-2.73-9.59-3.08-14.56-.49-8.61-.63-17.57,2.1-25.76.56-1.68,1.4-3.36,2.87-4.27,2.59-1.68,8.05-1.82,10.57-.07,1.54,1.05,2.73,2.66,3.57,4.34,1.26,2.38,7.28,17.08,8.4,19.53,1.82,3.71,3.85,7.35,6.72,10.36-.21-2.8-1.47-20.02-1.61-22.82-.14-2.38-.21-4.83.14-7.14.21-1.47.56-3.01,1.54-4.06,1.47-1.61,6.79-2.59,8.96-2.52,2.17,0,4.13.84,5.6,2.38,1.26,1.26,1.89,3.08,2.31,4.76.84,3.64.91,7.49.84,11.2-.07,4.83-.49,9.73-1.12,14.49-.63,4.9-1.4,10.01-4.06,14.14-2.94,4.55-9.24,5.32-13.37,1.75Z"/>
        <path class="cls-2" d="M185.46,56.42c-3.78-.84-7.56-2.73-10.22-5.53-2.52-2.59-4.2-6.09-5.25-9.59-1.61-5.25-2.03-10.92-1.75-16.38.21-4.2.77-8.47,1.96-12.46.35-1.05.7-2.1,1.33-3.01.7-.98,1.75-1.75,2.87-2.17,2.59-.98,7.35-.63,9.17,1.47.7.84.98,2.1,1.05,3.22.14,1.75-.14,3.5-.42,5.18-.56,2.73-1.4,5.39-1.96,8.12-.42,1.68-.56,3.57-.07,5.25.49,1.54,1.54,2.87,2.87,3.78,4.2,3.08,11.34,2.59,14.98-1.12.84-.91,1.54-2.03,1.89-3.22.56-1.82.49-3.78.35-5.67-.28-3.29-1.05-6.58-1.05-9.94.07-1.33.21-2.73.98-3.78.7-1.05,1.89-1.82,3.08-2.24,2.8-.91,6.72-.49,8.12,2.1.91,1.68,1.4,3.57,1.82,5.46.98,5.04.91,10.43.21,15.61-.7,5.39-2.24,10.92-4.97,15.61-1.61,2.73-3.78,5.25-6.37,7.07-1.96,1.33-4.27,2.24-6.58,2.66-3.92.63-8.12.49-12.04-.42Z"/>
      </g>
    </g>
  </g>
</svg>