<?xml version="1.0" encoding="UTF-8"?>
<svg id="_レイヤー_2" data-name="レイヤー 2" xmlns="http://www.w3.org/2000/svg" viewBox="0 0 277.3 63.67">
  <defs>
    <style>
      .cls-1 {
        fill: #e50012;
        stroke: #231815;
        stroke-linecap: round;
        stroke-linejoin: round;
        stroke-width: 6px;
      }

      .cls-2 {
        fill: #6355a1;
      }
    </style>
  </defs>
  <g id="_ロゴ_" data-name="ロゴ３">
    <g>
      <g>
        <path class="cls-1" d="M57.95,57.64c-1.61-.21-3.36-.7-4.76-1.61-.7-.42-1.33-1.05-1.75-1.75-1.12-2.1-.7-10.99-.77-13.37-.14-5.04-.49-10.08-1.4-15.05-1.05,4.34-2.66,8.61-4.2,12.88-.49,1.4-2.8,8.33-3.57,9.66-1.05,1.75-3.5,2.59-5.46,1.89-1.26-.42-2.31-1.4-3.15-2.38-1.54-1.96-2.73-4.2-3.78-6.44-2.03-4.34-3.85-8.75-5.67-13.16.21,3.36,1.68,20.44,1.33,23.73-.14,1.12-.42,2.31-1.19,3.22-1.19,1.4-3.22,1.96-5.04,2.17-2.52.35-5.11.28-7.63-.21-1.75-.35-3.57-.84-5.04-1.89-.84-.56-1.54-1.4-1.89-2.31-.42-1.12-.56-2.38-.7-3.57-.42-3.85-.28-7.77-.07-11.69.21-4.41.63-8.82,1.26-13.23.28-1.89,1.82-10.85,2.59-12.67.7-1.75,1.96-3.5,3.57-4.48,2.59-1.47,5.81-1.82,8.75-1.47,1.4.14,2.87.42,3.99,1.33.7.63,1.26,1.54,1.61,2.45.91,2.52,5.81,18.2,6.72,20.72.98,2.8,1.96,5.6,3.43,8.12.7,1.12,1.68,2.66,2.73,1.89,1.82-1.26,3.29-7.63,3.78-9.8.56-2.17,3.29-15.26,3.92-17.43.42-1.54,1.26-3.01,2.17-4.27.98-1.4,2.52-2.52,4.2-2.8,2.17-.28,4.48-.49,6.65-.21,1.68.21,3.43.7,4.76,1.68,1.54,1.05,2.66,2.73,3.43,4.41,2.24,5.18,3.08,10.99,3.71,16.66.63,5.25,1.12,10.5,1.05,15.82-.07,3.57-.84,7.63-3.22,10.29-.91.98-2.1,1.61-3.29,2.1-2.17.77-4.69.98-7.07.77Z"/>
        <path class="cls-1" d="M92.07,59.67c-3.36-.63-6.79-1.82-9.66-3.78-2.31-1.61-4.27-3.78-5.81-6.16-3.29-5.18-4.76-11.83-3.99-17.85v-.56c0-2.87.49-5.81,1.61-8.54.28-.63,1.54-3.29,2.03-3.78.14-.49,1.26-2.03,1.54-2.38,1.33-1.82,2.87-3.57,4.76-4.76,1.05-.63,2.1-1.26,3.22-1.68,3.92-1.75,8.47-2.24,12.74-1.89,5.88.56,12.25,3.01,16.24,7.42,2.38,2.52,3.92,5.88,4.83,9.24,1.61,6.44,1.4,13.58-.7,19.88-.98,2.8-2.17,5.6-4.13,7.84-2.52,3.01-6.16,5.32-9.94,6.37-4.06,1.12-8.54,1.4-12.74.63ZM98.65,36.15c2.31-.35,4.69-1.47,6.3-3.22,1.12-1.33,1.61-3.29,1.68-5.11.07-2.1-.91-4.27-2.24-5.88-1.05-1.26-2.52-2.1-3.99-2.8-1.75-.77-3.71-1.05-5.67-.98-1.33,0-2.66.56-3.71,1.4-.84.63-1.54,1.47-2.17,2.38-1.05,1.54-2.03,3.36-2.24,5.25-.28,1.82-.21,3.99.7,5.6.98,1.75,3.01,2.94,4.97,3.29,2.1.35,4.27.35,6.37.07Z"/>
        <path class="cls-1" d="M135.91,54.77c-3.22-2.24-5.39-5.88-7.21-9.38-3.71-7.21-6.37-14.91-8.19-22.82-.07-.07-.07-.14-.07-.21-1.26-3.71-2.38-7.56-2.38-11.41,0-1.19.07-2.45.63-3.57.35-.63.91-1.12,1.47-1.54,2.73-1.82,7.42-1.61,9.73.77.84.91,1.26,2.24,1.61,3.5,1.47,5.53,2.66,11.2,5.39,16.17,1.68,3.29,5.95,6.58,9.52,5.53,1.47-.49,2.73-1.75,3.64-3.01,1.33-2.03,2.31-4.34,2.73-6.72.49-2.31,2.17-13.44,3.08-15.61,1.54-3.36,6.51-4.62,9.38-2.24.63.56,1.12,1.26,1.4,2.1.84,2.59-.98,12.04-1.54,14.77-1.54,7.21-3.64,14.28-6.3,21.14-1.26,3.43-2.73,6.86-4.97,9.73-2.03,2.73-5.25,4.97-8.61,5.25-3.22.35-6.65-.63-9.31-2.45Z"/>
        <path class="cls-1" d="M168.43,56.52c-1.33-1.61-1.4-4.06-1.47-6.16-.21-10.22,0-20.44.77-30.66.21-2.66.28-5.32.49-7.98.14-1.82.42-3.92,1.61-5.39,2.1-2.52,8.89-2.73,12.18-2.17,1.4.28,2.87.63,4.06,1.47.84.7,1.4,1.82,1.54,2.87.14.98.14,1.96.07,2.94-.21,3.57-.63,7.14-.98,10.71-.28,2.45-1.4,16.38-1.47,18.83-.07,1.61-.07,10.29-.28,11.83-.14,1.05-.49,2.17-1.12,3.08-.77,1.05-1.96,1.75-3.22,2.1-3.43,1.05-9.94,1.26-12.18-1.47Z"/>
        <path class="cls-1" d="M204.31,56.87c-3.01-.42-6.09-1.47-8.54-3.36-1.82-1.47-3.36-3.5-4.34-5.67-1.12-2.66-1.68-5.6-1.96-8.54-.42-4.06-.21-8.12.21-12.18.07-.7.28-4.76.28-5.46.28-3.29.77-6.58,1.68-9.73.49-1.68,1.19-3.43,2.38-4.69.98-.98,2.45-1.61,3.78-1.75,2.73-.21,18.13-.98,20.79-1.05,1.68,0,3.29.07,4.9.42.77.21,1.54.63,2.03,1.26.63.77.98,1.75,1.12,2.66.49,2.73-.63,7.07-3.15,8.33-.7.35-1.54.56-2.31.56-2.31.14-4.69,0-7-.28-1.61-.21-7.28-1.26-8.75-.7-1.26.49-1.68,2.52-1.54,3.78.07.56.28,1.19.7,1.47.63.49,1.47.49,2.24.49,2.73,0,5.53-.56,8.33-.63,1.26-.07,2.66.14,3.57.98,1.68,1.61,1.12,5.46.21,7.56-.42.77-.98,1.61-1.82,2.03-.91.49-1.96.56-3.01.56-2.59,0-5.11-.42-7.7-.63-.84,0-2.94-.21-3.57.42-.28.35-.28.91-.28,1.4.07,1.05.42,2.1,1.12,2.87.49.56,1.26.91,1.96,1.05,1.54.35,3.08.14,4.55-.07,3.64-.63,7-2.38,10.57-3.22,1.19-.35,2.52-.42,3.78-.14.91.28,1.82.91,2.45,1.68.7,1.05,1.33,2.17,1.68,3.36.98,2.66,1.47,5.6.91,8.33-.42,1.82-1.4,3.5-2.73,4.76-1.96,1.89-4.69,2.94-7.28,3.71-4.9,1.4-10.22,1.19-15.26.42Z"/>
        <path class="cls-1" d="M234.85,59.95c-3.5-1.96-4.34-8.54-3.57-12.53.21-1.26.7-2.59,1.54-3.64.77-.91,1.96-1.47,3.15-1.68,1.82-.35,3.71-.21,5.53-.14,3.15.07,6.3.07,9.38-.35,1.33-.14,2.66-.42,3.78-1.05.63-.35,1.19-.91,1.33-1.61.49-1.75-1.4-2.73-3.15-3.15-1.89-.56-3.92-.7-5.95-.91-3.71-.49-7.63-.91-11.06-2.45-1.82-.84-3.43-2.17-4.62-3.71-4.34-5.6-4.62-14.49.63-19.18,2.38-2.17,5.74-3.15,8.82-3.78,5.39-1.05,10.92-1.12,16.45-1.05,2.87,0,5.95.21,8.68,1.4,1.47.63,3.01,1.54,3.85,2.94,2.03,3.36,1.12,10.22-1.26,13.3-.91,1.26-2.38,2.17-3.85,2.59-1.89.56-4.06.35-5.88-.28-4.13-1.4-7.63-4.62-11.97-5.25-3.36-.49-7.7.21-7.91,3.64-.14,1.61,1.61,3.5,3.15,4.06.98.35,2.03.49,3.08.7,5.39.91,10.92.98,16.38,1.68,2.8.35,5.67,1.12,7.91,2.8,1.26.84,2.24,2.1,3.01,3.43,1.19,2.17,1.82,4.69,1.96,7.14.21,3.15-.49,6.65-2.24,9.31-1.19,1.75-2.94,3.15-4.76,4.13-3.5,1.89-7.42,2.73-11.27,3.29-5.6.7-11.27.7-16.87,1.05-1.4.07-2.94-.07-4.27-.7Z"/>
      </g>
      <g>
        <path class="cls-2" d="M57.95,57.64c-1.61-.21-3.36-.7-4.76-1.61-.7-.42-1.33-1.05-1.75-1.75-1.12-2.1-.7-10.99-.77-13.37-.14-5.04-.49-10.08-1.4-15.05-1.05,4.34-2.66,8.61-4.2,12.88-.49,1.4-2.8,8.33-3.57,9.66-1.05,1.75-3.5,2.59-5.46,1.89-1.26-.42-2.31-1.4-3.15-2.38-1.54-1.96-2.73-4.2-3.78-6.44-2.03-4.34-3.85-8.75-5.67-13.16.21,3.36,1.68,20.44,1.33,23.73-.14,1.12-.42,2.31-1.19,3.22-1.19,1.4-3.22,1.96-5.04,2.17-2.52.35-5.11.28-7.63-.21-1.75-.35-3.57-.84-5.04-1.89-.84-.56-1.54-1.4-1.89-2.31-.42-1.12-.56-2.38-.7-3.57-.42-3.85-.28-7.77-.07-11.69.21-4.41.63-8.82,1.26-13.23.28-1.89,1.82-10.85,2.59-12.67.7-1.75,1.96-3.5,3.57-4.48,2.59-1.47,5.81-1.82,8.75-1.47,1.4.14,2.87.42,3.99,1.33.7.63,1.26,1.54,1.61,2.45.91,2.52,5.81,18.2,6.72,20.72.98,2.8,1.96,5.6,3.43,8.12.7,1.12,1.68,2.66,2.73,1.89,1.82-1.26,3.29-7.63,3.78-9.8.56-2.17,3.29-15.26,3.92-17.43.42-1.54,1.26-3.01,2.17-4.27.98-1.4,2.52-2.52,4.2-2.8,2.17-.28,4.48-.49,6.65-.21,1.68.21,3.43.7,4.76,1.68,1.54,1.05,2.66,2.73,3.43,4.41,2.24,5.18,3.08,10.99,3.71,16.66.63,5.25,1.12,10.5,1.05,15.82-.07,3.57-.84,7.63-3.22,10.29-.91.98-2.1,1.61-3.29,2.1-2.17.77-4.69.98-7.07.77Z"/>
        <path class="cls-2" d="M92.07,59.67c-3.36-.63-6.79-1.82-9.66-3.78-2.31-1.61-4.27-3.78-5.81-6.16-3.29-5.18-4.76-11.83-3.99-17.85v-.56c0-2.87.49-5.81,1.61-8.54.28-.63,1.54-3.29,2.03-3.78.14-.49,1.26-2.03,1.54-2.38,1.33-1.82,2.87-3.57,4.76-4.76,1.05-.63,2.1-1.26,3.22-1.68,3.92-1.75,8.47-2.24,12.74-1.89,5.88.56,12.25,3.01,16.24,7.42,2.38,2.52,3.92,5.88,4.83,9.24,1.61,6.44,1.4,13.58-.7,19.88-.98,2.8-2.17,5.6-4.13,7.84-2.52,3.01-6.16,5.32-9.94,6.37-4.06,1.12-8.54,1.4-12.74.63ZM98.65,36.15c2.31-.35,4.69-1.47,6.3-3.22,1.12-1.33,1.61-3.29,1.68-5.11.07-2.1-.91-4.27-2.24-5.88-1.05-1.26-2.52-2.1-3.99-2.8-1.75-.77-3.71-1.05-5.67-.98-1.33,0-2.66.56-3.71,1.4-.84.63-1.54,1.47-2.17,2.38-1.05,1.54-2.03,3.36-2.24,5.25-.28,1.82-.21,3.99.7,5.6.98,1.75,3.01,2.94,4.97,3.29,2.1.35,4.27.35,6.37.07Z"/>
        <path class="cls-2" d="M135.91,54.77c-3.22-2.24-5.39-5.88-7.21-9.38-3.71-7.21-6.37-14.91-8.19-22.82-.07-.07-.07-.14-.07-.21-1.26-3.71-2.38-7.56-2.38-11.41,0-1.19.07-2.45.63-3.57.35-.63.91-1.12,1.47-1.54,2.73-1.82,7.42-1.61,9.73.77.84.91,1.26,2.24,1.61,3.5,1.47,5.53,2.66,11.2,5.39,16.17,1.68,3.29,5.95,6.58,9.52,5.53,1.47-.49,2.73-1.75,3.64-3.01,1.33-2.03,2.31-4.34,2.73-6.72.49-2.31,2.17-13.44,3.08-15.61,1.54-3.36,6.51-4.62,9.38-2.24.63.56,1.12,1.26,1.4,2.1.84,2.59-.98,12.04-1.54,14.77-1.54,7.21-3.64,14.28-6.3,21.14-1.26,3.43-2.73,6.86-4.97,9.73-2.03,2.73-5.25,4.97-8.61,5.25-3.22.35-6.65-.63-9.31-2.45Z"/>
        <path class="cls-2" d="M168.43,56.52c-1.33-1.61-1.4-4.06-1.47-6.16-.21-10.22,0-20.44.77-30.66.21-2.66.28-5.32.49-7.98.14-1.82.42-3.92,1.61-5.39,2.1-2.52,8.89-2.73,12.18-2.17,1.4.28,2.87.63,4.06,1.47.84.7,1.4,1.82,1.54,2.87.14.98.14,1.96.07,2.94-.21,3.57-.63,7.14-.98,10.71-.28,2.45-1.4,16.38-1.47,18.83-.07,1.61-.07,10.29-.28,11.83-.14,1.05-.49,2.17-1.12,3.08-.77,1.05-1.96,1.75-3.22,2.1-3.43,1.05-9.94,1.26-12.18-1.47Z"/>
        <path class="cls-2" d="M204.31,56.87c-3.01-.42-6.09-1.47-8.54-3.36-1.82-1.47-3.36-3.5-4.34-5.67-1.12-2.66-1.68-5.6-1.96-8.54-.42-4.06-.21-8.12.21-12.18.07-.7.28-4.76.28-5.46.28-3.29.77-6.58,1.68-9.73.49-1.68,1.19-3.43,2.38-4.69.98-.98,2.45-1.61,3.78-1.75,2.73-.21,18.13-.98,20.79-1.05,1.68,0,3.29.07,4.9.42.77.21,1.54.63,2.03,1.26.63.77.98,1.75,1.12,2.66.49,2.73-.63,7.07-3.15,8.33-.7.35-1.54.56-2.31.56-2.31.14-4.69,0-7-.28-1.61-.21-7.28-1.26-8.75-.7-1.26.49-1.68,2.52-1.54,3.78.07.56.28,1.19.7,1.47.63.49,1.47.49,2.24.49,2.73,0,5.53-.56,8.33-.63,1.26-.07,2.66.14,3.57.98,1.68,1.61,1.12,5.46.21,7.56-.42.77-.98,1.61-1.82,2.03-.91.49-1.96.56-3.01.56-2.59,0-5.11-.42-7.7-.63-.84,0-2.94-.21-3.57.42-.28.35-.28.91-.28,1.4.07,1.05.42,2.1,1.12,2.87.49.56,1.26.91,1.96,1.05,1.54.35,3.08.14,4.55-.07,3.64-.63,7-2.38,10.57-3.22,1.19-.35,2.52-.42,3.78-.14.91.28,1.82.91,2.45,1.68.7,1.05,1.33,2.17,1.68,3.36.98,2.66,1.47,5.6.91,8.33-.42,1.82-1.4,3.5-2.73,4.76-1.96,1.89-4.69,2.94-7.28,3.71-4.9,1.4-10.22,1.19-15.26.42Z"/>
        <path class="cls-2" d="M234.85,59.95c-3.5-1.96-4.34-8.54-3.57-12.53.21-1.26.7-2.59,1.54-3.64.77-.91,1.96-1.47,3.15-1.68,1.82-.35,3.71-.21,5.53-.14,3.15.07,6.3.07,9.38-.35,1.33-.14,2.66-.42,3.78-1.05.63-.35,1.19-.91,1.33-1.61.49-1.75-1.4-2.73-3.15-3.15-1.89-.56-3.92-.7-5.95-.91-3.71-.49-7.63-.91-11.06-2.45-1.82-.84-3.43-2.17-4.62-3.71-4.34-5.6-4.62-14.49.63-19.18,2.38-2.17,5.74-3.15,8.82-3.78,5.39-1.05,10.92-1.12,16.45-1.05,2.87,0,5.95.21,8.68,1.4,1.47.63,3.01,1.54,3.85,2.94,2.03,3.36,1.12,10.22-1.26,13.3-.91,1.26-2.38,2.17-3.85,2.59-1.89.56-4.06.35-5.88-.28-4.13-1.4-7.63-4.62-11.97-5.25-3.36-.49-7.7.21-7.91,3.64-.14,1.61,1.61,3.5,3.15,4.06.98.35,2.03.49,3.08.7,5.39.91,10.92.98,16.38,1.68,2.8.35,5.67,1.12,7.91,2.8,1.26.84,2.24,2.1,3.01,3.43,1.19,2.17,1.82,4.69,1.96,7.14.21,3.15-.49,6.65-2.24,9.31-1.19,1.75-2.94,3.15-4.76,4.13-3.5,1.89-7.42,2.73-11.27,3.29-5.6.7-11.27.7-16.87,1.05-1.4.07-2.94-.07-4.27-.7Z"/>
      </g>
    </g>
  </g>
</svg>