<?xml version="1.0" encoding="UTF-8"?>
<svg id="_レイヤー_2" data-name="レイヤー 2" xmlns="http://www.w3.org/2000/svg" viewBox="0 0 21.5 21.5">
  <defs>
    <style>
      .cls-1 {
        fill: #fff;
      }

      .cls-2 {
        fill: #666;
      }
    </style>
  </defs>
  <g id="_背景" data-name="背景">
    <g>
      <circle class="cls-2" cx="10.75" cy="10.75" r="10.75"/>
      <g>
        <path class="cls-1" d="M17.92,10.12c0-3.21-3.22-5.82-7.18-5.82s-7.18,2.61-7.18,5.82c0,2.88,2.55,5.29,6,5.75.23.05.55.15.63.35.07.18.05.47.02.65,0,0-.08.51-.1.61-.03.18-.14.71.62.39.77-.32,4.13-2.43,5.64-4.17h0c1.04-1.14,1.54-2.3,1.54-3.58Z"/>
        <g>
          <path class="cls-2" d="M15.53,11.98c.08,0,.14-.06.14-.14v-.51c0-.08-.06-.14-.14-.14h-1.37v-.53h1.37c.08,0,.14-.06.14-.14v-.51c0-.08-.06-.14-.14-.14h-1.37v-.53h1.37c.08,0,.14-.06.14-.14v-.51c0-.08-.06-.14-.14-.14h-2.02c-.08,0-.14.06-.14.14h0v3.13h0c0,.08.06.14.14.14h2.02Z"/>
          <path class="cls-2" d="M8.07,11.98c.08,0,.14-.06.14-.14v-.51c0-.08-.06-.14-.14-.14h-1.37v-2.49c0-.08-.06-.14-.14-.14h-.51c-.08,0-.14.06-.14.14v3.13h0c0,.08.06.14.14.14h2.02Z"/>
          <rect class="cls-2" x="8.64" y="8.57" width=".78" height="3.41" rx=".14" ry=".14"/>
          <path class="cls-2" d="M12.75,8.57h-.51c-.08,0-.14.06-.14.14v1.86l-1.43-1.94s0,0-.01-.01c0,0,0,0,0,0,0,0,0,0,0,0,0,0,0,0,0,0,0,0,0,0,0,0,0,0,0,0,0,0,0,0,0,0,0,0,0,0,0,0,0,0,0,0,0,0,0,0,0,0,0,0,0,0,0,0,0,0,0,0,0,0,0,0,0,0,0,0,0,0,0,0,0,0,0,0,0,0,0,0,0,0,0,0,0,0,0,0,0,0,0,0,0,0,0,0,0,0,0,0,0,0,0,0,0,0,0,0h-.51c-.08,0-.14.06-.14.14v3.13c0,.08.06.14.14.14h.51c.08,0,.14-.06.14-.14v-1.86l1.43,1.94s.02.03.04.03c0,0,0,0,0,0,0,0,0,0,0,0,0,0,0,0,0,0,0,0,0,0,0,0,0,0,0,0,0,0,0,0,0,0,0,0,0,0,0,0,0,0,0,0,0,0,0,0,.01,0,.02,0,.04,0h.51c.08,0,.14-.06.14-.14v-3.13c0-.08-.06-.14-.14-.14Z"/>
        </g>
      </g>
    </g>
  </g>
</svg>