<?xml version="1.0" encoding="UTF-8"?>
<svg id="_レイヤー_2" data-name="レイヤー 2" xmlns="http://www.w3.org/2000/svg" viewBox="0 0 19.51 19.51">
  <defs>
    <style>
      .cls-1 {
        fill: #666;
      }
    </style>
  </defs>
  <g id="_背景" data-name="背景">
    <path class="cls-1" d="M5.72.07c-1.04.05-1.75.22-2.37.46-.64.25-1.19.59-1.73,1.13-.54.54-.87,1.09-1.12,1.73-.24.62-.4,1.33-.45,2.37C0,6.79,0,7.13,0,9.78c0,2.65.02,2.98.07,4.02.05,1.04.22,1.75.46,2.37.25.64.59,1.18,1.13,1.73.54.54,1.09.87,1.73,1.12.62.24,1.33.4,2.37.45,1.04.05,1.37.06,4.02.05,2.65,0,2.98-.02,4.02-.07,1.04-.05,1.75-.22,2.37-.46.64-.25,1.19-.59,1.73-1.13.54-.54.87-1.09,1.12-1.73.24-.62.4-1.33.45-2.37.05-1.04.06-1.37.05-4.02,0-2.65-.02-2.98-.07-4.02-.05-1.04-.22-1.75-.46-2.37-.25-.64-.59-1.18-1.13-1.73-.54-.54-1.09-.87-1.73-1.12-.62-.24-1.33-.4-2.37-.45C12.72,0,12.39,0,9.74,0c-2.65,0-2.98.02-4.02.07M5.83,17.71c-.95-.04-1.47-.2-1.81-.33-.46-.18-.78-.39-1.12-.73-.34-.34-.55-.67-.73-1.12-.13-.34-.29-.86-.34-1.81-.05-1.03-.06-1.34-.06-3.94,0-2.6,0-2.91.05-3.94.04-.95.2-1.47.33-1.81.18-.46.39-.78.73-1.12.34-.34.67-.55,1.12-.73.34-.13.86-.29,1.81-.34,1.03-.05,1.34-.06,3.94-.06,2.61,0,2.91,0,3.94.05.95.04,1.47.2,1.81.33.46.18.78.39,1.12.73.34.34.55.66.73,1.12.13.34.29.86.34,1.81.05,1.03.06,1.34.06,3.94,0,2.61,0,2.91-.05,3.94-.04.95-.2,1.47-.33,1.81-.18.46-.39.78-.73,1.12-.34.34-.67.55-1.12.73-.34.13-.86.29-1.81.34-1.03.05-1.34.06-3.94.06-2.6,0-2.91,0-3.94-.05M13.78,4.54c0,.65.53,1.17,1.17,1.17.65,0,1.17-.53,1.17-1.17,0-.65-.53-1.17-1.17-1.17s-1.17.53-1.17,1.17M4.75,9.77c0,2.77,2.25,5.01,5.02,5,2.77,0,5.01-2.25,5-5.02,0-2.77-2.25-5.01-5.02-5-2.77,0-5.01,2.25-5,5.02M6.5,9.76c0-1.8,1.45-3.26,3.25-3.26,1.8,0,3.26,1.45,3.26,3.25,0,1.8-1.45,3.26-3.25,3.26-1.8,0-3.25-1.45-3.26-3.25"/>
  </g>
</svg>