<?xml version="1.0" encoding="UTF-8"?>
<svg id="_レイヤー_2" data-name="レイヤー 2" xmlns="http://www.w3.org/2000/svg" viewBox="0 0 18.87 19.31">
  <defs>
    <style>
      .cls-1 {
        fill: #666;
      }
    </style>
  </defs>
  <g id="_背景" data-name="背景">
    <path class="cls-1" d="M1.68,19.31H.02s.04-.06.06-.08c.12-.14.24-.28.36-.42,1.24-1.45,2.49-2.89,3.73-4.34,1.05-1.22,2.1-2.44,3.14-3.66.02-.02.04-.05.06-.07-.02-.02-.03-.05-.04-.07-.18-.26-.36-.52-.54-.78C4.86,7.07,2.93,4.25,1,1.44.69.99.38.53.06.08c-.02-.02-.04-.04-.06-.06C0,.01,0,0,0,0,.03,0,.05,0,.07,0,1.92,0,3.78,0,5.63,0c.02.02.03.05.05.07,1.02,1.49,2.04,2.98,3.07,4.47.57.83,1.14,1.66,1.71,2.49.02.02.03.04.05.07.04-.04.07-.08.1-.11.95-1.11,1.9-2.21,2.86-3.32,1.03-1.2,2.06-2.4,3.1-3.6.01-.02.02-.04.03-.06.56,0,1.11,0,1.67,0-.01.02-.03.04-.04.06-.51.59-1.02,1.19-1.53,1.78-1.79,2.09-3.59,4.17-5.38,6.26-.02.02-.04.05-.06.07.02.03.03.05.05.08,1.65,2.4,3.3,4.81,4.95,7.21.86,1.26,1.73,2.52,2.59,3.77.02.02.02.05.04.08h-5.6s-.05-.06-.07-.09c-1.66-2.42-3.33-4.85-4.99-7.27-.03-.04-.06-.08-.09-.13-.02.03-.05.05-.07.07-1.08,1.25-2.16,2.51-3.24,3.76-1.03,1.2-2.06,2.4-3.1,3.6-.01.02-.03.04-.04.06ZM2.28,1.26s.05.07.07.1c2.75,3.94,5.5,7.88,8.26,11.82,1.13,1.62,2.26,3.24,3.39,4.85.04.05.08.07.14.07.79,0,1.58,0,2.37,0h.1C12.67,12.48,8.76,6.87,4.84,1.26h-2.56Z"/>
  </g>
</svg>