<?xml version="1.0" encoding="UTF-8"?>
<svg id="_レイヤー_2" data-name="レイヤー 2" xmlns="http://www.w3.org/2000/svg" viewBox="0 0 22.65 15.86">
  <defs>
    <style>
      .cls-1 {
        fill: #fff;
      }

      .cls-2 {
        fill: #666;
      }
    </style>
  </defs>
  <g id="_背景" data-name="背景">
    <g>
      <path class="cls-2" d="M22.18,2.48c-.26-.97-1.03-1.74-2-2-1.77-.47-8.85-.47-8.85-.47,0,0-7.08,0-8.85.47C1.5.73.73,1.5.47,2.48c-.47,1.77-.47,5.45-.47,5.45,0,0,0,3.69.47,5.45.26.97,1.03,1.74,2,2,1.77.47,8.85.47,8.85.47,0,0,7.08,0,8.85-.47.97-.26,1.74-1.03,2-2,.47-1.77.47-5.45.47-5.45,0,0,0-3.69-.47-5.45Z"/>
      <polygon class="cls-1" points="9.06 11.33 9.06 4.53 14.94 7.93 9.06 11.33"/>
    </g>
  </g>
</svg>