<?xml version="1.0" encoding="UTF-8"?>
<svg id="_レイヤー_2" data-name="レイヤー 2" xmlns="http://www.w3.org/2000/svg" viewBox="0 0 21.5 21.5">
  <defs>
    <style>
      .cls-1 {
        fill: #fff;
      }

      .cls-2 {
        fill: #666;
      }
    </style>
  </defs>
  <g id="_背景" data-name="背景">
    <g id="Logo">
      <path id="Initiator" class="cls-2" d="M21.5,10.75C21.5,4.81,16.69,0,10.75,0S0,4.81,0,10.75c0,5.04,3.47,9.27,8.15,10.43v-7.15h-2.22v-3.29h2.22v-1.42c0-3.66,1.66-5.35,5.25-5.35.68,0,1.86.13,2.34.27v2.98c-.25-.03-.69-.04-1.24-.04-1.76,0-2.44.67-2.44,2.4v1.16h3.51l-.6,3.29h-2.91v7.39c5.32-.64,9.45-5.18,9.45-10.67Z"/>
      <path id="F" class="cls-1" d="M14.96,14.04l.6-3.29h-3.51v-1.16c0-1.74.68-2.4,2.44-2.4.55,0,.99.01,1.24.04v-2.98c-.48-.13-1.66-.27-2.34-.27-3.59,0-5.25,1.7-5.25,5.35v1.42h-2.22v3.29h2.22v7.15c.83.21,1.7.32,2.6.32.44,0,.88-.03,1.3-.08v-7.39h2.91Z"/>
    </g>
  </g>
</svg>