<?xml version="1.0" encoding="UTF-8"?>
<svg id="_レイヤー_1" data-name="レイヤー 1" xmlns="http://www.w3.org/2000/svg" viewBox="0 0 256 256">
  <defs>
    <style>
      .cls-1 {
        stroke: #ece83a;
        stroke-width: 2.58px;
      }

      .cls-1, .cls-2, .cls-3, .cls-4, .cls-5, .cls-6 {
        stroke-linecap: round;
        stroke-linejoin: round;
      }

      .cls-1, .cls-3, .cls-4, .cls-5, .cls-6, .cls-7 {
        fill: none;
      }

      .cls-8, .cls-2, .cls-9 {
        fill: #4d5858;
      }

      .cls-2, .cls-9, .cls-3, .cls-4, .cls-5, .cls-6, .cls-7 {
        stroke: #4d5858;
      }

      .cls-2, .cls-3 {
        stroke-width: .64px;
      }

      .cls-9, .cls-4 {
        stroke-width: .93px;
      }

      .cls-9, .cls-7 {
        stroke-miterlimit: 10;
      }

      .cls-5 {
        stroke-width: 1.29px;
      }

      .cls-6, .cls-7 {
        stroke-width: 1.93px;
      }

      .cls-10 {
        fill: #ece83a;
      }

      .cls-11 {
        fill: #fff;
      }
    </style>
  </defs>
  <rect class="cls-11" x="0" width="256" height="256"/>
  <g>
    <path class="cls-11" d="M189.57,178.67c-13.86,0-26.05-7.29-32.95-18.23-1.58-2.51-2.87-5.22-3.85-8.08-.1-.72-.32-1.4-.65-2.02-1.08-2.09-3.23-3.54-5.74-3.54-1.74,0-3.32.7-4.48,1.81-.47.45-.86.99-1.18,1.57-.37.48-.74.95-1.13,1.42-10.83,13.04-27.15,21.36-45.39,21.36-32.53,0-58.99-26.46-58.99-58.99s26.46-58.99,58.99-58.99c29.24,0,53.57,21.39,58.19,49.34.29-.3.6-.59.89-.89h0c-.3.3-.6.59-.89.89.08.51.15,1.03.22,1.55-.01.16-.05.3-.05.46,0,.69.14,1.33.33,1.95.83,2.62,3.25,4.53,6.15,4.53,1.28,0,2.46-.38,3.46-1.02.62-.39,1.16-.9,1.61-1.47,2.27-1.96,4.75-3.69,7.42-5.09,5.39-2.83,11.52-4.44,18.03-4.44,21.47,0,38.93,17.46,38.93,38.93s-17.46,38.93-38.93,38.93Z"/>
    <path class="cls-8" d="M94.13,159.7c-7.55,0-15.19-1.87-22.24-5.81-1.65-.92-2.24-3-1.32-4.65.92-1.65,3-2.23,4.65-1.32,18.72,10.46,42.47,3.75,52.93-14.97.92-1.65,3-2.24,4.65-1.32,1.65.92,2.24,3,1.32,4.65-8.37,14.97-23.96,23.41-40,23.41Z"/>
    <rect class="cls-8" x="87.13" y="19.52" width="14.14" height="26.04"/>
    <path class="cls-8" d="M110.44,32.09h-32.48c-5.21,0-9.43-4.22-9.43-9.43s4.22-9.43,9.43-9.43h32.48c5.21,0,9.43,4.22,9.43,9.43s-4.22,9.43-9.43,9.43Z"/>
    <path class="cls-10" d="M90.25,117.79c-.7-.73-1.21-1.66-1.43-2.72l-7.52-45.94c-.4-1.96.87-3.88,2.84-4.28,1.96-.4,3.88.87,4.28,2.84l11.19,45.19c.6,2.98-1.32,5.88-4.3,6.48-1.91.39-3.79-.27-5.05-1.57Z"/>
    <path class="cls-10" d="M99.61,117.56c-1.29-.03-2.72-.41-3.92-1.33-2.47-1.76-2.73-5.59-.11-7.96,11.61-9.65,28.13-10.55,40.56-2.42,1.95,1.16,2.43,3.62,1.17,5.18-1.26,1.56-3.41,1.93-4.88,1.06-10.41-5.43-22.36-2.99-29.5,4.37-.86.78-2.02,1.12-3.31,1.1Z"/>
    <circle class="cls-10" cx="94.21" cy="113.98" r="10.62" transform="translate(-38.29 179.62) rotate(-76.78)"/>
    <path class="cls-10" d="M186.96,142.25c-.46-.48-.8-1.1-.94-1.8l-4.96-30.32c-.26-1.3.57-2.56,1.87-2.82,1.3-.26,2.56.57,2.82,1.87l7.38,29.83c.4,1.96-.87,3.88-2.84,4.28-1.26.26-2.5-.18-3.33-1.04Z"/>
    <path class="cls-10" d="M193.14,142.1c-.85-.02-1.79-.27-2.59-.88-1.63-1.16-1.8-3.69-.07-5.25,7.66-6.37,18.57-6.96,26.77-1.6,1.29.77,1.6,2.39.77,3.42-.83,1.03-2.25,1.27-3.22.7-6.87-3.58-14.76-1.98-19.47,2.88-.57.51-1.33.74-2.19.73Z"/>
    <circle class="cls-10" cx="189.57" cy="139.73" r="7.01"/>
    <g>
      <path class="cls-8" d="M74.85,143.24c1.18,6.02-2.75,11.85-8.77,13.03"/>
      <path class="cls-8" d="M66.08,159.69c-1.6,0-3.03-1.13-3.35-2.76-.36-1.85.85-3.65,2.7-4.01,4.16-.81,6.89-4.86,6.07-9.02-.36-1.85.85-3.65,2.7-4.01,1.85-.36,3.65.85,4.01,2.7,1.54,7.86-3.61,15.5-11.47,17.04-.22.04-.44.06-.66.06Z"/>
    </g>
    <path class="cls-8" d="M189.62,169.93c-2.76,0-5.53-.38-8.26-1.15-7.76-2.19-14.2-7.28-18.13-14.32-.61-1.09-.22-2.46.87-3.07,1.09-.61,2.46-.22,3.07.87,3.35,5.99,8.82,10.31,15.42,12.18,6.6,1.87,13.53,1.05,19.51-2.29,1.09-.61,2.46-.22,3.07.87.61,1.09.22,2.46-.87,3.07-4.56,2.55-9.59,3.85-14.68,3.85Z"/>
    <rect class="cls-8" x="184.9" y="77.39" width="9.33" height="17.19"/>
    <path class="cls-8" d="M200.29,85.69h-21.43c-3.44,0-6.22-2.79-6.22-6.22s2.79-6.22,6.22-6.22h21.43c3.44,0,6.22,2.79,6.22,6.22s-2.79,6.22-6.22,6.22Z"/>
    <g>
      <path class="cls-8" d="M202.34,159.05c-.78,3.97,1.82,7.82,5.79,8.6"/>
      <path class="cls-8" d="M208.13,169.9c-.14,0-.29-.01-.43-.04-5.19-1.01-8.58-6.06-7.57-11.25.24-1.22,1.41-2.01,2.65-1.78,1.22.24,2.02,1.42,1.78,2.65-.54,2.75,1.26,5.42,4.01,5.95,1.22.24,2.02,1.42,1.78,2.65-.21,1.08-1.15,1.82-2.21,1.82Z"/>
    </g>
    <path class="cls-8" d="M189.57,88.36c-7.29,0-14.23,1.54-20.52,4.29-1.02.44-2.01.93-2.99,1.44.98-.51,1.97-1,2.99-1.44-9.3-32.58-39.32-56.51-74.85-56.51-42.92,0-77.84,34.92-77.84,77.84s34.92,77.84,77.84,77.84c20.92,0,39.92-8.31,53.92-21.78-.64-.88-1.25-1.78-1.83-2.7.59.92,1.19,1.82,1.83,2.7,9.36,12.76,24.45,21.07,41.45,21.07,28.33,0,51.38-23.05,51.38-51.38s-23.05-51.38-51.38-51.38ZM189.57,178.67c-13.86,0-26.05-7.29-32.95-18.23-1.58-2.51-2.87-5.22-3.85-8.08-.1-.72-.32-1.4-.65-2.02-1.08-2.09-3.23-3.54-5.74-3.54-1.74,0-3.32.7-4.48,1.81-.47.45-.86.99-1.18,1.57-.37.48-.74.95-1.13,1.42-10.83,13.04-27.15,21.36-45.39,21.36-32.53,0-58.99-26.46-58.99-58.99s26.46-58.99,58.99-58.99c29.24,0,53.57,21.39,58.19,49.34.29-.3.6-.59.89-.89h0c-.3.3-.6.59-.89.89.08.51.15,1.03.22,1.55-.01.16-.05.3-.05.46,0,.69.14,1.33.33,1.95.83,2.62,3.25,4.53,6.15,4.53,1.28,0,2.46-.38,3.46-1.02.62-.39,1.16-.9,1.61-1.47,2.27-1.96,4.75-3.69,7.42-5.09,5.39-2.83,11.52-4.44,18.03-4.44,21.47,0,38.93,17.46,38.93,38.93s-17.46,38.93-38.93,38.93Z"/>
  </g>
  <g>
    <rect class="cls-8" x="235.71" y="203.16" width="4.38" height="8.85"/>
    <polygon class="cls-10" points="245.58 205.79 247.39 213.03 234.23 213.03 245.58 205.79"/>
    <g>
      <rect class="cls-8" x="23.52" y="211.9" width="5.99" height="1.84" rx=".91" ry=".91"/>
      <path class="cls-8" d="M20.58,229.75c0,.5.41.91.91.91h9.98c.5,0,.91-.41.91-.91v-23.62c0-.5-.41-.91-.91-.91h-9.98c-.5,0-.91.41-.91.91v23.62ZM29.64,207.11c.5,0,.91.41.91.91v19.89c0,.5-.41.91-.91.91h-6.3c-.5,0-.91-.41-.91-.91v-19.89c0-.5.41-.91.91-.91h6.3Z"/>
      <rect class="cls-8" x="23.52" y="217.95" width="5.99" height="1.84" rx=".91" ry=".91"/>
      <path class="cls-8" d="M14.37,203.61c0-.5-.41-.91-.91-.91h-.01c-.5,0-.91.41-.91.91v3.99c0,.5-.41.91-.91.91h-2.56c-.5,0-.91.41-.91.91h0c0,.51.41.93.91.93h8.83c.5,0,.91-.41.91-.91h0c0-.51-.41-.93-.91-.93h-2.61c-.5,0-.91-.41-.91-.91v-3.99Z"/>
      <rect class="cls-8" x="9.81" y="211.73" width="1.84" height="5.22" rx=".91" ry=".91"/>
      <path class="cls-8" d="M8.14,219.07c0,.5.41.91.91.91h2.56c.5,0,.91.41.91.91v6.2c0,.5-.41.91-.91.91h-2.56c-.5,0-.91.41-.91.91h0c0,.52.41.93.91.93h2.31c.5,0,.8.4.66.88l-3.35,11.78c-.14.48.15.99.63,1.12s.99-.15,1.13-.63l1.84-6.45c.14-.48.25-.47.25.03v7.86c0,.5.41.91.91.91h.01c.5,0,.91-.41.91-.91v-8.04c0-.5.11-.52.25-.04l1.83,6.4c.14.48.65.77,1.14.65h.04c.49-.14.77-.64.63-1.12l-3.34-11.55c-.14-.48.16-.88.66-.88h2.31c.5,0,.91-.41.91-.91h0c0-.52-.41-.93-.91-.93h-2.61c-.5,0-.91-.41-.91-.91v-6.2c0-.5.41-.91.91-.91h2.61c.5,0,.91-.41.91-.91h0c0-.51-.41-.93-.91-.93h-8.83c-.5,0-.91.41-.91.91h0Z"/>
      <rect class="cls-8" x="15.39" y="211.73" width="1.84" height="5.22" rx=".91" ry=".91"/>
      <path class="cls-8" d="M50.51,215.63c0-.5.3-1.19.67-1.53l5.44-4.97c.37-.34.26-.62-.24-.62h-11.43c-.5,0-.91.41-.91.91h0c0,.52.41.93.91.93h6.68c.5,0,.61.28.24.61l-2.53,2.29c-.37.34-.68,1.02-.68,1.53v8.45c0,.5-.41.91-.91.91h-7.38c-.5,0-.91.41-.91.91h0c0,.51.41.93.91.93h7.84c.5,0,.91-.11.91-.23s.2-.23.45-.23h.45s0,.11,0,.23.41.23.91.23h7.7c.5,0,.91-.41.91-.91h0c0-.51-.41-.93-.91-.93h-7.23c-.5,0-.91-.41-.91-.91v-7.61Z"/>
      <path class="cls-8" d="M167.15,205.77c0,.5.41.91.91.91h1.6c.5,0,.91.41.91.91v6.35c0,.5-.41.91-.91.91h-1.6c-.5,0-.91.41-.91.91h0c0,.51.41.93.91.93h1.6c.5,0,.91.41.91.91v26.83c0,.5.41.91.91.91h.01c.5,0,.91-.41.91-.91v-26.83c0-.5.41-.91.91-.91h2.53c.5,0,.91.41.91.91v26.83c0,.5.41.91.91.91h.01c.5,0,.91-.41.91-.91v-26.83c0-.5.41-.91.91-.91h2.08c.5,0,.91-.41.91-.91h0c0-.51-.41-.93-.91-.93h-2.08c-.5,0-.91-.41-.91-.91v-6.35c0-.5.41-.91.91-.91h2.08c.5,0,.91-.41.91-.91h0c0-.51-.41-.93-.91-.93h-13.55c-.5,0-.91.41-.91.91h0ZM173.33,214.85c-.5,0-.91-.41-.91-.91v-6.35c0-.5.41-.91.91-.91h2.53c.5,0,.91.41.91.91v6.35c0,.5-.41.91-.91.91h-2.53Z"/>
      <path class="cls-8" d="M153.42,207.25c0,.5.41.91.91.91h2.75c.5,0,.81.4.68.88l-6.57,25.07c-.13.49.16.99.65,1.13s.98-.15,1.11-.64l6.68-25.56c.13-.49.64-.88,1.14-.88h4.38c.5,0,.91-.41.91-.91h0c0-.52-.41-.93-.91-.93h-10.84c-.5,0-.91.41-.91.91h0Z"/>
      <path class="cls-8" d="M200.41,203.61c0-.5-.41-.91-.91-.91h-.01c-.5,0-.91.41-.91.91v2.51c0,.5-.41.91-.91.91h-7.85c-.5,0-.91.41-.91.91v4.45c0,.5.41.91.91.91h.01c.5,0,.91-.41.91-.91v-2.61c0-.5.41-.91.91-.91h16.07c.5,0,.91.41.91.91v2.08c0,.5.41.91.91.91h.01c.5,0,.91-.41.91-.91v-3.92c0-.5-.41-.91-.91-.91h-8.23c-.5,0-.91-.41-.91-.91v-2.51Z"/>
      <path class="cls-8" d="M205.04,230.02c0-.5-.41-.91-.91-.91h-3.89c-.5,0-.91.11-.91.23s-.02.33-.03.45-.05.22-.07.22-.04.21-.04.47.41.47.91.47h2.19c.5,0,.91.41.91.91v12.57c0,.5.41.91.91.91h4.68c.5,0,.91-.41.91-.91h0c0-.52-.41-.93-.91-.93h-2.85c-.5,0-.91-.41-.91-.91v-12.57Z"/>
      <path class="cls-8" d="M191.66,230.04c0,.5.41.91.91.91h4.79c.5,0,.91-.11.91-.23s.02-.33.03-.45.05-.22.07-.22.04-.21.04-.47-.41-.47-.91-.47h-4.93c-.5,0-.91.41-.91.91h0Z"/>
      <path class="cls-8" d="M236.75,212.57c-.5,0-.57-.22-.14-.49l8.85-5.65c.42-.27.55-.84.28-1.27h0c-.27-.43-.83-.56-1.26-.29l-11.99,7.61c-.42.27-.77.9-.77,1.4v19.97c0,.5.41.91.91.91h.01c.5,0,.91-.41.91-.91v-18.53c0-.5.41-.91.91-.91h3.96c.5,0,.91.41.91.91v29.07c0,.5.41.91.91.91h.01c.5,0,.91-.41.91-.91v-29.07c0-.5.41-.91.91-.91h4.85c.5,0,.91-.41.91-.91h0c0-.52-.41-.93-.91-.93h-10.2Z"/>
      <rect class="cls-8" x="218.94" y="204.84" width="10.85" height="1.84" rx=".91" ry=".91"/>
      <path class="cls-8" d="M218.98,218.58c0,.5-.04,1.32-.09,1.82l-2.25,24.03c-.05.5.32.95.82,1h.02c.5.05.95-.31,1-.81l2.21-23.26c.05-.5.5-.91,1-.91h7.37c.5,0,.91-.41.91-.91v-7.93c0-.5-.41-.91-.91-.91h-9.17c-.5,0-.91.41-.91.91v6.96ZM221.74,218.62c-.5,0-.91-.41-.91-.91v-4.25c0-.5.41-.91.91-.91h5.49c.5,0,.91.41.91.91v4.25c0,.5-.41.91-.91.91h-5.49Z"/>
      <rect class="cls-8" x="87.7" y="214.71" width="3.17" height="1.84" rx=".91" ry=".91"/>
      <path class="cls-8" d="M85.03,225.32c0,.5.41.91.91.91h6.83c.5,0,.91-.41.91-.91v-17.23c0-.5-.41-.91-.91-.91h-6.83c-.5,0-.91.41-.91.91v17.23ZM90.93,209.02c.5,0,.91.41.91.91v13.54c0,.5-.41.91-.91.91h-3.15c-.5,0-.91-.41-.91-.91v-13.54c0-.5.41-.91.91-.91h3.15Z"/>
      <path class="cls-8" d="M104.3,209.98c0-.5.41-.91.91-.91h2.7c.5,0,.91-.41.91-.91h0c0-.52-.41-.93-.91-.93h-2.7c-.5,0-.91-.41-.91-.91v-2.7c0-.5-.41-.91-.91-.91h-.01c-.5,0-.91.41-.91.91v2.7c0,.5-.41.91-.91.91h-2.7c-.5,0-.91.41-.91.91h0c0,.52.41.93.91.93h2.7c.5,0,.91.41.91.91v4.1c0,.5-.41.91-.91.91h-6.18c-.5,0-.91.41-.91.91h0c0,.52.41.93.91.93h9.38c.5,0,.91.41.91.91v2.67c0,.5-.41.91-.91.91h-9.38c-.5,0-.91.41-.91.91h0c0,.51.41.93.91.93h9.38c.5,0,.91.41.91.91v18.5c0,.5-.41.91-.91.91h-2.84c-.5,0-.91.41-.91.91h0c0,.52.41.93.91.93h4.68c.5,0,.91-.41.91-.91v-20.35c0-.5.41-.91.91-.91h2.8c.5,0,.91-.41.91-.91h0c0-.51-.41-.93-.91-.93h-2.8c-.5,0-.91-.41-.91-.91v-2.67c0-.5.41-.91.91-.91h2.8c.5,0,.91-.41.91-.91h0c0-.52-.41-.93-.91-.93h-5.99c-.5,0-.91-.41-.91-.91v-4.1Z"/>
      <path class="cls-8" d="M116.84,244.44c0,.5.41.91.91.91h.01c.5,0,.91-.41.91-.91v-26.5c0-.5.41-.91.91-.91h20.98c.5,0,.91.41.91.91v24.66c0,.5-.41.91-.91.91h-2.84c-.5,0-.91.41-.91.91h0c0,.52.41.93.91.93h4.68c.5,0,.91-.41.91-.91v-28.33c0-.5-.41-.91-.91-.91h-24.66c-.5,0-.91.41-.91.91v28.33Z"/>
    </g>
    <path class="cls-7" d="M25,229.93s.1,8.94-2.46,14.16"/>
    <path class="cls-7" d="M49.67,225.23c0,10.6-4.68,17.04-4.68,17.04"/>
    <path class="cls-7" d="M27.92,229.93s.03,9.17,4,11.79"/>
    <path class="cls-10" d="M20.44,245.05c-.21.21-.32.33-.43.32-.14-.01-.56-.98-1.76-1.2-.91-.16-1.58.13-2,1.06-.28.62-.3,1.23-.3,1.23l5.9,2.7c.31-.2.52-.67.61-1.1.03-.12.01-.22.03-.3.11-.54,1.26-2.87,1.71-3.77l.16.07c.07.03.15,0,.18-.07l.05-.11c.03-.07.06-.28,0-.31l-.15-.07-2.67-1.22-.07-.03c-.07-.03-.21.13-.24.2l-.05.11c-.03.07,0,.14.07.18l.13.06c-.03.08-.06.18-.09.28l-.1.28c-.07.2-.16.41-.27.62l-.14.27c-.11.2-.23.4-.37.57l-.2.23Z"/>
    <path class="cls-10" d="M42.88,243c-.23.2-.34.3-.45.29-.14-.02-.49-1.02-1.67-1.32-.89-.23-1.58.01-2.08.91-.33.59-.39,1.2-.39,1.2l5.69,3.12c.33-.18.56-.63.69-1.05.03-.11.03-.22.05-.3.15-.53,1.47-2.77,1.98-3.63l.16.09c.06.04.14.01.18-.05l.06-.11c.04-.06.08-.27.02-.31l-.14-.08-2.57-1.41-.07-.04c-.06-.04-.21.12-.25.18l-.06.11c-.04.06-.01.14.05.18l.12.07c-.03.08-.07.17-.11.27l-.12.27c-.09.19-.19.4-.31.6l-.15.26c-.12.19-.26.38-.41.54l-.22.21Z"/>
    <path class="cls-10" d="M31.4,243.96c.1.28.15.43.1.52-.07.12-1.13.07-1.85,1.04-.55.74-.59,1.47.05,2.27.43.53.97.82.97.82l5.04-4.08c-.04-.37-.37-.76-.71-1.04-.09-.08-.19-.11-.25-.16-.44-.34-2.01-2.41-2.61-3.2l.14-.11c.06-.05.07-.13.02-.19l-.08-.1c-.05-.06-.22-.18-.28-.13l-.13.1-2.28,1.85-.06.05c-.06.05.03.24.07.3l.08.1c.05.06.13.07.19.02l.11-.09c.06.06.13.13.21.21l.21.22c.14.16.3.33.44.52l.18.24c.13.19.25.38.35.58l.12.28Z"/>
    <circle class="cls-8" cx="101.34" cy="233.32" r="1.47"/>
    <line class="cls-5" x1="96.62" y1="228.6" x2="101.34" y2="233.32"/>
    <path class="cls-10" d="M133.44,234.79c0,2.64-2.14,4.78-4.78,4.78s-4.78-2.14-4.78-4.78,2.14-4.78,4.78-4.78,4.78,2.14,4.78,4.78Z"/>
    <line class="cls-1" x1="136.36" y1="204.13" x2="128.66" y2="234.79"/>
    <g>
      <path class="cls-8" d="M166.57,228.23c-1.3-1.3-3.03-2.02-4.86-2.02-1.83,0-3.56.72-4.86,2.02-1.3,1.3-2.01,3.02-2.01,4.86,0,3.79,3.08,6.87,6.87,6.87h0c1.83,0,3.56-.72,4.86-2.02,1.3-1.3,2.01-3.02,2.01-4.86s-.72-3.56-2.01-4.86Z"/>
      <path class="cls-10" d="M167.06,233.09c0,1.43-.56,2.77-1.57,3.78s-2.35,1.57-3.78,1.57c-2.95,0-5.35-2.4-5.35-5.35,0-1.43.56-2.77,1.57-3.78s2.35-1.57,3.78-1.57c2.95,0,5.35,2.4,5.35,5.35Z"/>
      <path class="cls-9" d="M161.44,241.17c-.3,0-.55.36-.55.8l-.27,6.8c0,.33.33.59.73.59h.72c.4,0,.73-.26.73-.59l-.27-6.8c0-.44-.25-.8-.55-.8h-.54Z"/>
    </g>
    <line class="cls-4" x1="164.25" y1="228.12" x2="161.14" y2="233.09"/>
    <line class="cls-4" x1="166.07" y1="229.82" x2="163.48" y2="233.93"/>
    <path class="cls-6" d="M75.39,230.39l-11.62,11.62c-3.83-3.83-3.83-10.04,0-13.86,3.83-3.83,10.04-3.83,13.86,0s3.83,10.04,0,13.86c-1.91,1.91-4.42,2.87-6.93,2.87"/>
    <g>
      <path class="cls-10" d="M238.72,198.22c-.81,0-1.68.82-1.68,1.62s.88,1.29,1.68,1.29,1.7-.48,1.7-1.29-.9-1.62-1.7-1.62Z"/>
      <path class="cls-10" d="M246.56,193.3c.01-.08-.18-.01-.18-.1,0-.58-.04-1.16-.42-1.54s-.96-.78-1.54-.78-.95.6-1.33.98-.91.75-.91,1.33c0,.03.21.2.21.23-.57.12-1.13.27-1.5.7s-.6.98-.6,1.58c0,.69.24,1.4.69,1.85s1.16.65,1.85.65c.84,0,1.39-.62,1.85-1.26.22.08.61.5.85.5.56,0,1.17-.3,1.54-.67s.59-.98.59-1.54c0-.79-.46-1.6-1.12-1.94Z"/>
    </g>
    <path class="cls-6" d="M196.81,212.6v10.93c0-.9-1.34-1.63-2.99-1.63h-2.72"/>
    <line class="cls-3" x1="195.02" y1="214.01" x2="191.6" y2="214.01"/>
    <line class="cls-3" x1="195.02" y1="215.81" x2="191.6" y2="215.81"/>
    <line class="cls-3" x1="195.02" y1="217.61" x2="191.6" y2="217.61"/>
    <line class="cls-3" x1="195.02" y1="219.41" x2="191.6" y2="219.41"/>
    <path class="cls-6" d="M201.98,212.6v10.93c0-.9,1.34-1.63,2.99-1.63h2.72"/>
    <line class="cls-3" x1="203.77" y1="214.01" x2="207.19" y2="214.01"/>
    <line class="cls-3" x1="203.77" y1="215.81" x2="207.19" y2="215.81"/>
    <line class="cls-3" x1="203.77" y1="217.61" x2="207.19" y2="217.61"/>
    <line class="cls-3" x1="203.77" y1="219.41" x2="207.19" y2="219.41"/>
    <rect class="cls-10" x="195.72" y="225.62" width="2.02" height="20.42" transform="translate(104.45 -57.09) rotate(22.35)"/>
    <path class="cls-8" d="M199.68,226.01l.26-.64c.09-.22.35-.33.57-.24l1.05.43c.22.09.33.35.24.57l-.26.64"/>
    <g>
      <polygon class="cls-8" points="193.78 245.66 191.92 244.89 191.84 246.61 192.63 246.93 193.78 245.66"/>
      <polygon class="cls-10" points="192.63 246.93 191.89 246.63 191.84 247.79 192.63 246.93"/>
    </g>
    <line class="cls-2" x1="235.61" y1="203.16" x2="240.19" y2="203.16"/>
  </g>
</svg>