<svg width="35" height="35" viewBox="0 0 35 35" fill="none" xmlns="http://www.w3.org/2000/svg"><path opacity="0.3" x="0.25" y="0.25" width="26.5" height="26.5" rx="2.75" fill="white" stroke="#BBBBBB" stroke-width="0.6481481481481481" d="M3.889 0.324H31.111A3.565 3.565 0 0 1 34.676 3.889V31.111A3.565 3.565 0 0 1 31.111 34.676H3.889A3.565 3.565 0 0 1 0.324 31.111V3.889A3.565 3.565 0 0 1 3.889 0.324z"/><path d="M15.184 3.889a3.704 3.704 0 0 0 -3.704 3.704v14.815a3.704 3.704 0 0 0 3.704 3.704h9.261a3.704 3.704 0 0 0 3.704 -3.704V12.223h-0.004V10.211c0 -0.736 -0.292 -1.441 -0.813 -1.963L23.787 4.702A2.778 2.778 0 0 0 21.824 3.889H15.18h0.003Zm9.261 20.37h-9.261a1.852 1.852 0 0 1 -1.852 -1.851V7.592a1.852 1.852 0 0 1 1.852 -1.851h5.556V8.517a2.778 2.778 0 0 0 2.777 2.778h2.778v1.965h0.003v9.147a1.852 1.852 0 0 1 -1.852 1.851Zm1.465 -14.814H23.515a0.926 0.926 0 0 1 -0.926 -0.927V6.124l3.32 3.321ZM7.778 9.445a1.852 1.852 0 0 1 1.852 -1.852v14.815a5.556 5.556 0 0 0 5.555 5.555h9.259A1.852 1.852 0 0 1 22.594 29.815h-7.797A7.018 7.018 0 0 1 7.778 22.797v-13.352Z" fill="#871CDC"/></svg>