<svg width="35" height="35" viewBox="0 0 35 35" fill="none" xmlns="http://www.w3.org/2000/svg"><path opacity="0.3" x="0.25" y="0.25" width="26.5" height="26.5" rx="2.75" fill="white" stroke="#BBBBBB" stroke-width="0.6481481481481481" d="M3.889 0.324H31.111A3.565 3.565 0 0 1 34.676 3.889V31.111A3.565 3.565 0 0 1 31.111 34.676H3.889A3.565 3.565 0 0 1 0.324 31.111V3.889A3.565 3.565 0 0 1 3.889 0.324z"/><path d="M14.071 14.713a0.813 0.813 0 0 0 -1.355 0.131 0.81 0.81 0 0 0 0.11 0.906l3.618 4.343 -3.618 4.343a0.81 0.81 0 0 0 1.244 1.037l3.429 -4.114 3.429 4.116a0.811 0.811 0 0 0 1.244 -1.038l-3.618 -4.343 3.617 -4.343a0.809 0.809 0 0 0 -1.244 -1.037L17.5 18.827l-3.429 -4.116v0.001Z" fill="#0BA565"/><path d="M27.222 26.574V11.181L19.931 3.889H11.019A3.241 3.241 0 0 0 7.778 7.13v19.444A3.241 3.241 0 0 0 11.019 29.815h12.963a3.241 3.241 0 0 0 3.241 -3.241ZM19.931 8.75a2.431 2.431 0 0 0 2.431 2.431h3.241V26.574a1.62 1.62 0 0 1 -1.62 1.62h-12.963a1.62 1.62 0 0 1 -1.62 -1.62v-19.444A1.62 1.62 0 0 1 11.019 5.509h8.912v3.241Z" fill="#0BA565"/></svg>